<?xml version="1.0" encoding="utf-8" standalone="no"?>
<!DOCTYPE svg PUBLIC "-//W3C//DTD SVG 1.1//EN"
  "http://www.w3.org/Graphics/SVG/1.1/DTD/svg11.dtd">
<!-- Created with matplotlib (http://matplotlib.org/) -->
<svg height="419pt" version="1.1" viewBox="0 0 701 419" width="701pt" xmlns="http://www.w3.org/2000/svg" xmlns:xlink="http://www.w3.org/1999/xlink">
 <defs>
  <style type="text/css">
*{stroke-linecap:butt;stroke-linejoin:round;stroke-miterlimit:100000;}
  </style>
 </defs>
 <g id="figure_1">
  <g id="patch_1">
   <path d="M 0 419.510928 
L 701.0875 419.510928 
L 701.0875 0 
L 0 0 
z
" style="fill:#ffffff;"/>
  </g>
  <g id="axes_1">
   <g id="patch_2">
    <path d="M 30.2875 398.632803 
L 476.6875 398.632803 
L 476.6875 12.039062 
L 30.2875 12.039062 
z
" style="fill:#ffffff;"/>
   </g>
   <g id="PathCollection_1">
    <defs>
     <path d="M 0 3.535534 
C 0.937635 3.535534 1.836992 3.163008 2.5 2.5 
C 3.163008 1.836992 3.535534 0.937635 3.535534 0 
C 3.535534 -0.937635 3.163008 -1.836992 2.5 -2.5 
C 1.836992 -3.163008 0.937635 -3.535534 0 -3.535534 
C -0.937635 -3.535534 -1.836992 -3.163008 -2.5 -2.5 
C -3.163008 -1.836992 -3.535534 -0.937635 -3.535534 0 
C -3.535534 0.937635 -3.163008 1.836992 -2.5 2.5 
C -1.836992 3.163008 -0.937635 3.535534 0 3.535534 
z
" id="me7ee7335c6" style="stroke:#000000;stroke-opacity:0.6;"/>
    </defs>
    <g clip-path="url(#pf5e9ee3f44)">
     <use style="fill:#008000;fill-opacity:0.6;stroke:#000000;stroke-opacity:0.6;" x="236.7475" xlink:href="#me7ee7335c6" y="98.6915536358"/>
    </g>
   </g>
   <g id="PathCollection_2">
    <g clip-path="url(#pf5e9ee3f44)">
     <use style="fill:#008000;fill-opacity:0.6;stroke:#000000;stroke-opacity:0.6;" x="244.1875" xlink:href="#me7ee7335c6" y="92.6042809085"/>
    </g>
   </g>
   <g id="PathCollection_3">
    <g clip-path="url(#pf5e9ee3f44)">
     <use style="fill:#008000;fill-opacity:0.6;stroke:#000000;stroke-opacity:0.6;" x="249.7675" xlink:href="#me7ee7335c6" y="65.2115536358"/>
    </g>
   </g>
   <g id="PathCollection_4">
    <g clip-path="url(#pf5e9ee3f44)">
     <use style="fill:#008000;fill-opacity:0.6;stroke:#000000;stroke-opacity:0.6;" x="253.4875" xlink:href="#me7ee7335c6" y="71.2988263631"/>
    </g>
   </g>
   <g id="PathCollection_5">
    <g clip-path="url(#pf5e9ee3f44)">
     <use style="fill:#008000;fill-opacity:0.6;stroke:#000000;stroke-opacity:0.6;" x="251.6275" xlink:href="#me7ee7335c6" y="62.1679172722"/>
    </g>
   </g>
   <g id="PathCollection_6">
    <g clip-path="url(#pf5e9ee3f44)">
     <use style="fill:#008000;fill-opacity:0.6;stroke:#000000;stroke-opacity:0.6;" x="253.4875" xlink:href="#me7ee7335c6" y="59.1242809085"/>
    </g>
   </g>
   <g id="PathCollection_7">
    <g clip-path="url(#pf5e9ee3f44)">
     <use style="fill:#008000;fill-opacity:0.6;stroke:#000000;stroke-opacity:0.6;" x="246.0475" xlink:href="#me7ee7335c6" y="95.6479172722"/>
    </g>
   </g>
   <g id="PathCollection_8">
    <g clip-path="url(#pf5e9ee3f44)">
     <use style="fill:#008000;fill-opacity:0.6;stroke:#000000;stroke-opacity:0.6;" x="234.8875" xlink:href="#me7ee7335c6" y="89.5606445449"/>
    </g>
   </g>
   <g id="PathCollection_9">
    <g clip-path="url(#pf5e9ee3f44)">
     <use style="fill:#008000;fill-opacity:0.6;stroke:#000000;stroke-opacity:0.6;" x="242.3275" xlink:href="#me7ee7335c6" y="77.3860990903"/>
    </g>
   </g>
   <g id="PathCollection_10">
    <g clip-path="url(#pf5e9ee3f44)">
     <use style="fill:#008000;fill-opacity:0.6;stroke:#000000;stroke-opacity:0.6;" x="244.1875" xlink:href="#me7ee7335c6" y="80.429735454"/>
    </g>
   </g>
   <g id="PathCollection_11">
    <g clip-path="url(#pf5e9ee3f44)">
     <use style="fill:#008000;fill-opacity:0.6;stroke:#000000;stroke-opacity:0.6;" x="242.3275" xlink:href="#me7ee7335c6" y="77.3860990903"/>
    </g>
   </g>
   <g id="PathCollection_12">
    <defs>
     <path d="M -0 5 
L 3 0 
L 0 -5 
L -3 -0 
z
" id="m911a620d7c" style="stroke:#000000;stroke-opacity:0.6;"/>
    </defs>
    <g clip-path="url(#pf5e9ee3f44)">
     <use style="fill:#0000ff;fill-opacity:0.6;stroke:#000000;stroke-opacity:0.6;" x="231.1675" xlink:href="#m911a620d7c" y="132.171553636"/>
    </g>
   </g>
   <g id="PathCollection_13">
    <g clip-path="url(#pf5e9ee3f44)">
     <use style="fill:#0000ff;fill-opacity:0.6;stroke:#000000;stroke-opacity:0.6;" x="220.0075" xlink:href="#m911a620d7c" y="126.084280909"/>
    </g>
   </g>
   <g id="PathCollection_14">
    <g clip-path="url(#pf5e9ee3f44)">
     <use style="fill:#0000ff;fill-opacity:0.6;stroke:#000000;stroke-opacity:0.6;" x="220.0075" xlink:href="#m911a620d7c" y="144.34609909"/>
    </g>
   </g>
   <g id="PathCollection_15">
    <g clip-path="url(#pf5e9ee3f44)">
     <use style="fill:#0000ff;fill-opacity:0.6;stroke:#000000;stroke-opacity:0.6;" x="220.0075" xlink:href="#m911a620d7c" y="144.34609909"/>
    </g>
   </g>
   <g id="PathCollection_16">
    <g clip-path="url(#pf5e9ee3f44)">
     <use style="fill:#0000ff;fill-opacity:0.6;stroke:#000000;stroke-opacity:0.6;" x="210.7075" xlink:href="#m911a620d7c" y="135.215189999"/>
    </g>
   </g>
   <g id="PathCollection_17">
    <g clip-path="url(#pf5e9ee3f44)">
     <use style="fill:#0000ff;fill-opacity:0.6;stroke:#000000;stroke-opacity:0.6;" x="205.1275" xlink:href="#m911a620d7c" y="144.34609909"/>
    </g>
   </g>
   <g id="PathCollection_18">
    <defs>
     <path d="M -0 5 
L 5 0 
L 0 -5 
L -5 -0 
z
" id="m0db7ef96f1" style="stroke:#000000;stroke-opacity:0.6;"/>
    </defs>
    <g clip-path="url(#pf5e9ee3f44)">
     <use style="fill:#00bfbf;fill-opacity:0.6;stroke:#000000;stroke-opacity:0.6;" x="179.0875" xlink:href="#m0db7ef96f1" y="223.480644545"/>
    </g>
   </g>
   <g id="PathCollection_19">
    <g clip-path="url(#pf5e9ee3f44)">
     <use style="fill:#00bfbf;fill-opacity:0.6;stroke:#000000;stroke-opacity:0.6;" x="166.0675" xlink:href="#m0db7ef96f1" y="250.873371818"/>
    </g>
   </g>
   <g id="PathCollection_20">
    <g clip-path="url(#pf5e9ee3f44)">
     <use style="fill:#00bfbf;fill-opacity:0.6;stroke:#000000;stroke-opacity:0.6;" x="190.2475" xlink:href="#m0db7ef96f1" y="193.044280909"/>
    </g>
   </g>
   <g id="PathCollection_21">
    <g clip-path="url(#pf5e9ee3f44)">
     <use style="fill:#00bfbf;fill-opacity:0.6;stroke:#000000;stroke-opacity:0.6;" x="171.6475" xlink:href="#m0db7ef96f1" y="211.30609909"/>
    </g>
   </g>
   <g id="PathCollection_22">
    <g clip-path="url(#pf5e9ee3f44)">
     <use style="fill:#00bfbf;fill-opacity:0.6;stroke:#000000;stroke-opacity:0.6;" x="166.0675" xlink:href="#m0db7ef96f1" y="256.960644545"/>
    </g>
   </g>
   <g id="PathCollection_23">
    <g clip-path="url(#pf5e9ee3f44)">
     <use style="fill:#00bfbf;fill-opacity:0.6;stroke:#000000;stroke-opacity:0.6;" x="188.3875" xlink:href="#m0db7ef96f1" y="214.349735454"/>
    </g>
   </g>
   <g id="PathCollection_24">
    <g clip-path="url(#pf5e9ee3f44)">
     <use style="fill:#00bfbf;fill-opacity:0.6;stroke:#000000;stroke-opacity:0.6;" x="184.6675" xlink:href="#m0db7ef96f1" y="177.82609909"/>
    </g>
   </g>
   <g id="PathCollection_25">
    <g clip-path="url(#pf5e9ee3f44)">
     <use style="fill:#00bfbf;fill-opacity:0.6;stroke:#000000;stroke-opacity:0.6;" x="210.7075" xlink:href="#m0db7ef96f1" y="147.389735454"/>
    </g>
   </g>
   <g id="PathCollection_26">
    <defs>
     <path d="M -3.535534 3.535534 
L 3.535534 3.535534 
L 3.535534 -3.535534 
L -3.535534 -3.535534 
z
" id="m8a6ca3fa92" style="stroke:#000000;stroke-opacity:0.6;"/>
    </defs>
    <g clip-path="url(#pf5e9ee3f44)">
     <use style="fill:#ff0000;fill-opacity:0.6;stroke:#000000;stroke-opacity:0.6;" x="277.6675" xlink:href="#m8a6ca3fa92" y="360.444280909"/>
    </g>
   </g>
   <g id="PathCollection_27">
    <g clip-path="url(#pf5e9ee3f44)">
     <use style="fill:#ff0000;fill-opacity:0.6;stroke:#000000;stroke-opacity:0.6;" x="359.5075" xlink:href="#m8a6ca3fa92" y="323.920644545"/>
    </g>
   </g>
   <g id="PathCollection_28">
    <g clip-path="url(#pf5e9ee3f44)">
     <use style="fill:#ff0000;fill-opacity:0.6;stroke:#000000;stroke-opacity:0.6;" x="299.9875" xlink:href="#m8a6ca3fa92" y="342.182462727"/>
    </g>
   </g>
   <g id="PathCollection_29">
    <g clip-path="url(#pf5e9ee3f44)">
     <use style="fill:#ff0000;fill-opacity:0.6;stroke:#000000;stroke-opacity:0.6;" x="344.6275" xlink:href="#m8a6ca3fa92" y="336.095189999"/>
    </g>
   </g>
   <g id="PathCollection_30">
    <g clip-path="url(#pf5e9ee3f44)">
     <use style="fill:#ff0000;fill-opacity:0.6;stroke:#000000;stroke-opacity:0.6;" x="318.5875" xlink:href="#m8a6ca3fa92" y="348.269735454"/>
    </g>
   </g>
   <g id="PathCollection_31">
    <g clip-path="url(#pf5e9ee3f44)">
     <use style="fill:#ff0000;fill-opacity:0.6;stroke:#000000;stroke-opacity:0.6;" x="314.8675" xlink:href="#m8a6ca3fa92" y="354.357008181"/>
    </g>
   </g>
   <g id="PathCollection_32">
    <g clip-path="url(#pf5e9ee3f44)">
     <use style="fill:#ff0000;fill-opacity:0.6;stroke:#000000;stroke-opacity:0.6;" x="340.9075" xlink:href="#m8a6ca3fa92" y="354.357008181"/>
    </g>
   </g>
   <g id="PathCollection_33">
    <g clip-path="url(#pf5e9ee3f44)">
     <use style="fill:#ff0000;fill-opacity:0.6;stroke:#000000;stroke-opacity:0.6;" x="326.0275" xlink:href="#m8a6ca3fa92" y="354.357008181"/>
    </g>
   </g>
   <g id="PathCollection_34">
    <defs>
     <path d="M 0 -3.535534 
L -3.535534 3.535534 
L 3.535534 3.535534 
z
" id="mdbec2a27bb" style="stroke:#000000;stroke-opacity:0.6;"/>
    </defs>
    <g clip-path="url(#pf5e9ee3f44)">
     <use style="fill:#ffff00;fill-opacity:0.6;stroke:#000000;stroke-opacity:0.6;" x="285.1075" xlink:href="#mdbec2a27bb" y="299.571553636"/>
    </g>
   </g>
   <g id="PathCollection_35">
    <g clip-path="url(#pf5e9ee3f44)">
     <use style="fill:#ffff00;fill-opacity:0.6;stroke:#000000;stroke-opacity:0.6;" x="296.2675" xlink:href="#mdbec2a27bb" y="299.571553636"/>
    </g>
   </g>
   <g id="PathCollection_36">
    <g clip-path="url(#pf5e9ee3f44)">
     <use style="fill:#ffff00;fill-opacity:0.6;stroke:#000000;stroke-opacity:0.6;" x="316.7275" xlink:href="#mdbec2a27bb" y="314.789735454"/>
    </g>
   </g>
   <g id="PathCollection_37">
    <g clip-path="url(#pf5e9ee3f44)">
     <use style="fill:#ffff00;fill-opacity:0.6;stroke:#000000;stroke-opacity:0.6;" x="301.8475" xlink:href="#mdbec2a27bb" y="308.702462727"/>
    </g>
   </g>
   <g id="PathCollection_38">
    <g clip-path="url(#pf5e9ee3f44)">
     <use style="fill:#ffff00;fill-opacity:0.6;stroke:#000000;stroke-opacity:0.6;" x="331.6075" xlink:href="#mdbec2a27bb" y="296.527917272"/>
    </g>
   </g>
   <g id="PathCollection_39">
    <g clip-path="url(#pf5e9ee3f44)">
     <use style="fill:#ffff00;fill-opacity:0.6;stroke:#000000;stroke-opacity:0.6;" x="300.45719697" xlink:href="#mdbec2a27bb" y="314.297834628"/>
    </g>
   </g>
   <g id="PathCollection_40">
    <g clip-path="url(#pf5e9ee3f44)">
     <use style="fill:#ffff00;fill-opacity:0.6;stroke:#000000;stroke-opacity:0.6;" x="311.1475" xlink:href="#mdbec2a27bb" y="299.571553636"/>
    </g>
   </g>
   <g id="PathCollection_41">
    <g clip-path="url(#pf5e9ee3f44)">
     <use style="fill:#ffff00;fill-opacity:0.6;stroke:#000000;stroke-opacity:0.6;" x="311.1475" xlink:href="#mdbec2a27bb" y="317.833371818"/>
    </g>
   </g>
   <g id="PathCollection_42">
    <g clip-path="url(#pf5e9ee3f44)">
     <use style="fill:#ffff00;fill-opacity:0.6;stroke:#000000;stroke-opacity:0.6;" x="242.3275" xlink:href="#mdbec2a27bb" y="308.702462727"/>
    </g>
   </g>
   <g id="PathCollection_43">
    <defs>
     <path d="M 0 -3.535534 
L -3.061862 -1.767767 
L -3.061862 1.767767 
L -0 3.535534 
L 3.061862 1.767767 
L 3.061862 -1.767767 
z
" id="m86a47458f6" style="stroke:#000000;stroke-opacity:0.6;"/>
    </defs>
    <g clip-path="url(#pf5e9ee3f44)">
     <use style="fill-opacity:0.6;stroke:#000000;stroke-opacity:0.6;" x="195.8275" xlink:href="#m86a47458f6" y="269.135189999"/>
    </g>
   </g>
   <g id="PathCollection_44">
    <g clip-path="url(#pf5e9ee3f44)">
     <use style="fill-opacity:0.6;stroke:#000000;stroke-opacity:0.6;" x="208.8475" xlink:href="#m86a47458f6" y="260.004280909"/>
    </g>
   </g>
   <g id="PathCollection_45">
    <g clip-path="url(#pf5e9ee3f44)">
     <use style="fill-opacity:0.6;stroke:#000000;stroke-opacity:0.6;" x="275.8075" xlink:href="#m86a47458f6" y="272.178826363"/>
    </g>
   </g>
   <g id="PathCollection_46">
    <g clip-path="url(#pf5e9ee3f44)">
     <use style="fill-opacity:0.6;stroke:#000000;stroke-opacity:0.6;" x="249.7675" xlink:href="#m86a47458f6" y="247.829735454"/>
    </g>
   </g>
   <g id="PathCollection_47">
    <g clip-path="url(#pf5e9ee3f44)">
     <use style="fill-opacity:0.6;stroke:#000000;stroke-opacity:0.6;" x="231.1675" xlink:href="#m86a47458f6" y="247.829735454"/>
    </g>
   </g>
   <g id="PathCollection_48">
    <g clip-path="url(#pf5e9ee3f44)">
     <use style="fill-opacity:0.6;stroke:#000000;stroke-opacity:0.6;" x="262.7875" xlink:href="#m86a47458f6" y="256.960644545"/>
    </g>
   </g>
   <g id="PathCollection_49">
    <g clip-path="url(#pf5e9ee3f44)">
     <use style="fill-opacity:0.6;stroke:#000000;stroke-opacity:0.6;" x="260.9275" xlink:href="#m86a47458f6" y="266.091553636"/>
    </g>
   </g>
   <g id="PathCollection_50">
    <g clip-path="url(#pf5e9ee3f44)">
     <use style="fill-opacity:0.6;stroke:#000000;stroke-opacity:0.6;" x="193.9675" xlink:href="#m86a47458f6" y="284.353371818"/>
    </g>
   </g>
   <g id="PathCollection_51">
    <g clip-path="url(#pf5e9ee3f44)">
     <use style="fill-opacity:0.6;stroke:#000000;stroke-opacity:0.6;" x="212.5675" xlink:href="#m86a47458f6" y="241.742462727"/>
    </g>
   </g>
   <g id="PathCollection_52">
    <g clip-path="url(#pf5e9ee3f44)">
     <use style="fill-opacity:0.6;stroke:#000000;stroke-opacity:0.6;" x="264.6475" xlink:href="#m86a47458f6" y="272.178826363"/>
    </g>
   </g>
   <g id="PathCollection_53">
    <g clip-path="url(#pf5e9ee3f44)">
     <use style="fill-opacity:0.6;stroke:#000000;stroke-opacity:0.6;" x="240.4675" xlink:href="#m86a47458f6" y="256.960644545"/>
    </g>
   </g>
   <g id="PathCollection_54">
    <g clip-path="url(#pf5e9ee3f44)">
     <use style="fill-opacity:0.6;stroke:#000000;stroke-opacity:0.6;" x="281.3875" xlink:href="#m86a47458f6" y="293.484280909"/>
    </g>
   </g>
   <g id="PathCollection_55">
    <g clip-path="url(#pf5e9ee3f44)">
     <use style="fill-opacity:0.6;stroke:#000000;stroke-opacity:0.6;" x="264.6475" xlink:href="#m86a47458f6" y="217.393371818"/>
    </g>
   </g>
   <g id="PathCollection_56">
    <g clip-path="url(#pf5e9ee3f44)">
     <use style="fill-opacity:0.6;stroke:#000000;stroke-opacity:0.6;" x="236.7475" xlink:href="#m86a47458f6" y="281.309735454"/>
    </g>
   </g>
   <g id="PathCollection_57">
    <g clip-path="url(#pf5e9ee3f44)">
     <use style="fill-opacity:0.6;stroke:#000000;stroke-opacity:0.6;" x="233.0275" xlink:href="#m86a47458f6" y="244.78609909"/>
    </g>
   </g>
   <g id="PathCollection_58">
    <g clip-path="url(#pf5e9ee3f44)">
     <use style="fill-opacity:0.6;stroke:#000000;stroke-opacity:0.6;" x="253.4875" xlink:href="#m86a47458f6" y="278.26609909"/>
    </g>
   </g>
   <g id="PathCollection_59">
    <defs>
     <path d="M -1.767767 -3.061862 
L -3.535534 -0 
L -1.767767 3.061862 
L 1.767767 3.061862 
L 3.535534 0 
L 1.767767 -3.061862 
z
" id="m66d489b141" style="stroke:#000000;stroke-opacity:0.6;"/>
    </defs>
    <g clip-path="url(#pf5e9ee3f44)">
     <use style="fill:#0000ff;fill-opacity:0.6;stroke:#000000;stroke-opacity:0.6;" x="262.7875" xlink:href="#m66d489b141" y="226.524280909"/>
    </g>
   </g>
   <g id="PathCollection_60">
    <g clip-path="url(#pf5e9ee3f44)">
     <use style="fill:#0000ff;fill-opacity:0.6;stroke:#000000;stroke-opacity:0.6;" x="361.3675" xlink:href="#m66d489b141" y="290.440644545"/>
    </g>
   </g>
   <g id="PathCollection_61">
    <g clip-path="url(#pf5e9ee3f44)">
     <use style="fill:#0000ff;fill-opacity:0.6;stroke:#000000;stroke-opacity:0.6;" x="298.1275" xlink:href="#m66d489b141" y="211.30609909"/>
    </g>
   </g>
   <g id="PathCollection_62">
    <g clip-path="url(#pf5e9ee3f44)">
     <use style="fill:#0000ff;fill-opacity:0.6;stroke:#000000;stroke-opacity:0.6;" x="299.9875" xlink:href="#m66d489b141" y="177.82609909"/>
    </g>
   </g>
   <g id="PathCollection_63">
    <defs>
     <path d="M -3.535534 -0 
L 3.535534 3.535534 
L 3.535534 -3.535534 
z
" id="m62164020f4" style="stroke:#000000;stroke-opacity:0.6;"/>
    </defs>
    <g clip-path="url(#pf5e9ee3f44)">
     <use style="fill:#ff0000;fill-opacity:0.6;stroke:#000000;stroke-opacity:0.6;" x="227.4475" xlink:href="#m62164020f4" y="186.957008181"/>
    </g>
   </g>
   <g id="PathCollection_64">
    <g clip-path="url(#pf5e9ee3f44)">
     <use style="fill:#ff0000;fill-opacity:0.6;stroke:#000000;stroke-opacity:0.6;" x="268.3675" xlink:href="#m62164020f4" y="193.044280909"/>
    </g>
   </g>
   <g id="PathCollection_65">
    <g clip-path="url(#pf5e9ee3f44)">
     <use style="fill:#ff0000;fill-opacity:0.6;stroke:#000000;stroke-opacity:0.6;" x="253.4875" xlink:href="#m62164020f4" y="89.5606445449"/>
    </g>
   </g>
   <g id="PathCollection_66">
    <g clip-path="url(#pf5e9ee3f44)">
     <use style="fill:#ff0000;fill-opacity:0.6;stroke:#000000;stroke-opacity:0.6;" x="268.3675" xlink:href="#m62164020f4" y="119.997008181"/>
    </g>
   </g>
   <g id="PathCollection_67">
    <g clip-path="url(#pf5e9ee3f44)">
     <use style="fill:#ff0000;fill-opacity:0.6;stroke:#000000;stroke-opacity:0.6;" x="301.8475" xlink:href="#m62164020f4" y="174.782462727"/>
    </g>
   </g>
   <g id="PathCollection_68">
    <g clip-path="url(#pf5e9ee3f44)">
     <use style="fill:#ff0000;fill-opacity:0.6;stroke:#000000;stroke-opacity:0.6;" x="281.3875" xlink:href="#m62164020f4" y="123.040644545"/>
    </g>
   </g>
   <g id="PathCollection_69">
    <g clip-path="url(#pf5e9ee3f44)">
     <use style="fill:#ff0000;fill-opacity:0.6;stroke:#000000;stroke-opacity:0.6;" x="238.6075" xlink:href="#m62164020f4" y="156.520644545"/>
    </g>
   </g>
   <g id="PathCollection_70">
    <g clip-path="url(#pf5e9ee3f44)">
     <use style="fill:#ff0000;fill-opacity:0.6;stroke:#000000;stroke-opacity:0.6;" x="246.0475" xlink:href="#m62164020f4" y="126.084280909"/>
    </g>
   </g>
   <g id="PathCollection_71">
    <g clip-path="url(#pf5e9ee3f44)">
     <use style="fill:#ff0000;fill-opacity:0.6;stroke:#000000;stroke-opacity:0.6;" x="268.3675" xlink:href="#m62164020f4" y="156.520644545"/>
    </g>
   </g>
   <g id="PathCollection_72">
    <defs>
     <path d="M 3.535534 0 
L -3.535534 -3.535534 
L -3.535534 3.535534 
z
" id="m5817e2f4f2" style="stroke:#000000;stroke-opacity:0.6;"/>
    </defs>
    <g clip-path="url(#pf5e9ee3f44)">
     <use style="fill:#008000;fill-opacity:0.6;stroke:#000000;stroke-opacity:0.6;" x="244.1875" xlink:href="#m5817e2f4f2" y="196.087917272"/>
    </g>
   </g>
   <g id="PathCollection_73">
    <g clip-path="url(#pf5e9ee3f44)">
     <use style="fill:#008000;fill-opacity:0.6;stroke:#000000;stroke-opacity:0.6;" x="270.2275" xlink:href="#m5817e2f4f2" y="98.6915536358"/>
    </g>
   </g>
   <g id="PathCollection_74">
    <g clip-path="url(#pf5e9ee3f44)">
     <use style="fill:#008000;fill-opacity:0.6;stroke:#000000;stroke-opacity:0.6;" x="313.0075" xlink:href="#m5817e2f4f2" y="229.567917272"/>
    </g>
   </g>
   <g id="PathCollection_75">
    <g clip-path="url(#pf5e9ee3f44)">
     <use style="fill:#008000;fill-opacity:0.6;stroke:#000000;stroke-opacity:0.6;" x="298.1275" xlink:href="#m5817e2f4f2" y="150.433371818"/>
    </g>
   </g>
   <g id="PathCollection_76">
    <g clip-path="url(#pf5e9ee3f44)">
     <use style="fill:#008000;fill-opacity:0.6;stroke:#000000;stroke-opacity:0.6;" x="320.4475" xlink:href="#m5817e2f4f2" y="205.218826363"/>
    </g>
   </g>
   <g id="PathCollection_77">
    <g clip-path="url(#pf5e9ee3f44)">
     <use style="fill:#008000;fill-opacity:0.6;stroke:#000000;stroke-opacity:0.6;" x="314.8675" xlink:href="#m5817e2f4f2" y="159.564280909"/>
    </g>
   </g>
   <g id="PathCollection_78">
    <g clip-path="url(#pf5e9ee3f44)">
     <use style="fill:#008000;fill-opacity:0.6;stroke:#000000;stroke-opacity:0.6;" x="331.6075" xlink:href="#m5817e2f4f2" y="223.480644545"/>
    </g>
   </g>
   <g id="PathCollection_79">
    <g clip-path="url(#pf5e9ee3f44)">
     <use style="fill:#008000;fill-opacity:0.6;stroke:#000000;stroke-opacity:0.6;" x="309.2875" xlink:href="#m5817e2f4f2" y="296.527917272"/>
    </g>
   </g>
   <g id="PathCollection_80">
    <g clip-path="url(#pf5e9ee3f44)">
     <use style="fill:#008000;fill-opacity:0.6;stroke:#000000;stroke-opacity:0.6;" x="301.8475" xlink:href="#m5817e2f4f2" y="138.258826363"/>
    </g>
   </g>
   <g id="PathCollection_81">
    <g clip-path="url(#pf5e9ee3f44)">
     <use style="fill:#008000;fill-opacity:0.6;stroke:#000000;stroke-opacity:0.6;" x="247.9075" xlink:href="#m5817e2f4f2" y="92.6042809085"/>
    </g>
   </g>
   <g id="PathCollection_82">
    <g clip-path="url(#pf5e9ee3f44)">
     <use style="fill:#008000;fill-opacity:0.6;stroke:#000000;stroke-opacity:0.6;" x="238.6075" xlink:href="#m5817e2f4f2" y="113.909735454"/>
    </g>
   </g>
   <g id="PathCollection_83">
    <g clip-path="url(#pf5e9ee3f44)">
     <use style="fill:#008000;fill-opacity:0.6;stroke:#000000;stroke-opacity:0.6;" x="255.3475" xlink:href="#m5817e2f4f2" y="104.778826363"/>
    </g>
   </g>
   <g id="PathCollection_84">
    <g clip-path="url(#pf5e9ee3f44)">
     <use style="fill:#008000;fill-opacity:0.6;stroke:#000000;stroke-opacity:0.6;" x="247.9075" xlink:href="#m5817e2f4f2" y="98.6915536358"/>
    </g>
   </g>
   <g id="PathCollection_85">
    <g clip-path="url(#pf5e9ee3f44)">
     <use style="fill:#008000;fill-opacity:0.6;stroke:#000000;stroke-opacity:0.6;" x="335.3275" xlink:href="#m5817e2f4f2" y="223.480644545"/>
    </g>
   </g>
   <g id="PathCollection_86">
    <g clip-path="url(#pf5e9ee3f44)">
     <use style="fill:#008000;fill-opacity:0.6;stroke:#000000;stroke-opacity:0.6;" x="281.3875" xlink:href="#m5817e2f4f2" y="123.040644545"/>
    </g>
   </g>
   <g id="PathCollection_87">
    <g clip-path="url(#pf5e9ee3f44)">
     <use style="fill:#008000;fill-opacity:0.6;stroke:#000000;stroke-opacity:0.6;" x="296.2675" xlink:href="#m5817e2f4f2" y="141.302462727"/>
    </g>
   </g>
   <g id="PathCollection_88">
    <g clip-path="url(#pf5e9ee3f44)">
     <use style="fill:#008000;fill-opacity:0.6;stroke:#000000;stroke-opacity:0.6;" x="283.2475" xlink:href="#m5817e2f4f2" y="126.084280909"/>
    </g>
   </g>
   <g id="patch_3">
    <path clip-path="url(#pf5e9ee3f44)" d="M 67.4875 363.487917 
L 123.2875 363.487917 
L 259.0675 68.25519 
L 253.4875 59.124281 
z
" style="fill:#0000ff;opacity:0.13;stroke:#0000ff;stroke-linejoin:miter;"/>
   </g>
   <g id="patch_4">
    <path clip-path="url(#pf5e9ee3f44)" d="M 392.9875 287.397008 
L 259.0675 68.25519 
L 195.448238 206.585492 
z
" style="fill:#ff0000;opacity:0.13;stroke:#ff0000;stroke-linejoin:miter;"/>
   </g>
   <g id="line2d_1">
    <path clip-path="url(#pf5e9ee3f44)" d="M 67.4875 363.487917 
L 439.4875 363.487917 
L 253.4875 59.124281 
L 67.4875 363.487917 
" style="fill:none;opacity:0.7;stroke:#000000;stroke-linecap:square;"/>
   </g>
   <g id="line2d_2">
    <path clip-path="url(#pf5e9ee3f44)" d="M 123.2875 363.487917 
L 259.0675 68.25519 
" style="fill:none;opacity:0.7;stroke:#000000;stroke-linecap:square;"/>
   </g>
   <g id="line2d_3">
    <path clip-path="url(#pf5e9ee3f44)" d="M 169.7875 196.087917 
L 392.9875 287.397008 
" style="fill:none;opacity:0.7;stroke:#000000;stroke-linecap:square;"/>
   </g>
   <g id="line2d_4">
    <path clip-path="url(#pf5e9ee3f44)" d="M 253.4875 363.487917 
L 392.9875 287.397008 
" style="fill:none;opacity:0.7;stroke:#000000;stroke-dasharray:6.000000,6.000000;stroke-dashoffset:0.0;"/>
   </g>
   <g id="line2d_5">
    <path clip-path="url(#pf5e9ee3f44)" d="M 148.304631 309.092014 
L 329.838232 261.563217 
" style="fill:none;opacity:0.7;stroke:#000000;stroke-dasharray:6.000000,6.000000;stroke-dashoffset:0.0;"/>
   </g>
   <g id="line2d_6">
    <path clip-path="url(#pf5e9ee3f44)" d="M 329.838232 261.563217 
L 370.6675 250.873372 
" style="fill:none;opacity:0.7;stroke:#000000;stroke-dasharray:1.000000,3.000000;stroke-dashoffset:0.0;"/>
   </g>
   <g id="line2d_7">
    <path clip-path="url(#pf5e9ee3f44)" d="M 220.0075 113.909735 
L 234.448049 121.786399 
" style="fill:none;opacity:0.7;stroke:#000000;stroke-linecap:square;"/>
   </g>
   <g id="patch_5">
    <path d="M 476.6875 398.632803 
L 476.6875 12.039062 
" style="fill:none;"/>
   </g>
   <g id="patch_6">
    <path d="M 30.2875 398.632803 
L 30.2875 12.039062 
" style="fill:none;"/>
   </g>
   <g id="patch_7">
    <path d="M 30.2875 398.632803 
L 476.6875 398.632803 
" style="fill:none;"/>
   </g>
   <g id="patch_8">
    <path d="M 30.2875 12.039062 
L 476.6875 12.039062 
" style="fill:none;"/>
   </g>
   <g id="matplotlib.axis_1">
    <g id="xtick_1">
     <g id="line2d_8">
      <defs>
       <path d="M 0 0 
L 0 -4 
" id="m2b4be53788" style="stroke:#000000;stroke-width:0.5;"/>
      </defs>
      <g>
       <use style="stroke:#000000;stroke-width:0.5;" x="67.4875" xlink:href="#m2b4be53788" y="398.632802749"/>
      </g>
     </g>
     <g id="line2d_9">
      <defs>
       <path d="M 0 0 
L 0 4 
" id="m297df2ef86" style="stroke:#000000;stroke-width:0.5;"/>
      </defs>
      <g>
       <use style="stroke:#000000;stroke-width:0.5;" x="67.4875" xlink:href="#m297df2ef86" y="12.0390625"/>
      </g>
     </g>
     <g id="text_1">
      <!-- 0 -->
      <defs>
       <path d="M 31.78125 66.40625 
Q 24.171875 66.40625 20.328125 58.90625 
Q 16.5 51.421875 16.5 36.375 
Q 16.5 21.390625 20.328125 13.890625 
Q 24.171875 6.390625 31.78125 6.390625 
Q 39.453125 6.390625 43.28125 13.890625 
Q 47.125 21.390625 47.125 36.375 
Q 47.125 51.421875 43.28125 58.90625 
Q 39.453125 66.40625 31.78125 66.40625 
M 31.78125 74.21875 
Q 44.046875 74.21875 50.515625 64.515625 
Q 56.984375 54.828125 56.984375 36.375 
Q 56.984375 17.96875 50.515625 8.265625 
Q 44.046875 -1.421875 31.78125 -1.421875 
Q 19.53125 -1.421875 13.0625 8.265625 
Q 6.59375 17.96875 6.59375 36.375 
Q 6.59375 54.828125 13.0625 64.515625 
Q 19.53125 74.21875 31.78125 74.21875 
" id="BitstreamVeraSans-Roman-30"/>
      </defs>
      <g transform="translate(64.30625 410.231240249)scale(0.1 -0.1)">
       <use xlink:href="#BitstreamVeraSans-Roman-30"/>
      </g>
     </g>
    </g>
    <g id="xtick_2">
     <g id="line2d_10">
      <g>
       <use style="stroke:#000000;stroke-width:0.5;" x="141.8875" xlink:href="#m2b4be53788" y="398.632802749"/>
      </g>
     </g>
     <g id="line2d_11">
      <g>
       <use style="stroke:#000000;stroke-width:0.5;" x="141.8875" xlink:href="#m297df2ef86" y="12.0390625"/>
      </g>
     </g>
     <g id="text_2">
      <!-- 20 -->
      <defs>
       <path d="M 19.1875 8.296875 
L 53.609375 8.296875 
L 53.609375 0 
L 7.328125 0 
L 7.328125 8.296875 
Q 12.9375 14.109375 22.625 23.890625 
Q 32.328125 33.6875 34.8125 36.53125 
Q 39.546875 41.84375 41.421875 45.53125 
Q 43.3125 49.21875 43.3125 52.78125 
Q 43.3125 58.59375 39.234375 62.25 
Q 35.15625 65.921875 28.609375 65.921875 
Q 23.96875 65.921875 18.8125 64.3125 
Q 13.671875 62.703125 7.8125 59.421875 
L 7.8125 69.390625 
Q 13.765625 71.78125 18.9375 73 
Q 24.125 74.21875 28.421875 74.21875 
Q 39.75 74.21875 46.484375 68.546875 
Q 53.21875 62.890625 53.21875 53.421875 
Q 53.21875 48.921875 51.53125 44.890625 
Q 49.859375 40.875 45.40625 35.40625 
Q 44.1875 33.984375 37.640625 27.21875 
Q 31.109375 20.453125 19.1875 8.296875 
" id="BitstreamVeraSans-Roman-32"/>
      </defs>
      <g transform="translate(135.525 410.231240249)scale(0.1 -0.1)">
       <use xlink:href="#BitstreamVeraSans-Roman-32"/>
       <use x="63.623046875" xlink:href="#BitstreamVeraSans-Roman-30"/>
      </g>
     </g>
    </g>
    <g id="xtick_3">
     <g id="line2d_12">
      <g>
       <use style="stroke:#000000;stroke-width:0.5;" x="216.2875" xlink:href="#m2b4be53788" y="398.632802749"/>
      </g>
     </g>
     <g id="line2d_13">
      <g>
       <use style="stroke:#000000;stroke-width:0.5;" x="216.2875" xlink:href="#m297df2ef86" y="12.0390625"/>
      </g>
     </g>
     <g id="text_3">
      <!-- 40 -->
      <defs>
       <path d="M 37.796875 64.3125 
L 12.890625 25.390625 
L 37.796875 25.390625 
z
M 35.203125 72.90625 
L 47.609375 72.90625 
L 47.609375 25.390625 
L 58.015625 25.390625 
L 58.015625 17.1875 
L 47.609375 17.1875 
L 47.609375 0 
L 37.796875 0 
L 37.796875 17.1875 
L 4.890625 17.1875 
L 4.890625 26.703125 
z
" id="BitstreamVeraSans-Roman-34"/>
      </defs>
      <g transform="translate(209.925 410.231240249)scale(0.1 -0.1)">
       <use xlink:href="#BitstreamVeraSans-Roman-34"/>
       <use x="63.623046875" xlink:href="#BitstreamVeraSans-Roman-30"/>
      </g>
     </g>
    </g>
    <g id="xtick_4">
     <g id="line2d_14">
      <g>
       <use style="stroke:#000000;stroke-width:0.5;" x="290.6875" xlink:href="#m2b4be53788" y="398.632802749"/>
      </g>
     </g>
     <g id="line2d_15">
      <g>
       <use style="stroke:#000000;stroke-width:0.5;" x="290.6875" xlink:href="#m297df2ef86" y="12.0390625"/>
      </g>
     </g>
     <g id="text_4">
      <!-- 60 -->
      <defs>
       <path d="M 33.015625 40.375 
Q 26.375 40.375 22.484375 35.828125 
Q 18.609375 31.296875 18.609375 23.390625 
Q 18.609375 15.53125 22.484375 10.953125 
Q 26.375 6.390625 33.015625 6.390625 
Q 39.65625 6.390625 43.53125 10.953125 
Q 47.40625 15.53125 47.40625 23.390625 
Q 47.40625 31.296875 43.53125 35.828125 
Q 39.65625 40.375 33.015625 40.375 
M 52.59375 71.296875 
L 52.59375 62.3125 
Q 48.875 64.0625 45.09375 64.984375 
Q 41.3125 65.921875 37.59375 65.921875 
Q 27.828125 65.921875 22.671875 59.328125 
Q 17.53125 52.734375 16.796875 39.40625 
Q 19.671875 43.65625 24.015625 45.921875 
Q 28.375 48.1875 33.59375 48.1875 
Q 44.578125 48.1875 50.953125 41.515625 
Q 57.328125 34.859375 57.328125 23.390625 
Q 57.328125 12.15625 50.6875 5.359375 
Q 44.046875 -1.421875 33.015625 -1.421875 
Q 20.359375 -1.421875 13.671875 8.265625 
Q 6.984375 17.96875 6.984375 36.375 
Q 6.984375 53.65625 15.1875 63.9375 
Q 23.390625 74.21875 37.203125 74.21875 
Q 40.921875 74.21875 44.703125 73.484375 
Q 48.484375 72.75 52.59375 71.296875 
" id="BitstreamVeraSans-Roman-36"/>
      </defs>
      <g transform="translate(284.325 410.231240249)scale(0.1 -0.1)">
       <use xlink:href="#BitstreamVeraSans-Roman-36"/>
       <use x="63.623046875" xlink:href="#BitstreamVeraSans-Roman-30"/>
      </g>
     </g>
    </g>
    <g id="xtick_5">
     <g id="line2d_16">
      <g>
       <use style="stroke:#000000;stroke-width:0.5;" x="365.0875" xlink:href="#m2b4be53788" y="398.632802749"/>
      </g>
     </g>
     <g id="line2d_17">
      <g>
       <use style="stroke:#000000;stroke-width:0.5;" x="365.0875" xlink:href="#m297df2ef86" y="12.0390625"/>
      </g>
     </g>
     <g id="text_5">
      <!-- 80 -->
      <defs>
       <path d="M 31.78125 34.625 
Q 24.75 34.625 20.71875 30.859375 
Q 16.703125 27.09375 16.703125 20.515625 
Q 16.703125 13.921875 20.71875 10.15625 
Q 24.75 6.390625 31.78125 6.390625 
Q 38.8125 6.390625 42.859375 10.171875 
Q 46.921875 13.96875 46.921875 20.515625 
Q 46.921875 27.09375 42.890625 30.859375 
Q 38.875 34.625 31.78125 34.625 
M 21.921875 38.8125 
Q 15.578125 40.375 12.03125 44.71875 
Q 8.5 49.078125 8.5 55.328125 
Q 8.5 64.0625 14.71875 69.140625 
Q 20.953125 74.21875 31.78125 74.21875 
Q 42.671875 74.21875 48.875 69.140625 
Q 55.078125 64.0625 55.078125 55.328125 
Q 55.078125 49.078125 51.53125 44.71875 
Q 48 40.375 41.703125 38.8125 
Q 48.828125 37.15625 52.796875 32.3125 
Q 56.78125 27.484375 56.78125 20.515625 
Q 56.78125 9.90625 50.3125 4.234375 
Q 43.84375 -1.421875 31.78125 -1.421875 
Q 19.734375 -1.421875 13.25 4.234375 
Q 6.78125 9.90625 6.78125 20.515625 
Q 6.78125 27.484375 10.78125 32.3125 
Q 14.796875 37.15625 21.921875 38.8125 
M 18.3125 54.390625 
Q 18.3125 48.734375 21.84375 45.5625 
Q 25.390625 42.390625 31.78125 42.390625 
Q 38.140625 42.390625 41.71875 45.5625 
Q 45.3125 48.734375 45.3125 54.390625 
Q 45.3125 60.0625 41.71875 63.234375 
Q 38.140625 66.40625 31.78125 66.40625 
Q 25.390625 66.40625 21.84375 63.234375 
Q 18.3125 60.0625 18.3125 54.390625 
" id="BitstreamVeraSans-Roman-38"/>
      </defs>
      <g transform="translate(358.725 410.231240249)scale(0.1 -0.1)">
       <use xlink:href="#BitstreamVeraSans-Roman-38"/>
       <use x="63.623046875" xlink:href="#BitstreamVeraSans-Roman-30"/>
      </g>
     </g>
    </g>
    <g id="xtick_6">
     <g id="line2d_18">
      <g>
       <use style="stroke:#000000;stroke-width:0.5;" x="439.4875" xlink:href="#m2b4be53788" y="398.632802749"/>
      </g>
     </g>
     <g id="line2d_19">
      <g>
       <use style="stroke:#000000;stroke-width:0.5;" x="439.4875" xlink:href="#m297df2ef86" y="12.0390625"/>
      </g>
     </g>
     <g id="text_6">
      <!-- 100 -->
      <defs>
       <path d="M 12.40625 8.296875 
L 28.515625 8.296875 
L 28.515625 63.921875 
L 10.984375 60.40625 
L 10.984375 69.390625 
L 28.421875 72.90625 
L 38.28125 72.90625 
L 38.28125 8.296875 
L 54.390625 8.296875 
L 54.390625 0 
L 12.40625 0 
z
" id="BitstreamVeraSans-Roman-31"/>
      </defs>
      <g transform="translate(429.94375 410.231240249)scale(0.1 -0.1)">
       <use xlink:href="#BitstreamVeraSans-Roman-31"/>
       <use x="63.623046875" xlink:href="#BitstreamVeraSans-Roman-30"/>
       <use x="127.24609375" xlink:href="#BitstreamVeraSans-Roman-30"/>
      </g>
     </g>
    </g>
   </g>
   <g id="matplotlib.axis_2">
    <g id="ytick_1">
     <g id="line2d_20">
      <defs>
       <path d="M 0 0 
L 4 0 
" id="meb928feaef" style="stroke:#000000;stroke-width:0.5;"/>
      </defs>
      <g>
       <use style="stroke:#000000;stroke-width:0.5;" x="30.2875" xlink:href="#meb928feaef" y="363.487917272"/>
      </g>
     </g>
     <g id="line2d_21">
      <defs>
       <path d="M 0 0 
L -4 0 
" id="m3f7cb4dd4d" style="stroke:#000000;stroke-width:0.5;"/>
      </defs>
      <g>
       <use style="stroke:#000000;stroke-width:0.5;" x="476.6875" xlink:href="#m3f7cb4dd4d" y="363.487917272"/>
      </g>
     </g>
     <g id="text_7">
      <!-- 0 -->
      <g transform="translate(19.925 366.247292272)scale(0.1 -0.1)">
       <use xlink:href="#BitstreamVeraSans-Roman-30"/>
      </g>
     </g>
    </g>
    <g id="ytick_2">
     <g id="line2d_22">
      <g>
       <use style="stroke:#000000;stroke-width:0.5;" x="30.2875" xlink:href="#meb928feaef" y="293.198146318"/>
      </g>
     </g>
     <g id="line2d_23">
      <g>
       <use style="stroke:#000000;stroke-width:0.5;" x="476.6875" xlink:href="#m3f7cb4dd4d" y="293.198146318"/>
      </g>
     </g>
     <g id="text_8">
      <!-- 20 -->
      <g transform="translate(13.5625 295.957521318)scale(0.1 -0.1)">
       <use xlink:href="#BitstreamVeraSans-Roman-32"/>
       <use x="63.623046875" xlink:href="#BitstreamVeraSans-Roman-30"/>
      </g>
     </g>
    </g>
    <g id="ytick_3">
     <g id="line2d_24">
      <g>
       <use style="stroke:#000000;stroke-width:0.5;" x="30.2875" xlink:href="#meb928feaef" y="222.908375363"/>
      </g>
     </g>
     <g id="line2d_25">
      <g>
       <use style="stroke:#000000;stroke-width:0.5;" x="476.6875" xlink:href="#m3f7cb4dd4d" y="222.908375363"/>
      </g>
     </g>
     <g id="text_9">
      <!-- 40 -->
      <g transform="translate(13.5625 225.667750363)scale(0.1 -0.1)">
       <use xlink:href="#BitstreamVeraSans-Roman-34"/>
       <use x="63.623046875" xlink:href="#BitstreamVeraSans-Roman-30"/>
      </g>
     </g>
    </g>
    <g id="ytick_4">
     <g id="line2d_26">
      <g>
       <use style="stroke:#000000;stroke-width:0.5;" x="30.2875" xlink:href="#meb928feaef" y="152.618604409"/>
      </g>
     </g>
     <g id="line2d_27">
      <g>
       <use style="stroke:#000000;stroke-width:0.5;" x="476.6875" xlink:href="#m3f7cb4dd4d" y="152.618604409"/>
      </g>
     </g>
     <g id="text_10">
      <!-- 60 -->
      <g transform="translate(13.5625 155.377979409)scale(0.1 -0.1)">
       <use xlink:href="#BitstreamVeraSans-Roman-36"/>
       <use x="63.623046875" xlink:href="#BitstreamVeraSans-Roman-30"/>
      </g>
     </g>
    </g>
    <g id="ytick_5">
     <g id="line2d_28">
      <g>
       <use style="stroke:#000000;stroke-width:0.5;" x="30.2875" xlink:href="#meb928feaef" y="82.3288334544"/>
      </g>
     </g>
     <g id="line2d_29">
      <g>
       <use style="stroke:#000000;stroke-width:0.5;" x="476.6875" xlink:href="#m3f7cb4dd4d" y="82.3288334544"/>
      </g>
     </g>
     <g id="text_11">
      <!-- 80 -->
      <g transform="translate(13.5625 85.0882084544)scale(0.1 -0.1)">
       <use xlink:href="#BitstreamVeraSans-Roman-38"/>
       <use x="63.623046875" xlink:href="#BitstreamVeraSans-Roman-30"/>
      </g>
     </g>
    </g>
    <g id="ytick_6">
     <g id="line2d_30">
      <g>
       <use style="stroke:#000000;stroke-width:0.5;" x="30.2875" xlink:href="#meb928feaef" y="12.0390625"/>
      </g>
     </g>
     <g id="line2d_31">
      <g>
       <use style="stroke:#000000;stroke-width:0.5;" x="476.6875" xlink:href="#m3f7cb4dd4d" y="12.0390625"/>
      </g>
     </g>
     <g id="text_12">
      <!-- 100 -->
      <g transform="translate(7.2 14.7984375)scale(0.1 -0.1)">
       <use xlink:href="#BitstreamVeraSans-Roman-31"/>
       <use x="63.623046875" xlink:href="#BitstreamVeraSans-Roman-30"/>
       <use x="127.24609375" xlink:href="#BitstreamVeraSans-Roman-30"/>
      </g>
     </g>
    </g>
   </g>
   <g id="text_13">
    <!-- Q -->
    <defs>
     <path d="M 39.40625 66.21875 
Q 28.65625 66.21875 22.328125 58.203125 
Q 16.015625 50.203125 16.015625 36.375 
Q 16.015625 22.609375 22.328125 14.59375 
Q 28.65625 6.59375 39.40625 6.59375 
Q 50.140625 6.59375 56.421875 14.59375 
Q 62.703125 22.609375 62.703125 36.375 
Q 62.703125 50.203125 56.421875 58.203125 
Q 50.140625 66.21875 39.40625 66.21875 
M 53.21875 1.3125 
L 66.21875 -12.890625 
L 54.296875 -12.890625 
L 43.5 -1.21875 
Q 41.890625 -1.3125 41.03125 -1.359375 
Q 40.1875 -1.421875 39.40625 -1.421875 
Q 24.03125 -1.421875 14.8125 8.859375 
Q 5.609375 19.140625 5.609375 36.375 
Q 5.609375 53.65625 14.8125 63.9375 
Q 24.03125 74.21875 39.40625 74.21875 
Q 54.734375 74.21875 63.90625 63.9375 
Q 73.09375 53.65625 73.09375 36.375 
Q 73.09375 23.6875 67.984375 14.640625 
Q 62.890625 5.609375 53.21875 1.3125 
" id="BitstreamVeraSans-Roman-51"/>
    </defs>
    <g transform="translate(246.0475 52.0953038131)scale(0.16 -0.16)">
     <use xlink:href="#BitstreamVeraSans-Roman-51"/>
    </g>
   </g>
   <g id="text_14">
    <!-- F -->
    <defs>
     <path d="M 9.8125 72.90625 
L 51.703125 72.90625 
L 51.703125 64.59375 
L 19.671875 64.59375 
L 19.671875 43.109375 
L 48.578125 43.109375 
L 48.578125 34.8125 
L 19.671875 34.8125 
L 19.671875 0 
L 9.8125 0 
z
" id="BitstreamVeraSans-Roman-46"/>
    </defs>
    <g transform="translate(45.1675 367.00240582)scale(0.16 -0.16)">
     <use xlink:href="#BitstreamVeraSans-Roman-46"/>
    </g>
   </g>
   <g id="text_15">
    <!-- L -->
    <defs>
     <path d="M 9.8125 72.90625 
L 19.671875 72.90625 
L 19.671875 8.296875 
L 55.171875 8.296875 
L 55.171875 0 
L 9.8125 0 
z
" id="BitstreamVeraSans-Roman-4c"/>
    </defs>
    <g transform="translate(454.3675 367.00240582)scale(0.16 -0.16)">
     <use xlink:href="#BitstreamVeraSans-Roman-4c"/>
    </g>
   </g>
   <g id="text_16">
    <!-- Craton  -->
    <defs>
     <path d="M 18.3125 70.21875 
L 18.3125 54.6875 
L 36.8125 54.6875 
L 36.8125 47.703125 
L 18.3125 47.703125 
L 18.3125 18.015625 
Q 18.3125 11.328125 20.140625 9.421875 
Q 21.96875 7.515625 27.59375 7.515625 
L 36.8125 7.515625 
L 36.8125 0 
L 27.59375 0 
Q 17.1875 0 13.234375 3.875 
Q 9.28125 7.765625 9.28125 18.015625 
L 9.28125 47.703125 
L 2.6875 47.703125 
L 2.6875 54.6875 
L 9.28125 54.6875 
L 9.28125 70.21875 
z
" id="BitstreamVeraSans-Roman-74"/>
     <path id="BitstreamVeraSans-Roman-20"/>
     <path d="M 64.40625 67.28125 
L 64.40625 56.890625 
Q 59.421875 61.53125 53.78125 63.8125 
Q 48.140625 66.109375 41.796875 66.109375 
Q 29.296875 66.109375 22.65625 58.46875 
Q 16.015625 50.828125 16.015625 36.375 
Q 16.015625 21.96875 22.65625 14.328125 
Q 29.296875 6.6875 41.796875 6.6875 
Q 48.140625 6.6875 53.78125 8.984375 
Q 59.421875 11.28125 64.40625 15.921875 
L 64.40625 5.609375 
Q 59.234375 2.09375 53.4375 0.328125 
Q 47.65625 -1.421875 41.21875 -1.421875 
Q 24.65625 -1.421875 15.125 8.703125 
Q 5.609375 18.84375 5.609375 36.375 
Q 5.609375 53.953125 15.125 64.078125 
Q 24.65625 74.21875 41.21875 74.21875 
Q 47.75 74.21875 53.53125 72.484375 
Q 59.328125 70.75 64.40625 67.28125 
" id="BitstreamVeraSans-Roman-43"/>
     <path d="M 34.28125 27.484375 
Q 23.390625 27.484375 19.1875 25 
Q 14.984375 22.515625 14.984375 16.5 
Q 14.984375 11.71875 18.140625 8.90625 
Q 21.296875 6.109375 26.703125 6.109375 
Q 34.1875 6.109375 38.703125 11.40625 
Q 43.21875 16.703125 43.21875 25.484375 
L 43.21875 27.484375 
z
M 52.203125 31.203125 
L 52.203125 0 
L 43.21875 0 
L 43.21875 8.296875 
Q 40.140625 3.328125 35.546875 0.953125 
Q 30.953125 -1.421875 24.3125 -1.421875 
Q 15.921875 -1.421875 10.953125 3.296875 
Q 6 8.015625 6 15.921875 
Q 6 25.140625 12.171875 29.828125 
Q 18.359375 34.515625 30.609375 34.515625 
L 43.21875 34.515625 
L 43.21875 35.40625 
Q 43.21875 41.609375 39.140625 45 
Q 35.0625 48.390625 27.6875 48.390625 
Q 23 48.390625 18.546875 47.265625 
Q 14.109375 46.140625 10.015625 43.890625 
L 10.015625 52.203125 
Q 14.9375 54.109375 19.578125 55.046875 
Q 24.21875 56 28.609375 56 
Q 40.484375 56 46.34375 49.84375 
Q 52.203125 43.703125 52.203125 31.203125 
" id="BitstreamVeraSans-Roman-61"/>
     <path d="M 54.890625 33.015625 
L 54.890625 0 
L 45.90625 0 
L 45.90625 32.71875 
Q 45.90625 40.484375 42.875 44.328125 
Q 39.84375 48.1875 33.796875 48.1875 
Q 26.515625 48.1875 22.3125 43.546875 
Q 18.109375 38.921875 18.109375 30.90625 
L 18.109375 0 
L 9.078125 0 
L 9.078125 54.6875 
L 18.109375 54.6875 
L 18.109375 46.1875 
Q 21.34375 51.125 25.703125 53.5625 
Q 30.078125 56 35.796875 56 
Q 45.21875 56 50.046875 50.171875 
Q 54.890625 44.34375 54.890625 33.015625 
" id="BitstreamVeraSans-Roman-6e"/>
     <path d="M 30.609375 48.390625 
Q 23.390625 48.390625 19.1875 42.75 
Q 14.984375 37.109375 14.984375 27.296875 
Q 14.984375 17.484375 19.15625 11.84375 
Q 23.34375 6.203125 30.609375 6.203125 
Q 37.796875 6.203125 41.984375 11.859375 
Q 46.1875 17.53125 46.1875 27.296875 
Q 46.1875 37.015625 41.984375 42.703125 
Q 37.796875 48.390625 30.609375 48.390625 
M 30.609375 56 
Q 42.328125 56 49.015625 48.375 
Q 55.71875 40.765625 55.71875 27.296875 
Q 55.71875 13.875 49.015625 6.21875 
Q 42.328125 -1.421875 30.609375 -1.421875 
Q 18.84375 -1.421875 12.171875 6.21875 
Q 5.515625 13.875 5.515625 27.296875 
Q 5.515625 40.765625 12.171875 48.375 
Q 18.84375 56 30.609375 56 
" id="BitstreamVeraSans-Roman-6f"/>
     <path d="M 41.109375 46.296875 
Q 39.59375 47.171875 37.8125 47.578125 
Q 36.03125 48 33.890625 48 
Q 26.265625 48 22.1875 43.046875 
Q 18.109375 38.09375 18.109375 28.8125 
L 18.109375 0 
L 9.078125 0 
L 9.078125 54.6875 
L 18.109375 54.6875 
L 18.109375 46.1875 
Q 20.953125 51.171875 25.484375 53.578125 
Q 30.03125 56 36.53125 56 
Q 37.453125 56 38.578125 55.875 
Q 39.703125 55.765625 41.0625 55.515625 
z
" id="BitstreamVeraSans-Roman-72"/>
    </defs>
    <g style="fill:#808080;opacity:0.8;" transform="translate(160.4675 74.1232695449)scale(0.12 -0.12)">
     <use xlink:href="#BitstreamVeraSans-Roman-43"/>
     <use x="69.82421875" xlink:href="#BitstreamVeraSans-Roman-72"/>
     <use x="110.9375" xlink:href="#BitstreamVeraSans-Roman-61"/>
     <use x="172.216796875" xlink:href="#BitstreamVeraSans-Roman-74"/>
     <use x="211.42578125" xlink:href="#BitstreamVeraSans-Roman-6f"/>
     <use x="272.607421875" xlink:href="#BitstreamVeraSans-Roman-6e"/>
     <use x="335.986328125" xlink:href="#BitstreamVeraSans-Roman-20"/>
    </g>
    <!--  Interior -->
    <defs>
     <path d="M 9.421875 54.6875 
L 18.40625 54.6875 
L 18.40625 0 
L 9.421875 0 
z
M 9.421875 75.984375 
L 18.40625 75.984375 
L 18.40625 64.59375 
L 9.421875 64.59375 
z
" id="BitstreamVeraSans-Roman-69"/>
     <path d="M 9.8125 72.90625 
L 19.671875 72.90625 
L 19.671875 0 
L 9.8125 0 
z
" id="BitstreamVeraSans-Roman-49"/>
     <path d="M 56.203125 29.59375 
L 56.203125 25.203125 
L 14.890625 25.203125 
Q 15.484375 15.921875 20.484375 11.0625 
Q 25.484375 6.203125 34.421875 6.203125 
Q 39.59375 6.203125 44.453125 7.46875 
Q 49.3125 8.734375 54.109375 11.28125 
L 54.109375 2.78125 
Q 49.265625 0.734375 44.1875 -0.34375 
Q 39.109375 -1.421875 33.890625 -1.421875 
Q 20.796875 -1.421875 13.15625 6.1875 
Q 5.515625 13.8125 5.515625 26.8125 
Q 5.515625 40.234375 12.765625 48.109375 
Q 20.015625 56 32.328125 56 
Q 43.359375 56 49.78125 48.890625 
Q 56.203125 41.796875 56.203125 29.59375 
M 47.21875 32.234375 
Q 47.125 39.59375 43.09375 43.984375 
Q 39.0625 48.390625 32.421875 48.390625 
Q 24.90625 48.390625 20.390625 44.140625 
Q 15.875 39.890625 15.1875 32.171875 
z
" id="BitstreamVeraSans-Roman-65"/>
    </defs>
    <g style="fill:#808080;opacity:0.8;" transform="translate(160.4675 87.5606445449)scale(0.12 -0.12)">
     <use xlink:href="#BitstreamVeraSans-Roman-20"/>
     <use x="31.787109375" xlink:href="#BitstreamVeraSans-Roman-49"/>
     <use x="61.279296875" xlink:href="#BitstreamVeraSans-Roman-6e"/>
     <use x="124.658203125" xlink:href="#BitstreamVeraSans-Roman-74"/>
     <use x="163.8671875" xlink:href="#BitstreamVeraSans-Roman-65"/>
     <use x="225.390625" xlink:href="#BitstreamVeraSans-Roman-72"/>
     <use x="266.50390625" xlink:href="#BitstreamVeraSans-Roman-69"/>
     <use x="294.287109375" xlink:href="#BitstreamVeraSans-Roman-6f"/>
     <use x="355.46875" xlink:href="#BitstreamVeraSans-Roman-72"/>
    </g>
   </g>
   <g id="text_17">
    <!-- Transitional  -->
    <defs>
     <path d="M 44.28125 53.078125 
L 44.28125 44.578125 
Q 40.484375 46.53125 36.375 47.5 
Q 32.28125 48.484375 27.875 48.484375 
Q 21.1875 48.484375 17.84375 46.4375 
Q 14.5 44.390625 14.5 40.28125 
Q 14.5 37.15625 16.890625 35.375 
Q 19.28125 33.59375 26.515625 31.984375 
L 29.59375 31.296875 
Q 39.15625 29.25 43.1875 25.515625 
Q 47.21875 21.78125 47.21875 15.09375 
Q 47.21875 7.46875 41.1875 3.015625 
Q 35.15625 -1.421875 24.609375 -1.421875 
Q 20.21875 -1.421875 15.453125 -0.5625 
Q 10.6875 0.296875 5.421875 2 
L 5.421875 11.28125 
Q 10.40625 8.6875 15.234375 7.390625 
Q 20.0625 6.109375 24.8125 6.109375 
Q 31.15625 6.109375 34.5625 8.28125 
Q 37.984375 10.453125 37.984375 14.40625 
Q 37.984375 18.0625 35.515625 20.015625 
Q 33.0625 21.96875 24.703125 23.78125 
L 21.578125 24.515625 
Q 13.234375 26.265625 9.515625 29.90625 
Q 5.8125 33.546875 5.8125 39.890625 
Q 5.8125 47.609375 11.28125 51.796875 
Q 16.75 56 26.8125 56 
Q 31.78125 56 36.171875 55.265625 
Q 40.578125 54.546875 44.28125 53.078125 
" id="BitstreamVeraSans-Roman-73"/>
     <path d="M 9.421875 75.984375 
L 18.40625 75.984375 
L 18.40625 0 
L 9.421875 0 
z
" id="BitstreamVeraSans-Roman-6c"/>
     <path d="M -0.296875 72.90625 
L 61.375 72.90625 
L 61.375 64.59375 
L 35.5 64.59375 
L 35.5 0 
L 25.59375 0 
L 25.59375 64.59375 
L -0.296875 64.59375 
z
" id="BitstreamVeraSans-Roman-54"/>
    </defs>
    <g style="fill:#808080;opacity:0.8;" transform="translate(123.2675 134.995996818)scale(0.12 -0.12)">
     <use xlink:href="#BitstreamVeraSans-Roman-54"/>
     <use x="60.865234375" xlink:href="#BitstreamVeraSans-Roman-72"/>
     <use x="101.978515625" xlink:href="#BitstreamVeraSans-Roman-61"/>
     <use x="163.2578125" xlink:href="#BitstreamVeraSans-Roman-6e"/>
     <use x="226.63671875" xlink:href="#BitstreamVeraSans-Roman-73"/>
     <use x="278.736328125" xlink:href="#BitstreamVeraSans-Roman-69"/>
     <use x="306.51953125" xlink:href="#BitstreamVeraSans-Roman-74"/>
     <use x="345.728515625" xlink:href="#BitstreamVeraSans-Roman-69"/>
     <use x="373.51171875" xlink:href="#BitstreamVeraSans-Roman-6f"/>
     <use x="434.693359375" xlink:href="#BitstreamVeraSans-Roman-6e"/>
     <use x="498.072265625" xlink:href="#BitstreamVeraSans-Roman-61"/>
     <use x="559.3515625" xlink:href="#BitstreamVeraSans-Roman-6c"/>
     <use x="587.134765625" xlink:href="#BitstreamVeraSans-Roman-20"/>
    </g>
    <!--  Continental -->
    <g style="fill:#808080;opacity:0.8;" transform="translate(123.2675 148.433371818)scale(0.12 -0.12)">
     <use xlink:href="#BitstreamVeraSans-Roman-20"/>
     <use x="31.787109375" xlink:href="#BitstreamVeraSans-Roman-43"/>
     <use x="101.611328125" xlink:href="#BitstreamVeraSans-Roman-6f"/>
     <use x="162.79296875" xlink:href="#BitstreamVeraSans-Roman-6e"/>
     <use x="226.171875" xlink:href="#BitstreamVeraSans-Roman-74"/>
     <use x="265.380859375" xlink:href="#BitstreamVeraSans-Roman-69"/>
     <use x="293.1640625" xlink:href="#BitstreamVeraSans-Roman-6e"/>
     <use x="356.54296875" xlink:href="#BitstreamVeraSans-Roman-65"/>
     <use x="418.06640625" xlink:href="#BitstreamVeraSans-Roman-6e"/>
     <use x="481.4453125" xlink:href="#BitstreamVeraSans-Roman-74"/>
     <use x="520.654296875" xlink:href="#BitstreamVeraSans-Roman-61"/>
     <use x="581.93359375" xlink:href="#BitstreamVeraSans-Roman-6c"/>
    </g>
   </g>
   <g id="text_18">
    <!-- Basement  -->
    <defs>
     <path d="M 19.671875 34.8125 
L 19.671875 8.109375 
L 35.5 8.109375 
Q 43.453125 8.109375 47.28125 11.40625 
Q 51.125 14.703125 51.125 21.484375 
Q 51.125 28.328125 47.28125 31.5625 
Q 43.453125 34.8125 35.5 34.8125 
z
M 19.671875 64.796875 
L 19.671875 42.828125 
L 34.28125 42.828125 
Q 41.5 42.828125 45.03125 45.53125 
Q 48.578125 48.25 48.578125 53.8125 
Q 48.578125 59.328125 45.03125 62.0625 
Q 41.5 64.796875 34.28125 64.796875 
z
M 9.8125 72.90625 
L 35.015625 72.90625 
Q 46.296875 72.90625 52.390625 68.21875 
Q 58.5 63.53125 58.5 54.890625 
Q 58.5 48.1875 55.375 44.234375 
Q 52.25 40.28125 46.1875 39.3125 
Q 53.46875 37.75 57.5 32.78125 
Q 61.53125 27.828125 61.53125 20.40625 
Q 61.53125 10.640625 54.890625 5.3125 
Q 48.25 0 35.984375 0 
L 9.8125 0 
z
" id="BitstreamVeraSans-Roman-42"/>
     <path d="M 52 44.1875 
Q 55.375 50.25 60.0625 53.125 
Q 64.75 56 71.09375 56 
Q 79.640625 56 84.28125 50.015625 
Q 88.921875 44.046875 88.921875 33.015625 
L 88.921875 0 
L 79.890625 0 
L 79.890625 32.71875 
Q 79.890625 40.578125 77.09375 44.375 
Q 74.3125 48.1875 68.609375 48.1875 
Q 61.625 48.1875 57.5625 43.546875 
Q 53.515625 38.921875 53.515625 30.90625 
L 53.515625 0 
L 44.484375 0 
L 44.484375 32.71875 
Q 44.484375 40.625 41.703125 44.40625 
Q 38.921875 48.1875 33.109375 48.1875 
Q 26.21875 48.1875 22.15625 43.53125 
Q 18.109375 38.875 18.109375 30.90625 
L 18.109375 0 
L 9.078125 0 
L 9.078125 54.6875 
L 18.109375 54.6875 
L 18.109375 46.1875 
Q 21.1875 51.21875 25.484375 53.609375 
Q 29.78125 56 35.6875 56 
Q 41.65625 56 45.828125 52.96875 
Q 50 49.953125 52 44.1875 
" id="BitstreamVeraSans-Roman-6d"/>
    </defs>
    <g style="fill:#808080;opacity:0.8;" transform="translate(67.4675 226.305087727)scale(0.12 -0.12)">
     <use xlink:href="#BitstreamVeraSans-Roman-42"/>
     <use x="68.603515625" xlink:href="#BitstreamVeraSans-Roman-61"/>
     <use x="129.8828125" xlink:href="#BitstreamVeraSans-Roman-73"/>
     <use x="181.982421875" xlink:href="#BitstreamVeraSans-Roman-65"/>
     <use x="243.505859375" xlink:href="#BitstreamVeraSans-Roman-6d"/>
     <use x="340.91796875" xlink:href="#BitstreamVeraSans-Roman-65"/>
     <use x="402.44140625" xlink:href="#BitstreamVeraSans-Roman-6e"/>
     <use x="465.8203125" xlink:href="#BitstreamVeraSans-Roman-74"/>
     <use x="505.029296875" xlink:href="#BitstreamVeraSans-Roman-20"/>
    </g>
    <!--  Uplift -->
    <defs>
     <path d="M 37.109375 75.984375 
L 37.109375 68.5 
L 28.515625 68.5 
Q 23.6875 68.5 21.796875 66.546875 
Q 19.921875 64.59375 19.921875 59.515625 
L 19.921875 54.6875 
L 34.71875 54.6875 
L 34.71875 47.703125 
L 19.921875 47.703125 
L 19.921875 0 
L 10.890625 0 
L 10.890625 47.703125 
L 2.296875 47.703125 
L 2.296875 54.6875 
L 10.890625 54.6875 
L 10.890625 58.5 
Q 10.890625 67.625 15.140625 71.796875 
Q 19.390625 75.984375 28.609375 75.984375 
z
" id="BitstreamVeraSans-Roman-66"/>
     <path d="M 18.109375 8.203125 
L 18.109375 -20.796875 
L 9.078125 -20.796875 
L 9.078125 54.6875 
L 18.109375 54.6875 
L 18.109375 46.390625 
Q 20.953125 51.265625 25.265625 53.625 
Q 29.59375 56 35.59375 56 
Q 45.5625 56 51.78125 48.09375 
Q 58.015625 40.1875 58.015625 27.296875 
Q 58.015625 14.40625 51.78125 6.484375 
Q 45.5625 -1.421875 35.59375 -1.421875 
Q 29.59375 -1.421875 25.265625 0.953125 
Q 20.953125 3.328125 18.109375 8.203125 
M 48.6875 27.296875 
Q 48.6875 37.203125 44.609375 42.84375 
Q 40.53125 48.484375 33.40625 48.484375 
Q 26.265625 48.484375 22.1875 42.84375 
Q 18.109375 37.203125 18.109375 27.296875 
Q 18.109375 17.390625 22.1875 11.75 
Q 26.265625 6.109375 33.40625 6.109375 
Q 40.53125 6.109375 44.609375 11.75 
Q 48.6875 17.390625 48.6875 27.296875 
" id="BitstreamVeraSans-Roman-70"/>
     <path d="M 8.6875 72.90625 
L 18.609375 72.90625 
L 18.609375 28.609375 
Q 18.609375 16.890625 22.84375 11.734375 
Q 27.09375 6.59375 36.625 6.59375 
Q 46.09375 6.59375 50.34375 11.734375 
Q 54.59375 16.890625 54.59375 28.609375 
L 54.59375 72.90625 
L 64.5 72.90625 
L 64.5 27.390625 
Q 64.5 13.140625 57.4375 5.859375 
Q 50.390625 -1.421875 36.625 -1.421875 
Q 22.796875 -1.421875 15.734375 5.859375 
Q 8.6875 13.140625 8.6875 27.390625 
z
" id="BitstreamVeraSans-Roman-55"/>
    </defs>
    <g style="fill:#808080;opacity:0.8;" transform="translate(67.4675 239.742462727)scale(0.12 -0.12)">
     <use xlink:href="#BitstreamVeraSans-Roman-20"/>
     <use x="31.787109375" xlink:href="#BitstreamVeraSans-Roman-55"/>
     <use x="104.98046875" xlink:href="#BitstreamVeraSans-Roman-70"/>
     <use x="168.45703125" xlink:href="#BitstreamVeraSans-Roman-6c"/>
     <use x="196.240234375" xlink:href="#BitstreamVeraSans-Roman-69"/>
     <use x="224.0234375" xlink:href="#BitstreamVeraSans-Roman-66"/>
     <use x="259.212890625" xlink:href="#BitstreamVeraSans-Roman-74"/>
    </g>
   </g>
   <g id="text_19">
    <!-- Recycled  -->
    <defs>
     <path d="M 45.40625 46.390625 
L 45.40625 75.984375 
L 54.390625 75.984375 
L 54.390625 0 
L 45.40625 0 
L 45.40625 8.203125 
Q 42.578125 3.328125 38.25 0.953125 
Q 33.9375 -1.421875 27.875 -1.421875 
Q 17.96875 -1.421875 11.734375 6.484375 
Q 5.515625 14.40625 5.515625 27.296875 
Q 5.515625 40.1875 11.734375 48.09375 
Q 17.96875 56 27.875 56 
Q 33.9375 56 38.25 53.625 
Q 42.578125 51.265625 45.40625 46.390625 
M 14.796875 27.296875 
Q 14.796875 17.390625 18.875 11.75 
Q 22.953125 6.109375 30.078125 6.109375 
Q 37.203125 6.109375 41.296875 11.75 
Q 45.40625 17.390625 45.40625 27.296875 
Q 45.40625 37.203125 41.296875 42.84375 
Q 37.203125 48.484375 30.078125 48.484375 
Q 22.953125 48.484375 18.875 42.84375 
Q 14.796875 37.203125 14.796875 27.296875 
" id="BitstreamVeraSans-Roman-64"/>
     <path d="M 44.390625 34.1875 
Q 47.5625 33.109375 50.5625 29.59375 
Q 53.5625 26.078125 56.59375 19.921875 
L 66.609375 0 
L 56 0 
L 46.6875 18.703125 
Q 43.0625 26.03125 39.671875 28.421875 
Q 36.28125 30.8125 30.421875 30.8125 
L 19.671875 30.8125 
L 19.671875 0 
L 9.8125 0 
L 9.8125 72.90625 
L 32.078125 72.90625 
Q 44.578125 72.90625 50.734375 67.671875 
Q 56.890625 62.453125 56.890625 51.90625 
Q 56.890625 45.015625 53.6875 40.46875 
Q 50.484375 35.9375 44.390625 34.1875 
M 19.671875 64.796875 
L 19.671875 38.921875 
L 32.078125 38.921875 
Q 39.203125 38.921875 42.84375 42.21875 
Q 46.484375 45.515625 46.484375 51.90625 
Q 46.484375 58.296875 42.84375 61.546875 
Q 39.203125 64.796875 32.078125 64.796875 
z
" id="BitstreamVeraSans-Roman-52"/>
     <path d="M 32.171875 -5.078125 
Q 28.375 -14.84375 24.75 -17.8125 
Q 21.140625 -20.796875 15.09375 -20.796875 
L 7.90625 -20.796875 
L 7.90625 -13.28125 
L 13.1875 -13.28125 
Q 16.890625 -13.28125 18.9375 -11.515625 
Q 21 -9.765625 23.484375 -3.21875 
L 25.09375 0.875 
L 2.984375 54.6875 
L 12.5 54.6875 
L 29.59375 11.921875 
L 46.6875 54.6875 
L 56.203125 54.6875 
z
" id="BitstreamVeraSans-Roman-79"/>
     <path d="M 48.78125 52.59375 
L 48.78125 44.1875 
Q 44.96875 46.296875 41.140625 47.34375 
Q 37.3125 48.390625 33.40625 48.390625 
Q 24.65625 48.390625 19.8125 42.84375 
Q 14.984375 37.3125 14.984375 27.296875 
Q 14.984375 17.28125 19.8125 11.734375 
Q 24.65625 6.203125 33.40625 6.203125 
Q 37.3125 6.203125 41.140625 7.25 
Q 44.96875 8.296875 48.78125 10.40625 
L 48.78125 2.09375 
Q 45.015625 0.34375 40.984375 -0.53125 
Q 36.96875 -1.421875 32.421875 -1.421875 
Q 20.0625 -1.421875 12.78125 6.34375 
Q 5.515625 14.109375 5.515625 27.296875 
Q 5.515625 40.671875 12.859375 48.328125 
Q 20.21875 56 33.015625 56 
Q 37.15625 56 41.109375 55.140625 
Q 45.0625 54.296875 48.78125 52.59375 
" id="BitstreamVeraSans-Roman-63"/>
    </defs>
    <g style="fill:#808080;opacity:0.8;" transform="translate(240.251136364 161.364591859)scale(0.12 -0.12)">
     <use xlink:href="#BitstreamVeraSans-Roman-52"/>
     <use x="69.419921875" xlink:href="#BitstreamVeraSans-Roman-65"/>
     <use x="130.943359375" xlink:href="#BitstreamVeraSans-Roman-63"/>
     <use x="185.923828125" xlink:href="#BitstreamVeraSans-Roman-79"/>
     <use x="245.103515625" xlink:href="#BitstreamVeraSans-Roman-63"/>
     <use x="300.083984375" xlink:href="#BitstreamVeraSans-Roman-6c"/>
     <use x="327.8671875" xlink:href="#BitstreamVeraSans-Roman-65"/>
     <use x="389.390625" xlink:href="#BitstreamVeraSans-Roman-64"/>
     <use x="452.8671875" xlink:href="#BitstreamVeraSans-Roman-20"/>
    </g>
    <!--  Orogenic -->
    <defs>
     <path d="M 45.40625 27.984375 
Q 45.40625 37.75 41.375 43.109375 
Q 37.359375 48.484375 30.078125 48.484375 
Q 22.859375 48.484375 18.828125 43.109375 
Q 14.796875 37.75 14.796875 27.984375 
Q 14.796875 18.265625 18.828125 12.890625 
Q 22.859375 7.515625 30.078125 7.515625 
Q 37.359375 7.515625 41.375 12.890625 
Q 45.40625 18.265625 45.40625 27.984375 
M 54.390625 6.78125 
Q 54.390625 -7.171875 48.1875 -13.984375 
Q 42 -20.796875 29.203125 -20.796875 
Q 24.46875 -20.796875 20.265625 -20.09375 
Q 16.0625 -19.390625 12.109375 -17.921875 
L 12.109375 -9.1875 
Q 16.0625 -11.328125 19.921875 -12.34375 
Q 23.78125 -13.375 27.78125 -13.375 
Q 36.625 -13.375 41.015625 -8.765625 
Q 45.40625 -4.15625 45.40625 5.171875 
L 45.40625 9.625 
Q 42.625 4.78125 38.28125 2.390625 
Q 33.9375 0 27.875 0 
Q 17.828125 0 11.671875 7.65625 
Q 5.515625 15.328125 5.515625 27.984375 
Q 5.515625 40.671875 11.671875 48.328125 
Q 17.828125 56 27.875 56 
Q 33.9375 56 38.28125 53.609375 
Q 42.625 51.21875 45.40625 46.390625 
L 45.40625 54.6875 
L 54.390625 54.6875 
z
" id="BitstreamVeraSans-Roman-67"/>
     <path d="M 39.40625 66.21875 
Q 28.65625 66.21875 22.328125 58.203125 
Q 16.015625 50.203125 16.015625 36.375 
Q 16.015625 22.609375 22.328125 14.59375 
Q 28.65625 6.59375 39.40625 6.59375 
Q 50.140625 6.59375 56.421875 14.59375 
Q 62.703125 22.609375 62.703125 36.375 
Q 62.703125 50.203125 56.421875 58.203125 
Q 50.140625 66.21875 39.40625 66.21875 
M 39.40625 74.21875 
Q 54.734375 74.21875 63.90625 63.9375 
Q 73.09375 53.65625 73.09375 36.375 
Q 73.09375 19.140625 63.90625 8.859375 
Q 54.734375 -1.421875 39.40625 -1.421875 
Q 24.03125 -1.421875 14.8125 8.828125 
Q 5.609375 19.09375 5.609375 36.375 
Q 5.609375 53.65625 14.8125 63.9375 
Q 24.03125 74.21875 39.40625 74.21875 
" id="BitstreamVeraSans-Roman-4f"/>
    </defs>
    <g style="fill:#808080;opacity:0.8;" transform="translate(240.251136364 174.801966859)scale(0.12 -0.12)">
     <use xlink:href="#BitstreamVeraSans-Roman-20"/>
     <use x="31.787109375" xlink:href="#BitstreamVeraSans-Roman-4f"/>
     <use x="110.498046875" xlink:href="#BitstreamVeraSans-Roman-72"/>
     <use x="151.580078125" xlink:href="#BitstreamVeraSans-Roman-6f"/>
     <use x="212.76171875" xlink:href="#BitstreamVeraSans-Roman-67"/>
     <use x="276.23828125" xlink:href="#BitstreamVeraSans-Roman-65"/>
     <use x="337.76171875" xlink:href="#BitstreamVeraSans-Roman-6e"/>
     <use x="401.140625" xlink:href="#BitstreamVeraSans-Roman-69"/>
     <use x="428.923828125" xlink:href="#BitstreamVeraSans-Roman-63"/>
    </g>
   </g>
   <g id="text_20">
    <!-- Dissected  -->
    <defs>
     <path d="M 19.671875 64.796875 
L 19.671875 8.109375 
L 31.59375 8.109375 
Q 46.6875 8.109375 53.6875 14.9375 
Q 60.6875 21.78125 60.6875 36.53125 
Q 60.6875 51.171875 53.6875 57.984375 
Q 46.6875 64.796875 31.59375 64.796875 
z
M 9.8125 72.90625 
L 30.078125 72.90625 
Q 51.265625 72.90625 61.171875 64.09375 
Q 71.09375 55.28125 71.09375 36.53125 
Q 71.09375 17.671875 61.125 8.828125 
Q 51.171875 0 30.078125 0 
L 9.8125 0 
z
" id="BitstreamVeraSans-Roman-44"/>
    </defs>
    <g style="fill:#808080;opacity:0.8;" transform="translate(224.1875 251.523269545)scale(0.12 -0.12)">
     <use xlink:href="#BitstreamVeraSans-Roman-44"/>
     <use x="77.001953125" xlink:href="#BitstreamVeraSans-Roman-69"/>
     <use x="104.78515625" xlink:href="#BitstreamVeraSans-Roman-73"/>
     <use x="156.884765625" xlink:href="#BitstreamVeraSans-Roman-73"/>
     <use x="208.984375" xlink:href="#BitstreamVeraSans-Roman-65"/>
     <use x="270.5078125" xlink:href="#BitstreamVeraSans-Roman-63"/>
     <use x="325.48828125" xlink:href="#BitstreamVeraSans-Roman-74"/>
     <use x="364.697265625" xlink:href="#BitstreamVeraSans-Roman-65"/>
     <use x="426.220703125" xlink:href="#BitstreamVeraSans-Roman-64"/>
     <use x="489.697265625" xlink:href="#BitstreamVeraSans-Roman-20"/>
    </g>
    <!--  Arc -->
    <defs>
     <path d="M 34.1875 63.1875 
L 20.796875 26.90625 
L 47.609375 26.90625 
z
M 28.609375 72.90625 
L 39.796875 72.90625 
L 67.578125 0 
L 57.328125 0 
L 50.6875 18.703125 
L 17.828125 18.703125 
L 11.1875 0 
L 0.78125 0 
z
" id="BitstreamVeraSans-Roman-41"/>
    </defs>
    <g style="fill:#808080;opacity:0.8;" transform="translate(224.1875 264.960644545)scale(0.12 -0.12)">
     <use xlink:href="#BitstreamVeraSans-Roman-20"/>
     <use x="31.787109375" xlink:href="#BitstreamVeraSans-Roman-41"/>
     <use x="100.1953125" xlink:href="#BitstreamVeraSans-Roman-72"/>
     <use x="141.27734375" xlink:href="#BitstreamVeraSans-Roman-63"/>
    </g>
   </g>
   <g id="text_21">
    <!-- Transitional  -->
    <g style="fill:#808080;opacity:0.8;" transform="translate(286.4875 301.323269545)scale(0.12 -0.12)">
     <use xlink:href="#BitstreamVeraSans-Roman-54"/>
     <use x="60.865234375" xlink:href="#BitstreamVeraSans-Roman-72"/>
     <use x="101.978515625" xlink:href="#BitstreamVeraSans-Roman-61"/>
     <use x="163.2578125" xlink:href="#BitstreamVeraSans-Roman-6e"/>
     <use x="226.63671875" xlink:href="#BitstreamVeraSans-Roman-73"/>
     <use x="278.736328125" xlink:href="#BitstreamVeraSans-Roman-69"/>
     <use x="306.51953125" xlink:href="#BitstreamVeraSans-Roman-74"/>
     <use x="345.728515625" xlink:href="#BitstreamVeraSans-Roman-69"/>
     <use x="373.51171875" xlink:href="#BitstreamVeraSans-Roman-6f"/>
     <use x="434.693359375" xlink:href="#BitstreamVeraSans-Roman-6e"/>
     <use x="498.072265625" xlink:href="#BitstreamVeraSans-Roman-61"/>
     <use x="559.3515625" xlink:href="#BitstreamVeraSans-Roman-6c"/>
     <use x="587.134765625" xlink:href="#BitstreamVeraSans-Roman-20"/>
    </g>
    <!--  Arc -->
    <g style="fill:#808080;opacity:0.8;" transform="translate(286.4875 314.760644545)scale(0.12 -0.12)">
     <use xlink:href="#BitstreamVeraSans-Roman-20"/>
     <use x="31.787109375" xlink:href="#BitstreamVeraSans-Roman-41"/>
     <use x="100.1953125" xlink:href="#BitstreamVeraSans-Roman-72"/>
     <use x="141.27734375" xlink:href="#BitstreamVeraSans-Roman-63"/>
    </g>
   </g>
   <g id="text_22">
    <!-- Undissected  -->
    <g style="fill:#808080;opacity:0.8;" transform="translate(341.8275 327.657814999)scale(0.12 -0.12)">
     <use xlink:href="#BitstreamVeraSans-Roman-55"/>
     <use x="73.193359375" xlink:href="#BitstreamVeraSans-Roman-6e"/>
     <use x="136.572265625" xlink:href="#BitstreamVeraSans-Roman-64"/>
     <use x="200.048828125" xlink:href="#BitstreamVeraSans-Roman-69"/>
     <use x="227.83203125" xlink:href="#BitstreamVeraSans-Roman-73"/>
     <use x="279.931640625" xlink:href="#BitstreamVeraSans-Roman-73"/>
     <use x="332.03125" xlink:href="#BitstreamVeraSans-Roman-65"/>
     <use x="393.5546875" xlink:href="#BitstreamVeraSans-Roman-63"/>
     <use x="448.53515625" xlink:href="#BitstreamVeraSans-Roman-74"/>
     <use x="487.744140625" xlink:href="#BitstreamVeraSans-Roman-65"/>
     <use x="549.267578125" xlink:href="#BitstreamVeraSans-Roman-64"/>
     <use x="612.744140625" xlink:href="#BitstreamVeraSans-Roman-20"/>
    </g>
    <!--  Arc -->
    <g style="fill:#808080;opacity:0.8;" transform="translate(341.8275 341.095189999)scale(0.12 -0.12)">
     <use xlink:href="#BitstreamVeraSans-Roman-20"/>
     <use x="31.787109375" xlink:href="#BitstreamVeraSans-Roman-41"/>
     <use x="100.1953125" xlink:href="#BitstreamVeraSans-Roman-72"/>
     <use x="141.27734375" xlink:href="#BitstreamVeraSans-Roman-63"/>
    </g>
   </g>
   <g id="legend_1">
    <g id="patch_9">
     <path d="M 436.8175 286.397808 
L 693.8875 286.397808 
L 693.8875 124.274058 
L 436.8175 124.274058 
z
" style="fill:#ffffff;stroke:#000000;stroke-linejoin:miter;"/>
    </g>
    <g id="PathCollection_89">
     <path d="M 445.2175 138.577717 
C 446.155135 138.577717 447.054492 138.20519 447.7175 137.542183 
C 448.380508 136.879175 448.753034 135.979817 448.753034 135.042183 
C 448.753034 134.104548 448.380508 133.20519 447.7175 132.542183 
C 447.054492 131.879175 446.155135 131.506649 445.2175 131.506649 
C 444.279865 131.506649 443.380508 131.879175 442.7175 132.542183 
C 442.054492 133.20519 441.681966 134.104548 441.681966 135.042183 
C 441.681966 135.979817 442.054492 136.879175 442.7175 137.542183 
C 443.380508 138.20519 444.279865 138.577717 445.2175 138.577717 
z
" style="fill:#008000;fill-opacity:0.6;stroke:#000000;stroke-opacity:0.6;"/>
     <path d="M 453.6175 137.527717 
C 454.555135 137.527717 455.454492 137.15519 456.1175 136.492183 
C 456.780508 135.829175 457.153034 134.929817 457.153034 133.992183 
C 457.153034 133.054548 456.780508 132.15519 456.1175 131.492183 
C 455.454492 130.829175 454.555135 130.456649 453.6175 130.456649 
C 452.679865 130.456649 451.780508 130.829175 451.1175 131.492183 
C 450.454492 132.15519 450.081966 133.054548 450.081966 133.992183 
C 450.081966 134.929817 450.454492 135.829175 451.1175 136.492183 
C 451.780508 137.15519 452.679865 137.527717 453.6175 137.527717 
z
" style="fill:#008000;fill-opacity:0.6;stroke:#000000;stroke-opacity:0.6;"/>
     <path d="M 462.0175 139.102717 
C 462.955135 139.102717 463.854492 138.73019 464.5175 138.067183 
C 465.180508 137.404175 465.553034 136.504817 465.553034 135.567183 
C 465.553034 134.629548 465.180508 133.73019 464.5175 133.067183 
C 463.854492 132.404175 462.955135 132.031649 462.0175 132.031649 
C 461.079865 132.031649 460.180508 132.404175 459.5175 133.067183 
C 458.854492 133.73019 458.481966 134.629548 458.481966 135.567183 
C 458.481966 136.504817 458.854492 137.404175 459.5175 138.067183 
C 460.180508 138.73019 461.079865 139.102717 462.0175 139.102717 
z
" style="fill:#008000;fill-opacity:0.6;stroke:#000000;stroke-opacity:0.6;"/>
    </g>
    <g id="text_23">
     <!-- A. Craton Interior Provenance -->
     <defs>
      <path d="M 19.671875 64.796875 
L 19.671875 37.40625 
L 32.078125 37.40625 
Q 38.96875 37.40625 42.71875 40.96875 
Q 46.484375 44.53125 46.484375 51.125 
Q 46.484375 57.671875 42.71875 61.234375 
Q 38.96875 64.796875 32.078125 64.796875 
z
M 9.8125 72.90625 
L 32.078125 72.90625 
Q 44.34375 72.90625 50.609375 67.359375 
Q 56.890625 61.8125 56.890625 51.125 
Q 56.890625 40.328125 50.609375 34.8125 
Q 44.34375 29.296875 32.078125 29.296875 
L 19.671875 29.296875 
L 19.671875 0 
L 9.8125 0 
z
" id="BitstreamVeraSans-Roman-50"/>
      <path d="M 2.984375 54.6875 
L 12.5 54.6875 
L 29.59375 8.796875 
L 46.6875 54.6875 
L 56.203125 54.6875 
L 35.6875 0 
L 23.484375 0 
z
" id="BitstreamVeraSans-Roman-76"/>
      <path d="M 10.6875 12.40625 
L 21 12.40625 
L 21 0 
L 10.6875 0 
z
" id="BitstreamVeraSans-Roman-2e"/>
     </defs>
     <g transform="translate(475.2175 138.192182625)scale(0.12 -0.12)">
      <use xlink:href="#BitstreamVeraSans-Roman-41"/>
      <use x="68.392578125" xlink:href="#BitstreamVeraSans-Roman-2e"/>
      <use x="100.1796875" xlink:href="#BitstreamVeraSans-Roman-20"/>
      <use x="131.966796875" xlink:href="#BitstreamVeraSans-Roman-43"/>
      <use x="201.791015625" xlink:href="#BitstreamVeraSans-Roman-72"/>
      <use x="242.904296875" xlink:href="#BitstreamVeraSans-Roman-61"/>
      <use x="304.18359375" xlink:href="#BitstreamVeraSans-Roman-74"/>
      <use x="343.392578125" xlink:href="#BitstreamVeraSans-Roman-6f"/>
      <use x="404.57421875" xlink:href="#BitstreamVeraSans-Roman-6e"/>
      <use x="467.953125" xlink:href="#BitstreamVeraSans-Roman-20"/>
      <use x="499.740234375" xlink:href="#BitstreamVeraSans-Roman-49"/>
      <use x="529.232421875" xlink:href="#BitstreamVeraSans-Roman-6e"/>
      <use x="592.611328125" xlink:href="#BitstreamVeraSans-Roman-74"/>
      <use x="631.8203125" xlink:href="#BitstreamVeraSans-Roman-65"/>
      <use x="693.34375" xlink:href="#BitstreamVeraSans-Roman-72"/>
      <use x="734.45703125" xlink:href="#BitstreamVeraSans-Roman-69"/>
      <use x="762.240234375" xlink:href="#BitstreamVeraSans-Roman-6f"/>
      <use x="823.421875" xlink:href="#BitstreamVeraSans-Roman-72"/>
      <use x="864.53515625" xlink:href="#BitstreamVeraSans-Roman-20"/>
      <use x="896.322265625" xlink:href="#BitstreamVeraSans-Roman-50"/>
      <use x="956.609375" xlink:href="#BitstreamVeraSans-Roman-72"/>
      <use x="997.69140625" xlink:href="#BitstreamVeraSans-Roman-6f"/>
      <use x="1058.873046875" xlink:href="#BitstreamVeraSans-Roman-76"/>
      <use x="1118.052734375" xlink:href="#BitstreamVeraSans-Roman-65"/>
      <use x="1179.576171875" xlink:href="#BitstreamVeraSans-Roman-6e"/>
      <use x="1242.955078125" xlink:href="#BitstreamVeraSans-Roman-61"/>
      <use x="1304.234375" xlink:href="#BitstreamVeraSans-Roman-6e"/>
      <use x="1367.61328125" xlink:href="#BitstreamVeraSans-Roman-63"/>
      <use x="1422.59375" xlink:href="#BitstreamVeraSans-Roman-65"/>
     </g>
    </g>
    <g id="PathCollection_90">
     <path d="M 445.2175 157.655933 
L 448.2175 152.655933 
L 445.2175 147.655933 
L 442.2175 152.655933 
z
" style="fill:#0000ff;fill-opacity:0.6;stroke:#000000;stroke-opacity:0.6;"/>
     <path d="M 453.6175 156.605933 
L 456.6175 151.605933 
L 453.6175 146.605933 
L 450.6175 151.605933 
z
" style="fill:#0000ff;fill-opacity:0.6;stroke:#000000;stroke-opacity:0.6;"/>
     <path d="M 462.0175 158.180933 
L 465.0175 153.180933 
L 462.0175 148.180933 
L 459.0175 153.180933 
z
" style="fill:#0000ff;fill-opacity:0.6;stroke:#000000;stroke-opacity:0.6;"/>
    </g>
    <g id="text_24">
     <!-- Tranistional between suites A &amp; B -->
     <defs>
      <path d="M 48.6875 27.296875 
Q 48.6875 37.203125 44.609375 42.84375 
Q 40.53125 48.484375 33.40625 48.484375 
Q 26.265625 48.484375 22.1875 42.84375 
Q 18.109375 37.203125 18.109375 27.296875 
Q 18.109375 17.390625 22.1875 11.75 
Q 26.265625 6.109375 33.40625 6.109375 
Q 40.53125 6.109375 44.609375 11.75 
Q 48.6875 17.390625 48.6875 27.296875 
M 18.109375 46.390625 
Q 20.953125 51.265625 25.265625 53.625 
Q 29.59375 56 35.59375 56 
Q 45.5625 56 51.78125 48.09375 
Q 58.015625 40.1875 58.015625 27.296875 
Q 58.015625 14.40625 51.78125 6.484375 
Q 45.5625 -1.421875 35.59375 -1.421875 
Q 29.59375 -1.421875 25.265625 0.953125 
Q 20.953125 3.328125 18.109375 8.203125 
L 18.109375 0 
L 9.078125 0 
L 9.078125 75.984375 
L 18.109375 75.984375 
z
" id="BitstreamVeraSans-Roman-62"/>
      <path d="M 4.203125 54.6875 
L 13.1875 54.6875 
L 24.421875 12.015625 
L 35.59375 54.6875 
L 46.1875 54.6875 
L 57.421875 12.015625 
L 68.609375 54.6875 
L 77.59375 54.6875 
L 63.28125 0 
L 52.6875 0 
L 40.921875 44.828125 
L 29.109375 0 
L 18.5 0 
z
" id="BitstreamVeraSans-Roman-77"/>
      <path d="M 8.5 21.578125 
L 8.5 54.6875 
L 17.484375 54.6875 
L 17.484375 21.921875 
Q 17.484375 14.15625 20.5 10.265625 
Q 23.53125 6.390625 29.59375 6.390625 
Q 36.859375 6.390625 41.078125 11.03125 
Q 45.3125 15.671875 45.3125 23.6875 
L 45.3125 54.6875 
L 54.296875 54.6875 
L 54.296875 0 
L 45.3125 0 
L 45.3125 8.40625 
Q 42.046875 3.421875 37.71875 1 
Q 33.40625 -1.421875 27.6875 -1.421875 
Q 18.265625 -1.421875 13.375 4.4375 
Q 8.5 10.296875 8.5 21.578125 
" id="BitstreamVeraSans-Roman-75"/>
      <path d="M 24.3125 39.203125 
Q 19.875 35.25 17.796875 31.3125 
Q 15.71875 27.390625 15.71875 23.09375 
Q 15.71875 15.96875 20.890625 11.234375 
Q 26.078125 6.5 33.890625 6.5 
Q 38.53125 6.5 42.578125 8.03125 
Q 46.625 9.578125 50.203125 12.703125 
z
M 31.203125 44.671875 
L 56 19.28125 
Q 58.890625 23.640625 60.5 28.59375 
Q 62.109375 33.546875 62.40625 39.109375 
L 71.484375 39.109375 
Q 70.90625 32.671875 68.359375 26.359375 
Q 65.828125 20.0625 61.28125 13.921875 
L 74.90625 0 
L 62.59375 0 
L 55.609375 7.171875 
Q 50.53125 2.828125 44.96875 0.703125 
Q 39.40625 -1.421875 33.015625 -1.421875 
Q 21.234375 -1.421875 13.765625 5.296875 
Q 6.296875 12.015625 6.296875 22.515625 
Q 6.296875 28.765625 9.5625 34.25 
Q 12.84375 39.75 19.390625 44.578125 
Q 17.046875 47.65625 15.8125 50.703125 
Q 14.59375 53.765625 14.59375 56.6875 
Q 14.59375 64.59375 20.015625 69.40625 
Q 25.4375 74.21875 34.421875 74.21875 
Q 38.484375 74.21875 42.5 73.34375 
Q 46.53125 72.46875 50.6875 70.703125 
L 50.6875 61.8125 
Q 46.4375 64.109375 42.578125 65.296875 
Q 38.71875 66.5 35.40625 66.5 
Q 30.28125 66.5 27.078125 63.78125 
Q 23.875 61.078125 23.875 56.78125 
Q 23.875 54.296875 25.3125 51.78125 
Q 26.765625 49.265625 31.203125 44.671875 
" id="BitstreamVeraSans-Roman-26"/>
     </defs>
     <g transform="translate(475.2175 155.805932625)scale(0.12 -0.12)">
      <use xlink:href="#BitstreamVeraSans-Roman-54"/>
      <use x="60.865234375" xlink:href="#BitstreamVeraSans-Roman-72"/>
      <use x="101.978515625" xlink:href="#BitstreamVeraSans-Roman-61"/>
      <use x="163.2578125" xlink:href="#BitstreamVeraSans-Roman-6e"/>
      <use x="226.63671875" xlink:href="#BitstreamVeraSans-Roman-69"/>
      <use x="254.419921875" xlink:href="#BitstreamVeraSans-Roman-73"/>
      <use x="306.51953125" xlink:href="#BitstreamVeraSans-Roman-74"/>
      <use x="345.728515625" xlink:href="#BitstreamVeraSans-Roman-69"/>
      <use x="373.51171875" xlink:href="#BitstreamVeraSans-Roman-6f"/>
      <use x="434.693359375" xlink:href="#BitstreamVeraSans-Roman-6e"/>
      <use x="498.072265625" xlink:href="#BitstreamVeraSans-Roman-61"/>
      <use x="559.3515625" xlink:href="#BitstreamVeraSans-Roman-6c"/>
      <use x="587.134765625" xlink:href="#BitstreamVeraSans-Roman-20"/>
      <use x="618.921875" xlink:href="#BitstreamVeraSans-Roman-62"/>
      <use x="682.3984375" xlink:href="#BitstreamVeraSans-Roman-65"/>
      <use x="743.921875" xlink:href="#BitstreamVeraSans-Roman-74"/>
      <use x="783.130859375" xlink:href="#BitstreamVeraSans-Roman-77"/>
      <use x="864.91796875" xlink:href="#BitstreamVeraSans-Roman-65"/>
      <use x="926.44140625" xlink:href="#BitstreamVeraSans-Roman-65"/>
      <use x="987.96484375" xlink:href="#BitstreamVeraSans-Roman-6e"/>
      <use x="1051.34375" xlink:href="#BitstreamVeraSans-Roman-20"/>
      <use x="1083.130859375" xlink:href="#BitstreamVeraSans-Roman-73"/>
      <use x="1135.23046875" xlink:href="#BitstreamVeraSans-Roman-75"/>
      <use x="1198.609375" xlink:href="#BitstreamVeraSans-Roman-69"/>
      <use x="1226.392578125" xlink:href="#BitstreamVeraSans-Roman-74"/>
      <use x="1265.6015625" xlink:href="#BitstreamVeraSans-Roman-65"/>
      <use x="1327.125" xlink:href="#BitstreamVeraSans-Roman-73"/>
      <use x="1379.224609375" xlink:href="#BitstreamVeraSans-Roman-20"/>
      <use x="1411.01171875" xlink:href="#BitstreamVeraSans-Roman-41"/>
      <use x="1479.419921875" xlink:href="#BitstreamVeraSans-Roman-20"/>
      <use x="1511.20703125" xlink:href="#BitstreamVeraSans-Roman-26"/>
      <use x="1589.185546875" xlink:href="#BitstreamVeraSans-Roman-20"/>
      <use x="1620.97265625" xlink:href="#BitstreamVeraSans-Roman-42"/>
     </g>
    </g>
    <g id="PathCollection_91">
     <path d="M 445.2175 175.269683 
L 450.2175 170.269683 
L 445.2175 165.269683 
L 440.2175 170.269683 
z
" style="fill:#00bfbf;fill-opacity:0.6;stroke:#000000;stroke-opacity:0.6;"/>
     <path d="M 453.6175 174.219683 
L 458.6175 169.219683 
L 453.6175 164.219683 
L 448.6175 169.219683 
z
" style="fill:#00bfbf;fill-opacity:0.6;stroke:#000000;stroke-opacity:0.6;"/>
     <path d="M 462.0175 175.794683 
L 467.0175 170.794683 
L 462.0175 165.794683 
L 457.0175 170.794683 
z
" style="fill:#00bfbf;fill-opacity:0.6;stroke:#000000;stroke-opacity:0.6;"/>
    </g>
    <g id="text_25">
     <!-- B. Uplifted Basement Provenance -->
     <g transform="translate(475.2175 173.419682625)scale(0.12 -0.12)">
      <use xlink:href="#BitstreamVeraSans-Roman-42"/>
      <use x="68.603515625" xlink:href="#BitstreamVeraSans-Roman-2e"/>
      <use x="100.390625" xlink:href="#BitstreamVeraSans-Roman-20"/>
      <use x="132.177734375" xlink:href="#BitstreamVeraSans-Roman-55"/>
      <use x="205.37109375" xlink:href="#BitstreamVeraSans-Roman-70"/>
      <use x="268.84765625" xlink:href="#BitstreamVeraSans-Roman-6c"/>
      <use x="296.630859375" xlink:href="#BitstreamVeraSans-Roman-69"/>
      <use x="324.4140625" xlink:href="#BitstreamVeraSans-Roman-66"/>
      <use x="359.603515625" xlink:href="#BitstreamVeraSans-Roman-74"/>
      <use x="398.8125" xlink:href="#BitstreamVeraSans-Roman-65"/>
      <use x="460.3359375" xlink:href="#BitstreamVeraSans-Roman-64"/>
      <use x="523.8125" xlink:href="#BitstreamVeraSans-Roman-20"/>
      <use x="555.599609375" xlink:href="#BitstreamVeraSans-Roman-42"/>
      <use x="624.203125" xlink:href="#BitstreamVeraSans-Roman-61"/>
      <use x="685.482421875" xlink:href="#BitstreamVeraSans-Roman-73"/>
      <use x="737.58203125" xlink:href="#BitstreamVeraSans-Roman-65"/>
      <use x="799.10546875" xlink:href="#BitstreamVeraSans-Roman-6d"/>
      <use x="896.517578125" xlink:href="#BitstreamVeraSans-Roman-65"/>
      <use x="958.041015625" xlink:href="#BitstreamVeraSans-Roman-6e"/>
      <use x="1021.419921875" xlink:href="#BitstreamVeraSans-Roman-74"/>
      <use x="1060.62890625" xlink:href="#BitstreamVeraSans-Roman-20"/>
      <use x="1092.416015625" xlink:href="#BitstreamVeraSans-Roman-50"/>
      <use x="1152.703125" xlink:href="#BitstreamVeraSans-Roman-72"/>
      <use x="1193.78515625" xlink:href="#BitstreamVeraSans-Roman-6f"/>
      <use x="1254.966796875" xlink:href="#BitstreamVeraSans-Roman-76"/>
      <use x="1314.146484375" xlink:href="#BitstreamVeraSans-Roman-65"/>
      <use x="1375.669921875" xlink:href="#BitstreamVeraSans-Roman-6e"/>
      <use x="1439.048828125" xlink:href="#BitstreamVeraSans-Roman-61"/>
      <use x="1500.328125" xlink:href="#BitstreamVeraSans-Roman-6e"/>
      <use x="1563.70703125" xlink:href="#BitstreamVeraSans-Roman-63"/>
      <use x="1618.6875" xlink:href="#BitstreamVeraSans-Roman-65"/>
     </g>
    </g>
    <g id="PathCollection_92">
     <path d="M 441.681966 191.418967 
L 448.753034 191.418967 
L 448.753034 184.347899 
L 441.681966 184.347899 
z
" style="fill:#ff0000;fill-opacity:0.6;stroke:#000000;stroke-opacity:0.6;"/>
     <path d="M 450.081966 190.368967 
L 457.153034 190.368967 
L 457.153034 183.297899 
L 450.081966 183.297899 
z
" style="fill:#ff0000;fill-opacity:0.6;stroke:#000000;stroke-opacity:0.6;"/>
     <path d="M 458.481966 191.943967 
L 465.553034 191.943967 
L 465.553034 184.872899 
L 458.481966 184.872899 
z
" style="fill:#ff0000;fill-opacity:0.6;stroke:#000000;stroke-opacity:0.6;"/>
    </g>
    <g id="text_26">
     <!-- C. Undissectcd Arc Provenance -->
     <g transform="translate(475.2175 191.033432625)scale(0.12 -0.12)">
      <use xlink:href="#BitstreamVeraSans-Roman-43"/>
      <use x="69.82421875" xlink:href="#BitstreamVeraSans-Roman-2e"/>
      <use x="101.611328125" xlink:href="#BitstreamVeraSans-Roman-20"/>
      <use x="133.3984375" xlink:href="#BitstreamVeraSans-Roman-55"/>
      <use x="206.591796875" xlink:href="#BitstreamVeraSans-Roman-6e"/>
      <use x="269.970703125" xlink:href="#BitstreamVeraSans-Roman-64"/>
      <use x="333.447265625" xlink:href="#BitstreamVeraSans-Roman-69"/>
      <use x="361.23046875" xlink:href="#BitstreamVeraSans-Roman-73"/>
      <use x="413.330078125" xlink:href="#BitstreamVeraSans-Roman-73"/>
      <use x="465.4296875" xlink:href="#BitstreamVeraSans-Roman-65"/>
      <use x="526.953125" xlink:href="#BitstreamVeraSans-Roman-63"/>
      <use x="581.93359375" xlink:href="#BitstreamVeraSans-Roman-74"/>
      <use x="621.142578125" xlink:href="#BitstreamVeraSans-Roman-63"/>
      <use x="676.123046875" xlink:href="#BitstreamVeraSans-Roman-64"/>
      <use x="739.599609375" xlink:href="#BitstreamVeraSans-Roman-20"/>
      <use x="771.38671875" xlink:href="#BitstreamVeraSans-Roman-41"/>
      <use x="839.794921875" xlink:href="#BitstreamVeraSans-Roman-72"/>
      <use x="880.876953125" xlink:href="#BitstreamVeraSans-Roman-63"/>
      <use x="935.857421875" xlink:href="#BitstreamVeraSans-Roman-20"/>
      <use x="967.64453125" xlink:href="#BitstreamVeraSans-Roman-50"/>
      <use x="1027.931640625" xlink:href="#BitstreamVeraSans-Roman-72"/>
      <use x="1069.013671875" xlink:href="#BitstreamVeraSans-Roman-6f"/>
      <use x="1130.1953125" xlink:href="#BitstreamVeraSans-Roman-76"/>
      <use x="1189.375" xlink:href="#BitstreamVeraSans-Roman-65"/>
      <use x="1250.8984375" xlink:href="#BitstreamVeraSans-Roman-6e"/>
      <use x="1314.27734375" xlink:href="#BitstreamVeraSans-Roman-61"/>
      <use x="1375.556640625" xlink:href="#BitstreamVeraSans-Roman-6e"/>
      <use x="1438.935546875" xlink:href="#BitstreamVeraSans-Roman-63"/>
      <use x="1493.916015625" xlink:href="#BitstreamVeraSans-Roman-65"/>
     </g>
    </g>
    <g id="PathCollection_93">
     <path d="M 445.2175 201.961649 
L 441.681966 209.032717 
L 448.753034 209.032717 
z
" style="fill:#ffff00;fill-opacity:0.6;stroke:#000000;stroke-opacity:0.6;"/>
     <path d="M 453.6175 200.911649 
L 450.081966 207.982717 
L 457.153034 207.982717 
z
" style="fill:#ffff00;fill-opacity:0.6;stroke:#000000;stroke-opacity:0.6;"/>
     <path d="M 462.0175 202.486649 
L 458.481966 209.557717 
L 465.553034 209.557717 
z
" style="fill:#ffff00;fill-opacity:0.6;stroke:#000000;stroke-opacity:0.6;"/>
    </g>
    <g id="text_27">
     <!-- Tranistional between suites C &amp; D -->
     <g transform="translate(475.2175 208.647182625)scale(0.12 -0.12)">
      <use xlink:href="#BitstreamVeraSans-Roman-54"/>
      <use x="60.865234375" xlink:href="#BitstreamVeraSans-Roman-72"/>
      <use x="101.978515625" xlink:href="#BitstreamVeraSans-Roman-61"/>
      <use x="163.2578125" xlink:href="#BitstreamVeraSans-Roman-6e"/>
      <use x="226.63671875" xlink:href="#BitstreamVeraSans-Roman-69"/>
      <use x="254.419921875" xlink:href="#BitstreamVeraSans-Roman-73"/>
      <use x="306.51953125" xlink:href="#BitstreamVeraSans-Roman-74"/>
      <use x="345.728515625" xlink:href="#BitstreamVeraSans-Roman-69"/>
      <use x="373.51171875" xlink:href="#BitstreamVeraSans-Roman-6f"/>
      <use x="434.693359375" xlink:href="#BitstreamVeraSans-Roman-6e"/>
      <use x="498.072265625" xlink:href="#BitstreamVeraSans-Roman-61"/>
      <use x="559.3515625" xlink:href="#BitstreamVeraSans-Roman-6c"/>
      <use x="587.134765625" xlink:href="#BitstreamVeraSans-Roman-20"/>
      <use x="618.921875" xlink:href="#BitstreamVeraSans-Roman-62"/>
      <use x="682.3984375" xlink:href="#BitstreamVeraSans-Roman-65"/>
      <use x="743.921875" xlink:href="#BitstreamVeraSans-Roman-74"/>
      <use x="783.130859375" xlink:href="#BitstreamVeraSans-Roman-77"/>
      <use x="864.91796875" xlink:href="#BitstreamVeraSans-Roman-65"/>
      <use x="926.44140625" xlink:href="#BitstreamVeraSans-Roman-65"/>
      <use x="987.96484375" xlink:href="#BitstreamVeraSans-Roman-6e"/>
      <use x="1051.34375" xlink:href="#BitstreamVeraSans-Roman-20"/>
      <use x="1083.130859375" xlink:href="#BitstreamVeraSans-Roman-73"/>
      <use x="1135.23046875" xlink:href="#BitstreamVeraSans-Roman-75"/>
      <use x="1198.609375" xlink:href="#BitstreamVeraSans-Roman-69"/>
      <use x="1226.392578125" xlink:href="#BitstreamVeraSans-Roman-74"/>
      <use x="1265.6015625" xlink:href="#BitstreamVeraSans-Roman-65"/>
      <use x="1327.125" xlink:href="#BitstreamVeraSans-Roman-73"/>
      <use x="1379.224609375" xlink:href="#BitstreamVeraSans-Roman-20"/>
      <use x="1411.01171875" xlink:href="#BitstreamVeraSans-Roman-43"/>
      <use x="1480.8359375" xlink:href="#BitstreamVeraSans-Roman-20"/>
      <use x="1512.623046875" xlink:href="#BitstreamVeraSans-Roman-26"/>
      <use x="1590.6015625" xlink:href="#BitstreamVeraSans-Roman-20"/>
      <use x="1622.388671875" xlink:href="#BitstreamVeraSans-Roman-44"/>
     </g>
    </g>
    <g id="PathCollection_94">
     <path d="M 445.2175 219.575399 
L 442.155638 221.343166 
L 442.155638 224.8787 
L 445.2175 226.646467 
L 448.279362 224.8787 
L 448.279362 221.343166 
z
" style="fill-opacity:0.6;stroke:#000000;stroke-opacity:0.6;"/>
     <path d="M 453.6175 218.525399 
L 450.555638 220.293166 
L 450.555638 223.8287 
L 453.6175 225.596467 
L 456.679362 223.8287 
L 456.679362 220.293166 
z
" style="fill-opacity:0.6;stroke:#000000;stroke-opacity:0.6;"/>
     <path d="M 462.0175 220.100399 
L 458.955638 221.868166 
L 458.955638 225.4037 
L 462.0175 227.171467 
L 465.079362 225.4037 
L 465.079362 221.868166 
z
" style="fill-opacity:0.6;stroke:#000000;stroke-opacity:0.6;"/>
    </g>
    <g id="text_28">
     <!-- D. DISSECTED ARC PROVENANCE  -->
     <defs>
      <path d="M 28.609375 0 
L 0.78125 72.90625 
L 11.078125 72.90625 
L 34.1875 11.53125 
L 57.328125 72.90625 
L 67.578125 72.90625 
L 39.796875 0 
z
" id="BitstreamVeraSans-Roman-56"/>
      <path d="M 53.515625 70.515625 
L 53.515625 60.890625 
Q 47.90625 63.578125 42.921875 64.890625 
Q 37.9375 66.21875 33.296875 66.21875 
Q 25.25 66.21875 20.875 63.09375 
Q 16.5 59.96875 16.5 54.203125 
Q 16.5 49.359375 19.40625 46.890625 
Q 22.3125 44.4375 30.421875 42.921875 
L 36.375 41.703125 
Q 47.40625 39.59375 52.65625 34.296875 
Q 57.90625 29 57.90625 20.125 
Q 57.90625 9.515625 50.796875 4.046875 
Q 43.703125 -1.421875 29.984375 -1.421875 
Q 24.8125 -1.421875 18.96875 -0.25 
Q 13.140625 0.921875 6.890625 3.21875 
L 6.890625 13.375 
Q 12.890625 10.015625 18.65625 8.296875 
Q 24.421875 6.59375 29.984375 6.59375 
Q 38.421875 6.59375 43.015625 9.90625 
Q 47.609375 13.234375 47.609375 19.390625 
Q 47.609375 24.75 44.3125 27.78125 
Q 41.015625 30.8125 33.5 32.328125 
L 27.484375 33.5 
Q 16.453125 35.6875 11.515625 40.375 
Q 6.59375 45.0625 6.59375 53.421875 
Q 6.59375 63.09375 13.40625 68.65625 
Q 20.21875 74.21875 32.171875 74.21875 
Q 37.3125 74.21875 42.625 73.28125 
Q 47.953125 72.359375 53.515625 70.515625 
" id="BitstreamVeraSans-Roman-53"/>
      <path d="M 9.8125 72.90625 
L 23.09375 72.90625 
L 55.421875 11.921875 
L 55.421875 72.90625 
L 64.984375 72.90625 
L 64.984375 0 
L 51.703125 0 
L 19.390625 60.984375 
L 19.390625 0 
L 9.8125 0 
z
" id="BitstreamVeraSans-Roman-4e"/>
      <path d="M 9.8125 72.90625 
L 55.90625 72.90625 
L 55.90625 64.59375 
L 19.671875 64.59375 
L 19.671875 43.015625 
L 54.390625 43.015625 
L 54.390625 34.71875 
L 19.671875 34.71875 
L 19.671875 8.296875 
L 56.78125 8.296875 
L 56.78125 0 
L 9.8125 0 
z
" id="BitstreamVeraSans-Roman-45"/>
     </defs>
     <g transform="translate(475.2175 226.260932625)scale(0.12 -0.12)">
      <use xlink:href="#BitstreamVeraSans-Roman-44"/>
      <use x="77.001953125" xlink:href="#BitstreamVeraSans-Roman-2e"/>
      <use x="108.7890625" xlink:href="#BitstreamVeraSans-Roman-20"/>
      <use x="140.576171875" xlink:href="#BitstreamVeraSans-Roman-44"/>
      <use x="217.578125" xlink:href="#BitstreamVeraSans-Roman-49"/>
      <use x="247.0703125" xlink:href="#BitstreamVeraSans-Roman-53"/>
      <use x="310.546875" xlink:href="#BitstreamVeraSans-Roman-53"/>
      <use x="374.0234375" xlink:href="#BitstreamVeraSans-Roman-45"/>
      <use x="437.20703125" xlink:href="#BitstreamVeraSans-Roman-43"/>
      <use x="507.03125" xlink:href="#BitstreamVeraSans-Roman-54"/>
      <use x="568.115234375" xlink:href="#BitstreamVeraSans-Roman-45"/>
      <use x="631.298828125" xlink:href="#BitstreamVeraSans-Roman-44"/>
      <use x="708.30078125" xlink:href="#BitstreamVeraSans-Roman-20"/>
      <use x="740.087890625" xlink:href="#BitstreamVeraSans-Roman-41"/>
      <use x="808.49609375" xlink:href="#BitstreamVeraSans-Roman-52"/>
      <use x="877.900390625" xlink:href="#BitstreamVeraSans-Roman-43"/>
      <use x="947.724609375" xlink:href="#BitstreamVeraSans-Roman-20"/>
      <use x="979.51171875" xlink:href="#BitstreamVeraSans-Roman-50"/>
      <use x="1039.814453125" xlink:href="#BitstreamVeraSans-Roman-52"/>
      <use x="1109.296875" xlink:href="#BitstreamVeraSans-Roman-4f"/>
      <use x="1187.9921875" xlink:href="#BitstreamVeraSans-Roman-56"/>
      <use x="1256.400390625" xlink:href="#BitstreamVeraSans-Roman-45"/>
      <use x="1319.583984375" xlink:href="#BitstreamVeraSans-Roman-4e"/>
      <use x="1394.388671875" xlink:href="#BitstreamVeraSans-Roman-41"/>
      <use x="1462.796875" xlink:href="#BitstreamVeraSans-Roman-4e"/>
      <use x="1537.6015625" xlink:href="#BitstreamVeraSans-Roman-43"/>
      <use x="1607.42578125" xlink:href="#BitstreamVeraSans-Roman-45"/>
      <use x="1670.609375" xlink:href="#BitstreamVeraSans-Roman-20"/>
     </g>
    </g>
    <g id="PathCollection_95">
     <path d="M 443.449733 237.66282 
L 441.681966 240.724683 
L 443.449733 243.786545 
L 446.985267 243.786545 
L 448.753034 240.724683 
L 446.985267 237.66282 
z
" style="fill:#0000ff;fill-opacity:0.6;stroke:#000000;stroke-opacity:0.6;"/>
     <path d="M 451.849733 236.61282 
L 450.081966 239.674683 
L 451.849733 242.736545 
L 455.385267 242.736545 
L 457.153034 239.674683 
L 455.385267 236.61282 
z
" style="fill:#0000ff;fill-opacity:0.6;stroke:#000000;stroke-opacity:0.6;"/>
     <path d="M 460.249733 238.18782 
L 458.481966 241.249683 
L 460.249733 244.311545 
L 463.785267 244.311545 
L 465.553034 241.249683 
L 463.785267 238.18782 
z
" style="fill:#0000ff;fill-opacity:0.6;stroke:#000000;stroke-opacity:0.6;"/>
    </g>
    <g id="text_29">
     <!-- E. Subduction Complex Provenance -->
     <defs>
      <path d="M 54.890625 54.6875 
L 35.109375 28.078125 
L 55.90625 0 
L 45.3125 0 
L 29.390625 21.484375 
L 13.484375 0 
L 2.875 0 
L 24.125 28.609375 
L 4.6875 54.6875 
L 15.28125 54.6875 
L 29.78125 35.203125 
L 44.28125 54.6875 
z
" id="BitstreamVeraSans-Roman-78"/>
     </defs>
     <g transform="translate(475.2175 243.874682625)scale(0.12 -0.12)">
      <use xlink:href="#BitstreamVeraSans-Roman-45"/>
      <use x="63.18359375" xlink:href="#BitstreamVeraSans-Roman-2e"/>
      <use x="94.970703125" xlink:href="#BitstreamVeraSans-Roman-20"/>
      <use x="126.7578125" xlink:href="#BitstreamVeraSans-Roman-53"/>
      <use x="190.234375" xlink:href="#BitstreamVeraSans-Roman-75"/>
      <use x="253.61328125" xlink:href="#BitstreamVeraSans-Roman-62"/>
      <use x="317.08984375" xlink:href="#BitstreamVeraSans-Roman-64"/>
      <use x="380.56640625" xlink:href="#BitstreamVeraSans-Roman-75"/>
      <use x="443.9453125" xlink:href="#BitstreamVeraSans-Roman-63"/>
      <use x="498.92578125" xlink:href="#BitstreamVeraSans-Roman-74"/>
      <use x="538.134765625" xlink:href="#BitstreamVeraSans-Roman-69"/>
      <use x="565.91796875" xlink:href="#BitstreamVeraSans-Roman-6f"/>
      <use x="627.099609375" xlink:href="#BitstreamVeraSans-Roman-6e"/>
      <use x="690.478515625" xlink:href="#BitstreamVeraSans-Roman-20"/>
      <use x="722.265625" xlink:href="#BitstreamVeraSans-Roman-43"/>
      <use x="792.08984375" xlink:href="#BitstreamVeraSans-Roman-6f"/>
      <use x="853.271484375" xlink:href="#BitstreamVeraSans-Roman-6d"/>
      <use x="950.68359375" xlink:href="#BitstreamVeraSans-Roman-70"/>
      <use x="1014.16015625" xlink:href="#BitstreamVeraSans-Roman-6c"/>
      <use x="1041.943359375" xlink:href="#BitstreamVeraSans-Roman-65"/>
      <use x="1103.451171875" xlink:href="#BitstreamVeraSans-Roman-78"/>
      <use x="1162.630859375" xlink:href="#BitstreamVeraSans-Roman-20"/>
      <use x="1194.41796875" xlink:href="#BitstreamVeraSans-Roman-50"/>
      <use x="1254.705078125" xlink:href="#BitstreamVeraSans-Roman-72"/>
      <use x="1295.787109375" xlink:href="#BitstreamVeraSans-Roman-6f"/>
      <use x="1356.96875" xlink:href="#BitstreamVeraSans-Roman-76"/>
      <use x="1416.1484375" xlink:href="#BitstreamVeraSans-Roman-65"/>
      <use x="1477.671875" xlink:href="#BitstreamVeraSans-Roman-6e"/>
      <use x="1541.05078125" xlink:href="#BitstreamVeraSans-Roman-61"/>
      <use x="1602.330078125" xlink:href="#BitstreamVeraSans-Roman-6e"/>
      <use x="1665.708984375" xlink:href="#BitstreamVeraSans-Roman-63"/>
      <use x="1720.689453125" xlink:href="#BitstreamVeraSans-Roman-65"/>
     </g>
    </g>
    <g id="PathCollection_96">
     <path d="M 441.681966 258.338433 
L 448.753034 261.873967 
L 448.753034 254.802899 
z
" style="fill:#ff0000;fill-opacity:0.6;stroke:#000000;stroke-opacity:0.6;"/>
     <path d="M 450.081966 257.288433 
L 457.153034 260.823967 
L 457.153034 253.752899 
z
" style="fill:#ff0000;fill-opacity:0.6;stroke:#000000;stroke-opacity:0.6;"/>
     <path d="M 458.481966 258.863433 
L 465.553034 262.398967 
L 465.553034 255.327899 
z
" style="fill:#ff0000;fill-opacity:0.6;stroke:#000000;stroke-opacity:0.6;"/>
    </g>
    <g id="text_30">
     <!-- F. Collision Orogen Provenance -->
     <g transform="translate(475.2175 261.488432625)scale(0.12 -0.12)">
      <use xlink:href="#BitstreamVeraSans-Roman-46"/>
      <use x="57.26953125" xlink:href="#BitstreamVeraSans-Roman-2e"/>
      <use x="89.056640625" xlink:href="#BitstreamVeraSans-Roman-20"/>
      <use x="120.84375" xlink:href="#BitstreamVeraSans-Roman-43"/>
      <use x="190.66796875" xlink:href="#BitstreamVeraSans-Roman-6f"/>
      <use x="251.849609375" xlink:href="#BitstreamVeraSans-Roman-6c"/>
      <use x="279.6328125" xlink:href="#BitstreamVeraSans-Roman-6c"/>
      <use x="307.416015625" xlink:href="#BitstreamVeraSans-Roman-69"/>
      <use x="335.19921875" xlink:href="#BitstreamVeraSans-Roman-73"/>
      <use x="387.298828125" xlink:href="#BitstreamVeraSans-Roman-69"/>
      <use x="415.08203125" xlink:href="#BitstreamVeraSans-Roman-6f"/>
      <use x="476.263671875" xlink:href="#BitstreamVeraSans-Roman-6e"/>
      <use x="539.642578125" xlink:href="#BitstreamVeraSans-Roman-20"/>
      <use x="571.4296875" xlink:href="#BitstreamVeraSans-Roman-4f"/>
      <use x="650.140625" xlink:href="#BitstreamVeraSans-Roman-72"/>
      <use x="691.22265625" xlink:href="#BitstreamVeraSans-Roman-6f"/>
      <use x="752.404296875" xlink:href="#BitstreamVeraSans-Roman-67"/>
      <use x="815.880859375" xlink:href="#BitstreamVeraSans-Roman-65"/>
      <use x="877.404296875" xlink:href="#BitstreamVeraSans-Roman-6e"/>
      <use x="940.783203125" xlink:href="#BitstreamVeraSans-Roman-20"/>
      <use x="972.5703125" xlink:href="#BitstreamVeraSans-Roman-50"/>
      <use x="1032.857421875" xlink:href="#BitstreamVeraSans-Roman-72"/>
      <use x="1073.939453125" xlink:href="#BitstreamVeraSans-Roman-6f"/>
      <use x="1135.12109375" xlink:href="#BitstreamVeraSans-Roman-76"/>
      <use x="1194.30078125" xlink:href="#BitstreamVeraSans-Roman-65"/>
      <use x="1255.82421875" xlink:href="#BitstreamVeraSans-Roman-6e"/>
      <use x="1319.203125" xlink:href="#BitstreamVeraSans-Roman-61"/>
      <use x="1380.482421875" xlink:href="#BitstreamVeraSans-Roman-6e"/>
      <use x="1443.861328125" xlink:href="#BitstreamVeraSans-Roman-63"/>
      <use x="1498.841796875" xlink:href="#BitstreamVeraSans-Roman-65"/>
     </g>
    </g>
    <g id="PathCollection_97">
     <path d="M 448.753034 275.952183 
L 441.681966 272.416649 
L 441.681966 279.487717 
z
" style="fill:#008000;fill-opacity:0.6;stroke:#000000;stroke-opacity:0.6;"/>
     <path d="M 457.153034 274.902183 
L 450.081966 271.366649 
L 450.081966 278.437717 
z
" style="fill:#008000;fill-opacity:0.6;stroke:#000000;stroke-opacity:0.6;"/>
     <path d="M 465.553034 276.477183 
L 458.481966 272.941649 
L 458.481966 280.012717 
z
" style="fill:#008000;fill-opacity:0.6;stroke:#000000;stroke-opacity:0.6;"/>
    </g>
    <g id="text_31">
     <!-- G. Foreland Uplift Provenance -->
     <defs>
      <path d="M 59.515625 10.40625 
L 59.515625 29.984375 
L 43.40625 29.984375 
L 43.40625 38.09375 
L 69.28125 38.09375 
L 69.28125 6.78125 
Q 63.578125 2.734375 56.6875 0.65625 
Q 49.8125 -1.421875 42 -1.421875 
Q 24.90625 -1.421875 15.25 8.5625 
Q 5.609375 18.5625 5.609375 36.375 
Q 5.609375 54.25 15.25 64.234375 
Q 24.90625 74.21875 42 74.21875 
Q 49.125 74.21875 55.546875 72.453125 
Q 61.96875 70.703125 67.390625 67.28125 
L 67.390625 56.78125 
Q 61.921875 61.421875 55.765625 63.765625 
Q 49.609375 66.109375 42.828125 66.109375 
Q 29.4375 66.109375 22.71875 58.640625 
Q 16.015625 51.171875 16.015625 36.375 
Q 16.015625 21.625 22.71875 14.15625 
Q 29.4375 6.6875 42.828125 6.6875 
Q 48.046875 6.6875 52.140625 7.59375 
Q 56.25 8.5 59.515625 10.40625 
" id="BitstreamVeraSans-Roman-47"/>
     </defs>
     <g transform="translate(475.2175 279.102182625)scale(0.12 -0.12)">
      <use xlink:href="#BitstreamVeraSans-Roman-47"/>
      <use x="77.490234375" xlink:href="#BitstreamVeraSans-Roman-2e"/>
      <use x="109.27734375" xlink:href="#BitstreamVeraSans-Roman-20"/>
      <use x="141.064453125" xlink:href="#BitstreamVeraSans-Roman-46"/>
      <use x="198.537109375" xlink:href="#BitstreamVeraSans-Roman-6f"/>
      <use x="259.71875" xlink:href="#BitstreamVeraSans-Roman-72"/>
      <use x="300.80078125" xlink:href="#BitstreamVeraSans-Roman-65"/>
      <use x="362.32421875" xlink:href="#BitstreamVeraSans-Roman-6c"/>
      <use x="390.107421875" xlink:href="#BitstreamVeraSans-Roman-61"/>
      <use x="451.38671875" xlink:href="#BitstreamVeraSans-Roman-6e"/>
      <use x="514.765625" xlink:href="#BitstreamVeraSans-Roman-64"/>
      <use x="578.2421875" xlink:href="#BitstreamVeraSans-Roman-20"/>
      <use x="610.029296875" xlink:href="#BitstreamVeraSans-Roman-55"/>
      <use x="683.22265625" xlink:href="#BitstreamVeraSans-Roman-70"/>
      <use x="746.69921875" xlink:href="#BitstreamVeraSans-Roman-6c"/>
      <use x="774.482421875" xlink:href="#BitstreamVeraSans-Roman-69"/>
      <use x="802.265625" xlink:href="#BitstreamVeraSans-Roman-66"/>
      <use x="837.455078125" xlink:href="#BitstreamVeraSans-Roman-74"/>
      <use x="876.6640625" xlink:href="#BitstreamVeraSans-Roman-20"/>
      <use x="908.451171875" xlink:href="#BitstreamVeraSans-Roman-50"/>
      <use x="968.73828125" xlink:href="#BitstreamVeraSans-Roman-72"/>
      <use x="1009.8203125" xlink:href="#BitstreamVeraSans-Roman-6f"/>
      <use x="1071.001953125" xlink:href="#BitstreamVeraSans-Roman-76"/>
      <use x="1130.181640625" xlink:href="#BitstreamVeraSans-Roman-65"/>
      <use x="1191.705078125" xlink:href="#BitstreamVeraSans-Roman-6e"/>
      <use x="1255.083984375" xlink:href="#BitstreamVeraSans-Roman-61"/>
      <use x="1316.36328125" xlink:href="#BitstreamVeraSans-Roman-6e"/>
      <use x="1379.7421875" xlink:href="#BitstreamVeraSans-Roman-63"/>
      <use x="1434.72265625" xlink:href="#BitstreamVeraSans-Roman-65"/>
     </g>
    </g>
   </g>
  </g>
 </g>
 <defs>
  <clipPath id="pf5e9ee3f44">
   <rect height="386.593740249" width="446.4" x="30.2875" y="12.0390625"/>
  </clipPath>
 </defs>
</svg>
