<?xml version="1.0" encoding="utf-8" standalone="no"?>
<!DOCTYPE svg PUBLIC "-//W3C//DTD SVG 1.1//EN"
  "http://www.w3.org/Graphics/SVG/1.1/DTD/svg11.dtd">
<!-- Created with matplotlib (http://matplotlib.org/) -->
<svg height="432pt" version="1.1" viewBox="0 0 576 432" width="576pt" xmlns="http://www.w3.org/2000/svg" xmlns:xlink="http://www.w3.org/1999/xlink">
 <defs>
  <style type="text/css">
*{stroke-linecap:butt;stroke-linejoin:round;stroke-miterlimit:100000;}
  </style>
 </defs>
 <g id="figure_1">
  <g id="patch_1">
   <path d="M 0 432 
L 576 432 
L 576 0 
L 0 0 
z
" style="fill:#ffffff;"/>
  </g>
  <g id="axes_1">
   <g id="patch_2">
    <path d="M 72 378 
L 518.4 378 
L 518.4 43.2 
L 72 43.2 
z
" style="fill:#ffffff;"/>
   </g>
   <g id="PathCollection_1">
    <defs>
     <path d="M 0 3.535534 
C 0.937635 3.535534 1.836992 3.163008 2.5 2.5 
C 3.163008 1.836992 3.535534 0.937635 3.535534 0 
C 3.535534 -0.937635 3.163008 -1.836992 2.5 -2.5 
C 1.836992 -3.163008 0.937635 -3.535534 0 -3.535534 
C -0.937635 -3.535534 -1.836992 -3.163008 -2.5 -2.5 
C -3.163008 -1.836992 -3.535534 -0.937635 -3.535534 0 
C -3.535534 0.937635 -3.163008 1.836992 -2.5 2.5 
C -1.836992 3.163008 -0.937635 3.535534 0 3.535534 
z
" id="m37e9e5690b" style="stroke:#000000;stroke-opacity:0.6;"/>
    </defs>
    <g clip-path="url(#paf834b8141)">
     <use style="fill:#0000ff;fill-opacity:0.6;stroke:#000000;stroke-opacity:0.6;" x="99.9" xlink:href="#m37e9e5690b" y="165.852714863"/>
    </g>
   </g>
   <g id="PathCollection_2">
    <g clip-path="url(#paf834b8141)">
     <use style="fill:#0000ff;fill-opacity:0.6;stroke:#000000;stroke-opacity:0.6;" x="127.8" xlink:href="#m37e9e5690b" y="202.364439947"/>
    </g>
   </g>
   <g id="PathCollection_3">
    <g clip-path="url(#paf834b8141)">
     <use style="fill:#0000ff;fill-opacity:0.6;stroke:#000000;stroke-opacity:0.6;" x="155.7" xlink:href="#m37e9e5690b" y="229.937821606"/>
    </g>
   </g>
   <g id="PathCollection_4">
    <g clip-path="url(#paf834b8141)">
     <use style="fill:#0000ff;fill-opacity:0.6;stroke:#000000;stroke-opacity:0.6;" x="183.6" xlink:href="#m37e9e5690b" y="251.328807154"/>
    </g>
   </g>
   <g id="PathCollection_5">
    <g clip-path="url(#paf834b8141)">
     <use style="fill:#0000ff;fill-opacity:0.6;stroke:#000000;stroke-opacity:0.6;" x="211.5" xlink:href="#m37e9e5690b" y="269.760256922"/>
    </g>
   </g>
   <g id="PathCollection_6">
    <g clip-path="url(#paf834b8141)">
     <use style="fill:#0000ff;fill-opacity:0.6;stroke:#000000;stroke-opacity:0.6;" x="239.4" xlink:href="#m37e9e5690b" y="224.968425884"/>
    </g>
   </g>
   <g id="PathCollection_7">
    <g clip-path="url(#paf834b8141)">
     <use style="fill:#0000ff;fill-opacity:0.6;stroke:#000000;stroke-opacity:0.6;" x="267.3" xlink:href="#m37e9e5690b" y="321.456304626"/>
    </g>
   </g>
   <g id="PathCollection_8">
    <g clip-path="url(#paf834b8141)">
     <use style="fill:#0000ff;fill-opacity:0.6;stroke:#000000;stroke-opacity:0.6;" x="295.2" xlink:href="#m37e9e5690b" y="321.520163637"/>
    </g>
   </g>
   <g id="PathCollection_9">
    <g clip-path="url(#paf834b8141)">
     <use style="fill:#0000ff;fill-opacity:0.6;stroke:#000000;stroke-opacity:0.6;" x="323.1" xlink:href="#m37e9e5690b" y="320.717426088"/>
    </g>
   </g>
   <g id="PathCollection_10">
    <g clip-path="url(#paf834b8141)">
     <use style="fill:#0000ff;fill-opacity:0.6;stroke:#000000;stroke-opacity:0.6;" x="351.0" xlink:href="#m37e9e5690b" y="322.102661326"/>
    </g>
   </g>
   <g id="PathCollection_11">
    <g clip-path="url(#paf834b8141)">
     <use style="fill:#0000ff;fill-opacity:0.6;stroke:#000000;stroke-opacity:0.6;" x="378.9" xlink:href="#m37e9e5690b" y="224.968425884"/>
    </g>
   </g>
   <g id="PathCollection_12">
    <g clip-path="url(#paf834b8141)">
     <use style="fill:#0000ff;fill-opacity:0.6;stroke:#000000;stroke-opacity:0.6;" x="406.8" xlink:href="#m37e9e5690b" y="327.232204621"/>
    </g>
   </g>
   <g id="PathCollection_13">
    <g clip-path="url(#paf834b8141)">
     <use style="fill:#0000ff;fill-opacity:0.6;stroke:#000000;stroke-opacity:0.6;" x="434.7" xlink:href="#m37e9e5690b" y="334.14881259"/>
    </g>
   </g>
   <g id="PathCollection_14">
    <g clip-path="url(#paf834b8141)">
     <use style="fill:#0000ff;fill-opacity:0.6;stroke:#000000;stroke-opacity:0.6;" x="462.6" xlink:href="#m37e9e5690b" y="341.622976907"/>
    </g>
   </g>
   <g id="PathCollection_15">
    <g clip-path="url(#paf834b8141)">
     <use style="fill:#0000ff;fill-opacity:0.6;stroke:#000000;stroke-opacity:0.6;" x="99.9" xlink:href="#m37e9e5690b" y="171.663746153"/>
    </g>
   </g>
   <g id="PathCollection_16">
    <g clip-path="url(#paf834b8141)">
     <use style="fill:#0000ff;fill-opacity:0.6;stroke:#000000;stroke-opacity:0.6;" x="127.8" xlink:href="#m37e9e5690b" y="195.032729237"/>
    </g>
   </g>
   <g id="PathCollection_17">
    <g clip-path="url(#paf834b8141)">
     <use style="fill:#0000ff;fill-opacity:0.6;stroke:#000000;stroke-opacity:0.6;" x="155.7" xlink:href="#m37e9e5690b" y="227.578990882"/>
    </g>
   </g>
   <g id="PathCollection_18">
    <g clip-path="url(#paf834b8141)">
     <use style="fill:#0000ff;fill-opacity:0.6;stroke:#000000;stroke-opacity:0.6;" x="183.6" xlink:href="#m37e9e5690b" y="232.61273708"/>
    </g>
   </g>
   <g id="PathCollection_19">
    <g clip-path="url(#paf834b8141)">
     <use style="fill:#0000ff;fill-opacity:0.6;stroke:#000000;stroke-opacity:0.6;" x="211.5" xlink:href="#m37e9e5690b" y="267.961594852"/>
    </g>
   </g>
   <g id="PathCollection_20">
    <g clip-path="url(#paf834b8141)">
     <use style="fill:#0000ff;fill-opacity:0.6;stroke:#000000;stroke-opacity:0.6;" x="239.4" xlink:href="#m37e9e5690b" y="272.94904115"/>
    </g>
   </g>
   <g id="PathCollection_21">
    <g clip-path="url(#paf834b8141)">
     <use style="fill:#0000ff;fill-opacity:0.6;stroke:#000000;stroke-opacity:0.6;" x="267.3" xlink:href="#m37e9e5690b" y="292.878953595"/>
    </g>
   </g>
   <g id="PathCollection_22">
    <g clip-path="url(#paf834b8141)">
     <use style="fill:#0000ff;fill-opacity:0.6;stroke:#000000;stroke-opacity:0.6;" x="295.2" xlink:href="#m37e9e5690b" y="294.902571835"/>
    </g>
   </g>
   <g id="PathCollection_23">
    <g clip-path="url(#paf834b8141)">
     <use style="fill:#0000ff;fill-opacity:0.6;stroke:#000000;stroke-opacity:0.6;" x="323.1" xlink:href="#m37e9e5690b" y="296.945663227"/>
    </g>
   </g>
   <g id="PathCollection_24">
    <g clip-path="url(#paf834b8141)">
     <use style="fill:#0000ff;fill-opacity:0.6;stroke:#000000;stroke-opacity:0.6;" x="351.0" xlink:href="#m37e9e5690b" y="299.237351279"/>
    </g>
   </g>
   <g id="PathCollection_25">
    <g clip-path="url(#paf834b8141)">
     <use style="fill:#0000ff;fill-opacity:0.6;stroke:#000000;stroke-opacity:0.6;" x="378.9" xlink:href="#m37e9e5690b" y="272.94904115"/>
    </g>
   </g>
   <g id="PathCollection_26">
    <g clip-path="url(#paf834b8141)">
     <use style="fill:#0000ff;fill-opacity:0.6;stroke:#000000;stroke-opacity:0.6;" x="406.8" xlink:href="#m37e9e5690b" y="305.143791911"/>
    </g>
   </g>
   <g id="PathCollection_27">
    <g clip-path="url(#paf834b8141)">
     <use style="fill:#0000ff;fill-opacity:0.6;stroke:#000000;stroke-opacity:0.6;" x="434.7" xlink:href="#m37e9e5690b" y="312.06039988"/>
    </g>
   </g>
   <g id="PathCollection_28">
    <g clip-path="url(#paf834b8141)">
     <use style="fill:#0000ff;fill-opacity:0.6;stroke:#000000;stroke-opacity:0.6;" x="462.6" xlink:href="#m37e9e5690b" y="315.005385104"/>
    </g>
   </g>
   <g id="PathCollection_29">
    <defs>
     <path d="M -0 5 
L 3 0 
L 0 -5 
L -3 -0 
z
" id="mef51aa8c64" style="stroke:#000000;stroke-opacity:0.6;"/>
    </defs>
    <g clip-path="url(#paf834b8141)">
     <use style="fill:#ff0000;fill-opacity:0.6;stroke:#000000;stroke-opacity:0.6;" x="99.9" xlink:href="#mef51aa8c64" y="204.36668249"/>
    </g>
   </g>
   <g id="PathCollection_30">
    <g clip-path="url(#paf834b8141)">
     <use style="fill:#ff0000;fill-opacity:0.6;stroke:#000000;stroke-opacity:0.6;" x="127.8" xlink:href="#mef51aa8c64" y="216.931557951"/>
    </g>
   </g>
   <g id="PathCollection_31">
    <g clip-path="url(#paf834b8141)">
     <use style="fill:#ff0000;fill-opacity:0.6;stroke:#000000;stroke-opacity:0.6;" x="155.7" xlink:href="#mef51aa8c64" y="220.277355072"/>
    </g>
   </g>
   <g id="PathCollection_32">
    <g clip-path="url(#paf834b8141)">
     <use style="fill:#ff0000;fill-opacity:0.6;stroke:#000000;stroke-opacity:0.6;" x="183.6" xlink:href="#mef51aa8c64" y="234.157445027"/>
    </g>
   </g>
   <g id="PathCollection_33">
    <g clip-path="url(#paf834b8141)">
     <use style="fill:#ff0000;fill-opacity:0.6;stroke:#000000;stroke-opacity:0.6;" x="211.5" xlink:href="#mef51aa8c64" y="262.843648953"/>
    </g>
   </g>
   <g id="PathCollection_34">
    <g clip-path="url(#paf834b8141)">
     <use style="fill:#ff0000;fill-opacity:0.6;stroke:#000000;stroke-opacity:0.6;" x="239.4" xlink:href="#mef51aa8c64" y="195.963405205"/>
    </g>
   </g>
   <g id="PathCollection_35">
    <g clip-path="url(#paf834b8141)">
     <use style="fill:#ff0000;fill-opacity:0.6;stroke:#000000;stroke-opacity:0.6;" x="267.3" xlink:href="#mef51aa8c64" y="256.695809952"/>
    </g>
   </g>
   <g id="PathCollection_36">
    <g clip-path="url(#paf834b8141)">
     <use style="fill:#ff0000;fill-opacity:0.6;stroke:#000000;stroke-opacity:0.6;" x="295.2" xlink:href="#mef51aa8c64" y="306.871445798"/>
    </g>
   </g>
   <g id="PathCollection_37">
    <g clip-path="url(#paf834b8141)">
     <use style="fill:#ff0000;fill-opacity:0.6;stroke:#000000;stroke-opacity:0.6;" x="323.1" xlink:href="#mef51aa8c64" y="309.750816765"/>
    </g>
   </g>
   <g id="PathCollection_38">
    <g clip-path="url(#paf834b8141)">
     <use style="fill:#ff0000;fill-opacity:0.6;stroke:#000000;stroke-opacity:0.6;" x="351.0" xlink:href="#mef51aa8c64" y="311.98312258"/>
    </g>
   </g>
   <g id="PathCollection_39">
    <g clip-path="url(#paf834b8141)">
     <use style="fill:#ff0000;fill-opacity:0.6;stroke:#000000;stroke-opacity:0.6;" x="378.9" xlink:href="#mef51aa8c64" y="195.963405205"/>
    </g>
   </g>
   <g id="PathCollection_40">
    <g clip-path="url(#paf834b8141)">
     <use style="fill:#ff0000;fill-opacity:0.6;stroke:#000000;stroke-opacity:0.6;" x="406.8" xlink:href="#mef51aa8c64" y="315.263330657"/>
    </g>
   </g>
   <g id="PathCollection_41">
    <g clip-path="url(#paf834b8141)">
     <use style="fill:#ff0000;fill-opacity:0.6;stroke:#000000;stroke-opacity:0.6;" x="434.7" xlink:href="#mef51aa8c64" y="322.179938626"/>
    </g>
   </g>
   <g id="PathCollection_42">
    <g clip-path="url(#paf834b8141)">
     <use style="fill:#ff0000;fill-opacity:0.6;stroke:#000000;stroke-opacity:0.6;" x="462.6" xlink:href="#mef51aa8c64" y="326.974259068"/>
    </g>
   </g>
   <g id="PathCollection_43">
    <defs>
     <path d="M -0 5 
L 3 0 
L 0 -5 
L -3 -0 
z
" id="m02cc60ccd6" style="stroke:#000000;stroke-opacity:0.6;"/>
    </defs>
    <g clip-path="url(#paf834b8141)">
     <use style="fill-opacity:0.6;stroke:#000000;stroke-opacity:0.6;" x="99.9" xlink:href="#m02cc60ccd6" y="158.214703384"/>
    </g>
   </g>
   <g id="PathCollection_44">
    <g clip-path="url(#paf834b8141)">
     <use style="fill-opacity:0.6;stroke:#000000;stroke-opacity:0.6;" x="127.8" xlink:href="#m02cc60ccd6" y="155.969298566"/>
    </g>
   </g>
   <g id="PathCollection_45">
    <g clip-path="url(#paf834b8141)">
     <use style="fill-opacity:0.6;stroke:#000000;stroke-opacity:0.6;" x="155.7" xlink:href="#m02cc60ccd6" y="133.003168335"/>
    </g>
   </g>
   <g id="PathCollection_46">
    <g clip-path="url(#paf834b8141)">
     <use style="fill-opacity:0.6;stroke:#000000;stroke-opacity:0.6;" x="183.6" xlink:href="#m02cc60ccd6" y="128.156156439"/>
    </g>
   </g>
   <g id="PathCollection_47">
    <g clip-path="url(#paf834b8141)">
     <use style="fill-opacity:0.6;stroke:#000000;stroke-opacity:0.6;" x="211.5" xlink:href="#m02cc60ccd6" y="181.074034918"/>
    </g>
   </g>
   <g id="PathCollection_48">
    <g clip-path="url(#paf834b8141)">
     <use style="fill-opacity:0.6;stroke:#000000;stroke-opacity:0.6;" x="239.4" xlink:href="#m02cc60ccd6" y="100.428078641"/>
    </g>
   </g>
   <g id="PathCollection_49">
    <g clip-path="url(#paf834b8141)">
     <use style="fill-opacity:0.6;stroke:#000000;stroke-opacity:0.6;" x="267.3" xlink:href="#m02cc60ccd6" y="210.363499184"/>
    </g>
   </g>
   <g id="PathCollection_50">
    <g clip-path="url(#paf834b8141)">
     <use style="fill-opacity:0.6;stroke:#000000;stroke-opacity:0.6;" x="295.2" xlink:href="#m02cc60ccd6" y="219.232552241"/>
    </g>
   </g>
   <g id="PathCollection_51">
    <g clip-path="url(#paf834b8141)">
     <use style="fill-opacity:0.6;stroke:#000000;stroke-opacity:0.6;" x="323.1" xlink:href="#m02cc60ccd6" y="216.024439654"/>
    </g>
   </g>
   <g id="PathCollection_52">
    <g clip-path="url(#paf834b8141)">
     <use style="fill-opacity:0.6;stroke:#000000;stroke-opacity:0.6;" x="351.0" xlink:href="#m02cc60ccd6" y="222.159837"/>
    </g>
   </g>
   <g id="PathCollection_53">
    <g clip-path="url(#paf834b8141)">
     <use style="fill-opacity:0.6;stroke:#000000;stroke-opacity:0.6;" x="378.9" xlink:href="#m02cc60ccd6" y="100.428078641"/>
    </g>
   </g>
   <g id="PathCollection_54">
    <g clip-path="url(#paf834b8141)">
     <use style="fill-opacity:0.6;stroke:#000000;stroke-opacity:0.6;" x="406.8" xlink:href="#m02cc60ccd6" y="229.96922417"/>
    </g>
   </g>
   <g id="PathCollection_55">
    <g clip-path="url(#paf834b8141)">
     <use style="fill-opacity:0.6;stroke:#000000;stroke-opacity:0.6;" x="434.7" xlink:href="#m02cc60ccd6" y="238.395026394"/>
    </g>
   </g>
   <g id="PathCollection_56">
    <g clip-path="url(#paf834b8141)">
     <use style="fill-opacity:0.6;stroke:#000000;stroke-opacity:0.6;" x="462.6" xlink:href="#m02cc60ccd6" y="235.968111597"/>
    </g>
   </g>
   <g id="PathCollection_57">
    <defs>
     <path d="M -3.535534 3.535534 
L 3.535534 3.535534 
L 3.535534 -3.535534 
L -3.535534 -3.535534 
z
" id="m322d2009e2" style="stroke:#000000;stroke-opacity:0.6;"/>
    </defs>
    <g clip-path="url(#paf834b8141)">
     <use style="fill:#008000;fill-opacity:0.6;stroke:#000000;stroke-opacity:0.6;" x="99.9" xlink:href="#m322d2009e2" y="178.331330059"/>
    </g>
   </g>
   <g id="PathCollection_58">
    <g clip-path="url(#paf834b8141)">
     <use style="fill:#008000;fill-opacity:0.6;stroke:#000000;stroke-opacity:0.6;" x="127.8" xlink:href="#m322d2009e2" y="186.102691109"/>
    </g>
   </g>
   <g id="PathCollection_59">
    <g clip-path="url(#paf834b8141)">
     <use style="fill:#008000;fill-opacity:0.6;stroke:#000000;stroke-opacity:0.6;" x="155.7" xlink:href="#m322d2009e2" y="144.353240933"/>
    </g>
   </g>
   <g id="PathCollection_60">
    <g clip-path="url(#paf834b8141)">
     <use style="fill:#008000;fill-opacity:0.6;stroke:#000000;stroke-opacity:0.6;" x="183.6" xlink:href="#m322d2009e2" y="132.071233216"/>
    </g>
   </g>
   <g id="PathCollection_61">
    <g clip-path="url(#paf834b8141)">
     <use style="fill:#008000;fill-opacity:0.6;stroke:#000000;stroke-opacity:0.6;" x="211.5" xlink:href="#m322d2009e2" y="165.208729496"/>
    </g>
   </g>
   <g id="PathCollection_62">
    <g clip-path="url(#paf834b8141)">
     <use style="fill:#008000;fill-opacity:0.6;stroke:#000000;stroke-opacity:0.6;" x="239.4" xlink:href="#m322d2009e2" y="163.851218986"/>
    </g>
   </g>
   <g id="PathCollection_63">
    <g clip-path="url(#paf834b8141)">
     <use style="fill:#008000;fill-opacity:0.6;stroke:#000000;stroke-opacity:0.6;" x="267.3" xlink:href="#m322d2009e2" y="195.65986954"/>
    </g>
   </g>
   <g id="PathCollection_64">
    <g clip-path="url(#paf834b8141)">
     <use style="fill:#008000;fill-opacity:0.6;stroke:#000000;stroke-opacity:0.6;" x="295.2" xlink:href="#m322d2009e2" y="203.896424363"/>
    </g>
   </g>
   <g id="PathCollection_65">
    <g clip-path="url(#paf834b8141)">
     <use style="fill:#008000;fill-opacity:0.6;stroke:#000000;stroke-opacity:0.6;" x="323.1" xlink:href="#m322d2009e2" y="205.1137557"/>
    </g>
   </g>
   <g id="PathCollection_66">
    <g clip-path="url(#paf834b8141)">
     <use style="fill:#008000;fill-opacity:0.6;stroke:#000000;stroke-opacity:0.6;" x="351.0" xlink:href="#m322d2009e2" y="206.32825727"/>
    </g>
   </g>
   <g id="PathCollection_67">
    <g clip-path="url(#paf834b8141)">
     <use style="fill:#008000;fill-opacity:0.6;stroke:#000000;stroke-opacity:0.6;" x="378.9" xlink:href="#m322d2009e2" y="163.851218986"/>
    </g>
   </g>
   <g id="PathCollection_68">
    <g clip-path="url(#paf834b8141)">
     <use style="fill:#008000;fill-opacity:0.6;stroke:#000000;stroke-opacity:0.6;" x="406.8" xlink:href="#m322d2009e2" y="216.525073316"/>
    </g>
   </g>
   <g id="PathCollection_69">
    <g clip-path="url(#paf834b8141)">
     <use style="fill:#008000;fill-opacity:0.6;stroke:#000000;stroke-opacity:0.6;" x="434.7" xlink:href="#m322d2009e2" y="223.441681285"/>
    </g>
   </g>
   <g id="PathCollection_70">
    <g clip-path="url(#paf834b8141)">
     <use style="fill:#008000;fill-opacity:0.6;stroke:#000000;stroke-opacity:0.6;" x="462.6" xlink:href="#m322d2009e2" y="223.999237633"/>
    </g>
   </g>
   <g id="PathCollection_71">
    <g clip-path="url(#paf834b8141)">
     <use style="fill:#008000;fill-opacity:0.6;stroke:#000000;stroke-opacity:0.6;" x="99.9" xlink:href="#m322d2009e2" y="154.756037734"/>
    </g>
   </g>
   <g id="PathCollection_72">
    <g clip-path="url(#paf834b8141)">
     <use style="fill:#008000;fill-opacity:0.6;stroke:#000000;stroke-opacity:0.6;" x="127.8" xlink:href="#m322d2009e2" y="162.751796052"/>
    </g>
   </g>
   <g id="PathCollection_73">
    <g clip-path="url(#paf834b8141)">
     <use style="fill:#008000;fill-opacity:0.6;stroke:#000000;stroke-opacity:0.6;" x="155.7" xlink:href="#m322d2009e2" y="129.791530474"/>
    </g>
   </g>
   <g id="PathCollection_74">
    <g clip-path="url(#paf834b8141)">
     <use style="fill:#008000;fill-opacity:0.6;stroke:#000000;stroke-opacity:0.6;" x="183.6" xlink:href="#m322d2009e2" y="117.93797446"/>
    </g>
   </g>
   <g id="PathCollection_75">
    <g clip-path="url(#paf834b8141)">
     <use style="fill:#008000;fill-opacity:0.6;stroke:#000000;stroke-opacity:0.6;" x="211.5" xlink:href="#m322d2009e2" y="151.682210929"/>
    </g>
   </g>
   <g id="PathCollection_76">
    <g clip-path="url(#paf834b8141)">
     <use style="fill:#008000;fill-opacity:0.6;stroke:#000000;stroke-opacity:0.6;" x="239.4" xlink:href="#m322d2009e2" y="145.931152376"/>
    </g>
   </g>
   <g id="PathCollection_77">
    <g clip-path="url(#paf834b8141)">
     <use style="fill:#008000;fill-opacity:0.6;stroke:#000000;stroke-opacity:0.6;" x="267.3" xlink:href="#m322d2009e2" y="191.822260614"/>
    </g>
   </g>
   <g id="PathCollection_78">
    <g clip-path="url(#paf834b8141)">
     <use style="fill:#008000;fill-opacity:0.6;stroke:#000000;stroke-opacity:0.6;" x="295.2" xlink:href="#m322d2009e2" y="212.66236755"/>
    </g>
   </g>
   <g id="PathCollection_79">
    <g clip-path="url(#paf834b8141)">
     <use style="fill:#008000;fill-opacity:0.6;stroke:#000000;stroke-opacity:0.6;" x="323.1" xlink:href="#m322d2009e2" y="213.180078849"/>
    </g>
   </g>
   <g id="PathCollection_80">
    <g clip-path="url(#paf834b8141)">
     <use style="fill:#008000;fill-opacity:0.6;stroke:#000000;stroke-opacity:0.6;" x="351.0" xlink:href="#m322d2009e2" y="231.096513855"/>
    </g>
   </g>
   <g id="PathCollection_81">
    <g clip-path="url(#paf834b8141)">
     <use style="fill:#008000;fill-opacity:0.6;stroke:#000000;stroke-opacity:0.6;" x="378.9" xlink:href="#m322d2009e2" y="145.931152376"/>
    </g>
   </g>
   <g id="PathCollection_82">
    <g clip-path="url(#paf834b8141)">
     <use style="fill:#008000;fill-opacity:0.6;stroke:#000000;stroke-opacity:0.6;" x="406.8" xlink:href="#m322d2009e2" y="239.593311064"/>
    </g>
   </g>
   <g id="PathCollection_83">
    <g clip-path="url(#paf834b8141)">
     <use style="fill:#008000;fill-opacity:0.6;stroke:#000000;stroke-opacity:0.6;" x="434.7" xlink:href="#m322d2009e2" y="247.088310958"/>
    </g>
   </g>
   <g id="PathCollection_84">
    <g clip-path="url(#paf834b8141)">
     <use style="fill:#008000;fill-opacity:0.6;stroke:#000000;stroke-opacity:0.6;" x="462.6" xlink:href="#m322d2009e2" y="242.884719566"/>
    </g>
   </g>
   <g id="line2d_1">
    <path clip-path="url(#paf834b8141)" d="M 99.9 165.852715 
L 127.8 202.36444 
L 155.7 229.937822 
L 183.6 251.328807 
L 211.5 269.760257 
L 239.4 224.968426 
L 267.3 321.456305 
L 295.2 321.520164 
L 323.1 320.717426 
L 351 322.102661 
L 378.9 224.968426 
L 406.8 327.232205 
L 434.7 334.148813 
L 462.6 341.622977 
" style="fill:none;opacity:0.6;stroke:#0000ff;stroke-linecap:square;stroke-width:0.4;"/>
   </g>
   <g id="line2d_2">
    <path clip-path="url(#paf834b8141)" d="M 99.9 171.663746 
L 127.8 195.032729 
L 155.7 227.578991 
L 183.6 232.612737 
L 211.5 267.961595 
L 239.4 272.949041 
L 267.3 292.878954 
L 295.2 294.902572 
L 323.1 296.945663 
L 351 299.237351 
L 378.9 272.949041 
L 406.8 305.143792 
L 434.7 312.0604 
L 462.6 315.005385 
" style="fill:none;opacity:0.6;stroke:#0000ff;stroke-linecap:square;stroke-width:0.4;"/>
   </g>
   <g id="line2d_3">
    <path clip-path="url(#paf834b8141)" d="M 99.9 204.366682 
L 127.8 216.931558 
L 155.7 220.277355 
L 183.6 234.157445 
L 211.5 262.843649 
L 239.4 195.963405 
L 267.3 256.69581 
L 295.2 306.871446 
L 323.1 309.750817 
L 351 311.983123 
L 378.9 195.963405 
L 406.8 315.263331 
L 434.7 322.179939 
L 462.6 326.974259 
" style="fill:none;opacity:0.6;stroke:#ff0000;stroke-dasharray:6.000000,6.000000;stroke-dashoffset:0.0;stroke-width:0.4;"/>
   </g>
   <g id="line2d_4">
    <path clip-path="url(#paf834b8141)" d="M 99.9 158.214703 
L 127.8 155.969299 
L 155.7 133.003168 
L 183.6 128.156156 
L 211.5 181.074035 
L 239.4 100.428079 
L 267.3 210.363499 
L 295.2 219.232552 
L 323.1 216.02444 
L 351 222.159837 
L 378.9 100.428079 
L 406.8 229.969224 
L 434.7 238.395026 
L 462.6 235.968112 
" style="fill:none;opacity:0.6;stroke:#000000;stroke-dasharray:6.000000,6.000000;stroke-dashoffset:0.0;stroke-width:0.4;"/>
   </g>
   <g id="line2d_5">
    <path clip-path="url(#paf834b8141)" d="M 99.9 178.33133 
L 127.8 186.102691 
L 155.7 144.353241 
L 183.6 132.071233 
L 211.5 165.208729 
L 239.4 163.851219 
L 267.3 195.65987 
L 295.2 203.896424 
L 323.1 205.113756 
L 351 206.328257 
L 378.9 163.851219 
L 406.8 216.525073 
L 434.7 223.441681 
L 462.6 223.999238 
" style="fill:none;opacity:0.6;stroke:#008000;stroke-dasharray:1.000000,3.000000;stroke-dashoffset:0.0;stroke-width:0.4;"/>
   </g>
   <g id="line2d_6">
    <path clip-path="url(#paf834b8141)" d="M 99.9 154.756038 
L 127.8 162.751796 
L 155.7 129.79153 
L 183.6 117.937974 
L 211.5 151.682211 
L 239.4 145.931152 
L 267.3 191.822261 
L 295.2 212.662368 
L 323.1 213.180079 
L 351 231.096514 
L 378.9 145.931152 
L 406.8 239.593311 
L 434.7 247.088311 
L 462.6 242.88472 
" style="fill:none;opacity:0.6;stroke:#008000;stroke-dasharray:1.000000,3.000000;stroke-dashoffset:0.0;stroke-width:0.4;"/>
   </g>
   <g id="patch_3">
    <path d="M 518.4 378 
L 518.4 43.2 
" style="fill:none;"/>
   </g>
   <g id="patch_4">
    <path d="M 72 371.435294 
L 518.4 371.435294 
" style="fill:none;stroke:#000000;stroke-linecap:square;stroke-linejoin:miter;"/>
   </g>
   <g id="patch_5">
    <path d="M 72 378 
L 72 43.2 
" style="fill:none;stroke:#000000;stroke-linecap:square;stroke-linejoin:miter;"/>
   </g>
   <g id="patch_6">
    <path d="M 72 43.2 
L 518.4 43.2 
" style="fill:none;"/>
   </g>
   <g id="matplotlib.axis_1">
    <g id="xtick_1">
     <g id="line2d_7">
      <defs>
       <path d="M 0 0 
L 0 -4 
" id="m9fcf693f6b" style="stroke:#000000;stroke-width:0.5;"/>
      </defs>
      <g>
       <use style="stroke:#000000;stroke-width:0.5;" x="99.9" xlink:href="#m9fcf693f6b" y="371.435294118"/>
      </g>
     </g>
     <g id="text_1">
      <!-- La -->
      <defs>
       <path d="M 34.28125 27.484375 
Q 23.390625 27.484375 19.1875 25 
Q 14.984375 22.515625 14.984375 16.5 
Q 14.984375 11.71875 18.140625 8.90625 
Q 21.296875 6.109375 26.703125 6.109375 
Q 34.1875 6.109375 38.703125 11.40625 
Q 43.21875 16.703125 43.21875 25.484375 
L 43.21875 27.484375 
z
M 52.203125 31.203125 
L 52.203125 0 
L 43.21875 0 
L 43.21875 8.296875 
Q 40.140625 3.328125 35.546875 0.953125 
Q 30.953125 -1.421875 24.3125 -1.421875 
Q 15.921875 -1.421875 10.953125 3.296875 
Q 6 8.015625 6 15.921875 
Q 6 25.140625 12.171875 29.828125 
Q 18.359375 34.515625 30.609375 34.515625 
L 43.21875 34.515625 
L 43.21875 35.40625 
Q 43.21875 41.609375 39.140625 45 
Q 35.0625 48.390625 27.6875 48.390625 
Q 23 48.390625 18.546875 47.265625 
Q 14.109375 46.140625 10.015625 43.890625 
L 10.015625 52.203125 
Q 14.9375 54.109375 19.578125 55.046875 
Q 24.21875 56 28.609375 56 
Q 40.484375 56 46.34375 49.84375 
Q 52.203125 43.703125 52.203125 31.203125 
" id="BitstreamVeraSans-Roman-61"/>
       <path d="M 9.8125 72.90625 
L 19.671875 72.90625 
L 19.671875 8.296875 
L 55.171875 8.296875 
L 55.171875 0 
L 9.8125 0 
z
" id="BitstreamVeraSans-Roman-4c"/>
      </defs>
      <g transform="translate(94.05 383.033731618)scale(0.1 -0.1)">
       <use xlink:href="#BitstreamVeraSans-Roman-4c"/>
       <use x="55.712890625" xlink:href="#BitstreamVeraSans-Roman-61"/>
      </g>
     </g>
    </g>
    <g id="xtick_2">
     <g id="line2d_8">
      <g>
       <use style="stroke:#000000;stroke-width:0.5;" x="127.8" xlink:href="#m9fcf693f6b" y="371.435294118"/>
      </g>
     </g>
     <g id="text_2">
      <!-- Ce -->
      <defs>
       <path d="M 64.40625 67.28125 
L 64.40625 56.890625 
Q 59.421875 61.53125 53.78125 63.8125 
Q 48.140625 66.109375 41.796875 66.109375 
Q 29.296875 66.109375 22.65625 58.46875 
Q 16.015625 50.828125 16.015625 36.375 
Q 16.015625 21.96875 22.65625 14.328125 
Q 29.296875 6.6875 41.796875 6.6875 
Q 48.140625 6.6875 53.78125 8.984375 
Q 59.421875 11.28125 64.40625 15.921875 
L 64.40625 5.609375 
Q 59.234375 2.09375 53.4375 0.328125 
Q 47.65625 -1.421875 41.21875 -1.421875 
Q 24.65625 -1.421875 15.125 8.703125 
Q 5.609375 18.84375 5.609375 36.375 
Q 5.609375 53.953125 15.125 64.078125 
Q 24.65625 74.21875 41.21875 74.21875 
Q 47.75 74.21875 53.53125 72.484375 
Q 59.328125 70.75 64.40625 67.28125 
" id="BitstreamVeraSans-Roman-43"/>
       <path d="M 56.203125 29.59375 
L 56.203125 25.203125 
L 14.890625 25.203125 
Q 15.484375 15.921875 20.484375 11.0625 
Q 25.484375 6.203125 34.421875 6.203125 
Q 39.59375 6.203125 44.453125 7.46875 
Q 49.3125 8.734375 54.109375 11.28125 
L 54.109375 2.78125 
Q 49.265625 0.734375 44.1875 -0.34375 
Q 39.109375 -1.421875 33.890625 -1.421875 
Q 20.796875 -1.421875 13.15625 6.1875 
Q 5.515625 13.8125 5.515625 26.8125 
Q 5.515625 40.234375 12.765625 48.109375 
Q 20.015625 56 32.328125 56 
Q 43.359375 56 49.78125 48.890625 
Q 56.203125 41.796875 56.203125 29.59375 
M 47.21875 32.234375 
Q 47.125 39.59375 43.09375 43.984375 
Q 39.0625 48.390625 32.421875 48.390625 
Q 24.90625 48.390625 20.390625 44.140625 
Q 15.875 39.890625 15.1875 32.171875 
z
" id="BitstreamVeraSans-Roman-65"/>
      </defs>
      <g transform="translate(121.23203125 383.033731618)scale(0.1 -0.1)">
       <use xlink:href="#BitstreamVeraSans-Roman-43"/>
       <use x="69.82421875" xlink:href="#BitstreamVeraSans-Roman-65"/>
      </g>
     </g>
    </g>
    <g id="xtick_3">
     <g id="line2d_9">
      <g>
       <use style="stroke:#000000;stroke-width:0.5;" x="155.7" xlink:href="#m9fcf693f6b" y="371.435294118"/>
      </g>
     </g>
     <g id="text_3">
      <!-- Pr -->
      <defs>
       <path d="M 19.671875 64.796875 
L 19.671875 37.40625 
L 32.078125 37.40625 
Q 38.96875 37.40625 42.71875 40.96875 
Q 46.484375 44.53125 46.484375 51.125 
Q 46.484375 57.671875 42.71875 61.234375 
Q 38.96875 64.796875 32.078125 64.796875 
z
M 9.8125 72.90625 
L 32.078125 72.90625 
Q 44.34375 72.90625 50.609375 67.359375 
Q 56.890625 61.8125 56.890625 51.125 
Q 56.890625 40.328125 50.609375 34.8125 
Q 44.34375 29.296875 32.078125 29.296875 
L 19.671875 29.296875 
L 19.671875 0 
L 9.8125 0 
z
" id="BitstreamVeraSans-Roman-50"/>
       <path d="M 41.109375 46.296875 
Q 39.59375 47.171875 37.8125 47.578125 
Q 36.03125 48 33.890625 48 
Q 26.265625 48 22.1875 43.046875 
Q 18.109375 38.09375 18.109375 28.8125 
L 18.109375 0 
L 9.078125 0 
L 9.078125 54.6875 
L 18.109375 54.6875 
L 18.109375 46.1875 
Q 20.953125 51.171875 25.484375 53.578125 
Q 30.03125 56 36.53125 56 
Q 37.453125 56 38.578125 55.875 
Q 39.703125 55.765625 41.0625 55.515625 
z
" id="BitstreamVeraSans-Roman-72"/>
      </defs>
      <g transform="translate(150.63046875 383.033731618)scale(0.1 -0.1)">
       <use xlink:href="#BitstreamVeraSans-Roman-50"/>
       <use x="60.287109375" xlink:href="#BitstreamVeraSans-Roman-72"/>
      </g>
     </g>
    </g>
    <g id="xtick_4">
     <g id="line2d_10">
      <g>
       <use style="stroke:#000000;stroke-width:0.5;" x="183.6" xlink:href="#m9fcf693f6b" y="371.435294118"/>
      </g>
     </g>
     <g id="text_4">
      <!-- Nd -->
      <defs>
       <path d="M 45.40625 46.390625 
L 45.40625 75.984375 
L 54.390625 75.984375 
L 54.390625 0 
L 45.40625 0 
L 45.40625 8.203125 
Q 42.578125 3.328125 38.25 0.953125 
Q 33.9375 -1.421875 27.875 -1.421875 
Q 17.96875 -1.421875 11.734375 6.484375 
Q 5.515625 14.40625 5.515625 27.296875 
Q 5.515625 40.1875 11.734375 48.09375 
Q 17.96875 56 27.875 56 
Q 33.9375 56 38.25 53.625 
Q 42.578125 51.265625 45.40625 46.390625 
M 14.796875 27.296875 
Q 14.796875 17.390625 18.875 11.75 
Q 22.953125 6.109375 30.078125 6.109375 
Q 37.203125 6.109375 41.296875 11.75 
Q 45.40625 17.390625 45.40625 27.296875 
Q 45.40625 37.203125 41.296875 42.84375 
Q 37.203125 48.484375 30.078125 48.484375 
Q 22.953125 48.484375 18.875 42.84375 
Q 14.796875 37.203125 14.796875 27.296875 
" id="BitstreamVeraSans-Roman-64"/>
       <path d="M 9.8125 72.90625 
L 23.09375 72.90625 
L 55.421875 11.921875 
L 55.421875 72.90625 
L 64.984375 72.90625 
L 64.984375 0 
L 51.703125 0 
L 19.390625 60.984375 
L 19.390625 0 
L 9.8125 0 
z
" id="BitstreamVeraSans-Roman-4e"/>
      </defs>
      <g transform="translate(176.68515625 383.033731618)scale(0.1 -0.1)">
       <use xlink:href="#BitstreamVeraSans-Roman-4e"/>
       <use x="74.8046875" xlink:href="#BitstreamVeraSans-Roman-64"/>
      </g>
     </g>
    </g>
    <g id="xtick_5">
     <g id="line2d_11">
      <g>
       <use style="stroke:#000000;stroke-width:0.5;" x="211.5" xlink:href="#m9fcf693f6b" y="371.435294118"/>
      </g>
     </g>
     <g id="text_5">
      <!-- Sm -->
      <defs>
       <path d="M 53.515625 70.515625 
L 53.515625 60.890625 
Q 47.90625 63.578125 42.921875 64.890625 
Q 37.9375 66.21875 33.296875 66.21875 
Q 25.25 66.21875 20.875 63.09375 
Q 16.5 59.96875 16.5 54.203125 
Q 16.5 49.359375 19.40625 46.890625 
Q 22.3125 44.4375 30.421875 42.921875 
L 36.375 41.703125 
Q 47.40625 39.59375 52.65625 34.296875 
Q 57.90625 29 57.90625 20.125 
Q 57.90625 9.515625 50.796875 4.046875 
Q 43.703125 -1.421875 29.984375 -1.421875 
Q 24.8125 -1.421875 18.96875 -0.25 
Q 13.140625 0.921875 6.890625 3.21875 
L 6.890625 13.375 
Q 12.890625 10.015625 18.65625 8.296875 
Q 24.421875 6.59375 29.984375 6.59375 
Q 38.421875 6.59375 43.015625 9.90625 
Q 47.609375 13.234375 47.609375 19.390625 
Q 47.609375 24.75 44.3125 27.78125 
Q 41.015625 30.8125 33.5 32.328125 
L 27.484375 33.5 
Q 16.453125 35.6875 11.515625 40.375 
Q 6.59375 45.0625 6.59375 53.421875 
Q 6.59375 63.09375 13.40625 68.65625 
Q 20.21875 74.21875 32.171875 74.21875 
Q 37.3125 74.21875 42.625 73.28125 
Q 47.953125 72.359375 53.515625 70.515625 
" id="BitstreamVeraSans-Roman-53"/>
       <path d="M 52 44.1875 
Q 55.375 50.25 60.0625 53.125 
Q 64.75 56 71.09375 56 
Q 79.640625 56 84.28125 50.015625 
Q 88.921875 44.046875 88.921875 33.015625 
L 88.921875 0 
L 79.890625 0 
L 79.890625 32.71875 
Q 79.890625 40.578125 77.09375 44.375 
Q 74.3125 48.1875 68.609375 48.1875 
Q 61.625 48.1875 57.5625 43.546875 
Q 53.515625 38.921875 53.515625 30.90625 
L 53.515625 0 
L 44.484375 0 
L 44.484375 32.71875 
Q 44.484375 40.625 41.703125 44.40625 
Q 38.921875 48.1875 33.109375 48.1875 
Q 26.21875 48.1875 22.15625 43.53125 
Q 18.109375 38.875 18.109375 30.90625 
L 18.109375 0 
L 9.078125 0 
L 9.078125 54.6875 
L 18.109375 54.6875 
L 18.109375 46.1875 
Q 21.1875 51.21875 25.484375 53.609375 
Q 29.78125 56 35.6875 56 
Q 41.65625 56 45.828125 52.96875 
Q 50 49.953125 52 44.1875 
" id="BitstreamVeraSans-Roman-6d"/>
      </defs>
      <g transform="translate(203.45546875 383.033731618)scale(0.1 -0.1)">
       <use xlink:href="#BitstreamVeraSans-Roman-53"/>
       <use x="63.4765625" xlink:href="#BitstreamVeraSans-Roman-6d"/>
      </g>
     </g>
    </g>
    <g id="xtick_6">
     <g id="line2d_12">
      <g>
       <use style="stroke:#000000;stroke-width:0.5;" x="239.4" xlink:href="#m9fcf693f6b" y="371.435294118"/>
      </g>
     </g>
     <g id="text_6">
      <!-- Eu -->
      <defs>
       <path d="M 8.5 21.578125 
L 8.5 54.6875 
L 17.484375 54.6875 
L 17.484375 21.921875 
Q 17.484375 14.15625 20.5 10.265625 
Q 23.53125 6.390625 29.59375 6.390625 
Q 36.859375 6.390625 41.078125 11.03125 
Q 45.3125 15.671875 45.3125 23.6875 
L 45.3125 54.6875 
L 54.296875 54.6875 
L 54.296875 0 
L 45.3125 0 
L 45.3125 8.40625 
Q 42.046875 3.421875 37.71875 1 
Q 33.40625 -1.421875 27.6875 -1.421875 
Q 18.265625 -1.421875 13.375 4.4375 
Q 8.5 10.296875 8.5 21.578125 
" id="BitstreamVeraSans-Roman-75"/>
       <path d="M 9.8125 72.90625 
L 55.90625 72.90625 
L 55.90625 64.59375 
L 19.671875 64.59375 
L 19.671875 43.015625 
L 54.390625 43.015625 
L 54.390625 34.71875 
L 19.671875 34.71875 
L 19.671875 8.296875 
L 56.78125 8.296875 
L 56.78125 0 
L 9.8125 0 
z
" id="BitstreamVeraSans-Roman-45"/>
      </defs>
      <g transform="translate(233.071875 383.033731618)scale(0.1 -0.1)">
       <use xlink:href="#BitstreamVeraSans-Roman-45"/>
       <use x="63.18359375" xlink:href="#BitstreamVeraSans-Roman-75"/>
      </g>
     </g>
    </g>
    <g id="xtick_7">
     <g id="line2d_13">
      <g>
       <use style="stroke:#000000;stroke-width:0.5;" x="267.3" xlink:href="#m9fcf693f6b" y="371.435294118"/>
      </g>
     </g>
     <g id="text_7">
      <!-- Gd -->
      <defs>
       <path d="M 59.515625 10.40625 
L 59.515625 29.984375 
L 43.40625 29.984375 
L 43.40625 38.09375 
L 69.28125 38.09375 
L 69.28125 6.78125 
Q 63.578125 2.734375 56.6875 0.65625 
Q 49.8125 -1.421875 42 -1.421875 
Q 24.90625 -1.421875 15.25 8.5625 
Q 5.609375 18.5625 5.609375 36.375 
Q 5.609375 54.25 15.25 64.234375 
Q 24.90625 74.21875 42 74.21875 
Q 49.125 74.21875 55.546875 72.453125 
Q 61.96875 70.703125 67.390625 67.28125 
L 67.390625 56.78125 
Q 61.921875 61.421875 55.765625 63.765625 
Q 49.609375 66.109375 42.828125 66.109375 
Q 29.4375 66.109375 22.71875 58.640625 
Q 16.015625 51.171875 16.015625 36.375 
Q 16.015625 21.625 22.71875 14.15625 
Q 29.4375 6.6875 42.828125 6.6875 
Q 48.046875 6.6875 52.140625 7.59375 
Q 56.25 8.5 59.515625 10.40625 
" id="BitstreamVeraSans-Roman-47"/>
      </defs>
      <g transform="translate(260.2515625 383.033731618)scale(0.1 -0.1)">
       <use xlink:href="#BitstreamVeraSans-Roman-47"/>
       <use x="77.490234375" xlink:href="#BitstreamVeraSans-Roman-64"/>
      </g>
     </g>
    </g>
    <g id="xtick_8">
     <g id="line2d_14">
      <g>
       <use style="stroke:#000000;stroke-width:0.5;" x="295.2" xlink:href="#m9fcf693f6b" y="371.435294118"/>
      </g>
     </g>
     <g id="text_8">
      <!-- Tb -->
      <defs>
       <path d="M 48.6875 27.296875 
Q 48.6875 37.203125 44.609375 42.84375 
Q 40.53125 48.484375 33.40625 48.484375 
Q 26.265625 48.484375 22.1875 42.84375 
Q 18.109375 37.203125 18.109375 27.296875 
Q 18.109375 17.390625 22.1875 11.75 
Q 26.265625 6.109375 33.40625 6.109375 
Q 40.53125 6.109375 44.609375 11.75 
Q 48.6875 17.390625 48.6875 27.296875 
M 18.109375 46.390625 
Q 20.953125 51.265625 25.265625 53.625 
Q 29.59375 56 35.59375 56 
Q 45.5625 56 51.78125 48.09375 
Q 58.015625 40.1875 58.015625 27.296875 
Q 58.015625 14.40625 51.78125 6.484375 
Q 45.5625 -1.421875 35.59375 -1.421875 
Q 29.59375 -1.421875 25.265625 0.953125 
Q 20.953125 3.328125 18.109375 8.203125 
L 18.109375 0 
L 9.078125 0 
L 9.078125 75.984375 
L 18.109375 75.984375 
z
" id="BitstreamVeraSans-Roman-62"/>
       <path d="M -0.296875 72.90625 
L 61.375 72.90625 
L 61.375 64.59375 
L 35.5 64.59375 
L 35.5 0 
L 25.59375 0 
L 25.59375 64.59375 
L -0.296875 64.59375 
z
" id="BitstreamVeraSans-Roman-54"/>
      </defs>
      <g transform="translate(288.971875 383.033731618)scale(0.1 -0.1)">
       <use xlink:href="#BitstreamVeraSans-Roman-54"/>
       <use x="61.083984375" xlink:href="#BitstreamVeraSans-Roman-62"/>
      </g>
     </g>
    </g>
    <g id="xtick_9">
     <g id="line2d_15">
      <g>
       <use style="stroke:#000000;stroke-width:0.5;" x="323.1" xlink:href="#m9fcf693f6b" y="371.435294118"/>
      </g>
     </g>
     <g id="text_9">
      <!-- Dy -->
      <defs>
       <path d="M 19.671875 64.796875 
L 19.671875 8.109375 
L 31.59375 8.109375 
Q 46.6875 8.109375 53.6875 14.9375 
Q 60.6875 21.78125 60.6875 36.53125 
Q 60.6875 51.171875 53.6875 57.984375 
Q 46.6875 64.796875 31.59375 64.796875 
z
M 9.8125 72.90625 
L 30.078125 72.90625 
Q 51.265625 72.90625 61.171875 64.09375 
Q 71.09375 55.28125 71.09375 36.53125 
Q 71.09375 17.671875 61.125 8.828125 
Q 51.171875 0 30.078125 0 
L 9.8125 0 
z
" id="BitstreamVeraSans-Roman-44"/>
       <path d="M 32.171875 -5.078125 
Q 28.375 -14.84375 24.75 -17.8125 
Q 21.140625 -20.796875 15.09375 -20.796875 
L 7.90625 -20.796875 
L 7.90625 -13.28125 
L 13.1875 -13.28125 
Q 16.890625 -13.28125 18.9375 -11.515625 
Q 21 -9.765625 23.484375 -3.21875 
L 25.09375 0.875 
L 2.984375 54.6875 
L 12.5 54.6875 
L 29.59375 11.921875 
L 46.6875 54.6875 
L 56.203125 54.6875 
z
" id="BitstreamVeraSans-Roman-79"/>
      </defs>
      <g transform="translate(316.290625 383.033731618)scale(0.1 -0.1)">
       <use xlink:href="#BitstreamVeraSans-Roman-44"/>
       <use x="77.001953125" xlink:href="#BitstreamVeraSans-Roman-79"/>
      </g>
     </g>
    </g>
    <g id="xtick_10">
     <g id="line2d_16">
      <g>
       <use style="stroke:#000000;stroke-width:0.5;" x="351.0" xlink:href="#m9fcf693f6b" y="371.435294118"/>
      </g>
     </g>
     <g id="text_10">
      <!-- Ho -->
      <defs>
       <path d="M 9.8125 72.90625 
L 19.671875 72.90625 
L 19.671875 43.015625 
L 55.515625 43.015625 
L 55.515625 72.90625 
L 65.375 72.90625 
L 65.375 0 
L 55.515625 0 
L 55.515625 34.71875 
L 19.671875 34.71875 
L 19.671875 0 
L 9.8125 0 
z
" id="BitstreamVeraSans-Roman-48"/>
       <path d="M 30.609375 48.390625 
Q 23.390625 48.390625 19.1875 42.75 
Q 14.984375 37.109375 14.984375 27.296875 
Q 14.984375 17.484375 19.15625 11.84375 
Q 23.34375 6.203125 30.609375 6.203125 
Q 37.796875 6.203125 41.984375 11.859375 
Q 46.1875 17.53125 46.1875 27.296875 
Q 46.1875 37.015625 41.984375 42.703125 
Q 37.796875 48.390625 30.609375 48.390625 
M 30.609375 56 
Q 42.328125 56 49.015625 48.375 
Q 55.71875 40.765625 55.71875 27.296875 
Q 55.71875 13.875 49.015625 6.21875 
Q 42.328125 -1.421875 30.609375 -1.421875 
Q 18.84375 -1.421875 12.171875 6.21875 
Q 5.515625 13.875 5.515625 27.296875 
Q 5.515625 40.765625 12.171875 48.375 
Q 18.84375 56 30.609375 56 
" id="BitstreamVeraSans-Roman-6f"/>
      </defs>
      <g transform="translate(344.18046875 383.033731618)scale(0.1 -0.1)">
       <use xlink:href="#BitstreamVeraSans-Roman-48"/>
       <use x="75.1953125" xlink:href="#BitstreamVeraSans-Roman-6f"/>
      </g>
     </g>
    </g>
    <g id="xtick_11">
     <g id="line2d_17">
      <g>
       <use style="stroke:#000000;stroke-width:0.5;" x="378.9" xlink:href="#m9fcf693f6b" y="371.435294118"/>
      </g>
     </g>
     <g id="text_11">
      <!-- Er -->
      <g transform="translate(373.68515625 383.033731618)scale(0.1 -0.1)">
       <use xlink:href="#BitstreamVeraSans-Roman-45"/>
       <use x="63.18359375" xlink:href="#BitstreamVeraSans-Roman-72"/>
      </g>
     </g>
    </g>
    <g id="xtick_12">
     <g id="line2d_18">
      <g>
       <use style="stroke:#000000;stroke-width:0.5;" x="406.8" xlink:href="#m9fcf693f6b" y="371.435294118"/>
      </g>
     </g>
     <g id="text_12">
      <!-- Tm -->
      <g transform="translate(398.87578125 383.033731618)scale(0.1 -0.1)">
       <use xlink:href="#BitstreamVeraSans-Roman-54"/>
       <use x="61.083984375" xlink:href="#BitstreamVeraSans-Roman-6d"/>
      </g>
     </g>
    </g>
    <g id="xtick_13">
     <g id="line2d_19">
      <g>
       <use style="stroke:#000000;stroke-width:0.5;" x="434.7" xlink:href="#m9fcf693f6b" y="371.435294118"/>
      </g>
     </g>
     <g id="text_13">
      <!-- Yb -->
      <defs>
       <path d="M -0.203125 72.90625 
L 10.40625 72.90625 
L 30.609375 42.921875 
L 50.6875 72.90625 
L 61.28125 72.90625 
L 35.5 34.71875 
L 35.5 0 
L 25.59375 0 
L 25.59375 34.71875 
z
" id="BitstreamVeraSans-Roman-59"/>
      </defs>
      <g transform="translate(428.471875 383.033731618)scale(0.1 -0.1)">
       <use xlink:href="#BitstreamVeraSans-Roman-59"/>
       <use x="61.083984375" xlink:href="#BitstreamVeraSans-Roman-62"/>
      </g>
     </g>
    </g>
    <g id="xtick_14">
     <g id="line2d_20">
      <g>
       <use style="stroke:#000000;stroke-width:0.5;" x="462.6" xlink:href="#m9fcf693f6b" y="371.435294118"/>
      </g>
     </g>
     <g id="text_14">
      <!-- Lu -->
      <g transform="translate(456.64609375 383.033731618)scale(0.1 -0.1)">
       <use xlink:href="#BitstreamVeraSans-Roman-4c"/>
       <use x="55.697265625" xlink:href="#BitstreamVeraSans-Roman-75"/>
      </g>
     </g>
    </g>
    <g id="xtick_15">
     <g id="line2d_21">
      <g>
       <use style="stroke:#000000;stroke-width:0.5;" x="490.5" xlink:href="#m9fcf693f6b" y="371.435294118"/>
      </g>
     </g>
     <g id="text_15">
      <!-- Y -->
      <g transform="translate(487.44609375 383.033731618)scale(0.1 -0.1)">
       <use xlink:href="#BitstreamVeraSans-Roman-59"/>
      </g>
     </g>
    </g>
    <g id="text_16">
     <!-- $REE-Standardlized-Pattern$ -->
     <defs>
      <path d="M 4.6875 0 
Q 3.71875 0 3.71875 1.3125 
Q 3.765625 1.5625 3.90625 2.171875 
Q 4.046875 2.78125 4.3125 3.140625 
Q 4.59375 3.515625 4.984375 3.515625 
Q 11.078125 3.515625 13.484375 4.203125 
Q 14.796875 4.640625 15.375 6.890625 
L 29.109375 61.8125 
Q 29.296875 62.796875 29.296875 63.1875 
Q 29.296875 64.265625 28.078125 64.40625 
Q 26.21875 64.796875 20.90625 64.796875 
Q 19.921875 64.796875 19.921875 66.109375 
Q 19.96875 66.359375 20.109375 66.96875 
Q 20.265625 67.578125 20.53125 67.9375 
Q 20.796875 68.3125 21.1875 68.3125 
L 75.390625 68.3125 
Q 76.421875 68.3125 76.421875 67 
L 74.03125 46.296875 
Q 74.03125 46.046875 73.65625 45.71875 
Q 73.296875 45.40625 73 45.40625 
L 72.125 45.40625 
Q 71.09375 45.40625 71.09375 46.6875 
Q 71.6875 51.5625 71.6875 53.90625 
Q 71.6875 57.90625 70.3125 60.125 
Q 68.953125 62.359375 66.671875 63.328125 
Q 64.40625 64.3125 61.640625 64.546875 
Q 58.890625 64.796875 54.390625 64.796875 
L 43.015625 64.796875 
Q 40.28125 64.796875 39.40625 64.328125 
Q 38.53125 63.875 37.796875 61.375 
L 31.78125 37.203125 
L 39.59375 37.203125 
Q 44.671875 37.203125 47.265625 37.90625 
Q 49.859375 38.625 51.359375 40.859375 
Q 52.875 43.109375 54.109375 48 
Q 54.203125 48.34375 54.46875 48.609375 
Q 54.734375 48.875 55.078125 48.875 
L 56 48.875 
Q 56.984375 48.875 56.984375 47.609375 
L 50.78125 22.90625 
Q 50.59375 22.015625 49.8125 22.015625 
L 48.875 22.015625 
Q 47.90625 22.015625 47.90625 23.296875 
Q 48.875 27.296875 48.875 29.203125 
Q 48.875 32.125 46.234375 32.90625 
Q 43.609375 33.6875 39.203125 33.6875 
L 30.90625 33.6875 
L 24.125 6.5 
Q 23.6875 5.28125 23.6875 4.296875 
Q 23.6875 3.515625 27.09375 3.515625 
L 39.203125 3.515625 
Q 46.4375 3.515625 50.921875 4.640625 
Q 55.421875 5.765625 58.375 8.21875 
Q 61.328125 10.6875 63.46875 14.5 
Q 65.625 18.3125 68.703125 25.59375 
Q 68.890625 26.21875 69.578125 26.21875 
L 70.515625 26.21875 
Q 70.90625 26.21875 71.1875 25.875 
Q 71.484375 25.53125 71.484375 25.09375 
Q 71.484375 24.90625 71.390625 24.703125 
L 61.078125 0.59375 
Q 60.890625 0 60.296875 0 
z
" id="Cmmi10-45"/>
      <path d="M 4.890625 0 
Q 3.90625 0 3.90625 1.3125 
Q 3.953125 1.5625 4.09375 2.171875 
Q 4.25 2.78125 4.515625 3.140625 
Q 4.78125 3.515625 5.171875 3.515625 
Q 11.28125 3.515625 13.71875 4.203125 
Q 14.984375 4.640625 15.578125 6.890625 
L 29.296875 61.8125 
Q 29.5 62.796875 29.5 63.1875 
Q 29.5 64.265625 28.328125 64.40625 
Q 26.421875 64.796875 21.09375 64.796875 
Q 20.125 64.796875 20.125 66.109375 
Q 20.171875 66.359375 20.3125 66.96875 
Q 20.453125 67.578125 20.71875 67.9375 
Q 21 68.3125 21.390625 68.3125 
L 55.90625 68.3125 
Q 60.640625 68.3125 65.078125 66.625 
Q 69.53125 64.9375 72.359375 61.46875 
Q 75.203125 58.015625 75.203125 53.078125 
Q 75.203125 46.734375 70.734375 41.75 
Q 66.265625 36.765625 59.59375 33.984375 
Q 52.9375 31.203125 46.6875 31.203125 
L 30.421875 31.203125 
L 24.3125 6.5 
Q 24.125 5.515625 24.125 5.078125 
Q 24.125 4.6875 24.234375 4.421875 
Q 24.359375 4.15625 24.578125 4.078125 
Q 24.8125 4 25.296875 3.90625 
Q 27.203125 3.515625 32.515625 3.515625 
Q 33.5 3.515625 33.5 2.203125 
Q 33.15625 0.78125 32.953125 0.390625 
Q 32.765625 0 31.78125 0 
z
M 30.90625 34.1875 
L 44.921875 34.1875 
Q 54.640625 34.1875 59.71875 39.40625 
Q 62.3125 42 63.9375 46.875 
Q 65.578125 51.765625 65.578125 55.71875 
Q 65.578125 60.640625 61.8125 62.71875 
Q 58.0625 64.796875 52.484375 64.796875 
L 42.921875 64.796875 
Q 40.1875 64.796875 39.296875 64.328125 
Q 38.421875 63.875 37.703125 61.375 
z
" id="Cmmi10-50"/>
      <path d="M 4.390625 8.109375 
Q 4.390625 8.40625 4.46875 8.984375 
Q 4.546875 9.578125 4.609375 10.125 
Q 4.6875 10.6875 4.6875 10.984375 
L 17.09375 60.5 
Q 17.484375 62.203125 17.578125 63.1875 
Q 17.578125 64.796875 11.078125 64.796875 
Q 10.109375 64.796875 10.109375 66.109375 
Q 10.15625 66.359375 10.328125 66.984375 
Q 10.5 67.625 10.765625 67.96875 
Q 11.03125 68.3125 11.53125 68.3125 
L 25 69.390625 
Q 26.21875 69.390625 26.21875 68.109375 
L 11.8125 10.59375 
Q 11.078125 8.984375 11.078125 5.8125 
Q 11.078125 1.515625 14.015625 1.515625 
Q 17.09375 1.515625 18.625 5.34375 
Q 20.171875 9.1875 21.390625 14.703125 
Q 21.578125 15.28125 22.21875 15.28125 
L 23.390625 15.28125 
Q 23.78125 15.28125 24.046875 14.96875 
Q 24.3125 14.65625 24.3125 14.3125 
Q 23.140625 9.46875 22.1875 6.65625 
Q 21.234375 3.859375 19.140625 1.359375 
Q 17.046875 -1.125 13.8125 -1.125 
Q 9.8125 -1.125 7.09375 1.453125 
Q 4.390625 4.046875 4.390625 8.109375 
" id="Cmmi10-6c"/>
      <path d="M 7.8125 7.171875 
Q 7.8125 9.03125 8.59375 11.078125 
L 16.703125 32.625 
Q 18.015625 36.28125 18.015625 38.625 
Q 18.015625 41.609375 15.828125 41.609375 
Q 11.859375 41.609375 9.296875 37.53125 
Q 6.734375 33.453125 5.515625 28.421875 
Q 5.328125 27.78125 4.6875 27.78125 
L 3.515625 27.78125 
Q 2.6875 27.78125 2.6875 28.71875 
L 2.6875 29 
Q 4.296875 34.96875 7.609375 39.578125 
Q 10.9375 44.1875 16.015625 44.1875 
Q 19.578125 44.1875 22.046875 41.84375 
Q 24.515625 39.5 24.515625 35.890625 
Q 24.515625 34.03125 23.6875 31.984375 
L 15.578125 10.5 
Q 14.203125 7.171875 14.203125 4.5 
Q 14.203125 1.515625 16.5 1.515625 
Q 20.40625 1.515625 23.015625 5.6875 
Q 25.640625 9.859375 26.703125 14.703125 
Q 26.90625 15.28125 27.484375 15.28125 
L 28.71875 15.28125 
Q 29.109375 15.28125 29.34375 15.015625 
Q 29.59375 14.75 29.59375 14.40625 
Q 29.59375 14.3125 29.5 14.109375 
Q 28.125 8.453125 24.734375 3.65625 
Q 21.34375 -1.125 16.3125 -1.125 
Q 12.796875 -1.125 10.296875 1.296875 
Q 7.8125 3.71875 7.8125 7.171875 
M 19.09375 60.59375 
Q 19.09375 62.703125 20.84375 64.40625 
Q 22.609375 66.109375 24.703125 66.109375 
Q 26.421875 66.109375 27.515625 65.0625 
Q 28.609375 64.015625 28.609375 62.40625 
Q 28.609375 60.15625 26.828125 58.46875 
Q 25.046875 56.78125 22.90625 56.78125 
Q 21.296875 56.78125 20.1875 57.875 
Q 19.09375 58.984375 19.09375 60.59375 
" id="Cmmi10-69"/>
      <path d="M 10.203125 23 
Q 9.375 23 8.828125 23.625 
Q 8.296875 24.265625 8.296875 25 
Q 8.296875 25.734375 8.828125 26.359375 
Q 9.375 27 10.203125 27 
L 67.578125 27 
Q 68.359375 27 68.875 26.359375 
Q 69.390625 25.734375 69.390625 25 
Q 69.390625 24.265625 68.875 23.625 
Q 68.359375 23 67.578125 23 
z
" id="Cmsy10-a1"/>
      <path d="M 7.71875 1.703125 
Q 7.71875 2.296875 7.8125 2.59375 
L 15.28125 32.421875 
Q 16.015625 35.203125 16.015625 37.3125 
Q 16.015625 41.609375 13.09375 41.609375 
Q 9.96875 41.609375 8.453125 37.859375 
Q 6.9375 34.125 5.515625 28.421875 
Q 5.515625 28.125 5.21875 27.953125 
Q 4.9375 27.78125 4.6875 27.78125 
L 3.515625 27.78125 
Q 3.171875 27.78125 2.921875 28.140625 
Q 2.6875 28.515625 2.6875 28.8125 
Q 3.765625 33.15625 4.765625 36.171875 
Q 5.765625 39.203125 7.890625 41.6875 
Q 10.015625 44.1875 13.1875 44.1875 
Q 16.65625 44.1875 19.265625 42.1875 
Q 21.875 40.1875 22.515625 36.921875 
Q 25.046875 40.234375 28.296875 42.203125 
Q 31.546875 44.1875 35.40625 44.1875 
Q 38.578125 44.1875 40.984375 42.328125 
Q 43.40625 40.484375 43.40625 37.3125 
Q 43.40625 34.765625 41.8125 32.875 
Q 40.234375 31 37.59375 31 
Q 35.984375 31 34.890625 32 
Q 33.796875 33.015625 33.796875 34.625 
Q 33.796875 36.8125 35.40625 38.546875 
Q 37.015625 40.28125 39.109375 40.28125 
Q 37.5 41.609375 35.203125 41.609375 
Q 30.90625 41.609375 27.734375 38.546875 
Q 24.5625 35.5 22.015625 30.8125 
L 14.890625 2.203125 
Q 14.546875 0.828125 13.34375 -0.140625 
Q 12.15625 -1.125 10.6875 -1.125 
Q 9.46875 -1.125 8.59375 -0.34375 
Q 7.71875 0.4375 7.71875 1.703125 
" id="Cmmi10-72"/>
      <path d="M 7.71875 1.703125 
Q 7.71875 2.296875 7.8125 2.59375 
L 15.28125 32.421875 
Q 16.015625 35.203125 16.015625 37.3125 
Q 16.015625 41.609375 13.09375 41.609375 
Q 9.96875 41.609375 8.453125 37.859375 
Q 6.9375 34.125 5.515625 28.421875 
Q 5.515625 28.125 5.21875 27.953125 
Q 4.9375 27.78125 4.6875 27.78125 
L 3.515625 27.78125 
Q 3.171875 27.78125 2.921875 28.140625 
Q 2.6875 28.515625 2.6875 28.8125 
Q 3.765625 33.15625 4.765625 36.171875 
Q 5.765625 39.203125 7.890625 41.6875 
Q 10.015625 44.1875 13.1875 44.1875 
Q 16.9375 44.1875 19.8125 41.8125 
Q 22.703125 39.453125 22.703125 35.796875 
Q 25.6875 39.703125 29.6875 41.9375 
Q 33.6875 44.1875 38.1875 44.1875 
Q 41.75 44.1875 44.328125 42.96875 
Q 46.921875 41.75 48.359375 39.28125 
Q 49.8125 36.8125 49.8125 33.40625 
Q 49.8125 29.296875 47.96875 23.484375 
Q 46.140625 17.671875 43.40625 10.5 
Q 42 7.234375 42 4.5 
Q 42 1.515625 44.28125 1.515625 
Q 48.1875 1.515625 50.796875 5.703125 
Q 53.421875 9.90625 54.5 14.703125 
Q 54.6875 15.28125 55.328125 15.28125 
L 56.5 15.28125 
Q 56.890625 15.28125 57.15625 15.03125 
Q 57.421875 14.796875 57.421875 14.40625 
Q 57.421875 14.3125 57.328125 14.109375 
Q 55.953125 8.453125 52.5625 3.65625 
Q 49.171875 -1.125 44.09375 -1.125 
Q 40.578125 -1.125 38.078125 1.296875 
Q 35.59375 3.71875 35.59375 7.171875 
Q 35.59375 9.03125 36.375 11.078125 
Q 37.640625 14.359375 39.28125 18.890625 
Q 40.921875 23.4375 41.96875 27.578125 
Q 43.015625 31.734375 43.015625 34.90625 
Q 43.015625 37.703125 41.859375 39.65625 
Q 40.71875 41.609375 37.984375 41.609375 
Q 34.328125 41.609375 31.25 39.984375 
Q 28.171875 38.375 25.875 35.71875 
Q 23.578125 33.0625 21.6875 29.390625 
L 14.890625 2.203125 
Q 14.546875 0.828125 13.34375 -0.140625 
Q 12.15625 -1.125 10.6875 -1.125 
Q 9.46875 -1.125 8.59375 -0.34375 
Q 7.71875 0.4375 7.71875 1.703125 
" id="Cmmi10-6e"/>
      <path d="M 6.203125 8.109375 
Q 6.203125 9.578125 6.5 10.890625 
L 13.71875 39.59375 
L 3.21875 39.59375 
Q 2.203125 39.59375 2.203125 40.921875 
Q 2.59375 43.109375 3.515625 43.109375 
L 14.59375 43.109375 
L 18.609375 59.421875 
Q 19 60.75 20.171875 61.671875 
Q 21.34375 62.59375 22.796875 62.59375 
Q 24.078125 62.59375 24.921875 61.828125 
Q 25.78125 61.078125 25.78125 59.8125 
Q 25.78125 59.515625 25.75 59.34375 
Q 25.734375 59.1875 25.6875 58.984375 
L 21.6875 43.109375 
L 31.984375 43.109375 
Q 33.015625 43.109375 33.015625 41.796875 
Q 32.953125 41.546875 32.8125 40.953125 
Q 32.671875 40.375 32.421875 39.984375 
Q 32.171875 39.59375 31.6875 39.59375 
L 20.796875 39.59375 
L 13.625 10.6875 
Q 12.890625 7.859375 12.890625 5.8125 
Q 12.890625 1.515625 15.828125 1.515625 
Q 20.21875 1.515625 23.609375 5.640625 
Q 27 9.765625 28.8125 14.703125 
Q 29.203125 15.28125 29.59375 15.28125 
L 30.8125 15.28125 
Q 31.203125 15.28125 31.4375 15.015625 
Q 31.6875 14.75 31.6875 14.40625 
Q 31.6875 14.203125 31.59375 14.109375 
Q 29.390625 8.0625 25.1875 3.46875 
Q 21 -1.125 15.578125 -1.125 
Q 11.625 -1.125 8.90625 1.453125 
Q 6.203125 4.046875 6.203125 8.109375 
" id="Cmmi10-74"/>
      <path d="M 17.390625 -1.125 
Q 11.078125 -1.125 7.4375 3.640625 
Q 3.8125 8.40625 3.8125 14.890625 
Q 3.8125 21.296875 7.125 28.171875 
Q 10.453125 35.0625 16.09375 39.625 
Q 21.734375 44.1875 28.21875 44.1875 
Q 31.203125 44.1875 33.546875 42.578125 
Q 35.890625 40.96875 37.203125 38.1875 
Q 38.328125 42.1875 41.609375 42.1875 
Q 42.875 42.1875 43.71875 41.421875 
Q 44.578125 40.671875 44.578125 39.40625 
Q 44.578125 39.109375 44.546875 38.953125 
Q 44.53125 38.8125 44.484375 38.625 
L 37.5 10.6875 
Q 36.8125 7.71875 36.8125 5.8125 
Q 36.8125 1.515625 39.703125 1.515625 
Q 42.828125 1.515625 44.453125 5.484375 
Q 46.09375 9.46875 47.21875 14.703125 
Q 47.40625 15.28125 48 15.28125 
L 49.21875 15.28125 
Q 49.609375 15.28125 49.84375 14.9375 
Q 50.09375 14.59375 50.09375 14.3125 
Q 48.34375 7.328125 46.265625 3.09375 
Q 44.1875 -1.125 39.5 -1.125 
Q 36.140625 -1.125 33.546875 0.84375 
Q 30.953125 2.828125 30.328125 6.109375 
Q 23.875 -1.125 17.390625 -1.125 
M 17.484375 1.515625 
Q 21.09375 1.515625 24.484375 4.21875 
Q 27.875 6.9375 30.328125 10.59375 
Q 30.421875 10.6875 30.421875 10.890625 
L 35.796875 32.625 
L 35.890625 32.90625 
Q 35.296875 36.46875 33.3125 39.03125 
Q 31.34375 41.609375 27.984375 41.609375 
Q 24.609375 41.609375 21.703125 38.84375 
Q 18.796875 36.078125 16.796875 32.328125 
Q 14.84375 28.328125 13.0625 21.34375 
Q 11.28125 14.359375 11.28125 10.5 
Q 11.28125 7.03125 12.765625 4.265625 
Q 14.265625 1.515625 17.484375 1.515625 
" id="Cmmi10-61"/>
      <path d="M 20.125 -1.125 
Q 15.328125 -1.125 11.734375 1.359375 
Q 8.15625 3.859375 6.265625 8.078125 
Q 4.390625 12.3125 4.390625 17 
Q 4.390625 24.125 7.984375 30.390625 
Q 11.578125 36.671875 17.71875 40.421875 
Q 23.875 44.1875 30.90625 44.1875 
Q 35.203125 44.1875 38.40625 41.96875 
Q 41.609375 39.75 41.609375 35.59375 
Q 41.609375 29.828125 37.015625 27.015625 
Q 32.421875 24.21875 26.65625 23.5625 
Q 20.90625 22.90625 13.921875 22.90625 
L 13.625 22.90625 
Q 12.015625 16.9375 12.015625 12.703125 
Q 12.015625 8.25 14.0625 4.875 
Q 16.109375 1.515625 20.3125 1.515625 
Q 26.265625 1.515625 31.75 4.25 
Q 37.25 6.984375 40.71875 11.8125 
Q 41.015625 12.109375 41.5 12.109375 
Q 42 12.109375 42.5 11.546875 
Q 43.015625 10.984375 43.015625 10.5 
Q 43.015625 10.109375 42.828125 9.90625 
Q 39.15625 4.78125 32.953125 1.828125 
Q 26.765625 -1.125 20.125 -1.125 
M 14.203125 25.484375 
Q 20.015625 25.484375 24.953125 26.015625 
Q 29.890625 26.5625 33.890625 28.734375 
Q 37.890625 30.90625 37.890625 35.5 
Q 37.890625 37.359375 36.859375 38.75 
Q 35.84375 40.140625 34.203125 40.875 
Q 32.5625 41.609375 30.8125 41.609375 
Q 26.5625 41.609375 23.171875 39.3125 
Q 19.78125 37.015625 17.578125 33.328125 
Q 15.375 29.640625 14.203125 25.484375 
" id="Cmmi10-65"/>
      <path d="M 6.109375 -2.203125 
Q 5.8125 -2.203125 5.5625 -1.859375 
Q 5.328125 -1.515625 5.328125 -1.21875 
L 11.078125 22.125 
Q 11.28125 22.703125 11.921875 22.703125 
L 13.09375 22.703125 
Q 13.484375 22.703125 13.703125 22.40625 
Q 13.921875 22.125 13.921875 21.6875 
Q 13.09375 18.265625 13.09375 15.578125 
Q 13.09375 8.34375 18.0625 4.828125 
Q 23.046875 1.3125 30.609375 1.3125 
Q 33.890625 1.3125 37.0625 2.921875 
Q 40.234375 4.546875 42.59375 7.125 
Q 44.96875 9.71875 46.375 12.90625 
Q 47.796875 16.109375 47.796875 19.390625 
Q 47.796875 22.90625 45.9375 25.65625 
Q 44.09375 28.421875 40.828125 29.203125 
L 28.609375 32.421875 
Q 23.6875 33.734375 20.75 37.71875 
Q 17.828125 41.703125 17.828125 46.6875 
Q 17.828125 52.6875 21.390625 58.25 
Q 24.953125 63.8125 30.6875 67.15625 
Q 36.421875 70.515625 42.390625 70.515625 
Q 46.96875 70.515625 50.796875 68.828125 
Q 54.640625 67.140625 56.6875 63.484375 
L 62.40625 70.21875 
Q 62.984375 70.515625 63.09375 70.515625 
L 63.71875 70.515625 
Q 64.109375 70.515625 64.34375 70.171875 
Q 64.59375 69.828125 64.59375 69.484375 
L 58.796875 46.296875 
Q 58.640625 45.609375 58.015625 45.609375 
L 56.78125 45.609375 
Q 55.90625 45.609375 55.90625 46.6875 
Q 56.390625 49.859375 56.390625 52.203125 
Q 56.390625 56.84375 54.796875 60.28125 
Q 53.21875 63.71875 50.015625 65.5 
Q 46.828125 67.28125 42.09375 67.28125 
Q 38.09375 67.28125 34.125 64.984375 
Q 30.171875 62.703125 27.734375 58.890625 
Q 25.296875 55.078125 25.296875 50.984375 
Q 25.296875 47.75 27.171875 45.265625 
Q 29.046875 42.78125 32.171875 41.890625 
L 44.390625 38.71875 
Q 47.703125 37.84375 50.171875 35.625 
Q 52.640625 33.40625 53.90625 30.34375 
Q 55.171875 27.296875 55.171875 23.6875 
Q 55.171875 18.953125 53.171875 14.328125 
Q 51.171875 9.71875 47.578125 5.90625 
Q 44 2.09375 39.453125 -0.046875 
Q 34.90625 -2.203125 30.171875 -2.203125 
Q 18.265625 -2.203125 13.09375 4.78125 
L 7.515625 -1.90625 
Q 6.9375 -2.203125 6.78125 -2.203125 
z
" id="Cmmi10-53"/>
      <path d="M 4.890625 -1.125 
Q 4.109375 -1.125 4.109375 -0.203125 
Q 4.109375 0.296875 4.296875 0.484375 
Q 6.984375 5.125 10.765625 9.34375 
Q 14.546875 13.578125 19.359375 17.890625 
Q 24.171875 22.21875 29.03125 26.5625 
Q 33.890625 30.90625 36.921875 34.28125 
L 36.53125 34.28125 
Q 34.328125 34.28125 30.078125 35.6875 
Q 25.828125 37.109375 23.390625 37.109375 
Q 20.75 37.109375 18.25 35.953125 
Q 15.765625 34.8125 15.09375 32.421875 
Q 14.9375 31.6875 14.3125 31.6875 
L 13.09375 31.6875 
Q 12.3125 31.6875 12.3125 32.71875 
L 12.3125 33.015625 
Q 13.09375 35.9375 14.875 38.46875 
Q 16.65625 41.015625 19.265625 42.59375 
Q 21.875 44.1875 24.703125 44.1875 
Q 26.703125 44.1875 28.015625 43.28125 
Q 29.34375 42.390625 31.09375 40.484375 
Q 32.859375 38.578125 33.953125 37.75 
Q 35.0625 36.921875 36.71875 36.921875 
Q 38.921875 36.921875 40.65625 38.921875 
Q 42.390625 40.921875 44.09375 43.890625 
Q 44.390625 44.1875 44.828125 44.1875 
L 46 44.1875 
Q 46.34375 44.1875 46.5625 43.9375 
Q 46.78125 43.703125 46.78125 43.3125 
Q 46.78125 42.96875 46.578125 42.671875 
Q 43.890625 38.03125 40.296875 34 
Q 36.71875 29.984375 30.921875 24.78125 
Q 25.140625 19.578125 21.15625 15.984375 
Q 17.1875 12.40625 13.71875 8.59375 
Q 14.5 8.796875 15.828125 8.796875 
Q 18.265625 8.796875 22.484375 7.390625 
Q 26.703125 6 29 6 
Q 31.5 6 34.03125 7.078125 
Q 36.578125 8.15625 38.421875 10.109375 
Q 40.28125 12.0625 40.921875 14.59375 
Q 41.15625 15.28125 41.703125 15.28125 
L 42.921875 15.28125 
Q 43.3125 15.28125 43.546875 14.96875 
Q 43.796875 14.65625 43.796875 14.3125 
Q 43.796875 14.203125 43.703125 14.015625 
Q 42.78125 10.203125 40.484375 6.765625 
Q 38.1875 3.328125 34.84375 1.09375 
Q 31.5 -1.125 27.6875 -1.125 
Q 25.78125 -1.125 24.453125 -0.234375 
Q 23.140625 0.640625 21.359375 2.5625 
Q 19.578125 4.5 18.453125 5.34375 
Q 17.328125 6.203125 15.71875 6.203125 
Q 10.75 6.203125 6.78125 -0.78125 
Q 6.453125 -1.125 6.109375 -1.125 
z
" id="Cmmi10-7a"/>
      <path d="M 4.890625 0 
Q 3.90625 0 3.90625 1.3125 
Q 3.953125 1.5625 4.09375 2.171875 
Q 4.25 2.78125 4.515625 3.140625 
Q 4.78125 3.515625 5.171875 3.515625 
Q 11.28125 3.515625 13.71875 4.203125 
Q 14.984375 4.640625 15.578125 6.890625 
L 29.296875 61.8125 
Q 29.5 62.796875 29.5 63.1875 
Q 29.5 64.265625 28.328125 64.40625 
Q 26.421875 64.796875 21.09375 64.796875 
Q 20.125 64.796875 20.125 66.109375 
Q 20.171875 66.359375 20.3125 66.96875 
Q 20.453125 67.578125 20.71875 67.9375 
Q 21 68.3125 21.390625 68.3125 
L 51.703125 68.3125 
Q 55.328125 68.3125 59.234375 67.484375 
Q 63.140625 66.65625 66.40625 64.875 
Q 69.671875 63.09375 71.765625 60.125 
Q 73.875 57.171875 73.875 53.21875 
Q 73.875 48.1875 70.546875 44.234375 
Q 67.234375 40.28125 62.15625 37.625 
Q 57.078125 34.96875 52.296875 33.890625 
Q 56.203125 32.46875 58.6875 29.359375 
Q 61.1875 26.265625 61.1875 22.21875 
Q 61.1875 21.6875 61.15625 21.40625 
Q 61.140625 21.140625 61.078125 20.796875 
L 60.296875 11.921875 
Q 60.203125 9.96875 60.109375 8.59375 
Q 60.015625 7.234375 60.015625 6.390625 
Q 60.015625 3.65625 60.8125 2.015625 
Q 61.625 0.390625 64.015625 0.390625 
Q 67.140625 0.390625 69.5 3.296875 
Q 71.875 6.203125 72.609375 9.625 
Q 73.046875 10.5 73.578125 10.5 
L 74.515625 10.5 
Q 75.484375 10.5 75.484375 9.1875 
Q 74.75 6.296875 73.15625 3.703125 
Q 71.578125 1.125 69.15625 -0.53125 
Q 66.75 -2.203125 63.921875 -2.203125 
Q 58.0625 -2.203125 53.9375 0.40625 
Q 49.8125 3.03125 49.8125 8.59375 
Q 49.8125 10.6875 50.203125 12.3125 
L 52.390625 21.1875 
Q 52.78125 22.40625 52.78125 24.03125 
Q 52.78125 28.171875 49.96875 30.53125 
Q 47.171875 32.90625 42.921875 32.90625 
L 30.609375 32.90625 
L 24.03125 6.5 
Q 23.78125 5.671875 23.78125 5.078125 
Q 23.78125 4.046875 25 3.90625 
Q 26.90625 3.515625 32.171875 3.515625 
Q 33.203125 3.515625 33.203125 2.203125 
Q 32.859375 0.78125 32.65625 0.390625 
Q 32.46875 0 31.5 0 
z
M 31.203125 35.5 
L 42.28125 35.5 
Q 53.171875 35.5 58.6875 41.015625 
Q 61.234375 43.5625 62.71875 47.484375 
Q 64.203125 51.421875 64.203125 55.328125 
Q 64.203125 59.03125 62.03125 61.125 
Q 59.859375 63.234375 56.65625 64.015625 
Q 53.46875 64.796875 49.609375 64.796875 
L 42.921875 64.796875 
Q 40.1875 64.796875 39.296875 64.328125 
Q 38.421875 63.875 37.703125 61.375 
z
" id="Cmmi10-52"/>
      <path d="M 17.390625 -1.125 
Q 11.078125 -1.125 7.4375 3.640625 
Q 3.8125 8.40625 3.8125 14.890625 
Q 3.8125 21.296875 7.125 28.171875 
Q 10.453125 35.0625 16.09375 39.625 
Q 21.734375 44.1875 28.21875 44.1875 
Q 31.15625 44.1875 33.515625 42.546875 
Q 35.890625 40.921875 37.203125 38.1875 
L 42.828125 60.5 
Q 43.21875 62.203125 43.3125 63.1875 
Q 43.3125 64.796875 36.8125 64.796875 
Q 35.796875 64.796875 35.796875 66.109375 
Q 35.84375 66.359375 36.015625 66.984375 
Q 36.1875 67.625 36.453125 67.96875 
Q 36.71875 68.3125 37.203125 68.3125 
L 50.6875 69.390625 
Q 51.90625 69.390625 51.90625 68.109375 
L 37.5 10.59375 
Q 36.8125 8.9375 36.8125 5.8125 
Q 36.8125 1.515625 39.703125 1.515625 
Q 42.828125 1.515625 44.453125 5.484375 
Q 46.09375 9.46875 47.21875 14.703125 
Q 47.40625 15.28125 48 15.28125 
L 49.21875 15.28125 
Q 49.609375 15.28125 49.84375 14.9375 
Q 50.09375 14.59375 50.09375 14.3125 
Q 48.34375 7.328125 46.265625 3.09375 
Q 44.1875 -1.125 39.5 -1.125 
Q 36.140625 -1.125 33.546875 0.84375 
Q 30.953125 2.828125 30.328125 6.109375 
Q 23.875 -1.125 17.390625 -1.125 
M 17.484375 1.515625 
Q 21.09375 1.515625 24.484375 4.21875 
Q 27.875 6.9375 30.328125 10.59375 
Q 30.421875 10.6875 30.421875 10.984375 
L 35.890625 33.015625 
Q 35.296875 36.53125 33.296875 39.0625 
Q 31.296875 41.609375 27.984375 41.609375 
Q 24.609375 41.609375 21.703125 38.84375 
Q 18.796875 36.078125 16.796875 32.328125 
Q 14.84375 28.328125 13.0625 21.34375 
Q 11.28125 14.359375 11.28125 10.5 
Q 11.28125 7.03125 12.765625 4.265625 
Q 14.265625 1.515625 17.484375 1.515625 
" id="Cmmi10-64"/>
     </defs>
     <g transform="translate(182.24 402.270919118)scale(0.16 -0.16)">
      <use transform="translate(0.0 0.484375)" xlink:href="#Cmmi10-52"/>
      <use transform="translate(75.87890625 0.484375)" xlink:href="#Cmmi10-45"/>
      <use transform="translate(149.658203125 0.484375)" xlink:href="#Cmmi10-45"/>
      <use transform="translate(240.99609375 0.484375)" xlink:href="#Cmsy10-a1"/>
      <use transform="translate(336.240234375 0.484375)" xlink:href="#Cmmi10-53"/>
      <use transform="translate(397.51953125 0.484375)" xlink:href="#Cmmi10-74"/>
      <use transform="translate(433.603515625 0.484375)" xlink:href="#Cmmi10-61"/>
      <use transform="translate(486.38671875 0.484375)" xlink:href="#Cmmi10-6e"/>
      <use transform="translate(546.396484375 0.484375)" xlink:href="#Cmmi10-64"/>
      <use transform="translate(598.3984375 0.484375)" xlink:href="#Cmmi10-61"/>
      <use transform="translate(651.181640625 0.484375)" xlink:href="#Cmmi10-72"/>
      <use transform="translate(696.298828125 0.484375)" xlink:href="#Cmmi10-64"/>
      <use transform="translate(748.30078125 0.484375)" xlink:href="#Cmmi10-6c"/>
      <use transform="translate(778.0859375 0.484375)" xlink:href="#Cmmi10-69"/>
      <use transform="translate(812.509765625 0.484375)" xlink:href="#Cmmi10-7a"/>
      <use transform="translate(858.994140625 0.484375)" xlink:href="#Cmmi10-65"/>
      <use transform="translate(905.478515625 0.484375)" xlink:href="#Cmmi10-64"/>
      <use transform="translate(975.0390625 0.484375)" xlink:href="#Cmsy10-a1"/>
      <use transform="translate(1070.283203125 0.484375)" xlink:href="#Cmmi10-50"/>
      <use transform="translate(1134.4921875 0.484375)" xlink:href="#Cmmi10-61"/>
      <use transform="translate(1187.275390625 0.484375)" xlink:href="#Cmmi10-74"/>
      <use transform="translate(1223.359375 0.484375)" xlink:href="#Cmmi10-74"/>
      <use transform="translate(1259.443359375 0.484375)" xlink:href="#Cmmi10-65"/>
      <use transform="translate(1305.927734375 0.484375)" xlink:href="#Cmmi10-72"/>
      <use transform="translate(1351.044921875 0.484375)" xlink:href="#Cmmi10-6e"/>
     </g>
    </g>
   </g>
   <g id="matplotlib.axis_2">
    <g id="ytick_1">
     <g id="line2d_22">
      <defs>
       <path d="M 0 0 
L 4 0 
" id="mf6d4dce174" style="stroke:#000000;stroke-width:0.5;"/>
      </defs>
      <g>
       <use style="stroke:#000000;stroke-width:0.5;" x="72.0" xlink:href="#mf6d4dce174" y="371.435294118"/>
      </g>
     </g>
     <g id="text_17">
      <!-- 1 -->
      <defs>
       <path d="M 12.40625 8.296875 
L 28.515625 8.296875 
L 28.515625 63.921875 
L 10.984375 60.40625 
L 10.984375 69.390625 
L 28.421875 72.90625 
L 38.28125 72.90625 
L 38.28125 8.296875 
L 54.390625 8.296875 
L 54.390625 0 
L 12.40625 0 
z
" id="BitstreamVeraSans-Roman-31"/>
      </defs>
      <g transform="translate(61.6375 374.194669118)scale(0.1 -0.1)">
       <use xlink:href="#BitstreamVeraSans-Roman-31"/>
      </g>
     </g>
    </g>
    <g id="ytick_2">
     <g id="line2d_23">
      <g>
       <use style="stroke:#000000;stroke-width:0.5;" x="72.0" xlink:href="#mf6d4dce174" y="305.788235294"/>
      </g>
     </g>
     <g id="text_18">
      <!-- 10 -->
      <defs>
       <path d="M 31.78125 66.40625 
Q 24.171875 66.40625 20.328125 58.90625 
Q 16.5 51.421875 16.5 36.375 
Q 16.5 21.390625 20.328125 13.890625 
Q 24.171875 6.390625 31.78125 6.390625 
Q 39.453125 6.390625 43.28125 13.890625 
Q 47.125 21.390625 47.125 36.375 
Q 47.125 51.421875 43.28125 58.90625 
Q 39.453125 66.40625 31.78125 66.40625 
M 31.78125 74.21875 
Q 44.046875 74.21875 50.515625 64.515625 
Q 56.984375 54.828125 56.984375 36.375 
Q 56.984375 17.96875 50.515625 8.265625 
Q 44.046875 -1.421875 31.78125 -1.421875 
Q 19.53125 -1.421875 13.0625 8.265625 
Q 6.59375 17.96875 6.59375 36.375 
Q 6.59375 54.828125 13.0625 64.515625 
Q 19.53125 74.21875 31.78125 74.21875 
" id="BitstreamVeraSans-Roman-30"/>
      </defs>
      <g transform="translate(55.275 308.547610294)scale(0.1 -0.1)">
       <use xlink:href="#BitstreamVeraSans-Roman-31"/>
       <use x="63.623046875" xlink:href="#BitstreamVeraSans-Roman-30"/>
      </g>
     </g>
    </g>
    <g id="ytick_3">
     <g id="line2d_24">
      <g>
       <use style="stroke:#000000;stroke-width:0.5;" x="72.0" xlink:href="#mf6d4dce174" y="240.141176471"/>
      </g>
     </g>
     <g id="text_19">
      <!-- 100 -->
      <g transform="translate(48.9125 242.900551471)scale(0.1 -0.1)">
       <use xlink:href="#BitstreamVeraSans-Roman-31"/>
       <use x="63.623046875" xlink:href="#BitstreamVeraSans-Roman-30"/>
       <use x="127.24609375" xlink:href="#BitstreamVeraSans-Roman-30"/>
      </g>
     </g>
    </g>
    <g id="ytick_4">
     <g id="line2d_25">
      <g>
       <use style="stroke:#000000;stroke-width:0.5;" x="72.0" xlink:href="#mf6d4dce174" y="174.494117647"/>
      </g>
     </g>
     <g id="text_20">
      <!-- 1000 -->
      <g transform="translate(42.55 177.253492647)scale(0.1 -0.1)">
       <use xlink:href="#BitstreamVeraSans-Roman-31"/>
       <use x="63.623046875" xlink:href="#BitstreamVeraSans-Roman-30"/>
       <use x="127.24609375" xlink:href="#BitstreamVeraSans-Roman-30"/>
       <use x="190.869140625" xlink:href="#BitstreamVeraSans-Roman-30"/>
      </g>
     </g>
    </g>
   </g>
   <g id="legend_1">
    <g id="line2d_26">
     <path d="M 446.86125 58.918125 
L 463.66125 58.918125 
" style="fill:none;opacity:0.6;stroke:#0000ff;stroke-linecap:square;stroke-width:0.4;"/>
    </g>
    <g id="line2d_27"/>
    <g id="text_21">
     <!-- L121 -->
     <defs>
      <path d="M 19.1875 8.296875 
L 53.609375 8.296875 
L 53.609375 0 
L 7.328125 0 
L 7.328125 8.296875 
Q 12.9375 14.109375 22.625 23.890625 
Q 32.328125 33.6875 34.8125 36.53125 
Q 39.546875 41.84375 41.421875 45.53125 
Q 43.3125 49.21875 43.3125 52.78125 
Q 43.3125 58.59375 39.234375 62.25 
Q 35.15625 65.921875 28.609375 65.921875 
Q 23.96875 65.921875 18.8125 64.3125 
Q 13.671875 62.703125 7.8125 59.421875 
L 7.8125 69.390625 
Q 13.765625 71.78125 18.9375 73 
Q 24.125 74.21875 28.421875 74.21875 
Q 39.75 74.21875 46.484375 68.546875 
Q 53.21875 62.890625 53.21875 53.421875 
Q 53.21875 48.921875 51.53125 44.890625 
Q 49.859375 40.875 45.40625 35.40625 
Q 44.1875 33.984375 37.640625 27.21875 
Q 31.109375 20.453125 19.1875 8.296875 
" id="BitstreamVeraSans-Roman-32"/>
     </defs>
     <g transform="translate(476.86125 63.118125)scale(0.12 -0.12)">
      <use xlink:href="#BitstreamVeraSans-Roman-4c"/>
      <use x="55.712890625" xlink:href="#BitstreamVeraSans-Roman-31"/>
      <use x="119.3359375" xlink:href="#BitstreamVeraSans-Roman-32"/>
      <use x="182.958984375" xlink:href="#BitstreamVeraSans-Roman-31"/>
     </g>
    </g>
    <g id="line2d_28">
     <path d="M 446.86125 76.531875 
L 463.66125 76.531875 
" style="fill:none;opacity:0.6;stroke:#0000ff;stroke-linecap:square;stroke-width:0.4;"/>
    </g>
    <g id="line2d_29"/>
    <g id="text_22">
     <!-- L124 -->
     <defs>
      <path d="M 37.796875 64.3125 
L 12.890625 25.390625 
L 37.796875 25.390625 
z
M 35.203125 72.90625 
L 47.609375 72.90625 
L 47.609375 25.390625 
L 58.015625 25.390625 
L 58.015625 17.1875 
L 47.609375 17.1875 
L 47.609375 0 
L 37.796875 0 
L 37.796875 17.1875 
L 4.890625 17.1875 
L 4.890625 26.703125 
z
" id="BitstreamVeraSans-Roman-34"/>
     </defs>
     <g transform="translate(476.86125 80.731875)scale(0.12 -0.12)">
      <use xlink:href="#BitstreamVeraSans-Roman-4c"/>
      <use x="55.712890625" xlink:href="#BitstreamVeraSans-Roman-31"/>
      <use x="119.3359375" xlink:href="#BitstreamVeraSans-Roman-32"/>
      <use x="182.958984375" xlink:href="#BitstreamVeraSans-Roman-34"/>
     </g>
    </g>
    <g id="line2d_30">
     <path d="M 446.86125 94.145625 
L 463.66125 94.145625 
" style="fill:none;opacity:0.6;stroke:#ff0000;stroke-dasharray:6.000000,6.000000;stroke-dashoffset:0.0;stroke-width:0.4;"/>
    </g>
    <g id="line2d_31"/>
    <g id="text_23">
     <!-- L128 -->
     <defs>
      <path d="M 31.78125 34.625 
Q 24.75 34.625 20.71875 30.859375 
Q 16.703125 27.09375 16.703125 20.515625 
Q 16.703125 13.921875 20.71875 10.15625 
Q 24.75 6.390625 31.78125 6.390625 
Q 38.8125 6.390625 42.859375 10.171875 
Q 46.921875 13.96875 46.921875 20.515625 
Q 46.921875 27.09375 42.890625 30.859375 
Q 38.875 34.625 31.78125 34.625 
M 21.921875 38.8125 
Q 15.578125 40.375 12.03125 44.71875 
Q 8.5 49.078125 8.5 55.328125 
Q 8.5 64.0625 14.71875 69.140625 
Q 20.953125 74.21875 31.78125 74.21875 
Q 42.671875 74.21875 48.875 69.140625 
Q 55.078125 64.0625 55.078125 55.328125 
Q 55.078125 49.078125 51.53125 44.71875 
Q 48 40.375 41.703125 38.8125 
Q 48.828125 37.15625 52.796875 32.3125 
Q 56.78125 27.484375 56.78125 20.515625 
Q 56.78125 9.90625 50.3125 4.234375 
Q 43.84375 -1.421875 31.78125 -1.421875 
Q 19.734375 -1.421875 13.25 4.234375 
Q 6.78125 9.90625 6.78125 20.515625 
Q 6.78125 27.484375 10.78125 32.3125 
Q 14.796875 37.15625 21.921875 38.8125 
M 18.3125 54.390625 
Q 18.3125 48.734375 21.84375 45.5625 
Q 25.390625 42.390625 31.78125 42.390625 
Q 38.140625 42.390625 41.71875 45.5625 
Q 45.3125 48.734375 45.3125 54.390625 
Q 45.3125 60.0625 41.71875 63.234375 
Q 38.140625 66.40625 31.78125 66.40625 
Q 25.390625 66.40625 21.84375 63.234375 
Q 18.3125 60.0625 18.3125 54.390625 
" id="BitstreamVeraSans-Roman-38"/>
     </defs>
     <g transform="translate(476.86125 98.345625)scale(0.12 -0.12)">
      <use xlink:href="#BitstreamVeraSans-Roman-4c"/>
      <use x="55.712890625" xlink:href="#BitstreamVeraSans-Roman-31"/>
      <use x="119.3359375" xlink:href="#BitstreamVeraSans-Roman-32"/>
      <use x="182.958984375" xlink:href="#BitstreamVeraSans-Roman-38"/>
     </g>
    </g>
    <g id="line2d_32">
     <path d="M 446.86125 111.759375 
L 463.66125 111.759375 
" style="fill:none;opacity:0.6;stroke:#000000;stroke-dasharray:6.000000,6.000000;stroke-dashoffset:0.0;stroke-width:0.4;"/>
    </g>
    <g id="line2d_33"/>
    <g id="text_24">
     <!-- L181 -->
     <g transform="translate(476.86125 115.959375)scale(0.12 -0.12)">
      <use xlink:href="#BitstreamVeraSans-Roman-4c"/>
      <use x="55.712890625" xlink:href="#BitstreamVeraSans-Roman-31"/>
      <use x="119.3359375" xlink:href="#BitstreamVeraSans-Roman-38"/>
      <use x="182.958984375" xlink:href="#BitstreamVeraSans-Roman-31"/>
     </g>
    </g>
    <g id="line2d_34">
     <path d="M 446.86125 129.373125 
L 463.66125 129.373125 
" style="fill:none;opacity:0.6;stroke:#008000;stroke-dasharray:1.000000,3.000000;stroke-dashoffset:0.0;stroke-width:0.4;"/>
    </g>
    <g id="line2d_35"/>
    <g id="text_25">
     <!-- L205 -->
     <defs>
      <path d="M 10.796875 72.90625 
L 49.515625 72.90625 
L 49.515625 64.59375 
L 19.828125 64.59375 
L 19.828125 46.734375 
Q 21.96875 47.46875 24.109375 47.828125 
Q 26.265625 48.1875 28.421875 48.1875 
Q 40.625 48.1875 47.75 41.5 
Q 54.890625 34.8125 54.890625 23.390625 
Q 54.890625 11.625 47.5625 5.09375 
Q 40.234375 -1.421875 26.90625 -1.421875 
Q 22.3125 -1.421875 17.546875 -0.640625 
Q 12.796875 0.140625 7.71875 1.703125 
L 7.71875 11.625 
Q 12.109375 9.234375 16.796875 8.0625 
Q 21.484375 6.890625 26.703125 6.890625 
Q 35.15625 6.890625 40.078125 11.328125 
Q 45.015625 15.765625 45.015625 23.390625 
Q 45.015625 31 40.078125 35.4375 
Q 35.15625 39.890625 26.703125 39.890625 
Q 22.75 39.890625 18.8125 39.015625 
Q 14.890625 38.140625 10.796875 36.28125 
z
" id="BitstreamVeraSans-Roman-35"/>
     </defs>
     <g transform="translate(476.86125 133.573125)scale(0.12 -0.12)">
      <use xlink:href="#BitstreamVeraSans-Roman-4c"/>
      <use x="55.712890625" xlink:href="#BitstreamVeraSans-Roman-32"/>
      <use x="119.3359375" xlink:href="#BitstreamVeraSans-Roman-30"/>
      <use x="182.958984375" xlink:href="#BitstreamVeraSans-Roman-35"/>
     </g>
    </g>
    <g id="line2d_36">
     <path d="M 446.86125 146.986875 
L 463.66125 146.986875 
" style="fill:none;opacity:0.6;stroke:#008000;stroke-dasharray:1.000000,3.000000;stroke-dashoffset:0.0;stroke-width:0.4;"/>
    </g>
    <g id="line2d_37"/>
    <g id="text_26">
     <!-- PB45 -->
     <defs>
      <path d="M 19.671875 34.8125 
L 19.671875 8.109375 
L 35.5 8.109375 
Q 43.453125 8.109375 47.28125 11.40625 
Q 51.125 14.703125 51.125 21.484375 
Q 51.125 28.328125 47.28125 31.5625 
Q 43.453125 34.8125 35.5 34.8125 
z
M 19.671875 64.796875 
L 19.671875 42.828125 
L 34.28125 42.828125 
Q 41.5 42.828125 45.03125 45.53125 
Q 48.578125 48.25 48.578125 53.8125 
Q 48.578125 59.328125 45.03125 62.0625 
Q 41.5 64.796875 34.28125 64.796875 
z
M 9.8125 72.90625 
L 35.015625 72.90625 
Q 46.296875 72.90625 52.390625 68.21875 
Q 58.5 63.53125 58.5 54.890625 
Q 58.5 48.1875 55.375 44.234375 
Q 52.25 40.28125 46.1875 39.3125 
Q 53.46875 37.75 57.5 32.78125 
Q 61.53125 27.828125 61.53125 20.40625 
Q 61.53125 10.640625 54.890625 5.3125 
Q 48.25 0 35.984375 0 
L 9.8125 0 
z
" id="BitstreamVeraSans-Roman-42"/>
     </defs>
     <g transform="translate(476.86125 151.186875)scale(0.12 -0.12)">
      <use xlink:href="#BitstreamVeraSans-Roman-50"/>
      <use x="60.302734375" xlink:href="#BitstreamVeraSans-Roman-42"/>
      <use x="128.90625" xlink:href="#BitstreamVeraSans-Roman-34"/>
      <use x="192.529296875" xlink:href="#BitstreamVeraSans-Roman-35"/>
     </g>
    </g>
   </g>
  </g>
 </g>
 <defs>
  <clipPath id="paf834b8141">
   <rect height="334.8" width="446.4" x="72.0" y="43.2"/>
  </clipPath>
 </defs>
</svg>
