<?xml version="1.0" encoding="utf-8" standalone="no"?>
<!DOCTYPE svg PUBLIC "-//W3C//DTD SVG 1.1//EN"
  "http://www.w3.org/Graphics/SVG/1.1/DTD/svg11.dtd">
<!-- Created with matplotlib (http://matplotlib.org/) -->
<svg height="432pt" version="1.1" viewBox="0 0 576 432" width="576pt" xmlns="http://www.w3.org/2000/svg" xmlns:xlink="http://www.w3.org/1999/xlink">
 <defs>
  <style type="text/css">
*{stroke-linecap:butt;stroke-linejoin:round;stroke-miterlimit:100000;}
  </style>
 </defs>
 <g id="figure_1">
  <g id="patch_1">
   <path d="M 0 432 
L 576 432 
L 576 0 
L 0 0 
z
" style="fill:#ffffff;"/>
  </g>
  <g id="axes_1">
   <g id="patch_2">
    <path d="M 295.2 388.8 
C 341.027096 388.8 384.983402 370.592702 417.388052 338.188052 
C 449.792702 305.783402 468 261.827096 468 216 
C 468 170.172904 449.792702 126.216598 417.388052 93.811948 
C 384.983402 61.407298 341.027096 43.2 295.2 43.2 
C 249.372904 43.2 205.416598 61.407298 173.011948 93.811948 
C 140.607298 126.216598 122.4 170.172904 122.4 216 
C 122.4 261.827096 140.607298 305.783402 173.011948 338.188052 
C 205.416598 370.592702 249.372904 388.8 295.2 388.8 
z
" style="fill:#ffffff;"/>
   </g>
   <g id="line2d_1">
    <path clip-path="url(#pd7b9b1accf)" d="M 468 216 
" style="fill:none;stroke:#0000ff;stroke-linecap:square;"/>
   </g>
   <g id="line2d_2">
    <path clip-path="url(#pd7b9b1accf)" d="M 397.803127 275.237943 
" style="fill:none;opacity:0.6;stroke:#008000;stroke-linecap:square;stroke-width:0.4;"/>
    <defs>
     <path d="M 0 3 
C 0.795609 3 1.55874 2.683901 2.12132 2.12132 
C 2.683901 1.55874 3 0.795609 3 0 
C 3 -0.795609 2.683901 -1.55874 2.12132 -2.12132 
C 1.55874 -2.683901 0.795609 -3 0 -3 
C -0.795609 -3 -1.55874 -2.683901 -2.12132 -2.12132 
C -2.683901 -1.55874 -3 -0.795609 -3 0 
C -3 0.795609 -2.683901 1.55874 -2.12132 2.12132 
C -1.55874 2.683901 -0.795609 3 0 3 
z
" id="m94ada0e41a" style="stroke:#000000;stroke-width:0.5;"/>
    </defs>
    <g clip-path="url(#pd7b9b1accf)">
     <use style="fill:#008000;opacity:0.6;stroke:#000000;stroke-width:0.5;" x="397.803126988" xlink:href="#m94ada0e41a" y="275.237942986"/>
    </g>
   </g>
   <g id="line2d_3">
    <path clip-path="url(#pd7b9b1accf)" d="M 402.536572 261.561672 
" style="fill:none;opacity:0.6;stroke:#008000;stroke-linecap:square;stroke-width:0.4;"/>
    <g clip-path="url(#pd7b9b1accf)">
     <use style="fill:#008000;opacity:0.6;stroke:#000000;stroke-width:0.5;" x="402.536571773" xlink:href="#m94ada0e41a" y="261.561671576"/>
    </g>
   </g>
   <g id="line2d_4">
    <path clip-path="url(#pd7b9b1accf)" d="M 403.433107 264.188484 
" style="fill:none;opacity:0.6;stroke:#008000;stroke-linecap:square;stroke-width:0.4;"/>
    <g clip-path="url(#pd7b9b1accf)">
     <use style="fill:#008000;opacity:0.6;stroke:#000000;stroke-width:0.5;" x="403.433107471" xlink:href="#m94ada0e41a" y="264.188484146"/>
    </g>
   </g>
   <g id="line2d_5">
    <path clip-path="url(#pd7b9b1accf)" d="M 402.536572 261.561672 
" style="fill:none;opacity:0.6;stroke:#008000;stroke-linecap:square;stroke-width:0.4;"/>
    <g clip-path="url(#pd7b9b1accf)">
     <use style="fill:#008000;opacity:0.6;stroke:#000000;stroke-width:0.5;" x="402.536571773" xlink:href="#m94ada0e41a" y="261.561671576"/>
    </g>
   </g>
   <g id="line2d_6">
    <path clip-path="url(#pd7b9b1accf)" d="M 405.048929 260.381848 
" style="fill:none;opacity:0.6;stroke:#008000;stroke-linecap:square;stroke-width:0.4;"/>
    <g clip-path="url(#pd7b9b1accf)">
     <use style="fill:#008000;opacity:0.6;stroke:#000000;stroke-width:0.5;" x="405.04892863" xlink:href="#m94ada0e41a" y="260.381848046"/>
    </g>
   </g>
   <g id="line2d_7">
    <path clip-path="url(#pd7b9b1accf)" d="M 398.348557 277.977906 
" style="fill:none;opacity:0.6;stroke:#008000;stroke-linecap:square;stroke-width:0.4;"/>
    <g clip-path="url(#pd7b9b1accf)">
     <use style="fill:#008000;opacity:0.6;stroke:#000000;stroke-width:0.5;" x="398.348556535" xlink:href="#m94ada0e41a" y="277.977905531"/>
    </g>
   </g>
   <g id="line2d_8">
    <path clip-path="url(#pd7b9b1accf)" d="M 391.923038 274.117065 
" style="fill:none;opacity:0.6;stroke:#008000;stroke-linecap:square;stroke-width:0.4;"/>
    <g clip-path="url(#pd7b9b1accf)">
     <use style="fill:#008000;opacity:0.6;stroke:#000000;stroke-width:0.5;" x="391.923038449" xlink:href="#m94ada0e41a" y="274.117064757"/>
    </g>
   </g>
   <g id="line2d_9">
    <path clip-path="url(#pd7b9b1accf)" d="M 392.494549 276.796382 
" style="fill:none;opacity:0.6;stroke:#008000;stroke-linecap:square;stroke-width:0.4;"/>
    <g clip-path="url(#pd7b9b1accf)">
     <use style="fill:#008000;opacity:0.6;stroke:#000000;stroke-width:0.5;" x="392.494549262" xlink:href="#m94ada0e41a" y="276.796381942"/>
    </g>
   </g>
   <g id="line2d_10">
    <path clip-path="url(#pd7b9b1accf)" d="M 366.801888 199.469402 
" style="fill:none;opacity:0.6;stroke:#0000ff;stroke-linecap:square;stroke-width:0.5;"/>
    <defs>
     <path d="M -0 4.242641 
L 2.545584 0 
L 0 -4.242641 
L -2.545584 -0 
z
" id="ma9e750144b" style="stroke:#000000;stroke-linejoin:miter;stroke-width:0.5;"/>
    </defs>
    <g clip-path="url(#pd7b9b1accf)">
     <use style="fill:#0000ff;opacity:0.6;stroke:#000000;stroke-linejoin:miter;stroke-width:0.5;" x="366.80188783" xlink:href="#ma9e750144b" y="199.469401675"/>
    </g>
   </g>
   <g id="line2d_11">
    <path clip-path="url(#pd7b9b1accf)" d="M 367.335179 201.978342 
" style="fill:none;opacity:0.6;stroke:#0000ff;stroke-linecap:square;stroke-width:0.5;"/>
    <g clip-path="url(#pd7b9b1accf)">
     <use style="fill:#0000ff;opacity:0.6;stroke:#000000;stroke-linejoin:miter;stroke-width:0.5;" x="367.335179457" xlink:href="#ma9e750144b" y="201.978341517"/>
    </g>
   </g>
   <g id="line2d_12">
    <path clip-path="url(#pd7b9b1accf)" d="M 366.502484 198.222294 
" style="fill:none;opacity:0.6;stroke:#0000ff;stroke-linecap:square;stroke-width:0.5;"/>
    <g clip-path="url(#pd7b9b1accf)">
     <use style="fill:#0000ff;opacity:0.6;stroke:#000000;stroke-linejoin:miter;stroke-width:0.5;" x="366.502483796" xlink:href="#ma9e750144b" y="198.222294117"/>
    </g>
   </g>
   <g id="line2d_13">
    <path clip-path="url(#pd7b9b1accf)" d="M 370.754287 198.556918 
" style="fill:none;opacity:0.6;stroke:#0000ff;stroke-linecap:square;stroke-width:0.5;"/>
    <g clip-path="url(#pd7b9b1accf)">
     <use style="fill:#0000ff;opacity:0.6;stroke:#000000;stroke-linejoin:miter;stroke-width:0.5;" x="370.754287458" xlink:href="#ma9e750144b" y="198.556918323"/>
    </g>
   </g>
   <g id="line2d_14">
    <path clip-path="url(#pd7b9b1accf)" d="M 364.214104 197.507727 
" style="fill:none;opacity:0.6;stroke:#0000ff;stroke-linecap:square;stroke-width:0.5;"/>
    <g clip-path="url(#pd7b9b1accf)">
     <use style="fill:#0000ff;opacity:0.6;stroke:#000000;stroke-linejoin:miter;stroke-width:0.5;" x="364.214104013" xlink:href="#ma9e750144b" y="197.507726563"/>
    </g>
   </g>
   <g id="line2d_15">
    <path clip-path="url(#pd7b9b1accf)" d="M 367.790993 195.184868 
" style="fill:none;opacity:0.6;stroke:#0000ff;stroke-linecap:square;stroke-width:0.5;"/>
    <g clip-path="url(#pd7b9b1accf)">
     <use style="fill:#0000ff;opacity:0.6;stroke:#000000;stroke-linejoin:miter;stroke-width:0.5;" x="367.79099296" xlink:href="#ma9e750144b" y="195.184867721"/>
    </g>
   </g>
   <g id="line2d_16">
    <path clip-path="url(#pd7b9b1accf)" d="M 339.758092 191.584938 
" style="fill:none;opacity:0.6;stroke:#ff0000;stroke-linecap:square;stroke-width:0.5;"/>
    <defs>
     <path d="M -3 3 
L 3 3 
L 3 -3 
L -3 -3 
z
" id="m71541b12f2" style="stroke:#000000;stroke-linejoin:miter;stroke-width:0.5;"/>
    </defs>
    <g clip-path="url(#pd7b9b1accf)">
     <use style="fill:#ff0000;opacity:0.6;stroke:#000000;stroke-linejoin:miter;stroke-width:0.5;" x="339.758091708" xlink:href="#m71541b12f2" y="191.584937734"/>
    </g>
   </g>
   <g id="line2d_17">
    <path clip-path="url(#pd7b9b1accf)" d="M 337.758434 192.283084 
" style="fill:none;opacity:0.6;stroke:#ff0000;stroke-linecap:square;stroke-width:0.5;"/>
    <g clip-path="url(#pd7b9b1accf)">
     <use style="fill:#ff0000;opacity:0.6;stroke:#000000;stroke-linejoin:miter;stroke-width:0.5;" x="337.758433578" xlink:href="#m71541b12f2" y="192.283084348"/>
    </g>
   </g>
   <g id="line2d_18">
    <path clip-path="url(#pd7b9b1accf)" d="M 341.276292 190.026748 
" style="fill:none;opacity:0.6;stroke:#ff0000;stroke-linecap:square;stroke-width:0.5;"/>
    <g clip-path="url(#pd7b9b1accf)">
     <use style="fill:#ff0000;opacity:0.6;stroke:#000000;stroke-linejoin:miter;stroke-width:0.5;" x="341.276291702" xlink:href="#m71541b12f2" y="190.026747771"/>
    </g>
   </g>
   <g id="line2d_19">
    <path clip-path="url(#pd7b9b1accf)" d="M 337.465508 191.764918 
" style="fill:none;opacity:0.6;stroke:#ff0000;stroke-linecap:square;stroke-width:0.5;"/>
    <g clip-path="url(#pd7b9b1accf)">
     <use style="fill:#ff0000;opacity:0.6;stroke:#000000;stroke-linejoin:miter;stroke-width:0.5;" x="337.465507849" xlink:href="#m71541b12f2" y="191.764917931"/>
    </g>
   </g>
   <g id="line2d_20">
    <path clip-path="url(#pd7b9b1accf)" d="M 340.423359 188.56859 
" style="fill:none;opacity:0.6;stroke:#ff0000;stroke-linecap:square;stroke-width:0.5;"/>
    <g clip-path="url(#pd7b9b1accf)">
     <use style="fill:#ff0000;opacity:0.6;stroke:#000000;stroke-linejoin:miter;stroke-width:0.5;" x="340.423359412" xlink:href="#m71541b12f2" y="188.568590051"/>
    </g>
   </g>
   <g id="line2d_21">
    <path clip-path="url(#pd7b9b1accf)" d="M 343.383614 185.457127 
" style="fill:none;opacity:0.6;stroke:#ff0000;stroke-linecap:square;stroke-width:0.5;"/>
    <g clip-path="url(#pd7b9b1accf)">
     <use style="fill:#ff0000;opacity:0.6;stroke:#000000;stroke-linejoin:miter;stroke-width:0.5;" x="343.383613807" xlink:href="#m71541b12f2" y="185.457126703"/>
    </g>
   </g>
   <g id="line2d_22">
    <path clip-path="url(#pd7b9b1accf)" d="M 342.541111 85.931366 
" style="fill:none;opacity:0.6;stroke:#ffff00;stroke-linecap:square;stroke-width:0.5;"/>
    <defs>
     <path d="M 0 -3 
L -3 3 
L 3 3 
z
" id="m77e2d08d2f" style="stroke:#000000;stroke-linejoin:miter;stroke-width:0.5;"/>
    </defs>
    <g clip-path="url(#pd7b9b1accf)">
     <use style="fill:#ffff00;opacity:0.6;stroke:#000000;stroke-linejoin:miter;stroke-width:0.5;" x="342.541111195" xlink:href="#m77e2d08d2f" y="85.9313659785"/>
    </g>
   </g>
   <g id="line2d_23">
    <path clip-path="url(#pd7b9b1accf)" d="M 344.172193 88.423077 
" style="fill:none;opacity:0.6;stroke:#ffff00;stroke-linecap:square;stroke-width:0.5;"/>
    <g clip-path="url(#pd7b9b1accf)">
     <use style="fill:#ffff00;opacity:0.6;stroke:#000000;stroke-linejoin:miter;stroke-width:0.5;" x="344.172192628" xlink:href="#m77e2d08d2f" y="88.4230765112"/>
    </g>
   </g>
   <g id="line2d_24">
    <path clip-path="url(#pd7b9b1accf)" d="M 345.727016 90.941247 
" style="fill:none;opacity:0.6;stroke:#ffff00;stroke-linecap:square;stroke-width:0.5;"/>
    <g clip-path="url(#pd7b9b1accf)">
     <use style="fill:#ffff00;opacity:0.6;stroke:#000000;stroke-linejoin:miter;stroke-width:0.5;" x="345.727015947" xlink:href="#m77e2d08d2f" y="90.9412470883"/>
    </g>
   </g>
   <g id="line2d_25">
    <path clip-path="url(#pd7b9b1accf)" d="M 349.283498 88.587263 
" style="fill:none;opacity:0.6;stroke:#ffff00;stroke-linecap:square;stroke-width:0.5;"/>
    <g clip-path="url(#pd7b9b1accf)">
     <use style="fill:#ffff00;opacity:0.6;stroke:#000000;stroke-linejoin:miter;stroke-width:0.5;" x="349.283498187" xlink:href="#m77e2d08d2f" y="88.5872628449"/>
    </g>
   </g>
   <g id="line2d_26">
    <path clip-path="url(#pd7b9b1accf)" d="M 342.096824 182.556796 
" style="fill:none;opacity:0.6;stroke:#000000;stroke-linecap:square;stroke-width:4.0;"/>
    <defs>
     <path d="M 0 3 
C 0.795609 3 1.55874 2.683901 2.12132 2.12132 
C 2.683901 1.55874 3 0.795609 3 0 
C 3 -0.795609 2.683901 -1.55874 2.12132 -2.12132 
C 1.55874 -2.683901 0.795609 -3 0 -3 
C -0.795609 -3 -1.55874 -2.683901 -2.12132 -2.12132 
C -2.683901 -1.55874 -3 -0.795609 -3 0 
C -3 0.795609 -2.683901 1.55874 -2.12132 2.12132 
C -1.55874 2.683901 -0.795609 3 0 3 
z
" id="meed0585ade" style="stroke:#000000;stroke-width:0.5;"/>
    </defs>
    <g clip-path="url(#pd7b9b1accf)">
     <use style="opacity:0.6;stroke:#000000;stroke-width:0.5;" x="342.096823902" xlink:href="#meed0585ade" y="182.556795789"/>
    </g>
   </g>
   <g id="patch_3">
    <path d="M 295.2 388.8 
C 341.027096 388.8 384.983402 370.592702 417.388052 338.188052 
C 449.792702 305.783402 468 261.827096 468 216 
C 468 170.172904 449.792702 126.216598 417.388052 93.811948 
C 384.983402 61.407298 341.027096 43.2 295.2 43.2 
C 249.372904 43.2 205.416598 61.407298 173.011948 93.811948 
C 140.607298 126.216598 122.4 170.172904 122.4 216 
C 122.4 261.827096 140.607298 305.783402 173.011948 338.188052 
C 205.416598 370.592702 249.372904 388.8 295.2 388.8 
L 295.2 388.8 
z
" style="fill:none;stroke:#000000;stroke-linecap:square;stroke-linejoin:miter;"/>
   </g>
   <g id="matplotlib.axis_1">
    <g id="xtick_1">
     <g id="line2d_27">
      <path clip-path="url(#pd7b9b1accf)" d="M 295.2 216 
L 295.2 43.2 
" style="fill:none;stroke:#000000;stroke-dasharray:1.000000,3.000000;stroke-dashoffset:0.0;stroke-width:0.5;"/>
     </g>
     <g id="text_1">
      <!-- 0 -->
      <defs>
       <path d="M 31.78125 66.40625 
Q 24.171875 66.40625 20.328125 58.90625 
Q 16.5 51.421875 16.5 36.375 
Q 16.5 21.390625 20.328125 13.890625 
Q 24.171875 6.390625 31.78125 6.390625 
Q 39.453125 6.390625 43.28125 13.890625 
Q 47.125 21.390625 47.125 36.375 
Q 47.125 51.421875 43.28125 58.90625 
Q 39.453125 66.40625 31.78125 66.40625 
M 31.78125 74.21875 
Q 44.046875 74.21875 50.515625 64.515625 
Q 56.984375 54.828125 56.984375 36.375 
Q 56.984375 17.96875 50.515625 8.265625 
Q 44.046875 -1.421875 31.78125 -1.421875 
Q 19.53125 -1.421875 13.0625 8.265625 
Q 6.59375 17.96875 6.59375 36.375 
Q 6.59375 54.828125 13.0625 64.515625 
Q 19.53125 74.21875 31.78125 74.21875 
" id="BitstreamVeraSans-Roman-30"/>
      </defs>
      <g transform="translate(291.3825 29.23125)scale(0.12 -0.12)">
       <use xlink:href="#BitstreamVeraSans-Roman-30"/>
      </g>
     </g>
    </g>
    <g id="xtick_2">
     <g id="line2d_28">
      <path clip-path="url(#pd7b9b1accf)" d="M 295.2 216 
L 354.301081 53.621115 
" style="fill:none;stroke:#000000;stroke-dasharray:1.000000,3.000000;stroke-dashoffset:0.0;stroke-width:0.5;"/>
     </g>
     <g id="text_2">
      <!-- 20 -->
      <defs>
       <path d="M 19.1875 8.296875 
L 53.609375 8.296875 
L 53.609375 0 
L 7.328125 0 
L 7.328125 8.296875 
Q 12.9375 14.109375 22.625 23.890625 
Q 32.328125 33.6875 34.8125 36.53125 
Q 39.546875 41.84375 41.421875 45.53125 
Q 43.3125 49.21875 43.3125 52.78125 
Q 43.3125 58.59375 39.234375 62.25 
Q 35.15625 65.921875 28.609375 65.921875 
Q 23.96875 65.921875 18.8125 64.3125 
Q 13.671875 62.703125 7.8125 59.421875 
L 7.8125 69.390625 
Q 13.765625 71.78125 18.9375 73 
Q 24.125 74.21875 28.421875 74.21875 
Q 39.75 74.21875 46.484375 68.546875 
Q 53.21875 62.890625 53.21875 53.421875 
Q 53.21875 48.921875 51.53125 44.890625 
Q 49.859375 40.875 45.40625 35.40625 
Q 44.1875 33.984375 37.640625 27.21875 
Q 31.109375 20.453125 19.1875 8.296875 
" id="BitstreamVeraSans-Roman-32"/>
      </defs>
      <g transform="translate(352.576188843 40.694476641)scale(0.12 -0.12)">
       <use xlink:href="#BitstreamVeraSans-Roman-32"/>
       <use x="63.623046875" xlink:href="#BitstreamVeraSans-Roman-30"/>
      </g>
     </g>
    </g>
    <g id="xtick_3">
     <g id="line2d_29">
      <path clip-path="url(#pd7b9b1accf)" d="M 295.2 216 
L 406.273699 83.62752 
" style="fill:none;stroke:#000000;stroke-dasharray:1.000000,3.000000;stroke-dashoffset:0.0;stroke-width:0.5;"/>
     </g>
     <g id="text_3">
      <!-- 40 -->
      <defs>
       <path d="M 37.796875 64.3125 
L 12.890625 25.390625 
L 37.796875 25.390625 
z
M 35.203125 72.90625 
L 47.609375 72.90625 
L 47.609375 25.390625 
L 58.015625 25.390625 
L 58.015625 17.1875 
L 47.609375 17.1875 
L 47.609375 0 
L 37.796875 0 
L 37.796875 17.1875 
L 4.890625 17.1875 
L 4.890625 26.703125 
z
" id="BitstreamVeraSans-Roman-34"/>
      </defs>
      <g transform="translate(409.746068849 73.7015222519)scale(0.12 -0.12)">
       <use xlink:href="#BitstreamVeraSans-Roman-34"/>
       <use x="63.623046875" xlink:href="#BitstreamVeraSans-Roman-30"/>
      </g>
     </g>
    </g>
    <g id="xtick_4">
     <g id="line2d_30">
      <path clip-path="url(#pd7b9b1accf)" d="M 295.2 216 
L 444.84919 129.6 
" style="fill:none;stroke:#000000;stroke-dasharray:1.000000,3.000000;stroke-dashoffset:0.0;stroke-width:0.5;"/>
     </g>
     <g id="text_4">
      <!-- 60 -->
      <defs>
       <path d="M 33.015625 40.375 
Q 26.375 40.375 22.484375 35.828125 
Q 18.609375 31.296875 18.609375 23.390625 
Q 18.609375 15.53125 22.484375 10.953125 
Q 26.375 6.390625 33.015625 6.390625 
Q 39.65625 6.390625 43.53125 10.953125 
Q 47.40625 15.53125 47.40625 23.390625 
Q 47.40625 31.296875 43.53125 35.828125 
Q 39.65625 40.375 33.015625 40.375 
M 52.59375 71.296875 
L 52.59375 62.3125 
Q 48.875 64.0625 45.09375 64.984375 
Q 41.3125 65.921875 37.59375 65.921875 
Q 27.828125 65.921875 22.671875 59.328125 
Q 17.53125 52.734375 16.796875 39.40625 
Q 19.671875 43.65625 24.015625 45.921875 
Q 28.375 48.1875 33.59375 48.1875 
Q 44.578125 48.1875 50.953125 41.515625 
Q 57.328125 34.859375 57.328125 23.390625 
Q 57.328125 12.15625 50.6875 5.359375 
Q 44.046875 -1.421875 33.015625 -1.421875 
Q 20.359375 -1.421875 13.671875 8.265625 
Q 6.984375 17.96875 6.984375 36.375 
Q 6.984375 53.65625 15.1875 63.9375 
Q 23.390625 74.21875 37.203125 74.21875 
Q 40.921875 74.21875 44.703125 73.484375 
Q 48.484375 72.75 52.59375 71.296875 
" id="BitstreamVeraSans-Roman-36"/>
      </defs>
      <g transform="translate(452.179108751 124.27125)scale(0.12 -0.12)">
       <use xlink:href="#BitstreamVeraSans-Roman-36"/>
       <use x="63.623046875" xlink:href="#BitstreamVeraSans-Roman-30"/>
      </g>
     </g>
    </g>
    <g id="xtick_5">
     <g id="line2d_31">
      <path clip-path="url(#pd7b9b1accf)" d="M 295.2 216 
L 465.37478 185.993595 
" style="fill:none;stroke:#000000;stroke-dasharray:1.000000,3.000000;stroke-dashoffset:0.0;stroke-width:0.5;"/>
     </g>
     <g id="text_5">
      <!-- 80 -->
      <defs>
       <path d="M 31.78125 34.625 
Q 24.75 34.625 20.71875 30.859375 
Q 16.703125 27.09375 16.703125 20.515625 
Q 16.703125 13.921875 20.71875 10.15625 
Q 24.75 6.390625 31.78125 6.390625 
Q 38.8125 6.390625 42.859375 10.171875 
Q 46.921875 13.96875 46.921875 20.515625 
Q 46.921875 27.09375 42.890625 30.859375 
Q 38.875 34.625 31.78125 34.625 
M 21.921875 38.8125 
Q 15.578125 40.375 12.03125 44.71875 
Q 8.5 49.078125 8.5 55.328125 
Q 8.5 64.0625 14.71875 69.140625 
Q 20.953125 74.21875 31.78125 74.21875 
Q 42.671875 74.21875 48.875 69.140625 
Q 55.078125 64.0625 55.078125 55.328125 
Q 55.078125 49.078125 51.53125 44.71875 
Q 48 40.375 41.703125 38.8125 
Q 48.828125 37.15625 52.796875 32.3125 
Q 56.78125 27.484375 56.78125 20.515625 
Q 56.78125 9.90625 50.3125 4.234375 
Q 43.84375 -1.421875 31.78125 -1.421875 
Q 19.734375 -1.421875 13.25 4.234375 
Q 6.78125 9.90625 6.78125 20.515625 
Q 6.78125 27.484375 10.78125 32.3125 
Q 14.796875 37.15625 21.921875 38.8125 
M 18.3125 54.390625 
Q 18.3125 48.734375 21.84375 45.5625 
Q 25.390625 42.390625 31.78125 42.390625 
Q 38.140625 42.390625 41.71875 45.5625 
Q 45.3125 48.734375 45.3125 54.390625 
Q 45.3125 60.0625 41.71875 63.234375 
Q 38.140625 66.40625 31.78125 66.40625 
Q 25.390625 66.40625 21.84375 63.234375 
Q 18.3125 60.0625 18.3125 54.390625 
" id="BitstreamVeraSans-Roman-38"/>
      </defs>
      <g transform="translate(474.757257693 186.304204389)scale(0.12 -0.12)">
       <use xlink:href="#BitstreamVeraSans-Roman-38"/>
       <use x="63.623046875" xlink:href="#BitstreamVeraSans-Roman-30"/>
      </g>
     </g>
    </g>
    <g id="xtick_6">
     <g id="line2d_32">
      <path clip-path="url(#pd7b9b1accf)" d="M 295.2 216 
L 465.37478 246.006405 
" style="fill:none;stroke:#000000;stroke-dasharray:1.000000,3.000000;stroke-dashoffset:0.0;stroke-width:0.5;"/>
     </g>
     <g id="text_6">
      <!-- 100 -->
      <defs>
       <path d="M 12.40625 8.296875 
L 28.515625 8.296875 
L 28.515625 63.921875 
L 10.984375 60.40625 
L 10.984375 69.390625 
L 28.421875 72.90625 
L 38.28125 72.90625 
L 38.28125 8.296875 
L 54.390625 8.296875 
L 54.390625 0 
L 12.40625 0 
z
" id="BitstreamVeraSans-Roman-31"/>
      </defs>
      <g transform="translate(470.939757693 252.318295611)scale(0.12 -0.12)">
       <use xlink:href="#BitstreamVeraSans-Roman-31"/>
       <use x="63.623046875" xlink:href="#BitstreamVeraSans-Roman-30"/>
       <use x="127.24609375" xlink:href="#BitstreamVeraSans-Roman-30"/>
      </g>
     </g>
    </g>
    <g id="xtick_7">
     <g id="line2d_33">
      <path clip-path="url(#pd7b9b1accf)" d="M 295.2 216 
L 444.84919 302.4 
" style="fill:none;stroke:#000000;stroke-dasharray:1.000000,3.000000;stroke-dashoffset:0.0;stroke-width:0.5;"/>
     </g>
     <g id="text_7">
      <!-- 120 -->
      <g transform="translate(448.361608751 314.35125)scale(0.12 -0.12)">
       <use xlink:href="#BitstreamVeraSans-Roman-31"/>
       <use x="63.623046875" xlink:href="#BitstreamVeraSans-Roman-32"/>
       <use x="127.24609375" xlink:href="#BitstreamVeraSans-Roman-30"/>
      </g>
     </g>
    </g>
    <g id="xtick_8">
     <g id="line2d_34">
      <path clip-path="url(#pd7b9b1accf)" d="M 295.2 216 
L 406.273699 348.37248 
" style="fill:none;stroke:#000000;stroke-dasharray:1.000000,3.000000;stroke-dashoffset:0.0;stroke-width:0.5;"/>
     </g>
     <g id="text_8">
      <!-- 140 -->
      <g transform="translate(405.928568849 364.920977748)scale(0.12 -0.12)">
       <use xlink:href="#BitstreamVeraSans-Roman-31"/>
       <use x="63.623046875" xlink:href="#BitstreamVeraSans-Roman-34"/>
       <use x="127.24609375" xlink:href="#BitstreamVeraSans-Roman-30"/>
      </g>
     </g>
    </g>
    <g id="xtick_9">
     <g id="line2d_35">
      <path clip-path="url(#pd7b9b1accf)" d="M 295.2 216 
L 354.301081 378.378885 
" style="fill:none;stroke:#000000;stroke-dasharray:1.000000,3.000000;stroke-dashoffset:0.0;stroke-width:0.5;"/>
     </g>
     <g id="text_9">
      <!-- 160 -->
      <g transform="translate(348.758688843 397.928023359)scale(0.12 -0.12)">
       <use xlink:href="#BitstreamVeraSans-Roman-31"/>
       <use x="63.623046875" xlink:href="#BitstreamVeraSans-Roman-36"/>
       <use x="127.24609375" xlink:href="#BitstreamVeraSans-Roman-30"/>
      </g>
     </g>
    </g>
    <g id="xtick_10">
     <g id="line2d_36">
      <path clip-path="url(#pd7b9b1accf)" d="M 295.2 216 
L 295.2 388.8 
" style="fill:none;stroke:#000000;stroke-dasharray:1.000000,3.000000;stroke-dashoffset:0.0;stroke-width:0.5;"/>
     </g>
     <g id="text_10">
      <!-- 180 -->
      <g transform="translate(283.7475 409.39125)scale(0.12 -0.12)">
       <use xlink:href="#BitstreamVeraSans-Roman-31"/>
       <use x="63.623046875" xlink:href="#BitstreamVeraSans-Roman-38"/>
       <use x="127.24609375" xlink:href="#BitstreamVeraSans-Roman-30"/>
      </g>
     </g>
    </g>
    <g id="xtick_11">
     <g id="line2d_37">
      <path clip-path="url(#pd7b9b1accf)" d="M 295.2 216 
L 236.098919 378.378885 
" style="fill:none;stroke:#000000;stroke-dasharray:1.000000,3.000000;stroke-dashoffset:0.0;stroke-width:0.5;"/>
     </g>
     <g id="text_11">
      <!-- 200 -->
      <g transform="translate(218.736311157 397.928023359)scale(0.12 -0.12)">
       <use xlink:href="#BitstreamVeraSans-Roman-32"/>
       <use x="63.623046875" xlink:href="#BitstreamVeraSans-Roman-30"/>
       <use x="127.24609375" xlink:href="#BitstreamVeraSans-Roman-30"/>
      </g>
     </g>
    </g>
    <g id="xtick_12">
     <g id="line2d_38">
      <path clip-path="url(#pd7b9b1accf)" d="M 295.2 216 
L 184.126301 348.37248 
" style="fill:none;stroke:#000000;stroke-dasharray:1.000000,3.000000;stroke-dashoffset:0.0;stroke-width:0.5;"/>
     </g>
     <g id="text_12">
      <!-- 220 -->
      <g transform="translate(161.566431151 364.920977748)scale(0.12 -0.12)">
       <use xlink:href="#BitstreamVeraSans-Roman-32"/>
       <use x="63.623046875" xlink:href="#BitstreamVeraSans-Roman-32"/>
       <use x="127.24609375" xlink:href="#BitstreamVeraSans-Roman-30"/>
      </g>
     </g>
    </g>
    <g id="xtick_13">
     <g id="line2d_39">
      <path clip-path="url(#pd7b9b1accf)" d="M 295.2 216 
L 145.55081 302.4 
" style="fill:none;stroke:#000000;stroke-dasharray:1.000000,3.000000;stroke-dashoffset:0.0;stroke-width:0.5;"/>
     </g>
     <g id="text_13">
      <!-- 240 -->
      <g transform="translate(119.133391249 314.35125)scale(0.12 -0.12)">
       <use xlink:href="#BitstreamVeraSans-Roman-32"/>
       <use x="63.623046875" xlink:href="#BitstreamVeraSans-Roman-34"/>
       <use x="127.24609375" xlink:href="#BitstreamVeraSans-Roman-30"/>
      </g>
     </g>
    </g>
    <g id="xtick_14">
     <g id="line2d_40">
      <path clip-path="url(#pd7b9b1accf)" d="M 295.2 216 
L 125.02522 246.006405 
" style="fill:none;stroke:#000000;stroke-dasharray:1.000000,3.000000;stroke-dashoffset:0.0;stroke-width:0.5;"/>
     </g>
     <g id="text_14">
      <!-- 260 -->
      <g transform="translate(96.5552423074 252.318295611)scale(0.12 -0.12)">
       <use xlink:href="#BitstreamVeraSans-Roman-32"/>
       <use x="63.623046875" xlink:href="#BitstreamVeraSans-Roman-36"/>
       <use x="127.24609375" xlink:href="#BitstreamVeraSans-Roman-30"/>
      </g>
     </g>
    </g>
    <g id="xtick_15">
     <g id="line2d_41">
      <path clip-path="url(#pd7b9b1accf)" d="M 295.2 216 
L 125.02522 185.993595 
" style="fill:none;stroke:#000000;stroke-dasharray:1.000000,3.000000;stroke-dashoffset:0.0;stroke-width:0.5;"/>
     </g>
     <g id="text_15">
      <!-- 280 -->
      <g transform="translate(96.5552423074 186.304204389)scale(0.12 -0.12)">
       <use xlink:href="#BitstreamVeraSans-Roman-32"/>
       <use x="63.623046875" xlink:href="#BitstreamVeraSans-Roman-38"/>
       <use x="127.24609375" xlink:href="#BitstreamVeraSans-Roman-30"/>
      </g>
     </g>
    </g>
    <g id="xtick_16">
     <g id="line2d_42">
      <path clip-path="url(#pd7b9b1accf)" d="M 295.2 216 
L 145.55081 129.6 
" style="fill:none;stroke:#000000;stroke-dasharray:1.000000,3.000000;stroke-dashoffset:0.0;stroke-width:0.5;"/>
     </g>
     <g id="text_16">
      <!-- 300 -->
      <defs>
       <path d="M 40.578125 39.3125 
Q 47.65625 37.796875 51.625 33 
Q 55.609375 28.21875 55.609375 21.1875 
Q 55.609375 10.40625 48.1875 4.484375 
Q 40.765625 -1.421875 27.09375 -1.421875 
Q 22.515625 -1.421875 17.65625 -0.515625 
Q 12.796875 0.390625 7.625 2.203125 
L 7.625 11.71875 
Q 11.71875 9.328125 16.59375 8.109375 
Q 21.484375 6.890625 26.8125 6.890625 
Q 36.078125 6.890625 40.9375 10.546875 
Q 45.796875 14.203125 45.796875 21.1875 
Q 45.796875 27.640625 41.28125 31.265625 
Q 36.765625 34.90625 28.71875 34.90625 
L 20.21875 34.90625 
L 20.21875 43.015625 
L 29.109375 43.015625 
Q 36.375 43.015625 40.234375 45.921875 
Q 44.09375 48.828125 44.09375 54.296875 
Q 44.09375 59.90625 40.109375 62.90625 
Q 36.140625 65.921875 28.71875 65.921875 
Q 24.65625 65.921875 20.015625 65.03125 
Q 15.375 64.15625 9.8125 62.3125 
L 9.8125 71.09375 
Q 15.4375 72.65625 20.34375 73.4375 
Q 25.25 74.21875 29.59375 74.21875 
Q 40.828125 74.21875 47.359375 69.109375 
Q 53.90625 64.015625 53.90625 55.328125 
Q 53.90625 49.265625 50.4375 45.09375 
Q 46.96875 40.921875 40.578125 39.3125 
" id="BitstreamVeraSans-Roman-33"/>
      </defs>
      <g transform="translate(119.133391249 124.27125)scale(0.12 -0.12)">
       <use xlink:href="#BitstreamVeraSans-Roman-33"/>
       <use x="63.623046875" xlink:href="#BitstreamVeraSans-Roman-30"/>
       <use x="127.24609375" xlink:href="#BitstreamVeraSans-Roman-30"/>
      </g>
     </g>
    </g>
    <g id="xtick_17">
     <g id="line2d_43">
      <path clip-path="url(#pd7b9b1accf)" d="M 295.2 216 
L 184.126301 83.62752 
" style="fill:none;stroke:#000000;stroke-dasharray:1.000000,3.000000;stroke-dashoffset:0.0;stroke-width:0.5;"/>
     </g>
     <g id="text_17">
      <!-- 320 -->
      <g transform="translate(161.566431151 73.7015222519)scale(0.12 -0.12)">
       <use xlink:href="#BitstreamVeraSans-Roman-33"/>
       <use x="63.623046875" xlink:href="#BitstreamVeraSans-Roman-32"/>
       <use x="127.24609375" xlink:href="#BitstreamVeraSans-Roman-30"/>
      </g>
     </g>
    </g>
    <g id="xtick_18">
     <g id="line2d_44">
      <path clip-path="url(#pd7b9b1accf)" d="M 295.2 216 
L 236.098919 53.621115 
" style="fill:none;stroke:#000000;stroke-dasharray:1.000000,3.000000;stroke-dashoffset:0.0;stroke-width:0.5;"/>
     </g>
     <g id="text_18">
      <!-- 340 -->
      <g transform="translate(218.736311157 40.694476641)scale(0.12 -0.12)">
       <use xlink:href="#BitstreamVeraSans-Roman-33"/>
       <use x="63.623046875" xlink:href="#BitstreamVeraSans-Roman-34"/>
       <use x="127.24609375" xlink:href="#BitstreamVeraSans-Roman-30"/>
      </g>
     </g>
    </g>
   </g>
   <g id="matplotlib.axis_2">
    <g id="ytick_1">
     <g id="line2d_45">
      <path clip-path="url(#pd7b9b1accf)" d="M 468 216 
L 467.894735 209.969367 
L 467.579068 203.946081 
L 467.053384 197.937482 
L 466.318322 191.950888 
L 465.37478 185.993595 
L 464.223905 180.07286 
L 462.867102 174.195896 
L 461.306021 168.369865 
L 459.542566 162.601863 
L 457.578885 156.898919 
L 455.41737 151.267981 
L 453.060655 145.715908 
L 450.511611 140.249466 
L 447.773344 134.875314 
L 444.84919 129.6 
L 441.742711 124.429951 
L 438.457693 119.371466 
L 434.998137 114.430708 
L 431.368258 109.613697 
L 427.57248 104.926301 
L 423.615426 100.374231 
L 419.501917 95.963034 
L 415.236966 91.698083 
L 410.825769 87.584574 
L 406.273699 83.62752 
L 401.586303 79.831742 
L 396.769292 76.201863 
L 391.828534 72.742307 
L 386.770049 69.457289 
L 381.6 66.35081 
L 376.324686 63.426656 
L 370.950534 60.688389 
L 365.484092 58.139345 
L 359.932019 55.78263 
L 354.301081 53.621115 
L 348.598137 51.657434 
L 342.830135 49.893979 
L 337.004104 48.332898 
L 331.12714 46.976095 
L 325.206405 45.82522 
L 319.249112 44.881678 
L 313.262518 44.146616 
L 307.253919 43.620932 
L 301.230633 43.305265 
L 295.2 43.2 
L 289.169367 43.305265 
L 283.146081 43.620932 
L 277.137482 44.146616 
L 271.150888 44.881678 
L 265.193595 45.82522 
L 259.27286 46.976095 
L 253.395896 48.332898 
L 247.569865 49.893979 
L 241.801863 51.657434 
L 236.098919 53.621115 
L 230.467981 55.78263 
L 224.915908 58.139345 
L 219.449466 60.688389 
L 214.075314 63.426656 
L 208.8 66.35081 
L 203.629951 69.457289 
L 198.571466 72.742307 
L 193.630708 76.201863 
L 188.813697 79.831742 
L 184.126301 83.62752 
L 179.574231 87.584574 
L 175.163034 91.698083 
L 170.898083 95.963034 
L 166.784574 100.374231 
L 162.82752 104.926301 
L 159.031742 109.613697 
L 155.401863 114.430708 
L 151.942307 119.371466 
L 148.657289 124.429951 
L 145.55081 129.6 
L 142.626656 134.875314 
L 139.888389 140.249466 
L 137.339345 145.715908 
L 134.98263 151.267981 
L 132.821115 156.898919 
L 130.857434 162.601863 
L 129.093979 168.369865 
L 127.532898 174.195896 
L 126.176095 180.07286 
L 125.02522 185.993595 
L 124.081678 191.950888 
L 123.346616 197.937482 
L 122.820932 203.946081 
L 122.505265 209.969367 
L 122.4 216 
L 122.505265 222.030633 
L 122.820932 228.053919 
L 123.346616 234.062518 
L 124.081678 240.049112 
L 125.02522 246.006405 
L 126.176095 251.92714 
L 127.532898 257.804104 
L 129.093979 263.630135 
L 130.857434 269.398137 
L 132.821115 275.101081 
L 134.98263 280.732019 
L 137.339345 286.284092 
L 139.888389 291.750534 
L 142.626656 297.124686 
L 145.55081 302.4 
L 148.657289 307.570049 
L 151.942307 312.628534 
L 155.401863 317.569292 
L 159.031742 322.386303 
L 162.82752 327.073699 
L 166.784574 331.625769 
L 170.898083 336.036966 
L 175.163034 340.301917 
L 179.574231 344.415426 
L 184.126301 348.37248 
L 188.813697 352.168258 
L 193.630708 355.798137 
L 198.571466 359.257693 
L 203.629951 362.542711 
L 208.8 365.64919 
L 214.075314 368.573344 
L 219.449466 371.311611 
L 224.915908 373.860655 
L 230.467981 376.21737 
L 236.098919 378.378885 
L 241.801863 380.342566 
L 247.569865 382.106021 
L 253.395896 383.667102 
L 259.27286 385.023905 
L 265.193595 386.17478 
L 271.150888 387.118322 
L 277.137482 387.853384 
L 283.146081 388.379068 
L 289.169367 388.694735 
L 295.2 388.8 
L 301.230633 388.694735 
L 307.253919 388.379068 
L 313.262518 387.853384 
L 319.249112 387.118322 
L 325.206405 386.17478 
L 331.12714 385.023905 
L 337.004104 383.667102 
L 342.830135 382.106021 
L 348.598137 380.342566 
L 354.301081 378.378885 
L 359.932019 376.21737 
L 365.484092 373.860655 
L 370.950534 371.311611 
L 376.324686 368.573344 
L 381.6 365.64919 
L 386.770049 362.542711 
L 391.828534 359.257693 
L 396.769292 355.798137 
L 401.586303 352.168258 
L 406.273699 348.37248 
L 410.825769 344.415426 
L 415.236966 340.301917 
L 419.501917 336.036966 
L 423.615426 331.625769 
L 427.57248 327.073699 
L 431.368258 322.386303 
L 434.998137 317.569292 
L 438.457693 312.628534 
L 441.742711 307.570049 
L 444.84919 302.4 
L 447.773344 297.124686 
L 450.511611 291.750534 
L 453.060655 286.284092 
L 455.41737 280.732019 
L 457.578885 275.101081 
L 459.542566 269.398137 
L 461.306021 263.630135 
L 462.867102 257.804104 
L 464.223905 251.92714 
L 465.37478 246.006405 
L 466.318322 240.049112 
L 467.053384 234.062518 
L 467.579068 228.053919 
L 467.894735 222.030633 
L 468 216 
L 468 216 
" style="fill:none;stroke:#000000;stroke-dasharray:1.000000,3.000000;stroke-dashoffset:0.0;stroke-width:0.5;"/>
     </g>
     <g id="text_19">
      <!-- 0 -->
      <g transform="translate(454.846383218 147.376677887)scale(0.12 -0.12)">
       <use xlink:href="#BitstreamVeraSans-Roman-30"/>
      </g>
     </g>
    </g>
    <g id="ytick_2">
     <g id="line2d_46">
      <path clip-path="url(#pd7b9b1accf)" d="M 443.966746 216 
L 443.876121 210.808115 
L 443.604358 205.622556 
L 443.151786 200.449641 
L 442.518958 195.295671 
L 441.706645 190.166926 
L 440.715836 185.069654 
L 439.547738 180.010067 
L 438.203775 174.994327 
L 436.685583 170.028547 
L 434.995013 165.118776 
L 433.134125 160.270996 
L 431.105185 155.491113 
L 428.910666 150.784951 
L 426.55324 146.158243 
L 424.035781 141.616627 
L 421.361356 137.165635 
L 418.533222 132.810691 
L 415.554826 128.557101 
L 412.429796 124.410046 
L 409.161939 120.374579 
L 405.755238 116.455617 
L 402.213841 112.657935 
L 398.542065 108.986159 
L 394.744383 105.444762 
L 390.825421 102.038061 
L 386.789954 98.770204 
L 382.642899 95.645174 
L 378.389309 92.666778 
L 374.034365 89.838644 
L 369.583373 87.164219 
L 365.041757 84.64676 
L 360.415049 82.289334 
L 355.708887 80.094815 
L 350.929004 78.065875 
L 346.081224 76.204987 
L 341.171453 74.514417 
L 336.205673 72.996225 
L 331.189933 71.652262 
L 326.130346 70.484164 
L 321.033074 69.493355 
L 315.904329 68.681042 
L 310.750359 68.048214 
L 305.577444 67.595642 
L 300.391885 67.323879 
L 295.2 67.233254 
L 290.008115 67.323879 
L 284.822556 67.595642 
L 279.649641 68.048214 
L 274.495671 68.681042 
L 269.366926 69.493355 
L 264.269654 70.484164 
L 259.210067 71.652262 
L 254.194327 72.996225 
L 249.228547 74.514417 
L 244.318776 76.204987 
L 239.470996 78.065875 
L 234.691113 80.094815 
L 229.984951 82.289334 
L 225.358243 84.64676 
L 220.816627 87.164219 
L 216.365635 89.838644 
L 212.010691 92.666778 
L 207.757101 95.645174 
L 203.610046 98.770204 
L 199.574579 102.038061 
L 195.655617 105.444762 
L 191.857935 108.986159 
L 188.186159 112.657935 
L 184.644762 116.455617 
L 181.238061 120.374579 
L 177.970204 124.410046 
L 174.845174 128.557101 
L 171.866778 132.810691 
L 169.038644 137.165635 
L 166.364219 141.616627 
L 163.84676 146.158243 
L 161.489334 150.784951 
L 159.294815 155.491113 
L 157.265875 160.270996 
L 155.404987 165.118776 
L 153.714417 170.028547 
L 152.196225 174.994327 
L 150.852262 180.010067 
L 149.684164 185.069654 
L 148.693355 190.166926 
L 147.881042 195.295671 
L 147.248214 200.449641 
L 146.795642 205.622556 
L 146.523879 210.808115 
L 146.433254 216 
L 146.523879 221.191885 
L 146.795642 226.377444 
L 147.248214 231.550359 
L 147.881042 236.704329 
L 148.693355 241.833074 
L 149.684164 246.930346 
L 150.852262 251.989933 
L 152.196225 257.005673 
L 153.714417 261.971453 
L 155.404987 266.881224 
L 157.265875 271.729004 
L 159.294815 276.508887 
L 161.489334 281.215049 
L 163.84676 285.841757 
L 166.364219 290.383373 
L 169.038644 294.834365 
L 171.866778 299.189309 
L 174.845174 303.442899 
L 177.970204 307.589954 
L 181.238061 311.625421 
L 184.644762 315.544383 
L 188.186159 319.342065 
L 191.857935 323.013841 
L 195.655617 326.555238 
L 199.574579 329.961939 
L 203.610046 333.229796 
L 207.757101 336.354826 
L 212.010691 339.333222 
L 216.365635 342.161356 
L 220.816627 344.835781 
L 225.358243 347.35324 
L 229.984951 349.710666 
L 234.691113 351.905185 
L 239.470996 353.934125 
L 244.318776 355.795013 
L 249.228547 357.485583 
L 254.194327 359.003775 
L 259.210067 360.347738 
L 264.269654 361.515836 
L 269.366926 362.506645 
L 274.495671 363.318958 
L 279.649641 363.951786 
L 284.822556 364.404358 
L 290.008115 364.676121 
L 295.2 364.766746 
L 300.391885 364.676121 
L 305.577444 364.404358 
L 310.750359 363.951786 
L 315.904329 363.318958 
L 321.033074 362.506645 
L 326.130346 361.515836 
L 331.189933 360.347738 
L 336.205673 359.003775 
L 341.171453 357.485583 
L 346.081224 355.795013 
L 350.929004 353.934125 
L 355.708887 351.905185 
L 360.415049 349.710666 
L 365.041757 347.35324 
L 369.583373 344.835781 
L 374.034365 342.161356 
L 378.389309 339.333222 
L 382.642899 336.354826 
L 386.789954 333.229796 
L 390.825421 329.961939 
L 394.744383 326.555238 
L 398.542065 323.013841 
L 402.213841 319.342065 
L 405.755238 315.544383 
L 409.161939 311.625421 
L 412.429796 307.589954 
L 415.554826 303.442899 
L 418.533222 299.189309 
L 421.361356 294.834365 
L 424.035781 290.383373 
L 426.55324 285.841757 
L 428.910666 281.215049 
L 431.105185 276.508887 
L 433.134125 271.729004 
L 434.995013 266.881224 
L 436.685583 261.971453 
L 438.203775 257.005673 
L 439.547738 251.989933 
L 440.715836 246.930346 
L 441.706645 241.833074 
L 442.518958 236.704329 
L 443.151786 231.550359 
L 443.604358 226.377444 
L 443.876121 221.191885 
L 443.966746 216 
L 443.966746 216 
" style="fill:none;stroke:#000000;stroke-dasharray:1.000000,3.000000;stroke-dashoffset:0.0;stroke-width:0.5;"/>
     </g>
     <g id="text_20">
      <!-- 15 -->
      <defs>
       <path d="M 10.796875 72.90625 
L 49.515625 72.90625 
L 49.515625 64.59375 
L 19.828125 64.59375 
L 19.828125 46.734375 
Q 21.96875 47.46875 24.109375 47.828125 
Q 26.265625 48.1875 28.421875 48.1875 
Q 40.625 48.1875 47.75 41.5 
Q 54.890625 34.8125 54.890625 23.390625 
Q 54.890625 11.625 47.5625 5.09375 
Q 40.234375 -1.421875 26.90625 -1.421875 
Q 22.3125 -1.421875 17.546875 -0.640625 
Q 12.796875 0.140625 7.71875 1.703125 
L 7.71875 11.625 
Q 12.109375 9.234375 16.796875 8.0625 
Q 21.484375 6.890625 26.703125 6.890625 
Q 35.15625 6.890625 40.078125 11.328125 
Q 45.015625 15.765625 45.015625 23.390625 
Q 45.015625 31 40.078125 35.4375 
Q 35.15625 39.890625 26.703125 39.890625 
Q 22.75 39.890625 18.8125 39.015625 
Q 14.890625 38.140625 10.796875 36.28125 
z
" id="BitstreamVeraSans-Roman-35"/>
      </defs>
      <g transform="translate(432.642551775 156.573806008)scale(0.12 -0.12)">
       <use xlink:href="#BitstreamVeraSans-Roman-31"/>
       <use x="63.623046875" xlink:href="#BitstreamVeraSans-Roman-35"/>
      </g>
     </g>
    </g>
    <g id="ytick_3">
     <g id="line2d_47">
      <path clip-path="url(#pd7b9b1accf)" d="M 417.388052 216 
L 417.313618 211.735698 
L 417.090408 207.476592 
L 416.718693 203.227871 
L 416.198926 198.99471 
L 415.531741 194.782267 
L 414.71795 190.595676 
L 413.758544 186.440035 
L 412.654694 182.320408 
L 411.407743 178.241815 
L 410.019211 174.209225 
L 408.490789 170.22755 
L 406.82434 166.301642 
L 405.021893 162.436284 
L 403.085646 158.636184 
L 401.017957 154.905974 
L 398.821345 151.250197 
L 396.498486 147.673309 
L 394.05221 144.179665 
L 391.485499 140.773524 
L 388.801478 137.459034 
L 386.003418 134.240235 
L 383.094729 131.121047 
L 380.078953 128.105271 
L 376.959765 125.196582 
L 373.740966 122.398522 
L 370.426476 119.714501 
L 367.020335 117.14779 
L 363.526691 114.701514 
L 359.949803 112.378655 
L 356.294026 110.182043 
L 352.563816 108.114354 
L 348.763716 106.178107 
L 344.898358 104.37566 
L 340.97245 102.709211 
L 336.990775 101.180789 
L 332.958185 99.792257 
L 328.879592 98.545306 
L 324.759965 97.441456 
L 320.604324 96.48205 
L 316.417733 95.668259 
L 312.20529 95.001074 
L 307.972129 94.481307 
L 303.723408 94.109592 
L 299.464302 93.886382 
L 295.2 93.811948 
L 290.935698 93.886382 
L 286.676592 94.109592 
L 282.427871 94.481307 
L 278.19471 95.001074 
L 273.982267 95.668259 
L 269.795676 96.48205 
L 265.640035 97.441456 
L 261.520408 98.545306 
L 257.441815 99.792257 
L 253.409225 101.180789 
L 249.42755 102.709211 
L 245.501642 104.37566 
L 241.636284 106.178107 
L 237.836184 108.114354 
L 234.105974 110.182043 
L 230.450197 112.378655 
L 226.873309 114.701514 
L 223.379665 117.14779 
L 219.973524 119.714501 
L 216.659034 122.398522 
L 213.440235 125.196582 
L 210.321047 128.105271 
L 207.305271 131.121047 
L 204.396582 134.240235 
L 201.598522 137.459034 
L 198.914501 140.773524 
L 196.34779 144.179665 
L 193.901514 147.673309 
L 191.578655 151.250197 
L 189.382043 154.905974 
L 187.314354 158.636184 
L 185.378107 162.436284 
L 183.57566 166.301642 
L 181.909211 170.22755 
L 180.380789 174.209225 
L 178.992257 178.241815 
L 177.745306 182.320408 
L 176.641456 186.440035 
L 175.68205 190.595676 
L 174.868259 194.782267 
L 174.201074 198.99471 
L 173.681307 203.227871 
L 173.309592 207.476592 
L 173.086382 211.735698 
L 173.011948 216 
L 173.086382 220.264302 
L 173.309592 224.523408 
L 173.681307 228.772129 
L 174.201074 233.00529 
L 174.868259 237.217733 
L 175.68205 241.404324 
L 176.641456 245.559965 
L 177.745306 249.679592 
L 178.992257 253.758185 
L 180.380789 257.790775 
L 181.909211 261.77245 
L 183.57566 265.698358 
L 185.378107 269.563716 
L 187.314354 273.363816 
L 189.382043 277.094026 
L 191.578655 280.749803 
L 193.901514 284.326691 
L 196.34779 287.820335 
L 198.914501 291.226476 
L 201.598522 294.540966 
L 204.396582 297.759765 
L 207.305271 300.878953 
L 210.321047 303.894729 
L 213.440235 306.803418 
L 216.659034 309.601478 
L 219.973524 312.285499 
L 223.379665 314.85221 
L 226.873309 317.298486 
L 230.450197 319.621345 
L 234.105974 321.817957 
L 237.836184 323.885646 
L 241.636284 325.821893 
L 245.501642 327.62434 
L 249.42755 329.290789 
L 253.409225 330.819211 
L 257.441815 332.207743 
L 261.520408 333.454694 
L 265.640035 334.558544 
L 269.795676 335.51795 
L 273.982267 336.331741 
L 278.19471 336.998926 
L 282.427871 337.518693 
L 286.676592 337.890408 
L 290.935698 338.113618 
L 295.2 338.188052 
L 299.464302 338.113618 
L 303.723408 337.890408 
L 307.972129 337.518693 
L 312.20529 336.998926 
L 316.417733 336.331741 
L 320.604324 335.51795 
L 324.759965 334.558544 
L 328.879592 333.454694 
L 332.958185 332.207743 
L 336.990775 330.819211 
L 340.97245 329.290789 
L 344.898358 327.62434 
L 348.763716 325.821893 
L 352.563816 323.885646 
L 356.294026 321.817957 
L 359.949803 319.621345 
L 363.526691 317.298486 
L 367.020335 314.85221 
L 370.426476 312.285499 
L 373.740966 309.601478 
L 376.959765 306.803418 
L 380.078953 303.894729 
L 383.094729 300.878953 
L 386.003418 297.759765 
L 388.801478 294.540966 
L 391.485499 291.226476 
L 394.05221 287.820335 
L 396.498486 284.326691 
L 398.821345 280.749803 
L 401.017957 277.094026 
L 403.085646 273.363816 
L 405.021893 269.563716 
L 406.82434 265.698358 
L 408.490789 261.77245 
L 410.019211 257.790775 
L 411.407743 253.758185 
L 412.654694 249.679592 
L 413.758544 245.559965 
L 414.71795 241.404324 
L 415.531741 237.217733 
L 416.198926 233.00529 
L 416.718693 228.772129 
L 417.090408 224.523408 
L 417.313618 220.264302 
L 417.388052 216 
L 417.388052 216 
" style="fill:none;stroke:#000000;stroke-dasharray:1.000000,3.000000;stroke-dashoffset:0.0;stroke-width:0.5;"/>
     </g>
     <g id="text_21">
      <!-- 30 -->
      <g transform="translate(408.087040165 166.745031947)scale(0.12 -0.12)">
       <use xlink:href="#BitstreamVeraSans-Roman-33"/>
       <use x="63.623046875" xlink:href="#BitstreamVeraSans-Roman-30"/>
      </g>
     </g>
    </g>
    <g id="ytick_4">
     <g id="line2d_48">
      <path clip-path="url(#pd7b9b1accf)" d="M 388.718686 216 
L 388.661717 212.736245 
L 388.490879 209.476466 
L 388.206381 206.224635 
L 387.808569 202.984714 
L 387.297927 199.760651 
L 386.675078 196.556372 
L 385.940781 193.375782 
L 385.095931 190.222757 
L 384.141556 187.101137 
L 383.078819 184.014726 
L 381.909016 180.967284 
L 380.633571 177.962524 
L 379.254038 175.004106 
L 377.772099 172.095636 
L 376.189558 169.240657 
L 374.508344 166.442647 
L 372.730505 163.705014 
L 370.858206 161.031095 
L 368.89373 158.424148 
L 366.83947 155.887347 
L 364.697928 153.423785 
L 362.471713 151.036462 
L 360.163538 148.728287 
L 357.776215 146.502072 
L 355.312653 144.36053 
L 352.775852 142.30627 
L 350.168905 140.341794 
L 347.494986 138.469495 
L 344.757353 136.691656 
L 341.959343 135.010442 
L 339.104364 133.427901 
L 336.195894 131.945962 
L 333.237476 130.566429 
L 330.232716 129.290984 
L 327.185274 128.121181 
L 324.098863 127.058444 
L 320.977243 126.104069 
L 317.824218 125.259219 
L 314.643628 124.524922 
L 311.439349 123.902073 
L 308.215286 123.391431 
L 304.975365 122.993619 
L 301.723534 122.709121 
L 298.463755 122.538283 
L 295.2 122.481314 
L 291.936245 122.538283 
L 288.676466 122.709121 
L 285.424635 122.993619 
L 282.184714 123.391431 
L 278.960651 123.902073 
L 275.756372 124.524922 
L 272.575782 125.259219 
L 269.422757 126.104069 
L 266.301137 127.058444 
L 263.214726 128.121181 
L 260.167284 129.290984 
L 257.162524 130.566429 
L 254.204106 131.945962 
L 251.295636 133.427901 
L 248.440657 135.010442 
L 245.642647 136.691656 
L 242.905014 138.469495 
L 240.231095 140.341794 
L 237.624148 142.30627 
L 235.087347 144.36053 
L 232.623785 146.502072 
L 230.236462 148.728287 
L 227.928287 151.036462 
L 225.702072 153.423785 
L 223.56053 155.887347 
L 221.50627 158.424148 
L 219.541794 161.031095 
L 217.669495 163.705014 
L 215.891656 166.442647 
L 214.210442 169.240657 
L 212.627901 172.095636 
L 211.145962 175.004106 
L 209.766429 177.962524 
L 208.490984 180.967284 
L 207.321181 184.014726 
L 206.258444 187.101137 
L 205.304069 190.222757 
L 204.459219 193.375782 
L 203.724922 196.556372 
L 203.102073 199.760651 
L 202.591431 202.984714 
L 202.193619 206.224635 
L 201.909121 209.476466 
L 201.738283 212.736245 
L 201.681314 216 
L 201.738283 219.263755 
L 201.909121 222.523534 
L 202.193619 225.775365 
L 202.591431 229.015286 
L 203.102073 232.239349 
L 203.724922 235.443628 
L 204.459219 238.624218 
L 205.304069 241.777243 
L 206.258444 244.898863 
L 207.321181 247.985274 
L 208.490984 251.032716 
L 209.766429 254.037476 
L 211.145962 256.995894 
L 212.627901 259.904364 
L 214.210442 262.759343 
L 215.891656 265.557353 
L 217.669495 268.294986 
L 219.541794 270.968905 
L 221.50627 273.575852 
L 223.56053 276.112653 
L 225.702072 278.576215 
L 227.928287 280.963538 
L 230.236462 283.271713 
L 232.623785 285.497928 
L 235.087347 287.63947 
L 237.624148 289.69373 
L 240.231095 291.658206 
L 242.905014 293.530505 
L 245.642647 295.308344 
L 248.440657 296.989558 
L 251.295636 298.572099 
L 254.204106 300.054038 
L 257.162524 301.433571 
L 260.167284 302.709016 
L 263.214726 303.878819 
L 266.301137 304.941556 
L 269.422757 305.895931 
L 272.575782 306.740781 
L 275.756372 307.475078 
L 278.960651 308.097927 
L 282.184714 308.608569 
L 285.424635 309.006381 
L 288.676466 309.290879 
L 291.936245 309.461717 
L 295.2 309.518686 
L 298.463755 309.461717 
L 301.723534 309.290879 
L 304.975365 309.006381 
L 308.215286 308.608569 
L 311.439349 308.097927 
L 314.643628 307.475078 
L 317.824218 306.740781 
L 320.977243 305.895931 
L 324.098863 304.941556 
L 327.185274 303.878819 
L 330.232716 302.709016 
L 333.237476 301.433571 
L 336.195894 300.054038 
L 339.104364 298.572099 
L 341.959343 296.989558 
L 344.757353 295.308344 
L 347.494986 293.530505 
L 350.168905 291.658206 
L 352.775852 289.69373 
L 355.312653 287.63947 
L 357.776215 285.497928 
L 360.163538 283.271713 
L 362.471713 280.963538 
L 364.697928 278.576215 
L 366.83947 276.112653 
L 368.89373 273.575852 
L 370.858206 270.968905 
L 372.730505 268.294986 
L 374.508344 265.557353 
L 376.189558 262.759343 
L 377.772099 259.904364 
L 379.254038 256.995894 
L 380.633571 254.037476 
L 381.909016 251.032716 
L 383.078819 247.985274 
L 384.141556 244.898863 
L 385.095931 241.777243 
L 385.940781 238.624218 
L 386.675078 235.443628 
L 387.297927 232.239349 
L 387.808569 229.015286 
L 388.206381 225.775365 
L 388.490879 222.523534 
L 388.661717 219.263755 
L 388.718686 216 
L 388.718686 216 
" style="fill:none;stroke:#000000;stroke-dasharray:1.000000,3.000000;stroke-dashoffset:0.0;stroke-width:0.5;"/>
     </g>
     <g id="text_22">
      <!-- 45 -->
      <g transform="translate(381.6 177.716323211)scale(0.12 -0.12)">
       <use xlink:href="#BitstreamVeraSans-Roman-34"/>
       <use x="63.623046875" xlink:href="#BitstreamVeraSans-Roman-35"/>
      </g>
     </g>
    </g>
    <g id="ytick_5">
     <g id="line2d_49">
      <path clip-path="url(#pd7b9b1accf)" d="M 358.44919 216 
L 358.41066 213.792635 
L 358.295118 211.58796 
L 357.833653 207.197414 
L 357.067043 202.849754 
L 355.999023 198.566161 
L 354.634797 194.367503 
L 352.98101 190.274237 
L 351.04572 186.306304 
L 348.838355 182.483036 
L 346.369669 178.823059 
L 343.65169 175.344204 
L 340.69766 172.063421 
L 337.521969 168.996692 
L 334.140089 166.158958 
L 330.568498 163.564045 
L 326.824595 161.224595 
L 322.92662 159.152005 
L 318.893564 157.356372 
L 314.745075 155.846446 
L 310.501364 154.629581 
L 306.183107 153.711708 
L 301.811341 153.097296 
L 297.407365 152.78934 
L 292.992635 152.78934 
L 288.588659 153.097296 
L 284.216893 153.711708 
L 279.898636 154.629581 
L 275.654925 155.846446 
L 271.506436 157.356372 
L 267.47338 159.152005 
L 263.575405 161.224595 
L 259.831502 163.564045 
L 256.259911 166.158958 
L 252.878031 168.996692 
L 249.70234 172.063421 
L 246.74831 175.344204 
L 244.030331 178.823059 
L 241.561645 182.483036 
L 239.35428 186.306304 
L 237.41899 190.274237 
L 235.765203 194.367503 
L 234.400977 198.566161 
L 233.332957 202.849754 
L 232.566347 207.197414 
L 232.104882 211.58796 
L 231.95081 216 
L 232.104882 220.41204 
L 232.566347 224.802586 
L 233.332957 229.150246 
L 234.400977 233.433839 
L 235.765203 237.632497 
L 237.41899 241.725763 
L 239.35428 245.693696 
L 241.561645 249.516964 
L 244.030331 253.176941 
L 246.74831 256.655796 
L 249.70234 259.936579 
L 252.878031 263.003308 
L 256.259911 265.841042 
L 259.831502 268.435955 
L 263.575405 270.775405 
L 267.47338 272.847995 
L 271.506436 274.643628 
L 275.654925 276.153554 
L 279.898636 277.370419 
L 284.216893 278.288292 
L 288.588659 278.902704 
L 292.992635 279.21066 
L 297.407365 279.21066 
L 301.811341 278.902704 
L 306.183107 278.288292 
L 310.501364 277.370419 
L 314.745075 276.153554 
L 318.893564 274.643628 
L 322.92662 272.847995 
L 326.824595 270.775405 
L 330.568498 268.435955 
L 334.140089 265.841042 
L 337.521969 263.003308 
L 340.69766 259.936579 
L 343.65169 256.655796 
L 346.369669 253.176941 
L 348.838355 249.516964 
L 351.04572 245.693696 
L 352.98101 241.725763 
L 354.634797 237.632497 
L 355.999023 233.433839 
L 357.067043 229.150246 
L 357.833653 224.802586 
L 358.295118 220.41204 
L 358.44919 216 
L 358.44919 216 
" style="fill:none;stroke:#000000;stroke-dasharray:1.000000,3.000000;stroke-dashoffset:0.0;stroke-width:0.5;"/>
     </g>
     <g id="text_23">
      <!-- 60 -->
      <g transform="translate(353.63463188 189.299957963)scale(0.12 -0.12)">
       <use xlink:href="#BitstreamVeraSans-Roman-36"/>
       <use x="63.623046875" xlink:href="#BitstreamVeraSans-Roman-30"/>
      </g>
     </g>
    </g>
    <g id="ytick_6">
     <g id="line2d_50">
      <path clip-path="url(#pd7b9b1accf)" d="M 327.097482 216 
L 327.078051 214.886794 
L 327.019782 213.774944 
L 326.787058 211.560728 
L 326.400446 209.368141 
L 325.861828 207.207862 
L 325.173829 205.090419 
L 324.3398 203.026125 
L 323.363805 201.025039 
L 322.250599 199.09691 
L 321.005605 197.25113 
L 319.634889 195.496694 
L 318.145129 193.842147 
L 316.543582 192.295551 
L 314.838051 190.864441 
L 313.036846 189.555789 
L 311.148741 188.37597 
L 309.182936 187.330733 
L 307.149007 186.425169 
L 305.056864 185.663692 
L 302.916699 185.050009 
L 300.73894 184.587112 
L 298.534195 184.277255 
L 296.313206 184.121949 
L 294.086794 184.121949 
L 291.865805 184.277255 
L 289.66106 184.587112 
L 287.483301 185.050009 
L 285.343136 185.663692 
L 283.250993 186.425169 
L 281.217064 187.330733 
L 279.251259 188.37597 
L 277.363154 189.555789 
L 275.561949 190.864441 
L 273.856418 192.295551 
L 272.254871 193.842147 
L 270.765111 195.496694 
L 269.394395 197.25113 
L 268.149401 199.09691 
L 267.036195 201.025039 
L 266.0602 203.026125 
L 265.226171 205.090419 
L 264.538172 207.207862 
L 263.999554 209.368141 
L 263.612942 211.560728 
L 263.380218 213.774944 
L 263.302518 216 
L 263.380218 218.225056 
L 263.612942 220.439272 
L 263.999554 222.631859 
L 264.538172 224.792138 
L 265.226171 226.909581 
L 266.0602 228.973875 
L 267.036195 230.974961 
L 268.149401 232.90309 
L 269.394395 234.74887 
L 270.765111 236.503306 
L 272.254871 238.157853 
L 273.856418 239.704449 
L 275.561949 241.135559 
L 277.363154 242.444211 
L 279.251259 243.62403 
L 281.217064 244.669267 
L 283.250993 245.574831 
L 285.343136 246.336308 
L 287.483301 246.949991 
L 289.66106 247.412888 
L 291.865805 247.722745 
L 294.086794 247.878051 
L 296.313206 247.878051 
L 298.534195 247.722745 
L 300.73894 247.412888 
L 302.916699 246.949991 
L 305.056864 246.336308 
L 307.149007 245.574831 
L 309.182936 244.669267 
L 311.148741 243.62403 
L 313.036846 242.444211 
L 314.838051 241.135559 
L 316.543582 239.704449 
L 318.145129 238.157853 
L 319.634889 236.503306 
L 321.005605 234.74887 
L 322.250599 232.90309 
L 323.363805 230.974961 
L 324.3398 228.973875 
L 325.173829 226.909581 
L 325.861828 224.792138 
L 326.400446 222.631859 
L 326.787058 220.439272 
L 327.019782 218.225056 
L 327.097482 216 
L 327.097482 216 
" style="fill:none;stroke:#000000;stroke-dasharray:1.000000,3.000000;stroke-dashoffset:0.0;stroke-width:0.5;"/>
     </g>
     <g id="text_24">
      <!-- 75 -->
      <defs>
       <path d="M 8.203125 72.90625 
L 55.078125 72.90625 
L 55.078125 68.703125 
L 28.609375 0 
L 18.3125 0 
L 43.21875 64.59375 
L 8.203125 64.59375 
z
" id="BitstreamVeraSans-Roman-37"/>
      </defs>
      <g transform="translate(324.669431008 201.297737001)scale(0.12 -0.12)">
       <use xlink:href="#BitstreamVeraSans-Roman-37"/>
       <use x="63.623046875" xlink:href="#BitstreamVeraSans-Roman-35"/>
      </g>
     </g>
    </g>
   </g>
  </g>
 </g>
 <defs>
  <clipPath id="pd7b9b1accf">
   <path d="M 295.2 388.8 
C 341.027096 388.8 384.983402 370.592702 417.388052 338.188052 
C 449.792702 305.783402 468 261.827096 468 216 
C 468 170.172904 449.792702 126.216598 417.388052 93.811948 
C 384.983402 61.407298 341.027096 43.2 295.2 43.2 
C 249.372904 43.2 205.416598 61.407298 173.011948 93.811948 
C 140.607298 126.216598 122.4 170.172904 122.4 216 
C 122.4 261.827096 140.607298 305.783402 173.011948 338.188052 
C 205.416598 370.592702 249.372904 388.8 295.2 388.8 
z
"/>
  </clipPath>
 </defs>
</svg>
