<?xml version="1.0" encoding="utf-8" standalone="no"?>
<!DOCTYPE svg PUBLIC "-//W3C//DTD SVG 1.1//EN"
  "http://www.w3.org/Graphics/SVG/1.1/DTD/svg11.dtd">
<!-- Created with matplotlib (http://matplotlib.org/) -->
<svg height="288pt" version="1.1" viewBox="0 0 432 288" width="432pt" xmlns="http://www.w3.org/2000/svg" xmlns:xlink="http://www.w3.org/1999/xlink">
 <defs>
  <style type="text/css">
*{stroke-linecap:butt;stroke-linejoin:round;stroke-miterlimit:100000;}
  </style>
 </defs>
 <g id="figure_1">
  <g id="patch_1">
   <path d="M 0 288 
L 432 288 
L 432 0 
L 0 0 
z
" style="fill:#ffffff;"/>
  </g>
  <g id="axes_1">
   <g id="patch_2">
    <path d="M 221.4 252 
C 250.996666 252 279.385114 240.24112 300.313117 219.313117 
C 321.24112 198.385114 333 169.996666 333 140.4 
C 333 110.803334 321.24112 82.414886 300.313117 61.486883 
C 279.385114 40.55888 250.996666 28.8 221.4 28.8 
C 191.803334 28.8 163.414886 40.55888 142.486883 61.486883 
C 121.55888 82.414886 109.8 110.803334 109.8 140.4 
C 109.8 169.996666 121.55888 198.385114 142.486883 219.313117 
C 163.414886 240.24112 191.803334 252 221.4 252 
z
" style="fill:#ffffff;"/>
   </g>
   <g id="line2d_1">
    <path clip-path="url(#p8581993b60)" d="M 333 140.4 
" style="fill:none;stroke:#0000ff;stroke-linecap:square;"/>
   </g>
   <g id="line2d_2">
    <path clip-path="url(#p8581993b60)" d="M 287.66452 178.657838 
" style="fill:none;opacity:0.6;stroke:#008000;stroke-linecap:square;stroke-width:0.4;"/>
    <defs>
     <path d="M 0 3 
C 0.795609 3 1.55874 2.683901 2.12132 2.12132 
C 2.683901 1.55874 3 0.795609 3 0 
C 3 -0.795609 2.683901 -1.55874 2.12132 -2.12132 
C 1.55874 -2.683901 0.795609 -3 0 -3 
C -0.795609 -3 -1.55874 -2.683901 -2.12132 -2.12132 
C -2.683901 -1.55874 -3 -0.795609 -3 0 
C -3 0.795609 -2.683901 1.55874 -2.12132 2.12132 
C -1.55874 2.683901 -0.795609 3 0 3 
z
" id="m5a0eab20c8" style="stroke:#000000;stroke-width:0.5;"/>
    </defs>
    <g clip-path="url(#p8581993b60)">
     <use style="fill:#008000;opacity:0.6;stroke:#000000;stroke-width:0.5;" x="287.664519513" xlink:href="#m5a0eab20c8" y="178.657838179"/>
    </g>
   </g>
   <g id="line2d_3">
    <path clip-path="url(#p8581993b60)" d="M 290.721536 169.825246 
" style="fill:none;opacity:0.6;stroke:#008000;stroke-linecap:square;stroke-width:0.4;"/>
    <g clip-path="url(#p8581993b60)">
     <use style="fill:#008000;opacity:0.6;stroke:#000000;stroke-width:0.5;" x="290.721535937" xlink:href="#m5a0eab20c8" y="169.825246226"/>
    </g>
   </g>
   <g id="line2d_4">
    <path clip-path="url(#p8581993b60)" d="M 291.300549 171.521729 
" style="fill:none;opacity:0.6;stroke:#008000;stroke-linecap:square;stroke-width:0.4;"/>
    <g clip-path="url(#p8581993b60)">
     <use style="fill:#008000;opacity:0.6;stroke:#000000;stroke-width:0.5;" x="291.300548575" xlink:href="#m5a0eab20c8" y="171.521729344"/>
    </g>
   </g>
   <g id="line2d_5">
    <path clip-path="url(#p8581993b60)" d="M 290.721536 169.825246 
" style="fill:none;opacity:0.6;stroke:#008000;stroke-linecap:square;stroke-width:0.4;"/>
    <g clip-path="url(#p8581993b60)">
     <use style="fill:#008000;opacity:0.6;stroke:#000000;stroke-width:0.5;" x="290.721535937" xlink:href="#m5a0eab20c8" y="169.825246226"/>
    </g>
   </g>
   <g id="line2d_6">
    <path clip-path="url(#p8581993b60)" d="M 292.3441 169.063277 
" style="fill:none;opacity:0.6;stroke:#008000;stroke-linecap:square;stroke-width:0.4;"/>
    <g clip-path="url(#p8581993b60)">
     <use style="fill:#008000;opacity:0.6;stroke:#000000;stroke-width:0.5;" x="292.34409974" xlink:href="#m5a0eab20c8" y="169.063276863"/>
    </g>
   </g>
   <g id="line2d_7">
    <path clip-path="url(#p8581993b60)" d="M 288.016776 180.427397 
" style="fill:none;opacity:0.6;stroke:#008000;stroke-linecap:square;stroke-width:0.4;"/>
    <g clip-path="url(#p8581993b60)">
     <use style="fill:#008000;opacity:0.6;stroke:#000000;stroke-width:0.5;" x="288.016776095" xlink:href="#m5a0eab20c8" y="180.427397322"/>
    </g>
   </g>
   <g id="line2d_8">
    <path clip-path="url(#p8581993b60)" d="M 283.866962 177.933938 
" style="fill:none;opacity:0.6;stroke:#008000;stroke-linecap:square;stroke-width:0.4;"/>
    <g clip-path="url(#p8581993b60)">
     <use style="fill:#008000;opacity:0.6;stroke:#000000;stroke-width:0.5;" x="283.866962332" xlink:href="#m5a0eab20c8" y="177.933937655"/>
    </g>
   </g>
   <g id="line2d_9">
    <path clip-path="url(#p8581993b60)" d="M 284.236063 179.66433 
" style="fill:none;opacity:0.6;stroke:#008000;stroke-linecap:square;stroke-width:0.4;"/>
    <g clip-path="url(#p8581993b60)">
     <use style="fill:#008000;opacity:0.6;stroke:#000000;stroke-width:0.5;" x="284.236063065" xlink:href="#m5a0eab20c8" y="179.664330004"/>
    </g>
   </g>
   <g id="line2d_10">
    <path clip-path="url(#p8581993b60)" d="M 267.642886 129.723989 
" style="fill:none;opacity:0.6;stroke:#0000ff;stroke-linecap:square;stroke-width:0.5;"/>
    <defs>
     <path d="M -0 4.242641 
L 2.545584 0 
L 0 -4.242641 
L -2.545584 -0 
z
" id="m7c6b04d128" style="stroke:#000000;stroke-linejoin:miter;stroke-width:0.5;"/>
    </defs>
    <g clip-path="url(#p8581993b60)">
     <use style="fill:#0000ff;opacity:0.6;stroke:#000000;stroke-linejoin:miter;stroke-width:0.5;" x="267.642885891" xlink:href="#m7c6b04d128" y="129.723988582"/>
    </g>
   </g>
   <g id="line2d_11">
    <path clip-path="url(#p8581993b60)" d="M 267.987303 131.344346 
" style="fill:none;opacity:0.6;stroke:#0000ff;stroke-linecap:square;stroke-width:0.5;"/>
    <g clip-path="url(#p8581993b60)">
     <use style="fill:#0000ff;opacity:0.6;stroke:#000000;stroke-linejoin:miter;stroke-width:0.5;" x="267.987303399" xlink:href="#m7c6b04d128" y="131.344345563"/>
    </g>
   </g>
   <g id="line2d_12">
    <path clip-path="url(#p8581993b60)" d="M 267.449521 128.918565 
" style="fill:none;opacity:0.6;stroke:#0000ff;stroke-linecap:square;stroke-width:0.5;"/>
    <g clip-path="url(#p8581993b60)">
     <use style="fill:#0000ff;opacity:0.6;stroke:#000000;stroke-linejoin:miter;stroke-width:0.5;" x="267.449520785" xlink:href="#m7c6b04d128" y="128.918564951"/>
    </g>
   </g>
   <g id="line2d_13">
    <path clip-path="url(#p8581993b60)" d="M 270.195477 129.134676 
" style="fill:none;opacity:0.6;stroke:#0000ff;stroke-linecap:square;stroke-width:0.5;"/>
    <g clip-path="url(#p8581993b60)">
     <use style="fill:#0000ff;opacity:0.6;stroke:#000000;stroke-linejoin:miter;stroke-width:0.5;" x="270.195477317" xlink:href="#m7c6b04d128" y="129.134676417"/>
    </g>
   </g>
   <g id="line2d_14">
    <path clip-path="url(#p8581993b60)" d="M 265.971609 128.457073 
" style="fill:none;opacity:0.6;stroke:#0000ff;stroke-linecap:square;stroke-width:0.5;"/>
    <g clip-path="url(#p8581993b60)">
     <use style="fill:#0000ff;opacity:0.6;stroke:#000000;stroke-linejoin:miter;stroke-width:0.5;" x="265.971608841" xlink:href="#m7c6b04d128" y="128.457073406"/>
    </g>
   </g>
   <g id="line2d_15">
    <path clip-path="url(#p8581993b60)" d="M 268.281683 126.956894 
" style="fill:none;opacity:0.6;stroke:#0000ff;stroke-linecap:square;stroke-width:0.5;"/>
    <g clip-path="url(#p8581993b60)">
     <use style="fill:#0000ff;opacity:0.6;stroke:#000000;stroke-linejoin:miter;stroke-width:0.5;" x="268.281682953" xlink:href="#m7c6b04d128" y="126.956893737"/>
    </g>
   </g>
   <g id="line2d_16">
    <path clip-path="url(#p8581993b60)" d="M 250.177101 124.631939 
" style="fill:none;opacity:0.6;stroke:#ff0000;stroke-linecap:square;stroke-width:0.5;"/>
    <defs>
     <path d="M -3 3 
L 3 3 
L 3 -3 
L -3 -3 
z
" id="m7d9b9059fc" style="stroke:#000000;stroke-linejoin:miter;stroke-width:0.5;"/>
    </defs>
    <g clip-path="url(#p8581993b60)">
     <use style="fill:#ff0000;opacity:0.6;stroke:#000000;stroke-linejoin:miter;stroke-width:0.5;" x="250.177100894" xlink:href="#m7d9b9059fc" y="124.631938953"/>
    </g>
   </g>
   <g id="line2d_17">
    <path clip-path="url(#p8581993b60)" d="M 248.885655 125.082825 
" style="fill:none;opacity:0.6;stroke:#ff0000;stroke-linecap:square;stroke-width:0.5;"/>
    <g clip-path="url(#p8581993b60)">
     <use style="fill:#ff0000;opacity:0.6;stroke:#000000;stroke-linejoin:miter;stroke-width:0.5;" x="248.885655019" xlink:href="#m7d9b9059fc" y="125.082825308"/>
    </g>
   </g>
   <g id="line2d_18">
    <path clip-path="url(#p8581993b60)" d="M 251.157605 123.625608 
" style="fill:none;opacity:0.6;stroke:#ff0000;stroke-linecap:square;stroke-width:0.5;"/>
    <g clip-path="url(#p8581993b60)">
     <use style="fill:#ff0000;opacity:0.6;stroke:#000000;stroke-linejoin:miter;stroke-width:0.5;" x="251.157605057" xlink:href="#m7d9b9059fc" y="123.625607936"/>
    </g>
   </g>
   <g id="line2d_19">
    <path clip-path="url(#p8581993b60)" d="M 248.696474 124.748176 
" style="fill:none;opacity:0.6;stroke:#ff0000;stroke-linecap:square;stroke-width:0.5;"/>
    <g clip-path="url(#p8581993b60)">
     <use style="fill:#ff0000;opacity:0.6;stroke:#000000;stroke-linejoin:miter;stroke-width:0.5;" x="248.696473819" xlink:href="#m7d9b9059fc" y="124.748176164"/>
    </g>
   </g>
   <g id="line2d_20">
    <path clip-path="url(#p8581993b60)" d="M 250.606753 122.683881 
" style="fill:none;opacity:0.6;stroke:#ff0000;stroke-linecap:square;stroke-width:0.5;"/>
    <g clip-path="url(#p8581993b60)">
     <use style="fill:#ff0000;opacity:0.6;stroke:#000000;stroke-linejoin:miter;stroke-width:0.5;" x="250.606752954" xlink:href="#m7d9b9059fc" y="122.683881074"/>
    </g>
   </g>
   <g id="line2d_21">
    <path clip-path="url(#p8581993b60)" d="M 252.518584 120.674394 
" style="fill:none;opacity:0.6;stroke:#ff0000;stroke-linecap:square;stroke-width:0.5;"/>
    <g clip-path="url(#p8581993b60)">
     <use style="fill:#ff0000;opacity:0.6;stroke:#000000;stroke-linejoin:miter;stroke-width:0.5;" x="252.518583917" xlink:href="#m7d9b9059fc" y="120.674394329"/>
    </g>
   </g>
   <g id="line2d_22">
    <path clip-path="url(#p8581993b60)" d="M 251.974468 56.397341 
" style="fill:none;opacity:0.6;stroke:#ffff00;stroke-linecap:square;stroke-width:0.5;"/>
    <defs>
     <path d="M 0 -3 
L -3 3 
L 3 3 
z
" id="m2e9f31c634" style="stroke:#000000;stroke-linejoin:miter;stroke-width:0.5;"/>
    </defs>
    <g clip-path="url(#p8581993b60)">
     <use style="fill:#ffff00;opacity:0.6;stroke:#000000;stroke-linejoin:miter;stroke-width:0.5;" x="251.974467647" xlink:href="#m2e9f31c634" y="56.3973405278"/>
    </g>
   </g>
   <g id="line2d_23">
    <path clip-path="url(#p8581993b60)" d="M 253.027874 58.00657 
" style="fill:none;opacity:0.6;stroke:#ffff00;stroke-linecap:square;stroke-width:0.5;"/>
    <g clip-path="url(#p8581993b60)">
     <use style="fill:#ffff00;opacity:0.6;stroke:#000000;stroke-linejoin:miter;stroke-width:0.5;" x="253.027874405" xlink:href="#m2e9f31c634" y="58.0065702468"/>
    </g>
   </g>
   <g id="line2d_24">
    <path clip-path="url(#p8581993b60)" d="M 254.032031 59.632889 
" style="fill:none;opacity:0.6;stroke:#ffff00;stroke-linecap:square;stroke-width:0.5;"/>
    <g clip-path="url(#p8581993b60)">
     <use style="fill:#ffff00;opacity:0.6;stroke:#000000;stroke-linejoin:miter;stroke-width:0.5;" x="254.032031132" xlink:href="#m2e9f31c634" y="59.6328887445"/>
    </g>
   </g>
   <g id="line2d_25">
    <path clip-path="url(#p8581993b60)" d="M 256.328926 58.112607 
" style="fill:none;opacity:0.6;stroke:#ffff00;stroke-linecap:square;stroke-width:0.5;"/>
    <g clip-path="url(#p8581993b60)">
     <use style="fill:#ffff00;opacity:0.6;stroke:#000000;stroke-linejoin:miter;stroke-width:0.5;" x="256.328925912" xlink:href="#m2e9f31c634" y="58.112607254"/>
    </g>
   </g>
   <g id="patch_3">
    <path d="M 221.4 252 
C 250.996666 252 279.385114 240.24112 300.313117 219.313117 
C 321.24112 198.385114 333 169.996666 333 140.4 
C 333 110.803334 321.24112 82.414886 300.313117 61.486883 
C 279.385114 40.55888 250.996666 28.8 221.4 28.8 
C 191.803334 28.8 163.414886 40.55888 142.486883 61.486883 
C 121.55888 82.414886 109.8 110.803334 109.8 140.4 
C 109.8 169.996666 121.55888 198.385114 142.486883 219.313117 
C 163.414886 240.24112 191.803334 252 221.4 252 
L 221.4 252 
z
" style="fill:none;stroke:#000000;stroke-linecap:square;stroke-linejoin:miter;"/>
   </g>
   <g id="matplotlib.axis_1">
    <g id="xtick_1">
     <g id="line2d_26">
      <path clip-path="url(#p8581993b60)" d="M 221.4 140.4 
L 221.4 28.8 
" style="fill:none;stroke:#000000;stroke-dasharray:1.000000,3.000000;stroke-dashoffset:0.0;stroke-width:0.5;"/>
     </g>
     <g id="text_1">
      <!-- 0 -->
      <defs>
       <path d="M 31.78125 66.40625 
Q 24.171875 66.40625 20.328125 58.90625 
Q 16.5 51.421875 16.5 36.375 
Q 16.5 21.390625 20.328125 13.890625 
Q 24.171875 6.390625 31.78125 6.390625 
Q 39.453125 6.390625 43.28125 13.890625 
Q 47.125 21.390625 47.125 36.375 
Q 47.125 51.421875 43.28125 58.90625 
Q 39.453125 66.40625 31.78125 66.40625 
M 31.78125 74.21875 
Q 44.046875 74.21875 50.515625 64.515625 
Q 56.984375 54.828125 56.984375 36.375 
Q 56.984375 17.96875 50.515625 8.265625 
Q 44.046875 -1.421875 31.78125 -1.421875 
Q 19.53125 -1.421875 13.0625 8.265625 
Q 6.59375 17.96875 6.59375 36.375 
Q 6.59375 54.828125 13.0625 64.515625 
Q 19.53125 74.21875 31.78125 74.21875 
" id="BitstreamVeraSans-Roman-30"/>
      </defs>
      <g transform="translate(218.21875 20.399375)scale(0.1 -0.1)">
       <use xlink:href="#BitstreamVeraSans-Roman-30"/>
      </g>
     </g>
    </g>
    <g id="xtick_2">
     <g id="line2d_27">
      <path clip-path="url(#p8581993b60)" d="M 221.4 140.4 
L 277.2 43.751565 
" style="fill:none;stroke:#000000;stroke-dasharray:1.000000,3.000000;stroke-dashoffset:0.0;stroke-width:0.5;"/>
     </g>
     <g id="text_2">
      <!-- 30 -->
      <defs>
       <path d="M 40.578125 39.3125 
Q 47.65625 37.796875 51.625 33 
Q 55.609375 28.21875 55.609375 21.1875 
Q 55.609375 10.40625 48.1875 4.484375 
Q 40.765625 -1.421875 27.09375 -1.421875 
Q 22.515625 -1.421875 17.65625 -0.515625 
Q 12.796875 0.390625 7.625 2.203125 
L 7.625 11.71875 
Q 11.71875 9.328125 16.59375 8.109375 
Q 21.484375 6.890625 26.8125 6.890625 
Q 36.078125 6.890625 40.9375 10.546875 
Q 45.796875 14.203125 45.796875 21.1875 
Q 45.796875 27.640625 41.28125 31.265625 
Q 36.765625 34.90625 28.71875 34.90625 
L 20.21875 34.90625 
L 20.21875 43.015625 
L 29.109375 43.015625 
Q 36.375 43.015625 40.234375 45.921875 
Q 44.09375 48.828125 44.09375 54.296875 
Q 44.09375 59.90625 40.109375 62.90625 
Q 36.140625 65.921875 28.71875 65.921875 
Q 24.65625 65.921875 20.015625 65.03125 
Q 15.375 64.15625 9.8125 62.3125 
L 9.8125 71.09375 
Q 15.4375 72.65625 20.34375 73.4375 
Q 25.25 74.21875 29.59375 74.21875 
Q 40.828125 74.21875 47.359375 69.109375 
Q 53.90625 64.015625 53.90625 55.328125 
Q 53.90625 49.265625 50.4375 45.09375 
Q 46.96875 40.921875 40.578125 39.3125 
" id="BitstreamVeraSans-Roman-33"/>
      </defs>
      <g transform="translate(276.4175 36.8460964314)scale(0.1 -0.1)">
       <use xlink:href="#BitstreamVeraSans-Roman-33"/>
       <use x="63.623046875" xlink:href="#BitstreamVeraSans-Roman-30"/>
      </g>
     </g>
    </g>
    <g id="xtick_3">
     <g id="line2d_28">
      <path clip-path="url(#p8581993b60)" d="M 221.4 140.4 
L 318.048435 84.6 
" style="fill:none;stroke:#000000;stroke-dasharray:1.000000,3.000000;stroke-dashoffset:0.0;stroke-width:0.5;"/>
     </g>
     <g id="text_3">
      <!-- 60 -->
      <defs>
       <path d="M 33.015625 40.375 
Q 26.375 40.375 22.484375 35.828125 
Q 18.609375 31.296875 18.609375 23.390625 
Q 18.609375 15.53125 22.484375 10.953125 
Q 26.375 6.390625 33.015625 6.390625 
Q 39.65625 6.390625 43.53125 10.953125 
Q 47.40625 15.53125 47.40625 23.390625 
Q 47.40625 31.296875 43.53125 35.828125 
Q 39.65625 40.375 33.015625 40.375 
M 52.59375 71.296875 
L 52.59375 62.3125 
Q 48.875 64.0625 45.09375 64.984375 
Q 41.3125 65.921875 37.59375 65.921875 
Q 27.828125 65.921875 22.671875 59.328125 
Q 17.53125 52.734375 16.796875 39.40625 
Q 19.671875 43.65625 24.015625 45.921875 
Q 28.375 48.1875 33.59375 48.1875 
Q 44.578125 48.1875 50.953125 41.515625 
Q 57.328125 34.859375 57.328125 23.390625 
Q 57.328125 12.15625 50.6875 5.359375 
Q 44.046875 -1.421875 33.015625 -1.421875 
Q 20.359375 -1.421875 13.671875 8.265625 
Q 6.984375 17.96875 6.984375 36.375 
Q 6.984375 53.65625 15.1875 63.9375 
Q 23.390625 74.21875 37.203125 74.21875 
Q 40.921875 74.21875 44.703125 73.484375 
Q 48.484375 72.75 52.59375 71.296875 
" id="BitstreamVeraSans-Roman-36"/>
      </defs>
      <g transform="translate(321.350778569 81.779375)scale(0.1 -0.1)">
       <use xlink:href="#BitstreamVeraSans-Roman-36"/>
       <use x="63.623046875" xlink:href="#BitstreamVeraSans-Roman-30"/>
      </g>
     </g>
    </g>
    <g id="xtick_4">
     <g id="line2d_29">
      <path clip-path="url(#p8581993b60)" d="M 221.4 140.4 
L 333 140.4 
" style="fill:none;stroke:#000000;stroke-dasharray:1.000000,3.000000;stroke-dashoffset:0.0;stroke-width:0.5;"/>
     </g>
     <g id="text_4">
      <!-- 90 -->
      <defs>
       <path d="M 10.984375 1.515625 
L 10.984375 10.5 
Q 14.703125 8.734375 18.5 7.8125 
Q 22.3125 6.890625 25.984375 6.890625 
Q 35.75 6.890625 40.890625 13.453125 
Q 46.046875 20.015625 46.78125 33.40625 
Q 43.953125 29.203125 39.59375 26.953125 
Q 35.25 24.703125 29.984375 24.703125 
Q 19.046875 24.703125 12.671875 31.3125 
Q 6.296875 37.9375 6.296875 49.421875 
Q 6.296875 60.640625 12.9375 67.421875 
Q 19.578125 74.21875 30.609375 74.21875 
Q 43.265625 74.21875 49.921875 64.515625 
Q 56.59375 54.828125 56.59375 36.375 
Q 56.59375 19.140625 48.40625 8.859375 
Q 40.234375 -1.421875 26.421875 -1.421875 
Q 22.703125 -1.421875 18.890625 -0.6875 
Q 15.09375 0.046875 10.984375 1.515625 
M 30.609375 32.421875 
Q 37.25 32.421875 41.125 36.953125 
Q 45.015625 41.5 45.015625 49.421875 
Q 45.015625 57.28125 41.125 61.84375 
Q 37.25 66.40625 30.609375 66.40625 
Q 23.96875 66.40625 20.09375 61.84375 
Q 16.21875 57.28125 16.21875 49.421875 
Q 16.21875 41.5 20.09375 36.953125 
Q 23.96875 32.421875 30.609375 32.421875 
" id="BitstreamVeraSans-Roman-39"/>
      </defs>
      <g transform="translate(337.7975 143.159375)scale(0.1 -0.1)">
       <use xlink:href="#BitstreamVeraSans-Roman-39"/>
       <use x="63.623046875" xlink:href="#BitstreamVeraSans-Roman-30"/>
      </g>
     </g>
    </g>
    <g id="xtick_5">
     <g id="line2d_30">
      <path clip-path="url(#p8581993b60)" d="M 221.4 140.4 
L 318.048435 196.2 
" style="fill:none;stroke:#000000;stroke-dasharray:1.000000,3.000000;stroke-dashoffset:0.0;stroke-width:0.5;"/>
     </g>
     <g id="text_5">
      <!-- 120 -->
      <defs>
       <path d="M 12.40625 8.296875 
L 28.515625 8.296875 
L 28.515625 63.921875 
L 10.984375 60.40625 
L 10.984375 69.390625 
L 28.421875 72.90625 
L 38.28125 72.90625 
L 38.28125 8.296875 
L 54.390625 8.296875 
L 54.390625 0 
L 12.40625 0 
z
" id="BitstreamVeraSans-Roman-31"/>
       <path d="M 19.1875 8.296875 
L 53.609375 8.296875 
L 53.609375 0 
L 7.328125 0 
L 7.328125 8.296875 
Q 12.9375 14.109375 22.625 23.890625 
Q 32.328125 33.6875 34.8125 36.53125 
Q 39.546875 41.84375 41.421875 45.53125 
Q 43.3125 49.21875 43.3125 52.78125 
Q 43.3125 58.59375 39.234375 62.25 
Q 35.15625 65.921875 28.609375 65.921875 
Q 23.96875 65.921875 18.8125 64.3125 
Q 13.671875 62.703125 7.8125 59.421875 
L 7.8125 69.390625 
Q 13.765625 71.78125 18.9375 73 
Q 24.125 74.21875 28.421875 74.21875 
Q 39.75 74.21875 46.484375 68.546875 
Q 53.21875 62.890625 53.21875 53.421875 
Q 53.21875 48.921875 51.53125 44.890625 
Q 49.859375 40.875 45.40625 35.40625 
Q 44.1875 33.984375 37.640625 27.21875 
Q 31.109375 20.453125 19.1875 8.296875 
" id="BitstreamVeraSans-Roman-32"/>
      </defs>
      <g transform="translate(318.169528569 204.539375)scale(0.1 -0.1)">
       <use xlink:href="#BitstreamVeraSans-Roman-31"/>
       <use x="63.623046875" xlink:href="#BitstreamVeraSans-Roman-32"/>
       <use x="127.24609375" xlink:href="#BitstreamVeraSans-Roman-30"/>
      </g>
     </g>
    </g>
    <g id="xtick_6">
     <g id="line2d_31">
      <path clip-path="url(#p8581993b60)" d="M 221.4 140.4 
L 277.2 237.048435 
" style="fill:none;stroke:#000000;stroke-dasharray:1.000000,3.000000;stroke-dashoffset:0.0;stroke-width:0.5;"/>
     </g>
     <g id="text_6">
      <!-- 150 -->
      <defs>
       <path d="M 10.796875 72.90625 
L 49.515625 72.90625 
L 49.515625 64.59375 
L 19.828125 64.59375 
L 19.828125 46.734375 
Q 21.96875 47.46875 24.109375 47.828125 
Q 26.265625 48.1875 28.421875 48.1875 
Q 40.625 48.1875 47.75 41.5 
Q 54.890625 34.8125 54.890625 23.390625 
Q 54.890625 11.625 47.5625 5.09375 
Q 40.234375 -1.421875 26.90625 -1.421875 
Q 22.3125 -1.421875 17.546875 -0.640625 
Q 12.796875 0.140625 7.71875 1.703125 
L 7.71875 11.625 
Q 12.109375 9.234375 16.796875 8.0625 
Q 21.484375 6.890625 26.703125 6.890625 
Q 35.15625 6.890625 40.078125 11.328125 
Q 45.015625 15.765625 45.015625 23.390625 
Q 45.015625 31 40.078125 35.4375 
Q 35.15625 39.890625 26.703125 39.890625 
Q 22.75 39.890625 18.8125 39.015625 
Q 14.890625 38.140625 10.796875 36.28125 
z
" id="BitstreamVeraSans-Roman-35"/>
      </defs>
      <g transform="translate(273.23625 249.472653569)scale(0.1 -0.1)">
       <use xlink:href="#BitstreamVeraSans-Roman-31"/>
       <use x="63.623046875" xlink:href="#BitstreamVeraSans-Roman-35"/>
       <use x="127.24609375" xlink:href="#BitstreamVeraSans-Roman-30"/>
      </g>
     </g>
    </g>
    <g id="xtick_7">
     <g id="line2d_32">
      <path clip-path="url(#p8581993b60)" d="M 221.4 140.4 
L 221.4 252 
" style="fill:none;stroke:#000000;stroke-dasharray:1.000000,3.000000;stroke-dashoffset:0.0;stroke-width:0.5;"/>
     </g>
     <g id="text_7">
      <!-- 180 -->
      <defs>
       <path d="M 31.78125 34.625 
Q 24.75 34.625 20.71875 30.859375 
Q 16.703125 27.09375 16.703125 20.515625 
Q 16.703125 13.921875 20.71875 10.15625 
Q 24.75 6.390625 31.78125 6.390625 
Q 38.8125 6.390625 42.859375 10.171875 
Q 46.921875 13.96875 46.921875 20.515625 
Q 46.921875 27.09375 42.890625 30.859375 
Q 38.875 34.625 31.78125 34.625 
M 21.921875 38.8125 
Q 15.578125 40.375 12.03125 44.71875 
Q 8.5 49.078125 8.5 55.328125 
Q 8.5 64.0625 14.71875 69.140625 
Q 20.953125 74.21875 31.78125 74.21875 
Q 42.671875 74.21875 48.875 69.140625 
Q 55.078125 64.0625 55.078125 55.328125 
Q 55.078125 49.078125 51.53125 44.71875 
Q 48 40.375 41.703125 38.8125 
Q 48.828125 37.15625 52.796875 32.3125 
Q 56.78125 27.484375 56.78125 20.515625 
Q 56.78125 9.90625 50.3125 4.234375 
Q 43.84375 -1.421875 31.78125 -1.421875 
Q 19.734375 -1.421875 13.25 4.234375 
Q 6.78125 9.90625 6.78125 20.515625 
Q 6.78125 27.484375 10.78125 32.3125 
Q 14.796875 37.15625 21.921875 38.8125 
M 18.3125 54.390625 
Q 18.3125 48.734375 21.84375 45.5625 
Q 25.390625 42.390625 31.78125 42.390625 
Q 38.140625 42.390625 41.71875 45.5625 
Q 45.3125 48.734375 45.3125 54.390625 
Q 45.3125 60.0625 41.71875 63.234375 
Q 38.140625 66.40625 31.78125 66.40625 
Q 25.390625 66.40625 21.84375 63.234375 
Q 18.3125 60.0625 18.3125 54.390625 
" id="BitstreamVeraSans-Roman-38"/>
      </defs>
      <g transform="translate(211.85625 265.919375)scale(0.1 -0.1)">
       <use xlink:href="#BitstreamVeraSans-Roman-31"/>
       <use x="63.623046875" xlink:href="#BitstreamVeraSans-Roman-38"/>
       <use x="127.24609375" xlink:href="#BitstreamVeraSans-Roman-30"/>
      </g>
     </g>
    </g>
    <g id="xtick_8">
     <g id="line2d_33">
      <path clip-path="url(#p8581993b60)" d="M 221.4 140.4 
L 165.6 237.048435 
" style="fill:none;stroke:#000000;stroke-dasharray:1.000000,3.000000;stroke-dashoffset:0.0;stroke-width:0.5;"/>
     </g>
     <g id="text_8">
      <!-- 210 -->
      <g transform="translate(150.47625 249.472653569)scale(0.1 -0.1)">
       <use xlink:href="#BitstreamVeraSans-Roman-32"/>
       <use x="63.623046875" xlink:href="#BitstreamVeraSans-Roman-31"/>
       <use x="127.24609375" xlink:href="#BitstreamVeraSans-Roman-30"/>
      </g>
     </g>
    </g>
    <g id="xtick_9">
     <g id="line2d_34">
      <path clip-path="url(#p8581993b60)" d="M 221.4 140.4 
L 124.751565 196.2 
" style="fill:none;stroke:#000000;stroke-dasharray:1.000000,3.000000;stroke-dashoffset:0.0;stroke-width:0.5;"/>
     </g>
     <g id="text_9">
      <!-- 240 -->
      <defs>
       <path d="M 37.796875 64.3125 
L 12.890625 25.390625 
L 37.796875 25.390625 
z
M 35.203125 72.90625 
L 47.609375 72.90625 
L 47.609375 25.390625 
L 58.015625 25.390625 
L 58.015625 17.1875 
L 47.609375 17.1875 
L 47.609375 0 
L 37.796875 0 
L 37.796875 17.1875 
L 4.890625 17.1875 
L 4.890625 26.703125 
z
" id="BitstreamVeraSans-Roman-34"/>
      </defs>
      <g transform="translate(105.542971431 204.539375)scale(0.1 -0.1)">
       <use xlink:href="#BitstreamVeraSans-Roman-32"/>
       <use x="63.623046875" xlink:href="#BitstreamVeraSans-Roman-34"/>
       <use x="127.24609375" xlink:href="#BitstreamVeraSans-Roman-30"/>
      </g>
     </g>
    </g>
    <g id="xtick_10">
     <g id="line2d_35">
      <path clip-path="url(#p8581993b60)" d="M 221.4 140.4 
L 109.8 140.4 
" style="fill:none;stroke:#000000;stroke-dasharray:1.000000,3.000000;stroke-dashoffset:0.0;stroke-width:0.5;"/>
     </g>
     <g id="text_10">
      <!-- 270 -->
      <defs>
       <path d="M 8.203125 72.90625 
L 55.078125 72.90625 
L 55.078125 68.703125 
L 28.609375 0 
L 18.3125 0 
L 43.21875 64.59375 
L 8.203125 64.59375 
z
" id="BitstreamVeraSans-Roman-37"/>
      </defs>
      <g transform="translate(89.09625 143.159375)scale(0.1 -0.1)">
       <use xlink:href="#BitstreamVeraSans-Roman-32"/>
       <use x="63.623046875" xlink:href="#BitstreamVeraSans-Roman-37"/>
       <use x="127.24609375" xlink:href="#BitstreamVeraSans-Roman-30"/>
      </g>
     </g>
    </g>
    <g id="xtick_11">
     <g id="line2d_36">
      <path clip-path="url(#p8581993b60)" d="M 221.4 140.4 
L 124.751565 84.6 
" style="fill:none;stroke:#000000;stroke-dasharray:1.000000,3.000000;stroke-dashoffset:0.0;stroke-width:0.5;"/>
     </g>
     <g id="text_11">
      <!-- 300 -->
      <g transform="translate(105.542971431 81.779375)scale(0.1 -0.1)">
       <use xlink:href="#BitstreamVeraSans-Roman-33"/>
       <use x="63.623046875" xlink:href="#BitstreamVeraSans-Roman-30"/>
       <use x="127.24609375" xlink:href="#BitstreamVeraSans-Roman-30"/>
      </g>
     </g>
    </g>
    <g id="xtick_12">
     <g id="line2d_37">
      <path clip-path="url(#p8581993b60)" d="M 221.4 140.4 
L 165.6 43.751565 
" style="fill:none;stroke:#000000;stroke-dasharray:1.000000,3.000000;stroke-dashoffset:0.0;stroke-width:0.5;"/>
     </g>
     <g id="text_12">
      <!-- 330 -->
      <g transform="translate(150.47625 36.8460964314)scale(0.1 -0.1)">
       <use xlink:href="#BitstreamVeraSans-Roman-33"/>
       <use x="63.623046875" xlink:href="#BitstreamVeraSans-Roman-33"/>
       <use x="127.24609375" xlink:href="#BitstreamVeraSans-Roman-30"/>
      </g>
     </g>
    </g>
   </g>
   <g id="matplotlib.axis_2">
    <g id="ytick_1">
     <g id="line2d_38">
      <path clip-path="url(#p8581993b60)" d="M 333 140.4 
L 332.932016 136.505216 
L 332.728148 132.615178 
L 332.388644 128.734623 
L 331.913916 124.868282 
L 331.304545 121.020863 
L 330.561272 117.197055 
L 329.685003 113.401516 
L 328.676805 109.638871 
L 327.537907 105.913703 
L 326.269696 102.230552 
L 324.873718 98.593904 
L 323.351673 95.008191 
L 321.705416 91.47778 
L 319.936951 88.006974 
L 318.048435 84.6 
L 316.042168 81.26101 
L 313.920593 77.994072 
L 311.686297 74.803166 
L 309.342 71.692179 
L 306.89056 68.664903 
L 304.334963 65.725024 
L 301.678322 62.876126 
L 298.923874 60.121678 
L 296.074976 57.465037 
L 293.135097 54.90944 
L 290.107821 52.458 
L 286.996834 50.113703 
L 283.805928 47.879407 
L 280.53899 45.757832 
L 277.2 43.751565 
L 273.793026 41.863049 
L 270.32222 40.094584 
L 266.791809 38.448327 
L 263.206096 36.926282 
L 259.569448 35.530304 
L 255.886297 34.262093 
L 252.161129 33.123195 
L 248.398484 32.114997 
L 244.602945 31.238728 
L 240.779137 30.495455 
L 236.931718 29.886084 
L 233.065377 29.411356 
L 229.184822 29.071852 
L 225.294784 28.867984 
L 221.4 28.8 
L 217.505216 28.867984 
L 213.615178 29.071852 
L 209.734623 29.411356 
L 205.868282 29.886084 
L 202.020863 30.495455 
L 198.197055 31.238728 
L 194.401516 32.114997 
L 190.638871 33.123195 
L 186.913703 34.262093 
L 183.230552 35.530304 
L 179.593904 36.926282 
L 176.008191 38.448327 
L 172.47778 40.094584 
L 169.006974 41.863049 
L 165.6 43.751565 
L 162.26101 45.757832 
L 158.994072 47.879407 
L 155.803166 50.113703 
L 152.692179 52.458 
L 149.664903 54.90944 
L 146.725024 57.465037 
L 143.876126 60.121678 
L 141.121678 62.876126 
L 138.465037 65.725024 
L 135.90944 68.664903 
L 133.458 71.692179 
L 131.113703 74.803166 
L 128.879407 77.994072 
L 126.757832 81.26101 
L 124.751565 84.6 
L 122.863049 88.006974 
L 121.094584 91.47778 
L 119.448327 95.008191 
L 117.926282 98.593904 
L 116.530304 102.230552 
L 115.262093 105.913703 
L 114.123195 109.638871 
L 113.114997 113.401516 
L 112.238728 117.197055 
L 111.495455 121.020863 
L 110.886084 124.868282 
L 110.411356 128.734623 
L 110.071852 132.615178 
L 109.867984 136.505216 
L 109.8 140.4 
L 109.867984 144.294784 
L 110.071852 148.184822 
L 110.411356 152.065377 
L 110.886084 155.931718 
L 111.495455 159.779137 
L 112.238728 163.602945 
L 113.114997 167.398484 
L 114.123195 171.161129 
L 115.262093 174.886297 
L 116.530304 178.569448 
L 117.926282 182.206096 
L 119.448327 185.791809 
L 121.094584 189.32222 
L 122.863049 192.793026 
L 124.751565 196.2 
L 126.757832 199.53899 
L 128.879407 202.805928 
L 131.113703 205.996834 
L 133.458 209.107821 
L 135.90944 212.135097 
L 138.465037 215.074976 
L 141.121678 217.923874 
L 143.876126 220.678322 
L 146.725024 223.334963 
L 149.664903 225.89056 
L 152.692179 228.342 
L 155.803166 230.686297 
L 158.994072 232.920593 
L 162.26101 235.042168 
L 165.6 237.048435 
L 169.006974 238.936951 
L 172.47778 240.705416 
L 176.008191 242.351673 
L 179.593904 243.873718 
L 183.230552 245.269696 
L 186.913703 246.537907 
L 190.638871 247.676805 
L 194.401516 248.685003 
L 198.197055 249.561272 
L 202.020863 250.304545 
L 205.868282 250.913916 
L 209.734623 251.388644 
L 213.615178 251.728148 
L 217.505216 251.932016 
L 221.4 252 
L 225.294784 251.932016 
L 229.184822 251.728148 
L 233.065377 251.388644 
L 236.931718 250.913916 
L 240.779137 250.304545 
L 244.602945 249.561272 
L 248.398484 248.685003 
L 252.161129 247.676805 
L 255.886297 246.537907 
L 259.569448 245.269696 
L 263.206096 243.873718 
L 266.791809 242.351673 
L 270.32222 240.705416 
L 273.793026 238.936951 
L 277.2 237.048435 
L 280.53899 235.042168 
L 283.805928 232.920593 
L 286.996834 230.686297 
L 290.107821 228.342 
L 293.135097 225.89056 
L 296.074976 223.334963 
L 298.923874 220.678322 
L 301.678322 217.923874 
L 304.334963 215.074976 
L 306.89056 212.135097 
L 309.342 209.107821 
L 311.686297 205.996834 
L 313.920593 202.805928 
L 316.042168 199.53899 
L 318.048435 196.2 
L 319.936951 192.793026 
L 321.705416 189.32222 
L 323.351673 185.791809 
L 324.873718 182.206096 
L 326.269696 178.569448 
L 327.537907 174.886297 
L 328.676805 171.161129 
L 329.685003 167.398484 
L 330.561272 163.602945 
L 331.304545 159.779137 
L 331.913916 155.931718 
L 332.388644 152.065377 
L 332.728148 148.184822 
L 332.932016 144.294784 
L 333 140.4 
L 333 140.4 
" style="fill:none;stroke:#000000;stroke-dasharray:1.000000,3.000000;stroke-dashoffset:0.0;stroke-width:0.5;"/>
     </g>
     <g id="text_13">
      <!-- 0 -->
      <g transform="translate(324.504955828 95.6128414481)scale(0.1 -0.1)">
       <use xlink:href="#BitstreamVeraSans-Roman-30"/>
      </g>
     </g>
    </g>
    <g id="ytick_2">
     <g id="line2d_39">
      <path clip-path="url(#p8581993b60)" d="M 317.478523 140.4 
L 317.419995 137.046908 
L 317.244481 133.697901 
L 316.952195 130.35706 
L 316.543494 127.028454 
L 316.018875 123.716139 
L 315.378977 120.424152 
L 314.624581 117.156501 
L 313.756604 113.91717 
L 312.776106 110.710103 
L 311.68428 107.53921 
L 310.482456 104.408352 
L 309.172099 101.321344 
L 307.754805 98.281947 
L 306.232301 95.293865 
L 304.606442 92.360738 
L 302.879209 89.48614 
L 301.052706 86.673571 
L 299.129158 83.926461 
L 297.11091 81.248154 
L 295.000419 78.641916 
L 292.800258 76.110919 
L 290.513106 73.658249 
L 288.141751 71.286894 
L 285.689081 68.999742 
L 283.158084 66.799581 
L 280.551846 64.68909 
L 277.873539 62.670842 
L 275.126429 60.747294 
L 272.31386 58.920791 
L 269.439262 57.193558 
L 266.506135 55.567699 
L 263.518053 54.045195 
L 260.478656 52.627901 
L 257.391648 51.317544 
L 254.26079 50.11572 
L 251.089897 49.023894 
L 247.88283 48.043396 
L 244.643499 47.175419 
L 241.375848 46.421023 
L 238.083861 45.781125 
L 234.771546 45.256506 
L 231.44294 44.847805 
L 228.102099 44.555519 
L 224.753092 44.380005 
L 221.4 44.321477 
L 218.046908 44.380005 
L 214.697901 44.555519 
L 211.35706 44.847805 
L 208.028454 45.256506 
L 204.716139 45.781125 
L 201.424152 46.421023 
L 198.156501 47.175419 
L 194.91717 48.043396 
L 191.710103 49.023894 
L 188.53921 50.11572 
L 185.408352 51.317544 
L 182.321344 52.627901 
L 179.281947 54.045195 
L 176.293865 55.567699 
L 173.360738 57.193558 
L 170.48614 58.920791 
L 167.673571 60.747294 
L 164.926461 62.670842 
L 162.248154 64.68909 
L 159.641916 66.799581 
L 157.110919 68.999742 
L 154.658249 71.286894 
L 152.286894 73.658249 
L 149.999742 76.110919 
L 147.799581 78.641916 
L 145.68909 81.248154 
L 143.670842 83.926461 
L 141.747294 86.673571 
L 139.920791 89.48614 
L 138.193558 92.360738 
L 136.567699 95.293865 
L 135.045195 98.281947 
L 133.627901 101.321344 
L 132.317544 104.408352 
L 131.11572 107.53921 
L 130.023894 110.710103 
L 129.043396 113.91717 
L 128.175419 117.156501 
L 127.421023 120.424152 
L 126.781125 123.716139 
L 126.256506 127.028454 
L 125.847805 130.35706 
L 125.555519 133.697901 
L 125.380005 137.046908 
L 125.321477 140.4 
L 125.380005 143.753092 
L 125.555519 147.102099 
L 125.847805 150.44294 
L 126.256506 153.771546 
L 126.781125 157.083861 
L 127.421023 160.375848 
L 128.175419 163.643499 
L 129.043396 166.88283 
L 130.023894 170.089897 
L 131.11572 173.26079 
L 132.317544 176.391648 
L 133.627901 179.478656 
L 135.045195 182.518053 
L 136.567699 185.506135 
L 138.193558 188.439262 
L 139.920791 191.31386 
L 141.747294 194.126429 
L 143.670842 196.873539 
L 145.68909 199.551846 
L 147.799581 202.158084 
L 149.999742 204.689081 
L 152.286894 207.141751 
L 154.658249 209.513106 
L 157.110919 211.800258 
L 159.641916 214.000419 
L 162.248154 216.11091 
L 164.926461 218.129158 
L 167.673571 220.052706 
L 170.48614 221.879209 
L 173.360738 223.606442 
L 176.293865 225.232301 
L 179.281947 226.754805 
L 182.321344 228.172099 
L 185.408352 229.482456 
L 188.53921 230.68428 
L 191.710103 231.776106 
L 194.91717 232.756604 
L 198.156501 233.624581 
L 201.424152 234.378977 
L 204.716139 235.018875 
L 208.028454 235.543494 
L 211.35706 235.952195 
L 214.697901 236.244481 
L 218.046908 236.419995 
L 221.4 236.478523 
L 224.753092 236.419995 
L 228.102099 236.244481 
L 231.44294 235.952195 
L 234.771546 235.543494 
L 238.083861 235.018875 
L 241.375848 234.378977 
L 244.643499 233.624581 
L 247.88283 232.756604 
L 251.089897 231.776106 
L 254.26079 230.68428 
L 257.391648 229.482456 
L 260.478656 228.172099 
L 263.518053 226.754805 
L 266.506135 225.232301 
L 269.439262 223.606442 
L 272.31386 221.879209 
L 275.126429 220.052706 
L 277.873539 218.129158 
L 280.551846 216.11091 
L 283.158084 214.000419 
L 285.689081 211.800258 
L 288.141751 209.513106 
L 290.513106 207.141751 
L 292.800258 204.689081 
L 295.000419 202.158084 
L 297.11091 199.551846 
L 299.129158 196.873539 
L 301.052706 194.126429 
L 302.879209 191.31386 
L 304.606442 188.439262 
L 306.232301 185.506135 
L 307.754805 182.518053 
L 309.172099 179.478656 
L 310.482456 176.391648 
L 311.68428 173.26079 
L 312.776106 170.089897 
L 313.756604 166.88283 
L 314.624581 163.643499 
L 315.378977 160.375848 
L 316.018875 157.083861 
L 316.543494 153.771546 
L 316.952195 150.44294 
L 317.244481 147.102099 
L 317.419995 143.753092 
L 317.478523 140.4 
L 317.478523 140.4 
" style="fill:none;stroke:#000000;stroke-dasharray:1.000000,3.000000;stroke-dashoffset:0.0;stroke-width:0.5;"/>
     </g>
     <g id="text_14">
      <!-- 15 -->
      <g transform="translate(310.164981355 101.552653359)scale(0.1 -0.1)">
       <use xlink:href="#BitstreamVeraSans-Roman-31"/>
       <use x="63.623046875" xlink:href="#BitstreamVeraSans-Roman-35"/>
      </g>
     </g>
    </g>
    <g id="ytick_3">
     <g id="line2d_40">
      <path clip-path="url(#p8581993b60)" d="M 300.313117 140.4 
L 300.265045 137.645972 
L 300.120888 134.895299 
L 299.54514 129.417417 
L 298.588676 123.99304 
L 297.256156 118.648597 
L 295.554074 113.410124 
L 293.490719 108.303144 
L 291.076147 103.352536 
L 288.322118 98.582419 
L 285.242053 94.016034 
L 281.850955 89.675626 
L 278.165346 85.582343 
L 274.203182 81.756126 
L 269.983766 78.215615 
L 265.527655 74.978061 
L 260.856558 72.059236 
L 255.993233 69.47336 
L 250.961374 67.233032 
L 245.785494 65.349166 
L 240.490811 63.83094 
L 235.103119 62.685751 
L 229.648667 61.919178 
L 224.154028 61.534955 
L 218.645972 61.534955 
L 213.151333 61.919178 
L 207.696881 62.685751 
L 202.309189 63.83094 
L 197.014506 65.349166 
L 191.838626 67.233032 
L 186.806767 69.47336 
L 181.943442 72.059236 
L 177.272345 74.978061 
L 172.816234 78.215615 
L 168.596818 81.756126 
L 164.634654 85.582343 
L 160.949045 89.675626 
L 157.557947 94.016034 
L 154.477882 98.582419 
L 151.723853 103.352536 
L 149.309281 108.303144 
L 147.245926 113.410124 
L 145.543844 118.648597 
L 144.211324 123.99304 
L 143.25486 129.417417 
L 142.679112 134.895299 
L 142.486883 140.4 
L 142.679112 145.904701 
L 143.25486 151.382583 
L 144.211324 156.80696 
L 145.543844 162.151403 
L 147.245926 167.389876 
L 149.309281 172.496856 
L 151.723853 177.447464 
L 154.477882 182.217581 
L 157.557947 186.783966 
L 160.949045 191.124374 
L 164.634654 195.217657 
L 168.596818 199.043874 
L 172.816234 202.584385 
L 177.272345 205.821939 
L 181.943442 208.740764 
L 186.806767 211.32664 
L 191.838626 213.566968 
L 197.014506 215.450834 
L 202.309189 216.96906 
L 207.696881 218.114249 
L 213.151333 218.880822 
L 218.645972 219.265045 
L 224.154028 219.265045 
L 229.648667 218.880822 
L 235.103119 218.114249 
L 240.490811 216.96906 
L 245.785494 215.450834 
L 250.961374 213.566968 
L 255.993233 211.32664 
L 260.856558 208.740764 
L 265.527655 205.821939 
L 269.983766 202.584385 
L 274.203182 199.043874 
L 278.165346 195.217657 
L 281.850955 191.124374 
L 285.242053 186.783966 
L 288.322118 182.217581 
L 291.076147 177.447464 
L 293.490719 172.496856 
L 295.554074 167.389876 
L 297.256156 162.151403 
L 298.588676 156.80696 
L 299.54514 151.382583 
L 300.120888 145.904701 
L 300.313117 140.4 
L 300.313117 140.4 
" style="fill:none;stroke:#000000;stroke-dasharray:1.000000,3.000000;stroke-dashoffset:0.0;stroke-width:0.5;"/>
     </g>
     <g id="text_15">
      <!-- 30 -->
      <g transform="translate(294.30621344 108.121570112)scale(0.1 -0.1)">
       <use xlink:href="#BitstreamVeraSans-Roman-33"/>
       <use x="63.623046875" xlink:href="#BitstreamVeraSans-Roman-30"/>
      </g>
     </g>
    </g>
    <g id="ytick_4">
     <g id="line2d_41">
      <path clip-path="url(#p8581993b60)" d="M 281.797485 140.4 
L 281.760692 138.292158 
L 281.65036 136.186884 
L 281.209701 131.994295 
L 280.477655 127.842657 
L 279.457789 123.752197 
L 278.155071 119.742844 
L 276.575848 115.83413 
L 274.727814 112.045098 
L 272.619972 108.394209 
L 270.262592 104.899249 
L 267.667158 101.577245 
L 264.846315 98.444382 
L 261.813806 95.515922 
L 258.584405 92.806133 
L 255.173845 90.328216 
L 251.598742 88.094244 
L 247.876515 86.1151 
L 244.025296 84.400427 
L 240.063849 82.958579 
L 236.011474 81.796579 
L 231.887913 80.920089 
L 227.713256 80.333379 
L 223.507842 80.039308 
L 219.292158 80.039308 
L 215.086744 80.333379 
L 210.912087 80.920089 
L 206.788526 81.796579 
L 202.736151 82.958579 
L 198.774704 84.400427 
L 194.923485 86.1151 
L 191.201258 88.094244 
L 187.626155 90.328216 
L 184.215595 92.806133 
L 180.986194 95.515922 
L 177.953685 98.444382 
L 175.132842 101.577245 
L 172.537408 104.899249 
L 170.180028 108.394209 
L 168.072186 112.045098 
L 166.224152 115.83413 
L 164.644929 119.742844 
L 163.342211 123.752197 
L 162.322345 127.842657 
L 161.590299 131.994295 
L 161.14964 136.186884 
L 161.002515 140.4 
L 161.14964 144.613116 
L 161.590299 148.805705 
L 162.322345 152.957343 
L 163.342211 157.047803 
L 164.644929 161.057156 
L 166.224152 164.96587 
L 168.072186 168.754902 
L 170.180028 172.405791 
L 172.537408 175.900751 
L 175.132842 179.222755 
L 177.953685 182.355618 
L 180.986194 185.284078 
L 184.215595 187.993867 
L 187.626155 190.471784 
L 191.201258 192.705756 
L 194.923485 194.6849 
L 198.774704 196.399573 
L 202.736151 197.841421 
L 206.788526 199.003421 
L 210.912087 199.879911 
L 215.086744 200.466621 
L 219.292158 200.760692 
L 223.507842 200.760692 
L 227.713256 200.466621 
L 231.887913 199.879911 
L 236.011474 199.003421 
L 240.063849 197.841421 
L 244.025296 196.399573 
L 247.876515 194.6849 
L 251.598742 192.705756 
L 255.173845 190.471784 
L 258.584405 187.993867 
L 261.813806 185.284078 
L 264.846315 182.355618 
L 267.667158 179.222755 
L 270.262592 175.900751 
L 272.619972 172.405791 
L 274.727814 168.754902 
L 276.575848 164.96587 
L 278.155071 161.057156 
L 279.457789 157.047803 
L 280.477655 152.957343 
L 281.209701 148.805705 
L 281.65036 144.613116 
L 281.797485 140.4 
L 281.797485 140.4 
" style="fill:none;stroke:#000000;stroke-dasharray:1.000000,3.000000;stroke-dashoffset:0.0;stroke-width:0.5;"/>
     </g>
     <g id="text_16">
      <!-- 45 -->
      <g transform="translate(277.2 115.20719572)scale(0.1 -0.1)">
       <use xlink:href="#BitstreamVeraSans-Roman-34"/>
       <use x="63.623046875" xlink:href="#BitstreamVeraSans-Roman-35"/>
      </g>
     </g>
    </g>
    <g id="ytick_5">
     <g id="line2d_42">
      <path clip-path="url(#p8581993b60)" d="M 262.248435 140.4 
L 262.223551 138.97441 
L 262.14893 137.550557 
L 261.850901 134.714997 
L 261.355799 131.907133 
L 260.666036 129.140645 
L 259.784973 126.429012 
L 258.716902 123.785445 
L 257.467027 121.222821 
L 256.041438 118.753627 
L 254.447078 116.389892 
L 252.691717 114.143132 
L 250.783905 112.024293 
L 248.732938 110.043697 
L 246.548808 108.210994 
L 244.242155 106.535113 
L 241.824218 105.024218 
L 239.306775 103.68567 
L 236.702093 102.525991 
L 234.022861 101.55083 
L 231.282131 100.764938 
L 228.493256 100.172144 
L 225.669824 99.775337 
L 222.82559 99.576449 
L 219.97441 99.576449 
L 217.130176 99.775337 
L 214.306744 100.172144 
L 211.517869 100.764938 
L 208.777139 101.55083 
L 206.097907 102.525991 
L 203.493225 103.68567 
L 200.975782 105.024218 
L 198.557845 106.535113 
L 196.251192 108.210994 
L 194.067062 110.043697 
L 192.016095 112.024293 
L 190.108283 114.143132 
L 188.352922 116.389892 
L 186.758562 118.753627 
L 185.332973 121.222821 
L 184.083098 123.785445 
L 183.015027 126.429012 
L 182.133964 129.140645 
L 181.444201 131.907133 
L 180.949099 134.714997 
L 180.65107 137.550557 
L 180.551565 140.4 
L 180.65107 143.249443 
L 180.949099 146.085003 
L 181.444201 148.892867 
L 182.133964 151.659355 
L 183.015027 154.370988 
L 184.083098 157.014555 
L 185.332973 159.577179 
L 186.758562 162.046373 
L 188.352922 164.410108 
L 190.108283 166.656868 
L 192.016095 168.775707 
L 194.067062 170.756303 
L 196.251192 172.589006 
L 198.557845 174.264887 
L 200.975782 175.775782 
L 203.493225 177.11433 
L 206.097907 178.274009 
L 208.777139 179.24917 
L 211.517869 180.035062 
L 214.306744 180.627856 
L 217.130176 181.024663 
L 219.97441 181.223551 
L 222.82559 181.223551 
L 225.669824 181.024663 
L 228.493256 180.627856 
L 231.282131 180.035062 
L 234.022861 179.24917 
L 236.702093 178.274009 
L 239.306775 177.11433 
L 241.824218 175.775782 
L 244.242155 174.264887 
L 246.548808 172.589006 
L 248.732938 170.756303 
L 250.783905 168.775707 
L 252.691717 166.656868 
L 254.447078 164.410108 
L 256.041438 162.046373 
L 257.467027 159.577179 
L 258.716902 157.014555 
L 259.784973 154.370988 
L 260.666036 151.659355 
L 261.355799 148.892867 
L 261.850901 146.085003 
L 262.14893 143.249443 
L 262.248435 140.4 
L 262.248435 140.4 
" style="fill:none;stroke:#000000;stroke-dasharray:1.000000,3.000000;stroke-dashoffset:0.0;stroke-width:0.5;"/>
     </g>
     <g id="text_17">
      <!-- 60 -->
      <g transform="translate(259.139033089 122.688293164)scale(0.1 -0.1)">
       <use xlink:href="#BitstreamVeraSans-Roman-36"/>
       <use x="63.623046875" xlink:href="#BitstreamVeraSans-Roman-30"/>
      </g>
     </g>
    </g>
    <g id="ytick_6">
     <g id="line2d_43">
      <path clip-path="url(#p8581993b60)" d="M 242.000457 140.4 
L 241.887606 138.246666 
L 241.550288 136.116924 
L 240.992199 134.034109 
L 240.219454 132.021039 
L 239.240519 130.099771 
L 238.06612 128.291355 
L 236.709123 126.615604 
L 235.184396 125.090877 
L 233.508645 123.73388 
L 231.700229 122.559481 
L 229.778961 121.580546 
L 227.765891 120.807801 
L 225.683076 120.249712 
L 223.553334 119.912394 
L 221.4 119.799543 
L 219.246666 119.912394 
L 217.116924 120.249712 
L 215.034109 120.807801 
L 213.021039 121.580546 
L 211.099771 122.559481 
L 209.291355 123.73388 
L 207.615604 125.090877 
L 206.090877 126.615604 
L 204.73388 128.291355 
L 203.559481 130.099771 
L 202.580546 132.021039 
L 201.807801 134.034109 
L 201.249712 136.116924 
L 200.912394 138.246666 
L 200.799543 140.4 
L 200.912394 142.553334 
L 201.249712 144.683076 
L 201.807801 146.765891 
L 202.580546 148.778961 
L 203.559481 150.700229 
L 204.73388 152.508645 
L 206.090877 154.184396 
L 207.615604 155.709123 
L 209.291355 157.06612 
L 211.099771 158.240519 
L 213.021039 159.219454 
L 215.034109 159.992199 
L 217.116924 160.550288 
L 219.246666 160.887606 
L 221.4 161.000457 
L 223.553334 160.887606 
L 225.683076 160.550288 
L 227.765891 159.992199 
L 229.778961 159.219454 
L 231.700229 158.240519 
L 233.508645 157.06612 
L 235.184396 155.709123 
L 236.709123 154.184396 
L 238.06612 152.508645 
L 239.240519 150.700229 
L 240.219454 148.778961 
L 240.992199 146.765891 
L 241.550288 144.683076 
L 241.887606 142.553334 
L 242.000457 140.4 
L 242.000457 140.4 
" style="fill:none;stroke:#000000;stroke-dasharray:1.000000,3.000000;stroke-dashoffset:0.0;stroke-width:0.5;"/>
     </g>
     <g id="text_18">
      <!-- 75 -->
      <g transform="translate(240.432340859 130.436858792)scale(0.1 -0.1)">
       <use xlink:href="#BitstreamVeraSans-Roman-37"/>
       <use x="63.623046875" xlink:href="#BitstreamVeraSans-Roman-35"/>
      </g>
     </g>
    </g>
   </g>
   <g id="legend_1">
    <g id="patch_4">
     <path d="M 350.971875 177.4275 
L 438.6 177.4275 
L 438.6 103.3725 
L 350.971875 103.3725 
z
" style="fill:#ffffff;stroke:#000000;stroke-linejoin:miter;"/>
    </g>
    <g id="line2d_44">
     <path d="M 359.371875 113.090625 
L 376.171875 113.090625 
" style="fill:none;opacity:0.6;stroke:#008000;stroke-linecap:square;stroke-width:0.4;"/>
    </g>
    <g id="line2d_45">
     <g>
      <use style="fill:#008000;opacity:0.6;stroke:#000000;stroke-width:0.5;" x="359.371875" xlink:href="#m5a0eab20c8" y="113.090625"/>
      <use style="fill:#008000;opacity:0.6;stroke:#000000;stroke-width:0.5;" x="376.171875" xlink:href="#m5a0eab20c8" y="113.090625"/>
     </g>
    </g>
    <g id="text_19">
     <!-- Group1 -->
     <defs>
      <path d="M 59.515625 10.40625 
L 59.515625 29.984375 
L 43.40625 29.984375 
L 43.40625 38.09375 
L 69.28125 38.09375 
L 69.28125 6.78125 
Q 63.578125 2.734375 56.6875 0.65625 
Q 49.8125 -1.421875 42 -1.421875 
Q 24.90625 -1.421875 15.25 8.5625 
Q 5.609375 18.5625 5.609375 36.375 
Q 5.609375 54.25 15.25 64.234375 
Q 24.90625 74.21875 42 74.21875 
Q 49.125 74.21875 55.546875 72.453125 
Q 61.96875 70.703125 67.390625 67.28125 
L 67.390625 56.78125 
Q 61.921875 61.421875 55.765625 63.765625 
Q 49.609375 66.109375 42.828125 66.109375 
Q 29.4375 66.109375 22.71875 58.640625 
Q 16.015625 51.171875 16.015625 36.375 
Q 16.015625 21.625 22.71875 14.15625 
Q 29.4375 6.6875 42.828125 6.6875 
Q 48.046875 6.6875 52.140625 7.59375 
Q 56.25 8.5 59.515625 10.40625 
" id="BitstreamVeraSans-Roman-47"/>
      <path d="M 30.609375 48.390625 
Q 23.390625 48.390625 19.1875 42.75 
Q 14.984375 37.109375 14.984375 27.296875 
Q 14.984375 17.484375 19.15625 11.84375 
Q 23.34375 6.203125 30.609375 6.203125 
Q 37.796875 6.203125 41.984375 11.859375 
Q 46.1875 17.53125 46.1875 27.296875 
Q 46.1875 37.015625 41.984375 42.703125 
Q 37.796875 48.390625 30.609375 48.390625 
M 30.609375 56 
Q 42.328125 56 49.015625 48.375 
Q 55.71875 40.765625 55.71875 27.296875 
Q 55.71875 13.875 49.015625 6.21875 
Q 42.328125 -1.421875 30.609375 -1.421875 
Q 18.84375 -1.421875 12.171875 6.21875 
Q 5.515625 13.875 5.515625 27.296875 
Q 5.515625 40.765625 12.171875 48.375 
Q 18.84375 56 30.609375 56 
" id="BitstreamVeraSans-Roman-6f"/>
      <path d="M 8.5 21.578125 
L 8.5 54.6875 
L 17.484375 54.6875 
L 17.484375 21.921875 
Q 17.484375 14.15625 20.5 10.265625 
Q 23.53125 6.390625 29.59375 6.390625 
Q 36.859375 6.390625 41.078125 11.03125 
Q 45.3125 15.671875 45.3125 23.6875 
L 45.3125 54.6875 
L 54.296875 54.6875 
L 54.296875 0 
L 45.3125 0 
L 45.3125 8.40625 
Q 42.046875 3.421875 37.71875 1 
Q 33.40625 -1.421875 27.6875 -1.421875 
Q 18.265625 -1.421875 13.375 4.4375 
Q 8.5 10.296875 8.5 21.578125 
" id="BitstreamVeraSans-Roman-75"/>
      <path d="M 18.109375 8.203125 
L 18.109375 -20.796875 
L 9.078125 -20.796875 
L 9.078125 54.6875 
L 18.109375 54.6875 
L 18.109375 46.390625 
Q 20.953125 51.265625 25.265625 53.625 
Q 29.59375 56 35.59375 56 
Q 45.5625 56 51.78125 48.09375 
Q 58.015625 40.1875 58.015625 27.296875 
Q 58.015625 14.40625 51.78125 6.484375 
Q 45.5625 -1.421875 35.59375 -1.421875 
Q 29.59375 -1.421875 25.265625 0.953125 
Q 20.953125 3.328125 18.109375 8.203125 
M 48.6875 27.296875 
Q 48.6875 37.203125 44.609375 42.84375 
Q 40.53125 48.484375 33.40625 48.484375 
Q 26.265625 48.484375 22.1875 42.84375 
Q 18.109375 37.203125 18.109375 27.296875 
Q 18.109375 17.390625 22.1875 11.75 
Q 26.265625 6.109375 33.40625 6.109375 
Q 40.53125 6.109375 44.609375 11.75 
Q 48.6875 17.390625 48.6875 27.296875 
" id="BitstreamVeraSans-Roman-70"/>
      <path d="M 41.109375 46.296875 
Q 39.59375 47.171875 37.8125 47.578125 
Q 36.03125 48 33.890625 48 
Q 26.265625 48 22.1875 43.046875 
Q 18.109375 38.09375 18.109375 28.8125 
L 18.109375 0 
L 9.078125 0 
L 9.078125 54.6875 
L 18.109375 54.6875 
L 18.109375 46.1875 
Q 20.953125 51.171875 25.484375 53.578125 
Q 30.03125 56 36.53125 56 
Q 37.453125 56 38.578125 55.875 
Q 39.703125 55.765625 41.0625 55.515625 
z
" id="BitstreamVeraSans-Roman-72"/>
     </defs>
     <g transform="translate(389.371875 117.290625)scale(0.12 -0.12)">
      <use xlink:href="#BitstreamVeraSans-Roman-47"/>
      <use x="77.490234375" xlink:href="#BitstreamVeraSans-Roman-72"/>
      <use x="118.572265625" xlink:href="#BitstreamVeraSans-Roman-6f"/>
      <use x="179.75390625" xlink:href="#BitstreamVeraSans-Roman-75"/>
      <use x="243.1328125" xlink:href="#BitstreamVeraSans-Roman-70"/>
      <use x="306.609375" xlink:href="#BitstreamVeraSans-Roman-31"/>
     </g>
    </g>
    <g id="line2d_46">
     <path d="M 359.371875 130.704375 
L 376.171875 130.704375 
" style="fill:none;opacity:0.6;stroke:#0000ff;stroke-linecap:square;stroke-width:0.5;"/>
    </g>
    <g id="line2d_47">
     <g>
      <use style="fill:#0000ff;opacity:0.6;stroke:#000000;stroke-linejoin:miter;stroke-width:0.5;" x="359.371875" xlink:href="#m7c6b04d128" y="130.704375"/>
      <use style="fill:#0000ff;opacity:0.6;stroke:#000000;stroke-linejoin:miter;stroke-width:0.5;" x="376.171875" xlink:href="#m7c6b04d128" y="130.704375"/>
     </g>
    </g>
    <g id="text_20">
     <!-- Group2 -->
     <g transform="translate(389.371875 134.904375)scale(0.12 -0.12)">
      <use xlink:href="#BitstreamVeraSans-Roman-47"/>
      <use x="77.490234375" xlink:href="#BitstreamVeraSans-Roman-72"/>
      <use x="118.572265625" xlink:href="#BitstreamVeraSans-Roman-6f"/>
      <use x="179.75390625" xlink:href="#BitstreamVeraSans-Roman-75"/>
      <use x="243.1328125" xlink:href="#BitstreamVeraSans-Roman-70"/>
      <use x="306.609375" xlink:href="#BitstreamVeraSans-Roman-32"/>
     </g>
    </g>
    <g id="line2d_48">
     <path d="M 359.371875 148.318125 
L 376.171875 148.318125 
" style="fill:none;opacity:0.6;stroke:#ff0000;stroke-linecap:square;stroke-width:0.5;"/>
    </g>
    <g id="line2d_49">
     <g>
      <use style="fill:#ff0000;opacity:0.6;stroke:#000000;stroke-linejoin:miter;stroke-width:0.5;" x="359.371875" xlink:href="#m7d9b9059fc" y="148.318125"/>
      <use style="fill:#ff0000;opacity:0.6;stroke:#000000;stroke-linejoin:miter;stroke-width:0.5;" x="376.171875" xlink:href="#m7d9b9059fc" y="148.318125"/>
     </g>
    </g>
    <g id="text_21">
     <!-- Group3 -->
     <g transform="translate(389.371875 152.518125)scale(0.12 -0.12)">
      <use xlink:href="#BitstreamVeraSans-Roman-47"/>
      <use x="77.490234375" xlink:href="#BitstreamVeraSans-Roman-72"/>
      <use x="118.572265625" xlink:href="#BitstreamVeraSans-Roman-6f"/>
      <use x="179.75390625" xlink:href="#BitstreamVeraSans-Roman-75"/>
      <use x="243.1328125" xlink:href="#BitstreamVeraSans-Roman-70"/>
      <use x="306.609375" xlink:href="#BitstreamVeraSans-Roman-33"/>
     </g>
    </g>
    <g id="line2d_50">
     <path d="M 359.371875 165.931875 
L 376.171875 165.931875 
" style="fill:none;opacity:0.6;stroke:#ffff00;stroke-linecap:square;stroke-width:0.5;"/>
    </g>
    <g id="line2d_51">
     <g>
      <use style="fill:#ffff00;opacity:0.6;stroke:#000000;stroke-linejoin:miter;stroke-width:0.5;" x="359.371875" xlink:href="#m2e9f31c634" y="165.931875"/>
      <use style="fill:#ffff00;opacity:0.6;stroke:#000000;stroke-linejoin:miter;stroke-width:0.5;" x="376.171875" xlink:href="#m2e9f31c634" y="165.931875"/>
     </g>
    </g>
    <g id="text_22">
     <!-- Group4 -->
     <g transform="translate(389.371875 170.131875)scale(0.12 -0.12)">
      <use xlink:href="#BitstreamVeraSans-Roman-47"/>
      <use x="77.490234375" xlink:href="#BitstreamVeraSans-Roman-72"/>
      <use x="118.572265625" xlink:href="#BitstreamVeraSans-Roman-6f"/>
      <use x="179.75390625" xlink:href="#BitstreamVeraSans-Roman-75"/>
      <use x="243.1328125" xlink:href="#BitstreamVeraSans-Roman-70"/>
      <use x="306.609375" xlink:href="#BitstreamVeraSans-Roman-34"/>
     </g>
    </g>
   </g>
  </g>
 </g>
 <defs>
  <clipPath id="p8581993b60">
   <path d="M 221.4 252 
C 250.996666 252 279.385114 240.24112 300.313117 219.313117 
C 321.24112 198.385114 333 169.996666 333 140.4 
C 333 110.803334 321.24112 82.414886 300.313117 61.486883 
C 279.385114 40.55888 250.996666 28.8 221.4 28.8 
C 191.803334 28.8 163.414886 40.55888 142.486883 61.486883 
C 121.55888 82.414886 109.8 110.803334 109.8 140.4 
C 109.8 169.996666 121.55888 198.385114 142.486883 219.313117 
C 163.414886 240.24112 191.803334 252 221.4 252 
z
"/>
  </clipPath>
 </defs>
</svg>
