<?xml version="1.0" encoding="utf-8" standalone="no"?>
<!DOCTYPE svg PUBLIC "-//W3C//DTD SVG 1.1//EN"
  "http://www.w3.org/Graphics/SVG/1.1/DTD/svg11.dtd">
<!-- Created with matplotlib (http://matplotlib.org/) -->
<svg height="288pt" version="1.1" viewBox="0 0 432 288" width="432pt" xmlns="http://www.w3.org/2000/svg" xmlns:xlink="http://www.w3.org/1999/xlink">
 <defs>
  <style type="text/css">
*{stroke-linecap:butt;stroke-linejoin:round;stroke-miterlimit:100000;}
  </style>
 </defs>
 <g id="figure_1">
  <g id="patch_1">
   <path d="M 0 288 
L 432 288 
L 432 0 
L 0 0 
z
" style="fill:#ffffff;"/>
  </g>
  <g id="axes_1">
   <g id="patch_2">
    <path d="M 221.4 252 
C 250.996666 252 279.385114 240.24112 300.313117 219.313117 
C 321.24112 198.385114 333 169.996666 333 140.4 
C 333 110.803334 321.24112 82.414886 300.313117 61.486883 
C 279.385114 40.55888 250.996666 28.8 221.4 28.8 
C 191.803334 28.8 163.414886 40.55888 142.486883 61.486883 
C 121.55888 82.414886 109.8 110.803334 109.8 140.4 
C 109.8 169.996666 121.55888 198.385114 142.486883 219.313117 
C 163.414886 240.24112 191.803334 252 221.4 252 
z
" style="fill:#ffffff;"/>
   </g>
   <g id="line2d_1">
    <path clip-path="url(#pc6fb03dcbe)" d="M 333 140.4 
" style="fill:none;stroke:#0000ff;stroke-linecap:square;"/>
   </g>
   <g id="line2d_2">
    <path clip-path="url(#pc6fb03dcbe)" d="M 277.2 43.751565 
L 278.254839 45.777657 
L 279.26337 47.799252 
L 282.019881 53.825837 
L 284.391971 59.773954 
L 286.405153 65.620125 
L 288.085416 71.34523 
L 289.458674 76.93426 
L 290.550303 82.376007 
L 291.384756 87.662704 
L 291.985267 92.789636 
L 292.373631 97.75474 
L 292.570053 102.558211 
L 292.565166 108.715227 
L 292.291039 114.597772 
L 291.781615 120.218397 
L 291.065779 125.592082 
L 290.167703 130.73533 
L 289.107244 135.665448 
L 287.900348 140.4 
L 286.204443 146.069654 
L 284.316409 151.49386 
L 282.247012 156.703908 
L 280.001103 161.729057 
L 277.578236 166.596342 
L 274.973102 171.330445 
L 272.175816 175.953609 
L 269.172057 180.485515 
L 265.943104 184.943104 
L 262.46577 189.340278 
L 258.712286 193.687467 
L 254.650174 197.99099 
L 251.15338 201.403469 
L 247.414002 204.786913 
L 243.408856 208.136293 
L 239.113026 211.443068 
L 234.500135 214.694555 
L 229.542764 217.873228 
L 224.213076 220.955969 
L 219.954937 223.187597 
L 215.460849 225.333817 
L 210.72054 227.377225 
L 205.724899 229.297916 
L 200.466394 231.073411 
L 194.939523 232.67865 
L 189.141305 234.086052 
L 183.071781 235.26567 
L 176.734517 236.185438 
L 172.36449 236.637608 
L 167.882067 236.948907 
L 165.6 237.048435 
L 165.6 237.048435 
" style="fill:none;opacity:0.6;stroke:#008000;stroke-linecap:square;stroke-width:0.4;"/>
   </g>
   <g id="line2d_3">
    <path clip-path="url(#pc6fb03dcbe)" d="M 265.005594 37.671658 
L 266.280266 39.597271 
L 267.50738 41.522404 
L 269.82214 45.3662 
L 272.958309 51.098389 
L 275.712708 56.765764 
L 278.110375 62.344865 
L 280.176825 67.816665 
L 281.937494 73.166302 
L 283.41727 78.38273 
L 284.640116 83.458343 
L 285.62878 88.388559 
L 286.40458 93.171408 
L 287.141768 99.319984 
L 287.577743 105.21267 
L 287.749559 110.859273 
L 287.689179 116.272712 
L 287.423757 121.467992 
L 286.975995 126.461392 
L 286.187925 132.445043 
L 285.172273 138.173023 
L 283.949664 143.678089 
L 282.533848 148.991802 
L 280.932496 154.14416 
L 279.147808 159.1634 
L 277.176939 164.075906 
L 275.012259 168.906144 
L 272.641468 173.676599 
L 270.047564 178.407643 
L 267.208708 183.117311 
L 264.09799 187.820923 
L 260.683157 192.53051 
L 256.926318 197.253994 
L 253.645409 201.044794 
L 250.092615 204.844667 
L 246.240456 208.648592 
L 242.059276 212.447458 
L 237.517579 216.227247 
L 232.58257 219.968119 
L 228.60316 222.732501 
L 224.369876 225.446131 
L 219.869325 228.092306 
L 215.089002 230.65148 
L 210.017732 233.101131 
L 204.646171 235.415683 
L 198.967343 237.566514 
L 192.977208 239.522055 
L 186.67525 241.247997 
L 182.302287 242.253023 
L 177.794406 243.128342 
L 177.794406 243.128342 
" style="fill:none;opacity:0.6;stroke:#008000;stroke-linecap:square;stroke-width:0.4;"/>
   </g>
   <g id="line2d_4">
    <path clip-path="url(#pc6fb03dcbe)" d="M 266.791809 38.448327 
L 268.052655 40.353059 
L 269.266974 42.258159 
L 272.638335 47.963597 
L 275.619178 53.631178 
L 278.232423 59.234888 
L 280.501918 64.752995 
L 282.451865 70.167863 
L 284.106331 75.465693 
L 285.488823 80.636205 
L 286.621956 85.672281 
L 287.527187 90.569591 
L 288.224632 95.326216 
L 288.863355 101.450014 
L 289.205624 107.328988 
L 289.286505 112.972072 
L 289.136293 118.391144 
L 288.780753 123.600091 
L 288.241441 128.61405 
L 287.536052 133.448821 
L 286.442078 139.264686 
L 285.131371 144.856532 
L 283.617908 150.254348 
L 281.909574 155.486731 
L 280.008749 160.580611 
L 277.912735 165.561091 
L 275.614024 170.451324 
L 273.100434 175.272383 
L 270.355114 180.04307 
L 267.356459 184.779637 
L 264.077943 189.495357 
L 260.487924 194.199911 
L 257.366987 197.959211 
L 254.001759 201.714991 
L 250.36866 205.464675 
L 246.442015 209.202371 
L 242.194266 212.918225 
L 237.596315 216.597671 
L 232.618058 220.220628 
L 228.616514 222.885128 
L 224.371386 225.489351 
L 219.870638 228.017062 
L 215.103131 230.449418 
L 210.059022 232.76485 
L 204.730222 234.939011 
L 199.110881 236.944781 
L 193.19791 238.752376 
L 186.991503 240.32953 
L 182.692681 241.236014 
L 178.267353 242.014149 
L 176.008191 242.351673 
L 176.008191 242.351673 
" style="fill:none;opacity:0.6;stroke:#008000;stroke-linecap:square;stroke-width:0.4;"/>
   </g>
   <g id="line2d_5">
    <path clip-path="url(#pc6fb03dcbe)" d="M 265.005594 37.671658 
L 266.280266 39.597271 
L 267.50738 41.522404 
L 269.82214 45.3662 
L 272.958309 51.098389 
L 275.712708 56.765764 
L 278.110375 62.344865 
L 280.176825 67.816665 
L 281.937494 73.166302 
L 283.41727 78.38273 
L 284.640116 83.458343 
L 285.62878 88.388559 
L 286.40458 93.171408 
L 287.141768 99.319984 
L 287.577743 105.21267 
L 287.749559 110.859273 
L 287.689179 116.272712 
L 287.423757 121.467992 
L 286.975995 126.461392 
L 286.187925 132.445043 
L 285.172273 138.173023 
L 283.949664 143.678089 
L 282.533848 148.991802 
L 280.932496 154.14416 
L 279.147808 159.1634 
L 277.176939 164.075906 
L 275.012259 168.906144 
L 272.641468 173.676599 
L 270.047564 178.407643 
L 267.208708 183.117311 
L 264.09799 187.820923 
L 260.683157 192.53051 
L 256.926318 197.253994 
L 253.645409 201.044794 
L 250.092615 204.844667 
L 246.240456 208.648592 
L 242.059276 212.447458 
L 237.517579 216.227247 
L 232.58257 219.968119 
L 228.60316 222.732501 
L 224.369876 225.446131 
L 219.869325 228.092306 
L 215.089002 230.65148 
L 210.017732 233.101131 
L 204.646171 235.415683 
L 198.967343 237.566514 
L 192.977208 239.522055 
L 186.67525 241.247997 
L 182.302287 242.253023 
L 177.794406 243.128342 
L 177.794406 243.128342 
" style="fill:none;opacity:0.6;stroke:#008000;stroke-linecap:square;stroke-width:0.4;"/>
   </g>
   <g id="line2d_6">
    <path clip-path="url(#pc6fb03dcbe)" d="M 263.206096 36.926282 
L 264.532647 38.785851 
L 265.812714 40.647411 
L 269.381138 46.231714 
L 272.55796 51.791813 
L 275.365181 57.300909 
L 277.825872 62.73645 
L 279.963608 68.079967 
L 281.801958 73.31683 
L 283.364056 78.435944 
L 284.672254 83.429406 
L 285.747847 88.292141 
L 286.610872 93.021528 
L 287.462923 99.119304 
L 288.010157 104.982751 
L 288.287929 110.619575 
L 288.326932 116.040589 
L 288.153399 121.258771 
L 287.789399 126.288498 
L 287.253171 131.14494 
L 286.362834 136.995442 
L 285.248078 142.629624 
L 283.923918 148.076972 
L 282.399232 153.365787 
L 280.67734 158.522901 
L 278.756419 163.573497 
L 276.629775 168.540976 
L 274.285968 173.446821 
L 271.708815 178.310412 
L 268.877291 183.148744 
L 265.765348 187.97601 
L 262.341702 192.802989 
L 259.353864 196.668917 
L 256.121761 200.539855 
L 252.621737 204.414047 
L 248.827928 208.286505 
L 244.712449 212.148339 
L 240.245709 215.986011 
L 235.396924 219.780499 
L 231.490807 222.583028 
L 227.339151 225.333817 
L 222.929362 228.017062 
L 218.249647 230.61432 
L 213.289418 233.104379 
L 208.03974 235.463187 
L 202.493823 237.663848 
L 196.647538 239.676701 
L 190.499954 241.469495 
L 186.235386 242.525454 
L 181.839911 243.457556 
L 179.593904 243.873718 
L 179.593904 243.873718 
" style="fill:none;opacity:0.6;stroke:#008000;stroke-linecap:square;stroke-width:0.4;"/>
   </g>
   <g id="line2d_7">
    <path clip-path="url(#pc6fb03dcbe)" d="M 278.878249 44.740129 
L 279.922083 46.745091 
L 280.920502 48.746464 
L 283.651516 54.718139 
L 286.004223 60.620428 
L 288.0027 66.430207 
L 289.671556 72.128444 
L 291.03542 77.699986 
L 292.118501 83.133287 
L 292.94422 88.420082 
L 293.534917 93.555037 
L 293.911638 98.535386 
L 294.093976 103.360569 
L 294.06569 109.555245 
L 293.762138 115.483718 
L 293.216731 121.156765 
L 292.458064 126.587712 
L 291.510206 131.791549 
L 290.39304 136.784228 
L 289.122632 141.582103 
L 287.338035 147.330367 
L 285.351344 152.830882 
L 283.173739 158.113335 
L 280.810471 163.205543 
L 278.261462 168.133188 
L 275.521751 172.919629 
L 272.581791 177.585748 
L 269.427626 182.149778 
L 266.04096 186.627067 
L 262.399155 191.02974 
L 258.475183 195.366219 
L 255.111853 198.790643 
L 251.529742 202.175125 
L 247.708931 205.51689 
L 243.627834 208.810238 
L 239.263365 212.046042 
L 234.59123 215.211185 
L 229.586351 218.287929 
L 224.223458 221.253259 
L 219.951457 223.386965 
L 215.454316 225.42724 
L 210.722989 227.357276 
L 205.749575 229.157973 
L 200.527696 230.807883 
L 195.052911 232.283218 
L 189.323158 233.557913 
L 183.339206 234.60377 
L 177.105112 235.390693 
L 170.628658 235.887007 
L 166.182077 236.040249 
L 163.921751 236.059871 
L 163.921751 236.059871 
" style="fill:none;opacity:0.6;stroke:#008000;stroke-linecap:square;stroke-width:0.4;"/>
   </g>
   <g id="line2d_8">
    <path clip-path="url(#pc6fb03dcbe)" d="M 278.878249 44.740129 
L 279.820709 46.907322 
L 280.714546 49.063609 
L 282.360881 53.338839 
L 284.494426 59.642818 
L 286.25308 65.795066 
L 287.668699 71.776754 
L 288.772586 77.574047 
L 289.594941 83.17765 
L 290.164418 88.582294 
L 290.507817 93.786189 
L 290.649865 98.790483 
L 290.564696 105.158827 
L 290.208705 111.192438 
L 289.62236 116.909158 
L 288.839685 122.329591 
L 287.888795 127.475888 
L 286.7925 132.370811 
L 285.244866 138.170488 
L 283.524569 143.655811 
L 281.649666 148.867538 
L 279.631072 153.843702 
L 277.473615 158.619422 
L 275.176814 163.226903 
L 272.735436 167.695536 
L 270.139833 172.052017 
L 267.376092 176.32046 
L 264.426038 180.522429 
L 261.267087 184.676885 
L 257.871996 188.799974 
L 254.208535 192.904632 
L 250.239113 196.999946 
L 245.920438 201.090213 
L 242.181157 204.357824 
L 238.159019 207.616756 
L 233.823762 210.858655 
L 229.143074 214.070426 
L 224.083077 217.233285 
L 218.609072 220.321722 
L 214.2111 222.569502 
L 209.54684 224.739615 
L 204.603246 226.811808 
L 199.368715 228.76266 
L 193.833644 230.565487 
L 187.99105 232.190337 
L 181.837212 233.604087 
L 175.372346 234.770677 
L 170.891802 235.392105 
L 166.277727 235.874578 
L 163.921751 236.059871 
L 163.921751 236.059871 
" style="fill:none;opacity:0.6;stroke:#008000;stroke-linecap:square;stroke-width:0.4;"/>
   </g>
   <g id="line2d_9">
    <path clip-path="url(#pc6fb03dcbe)" d="M 280.53899 45.757832 
L 281.470418 47.899669 
L 282.35418 50.031712 
L 283.982985 54.26191 
L 286.095824 60.507311 
L 287.838987 66.61203 
L 289.242735 72.557265 
L 290.33691 78.328928 
L 291.150403 83.917238 
L 291.710742 89.316256 
L 292.043779 94.523394 
L 292.173471 99.538918 
L 292.121759 104.365464 
L 291.804675 110.514988 
L 291.241621 116.351601 
L 290.467799 121.893339 
L 289.512609 127.16025 
L 288.400173 132.173413 
L 287.149884 136.954195 
L 285.415985 142.635487 
L 283.511949 148.026388 
L 281.451897 153.164425 
L 279.243423 158.084509 
L 276.888462 162.818794 
L 274.383925 167.396658 
L 271.722133 171.844759 
L 268.89106 176.18708 
L 265.874419 180.444947 
L 262.651619 184.636946 
L 259.197608 188.778732 
L 255.482639 192.882661 
L 251.472004 196.957213 
L 247.125783 201.006146 
L 243.376935 204.225655 
L 239.358794 207.423132 
L 235.043653 210.590512 
L 230.401994 213.715357 
L 225.402908 216.78003 
L 220.014752 219.760797 
L 215.69935 221.923093 
L 211.134574 224.005188 
L 206.308435 225.988516 
L 201.210193 227.85166 
L 195.830842 229.570251 
L 190.163651 231.116944 
L 184.204747 232.461483 
L 177.95371 233.570871 
L 171.414173 234.409668 
L 166.898074 234.800104 
L 162.26101 235.042168 
L 162.26101 235.042168 
" style="fill:none;opacity:0.6;stroke:#008000;stroke-linecap:square;stroke-width:0.4;"/>
   </g>
   <g id="line2d_10">
    <path clip-path="url(#pc6fb03dcbe)" d="M 196.295462 31.660301 
L 198.768174 33.925629 
L 201.140625 36.174552 
L 205.594714 40.609353 
L 209.679 44.940112 
L 213.416407 49.147111 
L 218.424538 55.193915 
L 222.787733 60.896801 
L 226.585652 66.241722 
L 229.893091 71.229322 
L 233.656764 77.344417 
L 236.809496 82.890977 
L 240.067361 89.111848 
L 242.733252 94.650693 
L 245.342329 100.553273 
L 247.787404 106.625663 
L 250.021264 112.760767 
L 252.041089 118.944879 
L 253.870852 125.258593 
L 255.54639 131.886349 
L 256.981421 138.535257 
L 258.131171 144.910021 
L 259.052159 151.196583 
L 259.764601 157.481021 
L 260.270511 163.755759 
L 260.569054 169.915999 
L 260.670764 177.020579 
L 260.523851 183.851439 
L 260.183179 190.040206 
L 259.564928 196.981833 
L 258.860363 202.744514 
L 257.89151 209.030548 
L 256.595037 215.876001 
L 254.896755 223.307377 
L 253.499964 228.593926 
L 251.859865 234.145827 
L 249.94774 239.957801 
L 247.733942 246.019671 
L 246.504538 249.139699 
L 246.504538 249.139699 
" style="fill:none;opacity:0.6;stroke:#0000ff;stroke-linecap:square;stroke-width:0.5;"/>
   </g>
   <g id="line2d_11">
    <path clip-path="url(#pc6fb03dcbe)" d="M 200.105716 30.850406 
L 202.497862 33.200651 
L 204.790382 35.531001 
L 209.086986 40.118546 
L 213.017642 44.589206 
L 216.60595 48.924076 
L 221.4 55.141978 
L 225.56151 60.993664 
L 229.17058 66.467874 
L 232.301939 71.567864 
L 235.849905 77.810584 
L 238.807145 83.463793 
L 241.84592 89.794573 
L 244.316884 95.423082 
L 246.718375 101.413122 
L 248.950037 107.567145 
L 250.968424 113.776472 
L 252.771196 120.027307 
L 254.379499 126.401033 
L 255.822711 133.083227 
L 257.024824 139.778166 
L 257.951398 146.189173 
L 258.652427 152.504047 
L 259.145111 158.809521 
L 259.431728 165.098093 
L 259.5151 171.264999 
L 259.368801 178.368801 
L 258.983584 185.190372 
L 258.427136 191.36348 
L 257.567002 198.279302 
L 256.661751 204.013883 
L 255.474108 210.262275 
L 253.939523 217.058312 
L 251.982924 224.425892 
L 250.402486 229.660473 
L 248.569628 235.151753 
L 246.455832 240.893454 
L 244.031826 246.874371 
L 242.694284 249.949594 
L 242.694284 249.949594 
" style="fill:none;opacity:0.6;stroke:#0000ff;stroke-linecap:square;stroke-width:0.5;"/>
   </g>
   <g id="line2d_12">
    <path clip-path="url(#pc6fb03dcbe)" d="M 194.401516 32.114997 
L 196.913387 34.336825 
L 199.324726 36.544001 
L 203.855535 40.900392 
L 208.01478 45.15921 
L 211.82504 49.300342 
L 216.93794 55.258821 
L 221.4 60.884691 
L 225.290622 66.162515 
L 228.684603 71.091632 
L 232.554425 77.140111 
L 235.803479 82.630803 
L 239.169416 88.793869 
L 241.931568 94.285344 
L 244.643261 100.141491 
L 247.193941 106.170284 
L 249.534533 112.265467 
L 251.661979 118.413385 
L 253.601653 124.694205 
L 255.392606 131.291709 
L 256.943457 137.914559 
L 258.204288 144.268287 
L 259.234851 150.537818 
L 260.056863 156.808865 
L 260.672205 163.073818 
L 261.078214 169.22791 
L 261.3039 176.329633 
L 261.276224 183.162015 
L 261.043614 189.355786 
L 260.546605 196.307146 
L 259.94272 202.081245 
L 259.08372 208.383231 
L 257.906915 215.250267 
L 256.338586 222.710151 
L 255.034271 228.020272 
L 253.491317 233.599951 
L 251.680915 239.444411 
L 249.573248 245.543994 
L 248.398484 248.685003 
L 248.398484 248.685003 
" style="fill:none;opacity:0.6;stroke:#0000ff;stroke-linecap:square;stroke-width:0.5;"/>
   </g>
   <g id="line2d_13">
    <path clip-path="url(#pc6fb03dcbe)" d="M 196.295462 31.660301 
L 198.728216 33.737644 
L 201.069098 35.806574 
L 205.483367 39.906333 
L 209.555752 43.936339 
L 213.305315 47.877329 
L 218.368503 53.58927 
L 222.820311 59.030441 
L 226.729803 64.180264 
L 230.162958 69.031434 
L 234.104446 75.041291 
L 237.436056 80.552625 
L 240.907958 86.802326 
L 243.770408 92.426506 
L 246.588611 98.479111 
L 249.241398 104.764636 
L 251.670133 111.168472 
L 253.642601 116.974379 
L 255.477376 123.03671 
L 257.178812 129.461319 
L 258.625294 135.829309 
L 259.876231 142.416454 
L 260.853344 148.786067 
L 261.592735 155.028959 
L 262.109922 161.142741 
L 262.416282 167.036285 
L 262.536585 173.71175 
L 262.42931 180.021544 
L 262.151514 185.659141 
L 261.64203 191.907449 
L 260.825194 198.850253 
L 259.952816 204.56266 
L 258.802099 210.743117 
L 257.313483 217.416713 
L 255.41867 224.599164 
L 253.892398 229.67213 
L 252.127524 234.969594 
L 250.098803 240.484619 
L 247.780435 246.206146 
L 246.504538 249.139699 
L 246.504538 249.139699 
" style="fill:none;opacity:0.6;stroke:#0000ff;stroke-linecap:square;stroke-width:0.5;"/>
   </g>
   <g id="line2d_14">
    <path clip-path="url(#pc6fb03dcbe)" d="M 192.515795 32.602678 
L 195.091046 34.88055 
L 197.560806 37.141106 
L 202.194361 41.595554 
L 206.439 45.939966 
L 210.319139 50.153632 
L 215.511901 56.196255 
L 220.029391 61.877851 
L 223.956704 67.185563 
L 227.37354 72.12212 
L 231.259122 78.151955 
L 234.513542 83.599008 
L 237.878865 89.683268 
L 241.129839 96.086057 
L 244.132762 102.56633 
L 246.83704 108.987871 
L 249.25141 115.322478 
L 251.418981 121.642059 
L 253.398605 128.116886 
L 255.107501 134.456458 
L 256.643003 141.015169 
L 257.934426 147.501573 
L 259.01986 154.092509 
L 259.901723 160.87173 
L 260.562115 167.821608 
L 260.979695 174.806104 
L 261.150343 181.562685 
L 261.106555 187.720429 
L 260.828726 194.668985 
L 260.410499 200.4709 
L 259.755613 206.833871 
L 258.800491 213.802597 
L 257.469168 221.412677 
L 256.329519 226.853594 
L 254.954755 232.590932 
L 253.314117 238.621552 
L 251.375503 244.937001 
L 250.284205 248.197322 
L 250.284205 248.197322 
" style="fill:none;opacity:0.6;stroke:#0000ff;stroke-linecap:square;stroke-width:0.5;"/>
   </g>
   <g id="line2d_15">
    <path clip-path="url(#pc6fb03dcbe)" d="M 190.638871 33.123195 
L 193.201295 35.161 
L 195.66726 37.191616 
L 200.318106 41.217489 
L 204.609425 45.175916 
L 208.561076 49.046312 
L 213.898032 54.652116 
L 218.591849 59.985084 
L 222.715697 65.023771 
L 226.339567 69.760902 
L 230.504902 75.615258 
L 234.032427 80.969102 
L 237.719154 87.022452 
L 240.771409 92.454079 
L 243.793574 98.283813 
L 246.661488 104.322856 
L 249.316638 110.463071 
L 251.751523 116.686791 
L 253.991799 123.070633 
L 255.9033 129.189198 
L 257.59289 135.313421 
L 259.126955 141.717454 
L 260.402837 147.981384 
L 261.452949 154.191336 
L 262.28568 160.341279 
L 262.901249 166.332859 
L 263.371199 173.191494 
L 263.587728 179.740693 
L 263.589206 185.642384 
L 263.373871 192.233413 
L 262.860244 199.611365 
L 262.215648 205.718691 
L 261.286917 212.357903 
L 260.007417 219.556934 
L 258.922054 224.675914 
L 257.621861 230.052252 
L 256.080264 235.683241 
L 254.269509 241.561948 
L 252.161129 247.676805 
L 252.161129 247.676805 
" style="fill:none;opacity:0.6;stroke:#0000ff;stroke-linecap:square;stroke-width:0.5;"/>
   </g>
   <g id="line2d_16">
    <path clip-path="url(#pc6fb03dcbe)" d="M 167.772891 42.529202 
L 171.484114 45.404831 
L 175.000573 48.225178 
L 181.473266 53.67281 
L 187.244489 58.828614 
L 192.373987 63.665904 
L 199.002007 70.302301 
L 204.535393 76.207239 
L 210.539117 83.030176 
L 215.321045 88.807747 
L 220.031593 94.829999 
L 224.989054 101.563783 
L 229.58996 108.222581 
L 233.960541 114.963326 
L 237.959942 121.536938 
L 241.80395 128.275386 
L 245.386665 134.985573 
L 248.869447 141.974258 
L 252.02065 148.765375 
L 254.939561 155.5296 
L 257.710384 162.459703 
L 260.552636 170.204723 
L 262.730225 176.683936 
L 265.142047 184.571678 
L 267.085897 191.640704 
L 269.102686 199.900109 
L 270.452377 206.160894 
L 271.768776 213.087525 
L 273.008262 220.726439 
L 274.116191 229.113628 
L 275.027109 238.270798 
L 275.027109 238.270798 
" style="fill:none;opacity:0.6;stroke:#ff0000;stroke-linecap:square;stroke-width:0.5;"/>
   </g>
   <g id="line2d_17">
    <path clip-path="url(#pc6fb03dcbe)" d="M 167.073921 42.915452 
L 170.902422 45.945505 
L 174.521605 48.909743 
L 181.159203 54.612057 
L 187.047199 59.977696 
L 192.252981 64.981334 
L 198.936128 71.793364 
L 204.473968 77.799677 
L 210.436317 84.67211 
L 215.14984 90.434032 
L 219.762962 96.384911 
L 224.588602 102.976331 
L 229.045475 109.436556 
L 233.562029 116.396189 
L 237.793595 123.346672 
L 241.810478 130.387755 
L 245.543378 137.379945 
L 248.953346 144.208639 
L 252.392929 151.600933 
L 255.304125 158.328588 
L 258.465483 166.228397 
L 261.18326 173.628591 
L 263.676501 181.040972 
L 265.733871 187.726514 
L 267.928638 195.595851 
L 270.206115 204.863068 
L 271.722847 211.922535 
L 273.188551 219.752624 
L 274.546239 228.39732 
L 275.726079 237.884548 
L 275.726079 237.884548 
" style="fill:none;opacity:0.6;stroke:#ff0000;stroke-linecap:square;stroke-width:0.5;"/>
   </g>
   <g id="line2d_18">
    <path clip-path="url(#pc6fb03dcbe)" d="M 166.598173 43.182102 
L 170.253274 45.845557 
L 173.725789 48.466399 
L 180.143936 53.554053 
L 185.899322 58.402041 
L 191.044574 62.98186 
L 197.740478 69.318275 
L 203.376814 75.011815 
L 208.129648 80.093166 
L 213.358443 86.008372 
L 218.529616 92.227957 
L 223.302919 98.332446 
L 228.055905 104.800121 
L 232.405967 111.103574 
L 236.579801 117.54391 
L 240.557258 124.090129 
L 244.428179 130.903767 
L 248.115961 137.869894 
L 251.603407 144.962444 
L 254.621654 151.573867 
L 257.54993 158.494645 
L 260.161649 165.179578 
L 262.673356 172.173289 
L 264.922419 179.02743 
L 267.372898 187.32959 
L 269.309341 194.723364 
L 271.272707 203.30114 
L 272.553997 209.758247 
L 273.771017 216.857312 
L 274.876975 224.633729 
L 275.815472 233.111848 
L 276.201827 237.617898 
L 276.201827 237.617898 
" style="fill:none;opacity:0.6;stroke:#ff0000;stroke-linecap:square;stroke-width:0.5;"/>
   </g>
   <g id="line2d_19">
    <path clip-path="url(#pc6fb03dcbe)" d="M 165.887007 43.586429 
L 169.75224 46.569483 
L 173.407367 49.489284 
L 180.114135 55.110081 
L 186.067244 60.403386 
L 191.333766 65.343051 
L 198.099637 72.072925 
L 203.710443 78.011134 
L 209.756308 84.810212 
L 214.539872 90.514119 
L 219.225352 96.408196 
L 224.131159 102.940169 
L 228.666624 109.345462 
L 233.267867 116.249397 
L 237.584031 123.147664 
L 241.686636 130.139147 
L 245.50468 137.085211 
L 248.997819 143.871736 
L 252.527458 151.221456 
L 255.520628 157.913043 
L 258.778262 165.77364 
L 261.586245 173.140079 
L 264.169857 180.521447 
L 266.30875 187.181355 
L 268.599493 195.023291 
L 270.990018 204.261993 
L 272.592882 211.302403 
L 274.154137 219.114001 
L 275.617336 227.741465 
L 276.912993 237.213571 
L 276.912993 237.213571 
" style="fill:none;opacity:0.6;stroke:#ff0000;stroke-linecap:square;stroke-width:0.5;"/>
   </g>
   <g id="line2d_20">
    <path clip-path="url(#pc6fb03dcbe)" d="M 163.521557 44.981732 
L 167.259849 47.527106 
L 170.814288 50.03572 
L 177.391631 54.915822 
L 183.298897 59.577544 
L 188.587778 63.990718 
L 195.482614 70.110074 
L 201.297894 75.620718 
L 206.210572 80.547701 
L 211.625597 86.292913 
L 216.992749 92.344189 
L 221.958559 98.293134 
L 226.915661 104.605728 
L 231.464799 110.76705 
L 235.84217 117.070814 
L 240.026646 123.486678 
L 244.113181 130.173226 
L 248.021539 137.018034 
L 251.7337 143.995598 
L 254.961538 150.507265 
L 258.109328 157.331001 
L 260.933193 163.929122 
L 263.666957 170.839056 
L 266.133754 177.61788 
L 268.848104 185.837551 
L 271.019673 193.165716 
L 273.255962 201.67642 
L 274.7428 208.089316 
L 276.185901 215.145896 
L 277.539628 222.883029 
L 278.748387 231.326854 
L 279.278443 235.818268 
L 279.278443 235.818268 
" style="fill:none;opacity:0.6;stroke:#ff0000;stroke-linecap:square;stroke-width:0.5;"/>
   </g>
   <g id="line2d_21">
    <path clip-path="url(#pc6fb03dcbe)" d="M 161.651075 46.141706 
L 165.261019 48.321206 
L 168.709483 50.483353 
L 175.136923 54.731046 
L 180.967733 58.842531 
L 186.241876 62.786351 
L 193.204928 68.34362 
L 199.165096 73.44238 
L 204.269685 78.081351 
L 209.976159 83.590561 
L 215.718997 89.512196 
L 221.109735 95.452018 
L 225.962215 101.149934 
L 230.71783 107.094619 
L 235.144821 112.988085 
L 239.551854 119.244296 
L 243.527025 125.266321 
L 247.517688 131.726987 
L 251.203805 138.122419 
L 254.82667 144.877885 
L 258.047059 151.34586 
L 260.994881 157.723273 
L 263.925296 164.587191 
L 266.701998 171.686776 
L 269.152977 178.561655 
L 271.113751 184.584504 
L 273.153164 191.489029 
L 275.225186 199.408119 
L 276.589379 205.316136 
L 277.905476 211.768902 
L 279.135662 218.796653 
L 280.234434 226.42211 
L 281.148925 234.658294 
L 281.148925 234.658294 
" style="fill:none;opacity:0.6;stroke:#ff0000;stroke-linecap:square;stroke-width:0.5;"/>
   </g>
   <g id="line2d_22">
    <path clip-path="url(#pc6fb03dcbe)" d="M 116.530304 102.230552 
L 120.714731 97.661639 
L 125.038598 93.401404 
L 129.477907 89.446752 
L 134.010269 85.792835 
L 138.615 82.433319 
L 143.273178 79.360637 
L 147.96766 76.56624 
L 152.683075 74.040837 
L 157.405787 71.774608 
L 162.123829 69.75741 
L 166.826829 67.978956 
L 171.505913 66.428974 
L 176.1536 65.097345 
L 180.763692 63.974221 
L 185.33116 63.050122 
L 189.852024 62.316019 
L 194.323245 61.763393 
L 200.20393 61.295189 
L 205.989205 61.118333 
L 211.677625 61.217607 
L 217.269209 61.579821 
L 222.765094 62.193829 
L 228.167204 63.050508 
L 233.477966 64.142724 
L 238.700043 65.46528 
L 243.836089 67.014858 
L 248.888521 68.789955 
L 253.859301 70.790805 
L 258.749724 73.019314 
L 263.560211 75.478969 
L 268.290088 78.174752 
L 272.93737 81.113037 
L 277.498531 84.301469 
L 281.96826 87.748815 
L 286.339209 91.464796 
L 290.601736 95.459867 
L 293.720241 98.64589 
L 296.764771 101.999731 
L 299.72819 105.526043 
L 302.602352 109.229338 
L 305.378042 113.11388 
L 308.044942 117.183558 
L 310.59159 121.441742 
L 313.005363 125.891136 
L 315.272471 130.533606 
L 317.377977 135.370007 
L 319.305829 140.4 
L 321.038929 145.621855 
L 322.559222 151.032263 
L 323.84782 156.626141 
L 324.885156 162.396449 
L 325.651172 168.334017 
L 326.125537 174.42739 
L 326.269696 178.569448 
L 326.269696 178.569448 
" style="fill:none;opacity:0.6;stroke:#ffff00;stroke-linecap:square;stroke-width:0.5;"/>
   </g>
   <g id="line2d_23">
    <path clip-path="url(#pc6fb03dcbe)" d="M 117.212424 100.406137 
L 121.581316 95.957858 
L 126.074455 91.829209 
L 130.667248 88.015421 
L 135.336925 84.509986 
L 140.062623 81.304936 
L 144.825426 78.391133 
L 149.608373 75.758529 
L 154.396425 73.396425 
L 159.176407 71.293699 
L 163.936928 69.439016 
L 168.668278 67.821012 
L 173.362318 66.428456 
L 178.012352 65.250389 
L 182.613003 64.276233 
L 187.160084 63.49589 
L 191.650464 62.89981 
L 197.545762 62.376304 
L 203.333446 62.145159 
L 209.012615 62.189128 
L 214.584035 62.493167 
L 220.049754 63.044436 
L 225.412744 63.83228 
L 230.676597 64.84818 
L 235.845239 66.085689 
L 240.92268 67.540366 
L 245.912785 69.209702 
L 250.819057 71.093044 
L 255.644432 73.191518 
L 260.391076 75.507953 
L 265.06018 78.046801 
L 269.651755 80.814045 
L 274.164404 83.817104 
L 278.595096 87.064711 
L 282.938909 90.566774 
L 287.188775 94.334204 
L 291.335196 98.378695 
L 295.365963 102.71246 
L 298.30411 106.160084 
L 301.161098 109.782583 
L 303.928211 113.584959 
L 306.595579 117.571913 
L 309.152129 121.747709 
L 311.585551 126.116012 
L 313.882282 130.67972 
L 316.027503 135.440783 
L 318.005163 140.4 
L 319.798029 145.556822 
L 321.387767 150.909138 
L 322.755048 156.453063 
L 323.8797 162.182733 
L 324.740889 168.090108 
L 325.317336 174.164789 
L 325.587576 180.393863 
L 325.587576 180.393863 
" style="fill:none;opacity:0.6;stroke:#ffff00;stroke-linecap:square;stroke-width:0.5;"/>
   </g>
   <g id="line2d_24">
    <path clip-path="url(#pc6fb03dcbe)" d="M 117.926282 98.593904 
L 122.478039 94.271932 
L 127.138158 90.28009 
L 131.881519 86.61187 
L 136.685046 83.259042 
L 141.527783 80.211967 
L 146.390912 77.459902 
L 151.257741 74.991286 
L 156.113656 72.794011 
L 160.946031 70.855663 
L 165.744131 69.163737 
L 170.49899 67.705824 
L 175.203269 66.469776 
L 179.851122 65.443839 
L 184.438044 64.61676 
L 188.960732 63.977874 
L 194.887314 63.40157 
L 200.692978 63.120343 
L 206.377269 63.11475 
L 211.941628 63.367741 
L 217.388952 63.864652 
L 222.723213 64.593179 
L 227.949112 65.543312 
L 233.071783 66.70726 
L 238.096533 68.079372 
L 243.028598 69.656045 
L 247.872936 71.435644 
L 252.634024 73.418419 
L 257.315665 75.606425 
L 261.920794 78.003448 
L 266.451287 80.614923 
L 270.907747 83.447852 
L 275.28929 86.51071 
L 279.593305 89.813332 
L 283.815194 93.366778 
L 287.948098 97.18316 
L 291.9826 101.275426 
L 295.906421 105.657085 
L 298.767478 109.14151 
L 301.549857 112.802191 
L 304.244588 116.644697 
L 306.841468 120.674283 
L 309.329008 124.895744 
L 311.694388 129.313243 
L 313.923442 133.930131 
L 316.00065 138.74874 
L 317.909164 143.770174 
L 319.630863 148.994087 
L 321.146437 154.418447 
L 322.43551 160.039314 
L 323.476803 165.850605 
L 324.248335 171.843892 
L 324.727668 178.008195 
L 324.873718 182.206096 
L 324.873718 182.206096 
" style="fill:none;opacity:0.6;stroke:#ffff00;stroke-linecap:square;stroke-width:0.5;"/>
   </g>
   <g id="line2d_25">
    <path clip-path="url(#pc6fb03dcbe)" d="M 118.671658 96.794406 
L 123.08947 92.450751 
L 127.630374 88.422648 
L 132.27057 84.705751 
L 136.987951 81.294047 
L 141.762196 78.180128 
L 146.574801 75.355447 
L 151.409097 72.810571 
L 156.25022 70.535414 
L 161.085064 68.519458 
L 165.902212 66.751948 
L 170.691844 65.222068 
L 175.445635 63.919094 
L 180.156645 62.832531 
L 184.819199 61.95222 
L 189.428771 61.26843 
L 193.981859 60.771937 
L 198.475875 60.454074 
L 204.373004 60.294282 
L 210.159607 60.420447 
L 215.835035 60.817294 
L 221.4 61.471653 
L 226.856218 62.372452 
L 232.206089 63.510681 
L 237.452411 64.879344 
L 242.598114 66.47339 
L 247.646023 68.289644 
L 252.598629 70.326732 
L 257.45788 72.584991 
L 262.22497 75.06639 
L 266.900136 77.774436 
L 271.482444 80.714067 
L 275.96958 83.891546 
L 280.357621 87.31432 
L 284.640803 90.99087 
L 288.811282 94.930516 
L 292.858882 99.143195 
L 295.80637 102.488061 
L 298.671201 105.996645 
L 301.446006 109.673217 
L 304.122413 113.521859 
L 306.690998 117.546346 
L 309.141253 121.750021 
L 311.461555 126.135651 
L 313.639156 130.705274 
L 315.66019 135.460033 
L 317.509692 140.4 
L 319.171653 145.523995 
L 320.629087 150.829397 
L 321.864137 156.311956 
L 322.858208 161.965608 
L 323.592128 167.782298 
L 324.046346 173.751819 
L 324.201159 179.861668 
L 324.128342 184.005594 
L 324.128342 184.005594 
" style="fill:none;opacity:0.6;stroke:#ffff00;stroke-linecap:square;stroke-width:0.5;"/>
   </g>
   <g id="patch_3">
    <path d="M 221.4 252 
C 250.996666 252 279.385114 240.24112 300.313117 219.313117 
C 321.24112 198.385114 333 169.996666 333 140.4 
C 333 110.803334 321.24112 82.414886 300.313117 61.486883 
C 279.385114 40.55888 250.996666 28.8 221.4 28.8 
C 191.803334 28.8 163.414886 40.55888 142.486883 61.486883 
C 121.55888 82.414886 109.8 110.803334 109.8 140.4 
C 109.8 169.996666 121.55888 198.385114 142.486883 219.313117 
C 163.414886 240.24112 191.803334 252 221.4 252 
L 221.4 252 
z
" style="fill:none;stroke:#000000;stroke-linecap:square;stroke-linejoin:miter;"/>
   </g>
   <g id="matplotlib.axis_1">
    <g id="xtick_1">
     <g id="line2d_26">
      <path clip-path="url(#pc6fb03dcbe)" d="M 221.4 140.4 
L 221.4 28.8 
" style="fill:none;stroke:#000000;stroke-dasharray:1.000000,3.000000;stroke-dashoffset:0.0;stroke-width:0.5;"/>
     </g>
     <g id="text_1">
      <!-- 0 -->
      <defs>
       <path d="M 31.78125 66.40625 
Q 24.171875 66.40625 20.328125 58.90625 
Q 16.5 51.421875 16.5 36.375 
Q 16.5 21.390625 20.328125 13.890625 
Q 24.171875 6.390625 31.78125 6.390625 
Q 39.453125 6.390625 43.28125 13.890625 
Q 47.125 21.390625 47.125 36.375 
Q 47.125 51.421875 43.28125 58.90625 
Q 39.453125 66.40625 31.78125 66.40625 
M 31.78125 74.21875 
Q 44.046875 74.21875 50.515625 64.515625 
Q 56.984375 54.828125 56.984375 36.375 
Q 56.984375 17.96875 50.515625 8.265625 
Q 44.046875 -1.421875 31.78125 -1.421875 
Q 19.53125 -1.421875 13.0625 8.265625 
Q 6.59375 17.96875 6.59375 36.375 
Q 6.59375 54.828125 13.0625 64.515625 
Q 19.53125 74.21875 31.78125 74.21875 
" id="BitstreamVeraSans-Roman-30"/>
      </defs>
      <g transform="translate(218.21875 20.399375)scale(0.1 -0.1)">
       <use xlink:href="#BitstreamVeraSans-Roman-30"/>
      </g>
     </g>
    </g>
    <g id="xtick_2">
     <g id="line2d_27">
      <path clip-path="url(#pc6fb03dcbe)" d="M 221.4 140.4 
L 277.2 43.751565 
" style="fill:none;stroke:#000000;stroke-dasharray:1.000000,3.000000;stroke-dashoffset:0.0;stroke-width:0.5;"/>
     </g>
     <g id="text_2">
      <!-- 30 -->
      <defs>
       <path d="M 40.578125 39.3125 
Q 47.65625 37.796875 51.625 33 
Q 55.609375 28.21875 55.609375 21.1875 
Q 55.609375 10.40625 48.1875 4.484375 
Q 40.765625 -1.421875 27.09375 -1.421875 
Q 22.515625 -1.421875 17.65625 -0.515625 
Q 12.796875 0.390625 7.625 2.203125 
L 7.625 11.71875 
Q 11.71875 9.328125 16.59375 8.109375 
Q 21.484375 6.890625 26.8125 6.890625 
Q 36.078125 6.890625 40.9375 10.546875 
Q 45.796875 14.203125 45.796875 21.1875 
Q 45.796875 27.640625 41.28125 31.265625 
Q 36.765625 34.90625 28.71875 34.90625 
L 20.21875 34.90625 
L 20.21875 43.015625 
L 29.109375 43.015625 
Q 36.375 43.015625 40.234375 45.921875 
Q 44.09375 48.828125 44.09375 54.296875 
Q 44.09375 59.90625 40.109375 62.90625 
Q 36.140625 65.921875 28.71875 65.921875 
Q 24.65625 65.921875 20.015625 65.03125 
Q 15.375 64.15625 9.8125 62.3125 
L 9.8125 71.09375 
Q 15.4375 72.65625 20.34375 73.4375 
Q 25.25 74.21875 29.59375 74.21875 
Q 40.828125 74.21875 47.359375 69.109375 
Q 53.90625 64.015625 53.90625 55.328125 
Q 53.90625 49.265625 50.4375 45.09375 
Q 46.96875 40.921875 40.578125 39.3125 
" id="BitstreamVeraSans-Roman-33"/>
      </defs>
      <g transform="translate(276.4175 36.8460964314)scale(0.1 -0.1)">
       <use xlink:href="#BitstreamVeraSans-Roman-33"/>
       <use x="63.623046875" xlink:href="#BitstreamVeraSans-Roman-30"/>
      </g>
     </g>
    </g>
    <g id="xtick_3">
     <g id="line2d_28">
      <path clip-path="url(#pc6fb03dcbe)" d="M 221.4 140.4 
L 318.048435 84.6 
" style="fill:none;stroke:#000000;stroke-dasharray:1.000000,3.000000;stroke-dashoffset:0.0;stroke-width:0.5;"/>
     </g>
     <g id="text_3">
      <!-- 60 -->
      <defs>
       <path d="M 33.015625 40.375 
Q 26.375 40.375 22.484375 35.828125 
Q 18.609375 31.296875 18.609375 23.390625 
Q 18.609375 15.53125 22.484375 10.953125 
Q 26.375 6.390625 33.015625 6.390625 
Q 39.65625 6.390625 43.53125 10.953125 
Q 47.40625 15.53125 47.40625 23.390625 
Q 47.40625 31.296875 43.53125 35.828125 
Q 39.65625 40.375 33.015625 40.375 
M 52.59375 71.296875 
L 52.59375 62.3125 
Q 48.875 64.0625 45.09375 64.984375 
Q 41.3125 65.921875 37.59375 65.921875 
Q 27.828125 65.921875 22.671875 59.328125 
Q 17.53125 52.734375 16.796875 39.40625 
Q 19.671875 43.65625 24.015625 45.921875 
Q 28.375 48.1875 33.59375 48.1875 
Q 44.578125 48.1875 50.953125 41.515625 
Q 57.328125 34.859375 57.328125 23.390625 
Q 57.328125 12.15625 50.6875 5.359375 
Q 44.046875 -1.421875 33.015625 -1.421875 
Q 20.359375 -1.421875 13.671875 8.265625 
Q 6.984375 17.96875 6.984375 36.375 
Q 6.984375 53.65625 15.1875 63.9375 
Q 23.390625 74.21875 37.203125 74.21875 
Q 40.921875 74.21875 44.703125 73.484375 
Q 48.484375 72.75 52.59375 71.296875 
" id="BitstreamVeraSans-Roman-36"/>
      </defs>
      <g transform="translate(321.350778569 81.779375)scale(0.1 -0.1)">
       <use xlink:href="#BitstreamVeraSans-Roman-36"/>
       <use x="63.623046875" xlink:href="#BitstreamVeraSans-Roman-30"/>
      </g>
     </g>
    </g>
    <g id="xtick_4">
     <g id="line2d_29">
      <path clip-path="url(#pc6fb03dcbe)" d="M 221.4 140.4 
L 333 140.4 
" style="fill:none;stroke:#000000;stroke-dasharray:1.000000,3.000000;stroke-dashoffset:0.0;stroke-width:0.5;"/>
     </g>
     <g id="text_4">
      <!-- 90 -->
      <defs>
       <path d="M 10.984375 1.515625 
L 10.984375 10.5 
Q 14.703125 8.734375 18.5 7.8125 
Q 22.3125 6.890625 25.984375 6.890625 
Q 35.75 6.890625 40.890625 13.453125 
Q 46.046875 20.015625 46.78125 33.40625 
Q 43.953125 29.203125 39.59375 26.953125 
Q 35.25 24.703125 29.984375 24.703125 
Q 19.046875 24.703125 12.671875 31.3125 
Q 6.296875 37.9375 6.296875 49.421875 
Q 6.296875 60.640625 12.9375 67.421875 
Q 19.578125 74.21875 30.609375 74.21875 
Q 43.265625 74.21875 49.921875 64.515625 
Q 56.59375 54.828125 56.59375 36.375 
Q 56.59375 19.140625 48.40625 8.859375 
Q 40.234375 -1.421875 26.421875 -1.421875 
Q 22.703125 -1.421875 18.890625 -0.6875 
Q 15.09375 0.046875 10.984375 1.515625 
M 30.609375 32.421875 
Q 37.25 32.421875 41.125 36.953125 
Q 45.015625 41.5 45.015625 49.421875 
Q 45.015625 57.28125 41.125 61.84375 
Q 37.25 66.40625 30.609375 66.40625 
Q 23.96875 66.40625 20.09375 61.84375 
Q 16.21875 57.28125 16.21875 49.421875 
Q 16.21875 41.5 20.09375 36.953125 
Q 23.96875 32.421875 30.609375 32.421875 
" id="BitstreamVeraSans-Roman-39"/>
      </defs>
      <g transform="translate(337.7975 143.159375)scale(0.1 -0.1)">
       <use xlink:href="#BitstreamVeraSans-Roman-39"/>
       <use x="63.623046875" xlink:href="#BitstreamVeraSans-Roman-30"/>
      </g>
     </g>
    </g>
    <g id="xtick_5">
     <g id="line2d_30">
      <path clip-path="url(#pc6fb03dcbe)" d="M 221.4 140.4 
L 318.048435 196.2 
" style="fill:none;stroke:#000000;stroke-dasharray:1.000000,3.000000;stroke-dashoffset:0.0;stroke-width:0.5;"/>
     </g>
     <g id="text_5">
      <!-- 120 -->
      <defs>
       <path d="M 12.40625 8.296875 
L 28.515625 8.296875 
L 28.515625 63.921875 
L 10.984375 60.40625 
L 10.984375 69.390625 
L 28.421875 72.90625 
L 38.28125 72.90625 
L 38.28125 8.296875 
L 54.390625 8.296875 
L 54.390625 0 
L 12.40625 0 
z
" id="BitstreamVeraSans-Roman-31"/>
       <path d="M 19.1875 8.296875 
L 53.609375 8.296875 
L 53.609375 0 
L 7.328125 0 
L 7.328125 8.296875 
Q 12.9375 14.109375 22.625 23.890625 
Q 32.328125 33.6875 34.8125 36.53125 
Q 39.546875 41.84375 41.421875 45.53125 
Q 43.3125 49.21875 43.3125 52.78125 
Q 43.3125 58.59375 39.234375 62.25 
Q 35.15625 65.921875 28.609375 65.921875 
Q 23.96875 65.921875 18.8125 64.3125 
Q 13.671875 62.703125 7.8125 59.421875 
L 7.8125 69.390625 
Q 13.765625 71.78125 18.9375 73 
Q 24.125 74.21875 28.421875 74.21875 
Q 39.75 74.21875 46.484375 68.546875 
Q 53.21875 62.890625 53.21875 53.421875 
Q 53.21875 48.921875 51.53125 44.890625 
Q 49.859375 40.875 45.40625 35.40625 
Q 44.1875 33.984375 37.640625 27.21875 
Q 31.109375 20.453125 19.1875 8.296875 
" id="BitstreamVeraSans-Roman-32"/>
      </defs>
      <g transform="translate(318.169528569 204.539375)scale(0.1 -0.1)">
       <use xlink:href="#BitstreamVeraSans-Roman-31"/>
       <use x="63.623046875" xlink:href="#BitstreamVeraSans-Roman-32"/>
       <use x="127.24609375" xlink:href="#BitstreamVeraSans-Roman-30"/>
      </g>
     </g>
    </g>
    <g id="xtick_6">
     <g id="line2d_31">
      <path clip-path="url(#pc6fb03dcbe)" d="M 221.4 140.4 
L 277.2 237.048435 
" style="fill:none;stroke:#000000;stroke-dasharray:1.000000,3.000000;stroke-dashoffset:0.0;stroke-width:0.5;"/>
     </g>
     <g id="text_6">
      <!-- 150 -->
      <defs>
       <path d="M 10.796875 72.90625 
L 49.515625 72.90625 
L 49.515625 64.59375 
L 19.828125 64.59375 
L 19.828125 46.734375 
Q 21.96875 47.46875 24.109375 47.828125 
Q 26.265625 48.1875 28.421875 48.1875 
Q 40.625 48.1875 47.75 41.5 
Q 54.890625 34.8125 54.890625 23.390625 
Q 54.890625 11.625 47.5625 5.09375 
Q 40.234375 -1.421875 26.90625 -1.421875 
Q 22.3125 -1.421875 17.546875 -0.640625 
Q 12.796875 0.140625 7.71875 1.703125 
L 7.71875 11.625 
Q 12.109375 9.234375 16.796875 8.0625 
Q 21.484375 6.890625 26.703125 6.890625 
Q 35.15625 6.890625 40.078125 11.328125 
Q 45.015625 15.765625 45.015625 23.390625 
Q 45.015625 31 40.078125 35.4375 
Q 35.15625 39.890625 26.703125 39.890625 
Q 22.75 39.890625 18.8125 39.015625 
Q 14.890625 38.140625 10.796875 36.28125 
z
" id="BitstreamVeraSans-Roman-35"/>
      </defs>
      <g transform="translate(273.23625 249.472653569)scale(0.1 -0.1)">
       <use xlink:href="#BitstreamVeraSans-Roman-31"/>
       <use x="63.623046875" xlink:href="#BitstreamVeraSans-Roman-35"/>
       <use x="127.24609375" xlink:href="#BitstreamVeraSans-Roman-30"/>
      </g>
     </g>
    </g>
    <g id="xtick_7">
     <g id="line2d_32">
      <path clip-path="url(#pc6fb03dcbe)" d="M 221.4 140.4 
L 221.4 252 
" style="fill:none;stroke:#000000;stroke-dasharray:1.000000,3.000000;stroke-dashoffset:0.0;stroke-width:0.5;"/>
     </g>
     <g id="text_7">
      <!-- 180 -->
      <defs>
       <path d="M 31.78125 34.625 
Q 24.75 34.625 20.71875 30.859375 
Q 16.703125 27.09375 16.703125 20.515625 
Q 16.703125 13.921875 20.71875 10.15625 
Q 24.75 6.390625 31.78125 6.390625 
Q 38.8125 6.390625 42.859375 10.171875 
Q 46.921875 13.96875 46.921875 20.515625 
Q 46.921875 27.09375 42.890625 30.859375 
Q 38.875 34.625 31.78125 34.625 
M 21.921875 38.8125 
Q 15.578125 40.375 12.03125 44.71875 
Q 8.5 49.078125 8.5 55.328125 
Q 8.5 64.0625 14.71875 69.140625 
Q 20.953125 74.21875 31.78125 74.21875 
Q 42.671875 74.21875 48.875 69.140625 
Q 55.078125 64.0625 55.078125 55.328125 
Q 55.078125 49.078125 51.53125 44.71875 
Q 48 40.375 41.703125 38.8125 
Q 48.828125 37.15625 52.796875 32.3125 
Q 56.78125 27.484375 56.78125 20.515625 
Q 56.78125 9.90625 50.3125 4.234375 
Q 43.84375 -1.421875 31.78125 -1.421875 
Q 19.734375 -1.421875 13.25 4.234375 
Q 6.78125 9.90625 6.78125 20.515625 
Q 6.78125 27.484375 10.78125 32.3125 
Q 14.796875 37.15625 21.921875 38.8125 
M 18.3125 54.390625 
Q 18.3125 48.734375 21.84375 45.5625 
Q 25.390625 42.390625 31.78125 42.390625 
Q 38.140625 42.390625 41.71875 45.5625 
Q 45.3125 48.734375 45.3125 54.390625 
Q 45.3125 60.0625 41.71875 63.234375 
Q 38.140625 66.40625 31.78125 66.40625 
Q 25.390625 66.40625 21.84375 63.234375 
Q 18.3125 60.0625 18.3125 54.390625 
" id="BitstreamVeraSans-Roman-38"/>
      </defs>
      <g transform="translate(211.85625 265.919375)scale(0.1 -0.1)">
       <use xlink:href="#BitstreamVeraSans-Roman-31"/>
       <use x="63.623046875" xlink:href="#BitstreamVeraSans-Roman-38"/>
       <use x="127.24609375" xlink:href="#BitstreamVeraSans-Roman-30"/>
      </g>
     </g>
    </g>
    <g id="xtick_8">
     <g id="line2d_33">
      <path clip-path="url(#pc6fb03dcbe)" d="M 221.4 140.4 
L 165.6 237.048435 
" style="fill:none;stroke:#000000;stroke-dasharray:1.000000,3.000000;stroke-dashoffset:0.0;stroke-width:0.5;"/>
     </g>
     <g id="text_8">
      <!-- 210 -->
      <g transform="translate(150.47625 249.472653569)scale(0.1 -0.1)">
       <use xlink:href="#BitstreamVeraSans-Roman-32"/>
       <use x="63.623046875" xlink:href="#BitstreamVeraSans-Roman-31"/>
       <use x="127.24609375" xlink:href="#BitstreamVeraSans-Roman-30"/>
      </g>
     </g>
    </g>
    <g id="xtick_9">
     <g id="line2d_34">
      <path clip-path="url(#pc6fb03dcbe)" d="M 221.4 140.4 
L 124.751565 196.2 
" style="fill:none;stroke:#000000;stroke-dasharray:1.000000,3.000000;stroke-dashoffset:0.0;stroke-width:0.5;"/>
     </g>
     <g id="text_9">
      <!-- 240 -->
      <defs>
       <path d="M 37.796875 64.3125 
L 12.890625 25.390625 
L 37.796875 25.390625 
z
M 35.203125 72.90625 
L 47.609375 72.90625 
L 47.609375 25.390625 
L 58.015625 25.390625 
L 58.015625 17.1875 
L 47.609375 17.1875 
L 47.609375 0 
L 37.796875 0 
L 37.796875 17.1875 
L 4.890625 17.1875 
L 4.890625 26.703125 
z
" id="BitstreamVeraSans-Roman-34"/>
      </defs>
      <g transform="translate(105.542971431 204.539375)scale(0.1 -0.1)">
       <use xlink:href="#BitstreamVeraSans-Roman-32"/>
       <use x="63.623046875" xlink:href="#BitstreamVeraSans-Roman-34"/>
       <use x="127.24609375" xlink:href="#BitstreamVeraSans-Roman-30"/>
      </g>
     </g>
    </g>
    <g id="xtick_10">
     <g id="line2d_35">
      <path clip-path="url(#pc6fb03dcbe)" d="M 221.4 140.4 
L 109.8 140.4 
" style="fill:none;stroke:#000000;stroke-dasharray:1.000000,3.000000;stroke-dashoffset:0.0;stroke-width:0.5;"/>
     </g>
     <g id="text_10">
      <!-- 270 -->
      <defs>
       <path d="M 8.203125 72.90625 
L 55.078125 72.90625 
L 55.078125 68.703125 
L 28.609375 0 
L 18.3125 0 
L 43.21875 64.59375 
L 8.203125 64.59375 
z
" id="BitstreamVeraSans-Roman-37"/>
      </defs>
      <g transform="translate(89.09625 143.159375)scale(0.1 -0.1)">
       <use xlink:href="#BitstreamVeraSans-Roman-32"/>
       <use x="63.623046875" xlink:href="#BitstreamVeraSans-Roman-37"/>
       <use x="127.24609375" xlink:href="#BitstreamVeraSans-Roman-30"/>
      </g>
     </g>
    </g>
    <g id="xtick_11">
     <g id="line2d_36">
      <path clip-path="url(#pc6fb03dcbe)" d="M 221.4 140.4 
L 124.751565 84.6 
" style="fill:none;stroke:#000000;stroke-dasharray:1.000000,3.000000;stroke-dashoffset:0.0;stroke-width:0.5;"/>
     </g>
     <g id="text_11">
      <!-- 300 -->
      <g transform="translate(105.542971431 81.779375)scale(0.1 -0.1)">
       <use xlink:href="#BitstreamVeraSans-Roman-33"/>
       <use x="63.623046875" xlink:href="#BitstreamVeraSans-Roman-30"/>
       <use x="127.24609375" xlink:href="#BitstreamVeraSans-Roman-30"/>
      </g>
     </g>
    </g>
    <g id="xtick_12">
     <g id="line2d_37">
      <path clip-path="url(#pc6fb03dcbe)" d="M 221.4 140.4 
L 165.6 43.751565 
" style="fill:none;stroke:#000000;stroke-dasharray:1.000000,3.000000;stroke-dashoffset:0.0;stroke-width:0.5;"/>
     </g>
     <g id="text_12">
      <!-- 330 -->
      <g transform="translate(150.47625 36.8460964314)scale(0.1 -0.1)">
       <use xlink:href="#BitstreamVeraSans-Roman-33"/>
       <use x="63.623046875" xlink:href="#BitstreamVeraSans-Roman-33"/>
       <use x="127.24609375" xlink:href="#BitstreamVeraSans-Roman-30"/>
      </g>
     </g>
    </g>
   </g>
   <g id="matplotlib.axis_2">
    <g id="ytick_1">
     <g id="line2d_38">
      <path clip-path="url(#pc6fb03dcbe)" d="M 333 140.4 
L 332.932016 136.505216 
L 332.728148 132.615178 
L 332.388644 128.734623 
L 331.913916 124.868282 
L 331.304545 121.020863 
L 330.561272 117.197055 
L 329.685003 113.401516 
L 328.676805 109.638871 
L 327.537907 105.913703 
L 326.269696 102.230552 
L 324.873718 98.593904 
L 323.351673 95.008191 
L 321.705416 91.47778 
L 319.936951 88.006974 
L 318.048435 84.6 
L 316.042168 81.26101 
L 313.920593 77.994072 
L 311.686297 74.803166 
L 309.342 71.692179 
L 306.89056 68.664903 
L 304.334963 65.725024 
L 301.678322 62.876126 
L 298.923874 60.121678 
L 296.074976 57.465037 
L 293.135097 54.90944 
L 290.107821 52.458 
L 286.996834 50.113703 
L 283.805928 47.879407 
L 280.53899 45.757832 
L 277.2 43.751565 
L 273.793026 41.863049 
L 270.32222 40.094584 
L 266.791809 38.448327 
L 263.206096 36.926282 
L 259.569448 35.530304 
L 255.886297 34.262093 
L 252.161129 33.123195 
L 248.398484 32.114997 
L 244.602945 31.238728 
L 240.779137 30.495455 
L 236.931718 29.886084 
L 233.065377 29.411356 
L 229.184822 29.071852 
L 225.294784 28.867984 
L 221.4 28.8 
L 217.505216 28.867984 
L 213.615178 29.071852 
L 209.734623 29.411356 
L 205.868282 29.886084 
L 202.020863 30.495455 
L 198.197055 31.238728 
L 194.401516 32.114997 
L 190.638871 33.123195 
L 186.913703 34.262093 
L 183.230552 35.530304 
L 179.593904 36.926282 
L 176.008191 38.448327 
L 172.47778 40.094584 
L 169.006974 41.863049 
L 165.6 43.751565 
L 162.26101 45.757832 
L 158.994072 47.879407 
L 155.803166 50.113703 
L 152.692179 52.458 
L 149.664903 54.90944 
L 146.725024 57.465037 
L 143.876126 60.121678 
L 141.121678 62.876126 
L 138.465037 65.725024 
L 135.90944 68.664903 
L 133.458 71.692179 
L 131.113703 74.803166 
L 128.879407 77.994072 
L 126.757832 81.26101 
L 124.751565 84.6 
L 122.863049 88.006974 
L 121.094584 91.47778 
L 119.448327 95.008191 
L 117.926282 98.593904 
L 116.530304 102.230552 
L 115.262093 105.913703 
L 114.123195 109.638871 
L 113.114997 113.401516 
L 112.238728 117.197055 
L 111.495455 121.020863 
L 110.886084 124.868282 
L 110.411356 128.734623 
L 110.071852 132.615178 
L 109.867984 136.505216 
L 109.8 140.4 
L 109.867984 144.294784 
L 110.071852 148.184822 
L 110.411356 152.065377 
L 110.886084 155.931718 
L 111.495455 159.779137 
L 112.238728 163.602945 
L 113.114997 167.398484 
L 114.123195 171.161129 
L 115.262093 174.886297 
L 116.530304 178.569448 
L 117.926282 182.206096 
L 119.448327 185.791809 
L 121.094584 189.32222 
L 122.863049 192.793026 
L 124.751565 196.2 
L 126.757832 199.53899 
L 128.879407 202.805928 
L 131.113703 205.996834 
L 133.458 209.107821 
L 135.90944 212.135097 
L 138.465037 215.074976 
L 141.121678 217.923874 
L 143.876126 220.678322 
L 146.725024 223.334963 
L 149.664903 225.89056 
L 152.692179 228.342 
L 155.803166 230.686297 
L 158.994072 232.920593 
L 162.26101 235.042168 
L 165.6 237.048435 
L 169.006974 238.936951 
L 172.47778 240.705416 
L 176.008191 242.351673 
L 179.593904 243.873718 
L 183.230552 245.269696 
L 186.913703 246.537907 
L 190.638871 247.676805 
L 194.401516 248.685003 
L 198.197055 249.561272 
L 202.020863 250.304545 
L 205.868282 250.913916 
L 209.734623 251.388644 
L 213.615178 251.728148 
L 217.505216 251.932016 
L 221.4 252 
L 225.294784 251.932016 
L 229.184822 251.728148 
L 233.065377 251.388644 
L 236.931718 250.913916 
L 240.779137 250.304545 
L 244.602945 249.561272 
L 248.398484 248.685003 
L 252.161129 247.676805 
L 255.886297 246.537907 
L 259.569448 245.269696 
L 263.206096 243.873718 
L 266.791809 242.351673 
L 270.32222 240.705416 
L 273.793026 238.936951 
L 277.2 237.048435 
L 280.53899 235.042168 
L 283.805928 232.920593 
L 286.996834 230.686297 
L 290.107821 228.342 
L 293.135097 225.89056 
L 296.074976 223.334963 
L 298.923874 220.678322 
L 301.678322 217.923874 
L 304.334963 215.074976 
L 306.89056 212.135097 
L 309.342 209.107821 
L 311.686297 205.996834 
L 313.920593 202.805928 
L 316.042168 199.53899 
L 318.048435 196.2 
L 319.936951 192.793026 
L 321.705416 189.32222 
L 323.351673 185.791809 
L 324.873718 182.206096 
L 326.269696 178.569448 
L 327.537907 174.886297 
L 328.676805 171.161129 
L 329.685003 167.398484 
L 330.561272 163.602945 
L 331.304545 159.779137 
L 331.913916 155.931718 
L 332.388644 152.065377 
L 332.728148 148.184822 
L 332.932016 144.294784 
L 333 140.4 
L 333 140.4 
" style="fill:none;stroke:#000000;stroke-dasharray:1.000000,3.000000;stroke-dashoffset:0.0;stroke-width:0.5;"/>
     </g>
     <g id="text_13">
      <!-- 0 -->
      <g transform="translate(324.504955828 95.6128414481)scale(0.1 -0.1)">
       <use xlink:href="#BitstreamVeraSans-Roman-30"/>
      </g>
     </g>
    </g>
    <g id="ytick_2">
     <g id="line2d_39">
      <path clip-path="url(#pc6fb03dcbe)" d="M 307.033692 140.4 
L 306.981526 137.411427 
L 306.825092 134.426496 
L 306.200311 128.482094 
L 305.16239 122.595754 
L 303.716388 116.796156 
L 301.869348 111.111552 
L 299.63027 105.56964 
L 297.010062 100.197417 
L 294.021489 95.021057 
L 290.679112 90.065779 
L 286.999214 85.355724 
L 282.999723 80.913839 
L 278.700124 76.761765 
L 274.121365 72.91973 
L 269.285753 69.406452 
L 264.216846 66.239047 
L 258.93934 63.432948 
L 253.478946 61.001824 
L 247.862266 58.957519 
L 242.116665 57.309995 
L 236.270135 56.067276 
L 230.351158 55.235418 
L 224.388573 54.818474 
L 218.411427 54.818474 
L 212.448842 55.235418 
L 206.529865 56.067276 
L 200.683335 57.309995 
L 194.937734 58.957519 
L 189.321054 61.001824 
L 183.86066 63.432948 
L 178.583154 66.239047 
L 173.514247 69.406452 
L 168.678635 72.91973 
L 164.099876 76.761765 
L 159.800277 80.913839 
L 155.800786 85.355724 
L 152.120888 90.065779 
L 148.778511 95.021057 
L 145.789938 100.197417 
L 143.16973 105.56964 
L 140.930652 111.111552 
L 139.083612 116.796156 
L 137.63761 122.595754 
L 136.599689 128.482094 
L 135.974908 134.426496 
L 135.766308 140.4 
L 135.974908 146.373504 
L 136.599689 152.317906 
L 137.63761 158.204246 
L 139.083612 164.003844 
L 140.930652 169.688448 
L 143.16973 175.23036 
L 145.789938 180.602583 
L 148.778511 185.778943 
L 152.120888 190.734221 
L 155.800786 195.444276 
L 159.800277 199.886161 
L 164.099876 204.038235 
L 168.678635 207.88027 
L 173.514247 211.393548 
L 178.583154 214.560953 
L 183.86066 217.367052 
L 189.321054 219.798176 
L 194.937734 221.842481 
L 200.683335 223.490005 
L 206.529865 224.732724 
L 212.448842 225.564582 
L 218.411427 225.981526 
L 224.388573 225.981526 
L 230.351158 225.564582 
L 236.270135 224.732724 
L 242.116665 223.490005 
L 247.862266 221.842481 
L 253.478946 219.798176 
L 258.93934 217.367052 
L 264.216846 214.560953 
L 269.285753 211.393548 
L 274.121365 207.88027 
L 278.700124 204.038235 
L 282.999723 199.886161 
L 286.999214 195.444276 
L 290.679112 190.734221 
L 294.021489 185.778943 
L 297.010062 180.602583 
L 299.63027 175.23036 
L 301.869348 169.688448 
L 303.716388 164.003844 
L 305.16239 158.204246 
L 306.200311 152.317906 
L 306.825092 146.373504 
L 307.033692 140.4 
L 307.033692 140.4 
" style="fill:none;stroke:#000000;stroke-dasharray:1.000000,3.000000;stroke-dashoffset:0.0;stroke-width:0.5;"/>
     </g>
     <g id="text_14">
      <!-- 15 -->
      <g transform="translate(300.515215201 105.549717374)scale(0.1 -0.1)">
       <use xlink:href="#BitstreamVeraSans-Roman-31"/>
       <use x="63.623046875" xlink:href="#BitstreamVeraSans-Roman-35"/>
      </g>
     </g>
    </g>
    <g id="ytick_3">
     <g id="line2d_40">
      <path clip-path="url(#pc6fb03dcbe)" d="M 285.83229 140.4 
L 285.79304 138.151346 
L 285.675336 135.905431 
L 285.205239 131.432758 
L 284.42429 127.003774 
L 283.336292 122.640054 
L 281.946547 118.362859 
L 280.261826 114.193027 
L 278.290335 110.150872 
L 276.041681 106.256088 
L 273.526818 102.52765 
L 270.757998 98.983722 
L 267.748711 95.64157 
L 264.513617 92.517477 
L 261.068479 89.626663 
L 257.430079 86.983211 
L 253.616145 84.6 
L 249.645257 82.488641 
L 245.536761 80.659421 
L 241.310673 79.121251 
L 236.987582 77.881624 
L 232.58855 76.946581 
L 228.135008 76.320677 
L 223.648654 76.00696 
L 219.151346 76.00696 
L 214.664992 76.320677 
L 210.21145 76.946581 
L 205.812418 77.881624 
L 201.489327 79.121251 
L 197.263239 80.659421 
L 193.154743 82.488641 
L 189.183855 84.6 
L 185.369921 86.983211 
L 181.731521 89.626663 
L 178.286383 92.517477 
L 175.051289 95.64157 
L 172.042002 98.983722 
L 169.273182 102.52765 
L 166.758319 106.256088 
L 164.509665 110.150872 
L 162.538174 114.193027 
L 160.853453 118.362859 
L 159.463708 122.640054 
L 158.37571 127.003774 
L 157.594761 131.432758 
L 157.124664 135.905431 
L 156.96771 140.4 
L 157.124664 144.894569 
L 157.594761 149.367242 
L 158.37571 153.796226 
L 159.463708 158.159946 
L 160.853453 162.437141 
L 162.538174 166.606973 
L 164.509665 170.649128 
L 166.758319 174.543912 
L 169.273182 178.27235 
L 172.042002 181.816278 
L 175.051289 185.15843 
L 178.286383 188.282523 
L 181.731521 191.173337 
L 185.369921 193.816789 
L 189.183855 196.2 
L 193.154743 198.311359 
L 197.263239 200.140579 
L 201.489327 201.678749 
L 205.812418 202.918376 
L 210.21145 203.853419 
L 214.664992 204.479323 
L 219.151346 204.79304 
L 223.648654 204.79304 
L 228.135008 204.479323 
L 232.58855 203.853419 
L 236.987582 202.918376 
L 241.310673 201.678749 
L 245.536761 200.140579 
L 249.645257 198.311359 
L 253.616145 196.2 
L 257.430079 193.816789 
L 261.068479 191.173337 
L 264.513617 188.282523 
L 267.748711 185.15843 
L 270.757998 181.816278 
L 273.526818 178.27235 
L 276.041681 174.543912 
L 278.290335 170.649128 
L 280.261826 166.606973 
L 281.946547 162.437141 
L 283.336292 158.159946 
L 284.42429 153.796226 
L 285.205239 149.367242 
L 285.675336 144.894569 
L 285.83229 140.4 
L 285.83229 140.4 
" style="fill:none;stroke:#000000;stroke-dasharray:1.000000,3.000000;stroke-dashoffset:0.0;stroke-width:0.5;"/>
     </g>
     <g id="text_15">
      <!-- 30 -->
      <g transform="translate(280.927674002 113.663142592)scale(0.1 -0.1)">
       <use xlink:href="#BitstreamVeraSans-Roman-33"/>
       <use x="63.623046875" xlink:href="#BitstreamVeraSans-Roman-30"/>
      </g>
     </g>
    </g>
    <g id="ytick_4">
     <g id="line2d_41">
      <path clip-path="url(#pc6fb03dcbe)" d="M 267.626234 140.4 
L 267.598074 138.786728 
L 267.513629 137.175421 
L 267.176363 133.966552 
L 266.616079 130.789026 
L 265.835508 127.658323 
L 264.838451 124.589697 
L 263.629766 121.598097 
L 262.215342 118.698098 
L 260.602069 115.903828 
L 258.797809 113.228902 
L 256.811349 110.68635 
L 254.65237 108.28856 
L 252.331388 106.047214 
L 249.859711 103.973231 
L 247.249382 102.076716 
L 244.513117 100.366907 
L 241.664247 98.852136 
L 238.716652 97.539783 
L 235.684692 96.436239 
L 232.583138 95.546883 
L 229.427101 94.876047 
L 226.231957 94.426999 
L 223.013272 94.201926 
L 219.786728 94.201926 
L 216.568043 94.426999 
L 213.372899 94.876047 
L 210.216862 95.546883 
L 207.115308 96.436239 
L 204.083348 97.539783 
L 201.135753 98.852136 
L 198.286883 100.366907 
L 195.550618 102.076716 
L 192.940289 103.973231 
L 190.468612 106.047214 
L 188.14763 108.28856 
L 185.988651 110.68635 
L 184.002191 113.228902 
L 182.197931 115.903828 
L 180.584658 118.698098 
L 179.170234 121.598097 
L 177.961549 124.589697 
L 176.964492 127.658323 
L 176.183921 130.789026 
L 175.623637 133.966552 
L 175.286371 137.175421 
L 175.173766 140.4 
L 175.286371 143.624579 
L 175.623637 146.833448 
L 176.183921 150.010974 
L 176.964492 153.141677 
L 177.961549 156.210303 
L 179.170234 159.201903 
L 180.584658 162.101902 
L 182.197931 164.896172 
L 184.002191 167.571098 
L 185.988651 170.11365 
L 188.14763 172.51144 
L 190.468612 174.752786 
L 192.940289 176.826769 
L 195.550618 178.723284 
L 198.286883 180.433093 
L 201.135753 181.947864 
L 204.083348 183.260217 
L 207.115308 184.363761 
L 210.216862 185.253117 
L 213.372899 185.923953 
L 216.568043 186.373001 
L 219.786728 186.598074 
L 223.013272 186.598074 
L 226.231957 186.373001 
L 229.427101 185.923953 
L 232.583138 185.253117 
L 235.684692 184.363761 
L 238.716652 183.260217 
L 241.664247 181.947864 
L 244.513117 180.433093 
L 247.249382 178.723284 
L 249.859711 176.826769 
L 252.331388 174.752786 
L 254.65237 172.51144 
L 256.811349 170.11365 
L 258.797809 167.571098 
L 260.602069 164.896172 
L 262.215342 162.101902 
L 263.629766 159.201903 
L 264.838451 156.210303 
L 265.835508 153.141677 
L 266.616079 150.010974 
L 267.176363 146.833448 
L 267.513629 143.624579 
L 267.626234 140.4 
L 267.626234 140.4 
" style="fill:none;stroke:#000000;stroke-dasharray:1.000000,3.000000;stroke-dashoffset:0.0;stroke-width:0.5;"/>
     </g>
     <g id="text_16">
      <!-- 45 -->
      <g transform="translate(264.107471052 120.630298776)scale(0.1 -0.1)">
       <use xlink:href="#BitstreamVeraSans-Roman-34"/>
       <use x="63.623046875" xlink:href="#BitstreamVeraSans-Roman-35"/>
      </g>
     </g>
    </g>
    <g id="ytick_5">
     <g id="line2d_42">
      <path clip-path="url(#pc6fb03dcbe)" d="M 251.30313 140.4 
L 251.139317 137.274272 
L 250.649675 134.18279 
L 249.839567 131.159425 
L 248.717868 128.237301 
L 247.29687 125.448435 
L 245.59214 122.823381 
L 243.622356 120.390901 
L 241.409099 118.177644 
L 238.976619 116.20786 
L 236.351565 114.50313 
L 233.562699 113.082132 
L 230.640575 111.960433 
L 227.61721 111.150325 
L 224.525728 110.660683 
L 221.4 110.49687 
L 218.274272 110.660683 
L 215.18279 111.150325 
L 212.159425 111.960433 
L 209.237301 113.082132 
L 206.448435 114.50313 
L 203.823381 116.20786 
L 201.390901 118.177644 
L 199.177644 120.390901 
L 197.20786 122.823381 
L 195.50313 125.448435 
L 194.082132 128.237301 
L 192.960433 131.159425 
L 192.150325 134.18279 
L 191.660683 137.274272 
L 191.49687 140.4 
L 191.660683 143.525728 
L 192.150325 146.61721 
L 192.960433 149.640575 
L 194.082132 152.562699 
L 195.50313 155.351565 
L 197.20786 157.976619 
L 199.177644 160.409099 
L 201.390901 162.622356 
L 203.823381 164.59214 
L 206.448435 166.29687 
L 209.237301 167.717868 
L 212.159425 168.839567 
L 215.18279 169.649675 
L 218.274272 170.139317 
L 221.4 170.30313 
L 224.525728 170.139317 
L 227.61721 169.649675 
L 230.640575 168.839567 
L 233.562699 167.717868 
L 236.351565 166.29687 
L 238.976619 164.59214 
L 241.409099 162.622356 
L 243.622356 160.409099 
L 245.59214 157.976619 
L 247.29687 155.351565 
L 248.717868 152.562699 
L 249.839567 149.640575 
L 250.649675 146.61721 
L 251.139317 143.525728 
L 251.30313 140.4 
L 251.30313 140.4 
" style="fill:none;stroke:#000000;stroke-dasharray:1.000000,3.000000;stroke-dashoffset:0.0;stroke-width:0.5;"/>
     </g>
     <g id="text_17">
      <!-- 60 -->
      <g transform="translate(249.02688965 126.876880121)scale(0.1 -0.1)">
       <use xlink:href="#BitstreamVeraSans-Roman-36"/>
       <use x="63.623046875" xlink:href="#BitstreamVeraSans-Roman-30"/>
      </g>
     </g>
    </g>
    <g id="ytick_6">
     <g id="line2d_43">
      <path clip-path="url(#pc6fb03dcbe)" d="M 236.092419 140.4 
L 235.949433 138.355211 
L 235.523259 136.350221 
L 234.822192 134.424055 
L 233.859878 132.614204 
L 232.655046 130.955895 
L 231.231147 129.481405 
L 229.615896 128.219433 
L 227.840732 127.194542 
L 225.940207 126.426679 
L 223.951312 125.930792 
L 221.912758 125.716531 
L 219.864224 125.788068 
L 217.845582 126.144009 
L 215.896123 126.777427 
L 214.053791 127.675992 
L 212.354444 128.822216 
L 210.831158 130.193788 
L 209.513584 131.764013 
L 208.427364 133.502327 
L 207.593643 135.374897 
L 207.028646 137.345274 
L 206.743371 139.375109 
L 206.743371 141.424891 
L 207.028646 143.454726 
L 207.593643 145.425103 
L 208.427364 147.297673 
L 209.513584 149.035987 
L 210.831158 150.606212 
L 212.354444 151.977784 
L 214.053791 153.124008 
L 215.896123 154.022573 
L 217.845582 154.655991 
L 219.864224 155.011932 
L 221.912758 155.083469 
L 223.951312 154.869208 
L 225.940207 154.373321 
L 227.840732 153.605458 
L 229.615896 152.580567 
L 231.231147 151.318595 
L 232.655046 149.844105 
L 233.859878 148.185796 
L 234.822192 146.375945 
L 235.523259 144.449779 
L 235.949433 142.444789 
L 236.092419 140.4 
L 236.092419 140.4 
" style="fill:none;stroke:#000000;stroke-dasharray:1.000000,3.000000;stroke-dashoffset:0.0;stroke-width:0.5;"/>
     </g>
     <g id="text_18">
      <!-- 75 -->
      <g transform="translate(234.974024948 132.69776727)scale(0.1 -0.1)">
       <use xlink:href="#BitstreamVeraSans-Roman-37"/>
       <use x="63.623046875" xlink:href="#BitstreamVeraSans-Roman-35"/>
      </g>
     </g>
    </g>
   </g>
   <g id="legend_1">
    <g id="patch_4">
     <path d="M 350.971875 177.4275 
L 438.6 177.4275 
L 438.6 103.3725 
L 350.971875 103.3725 
z
" style="fill:#ffffff;stroke:#000000;stroke-linejoin:miter;"/>
    </g>
    <g id="line2d_44">
     <path d="M 359.371875 113.090625 
L 376.171875 113.090625 
" style="fill:none;opacity:0.6;stroke:#008000;stroke-linecap:square;stroke-width:0.4;"/>
    </g>
    <g id="line2d_45"/>
    <g id="text_19">
     <!-- Group1 -->
     <defs>
      <path d="M 59.515625 10.40625 
L 59.515625 29.984375 
L 43.40625 29.984375 
L 43.40625 38.09375 
L 69.28125 38.09375 
L 69.28125 6.78125 
Q 63.578125 2.734375 56.6875 0.65625 
Q 49.8125 -1.421875 42 -1.421875 
Q 24.90625 -1.421875 15.25 8.5625 
Q 5.609375 18.5625 5.609375 36.375 
Q 5.609375 54.25 15.25 64.234375 
Q 24.90625 74.21875 42 74.21875 
Q 49.125 74.21875 55.546875 72.453125 
Q 61.96875 70.703125 67.390625 67.28125 
L 67.390625 56.78125 
Q 61.921875 61.421875 55.765625 63.765625 
Q 49.609375 66.109375 42.828125 66.109375 
Q 29.4375 66.109375 22.71875 58.640625 
Q 16.015625 51.171875 16.015625 36.375 
Q 16.015625 21.625 22.71875 14.15625 
Q 29.4375 6.6875 42.828125 6.6875 
Q 48.046875 6.6875 52.140625 7.59375 
Q 56.25 8.5 59.515625 10.40625 
" id="BitstreamVeraSans-Roman-47"/>
      <path d="M 30.609375 48.390625 
Q 23.390625 48.390625 19.1875 42.75 
Q 14.984375 37.109375 14.984375 27.296875 
Q 14.984375 17.484375 19.15625 11.84375 
Q 23.34375 6.203125 30.609375 6.203125 
Q 37.796875 6.203125 41.984375 11.859375 
Q 46.1875 17.53125 46.1875 27.296875 
Q 46.1875 37.015625 41.984375 42.703125 
Q 37.796875 48.390625 30.609375 48.390625 
M 30.609375 56 
Q 42.328125 56 49.015625 48.375 
Q 55.71875 40.765625 55.71875 27.296875 
Q 55.71875 13.875 49.015625 6.21875 
Q 42.328125 -1.421875 30.609375 -1.421875 
Q 18.84375 -1.421875 12.171875 6.21875 
Q 5.515625 13.875 5.515625 27.296875 
Q 5.515625 40.765625 12.171875 48.375 
Q 18.84375 56 30.609375 56 
" id="BitstreamVeraSans-Roman-6f"/>
      <path d="M 8.5 21.578125 
L 8.5 54.6875 
L 17.484375 54.6875 
L 17.484375 21.921875 
Q 17.484375 14.15625 20.5 10.265625 
Q 23.53125 6.390625 29.59375 6.390625 
Q 36.859375 6.390625 41.078125 11.03125 
Q 45.3125 15.671875 45.3125 23.6875 
L 45.3125 54.6875 
L 54.296875 54.6875 
L 54.296875 0 
L 45.3125 0 
L 45.3125 8.40625 
Q 42.046875 3.421875 37.71875 1 
Q 33.40625 -1.421875 27.6875 -1.421875 
Q 18.265625 -1.421875 13.375 4.4375 
Q 8.5 10.296875 8.5 21.578125 
" id="BitstreamVeraSans-Roman-75"/>
      <path d="M 18.109375 8.203125 
L 18.109375 -20.796875 
L 9.078125 -20.796875 
L 9.078125 54.6875 
L 18.109375 54.6875 
L 18.109375 46.390625 
Q 20.953125 51.265625 25.265625 53.625 
Q 29.59375 56 35.59375 56 
Q 45.5625 56 51.78125 48.09375 
Q 58.015625 40.1875 58.015625 27.296875 
Q 58.015625 14.40625 51.78125 6.484375 
Q 45.5625 -1.421875 35.59375 -1.421875 
Q 29.59375 -1.421875 25.265625 0.953125 
Q 20.953125 3.328125 18.109375 8.203125 
M 48.6875 27.296875 
Q 48.6875 37.203125 44.609375 42.84375 
Q 40.53125 48.484375 33.40625 48.484375 
Q 26.265625 48.484375 22.1875 42.84375 
Q 18.109375 37.203125 18.109375 27.296875 
Q 18.109375 17.390625 22.1875 11.75 
Q 26.265625 6.109375 33.40625 6.109375 
Q 40.53125 6.109375 44.609375 11.75 
Q 48.6875 17.390625 48.6875 27.296875 
" id="BitstreamVeraSans-Roman-70"/>
      <path d="M 41.109375 46.296875 
Q 39.59375 47.171875 37.8125 47.578125 
Q 36.03125 48 33.890625 48 
Q 26.265625 48 22.1875 43.046875 
Q 18.109375 38.09375 18.109375 28.8125 
L 18.109375 0 
L 9.078125 0 
L 9.078125 54.6875 
L 18.109375 54.6875 
L 18.109375 46.1875 
Q 20.953125 51.171875 25.484375 53.578125 
Q 30.03125 56 36.53125 56 
Q 37.453125 56 38.578125 55.875 
Q 39.703125 55.765625 41.0625 55.515625 
z
" id="BitstreamVeraSans-Roman-72"/>
     </defs>
     <g transform="translate(389.371875 117.290625)scale(0.12 -0.12)">
      <use xlink:href="#BitstreamVeraSans-Roman-47"/>
      <use x="77.490234375" xlink:href="#BitstreamVeraSans-Roman-72"/>
      <use x="118.572265625" xlink:href="#BitstreamVeraSans-Roman-6f"/>
      <use x="179.75390625" xlink:href="#BitstreamVeraSans-Roman-75"/>
      <use x="243.1328125" xlink:href="#BitstreamVeraSans-Roman-70"/>
      <use x="306.609375" xlink:href="#BitstreamVeraSans-Roman-31"/>
     </g>
    </g>
    <g id="line2d_46">
     <path d="M 359.371875 130.704375 
L 376.171875 130.704375 
" style="fill:none;opacity:0.6;stroke:#0000ff;stroke-linecap:square;stroke-width:0.5;"/>
    </g>
    <g id="line2d_47"/>
    <g id="text_20">
     <!-- Group2 -->
     <g transform="translate(389.371875 134.904375)scale(0.12 -0.12)">
      <use xlink:href="#BitstreamVeraSans-Roman-47"/>
      <use x="77.490234375" xlink:href="#BitstreamVeraSans-Roman-72"/>
      <use x="118.572265625" xlink:href="#BitstreamVeraSans-Roman-6f"/>
      <use x="179.75390625" xlink:href="#BitstreamVeraSans-Roman-75"/>
      <use x="243.1328125" xlink:href="#BitstreamVeraSans-Roman-70"/>
      <use x="306.609375" xlink:href="#BitstreamVeraSans-Roman-32"/>
     </g>
    </g>
    <g id="line2d_48">
     <path d="M 359.371875 148.318125 
L 376.171875 148.318125 
" style="fill:none;opacity:0.6;stroke:#ff0000;stroke-linecap:square;stroke-width:0.5;"/>
    </g>
    <g id="line2d_49"/>
    <g id="text_21">
     <!-- Group3 -->
     <g transform="translate(389.371875 152.518125)scale(0.12 -0.12)">
      <use xlink:href="#BitstreamVeraSans-Roman-47"/>
      <use x="77.490234375" xlink:href="#BitstreamVeraSans-Roman-72"/>
      <use x="118.572265625" xlink:href="#BitstreamVeraSans-Roman-6f"/>
      <use x="179.75390625" xlink:href="#BitstreamVeraSans-Roman-75"/>
      <use x="243.1328125" xlink:href="#BitstreamVeraSans-Roman-70"/>
      <use x="306.609375" xlink:href="#BitstreamVeraSans-Roman-33"/>
     </g>
    </g>
    <g id="line2d_50">
     <path d="M 359.371875 165.931875 
L 376.171875 165.931875 
" style="fill:none;opacity:0.6;stroke:#ffff00;stroke-linecap:square;stroke-width:0.5;"/>
    </g>
    <g id="line2d_51"/>
    <g id="text_22">
     <!-- Group4 -->
     <g transform="translate(389.371875 170.131875)scale(0.12 -0.12)">
      <use xlink:href="#BitstreamVeraSans-Roman-47"/>
      <use x="77.490234375" xlink:href="#BitstreamVeraSans-Roman-72"/>
      <use x="118.572265625" xlink:href="#BitstreamVeraSans-Roman-6f"/>
      <use x="179.75390625" xlink:href="#BitstreamVeraSans-Roman-75"/>
      <use x="243.1328125" xlink:href="#BitstreamVeraSans-Roman-70"/>
      <use x="306.609375" xlink:href="#BitstreamVeraSans-Roman-34"/>
     </g>
    </g>
   </g>
  </g>
 </g>
 <defs>
  <clipPath id="pc6fb03dcbe">
   <path d="M 221.4 252 
C 250.996666 252 279.385114 240.24112 300.313117 219.313117 
C 321.24112 198.385114 333 169.996666 333 140.4 
C 333 110.803334 321.24112 82.414886 300.313117 61.486883 
C 279.385114 40.55888 250.996666 28.8 221.4 28.8 
C 191.803334 28.8 163.414886 40.55888 142.486883 61.486883 
C 121.55888 82.414886 109.8 110.803334 109.8 140.4 
C 109.8 169.996666 121.55888 198.385114 142.486883 219.313117 
C 163.414886 240.24112 191.803334 252 221.4 252 
z
"/>
  </clipPath>
 </defs>
</svg>
