<?xml version="1.0" encoding="utf-8" standalone="no"?>
<!DOCTYPE svg PUBLIC "-//W3C//DTD SVG 1.1//EN"
  "http://www.w3.org/Graphics/SVG/1.1/DTD/svg11.dtd">
<!-- Created with matplotlib (http://matplotlib.org/) -->
<svg height="997pt" version="1.1" viewBox="0 0 576 997" width="576pt" xmlns="http://www.w3.org/2000/svg" xmlns:xlink="http://www.w3.org/1999/xlink">
 <defs>
  <style type="text/css">
*{stroke-linecap:butt;stroke-linejoin:round;stroke-miterlimit:100000;}
  </style>
 </defs>
 <g id="figure_1">
  <g id="patch_1">
   <path d="M 0 997.661265 
L 576 997.661265 
L 576 0 
L 0 0 
z
" style="fill:#ffffff;"/>
  </g>
  <g id="axes_1">
   <g id="patch_2">
    <path d="M 295.2 722.030633 
C 354.393332 722.030633 411.170227 698.512873 453.026234 656.656866 
C 494.88224 614.80086 518.4 558.023964 518.4 498.830633 
C 518.4 439.637301 494.88224 382.860405 453.026234 341.004399 
C 411.170227 299.148393 354.393332 275.630633 295.2 275.630633 
C 236.006668 275.630633 179.229773 299.148393 137.373766 341.004399 
C 95.51776 382.860405 72 439.637301 72 498.830633 
C 72 558.023964 95.51776 614.80086 137.373766 656.656866 
C 179.229773 698.512873 236.006668 722.030633 295.2 722.030633 
z
" style="fill:#ffffff;"/>
   </g>
   <g id="line2d_1">
    <path clip-path="url(#pb78485af50)" d="M 518.4 498.830633 
" style="fill:none;stroke:#0000ff;stroke-linecap:square;"/>
   </g>
   <g id="line2d_2">
    <path clip-path="url(#pb78485af50)" d="M 406.8 305.533762 
L 409.52799 308.556905 
L 412.1815 311.621099 
L 417.263996 317.863317 
L 422.046181 324.241842 
L 426.528093 330.738339 
L 430.711056 337.334845 
L 434.597606 344.013907 
L 438.191406 350.758697 
L 441.497145 357.553122 
L 444.52043 364.381914 
L 447.267674 371.230704 
L 449.745979 378.08608 
L 451.96302 384.935631 
L 453.926927 391.767969 
L 455.646171 398.572738 
L 457.129463 405.340613 
L 458.385649 412.063284 
L 459.423621 418.733421 
L 460.252229 425.344646 
L 460.880214 431.891481 
L 461.316136 438.369304 
L 461.568322 444.774288 
L 461.644817 451.103349 
L 461.553344 457.354086 
L 461.301275 463.524717 
L 460.895607 469.614027 
L 460.342939 475.621306 
L 459.251746 484.477965 
L 457.862792 493.150323 
L 456.193109 501.640778 
L 454.257632 509.953026 
L 452.069239 518.091753 
L 449.638815 526.062363 
L 446.97533 533.870728 
L 444.085912 541.522981 
L 440.975943 549.025315 
L 437.649138 556.38382 
L 434.107625 563.604322 
L 430.352035 570.692244 
L 426.38157 577.652472 
L 422.194085 584.489224 
L 417.786155 591.205926 
L 413.153155 597.805081 
L 408.28933 604.288139 
L 403.187881 610.655357 
L 397.84105 616.905654 
L 392.240223 623.036454 
L 386.376045 629.04352 
L 380.238562 634.920779 
L 373.817378 640.660137 
L 367.101858 646.251288 
L 360.081354 651.681523 
L 355.226433 655.204838 
L 350.228389 658.64468 
L 345.084435 661.995269 
L 339.791999 665.250239 
L 334.348779 668.402622 
L 328.752802 671.444836 
L 323.002495 674.36868 
L 317.096749 677.165338 
L 311.034989 679.825382 
L 304.817255 682.338794 
L 298.444274 684.694986 
L 291.917536 686.882844 
L 285.23937 688.890769 
L 278.413016 690.706742 
L 271.442691 692.318391 
L 264.333653 693.713079 
L 257.092252 694.878001 
L 249.725972 695.800287 
L 242.243462 696.467124 
L 234.654549 696.86588 
L 226.970241 696.98424 
L 219.20271 696.810341 
L 211.365257 696.332909 
L 203.472261 695.541404 
L 195.539108 694.426145 
L 187.582113 692.97844 
L 187.582113 692.97844 
" style="fill:none;opacity:0.6;stroke:#008000;stroke-linecap:square;stroke-width:0.4;"/>
   </g>
   <g id="line2d_3">
    <path clip-path="url(#pb78485af50)" d="M 382.411188 293.373949 
L 385.467728 296.085997 
L 388.453618 298.847603 
L 394.211328 304.50996 
L 399.680988 310.341941 
L 404.860716 316.324553 
L 409.75003 322.439055 
L 414.349783 328.667107 
L 418.662082 334.990916 
L 422.690194 341.393354 
L 426.438438 347.85808 
L 429.912071 354.369623 
L 433.117166 360.913467 
L 436.060494 367.476097 
L 438.749396 374.045047 
L 441.191668 380.608911 
L 443.395444 387.157355 
L 445.369089 393.681104 
L 447.121097 400.171918 
L 448.660002 406.622561 
L 449.994292 413.026755 
L 451.132342 419.379136 
L 452.082343 425.675194 
L 452.852258 431.911219 
L 453.449766 438.084239 
L 453.882236 444.191957 
L 454.156688 450.232696 
L 454.286535 459.165904 
L 454.096553 467.944271 
L 453.605556 476.568184 
L 452.830309 485.039767 
L 451.785544 493.362545 
L 450.483982 501.541125 
L 448.936394 509.580928 
L 447.151658 517.48795 
L 445.13683 525.268541 
L 442.897219 532.929222 
L 440.436453 540.476515 
L 437.756551 547.91679 
L 434.857985 555.256121 
L 431.739745 562.500161 
L 428.399389 569.654004 
L 424.833104 576.72206 
L 421.035757 583.707922 
L 417.000947 590.61423 
L 412.721068 597.442518 
L 408.187368 604.193058 
L 403.39003 610.864688 
L 398.318261 617.454622 
L 392.960406 623.958246 
L 387.304089 630.368904 
L 381.336384 636.677661 
L 375.044025 642.873067 
L 370.662164 646.933468 
L 366.126169 650.932294 
L 361.432226 654.863979 
L 356.576663 658.722307 
L 351.556015 662.500384 
L 346.367083 666.190619 
L 341.007007 669.78471 
L 335.473339 673.273629 
L 329.764122 676.647626 
L 323.877974 679.896235 
L 317.814173 683.008291 
L 311.572744 685.971959 
L 305.154551 688.774778 
L 298.561376 691.403719 
L 291.796007 693.845253 
L 284.862314 696.085436 
L 277.765313 698.110012 
L 270.51123 699.904527 
L 263.10754 701.454453 
L 255.562998 702.745331 
L 247.887655 703.762915 
L 240.092847 704.493326 
L 232.191175 704.923213 
L 224.196454 705.039903 
L 216.123654 704.831557 
L 212.062947 704.60206 
L 212.062947 704.60206 
" style="fill:none;opacity:0.6;stroke:#008000;stroke-linecap:square;stroke-width:0.4;"/>
   </g>
   <g id="line2d_4">
    <path clip-path="url(#pb78485af50)" d="M 385.983619 294.927286 
L 389.012669 297.648715 
L 391.971938 300.418756 
L 397.679081 306.095513 
L 403.101806 311.939222 
L 408.238235 317.931643 
L 413.087805 324.054774 
L 417.651217 330.290991 
L 421.930353 336.623178 
L 425.928193 343.034839 
L 429.648719 349.510203 
L 433.096807 356.034309 
L 436.278118 362.593078 
L 439.198987 369.173363 
L 441.866308 375.762987 
L 444.287426 382.350769 
L 446.470029 388.926524 
L 448.422044 395.481059 
L 450.151548 402.006159 
L 451.666678 408.494554 
L 452.975554 414.939883 
L 454.086205 421.336653 
L 455.006512 427.680189 
L 455.744155 433.966584 
L 456.306563 440.192639 
L 456.700882 446.355815 
L 456.933942 452.454171 
L 457.012233 458.486312 
L 456.852791 467.408513 
L 456.377954 476.178548 
L 455.604912 484.797021 
L 454.548904 493.266046 
L 453.223228 501.588938 
L 451.639274 509.769932 
L 449.806576 517.813933 
L 447.732865 525.726292 
L 445.424141 533.512608 
L 442.884732 541.178548 
L 440.117369 548.729684 
L 437.123242 556.171344 
L 433.90207 563.50847 
L 430.452159 570.745481 
L 426.770463 577.886142 
L 422.852642 584.933427 
L 418.693126 591.889378 
L 414.285179 598.754962 
L 409.620973 605.529916 
L 404.69167 612.212576 
L 399.487527 618.799708 
L 393.998005 625.286313 
L 388.211924 631.665426 
L 382.117627 637.927911 
L 375.703196 644.062242 
L 371.243158 648.073733 
L 366.632055 652.017169 
L 361.866512 655.887093 
L 356.943305 659.677442 
L 351.859417 663.381528 
L 346.612094 666.992014 
L 341.198913 670.500912 
L 335.617849 673.899568 
L 329.867346 677.178667 
L 323.946397 680.32824 
L 317.854617 683.337683 
L 311.592327 686.195785 
L 305.16063 688.890769 
L 298.561491 691.410342 
L 291.797814 693.741759 
L 284.873504 695.871905 
L 277.79354 697.787378 
L 270.564019 699.474597 
L 263.192202 700.919916 
L 255.686543 702.109746 
L 248.056703 703.030686 
L 240.313546 703.669667 
L 232.469122 704.014088 
L 224.53663 704.051962 
L 216.53036 703.772052 
L 208.465627 703.16401 
L 208.465627 703.16401 
" style="fill:none;opacity:0.6;stroke:#008000;stroke-linecap:square;stroke-width:0.4;"/>
   </g>
   <g id="line2d_5">
    <path clip-path="url(#pb78485af50)" d="M 382.411188 293.373949 
L 385.467728 296.085997 
L 388.453618 298.847603 
L 394.211328 304.50996 
L 399.680988 310.341941 
L 404.860716 316.324553 
L 409.75003 322.439055 
L 414.349783 328.667107 
L 418.662082 334.990916 
L 422.690194 341.393354 
L 426.438438 347.85808 
L 429.912071 354.369623 
L 433.117166 360.913467 
L 436.060494 367.476097 
L 438.749396 374.045047 
L 441.191668 380.608911 
L 443.395444 387.157355 
L 445.369089 393.681104 
L 447.121097 400.171918 
L 448.660002 406.622561 
L 449.994292 413.026755 
L 451.132342 419.379136 
L 452.082343 425.675194 
L 452.852258 431.911219 
L 453.449766 438.084239 
L 453.882236 444.191957 
L 454.156688 450.232696 
L 454.286535 459.165904 
L 454.096553 467.944271 
L 453.605556 476.568184 
L 452.830309 485.039767 
L 451.785544 493.362545 
L 450.483982 501.541125 
L 448.936394 509.580928 
L 447.151658 517.48795 
L 445.13683 525.268541 
L 442.897219 532.929222 
L 440.436453 540.476515 
L 437.756551 547.91679 
L 434.857985 555.256121 
L 431.739745 562.500161 
L 428.399389 569.654004 
L 424.833104 576.72206 
L 421.035757 583.707922 
L 417.000947 590.61423 
L 412.721068 597.442518 
L 408.187368 604.193058 
L 403.39003 610.864688 
L 398.318261 617.454622 
L 392.960406 623.958246 
L 387.304089 630.368904 
L 381.336384 636.677661 
L 375.044025 642.873067 
L 370.662164 646.933468 
L 366.126169 650.932294 
L 361.432226 654.863979 
L 356.576663 658.722307 
L 351.556015 662.500384 
L 346.367083 666.190619 
L 341.007007 669.78471 
L 335.473339 673.273629 
L 329.764122 676.647626 
L 323.877974 679.896235 
L 317.814173 683.008291 
L 311.572744 685.971959 
L 305.154551 688.774778 
L 298.561376 691.403719 
L 291.796007 693.845253 
L 284.862314 696.085436 
L 277.765313 698.110012 
L 270.51123 699.904527 
L 263.10754 701.454453 
L 255.562998 702.745331 
L 247.887655 703.762915 
L 240.092847 704.493326 
L 232.191175 704.923213 
L 224.196454 705.039903 
L 216.123654 704.831557 
L 212.062947 704.60206 
L 212.062947 704.60206 
" style="fill:none;opacity:0.6;stroke:#008000;stroke-linecap:square;stroke-width:0.4;"/>
   </g>
   <g id="line2d_6">
    <path clip-path="url(#pb78485af50)" d="M 378.812192 291.883196 
L 381.934373 294.497255 
L 384.988513 297.162331 
L 390.890295 302.636453 
L 396.513659 308.287352 
L 401.856091 314.096864 
L 406.916402 320.047017 
L 411.694674 326.120175 
L 416.192193 332.299165 
L 420.411362 338.567397 
L 424.355608 344.908972 
L 428.029284 351.308768 
L 431.437555 357.752515 
L 434.586293 364.226854 
L 437.481964 370.719377 
L 440.131518 377.218649 
L 442.542281 383.714226 
L 444.721857 390.196645 
L 446.67803 396.657411 
L 448.418679 403.088976 
L 449.951696 409.484699 
L 451.284915 415.838811 
L 452.426048 422.146365 
L 453.382633 428.403187 
L 454.161985 434.605822 
L 454.771155 440.751482 
L 455.216903 446.837989 
L 455.505665 452.863723 
L 455.657701 461.786053 
L 455.489223 470.567318 
L 455.017432 479.207519 
L 454.257632 487.708239 
L 453.223228 496.072327 
L 451.925752 504.303616 
L 450.374901 512.406677 
L 448.578591 520.386588 
L 446.543012 528.248734 
L 444.272688 535.998628 
L 441.770541 543.641744 
L 439.037948 551.183364 
L 436.0748 558.628437 
L 432.879559 565.98144 
L 429.449311 573.246241 
L 425.779824 580.425962 
L 421.865601 587.522841 
L 417.699944 594.538078 
L 413.275022 601.471683 
L 408.581944 608.322303 
L 403.610858 615.087044 
L 398.35106 621.761279 
L 392.791131 628.338438 
L 386.919104 634.809796 
L 380.722665 641.16425 
L 376.405343 645.32895 
L 371.934673 649.430909 
L 367.307092 653.46479 
L 362.519166 657.424648 
L 357.567645 661.303902 
L 352.449523 665.095319 
L 347.162098 668.790997 
L 341.703045 672.382359 
L 336.070484 675.860149 
L 330.263061 679.214442 
L 324.28002 682.434651 
L 318.121291 685.509563 
L 311.787565 688.427369 
L 305.280379 691.175713 
L 298.602186 693.741759 
L 291.756436 696.112262 
L 284.747634 698.273655 
L 277.5814 700.212154 
L 270.264514 701.913865 
L 262.804952 703.364913 
L 255.211901 704.55157 
L 247.495761 705.460394 
L 239.668136 706.078372 
L 231.741797 706.393063 
L 223.730635 706.392739 
L 215.649595 706.066522 
L 215.649595 706.066522 
" style="fill:none;opacity:0.6;stroke:#008000;stroke-linecap:square;stroke-width:0.4;"/>
   </g>
   <g id="line2d_7">
    <path clip-path="url(#pb78485af50)" d="M 410.156498 307.510891 
L 412.856221 310.54132 
L 415.482386 313.612 
L 420.512989 319.865137 
L 425.247001 326.252434 
L 429.68438 332.756254 
L 433.8263 339.359316 
L 437.675076 346.044819 
L 441.234089 352.796544 
L 444.507691 359.598958 
L 447.501112 366.437296 
L 450.220352 373.297626 
L 452.672078 380.166911 
L 454.86351 387.033039 
L 456.802321 393.884858 
L 458.496529 400.712179 
L 459.954396 407.50578 
L 461.184339 414.257388 
L 462.19484 420.95966 
L 462.994367 427.606149 
L 463.591305 434.191267 
L 463.993889 440.710236 
L 464.210152 447.159044 
L 464.247878 453.53439 
L 464.114563 459.833633 
L 463.817378 466.054734 
L 463.363153 472.196206 
L 462.758346 478.257055 
L 462.00904 484.236733 
L 460.62648 493.053813 
L 458.949037 501.688883 
L 456.992236 510.144248 
L 454.769611 518.423317 
L 452.292757 526.530324 
L 449.571384 534.470075 
L 446.613389 542.247723 
L 443.424936 549.868571 
L 440.01053 557.337885 
L 436.373107 564.660734 
L 432.514106 571.841838 
L 428.433552 578.885427 
L 424.130136 585.795107 
L 419.601288 592.573727 
L 414.843263 599.223251 
L 409.851217 605.744622 
L 404.619296 612.137631 
L 399.140735 618.40077 
L 393.407958 624.531087 
L 387.412708 630.524028 
L 381.146183 636.373277 
L 374.599202 642.070584 
L 367.762399 647.605598 
L 360.626452 652.965694 
L 355.698488 656.434581 
L 350.631015 659.813989 
L 345.421664 663.098293 
L 340.068277 666.281321 
L 334.568963 669.356348 
L 328.922155 672.316081 
L 323.126666 675.152664 
L 317.181757 677.857674 
L 311.087198 680.422135 
L 304.843341 682.836532 
L 298.451184 685.090838 
L 291.912445 687.174551 
L 285.229624 689.076733 
L 278.406075 690.78607 
L 271.446062 692.290936 
L 264.354815 693.579468 
L 257.138581 694.639656 
L 249.804663 695.459439 
L 242.361443 696.02681 
L 234.818405 696.329931 
L 227.18613 696.357253 
L 219.476291 696.097639 
L 211.701619 695.540491 
L 203.875863 694.675876 
L 196.013731 693.494646 
L 188.130814 691.988557 
L 184.186654 691.111387 
L 184.186654 691.111387 
" style="fill:none;opacity:0.6;stroke:#008000;stroke-linecap:square;stroke-width:0.4;"/>
   </g>
   <g id="line2d_8">
    <path clip-path="url(#pb78485af50)" d="M 410.156498 307.510891 
L 412.753116 310.706322 
L 415.269379 313.940003 
L 420.060377 320.511534 
L 424.5296 327.204456 
L 428.678749 333.998105 
L 432.511036 340.872355 
L 436.031075 347.807794 
L 439.244759 354.785873 
L 442.15912 361.789036 
L 444.782179 368.800828 
L 447.122793 375.805981 
L 449.190496 382.79047 
L 450.995352 389.741553 
L 452.547797 396.647778 
L 453.858507 403.498984 
L 454.938261 410.286268 
L 455.797832 417.00195 
L 456.447871 423.639515 
L 456.898826 430.193553 
L 457.160856 436.659685 
L 457.24377 443.034488 
L 457.156973 449.315417 
L 456.909424 455.500723 
L 456.509607 461.589375 
L 455.641708 470.540431 
L 454.47384 479.274264 
L 453.028167 487.794212 
L 451.32425 496.105474 
L 449.379116 504.214686 
L 447.207347 512.129552 
L 444.821197 519.85852 
L 442.230716 527.410509 
L 439.443877 534.79467 
L 436.466694 542.020195 
L 433.303345 549.096139 
L 429.956276 556.031278 
L 426.426303 562.833977 
L 422.7127 569.512076 
L 418.813278 576.072781 
L 414.724456 582.522558 
L 410.441331 588.867028 
L 405.957728 595.110857 
L 401.266269 601.257637 
L 396.358424 607.309761 
L 391.224583 613.268274 
L 385.854125 619.132719 
L 380.235508 624.900958 
L 374.356382 630.568975 
L 368.203722 636.130665 
L 361.764003 641.577598 
L 355.023411 646.898771 
L 347.968111 652.080354 
L 340.584567 657.105428 
L 335.473463 660.358671 
L 330.207199 663.526553 
L 324.782526 666.601473 
L 319.196567 669.57508 
L 313.446897 672.438259 
L 307.531628 675.181126 
L 301.449505 677.793032 
L 295.2 680.262579 
L 288.783413 682.577647 
L 282.200969 684.725439 
L 275.454918 686.692538 
L 268.54863 688.464985 
L 261.48668 690.028373 
L 254.274928 691.367957 
L 246.920587 692.468782 
L 239.432266 693.315834 
L 231.820007 693.894193 
L 224.095293 694.189208 
L 216.271035 694.186675 
L 208.361533 693.873022 
L 200.382416 693.235489 
L 192.350551 692.262312 
L 184.283938 690.942887 
L 184.283938 690.942887 
" style="fill:none;opacity:0.6;stroke:#008000;stroke-linecap:square;stroke-width:0.4;"/>
   </g>
   <g id="line2d_9">
    <path clip-path="url(#pb78485af50)" d="M 413.47798 309.546298 
L 416.045854 312.744336 
L 418.534483 315.979742 
L 423.273558 322.552502 
L 427.695279 329.244409 
L 431.801216 336.035643 
L 435.594362 342.906897 
L 439.07903 349.839535 
L 442.260741 356.815725 
L 445.146095 363.818562 
L 447.742638 370.832161 
L 450.058716 377.841743 
L 452.103339 384.833684 
L 453.886031 391.795553 
L 455.4167 398.716127 
L 456.705503 405.585387 
L 457.762726 412.394498 
L 458.598672 419.135775 
L 459.223562 425.802638 
L 459.647446 432.389552 
L 459.880128 438.891968 
L 459.931102 445.306253 
L 459.809497 451.629619 
L 459.524038 457.860048 
L 459.083008 463.996224 
L 458.494231 470.037454 
L 457.34997 478.92112 
L 455.912408 487.592526 
L 454.201782 496.055246 
L 452.235874 504.314446 
L 450.030078 512.376509 
L 447.597488 520.248703 
L 444.949009 527.938891 
L 442.093463 535.455286 
L 439.037712 542.806234 
L 435.786764 550.00003 
L 432.343881 557.044756 
L 428.710682 563.948143 
L 424.887231 570.717439 
L 420.872126 577.359293 
L 416.662573 583.879642 
L 412.254461 590.283601 
L 407.642428 596.575344 
L 402.819931 602.757991 
L 397.779312 608.833477 
L 392.511877 614.802411 
L 387.007974 620.663929 
L 381.257096 626.415524 
L 375.247992 632.052864 
L 368.968815 637.569596 
L 362.407293 642.957137 
L 355.550939 648.204449 
L 348.387317 653.297816 
L 340.904342 658.220614 
L 335.732623 661.398104 
L 330.4108 664.484421 
L 324.936064 667.472231 
L 319.305968 670.35351 
L 313.518502 673.119532 
L 307.572167 675.760871 
L 301.46607 678.267399 
L 295.2 680.628312 
L 288.774525 682.832151 
L 282.191081 684.866843 
L 275.452057 686.71976 
L 268.560885 688.377783 
L 261.522118 689.827392 
L 254.3415 691.054763 
L 247.026027 692.045884 
L 239.583996 692.786687 
L 232.025033 693.263189 
L 224.360104 693.461647 
L 216.601512 693.368716 
L 208.762864 692.971618 
L 200.85902 692.258307 
L 192.906019 691.217631 
L 184.920987 689.839486 
L 180.92208 689.02103 
L 180.92208 689.02103 
" style="fill:none;opacity:0.6;stroke:#008000;stroke-linecap:square;stroke-width:0.4;"/>
   </g>
   <g id="line2d_10">
    <path clip-path="url(#pb78485af50)" d="M 244.990925 281.351234 
L 249.375903 283.245204 
L 253.684989 285.254419 
L 257.91413 287.371955 
L 262.059638 289.590623 
L 266.118222 291.903027 
L 270.086997 294.301632 
L 277.745693 299.326992 
L 285.021121 304.606056 
L 291.905343 310.079887 
L 298.396681 315.692888 
L 304.499057 321.394061 
L 310.221171 327.137862 
L 315.575602 332.884671 
L 320.577894 338.600914 
L 325.2457 344.258905 
L 329.598011 349.836479 
L 333.654497 355.316495 
L 339.22783 363.326905 
L 344.245415 371.062957 
L 348.769032 378.512617 
L 352.855596 385.675154 
L 356.556578 392.557921 
L 360.970021 401.322567 
L 364.873242 409.65295 
L 368.345266 417.594584 
L 371.451882 425.195046 
L 374.903459 434.288044 
L 377.954825 443.011798 
L 380.673769 451.451749 
L 383.11337 459.689078 
L 385.314822 467.801611 
L 387.685772 477.47861 
L 389.461931 485.582982 
L 391.071812 493.806204 
L 392.521953 502.22919 
L 393.811113 510.938555 
L 394.929155 520.028719 
L 395.855097 529.603984 
L 396.434679 537.690985 
L 396.843298 546.227681 
L 397.045425 555.284474 
L 396.993481 564.936092 
L 396.750653 572.611501 
L 396.296556 580.697009 
L 395.590739 589.22286 
L 394.584648 598.215281 
L 393.220672 607.693617 
L 392.079682 614.287342 
L 390.727497 621.100253 
L 389.139813 628.127693 
L 387.290603 635.360566 
L 385.152416 642.784589 
L 382.696829 650.379585 
L 379.895062 658.118877 
L 376.718768 665.968876 
L 373.140979 673.888937 
L 369.137178 681.831569 
L 364.686441 689.743061 
L 362.288194 693.668897 
L 359.772562 697.564545 
L 357.138423 701.422086 
L 354.385065 705.233483 
L 351.512206 708.990645 
L 348.520006 712.685494 
L 348.520006 712.685494 
" style="fill:none;opacity:0.6;stroke:#0000ff;stroke-linecap:square;stroke-width:0.5;"/>
   </g>
   <g id="line2d_11">
    <path clip-path="url(#pb78485af50)" d="M 252.611432 279.731445 
L 256.92764 281.777295 
L 261.163982 283.93567 
L 265.316645 286.199512 
L 269.382197 288.561504 
L 273.357607 291.014142 
L 277.240254 293.549795 
L 284.718902 298.839378 
L 291.805662 304.369134 
L 298.494657 310.079887 
L 304.786149 315.916014 
L 310.685839 321.826683 
L 316.204012 327.766684 
L 321.35462 333.696859 
L 326.154371 339.584198 
L 330.621873 345.401646 
L 334.776877 351.127716 
L 338.639643 356.745963 
L 343.930021 364.946 
L 348.674566 372.85245 
L 352.935437 380.455444 
L 356.769543 387.756236 
L 360.228066 394.763973 
L 364.332938 403.677307 
L 367.943055 412.138835 
L 371.135806 420.196804 
L 373.975277 427.901055 
L 377.10741 437.108972 
L 379.852462 445.933903 
L 382.2752 454.463602 
L 384.425837 462.781055 
L 386.342824 470.965475 
L 388.374607 480.719324 
L 389.866845 488.880746 
L 391.188759 497.155143 
L 392.34406 505.623607 
L 393.328481 514.372657 
L 394.1286 523.496303 
L 394.719807 533.09805 
L 395.016803 541.200352 
L 395.127246 549.746108 
L 395.013173 558.804438 
L 394.624424 568.448363 
L 394.113876 576.110622 
L 393.377875 584.175357 
L 392.374941 592.671382 
L 391.055632 601.623213 
L 389.361697 611.048173 
L 387.991285 617.598061 
L 386.402156 624.359632 
L 384.570185 631.327381 
L 382.469678 638.491311 
L 380.073698 645.836191 
L 377.354546 653.340861 
L 374.284389 660.977658 
L 370.836069 668.712024 
L 366.984052 676.502397 
L 362.705496 684.30046 
L 357.981364 692.051804 
L 355.447569 695.891551 
L 352.797513 699.697032 
L 350.030352 703.460293 
L 347.145655 707.173277 
L 344.143423 710.827889 
L 341.024097 714.416061 
L 341.024097 714.416061 
" style="fill:none;opacity:0.6;stroke:#0000ff;stroke-linecap:square;stroke-width:0.5;"/>
   </g>
   <g id="line2d_12">
    <path clip-path="url(#pb78485af50)" d="M 241.203033 282.260626 
L 245.620397 284.07778 
L 249.963894 286.011484 
L 254.229346 288.054889 
L 258.412944 290.20087 
L 262.511266 292.44209 
L 266.521298 294.771065 
L 274.266533 299.661997 
L 281.632985 304.813283 
L 288.611691 310.166134 
L 295.2 315.664991 
L 301.400945 321.258795 
L 307.222431 326.901856 
L 312.676342 332.554342 
L 317.777635 338.182413 
L 322.543475 343.758077 
L 326.992465 349.258844 
L 331.143973 354.66723 
L 336.856258 362.579152 
L 342.008092 370.226456 
L 346.661034 377.596033 
L 350.87198 384.686159 
L 354.692519 391.503287 
L 359.258253 400.189573 
L 363.306265 408.450566 
L 366.916362 416.330396 
L 370.155151 423.875482 
L 373.764897 432.906857 
L 376.968048 441.576029 
L 379.833876 449.967242 
L 382.416867 458.16074 
L 384.759566 466.233616 
L 387.299042 475.867762 
L 389.216371 483.939902 
L 390.969522 492.133775 
L 392.566444 500.53017 
L 394.007406 509.215709 
L 395.283923 518.284976 
L 396.376836 527.842624 
L 397.097467 535.918278 
L 397.655009 544.446542 
L 398.015169 553.498428 
L 398.131676 563.149483 
L 398.02284 570.82796 
L 397.709923 578.920162 
L 397.153011 587.457033 
L 396.304013 596.465643 
L 395.105664 605.966341 
L 394.079924 612.578974 
L 392.846847 619.414446 
L 391.382051 626.468525 
L 389.659353 633.732569 
L 387.651058 641.192778 
L 385.328396 648.829473 
L 382.662126 656.616484 
L 379.623317 664.520721 
L 376.184296 672.502017 
L 372.319723 680.513315 
L 368.007739 688.501278 
L 365.678373 692.468371 
L 363.231113 696.40733 
L 360.664698 700.310256 
L 357.978277 704.169125 
L 355.171427 707.975853 
L 352.244167 711.722361 
L 352.244167 711.722361 
" style="fill:none;opacity:0.6;stroke:#0000ff;stroke-linecap:square;stroke-width:0.5;"/>
   </g>
   <g id="line2d_13">
    <path clip-path="url(#pb78485af50)" d="M 244.990925 281.351234 
L 249.334496 283.050401 
L 253.608248 284.859619 
L 257.808515 286.772982 
L 261.931939 288.784361 
L 265.975491 290.887447 
L 273.812579 295.342913 
L 281.302506 300.087202 
L 288.433673 305.068371 
L 295.2 310.236099 
L 301.60055 315.542873 
L 307.638982 320.944904 
L 313.322899 326.402763 
L 318.663137 331.88174 
L 323.673047 337.351958 
L 328.367825 342.788286 
L 332.76389 348.170099 
L 336.878357 353.48093 
L 340.728585 358.708055 
L 346.04611 366.371987 
L 350.864151 373.806902 
L 355.235668 381.004 
L 359.209418 387.963068 
L 362.829602 394.690177 
L 367.17435 403.317444 
L 371.042288 411.58406 
L 374.502626 419.528006 
L 377.613473 427.189694 
L 380.423365 434.610221 
L 383.57335 443.608834 
L 386.379595 452.372309 
L 388.892118 460.97656 
L 391.14939 469.49596 
L 393.180023 478.004336 
L 395.003855 486.57626 
L 396.632473 495.288533 
L 398.069157 504.221777 
L 399.308224 513.462089 
L 400.333639 523.102646 
L 400.981397 531.171251 
L 401.452568 539.617172 
L 401.717333 548.500481 
L 401.735953 557.884476 
L 401.557626 565.290254 
L 401.184492 573.041773 
L 400.583616 581.165337 
L 399.715735 589.684775 
L 398.534488 598.619587 
L 396.985782 607.98252 
L 395.718792 614.464275 
L 394.240598 621.135585 
L 392.529287 627.990959 
L 390.561625 635.021148 
L 388.313328 642.212583 
L 385.759445 649.546859 
L 382.874872 657.000289 
L 379.634979 664.543609 
L 376.016358 672.141872 
L 371.997664 679.754592 
L 367.560496 687.336171 
L 362.690282 694.836644 
L 360.089478 698.539911 
L 357.37709 702.202729 
L 354.552711 705.818135 
L 351.6163 709.37913 
L 348.568185 712.878733 
L 348.568185 712.878733 
" style="fill:none;opacity:0.6;stroke:#0000ff;stroke-linecap:square;stroke-width:0.5;"/>
   </g>
   <g id="line2d_14">
    <path clip-path="url(#pb78485af50)" d="M 237.431589 283.235988 
L 241.90594 285.079833 
L 246.305318 287.044499 
L 250.625186 289.122621 
L 254.861399 291.306523 
L 259.010239 293.588296 
L 263.068428 295.959872 
L 267.033152 298.413094 
L 274.673273 303.531875 
L 281.917387 308.880416 
L 288.759451 314.397435 
L 295.2 320.026212 
L 301.245305 325.715756 
L 306.906388 331.421484 
L 312.197998 337.105481 
L 317.137614 342.7364 
L 321.744534 348.289101 
L 326.039093 353.744109 
L 330.042009 359.086968 
L 335.544451 366.869881 
L 340.503869 374.359275 
L 344.982738 381.549851 
L 349.037999 388.446376 
L 353.87347 397.205201 
L 358.151059 405.501849 
L 361.959072 413.382917 
L 365.371089 420.897743 
L 369.171207 429.851366 
L 372.543829 438.403011 
L 375.565222 446.640847 
L 378.295561 454.647939 
L 381.253732 464.062668 
L 383.92302 473.389716 
L 386.348653 482.758666 
L 388.560963 492.302198 
L 390.253747 500.489802 
L 391.811462 508.984906 
L 393.227346 517.885218 
L 394.484354 527.299963 
L 395.355644 535.284306 
L 396.082388 543.746366 
L 396.631328 552.762627 
L 396.956805 562.415341 
L 397.017866 570.12427 
L 396.885553 578.276093 
L 396.518781 586.905705 
L 395.867483 596.044091 
L 394.871376 605.715097 
L 393.980935 612.465099 
L 392.881695 619.45748 
L 391.547376 626.687919 
L 389.949622 634.147117 
L 388.058323 641.819911 
L 385.842121 649.684454 
L 383.269117 657.711525 
L 380.30779 665.864075 
L 376.928107 674.097123 
L 373.102785 682.358093 
L 371.015563 686.480736 
L 368.808623 690.587651 
L 366.479915 694.67059 
L 364.027802 698.721084 
L 361.451085 702.730505 
L 358.74903 706.690145 
L 355.92139 710.591285 
L 355.92139 710.591285 
" style="fill:none;opacity:0.6;stroke:#0000ff;stroke-linecap:square;stroke-width:0.5;"/>
   </g>
   <g id="line2d_15">
    <path clip-path="url(#pb78485af50)" d="M 233.677742 284.277022 
L 238.129437 285.840391 
L 242.514335 287.519971 
L 246.828255 289.309587 
L 251.067342 291.2028 
L 255.228086 293.192962 
L 259.307345 295.273271 
L 267.210737 299.676678 
L 274.760062 304.357616 
L 281.944045 309.261647 
L 288.757332 314.336774 
L 295.2 319.534617 
L 301.27689 324.811271 
L 306.996849 330.127836 
L 312.371929 335.450645 
L 317.41661 340.751238 
L 322.147081 346.006144 
L 326.5806 351.196518 
L 330.734958 356.307702 
L 336.482121 363.802899 
L 341.700341 371.071995 
L 346.445557 378.103665 
L 350.769564 384.896141 
L 354.719502 391.454609 
L 359.476753 399.853113 
L 363.731509 407.886248 
L 367.558156 415.592096 
L 371.019318 423.011315 
L 374.910941 431.945211 
L 378.39688 440.57555 
L 381.544063 448.979865 
L 384.40557 457.233392 
L 387.023108 465.409755 
L 389.428816 473.582097 
L 391.646471 481.824518 
L 393.692129 490.213688 
L 395.574219 498.830633 
L 397.29302 507.762614 
L 398.839438 517.105062 
L 399.939082 524.945019 
L 400.898357 533.174111 
L 401.692604 541.856437 
L 402.287674 551.060781 
L 402.576024 558.350134 
L 402.701745 566.005178 
L 402.634243 574.056899 
L 402.336289 582.534676 
L 401.763021 591.464454 
L 400.861 600.866274 
L 400.046419 607.402278 
L 399.037061 614.153372 
L 397.81007 621.116552 
L 396.340824 628.284984 
L 394.603157 635.647341 
L 392.569707 643.18716 
L 390.212413 650.882278 
L 387.503158 658.704392 
L 384.41457 666.618836 
L 380.920948 674.584621 
L 376.999276 682.554814 
L 372.63027 690.477275 
L 370.273257 694.403155 
L 367.799371 698.295766 
L 365.207672 702.147676 
L 362.497612 705.951386 
L 359.66905 709.699393 
L 359.66905 709.699393 
" style="fill:none;opacity:0.6;stroke:#0000ff;stroke-linecap:square;stroke-width:0.5;"/>
   </g>
   <g id="line2d_16">
    <path clip-path="url(#pb78485af50)" d="M 187.945782 303.089036 
L 193.431868 305.155199 
L 198.843422 307.413388 
L 204.166629 309.846107 
L 209.388639 312.434768 
L 214.497787 315.160084 
L 219.483765 318.002473 
L 224.337754 320.942444 
L 229.05249 323.960956 
L 233.622287 327.039723 
L 242.312015 333.310176 
L 250.39105 339.631056 
L 257.863528 345.902282 
L 264.749128 352.046978 
L 271.078455 358.009773 
L 276.888885 363.753831 
L 284.721074 371.915499 
L 291.617006 379.511598 
L 297.708729 386.55276 
L 304.783023 395.135247 
L 310.876049 402.89273 
L 317.402856 411.598148 
L 324.012462 420.856789 
L 329.631537 429.102445 
L 335.281326 437.766205 
L 340.896997 446.778199 
L 346.50234 456.20835 
L 351.648602 465.287249 
L 356.568128 474.384471 
L 361.45523 483.875068 
L 365.919846 492.991549 
L 370.636451 503.153852 
L 375.083942 513.319201 
L 379.216303 523.366887 
L 382.93297 533.001013 
L 386.103205 541.761566 
L 389.448725 551.6773 
L 392.059904 560.01561 
L 394.732711 569.251572 
L 397.423018 579.503586 
L 399.191832 586.959731 
L 400.906015 594.948278 
L 402.525295 603.491886 
L 403.998509 612.602233 
L 405.262519 622.275313 
L 406.24194 632.486339 
L 406.598248 637.778949 
L 406.850196 643.184937 
L 406.985683 648.69343 
L 406.992382 654.291652 
L 406.857942 659.964973 
L 406.570221 665.697021 
L 406.117541 671.469873 
L 405.488943 677.264303 
L 404.67445 683.060099 
L 403.665312 688.836427 
L 403.665312 688.836427 
" style="fill:none;opacity:0.6;stroke:#ff0000;stroke-linecap:square;stroke-width:0.5;"/>
   </g>
   <g id="line2d_17">
    <path clip-path="url(#pb78485af50)" d="M 186.547843 303.861536 
L 192.151253 306.080449 
L 197.677544 308.500852 
L 203.111241 311.102948 
L 208.437972 313.865712 
L 213.644739 316.767373 
L 218.720129 319.785917 
L 223.654467 322.89955 
L 228.439893 326.087128 
L 233.07038 329.32852 
L 241.85128 335.898961 
L 249.9828 342.479273 
L 257.472947 348.965094 
L 264.346578 355.279037 
L 270.6399 361.367943 
L 276.395703 367.198873 
L 284.121451 375.427703 
L 290.893063 383.029861 
L 296.85218 390.031016 
L 303.747626 398.509698 
L 309.66748 406.125694 
L 315.992258 414.623966 
L 322.383895 423.612922 
L 328.64103 432.829134 
L 334.689924 442.159943 
L 340.560298 451.644885 
L 346.365141 461.479319 
L 351.767772 471.081631 
L 357.052875 480.942628 
L 361.920427 490.484685 
L 366.49705 499.913316 
L 370.819236 509.283315 
L 374.852358 518.498344 
L 378.505474 527.303748 
L 382.471105 537.449207 
L 385.889411 546.787424 
L 389.525459 557.474558 
L 392.376669 566.5464 
L 395.2973 576.670115 
L 397.253155 584.069563 
L 399.184105 592.032002 
L 401.051679 600.587284 
L 402.805356 609.75447 
L 404.380875 619.536388 
L 405.69935 629.913466 
L 406.233638 635.311423 
L 406.667814 640.837612 
L 406.988497 646.480767 
L 407.181906 652.227379 
L 407.234092 658.061732 
L 407.131207 663.966019 
L 406.859807 669.920547 
L 406.407174 675.904029 
L 405.761631 681.893957 
L 404.912857 687.867049 
L 404.912857 687.867049 
" style="fill:none;opacity:0.6;stroke:#ff0000;stroke-linecap:square;stroke-width:0.5;"/>
   </g>
   <g id="line2d_18">
    <path clip-path="url(#pb78485af50)" d="M 185.596345 304.394836 
L 191.011187 306.217813 
L 196.357507 308.225562 
L 201.622606 310.402777 
L 206.794617 312.733162 
L 211.862691 315.199753 
L 216.817145 317.785242 
L 221.649578 320.472295 
L 226.352938 323.243851 
L 230.921554 326.083389 
L 239.638648 331.904324 
L 247.781806 337.821187 
L 255.35027 343.738561 
L 262.357954 349.58065 
L 268.82955 355.290452 
L 274.796885 360.827682 
L 280.295844 366.166117 
L 287.748172 373.770785 
L 294.355952 380.880463 
L 300.235699 387.507184 
L 307.121116 395.641698 
L 313.106434 403.056004 
L 319.579676 411.453569 
L 326.204918 420.481199 
L 331.895386 428.608985 
L 337.672264 437.240586 
L 343.469385 446.319679 
L 348.686617 454.880594 
L 354.128392 464.243724 
L 359.344018 473.679951 
L 363.951851 482.43895 
L 368.669918 491.872743 
L 372.993436 500.990012 
L 376.918852 509.719739 
L 381.110679 519.598742 
L 384.847522 528.98294 
L 388.01269 537.445822 
L 391.334604 546.950272 
L 393.918256 554.887619 
L 396.559852 563.628039 
L 399.223657 573.276799 
L 401.851162 583.938665 
L 403.539807 591.656283 
L 405.136708 599.887212 
L 406.596009 608.643676 
L 407.861506 617.925191 
L 408.866319 627.71441 
L 409.533549 637.973054 
L 409.714269 643.259892 
L 409.778319 648.638658 
L 409.714448 654.097508 
L 409.511455 659.623035 
L 409.158396 665.200375 
L 408.64479 670.813364 
L 407.960842 676.44476 
L 407.097656 682.076495 
L 406.047434 687.68998 
L 406.047434 687.68998 
" style="fill:none;opacity:0.6;stroke:#ff0000;stroke-linecap:square;stroke-width:0.5;"/>
   </g>
   <g id="line2d_19">
    <path clip-path="url(#pb78485af50)" d="M 184.174014 305.20349 
L 189.804114 307.353781 
L 195.359563 309.706488 
L 200.824644 312.242007 
L 206.184731 314.939487 
L 211.426558 317.777322 
L 216.538447 320.733634 
L 221.510456 323.786752 
L 226.334467 326.915628 
L 231.004209 330.100208 
L 239.864725 336.562882 
L 248.07603 343.04336 
L 255.644855 349.43719 
L 262.59511 355.666687 
L 268.962351 361.678253 
L 274.788961 367.438428 
L 282.614664 375.572259 
L 289.478646 383.091122 
L 295.522852 390.018951 
L 302.521368 398.412759 
L 308.533824 405.955863 
L 314.961954 414.376232 
L 321.462931 423.286429 
L 327.832194 432.425511 
L 333.994631 441.681724 
L 339.980444 451.094239 
L 345.905002 460.857022 
L 351.42454 470.392613 
L 356.829721 480.188307 
L 361.813485 489.670184 
L 366.504956 499.042199 
L 370.941293 508.358695 
L 375.086694 517.523763 
L 378.847113 526.28388 
L 382.936395 536.380134 
L 386.468531 545.675892 
L 390.234872 556.317808 
L 393.1967 565.354138 
L 396.240794 575.441417 
L 398.286903 582.816418 
L 400.314986 590.754673 
L 402.286941 599.2865 
L 404.152482 608.431577 
L 405.847389 618.193517 
L 407.292543 628.553712 
L 407.892737 633.944739 
L 408.394394 639.465212 
L 408.783996 645.104028 
L 409.047597 650.847848 
L 409.171057 656.681128 
L 409.140312 662.586232 
L 408.94168 668.543631 
L 408.56218 674.532195 
L 407.989864 680.529564 
L 407.214127 686.512579 
L 407.214127 686.512579 
" style="fill:none;opacity:0.6;stroke:#ff0000;stroke-linecap:square;stroke-width:0.5;"/>
   </g>
   <g id="line2d_20">
    <path clip-path="url(#pb78485af50)" d="M 179.443114 307.994097 
L 184.91341 309.643226 
L 190.321118 311.479221 
L 195.653059 313.487189 
L 200.896852 315.651222 
L 206.041109 317.95471 
L 211.075601 320.380665 
L 215.991378 322.912028 
L 220.780847 325.531973 
L 225.43781 328.224168 
L 234.336345 333.763762 
L 242.664299 339.417563 
L 250.417869 345.090227 
L 257.608541 350.705552 
L 264.259173 356.205777 
L 270.400292 361.549622 
L 276.066924 366.70973 
L 283.758299 374.072535 
L 290.58975 380.967575 
L 296.678117 387.403151 
L 303.819791 395.313637 
L 310.038825 402.533026 
L 316.776935 410.71959 
L 323.687087 419.531045 
L 329.634206 427.472965 
L 335.68378 435.915685 
L 341.767877 444.805022 
L 347.255833 453.194963 
L 352.993835 462.379539 
L 358.508139 471.644397 
L 363.393332 480.251782 
L 368.410253 489.530096 
L 373.022717 498.504648 
L 377.224907 507.104568 
L 381.730073 516.84467 
L 385.764687 526.104749 
L 389.198495 534.462238 
L 392.82223 543.855758 
L 395.658036 551.706551 
L 398.577403 560.358156 
L 401.547974 569.916928 
L 404.514615 580.489449 
L 406.448854 588.149206 
L 408.307788 596.324941 
L 410.045975 605.030338 
L 411.607223 614.266707 
L 412.924133 624.018845 
L 413.918624 634.250949 
L 414.268082 639.52932 
L 414.503866 644.903297 
L 414.61435 650.361403 
L 414.587913 655.890595 
L 414.413141 661.476364 
L 414.079043 667.102892 
L 413.575278 672.753257 
L 412.892376 678.409685 
L 412.021952 684.053845 
L 412.021952 684.053845 
" style="fill:none;opacity:0.6;stroke:#ff0000;stroke-linecap:square;stroke-width:0.5;"/>
   </g>
   <g id="line2d_21">
    <path clip-path="url(#pb78485af50)" d="M 175.70215 310.314045 
L 181.016448 311.547509 
L 186.277905 312.954499 
L 191.475351 314.52346 
L 196.598218 316.24201 
L 201.636684 318.097146 
L 206.581791 320.07546 
L 211.425541 322.163357 
L 216.160963 324.347258 
L 220.782153 326.613793 
L 229.6636 331.34336 
L 238.04383 336.255242 
L 245.912304 341.264332 
L 253.271701 346.298999 
L 260.135203 351.301415 
L 266.523724 356.226827 
L 272.463386 361.042178 
L 280.595544 368.010664 
L 287.886768 374.636556 
L 294.438455 380.904347 
L 300.345235 386.818022 
L 307.363927 394.180824 
L 313.561815 400.998474 
L 320.373734 408.850373 
L 326.356108 416.072746 
L 332.686824 424.068974 
L 339.192757 432.691368 
L 345.01083 440.776886 
L 351.07844 449.619136 
L 356.747067 458.29404 
L 362.201661 467.058886 
L 367.600219 476.183404 
L 372.392668 484.704902 
L 377.349638 493.993209 
L 381.802492 502.808668 
L 385.702664 510.9545 
L 389.808078 520.030061 
L 393.254967 528.118001 
L 396.848901 537.098697 
L 400.576391 547.142467 
L 403.437311 555.487913 
L 406.320743 564.625813 
L 409.17694 574.642782 
L 411.030294 581.848747 
L 412.809221 589.500066 
L 414.476635 597.610087 
L 415.987373 606.18383 
L 417.287757 615.215189 
L 418.315744 624.684046 
L 419.001887 634.553646 
L 419.193508 639.6222 
L 419.271335 644.768706 
L 419.225682 649.983259 
L 419.046978 655.254814 
L 418.725919 660.571272 
L 418.253621 665.919599 
L 417.62178 671.285973 
L 416.82283 676.65596 
L 415.850081 682.01472 
L 415.850081 682.01472 
" style="fill:none;opacity:0.6;stroke:#ff0000;stroke-linecap:square;stroke-width:0.5;"/>
   </g>
   <g id="line2d_22">
    <path clip-path="url(#pb78485af50)" d="M 85.460607 422.491737 
L 87.523995 419.111283 
L 89.643315 415.780341 
L 94.044146 409.270276 
L 98.651796 402.967668 
L 103.454837 396.877921 
L 108.441779 391.005724 
L 113.601123 385.35506 
L 118.921415 379.929226 
L 124.3913 374.730848 
L 129.99957 369.761911 
L 135.735207 365.023784 
L 141.587429 360.517252 
L 147.545722 356.242554 
L 153.59988 352.199416 
L 159.740029 348.387093 
L 165.956653 344.804409 
L 172.240615 341.449797 
L 178.583173 338.321341 
L 184.975989 335.416817 
L 191.411139 332.733734 
L 197.881112 330.269375 
L 204.378819 328.020833 
L 210.897578 325.985052 
L 217.431115 324.158858 
L 223.973555 322.538995 
L 230.519404 321.122156 
L 237.063542 319.905013 
L 243.601203 318.884242 
L 250.127959 318.056549 
L 256.639702 317.418694 
L 263.132624 316.967507 
L 269.603196 316.699912 
L 276.048148 316.612936 
L 282.464446 316.703731 
L 288.849272 316.969579 
L 295.2 317.407905 
L 301.514176 318.016286 
L 307.789496 318.792457 
L 314.023781 319.734316 
L 320.214962 320.839928 
L 326.361052 322.107526 
L 332.460128 323.535514 
L 338.510311 325.122464 
L 344.509745 326.867117 
L 350.456576 328.768378 
L 356.348935 330.825314 
L 362.184917 333.037145 
L 367.962561 335.403244 
L 373.679836 337.923124 
L 379.334617 340.596432 
L 384.924673 343.422941 
L 390.447647 346.402534 
L 395.90104 349.535201 
L 401.282195 352.821017 
L 406.588282 356.260133 
L 411.816282 359.85276 
L 416.962972 363.599152 
L 422.024916 367.499588 
L 426.998447 371.554352 
L 431.87966 375.763714 
L 436.664399 380.127908 
L 441.348249 384.647107 
L 445.926528 389.3214 
L 450.394282 394.150767 
L 454.746282 399.135051 
L 458.977018 404.273927 
L 463.080703 409.566879 
L 467.051274 415.013166 
L 470.8824 420.611789 
L 474.567484 426.361465 
L 478.099681 432.260593 
L 481.471909 438.30722 
L 484.676867 444.499015 
L 487.707056 450.833233 
L 490.554804 457.306687 
L 493.212296 463.915722 
L 495.671602 470.656186 
L 497.924715 477.523406 
L 499.96359 484.512168 
L 501.780184 491.616694 
L 503.366503 498.830633 
L 504.714646 506.147045 
L 505.816859 513.558398 
L 506.665582 521.056561 
L 507.253503 528.632809 
L 507.573613 536.27783 
L 507.619256 543.981739 
L 507.384185 551.734092 
L 506.862611 559.52391 
L 506.049255 567.339708 
L 505.531659 571.253631 
L 505.531659 571.253631 
" style="fill:none;opacity:0.6;stroke:#ffff00;stroke-linecap:square;stroke-width:0.5;"/>
   </g>
   <g id="line2d_23">
    <path clip-path="url(#pb78485af50)" d="M 86.824849 418.842906 
L 88.983453 415.513739 
L 91.196816 412.236418 
L 95.781912 405.840451 
L 100.568241 399.660798 
L 105.543805 393.702487 
L 110.696572 387.969789 
L 116.014532 382.466229 
L 121.485755 377.194609 
L 127.098451 372.15703 
L 132.841018 367.354921 
L 138.70209 362.789075 
L 144.670584 358.459681 
L 150.735735 354.366368 
L 156.887135 350.508244 
L 163.114757 346.883942 
L 169.408984 343.491665 
L 175.760624 340.329228 
L 182.160928 337.394107 
L 188.601596 334.683485 
L 195.074786 332.194293 
L 201.573111 329.923254 
L 208.089641 327.866926 
L 214.61789 326.02174 
L 221.151813 324.384035 
L 227.685789 322.950099 
L 234.214608 321.716194 
L 240.733456 320.678593 
L 247.23789 319.833602 
L 253.723827 319.177588 
L 260.187513 318.707 
L 266.625508 318.418389 
L 273.03466 318.308428 
L 279.412084 318.373923 
L 285.755133 318.611829 
L 292.061381 319.019262 
L 298.328596 319.593506 
L 304.554716 320.332021 
L 310.737828 321.232449 
L 316.876143 322.292617 
L 322.967974 323.510544 
L 329.011716 324.884435 
L 335.005819 326.412687 
L 340.948774 328.093885 
L 346.839084 329.9268 
L 352.67525 331.910386 
L 358.455749 334.043773 
L 364.179011 336.326266 
L 369.843406 338.757332 
L 375.447219 341.336597 
L 380.988636 344.063836 
L 386.465723 346.938962 
L 391.876411 349.962014 
L 397.218476 353.13315 
L 402.489524 356.452625 
L 407.686975 359.920786 
L 412.808047 363.538051 
L 417.84974 367.304889 
L 422.808821 371.221811 
L 427.681816 375.289341 
L 432.46499 379.507997 
L 437.15434 383.878275 
L 441.745584 388.400614 
L 446.234154 393.075379 
L 450.615185 397.902831 
L 454.883513 402.883098 
L 459.03367 408.016146 
L 463.059885 413.301749 
L 466.956085 418.739455 
L 470.715897 424.328554 
L 474.332661 430.068047 
L 477.799434 435.956605 
L 481.10901 441.992544 
L 484.253932 448.173784 
L 487.226522 454.497817 
L 490.018895 460.961675 
L 492.623 467.561901 
L 495.030646 474.294515 
L 497.23354 481.154988 
L 499.223332 488.138223 
L 500.991657 495.238526 
L 502.530182 502.449594 
L 503.83066 509.764502 
L 504.884981 517.175691 
L 505.685228 524.674969 
L 506.223737 532.253509 
L 506.493151 539.901861 
L 506.486479 547.60996 
L 506.197156 555.36715 
L 505.619097 563.162206 
L 504.74675 570.983365 
L 504.198643 574.899918 
L 504.198643 574.899918 
" style="fill:none;opacity:0.6;stroke:#ffff00;stroke-linecap:square;stroke-width:0.5;"/>
   </g>
   <g id="line2d_24">
    <path clip-path="url(#pb78485af50)" d="M 88.252564 415.218441 
L 90.505733 411.943071 
L 92.81243 408.721881 
L 97.580195 402.445014 
L 102.54336 396.39328 
L 107.689349 390.571308 
L 113.005579 384.982923 
L 118.479524 379.631166 
L 124.098778 374.518319 
L 129.851117 369.645927 
L 135.724549 365.01484 
L 141.707368 360.625246 
L 147.788202 356.476714 
L 153.956049 352.56824 
L 160.200314 348.898292 
L 166.510838 345.464862 
L 172.877923 342.265514 
L 179.292347 339.297434 
L 185.745377 336.557481 
L 192.22878 334.042234 
L 198.734823 331.748044 
L 205.256267 329.671074 
L 211.78637 327.807348 
L 218.31887 326.152788 
L 224.847975 324.703259 
L 231.368344 323.454599 
L 237.875075 322.402655 
L 244.363679 321.543314 
L 250.830062 320.872529 
L 257.270496 320.386347 
L 263.681604 320.080925 
L 270.060326 319.952557 
L 276.4039 319.997683 
L 282.709832 320.21291 
L 288.975875 320.595022 
L 295.2 321.140985 
L 301.380371 321.847965 
L 307.515322 322.713325 
L 313.603331 323.734634 
L 319.642997 324.90967 
L 325.633016 326.23642 
L 331.572158 327.713081 
L 337.459245 329.33806 
L 343.293127 331.109967 
L 349.072665 333.02762 
L 354.796705 335.090031 
L 360.464062 337.29641 
L 366.073497 339.646151 
L 371.623699 342.138829 
L 377.113264 344.774189 
L 382.540678 347.552141 
L 387.904298 350.472743 
L 393.202334 353.536197 
L 398.432832 356.742829 
L 403.593653 360.093084 
L 408.682461 363.587502 
L 413.696705 367.226709 
L 418.633601 371.011397 
L 423.49012 374.942304 
L 428.262971 379.020196 
L 432.948588 383.245843 
L 437.543121 387.619998 
L 442.042417 392.143372 
L 446.442018 396.816603 
L 450.737149 401.640235 
L 454.922709 406.614684 
L 458.993271 411.740205 
L 462.94308 417.016866 
L 466.766049 422.444506 
L 470.455766 428.022707 
L 474.0055 433.750753 
L 477.40821 439.627596 
L 480.65656 445.65182 
L 483.742937 451.821599 
L 486.65947 458.134666 
L 489.39806 464.588275 
L 491.950409 471.179166 
L 494.308052 477.903533 
L 496.462403 484.756994 
L 498.404791 491.734565 
L 500.126514 498.830633 
L 501.618888 506.038939 
L 502.8733 513.352564 
L 503.88127 520.763918 
L 504.634508 528.264733 
L 505.124979 535.84607 
L 505.344963 543.498323 
L 505.287121 551.211235 
L 504.944554 558.973915 
L 504.310868 566.774872 
L 503.380233 574.602041 
L 502.801905 578.521538 
L 502.801905 578.521538 
" style="fill:none;opacity:0.6;stroke:#ffff00;stroke-linecap:square;stroke-width:0.5;"/>
   </g>
   <g id="line2d_25">
    <path clip-path="url(#pb78485af50)" d="M 89.743317 411.619445 
L 91.980796 408.351614 
L 94.27154 405.136153 
L 99.00705 398.865332 
L 103.938238 392.812507 
L 109.05341 386.982477 
L 114.340845 381.379324 
L 119.78885 376.006423 
L 125.385818 370.866468 
L 131.120269 365.961486 
L 136.980907 361.292873 
L 142.956658 356.861419 
L 149.036712 352.667345 
L 155.21056 348.710338 
L 161.468023 344.989591 
L 167.799278 341.503843 
L 174.194886 338.251423 
L 180.645803 335.230285 
L 187.1434 332.43806 
L 193.679466 329.872091 
L 200.246218 327.529475 
L 206.836299 325.407105 
L 213.44278 323.501709 
L 220.05915 321.809883 
L 226.679309 320.328131 
L 233.29756 319.052892 
L 239.90859 317.980578 
L 246.507459 317.107597 
L 253.089584 316.43038 
L 259.650713 315.945405 
L 266.186915 315.649222 
L 272.694552 315.538467 
L 279.170261 315.609882 
L 285.610933 315.860329 
L 292.013686 316.286802 
L 298.375848 316.886442 
L 304.694932 317.656538 
L 310.968615 318.594544 
L 317.194712 319.698076 
L 323.371161 320.964922 
L 329.495994 322.39304 
L 335.567319 323.980562 
L 341.583302 325.725794 
L 347.542139 327.627211 
L 353.442042 329.68346 
L 359.28122 331.893348 
L 365.057852 334.255847 
L 370.770077 336.770079 
L 376.415971 339.435314 
L 381.99353 342.250959 
L 387.500651 345.216552 
L 392.935118 348.331748 
L 398.294584 351.596308 
L 403.576552 355.01009 
L 408.778366 358.573031 
L 413.897192 362.285133 
L 418.930003 366.146449 
L 423.873569 370.157064 
L 428.724442 374.317076 
L 433.478948 378.626577 
L 438.13317 383.085634 
L 442.682947 387.69426 
L 447.123861 392.4524 
L 451.451233 397.359896 
L 455.660115 402.416469 
L 459.745293 407.621687 
L 463.701283 412.974941 
L 467.522332 418.475409 
L 471.202425 424.122035 
L 474.735291 429.913491 
L 478.11441 435.84815 
L 481.33303 441.924054 
L 484.384181 448.138884 
L 487.260693 454.489928 
L 489.955222 460.974052 
L 492.460273 467.587675 
L 494.768232 474.326735 
L 496.871399 481.186671 
L 498.762022 488.162399 
L 500.432339 495.248289 
L 501.874621 502.438152 
L 503.081218 509.725226 
L 504.044602 517.102168 
L 504.757424 524.561049 
L 505.21256 532.093354 
L 505.403165 539.689989 
L 505.322727 547.341287 
L 504.965116 555.037026 
L 504.324641 562.766452 
L 503.396094 570.518297 
L 502.174805 578.280817 
L 501.45308 582.162286 
L 501.45308 582.162286 
" style="fill:none;opacity:0.6;stroke:#ffff00;stroke-linecap:square;stroke-width:0.5;"/>
   </g>
   <g id="patch_3">
    <path d="M 295.2 722.030633 
C 354.393332 722.030633 411.170227 698.512873 453.026234 656.656866 
C 494.88224 614.80086 518.4 558.023964 518.4 498.830633 
C 518.4 439.637301 494.88224 382.860405 453.026234 341.004399 
C 411.170227 299.148393 354.393332 275.630633 295.2 275.630633 
C 236.006668 275.630633 179.229773 299.148393 137.373766 341.004399 
C 95.51776 382.860405 72 439.637301 72 498.830633 
C 72 558.023964 95.51776 614.80086 137.373766 656.656866 
C 179.229773 698.512873 236.006668 722.030633 295.2 722.030633 
L 295.2 722.030633 
z
" style="fill:none;stroke:#000000;stroke-linecap:square;stroke-linejoin:miter;"/>
   </g>
   <g id="matplotlib.axis_1">
    <g id="xtick_1">
     <g id="line2d_26">
      <path clip-path="url(#pb78485af50)" d="M 295.2 498.830633 
L 295.2 275.630633 
" style="fill:none;stroke:#000000;stroke-dasharray:1.000000,3.000000;stroke-dashoffset:0.0;stroke-width:0.5;"/>
     </g>
     <g id="text_1">
      <!-- 0 -->
      <defs>
       <path d="M 31.78125 66.40625 
Q 24.171875 66.40625 20.328125 58.90625 
Q 16.5 51.421875 16.5 36.375 
Q 16.5 21.390625 20.328125 13.890625 
Q 24.171875 6.390625 31.78125 6.390625 
Q 39.453125 6.390625 43.28125 13.890625 
Q 47.125 21.390625 47.125 36.375 
Q 47.125 51.421875 43.28125 58.90625 
Q 39.453125 66.40625 31.78125 66.40625 
M 31.78125 74.21875 
Q 44.046875 74.21875 50.515625 64.515625 
Q 56.984375 54.828125 56.984375 36.375 
Q 56.984375 17.96875 50.515625 8.265625 
Q 44.046875 -1.421875 31.78125 -1.421875 
Q 19.53125 -1.421875 13.0625 8.265625 
Q 6.59375 17.96875 6.59375 36.375 
Q 6.59375 54.828125 13.0625 64.515625 
Q 19.53125 74.21875 31.78125 74.21875 
" id="BitstreamVeraSans-Roman-30"/>
      </defs>
      <g transform="translate(291.3825 256.62188258)scale(0.12 -0.12)">
       <use xlink:href="#BitstreamVeraSans-Roman-30"/>
      </g>
     </g>
    </g>
    <g id="xtick_2">
     <g id="line2d_27">
      <path clip-path="url(#pb78485af50)" d="M 295.2 498.830633 
L 371.538896 289.09124 
" style="fill:none;stroke:#000000;stroke-dasharray:1.000000,3.000000;stroke-dashoffset:0.0;stroke-width:0.5;"/>
     </g>
     <g id="text_2">
      <!-- 20 -->
      <defs>
       <path d="M 19.1875 8.296875 
L 53.609375 8.296875 
L 53.609375 0 
L 7.328125 0 
L 7.328125 8.296875 
Q 12.9375 14.109375 22.625 23.890625 
Q 32.328125 33.6875 34.8125 36.53125 
Q 39.546875 41.84375 41.421875 45.53125 
Q 43.3125 49.21875 43.3125 52.78125 
Q 43.3125 58.59375 39.234375 62.25 
Q 35.15625 65.921875 28.609375 65.921875 
Q 23.96875 65.921875 18.8125 64.3125 
Q 13.671875 62.703125 7.8125 59.421875 
L 7.8125 69.390625 
Q 13.765625 71.78125 18.9375 73 
Q 24.125 74.21875 28.421875 74.21875 
Q 39.75 74.21875 46.484375 68.546875 
Q 53.21875 62.890625 53.21875 53.421875 
Q 53.21875 48.921875 51.53125 44.890625 
Q 49.859375 40.875 45.40625 35.40625 
Q 44.1875 33.984375 37.640625 27.21875 
Q 31.109375 20.453125 19.1875 8.296875 
" id="BitstreamVeraSans-Roman-32"/>
      </defs>
      <g transform="translate(371.537785589 271.428550324)scale(0.12 -0.12)">
       <use xlink:href="#BitstreamVeraSans-Roman-32"/>
       <use x="63.623046875" xlink:href="#BitstreamVeraSans-Roman-30"/>
      </g>
     </g>
    </g>
    <g id="xtick_3">
     <g id="line2d_28">
      <path clip-path="url(#pb78485af50)" d="M 295.2 498.830633 
L 438.670194 327.849513 
" style="fill:none;stroke:#000000;stroke-dasharray:1.000000,3.000000;stroke-dashoffset:0.0;stroke-width:0.5;"/>
     </g>
     <g id="text_3">
      <!-- 40 -->
      <defs>
       <path d="M 37.796875 64.3125 
L 12.890625 25.390625 
L 37.796875 25.390625 
z
M 35.203125 72.90625 
L 47.609375 72.90625 
L 47.609375 25.390625 
L 58.015625 25.390625 
L 58.015625 17.1875 
L 47.609375 17.1875 
L 47.609375 0 
L 37.796875 0 
L 37.796875 17.1875 
L 4.890625 17.1875 
L 4.890625 26.703125 
z
" id="BitstreamVeraSans-Roman-34"/>
      </defs>
      <g transform="translate(445.38221393 314.062650905)scale(0.12 -0.12)">
       <use xlink:href="#BitstreamVeraSans-Roman-34"/>
       <use x="63.623046875" xlink:href="#BitstreamVeraSans-Roman-30"/>
      </g>
     </g>
    </g>
    <g id="xtick_4">
     <g id="line2d_29">
      <path clip-path="url(#pb78485af50)" d="M 295.2 498.830633 
L 488.49687 387.230633 
" style="fill:none;stroke:#000000;stroke-dasharray:1.000000,3.000000;stroke-dashoffset:0.0;stroke-width:0.5;"/>
     </g>
     <g id="text_4">
      <!-- 60 -->
      <defs>
       <path d="M 33.015625 40.375 
Q 26.375 40.375 22.484375 35.828125 
Q 18.609375 31.296875 18.609375 23.390625 
Q 18.609375 15.53125 22.484375 10.953125 
Q 26.375 6.390625 33.015625 6.390625 
Q 39.65625 6.390625 43.53125 10.953125 
Q 47.40625 15.53125 47.40625 23.390625 
Q 47.40625 31.296875 43.53125 35.828125 
Q 39.65625 40.375 33.015625 40.375 
M 52.59375 71.296875 
L 52.59375 62.3125 
Q 48.875 64.0625 45.09375 64.984375 
Q 41.3125 65.921875 37.59375 65.921875 
Q 27.828125 65.921875 22.671875 59.328125 
Q 17.53125 52.734375 16.796875 39.40625 
Q 19.671875 43.65625 24.015625 45.921875 
Q 28.375 48.1875 33.59375 48.1875 
Q 44.578125 48.1875 50.953125 41.515625 
Q 57.328125 34.859375 57.328125 23.390625 
Q 57.328125 12.15625 50.6875 5.359375 
Q 44.046875 -1.421875 33.015625 -1.421875 
Q 20.359375 -1.421875 13.671875 8.265625 
Q 6.984375 17.96875 6.984375 36.375 
Q 6.984375 53.65625 15.1875 63.9375 
Q 23.390625 74.21875 37.203125 74.21875 
Q 40.921875 74.21875 44.703125 73.484375 
Q 48.484375 72.75 52.59375 71.296875 
" id="BitstreamVeraSans-Roman-36"/>
      </defs>
      <g transform="translate(500.191557137 379.38188258)scale(0.12 -0.12)">
       <use xlink:href="#BitstreamVeraSans-Roman-36"/>
       <use x="63.623046875" xlink:href="#BitstreamVeraSans-Roman-30"/>
      </g>
     </g>
    </g>
    <g id="xtick_5">
     <g id="line2d_30">
      <path clip-path="url(#pb78485af50)" d="M 295.2 498.830633 
L 515.00909 460.072359 
" style="fill:none;stroke:#000000;stroke-dasharray:1.000000,3.000000;stroke-dashoffset:0.0;stroke-width:0.5;"/>
     </g>
     <g id="text_5">
      <!-- 80 -->
      <defs>
       <path d="M 31.78125 34.625 
Q 24.75 34.625 20.71875 30.859375 
Q 16.703125 27.09375 16.703125 20.515625 
Q 16.703125 13.921875 20.71875 10.15625 
Q 24.75 6.390625 31.78125 6.390625 
Q 38.8125 6.390625 42.859375 10.171875 
Q 46.921875 13.96875 46.921875 20.515625 
Q 46.921875 27.09375 42.890625 30.859375 
Q 38.875 34.625 31.78125 34.625 
M 21.921875 38.8125 
Q 15.578125 40.375 12.03125 44.71875 
Q 8.5 49.078125 8.5 55.328125 
Q 8.5 64.0625 14.71875 69.140625 
Q 20.953125 74.21875 31.78125 74.21875 
Q 42.671875 74.21875 48.875 69.140625 
Q 55.078125 64.0625 55.078125 55.328125 
Q 55.078125 49.078125 51.53125 44.71875 
Q 48 40.375 41.703125 38.8125 
Q 48.828125 37.15625 52.796875 32.3125 
Q 56.78125 27.484375 56.78125 20.515625 
Q 56.78125 9.90625 50.3125 4.234375 
Q 43.84375 -1.421875 31.78125 -1.421875 
Q 19.734375 -1.421875 13.25 4.234375 
Q 6.78125 9.90625 6.78125 20.515625 
Q 6.78125 27.484375 10.78125 32.3125 
Q 14.796875 37.15625 21.921875 38.8125 
M 18.3125 54.390625 
Q 18.3125 48.734375 21.84375 45.5625 
Q 25.390625 42.390625 31.78125 42.390625 
Q 38.140625 42.390625 41.71875 45.5625 
Q 45.3125 48.734375 45.3125 54.390625 
Q 45.3125 60.0625 41.71875 63.234375 
Q 38.140625 66.40625 31.78125 66.40625 
Q 25.390625 66.40625 21.84375 63.234375 
Q 18.3125 60.0625 18.3125 54.390625 
" id="BitstreamVeraSans-Roman-38"/>
      </defs>
      <g transform="translate(529.35499952 459.507781999)scale(0.12 -0.12)">
       <use xlink:href="#BitstreamVeraSans-Roman-38"/>
       <use x="63.623046875" xlink:href="#BitstreamVeraSans-Roman-30"/>
      </g>
     </g>
    </g>
    <g id="xtick_6">
     <g id="line2d_31">
      <path clip-path="url(#pb78485af50)" d="M 295.2 498.830633 
L 515.00909 537.588906 
" style="fill:none;stroke:#000000;stroke-dasharray:1.000000,3.000000;stroke-dashoffset:0.0;stroke-width:0.5;"/>
     </g>
     <g id="text_6">
      <!-- 100 -->
      <defs>
       <path d="M 12.40625 8.296875 
L 28.515625 8.296875 
L 28.515625 63.921875 
L 10.984375 60.40625 
L 10.984375 69.390625 
L 28.421875 72.90625 
L 38.28125 72.90625 
L 38.28125 8.296875 
L 54.390625 8.296875 
L 54.390625 0 
L 12.40625 0 
z
" id="BitstreamVeraSans-Roman-31"/>
      </defs>
      <g transform="translate(525.53749952 544.775983161)scale(0.12 -0.12)">
       <use xlink:href="#BitstreamVeraSans-Roman-31"/>
       <use x="63.623046875" xlink:href="#BitstreamVeraSans-Roman-30"/>
       <use x="127.24609375" xlink:href="#BitstreamVeraSans-Roman-30"/>
      </g>
     </g>
    </g>
    <g id="xtick_7">
     <g id="line2d_32">
      <path clip-path="url(#pb78485af50)" d="M 295.2 498.830633 
L 488.49687 610.430633 
" style="fill:none;stroke:#000000;stroke-dasharray:1.000000,3.000000;stroke-dashoffset:0.0;stroke-width:0.5;"/>
     </g>
     <g id="text_7">
      <!-- 120 -->
      <g transform="translate(496.374057137 624.90188258)scale(0.12 -0.12)">
       <use xlink:href="#BitstreamVeraSans-Roman-31"/>
       <use x="63.623046875" xlink:href="#BitstreamVeraSans-Roman-32"/>
       <use x="127.24609375" xlink:href="#BitstreamVeraSans-Roman-30"/>
      </g>
     </g>
    </g>
    <g id="xtick_8">
     <g id="line2d_33">
      <path clip-path="url(#pb78485af50)" d="M 295.2 498.830633 
L 438.670194 669.811752 
" style="fill:none;stroke:#000000;stroke-dasharray:1.000000,3.000000;stroke-dashoffset:0.0;stroke-width:0.5;"/>
     </g>
     <g id="text_8">
      <!-- 140 -->
      <g transform="translate(441.56471393 690.221114254)scale(0.12 -0.12)">
       <use xlink:href="#BitstreamVeraSans-Roman-31"/>
       <use x="63.623046875" xlink:href="#BitstreamVeraSans-Roman-34"/>
       <use x="127.24609375" xlink:href="#BitstreamVeraSans-Roman-30"/>
      </g>
     </g>
    </g>
    <g id="xtick_9">
     <g id="line2d_34">
      <path clip-path="url(#pb78485af50)" d="M 295.2 498.830633 
L 371.538896 708.570026 
" style="fill:none;stroke:#000000;stroke-dasharray:1.000000,3.000000;stroke-dashoffset:0.0;stroke-width:0.5;"/>
     </g>
     <g id="text_9">
      <!-- 160 -->
      <g transform="translate(367.720285589 732.855214835)scale(0.12 -0.12)">
       <use xlink:href="#BitstreamVeraSans-Roman-31"/>
       <use x="63.623046875" xlink:href="#BitstreamVeraSans-Roman-36"/>
       <use x="127.24609375" xlink:href="#BitstreamVeraSans-Roman-30"/>
      </g>
     </g>
    </g>
    <g id="xtick_10">
     <g id="line2d_35">
      <path clip-path="url(#pb78485af50)" d="M 295.2 498.830633 
L 295.2 722.030633 
" style="fill:none;stroke:#000000;stroke-dasharray:1.000000,3.000000;stroke-dashoffset:0.0;stroke-width:0.5;"/>
     </g>
     <g id="text_10">
      <!-- 180 -->
      <g transform="translate(283.7475 747.66188258)scale(0.12 -0.12)">
       <use xlink:href="#BitstreamVeraSans-Roman-31"/>
       <use x="63.623046875" xlink:href="#BitstreamVeraSans-Roman-38"/>
       <use x="127.24609375" xlink:href="#BitstreamVeraSans-Roman-30"/>
      </g>
     </g>
    </g>
    <g id="xtick_11">
     <g id="line2d_36">
      <path clip-path="url(#pb78485af50)" d="M 295.2 498.830633 
L 218.861104 708.570026 
" style="fill:none;stroke:#000000;stroke-dasharray:1.000000,3.000000;stroke-dashoffset:0.0;stroke-width:0.5;"/>
     </g>
     <g id="text_11">
      <!-- 200 -->
      <g transform="translate(199.774714411 732.855214835)scale(0.12 -0.12)">
       <use xlink:href="#BitstreamVeraSans-Roman-32"/>
       <use x="63.623046875" xlink:href="#BitstreamVeraSans-Roman-30"/>
       <use x="127.24609375" xlink:href="#BitstreamVeraSans-Roman-30"/>
      </g>
     </g>
    </g>
    <g id="xtick_12">
     <g id="line2d_37">
      <path clip-path="url(#pb78485af50)" d="M 295.2 498.830633 
L 151.729806 669.811752 
" style="fill:none;stroke:#000000;stroke-dasharray:1.000000,3.000000;stroke-dashoffset:0.0;stroke-width:0.5;"/>
     </g>
     <g id="text_12">
      <!-- 220 -->
      <g transform="translate(125.93028607 690.221114254)scale(0.12 -0.12)">
       <use xlink:href="#BitstreamVeraSans-Roman-32"/>
       <use x="63.623046875" xlink:href="#BitstreamVeraSans-Roman-32"/>
       <use x="127.24609375" xlink:href="#BitstreamVeraSans-Roman-30"/>
      </g>
     </g>
    </g>
    <g id="xtick_13">
     <g id="line2d_38">
      <path clip-path="url(#pb78485af50)" d="M 295.2 498.830633 
L 101.90313 610.430633 
" style="fill:none;stroke:#000000;stroke-dasharray:1.000000,3.000000;stroke-dashoffset:0.0;stroke-width:0.5;"/>
     </g>
     <g id="text_13">
      <!-- 240 -->
      <g transform="translate(71.1209428628 624.90188258)scale(0.12 -0.12)">
       <use xlink:href="#BitstreamVeraSans-Roman-32"/>
       <use x="63.623046875" xlink:href="#BitstreamVeraSans-Roman-34"/>
       <use x="127.24609375" xlink:href="#BitstreamVeraSans-Roman-30"/>
      </g>
     </g>
    </g>
    <g id="xtick_14">
     <g id="line2d_39">
      <path clip-path="url(#pb78485af50)" d="M 295.2 498.830633 
L 75.39091 537.588906 
" style="fill:none;stroke:#000000;stroke-dasharray:1.000000,3.000000;stroke-dashoffset:0.0;stroke-width:0.5;"/>
     </g>
     <g id="text_14">
      <!-- 260 -->
      <g transform="translate(41.9575004804 544.775983161)scale(0.12 -0.12)">
       <use xlink:href="#BitstreamVeraSans-Roman-32"/>
       <use x="63.623046875" xlink:href="#BitstreamVeraSans-Roman-36"/>
       <use x="127.24609375" xlink:href="#BitstreamVeraSans-Roman-30"/>
      </g>
     </g>
    </g>
    <g id="xtick_15">
     <g id="line2d_40">
      <path clip-path="url(#pb78485af50)" d="M 295.2 498.830633 
L 75.39091 460.072359 
" style="fill:none;stroke:#000000;stroke-dasharray:1.000000,3.000000;stroke-dashoffset:0.0;stroke-width:0.5;"/>
     </g>
     <g id="text_15">
      <!-- 280 -->
      <g transform="translate(41.9575004804 459.507781999)scale(0.12 -0.12)">
       <use xlink:href="#BitstreamVeraSans-Roman-32"/>
       <use x="63.623046875" xlink:href="#BitstreamVeraSans-Roman-38"/>
       <use x="127.24609375" xlink:href="#BitstreamVeraSans-Roman-30"/>
      </g>
     </g>
    </g>
    <g id="xtick_16">
     <g id="line2d_41">
      <path clip-path="url(#pb78485af50)" d="M 295.2 498.830633 
L 101.90313 387.230633 
" style="fill:none;stroke:#000000;stroke-dasharray:1.000000,3.000000;stroke-dashoffset:0.0;stroke-width:0.5;"/>
     </g>
     <g id="text_16">
      <!-- 300 -->
      <defs>
       <path d="M 40.578125 39.3125 
Q 47.65625 37.796875 51.625 33 
Q 55.609375 28.21875 55.609375 21.1875 
Q 55.609375 10.40625 48.1875 4.484375 
Q 40.765625 -1.421875 27.09375 -1.421875 
Q 22.515625 -1.421875 17.65625 -0.515625 
Q 12.796875 0.390625 7.625 2.203125 
L 7.625 11.71875 
Q 11.71875 9.328125 16.59375 8.109375 
Q 21.484375 6.890625 26.8125 6.890625 
Q 36.078125 6.890625 40.9375 10.546875 
Q 45.796875 14.203125 45.796875 21.1875 
Q 45.796875 27.640625 41.28125 31.265625 
Q 36.765625 34.90625 28.71875 34.90625 
L 20.21875 34.90625 
L 20.21875 43.015625 
L 29.109375 43.015625 
Q 36.375 43.015625 40.234375 45.921875 
Q 44.09375 48.828125 44.09375 54.296875 
Q 44.09375 59.90625 40.109375 62.90625 
Q 36.140625 65.921875 28.71875 65.921875 
Q 24.65625 65.921875 20.015625 65.03125 
Q 15.375 64.15625 9.8125 62.3125 
L 9.8125 71.09375 
Q 15.4375 72.65625 20.34375 73.4375 
Q 25.25 74.21875 29.59375 74.21875 
Q 40.828125 74.21875 47.359375 69.109375 
Q 53.90625 64.015625 53.90625 55.328125 
Q 53.90625 49.265625 50.4375 45.09375 
Q 46.96875 40.921875 40.578125 39.3125 
" id="BitstreamVeraSans-Roman-33"/>
      </defs>
      <g transform="translate(71.1209428628 379.38188258)scale(0.12 -0.12)">
       <use xlink:href="#BitstreamVeraSans-Roman-33"/>
       <use x="63.623046875" xlink:href="#BitstreamVeraSans-Roman-30"/>
       <use x="127.24609375" xlink:href="#BitstreamVeraSans-Roman-30"/>
      </g>
     </g>
    </g>
    <g id="xtick_17">
     <g id="line2d_42">
      <path clip-path="url(#pb78485af50)" d="M 295.2 498.830633 
L 151.729806 327.849513 
" style="fill:none;stroke:#000000;stroke-dasharray:1.000000,3.000000;stroke-dashoffset:0.0;stroke-width:0.5;"/>
     </g>
     <g id="text_17">
      <!-- 320 -->
      <g transform="translate(125.93028607 314.062650905)scale(0.12 -0.12)">
       <use xlink:href="#BitstreamVeraSans-Roman-33"/>
       <use x="63.623046875" xlink:href="#BitstreamVeraSans-Roman-32"/>
       <use x="127.24609375" xlink:href="#BitstreamVeraSans-Roman-30"/>
      </g>
     </g>
    </g>
    <g id="xtick_18">
     <g id="line2d_43">
      <path clip-path="url(#pb78485af50)" d="M 295.2 498.830633 
L 218.861104 289.09124 
" style="fill:none;stroke:#000000;stroke-dasharray:1.000000,3.000000;stroke-dashoffset:0.0;stroke-width:0.5;"/>
     </g>
     <g id="text_18">
      <!-- 340 -->
      <g transform="translate(199.774714411 271.428550324)scale(0.12 -0.12)">
       <use xlink:href="#BitstreamVeraSans-Roman-33"/>
       <use x="63.623046875" xlink:href="#BitstreamVeraSans-Roman-34"/>
       <use x="127.24609375" xlink:href="#BitstreamVeraSans-Roman-30"/>
      </g>
     </g>
    </g>
   </g>
   <g id="matplotlib.axis_2">
    <g id="ytick_1">
     <g id="line2d_44">
      <path clip-path="url(#pb78485af50)" d="M 518.4 498.830633 
L 518.264033 491.041065 
L 517.856296 483.260988 
L 517.177287 475.49988 
L 516.227833 467.767196 
L 515.00909 460.072359 
L 513.522544 452.424743 
L 511.770006 444.833665 
L 509.753611 437.308375 
L 507.475814 429.858039 
L 504.939393 422.491737 
L 502.147436 415.218441 
L 499.103346 408.047014 
L 495.810831 400.986193 
L 492.273903 394.04458 
L 488.49687 387.230633 
L 484.484335 380.552653 
L 480.241186 374.018777 
L 475.772593 367.636964 
L 471.084 361.414991 
L 466.18112 355.360438 
L 461.069925 349.480681 
L 455.756643 343.782884 
L 450.247748 338.273989 
L 444.549951 332.960708 
L 438.670194 327.849513 
L 432.615641 322.946632 
L 426.393668 318.258039 
L 420.011856 313.789446 
L 413.47798 309.546298 
L 406.8 305.533762 
L 399.986053 301.75673 
L 393.04444 298.219801 
L 385.983619 294.927286 
L 378.812192 291.883196 
L 371.538896 289.09124 
L 364.172593 286.554818 
L 356.722258 284.277022 
L 349.196967 282.260626 
L 341.605889 280.508088 
L 333.958273 279.021542 
L 326.263436 277.8028 
L 318.530753 276.853346 
L 310.769645 276.174337 
L 302.989568 275.7666 
L 295.2 275.630633 
L 287.410432 275.7666 
L 279.630355 276.174337 
L 271.869247 276.853346 
L 264.136564 277.8028 
L 256.441727 279.021542 
L 248.794111 280.508088 
L 241.203033 282.260626 
L 233.677742 284.277022 
L 226.227407 286.554818 
L 218.861104 289.09124 
L 211.587808 291.883196 
L 204.416381 294.927286 
L 197.35556 298.219801 
L 190.413947 301.75673 
L 183.6 305.533762 
L 176.92202 309.546298 
L 170.388144 313.789446 
L 164.006332 318.258039 
L 157.784359 322.946632 
L 151.729806 327.849513 
L 145.850049 332.960708 
L 140.152252 338.273989 
L 134.643357 343.782884 
L 129.330075 349.480681 
L 124.21888 355.360438 
L 119.316 361.414991 
L 114.627407 367.636964 
L 110.158814 374.018777 
L 105.915665 380.552653 
L 101.90313 387.230633 
L 98.126097 394.04458 
L 94.589169 400.986193 
L 91.296654 408.047014 
L 88.252564 415.218441 
L 85.460607 422.491737 
L 82.924186 429.858039 
L 80.646389 437.308375 
L 78.629994 444.833665 
L 76.877456 452.424743 
L 75.39091 460.072359 
L 74.172167 467.767196 
L 73.222713 475.49988 
L 72.543704 483.260988 
L 72.135967 491.041065 
L 72 498.830633 
L 72.135967 506.6202 
L 72.543704 514.400278 
L 73.222713 522.161386 
L 74.172167 529.894069 
L 75.39091 537.588906 
L 76.877456 545.236522 
L 78.629994 552.8276 
L 80.646389 560.35289 
L 82.924186 567.803226 
L 85.460607 575.169529 
L 88.252564 582.442824 
L 91.296654 589.614251 
L 94.589169 596.675073 
L 98.126097 603.616685 
L 101.90313 610.430633 
L 105.915665 617.108612 
L 110.158814 623.642489 
L 114.627407 630.024301 
L 119.316 636.246274 
L 124.21888 642.300827 
L 129.330075 648.180584 
L 134.643357 653.878381 
L 140.152252 659.387276 
L 145.850049 664.700558 
L 151.729806 669.811752 
L 157.784359 674.714633 
L 164.006332 679.403226 
L 170.388144 683.871819 
L 176.92202 688.114968 
L 183.6 692.127503 
L 190.413947 695.904535 
L 197.35556 699.441464 
L 204.416381 702.733979 
L 211.587808 705.778069 
L 218.861104 708.570026 
L 226.227407 711.106447 
L 233.677742 713.384243 
L 241.203033 715.400639 
L 248.794111 717.153177 
L 256.441727 718.639723 
L 264.136564 719.858466 
L 271.869247 720.80792 
L 279.630355 721.486929 
L 287.410432 721.894665 
L 295.2 722.030633 
L 302.989568 721.894665 
L 310.769645 721.486929 
L 318.530753 720.80792 
L 326.263436 719.858466 
L 333.958273 718.639723 
L 341.605889 717.153177 
L 349.196967 715.400639 
L 356.722258 713.384243 
L 364.172593 711.106447 
L 371.538896 708.570026 
L 378.812192 705.778069 
L 385.983619 702.733979 
L 393.04444 699.441464 
L 399.986053 695.904535 
L 406.8 692.127503 
L 413.47798 688.114968 
L 420.011856 683.871819 
L 426.393668 679.403226 
L 432.615641 674.714633 
L 438.670194 669.811752 
L 444.549951 664.700558 
L 450.247748 659.387276 
L 455.756643 653.878381 
L 461.069925 648.180584 
L 466.18112 642.300827 
L 471.084 636.246274 
L 475.772593 630.024301 
L 480.241186 623.642489 
L 484.484335 617.108612 
L 488.49687 610.430633 
L 492.273903 603.616685 
L 495.810831 596.675073 
L 499.103346 589.614251 
L 502.147436 582.442824 
L 504.939393 575.169529 
L 507.475814 567.803226 
L 509.753611 560.35289 
L 511.770006 552.8276 
L 513.522544 545.236522 
L 515.00909 537.588906 
L 516.227833 529.894069 
L 517.177287 522.161386 
L 517.856296 514.400278 
L 518.264033 506.6202 
L 518.4 498.830633 
L 518.4 498.830633 
" style="fill:none;stroke:#000000;stroke-dasharray:1.000000,3.000000;stroke-dashoffset:0.0;stroke-width:0.5;"/>
     </g>
     <g id="text_19">
      <!-- 0 -->
      <g transform="translate(501.409911657 410.920065476)scale(0.12 -0.12)">
       <use xlink:href="#BitstreamVeraSans-Roman-30"/>
      </g>
     </g>
    </g>
    <g id="ytick_2">
     <g id="line2d_45">
      <path clip-path="url(#pb78485af50)" d="M 487.357047 498.830633 
L 487.23999 492.124448 
L 486.888962 485.426435 
L 486.304391 478.744752 
L 485.486988 472.08754 
L 484.43775 465.462912 
L 483.157954 458.878936 
L 481.649161 452.343636 
L 479.913209 445.864972 
L 477.952212 439.450839 
L 475.768559 433.109052 
L 473.364911 426.847336 
L 470.744197 420.67332 
L 467.90961 414.594528 
L 464.864602 408.618363 
L 461.612884 402.752109 
L 458.158418 397.002912 
L 454.505412 391.377776 
L 450.658317 385.883554 
L 446.621819 380.526942 
L 442.400838 375.314464 
L 438.000515 370.252471 
L 433.426212 365.347131 
L 428.683501 360.604421 
L 423.778161 356.030117 
L 418.716169 351.629795 
L 413.503691 347.408813 
L 408.147078 343.372316 
L 402.652857 339.525221 
L 397.027721 335.872215 
L 391.278523 332.417748 
L 385.412269 329.166031 
L 379.436105 326.121023 
L 373.357312 323.286435 
L 367.183297 320.665721 
L 360.921581 318.262074 
L 354.579793 316.078421 
L 348.16566 314.117424 
L 341.686997 312.381471 
L 335.151697 310.872678 
L 328.567721 309.592883 
L 321.943092 308.543645 
L 315.285881 307.726242 
L 308.604198 307.141671 
L 301.906184 306.790643 
L 295.2 306.673586 
L 288.493816 306.790643 
L 281.795802 307.141671 
L 275.114119 307.726242 
L 268.456908 308.543645 
L 261.832279 309.592883 
L 255.248303 310.872678 
L 248.713003 312.381471 
L 242.23434 314.117424 
L 235.820207 316.078421 
L 229.478419 318.262074 
L 223.216703 320.665721 
L 217.042688 323.286435 
L 210.963895 326.121023 
L 204.987731 329.166031 
L 199.121477 332.417748 
L 193.372279 335.872215 
L 187.747143 339.525221 
L 182.252922 343.372316 
L 176.896309 347.408813 
L 171.683831 351.629795 
L 166.621839 356.030117 
L 161.716499 360.604421 
L 156.973788 365.347131 
L 152.399485 370.252471 
L 147.999162 375.314464 
L 143.778181 380.526942 
L 139.741683 385.883554 
L 135.894588 391.377776 
L 132.241582 397.002912 
L 128.787116 402.752109 
L 125.535398 408.618363 
L 122.49039 414.594528 
L 119.655803 420.67332 
L 117.035089 426.847336 
L 114.631441 433.109052 
L 112.447788 439.450839 
L 110.486791 445.864972 
L 108.750839 452.343636 
L 107.242046 458.878936 
L 105.96225 465.462912 
L 104.913012 472.08754 
L 104.095609 478.744752 
L 103.511038 485.426435 
L 103.16001 492.124448 
L 103.042953 498.830633 
L 103.16001 505.536817 
L 103.511038 512.234831 
L 104.095609 518.916513 
L 104.913012 525.573725 
L 105.96225 532.198354 
L 107.242046 538.782329 
L 108.750839 545.31763 
L 110.486791 551.796293 
L 112.447788 558.210426 
L 114.631441 564.552213 
L 117.035089 570.813929 
L 119.655803 576.987945 
L 122.49039 583.066738 
L 125.535398 589.042902 
L 128.787116 594.909156 
L 132.241582 600.658354 
L 135.894588 606.28349 
L 139.741683 611.777711 
L 143.778181 617.134324 
L 147.999162 622.346801 
L 152.399485 627.408794 
L 156.973788 632.314134 
L 161.716499 637.056844 
L 166.621839 641.631148 
L 171.683831 646.031471 
L 176.896309 650.252452 
L 182.252922 654.288949 
L 187.747143 658.136044 
L 193.372279 661.78905 
L 199.121477 665.243517 
L 204.987731 668.495235 
L 210.963895 671.540242 
L 217.042688 674.37483 
L 223.216703 676.995544 
L 229.478419 679.399192 
L 235.820207 681.582844 
L 242.23434 683.543841 
L 248.713003 685.279794 
L 255.248303 686.788587 
L 261.832279 688.068382 
L 268.456908 689.11762 
L 275.114119 689.935023 
L 281.795802 690.519595 
L 288.493816 690.870623 
L 295.2 690.98768 
L 301.906184 690.870623 
L 308.604198 690.519595 
L 315.285881 689.935023 
L 321.943092 689.11762 
L 328.567721 688.068382 
L 335.151697 686.788587 
L 341.686997 685.279794 
L 348.16566 683.543841 
L 354.579793 681.582844 
L 360.921581 679.399192 
L 367.183297 676.995544 
L 373.357312 674.37483 
L 379.436105 671.540242 
L 385.412269 668.495235 
L 391.278523 665.243517 
L 397.027721 661.78905 
L 402.652857 658.136044 
L 408.147078 654.288949 
L 413.503691 650.252452 
L 418.716169 646.031471 
L 423.778161 641.631148 
L 428.683501 637.056844 
L 433.426212 632.314134 
L 438.000515 627.408794 
L 442.400838 622.346801 
L 446.621819 617.134324 
L 450.658317 611.777711 
L 454.505412 606.28349 
L 458.158418 600.658354 
L 461.612884 594.909156 
L 464.864602 589.042902 
L 467.90961 583.066738 
L 470.744197 576.987945 
L 473.364911 570.813929 
L 475.768559 564.552213 
L 477.952212 558.210426 
L 479.913209 551.796293 
L 481.649161 545.31763 
L 483.157954 538.782329 
L 484.43775 532.198354 
L 485.486988 525.573725 
L 486.304391 518.916513 
L 486.888962 512.234831 
L 487.23999 505.536817 
L 487.357047 498.830633 
L 487.357047 498.830633 
" style="fill:none;stroke:#000000;stroke-dasharray:1.000000,3.000000;stroke-dashoffset:0.0;stroke-width:0.5;"/>
     </g>
     <g id="text_20">
      <!-- 15 -->
      <defs>
       <path d="M 10.796875 72.90625 
L 49.515625 72.90625 
L 49.515625 64.59375 
L 19.828125 64.59375 
L 19.828125 46.734375 
Q 21.96875 47.46875 24.109375 47.828125 
Q 26.265625 48.1875 28.421875 48.1875 
Q 40.625 48.1875 47.75 41.5 
Q 54.890625 34.8125 54.890625 23.390625 
Q 54.890625 11.625 47.5625 5.09375 
Q 40.234375 -1.421875 26.90625 -1.421875 
Q 22.3125 -1.421875 17.546875 -0.640625 
Q 12.796875 0.140625 7.71875 1.703125 
L 7.71875 11.625 
Q 12.109375 9.234375 16.796875 8.0625 
Q 21.484375 6.890625 26.703125 6.890625 
Q 35.15625 6.890625 40.078125 11.328125 
Q 45.015625 15.765625 45.015625 23.390625 
Q 45.015625 31 40.078125 35.4375 
Q 35.15625 39.890625 26.703125 39.890625 
Q 22.75 39.890625 18.8125 39.015625 
Q 14.890625 38.140625 10.796875 36.28125 
z
" id="BitstreamVeraSans-Roman-35"/>
      </defs>
      <g transform="translate(472.72996271 422.799689298)scale(0.12 -0.12)">
       <use xlink:href="#BitstreamVeraSans-Roman-31"/>
       <use x="63.623046875" xlink:href="#BitstreamVeraSans-Roman-35"/>
      </g>
     </g>
    </g>
    <g id="ytick_3">
     <g id="line2d_46">
      <path clip-path="url(#pb78485af50)" d="M 453.026234 498.830633 
L 452.93009 493.322576 
L 452.641777 487.821231 
L 452.161645 482.333299 
L 451.49028 476.865466 
L 450.628498 471.424395 
L 449.577352 466.016714 
L 448.33812 460.649011 
L 446.912313 455.327827 
L 445.301668 450.059644 
L 443.508147 444.850882 
L 441.533936 439.707885 
L 439.381439 434.63692 
L 437.053279 429.644166 
L 434.552293 424.735704 
L 431.881528 419.917516 
L 429.044237 415.195471 
L 426.043878 410.575323 
L 422.884105 406.0627 
L 419.568769 401.663101 
L 416.101909 397.381885 
L 412.487749 393.224269 
L 408.730691 389.195318 
L 404.835314 385.299941 
L 400.806363 381.542884 
L 396.648747 377.928723 
L 392.367532 374.461863 
L 387.967933 371.146527 
L 383.45531 367.986755 
L 378.835162 364.986396 
L 374.113117 362.149105 
L 369.294929 359.47834 
L 364.386467 356.977354 
L 359.393712 354.649194 
L 354.322748 352.496697 
L 349.179751 350.522486 
L 343.970988 348.728965 
L 338.702806 347.11832 
L 333.381622 345.692513 
L 328.013919 344.453281 
L 322.606238 343.402134 
L 317.165166 342.540353 
L 311.697334 341.868988 
L 306.209402 341.388856 
L 300.708056 341.100542 
L 295.2 341.004399 
L 289.691944 341.100542 
L 284.190598 341.388856 
L 278.702666 341.868988 
L 273.234834 342.540353 
L 267.793762 343.402134 
L 262.386081 344.453281 
L 257.018378 345.692513 
L 251.697194 347.11832 
L 246.429012 348.728965 
L 241.220249 350.522486 
L 236.077252 352.496697 
L 231.006288 354.649194 
L 226.013533 356.977354 
L 221.105071 359.47834 
L 216.286883 362.149105 
L 211.564838 364.986396 
L 206.94469 367.986755 
L 202.432067 371.146527 
L 198.032468 374.461863 
L 193.751253 377.928723 
L 189.593637 381.542884 
L 185.564686 385.299941 
L 181.669309 389.195318 
L 177.912251 393.224269 
L 174.298091 397.381885 
L 170.831231 401.663101 
L 167.515895 406.0627 
L 164.356122 410.575323 
L 161.355763 415.195471 
L 158.518472 419.917516 
L 155.847707 424.735704 
L 153.346721 429.644166 
L 151.018561 434.63692 
L 148.866064 439.707885 
L 146.891853 444.850882 
L 145.098332 450.059644 
L 143.487687 455.327827 
L 142.06188 460.649011 
L 140.822648 466.016714 
L 139.771502 471.424395 
L 138.90972 476.865466 
L 138.238355 482.333299 
L 137.758223 487.821231 
L 137.46991 493.322576 
L 137.373766 498.830633 
L 137.46991 504.338689 
L 137.758223 509.840034 
L 138.238355 515.327966 
L 138.90972 520.795799 
L 139.771502 526.23687 
L 140.822648 531.644552 
L 142.06188 537.012254 
L 143.487687 542.333438 
L 145.098332 547.601621 
L 146.891853 552.810384 
L 148.866064 557.95338 
L 151.018561 563.024345 
L 153.346721 568.0171 
L 155.847707 572.925561 
L 158.518472 577.743749 
L 161.355763 582.465794 
L 164.356122 587.085942 
L 167.515895 591.598565 
L 170.831231 595.998164 
L 174.298091 600.27938 
L 177.912251 604.436996 
L 181.669309 608.465947 
L 185.564686 612.361324 
L 189.593637 616.118381 
L 193.751253 619.732542 
L 198.032468 623.199402 
L 202.432067 626.514738 
L 206.94469 629.67451 
L 211.564838 632.674869 
L 216.286883 635.51216 
L 221.105071 638.182926 
L 226.013533 640.683912 
L 231.006288 643.012071 
L 236.077252 645.164568 
L 241.220249 647.13878 
L 246.429012 648.9323 
L 251.697194 650.542946 
L 257.018378 651.968752 
L 262.386081 653.207984 
L 267.793762 654.259131 
L 273.234834 655.120912 
L 278.702666 655.792278 
L 284.190598 656.272409 
L 289.691944 656.560723 
L 295.2 656.656866 
L 300.708056 656.560723 
L 306.209402 656.272409 
L 311.697334 655.792278 
L 317.165166 655.120912 
L 322.606238 654.259131 
L 328.013919 653.207984 
L 333.381622 651.968752 
L 338.702806 650.542946 
L 343.970988 648.9323 
L 349.179751 647.13878 
L 354.322748 645.164568 
L 359.393712 643.012071 
L 364.386467 640.683912 
L 369.294929 638.182926 
L 374.113117 635.51216 
L 378.835162 632.674869 
L 383.45531 629.67451 
L 387.967933 626.514738 
L 392.367532 623.199402 
L 396.648747 619.732542 
L 400.806363 616.118381 
L 404.835314 612.361324 
L 408.730691 608.465947 
L 412.487749 604.436996 
L 416.101909 600.27938 
L 419.568769 595.998164 
L 422.884105 591.598565 
L 426.043878 587.085942 
L 429.044237 582.465794 
L 431.881528 577.743749 
L 434.552293 572.925561 
L 437.053279 568.0171 
L 439.381439 563.024345 
L 441.533936 557.95338 
L 443.508147 552.810384 
L 445.301668 547.601621 
L 446.912313 542.333438 
L 448.33812 537.012254 
L 449.577352 531.644552 
L 450.628498 526.23687 
L 451.49028 520.795799 
L 452.161645 515.327966 
L 452.641777 509.840034 
L 452.93009 504.338689 
L 453.026234 498.830633 
L 453.026234 498.830633 
" style="fill:none;stroke:#000000;stroke-dasharray:1.000000,3.000000;stroke-dashoffset:0.0;stroke-width:0.5;"/>
     </g>
     <g id="text_21">
      <!-- 30 -->
      <g transform="translate(441.01242688 435.937522804)scale(0.12 -0.12)">
       <use xlink:href="#BitstreamVeraSans-Roman-33"/>
       <use x="63.623046875" xlink:href="#BitstreamVeraSans-Roman-30"/>
      </g>
     </g>
    </g>
    <g id="ytick_4">
     <g id="line2d_47">
      <path clip-path="url(#pb78485af50)" d="M 415.99497 498.830633 
L 415.921385 494.614949 
L 415.700719 490.404401 
L 415.333242 486.20412 
L 414.819401 482.019222 
L 414.159823 477.854806 
L 413.35531 473.715946 
L 412.406843 469.607685 
L 411.315577 465.535027 
L 410.082843 461.502934 
L 408.710142 457.51632 
L 407.199145 453.580041 
L 405.551696 449.698892 
L 403.769799 445.877603 
L 401.855628 442.120829 
L 399.811512 438.433148 
L 397.639944 434.819051 
L 395.343568 431.282943 
L 392.925183 427.829131 
L 390.387735 424.461823 
L 387.734315 421.185123 
L 384.968157 418.003021 
L 382.092629 414.919396 
L 379.111237 411.938003 
L 376.027611 409.062476 
L 372.84551 406.296317 
L 369.568809 403.642898 
L 366.201502 401.105449 
L 362.74769 398.687064 
L 359.211581 396.390689 
L 355.597485 394.21912 
L 351.909803 392.175005 
L 348.153029 390.260833 
L 344.33174 388.478937 
L 340.450592 386.831487 
L 336.514313 385.320491 
L 332.527698 383.94779 
L 328.495606 382.715055 
L 324.422948 381.62379 
L 320.314686 380.675323 
L 316.175826 379.87081 
L 312.01141 379.211231 
L 307.826513 378.697391 
L 303.626231 378.329914 
L 299.415684 378.109248 
L 295.2 378.035663 
L 290.984316 378.109248 
L 286.773769 378.329914 
L 282.573487 378.697391 
L 278.38859 379.211231 
L 274.224174 379.87081 
L 270.085314 380.675323 
L 265.977052 381.62379 
L 261.904394 382.715055 
L 257.872302 383.94779 
L 253.885687 385.320491 
L 249.949408 386.831487 
L 246.06826 388.478937 
L 242.246971 390.260833 
L 238.490197 392.175005 
L 234.802515 394.21912 
L 231.188419 396.390689 
L 227.65231 398.687064 
L 224.198498 401.105449 
L 220.831191 403.642898 
L 217.55449 406.296317 
L 214.372389 409.062476 
L 211.288763 411.938003 
L 208.307371 414.919396 
L 205.431843 418.003021 
L 202.665685 421.185123 
L 200.012265 424.461823 
L 197.474817 427.829131 
L 195.056432 431.282943 
L 192.760056 434.819051 
L 190.588488 438.433148 
L 188.544372 442.120829 
L 186.630201 445.877603 
L 184.848304 449.698892 
L 183.200855 453.580041 
L 181.689858 457.51632 
L 180.317157 461.502934 
L 179.084423 465.535027 
L 177.993157 469.607685 
L 177.04469 473.715946 
L 176.240177 477.854806 
L 175.580599 482.019222 
L 175.066758 486.20412 
L 174.699281 490.404401 
L 174.478615 494.614949 
L 174.40503 498.830633 
L 174.478615 503.046316 
L 174.699281 507.256864 
L 175.066758 511.457145 
L 175.580599 515.642043 
L 176.240177 519.806459 
L 177.04469 523.945319 
L 177.993157 528.053581 
L 179.084423 532.126239 
L 180.317157 536.158331 
L 181.689858 540.144945 
L 183.200855 544.081225 
L 184.848304 547.962373 
L 186.630201 551.783662 
L 188.544372 555.540436 
L 190.588488 559.228117 
L 192.760056 562.842214 
L 195.056432 566.378322 
L 197.474817 569.832134 
L 200.012265 573.199442 
L 202.665685 576.476142 
L 205.431843 579.658244 
L 208.307371 582.741869 
L 211.288763 585.723262 
L 214.372389 588.598789 
L 217.55449 591.364948 
L 220.831191 594.018368 
L 224.198498 596.555816 
L 227.65231 598.974201 
L 231.188419 601.270577 
L 234.802515 603.442145 
L 238.490197 605.48626 
L 242.246971 607.400432 
L 246.06826 609.182328 
L 249.949408 610.829778 
L 253.885687 612.340774 
L 257.872302 613.713476 
L 261.904394 614.94621 
L 265.977052 616.037475 
L 270.085314 616.985942 
L 274.224174 617.790455 
L 278.38859 618.450034 
L 282.573487 618.963875 
L 286.773769 619.331352 
L 290.984316 619.552017 
L 295.2 619.625602 
L 299.415684 619.552017 
L 303.626231 619.331352 
L 307.826513 618.963875 
L 312.01141 618.450034 
L 316.175826 617.790455 
L 320.314686 616.985942 
L 324.422948 616.037475 
L 328.495606 614.94621 
L 332.527698 613.713476 
L 336.514313 612.340774 
L 340.450592 610.829778 
L 344.33174 609.182328 
L 348.153029 607.400432 
L 351.909803 605.48626 
L 355.597485 603.442145 
L 359.211581 601.270577 
L 362.74769 598.974201 
L 366.201502 596.555816 
L 369.568809 594.018368 
L 372.84551 591.364948 
L 376.027611 588.598789 
L 379.111237 585.723262 
L 382.092629 582.741869 
L 384.968157 579.658244 
L 387.734315 576.476142 
L 390.387735 573.199442 
L 392.925183 569.832134 
L 395.343568 566.378322 
L 397.639944 562.842214 
L 399.811512 559.228117 
L 401.855628 555.540436 
L 403.769799 551.783662 
L 405.551696 547.962373 
L 407.199145 544.081225 
L 408.710142 540.144945 
L 410.082843 536.158331 
L 411.315577 532.126239 
L 412.406843 528.053581 
L 413.35531 523.945319 
L 414.159823 519.806459 
L 414.819401 515.642043 
L 415.333242 511.457145 
L 415.700719 507.256864 
L 415.921385 503.046316 
L 415.99497 498.830633 
L 415.99497 498.830633 
" style="fill:none;stroke:#000000;stroke-dasharray:1.000000,3.000000;stroke-dashoffset:0.0;stroke-width:0.5;"/>
     </g>
     <g id="text_22">
      <!-- 45 -->
      <g transform="translate(406.8 450.108774019)scale(0.12 -0.12)">
       <use xlink:href="#BitstreamVeraSans-Roman-34"/>
       <use x="63.623046875" xlink:href="#BitstreamVeraSans-Roman-35"/>
      </g>
     </g>
    </g>
    <g id="ytick_5">
     <g id="line2d_48">
      <path clip-path="url(#pb78485af50)" d="M 376.89687 498.830633 
L 376.847103 495.979453 
L 376.697861 493.131747 
L 376.101802 487.460626 
L 375.111597 481.844898 
L 373.732072 476.311923 
L 371.969946 470.888657 
L 369.833805 465.601522 
L 367.334055 460.476275 
L 364.482875 455.537887 
L 361.294156 450.810417 
L 357.783433 446.316897 
L 353.96781 442.079218 
L 349.865876 438.118026 
L 345.497616 434.45262 
L 340.88431 431.100858 
L 336.048435 428.079068 
L 331.013551 425.401972 
L 325.804186 423.082614 
L 320.445721 421.132292 
L 314.964262 419.560509 
L 309.386513 418.374921 
L 303.739648 417.581306 
L 298.05118 417.18353 
L 292.34882 417.18353 
L 286.660352 417.581306 
L 281.013487 418.374921 
L 275.435738 419.560509 
L 269.954279 421.132292 
L 264.595814 423.082614 
L 259.386449 425.401972 
L 254.351565 428.079068 
L 249.51569 431.100858 
L 244.902384 434.45262 
L 240.534124 438.118026 
L 236.43219 442.079218 
L 232.616567 446.316897 
L 229.105844 450.810417 
L 225.917125 455.537887 
L 223.065945 460.476275 
L 220.566195 465.601522 
L 218.430054 470.888657 
L 216.667928 476.311923 
L 215.288403 481.844898 
L 214.298198 487.460626 
L 213.702139 493.131747 
L 213.50313 498.830633 
L 213.702139 504.529518 
L 214.298198 510.200639 
L 215.288403 515.816367 
L 216.667928 521.349342 
L 218.430054 526.772608 
L 220.566195 532.059743 
L 223.065945 537.18499 
L 225.917125 542.123378 
L 229.105844 546.850848 
L 232.616567 551.344368 
L 236.43219 555.582047 
L 240.534124 559.543239 
L 244.902384 563.208645 
L 249.51569 566.560407 
L 254.351565 569.582198 
L 259.386449 572.259293 
L 264.595814 574.578652 
L 269.954279 576.528973 
L 275.435738 578.100757 
L 281.013487 579.286344 
L 286.660352 580.079959 
L 292.34882 580.477735 
L 298.05118 580.477735 
L 303.739648 580.079959 
L 309.386513 579.286344 
L 314.964262 578.100757 
L 320.445721 576.528973 
L 325.804186 574.578652 
L 331.013551 572.259293 
L 336.048435 569.582198 
L 340.88431 566.560407 
L 345.497616 563.208645 
L 349.865876 559.543239 
L 353.96781 555.582047 
L 357.783433 551.344368 
L 361.294156 546.850848 
L 364.482875 542.123378 
L 367.334055 537.18499 
L 369.833805 532.059743 
L 371.969946 526.772608 
L 373.732072 521.349342 
L 375.111597 515.816367 
L 376.101802 510.200639 
L 376.697861 504.529518 
L 376.89687 498.830633 
L 376.89687 498.830633 
" style="fill:none;stroke:#000000;stroke-dasharray:1.000000,3.000000;stroke-dashoffset:0.0;stroke-width:0.5;"/>
     </g>
     <g id="text_23">
      <!-- 60 -->
      <g transform="translate(370.678066178 465.070968907)scale(0.12 -0.12)">
       <use xlink:href="#BitstreamVeraSans-Roman-36"/>
       <use x="63.623046875" xlink:href="#BitstreamVeraSans-Roman-30"/>
      </g>
     </g>
    </g>
    <g id="ytick_6">
     <g id="line2d_49">
      <path clip-path="url(#pb78485af50)" d="M 336.400915 498.830633 
L 336.375816 497.392741 
L 336.300551 495.956602 
L 335.99995 493.096574 
L 335.500576 490.264481 
L 334.804861 487.474121 
L 333.916195 484.73909 
L 332.838908 482.072711 
L 331.578248 479.487975 
L 330.140357 476.997474 
L 328.53224 474.613343 
L 326.761732 472.347195 
L 324.837458 470.210072 
L 322.768793 468.212386 
L 320.565816 466.363869 
L 318.239259 464.673526 
L 315.800457 463.149594 
L 313.261292 461.799496 
L 310.634134 460.62981 
L 307.931783 459.646234 
L 305.167403 458.853561 
L 302.354464 458.255652 
L 299.506668 457.855421 
L 296.637891 457.654816 
L 293.762109 457.654816 
L 290.893332 457.855421 
L 288.045536 458.255652 
L 285.232597 458.853561 
L 282.468217 459.646234 
L 279.765866 460.62981 
L 277.138708 461.799496 
L 274.599543 463.149594 
L 272.160741 464.673526 
L 269.834184 466.363869 
L 267.631207 468.212386 
L 265.562542 470.210072 
L 263.638268 472.347195 
L 261.86776 474.613343 
L 260.259643 476.997474 
L 258.821752 479.487975 
L 257.561092 482.072711 
L 256.483805 484.73909 
L 255.595139 487.474121 
L 254.899424 490.264481 
L 254.40005 493.096574 
L 254.099449 495.956602 
L 253.999085 498.830633 
L 254.099449 501.704663 
L 254.40005 504.564692 
L 254.899424 507.396784 
L 255.595139 510.187144 
L 256.483805 512.922175 
L 257.561092 515.588554 
L 258.821752 518.17329 
L 260.259643 520.663791 
L 261.86776 523.047923 
L 263.638268 525.31407 
L 265.562542 527.451193 
L 267.631207 529.448879 
L 269.834184 531.297396 
L 272.160741 532.987739 
L 274.599543 534.511671 
L 277.138708 535.861769 
L 279.765866 537.031455 
L 282.468217 538.015031 
L 285.232597 538.807704 
L 288.045536 539.405613 
L 290.893332 539.805844 
L 293.762109 540.006449 
L 296.637891 540.006449 
L 299.506668 539.805844 
L 302.354464 539.405613 
L 305.167403 538.807704 
L 307.931783 538.015031 
L 310.634134 537.031455 
L 313.261292 535.861769 
L 315.800457 534.511671 
L 318.239259 532.987739 
L 320.565816 531.297396 
L 322.768793 529.448879 
L 324.837458 527.451193 
L 326.761732 525.31407 
L 328.53224 523.047923 
L 330.140357 520.663791 
L 331.578248 518.17329 
L 332.838908 515.588554 
L 333.916195 512.922175 
L 334.804861 510.187144 
L 335.500576 507.396784 
L 335.99995 504.564692 
L 336.300551 501.704663 
L 336.400915 498.830633 
L 336.400915 498.830633 
" style="fill:none;stroke:#000000;stroke-dasharray:1.000000,3.000000;stroke-dashoffset:0.0;stroke-width:0.5;"/>
     </g>
     <g id="text_24">
      <!-- 75 -->
      <defs>
       <path d="M 8.203125 72.90625 
L 55.078125 72.90625 
L 55.078125 68.703125 
L 28.609375 0 
L 18.3125 0 
L 43.21875 64.59375 
L 8.203125 64.59375 
z
" id="BitstreamVeraSans-Roman-37"/>
      </defs>
      <g transform="translate(333.264681718 480.568100165)scale(0.12 -0.12)">
       <use xlink:href="#BitstreamVeraSans-Roman-37"/>
       <use x="63.623046875" xlink:href="#BitstreamVeraSans-Roman-35"/>
      </g>
     </g>
    </g>
   </g>
  </g>
 </g>
 <defs>
  <clipPath id="pb78485af50">
   <path d="M 295.2 722.030633 
C 354.393332 722.030633 411.170227 698.512873 453.026234 656.656866 
C 494.88224 614.80086 518.4 558.023964 518.4 498.830633 
C 518.4 439.637301 494.88224 382.860405 453.026234 341.004399 
C 411.170227 299.148393 354.393332 275.630633 295.2 275.630633 
C 236.006668 275.630633 179.229773 299.148393 137.373766 341.004399 
C 95.51776 382.860405 72 439.637301 72 498.830633 
C 72 558.023964 95.51776 614.80086 137.373766 656.656866 
C 179.229773 698.512873 236.006668 722.030633 295.2 722.030633 
z
"/>
  </clipPath>
 </defs>
</svg>
