<?xml version="1.0" encoding="utf-8" standalone="no"?>
<!DOCTYPE svg PUBLIC "-//W3C//DTD SVG 1.1//EN"
  "http://www.w3.org/Graphics/SVG/1.1/DTD/svg11.dtd">
<!-- Created with matplotlib (http://matplotlib.org/) -->
<svg height="405pt" version="1.1" viewBox="0 0 682 405" width="682pt" xmlns="http://www.w3.org/2000/svg" xmlns:xlink="http://www.w3.org/1999/xlink">
 <defs>
  <style type="text/css">
*{stroke-linecap:butt;stroke-linejoin:round;}
  </style>
 </defs>
 <g id="figure_1">
  <g id="patch_1">
   <path d="M 0 405.499587 
L 682.5 405.499587 
L 682.5 0 
L 0 0 
z
" style="fill:#ffffff;"/>
  </g>
  <g id="axes_1">
   <g id="patch_2">
    <path d="M 10.7 394.799587 
L 457.1 394.799587 
L 457.1 10.7 
L 10.7 10.7 
z
" style="fill:#ffffff;"/>
   </g>
   <g id="PathCollection_1">
    <defs>
     <path d="M 0 3.535534 
C 0.937635 3.535534 1.836992 3.163008 2.5 2.5 
C 3.163008 1.836992 3.535534 0.937635 3.535534 0 
C 3.535534 -0.937635 3.163008 -1.836992 2.5 -2.5 
C 1.836992 -3.163008 0.937635 -3.535534 0 -3.535534 
C -0.937635 -3.535534 -1.836992 -3.163008 -2.5 -2.5 
C -3.163008 -1.836992 -3.535534 -0.937635 -3.535534 0 
C -3.535534 0.937635 -3.163008 1.836992 -2.5 2.5 
C -1.836992 3.163008 -0.937635 3.535534 0 3.535534 
z
" id="md7619b14f6" style="stroke:#000000;stroke-opacity:0.6;"/>
    </defs>
    <g clip-path="url(#p1aef78f003)">
     <use style="fill:#008000;fill-opacity:0.6;stroke:#000000;stroke-opacity:0.6;" x="215.3" xlink:href="#md7619b14f6" y="178.441443"/>
    </g>
   </g>
   <g id="PathCollection_2">
    <g clip-path="url(#p1aef78f003)">
     <use style="fill:#008000;fill-opacity:0.6;stroke:#000000;stroke-opacity:0.6;" x="222.74" xlink:href="#md7619b14f6" y="226.825443"/>
    </g>
   </g>
   <g id="PathCollection_3">
    <g clip-path="url(#p1aef78f003)">
     <use style="fill:#008000;fill-opacity:0.6;stroke:#000000;stroke-opacity:0.6;" x="233.9" xlink:href="#md7619b14f6" y="170.579043"/>
    </g>
   </g>
   <g id="PathCollection_4">
    <g clip-path="url(#p1aef78f003)">
     <use style="fill:#008000;fill-opacity:0.6;stroke:#000000;stroke-opacity:0.6;" x="260.498" xlink:href="#md7619b14f6" y="155.156643"/>
    </g>
   </g>
   <g id="PathCollection_5">
    <g clip-path="url(#p1aef78f003)">
     <use style="fill:#008000;fill-opacity:0.6;stroke:#000000;stroke-opacity:0.6;" x="214.928" xlink:href="#md7619b14f6" y="158.483043"/>
    </g>
   </g>
   <g id="PathCollection_6">
    <g clip-path="url(#p1aef78f003)">
     <use style="fill:#008000;fill-opacity:0.6;stroke:#000000;stroke-opacity:0.6;" x="224.414" xlink:href="#md7619b14f6" y="155.761443"/>
    </g>
   </g>
   <g id="PathCollection_7">
    <g clip-path="url(#p1aef78f003)">
     <use style="fill:#008000;fill-opacity:0.6;stroke:#000000;stroke-opacity:0.6;" x="232.97" xlink:href="#md7619b14f6" y="179.953443"/>
    </g>
   </g>
   <g id="PathCollection_8">
    <g clip-path="url(#p1aef78f003)">
     <use style="fill:#008000;fill-opacity:0.6;stroke:#000000;stroke-opacity:0.6;" x="233.528" xlink:href="#md7619b14f6" y="148.806243"/>
    </g>
   </g>
   <g id="PathCollection_9">
    <g clip-path="url(#p1aef78f003)">
     <use style="fill:#008000;fill-opacity:0.6;stroke:#000000;stroke-opacity:0.6;" x="252.128" xlink:href="#md7619b14f6" y="179.046243"/>
    </g>
   </g>
   <g id="PathCollection_10">
    <g clip-path="url(#p1aef78f003)">
     <use style="fill:#008000;fill-opacity:0.6;stroke:#000000;stroke-opacity:0.6;" x="233.9" xlink:href="#md7619b14f6" y="170.579043"/>
    </g>
   </g>
   <g id="PathCollection_11">
    <g clip-path="url(#p1aef78f003)">
     <use style="fill:#008000;fill-opacity:0.6;stroke:#000000;stroke-opacity:0.6;" x="243.386" xlink:href="#md7619b14f6" y="174.510243"/>
    </g>
   </g>
   <g id="PathCollection_12">
    <g clip-path="url(#p1aef78f003)">
     <use style="fill:#008000;fill-opacity:0.6;stroke:#000000;stroke-opacity:0.6;" x="237.062" xlink:href="#md7619b14f6" y="183.582243"/>
    </g>
   </g>
   <g id="PathCollection_13">
    <g clip-path="url(#p1aef78f003)">
     <use style="fill:#008000;fill-opacity:0.6;stroke:#000000;stroke-opacity:0.6;" x="247.478" xlink:href="#md7619b14f6" y="158.180643"/>
    </g>
   </g>
   <g id="PathCollection_14">
    <g clip-path="url(#p1aef78f003)">
     <use style="fill:#008000;fill-opacity:0.6;stroke:#000000;stroke-opacity:0.6;" x="210.65" xlink:href="#md7619b14f6" y="204.145443"/>
    </g>
   </g>
   <g id="PathCollection_15">
    <g clip-path="url(#p1aef78f003)">
     <use style="fill:#008000;fill-opacity:0.6;stroke:#000000;stroke-opacity:0.6;" x="239.294" xlink:href="#md7619b14f6" y="135.198243"/>
    </g>
   </g>
   <g id="PathCollection_16">
    <defs>
     <path d="M -0 5 
L 3 0 
L 0 -5 
L -3 -0 
z
" id="m547a815a38" style="stroke:#000000;stroke-opacity:0.6;"/>
    </defs>
    <g clip-path="url(#p1aef78f003)">
     <use style="fill:#0000ff;fill-opacity:0.6;stroke:#000000;stroke-opacity:0.6;" x="196.7" xlink:href="#m547a815a38" y="208.681443"/>
    </g>
   </g>
   <g id="PathCollection_17">
    <g clip-path="url(#p1aef78f003)">
     <use style="fill:#0000ff;fill-opacity:0.6;stroke:#000000;stroke-opacity:0.6;" x="250.268" xlink:href="#m547a815a38" y="195.375843"/>
    </g>
   </g>
   <g id="PathCollection_18">
    <g clip-path="url(#p1aef78f003)">
     <use style="fill:#0000ff;fill-opacity:0.6;stroke:#000000;stroke-opacity:0.6;" x="226.646" xlink:href="#m547a815a38" y="117.054243"/>
    </g>
   </g>
   <g id="PathCollection_19">
    <g clip-path="url(#p1aef78f003)">
     <use style="fill:#0000ff;fill-opacity:0.6;stroke:#000000;stroke-opacity:0.6;" x="223.67" xlink:href="#m547a815a38" y="204.750243"/>
    </g>
   </g>
   <g id="PathCollection_20">
    <g clip-path="url(#p1aef78f003)">
     <use style="fill:#0000ff;fill-opacity:0.6;stroke:#000000;stroke-opacity:0.6;" x="209.72" xlink:href="#m547a815a38" y="189.327843"/>
    </g>
   </g>
   <g id="PathCollection_21">
    <defs>
     <path d="M -0 5 
L 5 0 
L 0 -5 
L -5 -0 
z
" id="m086c96fa86" style="stroke:#000000;stroke-opacity:0.6;"/>
    </defs>
    <g clip-path="url(#p1aef78f003)">
     <use style="fill:#808080;fill-opacity:0.6;stroke:#000000;stroke-opacity:0.6;" x="237.062" xlink:href="#m086c96fa86" y="183.582243"/>
    </g>
   </g>
   <g id="PathCollection_22">
    <g clip-path="url(#p1aef78f003)">
     <use style="fill:#808080;fill-opacity:0.6;stroke:#000000;stroke-opacity:0.6;" x="228.878" xlink:href="#m086c96fa86" y="158.180643"/>
    </g>
   </g>
   <g id="PathCollection_23">
    <g clip-path="url(#p1aef78f003)">
     <use style="fill:#808080;fill-opacity:0.6;stroke:#000000;stroke-opacity:0.6;" x="233.9" xlink:href="#m086c96fa86" y="130.057443"/>
    </g>
   </g>
   <g id="PathCollection_24">
    <g clip-path="url(#p1aef78f003)">
     <use style="fill:#808080;fill-opacity:0.6;stroke:#000000;stroke-opacity:0.6;" x="235.946" xlink:href="#m086c96fa86" y="142.455843"/>
    </g>
   </g>
   <g id="PathCollection_25">
    <g clip-path="url(#p1aef78f003)">
     <use style="fill:#808080;fill-opacity:0.6;stroke:#000000;stroke-opacity:0.6;" x="224.6" xlink:href="#m086c96fa86" y="148.201443"/>
    </g>
   </g>
   <g id="PathCollection_26">
    <g clip-path="url(#p1aef78f003)">
     <use style="fill:#808080;fill-opacity:0.6;stroke:#000000;stroke-opacity:0.6;" x="249.152" xlink:href="#m086c96fa86" y="148.806243"/>
    </g>
   </g>
   <g id="PathCollection_27">
    <defs>
     <path d="M -3.535534 3.535534 
L 3.535534 3.535534 
L 3.535534 -3.535534 
L -3.535534 -3.535534 
z
" id="mbf7125620d" style="stroke:#000000;stroke-opacity:0.6;"/>
    </defs>
    <g clip-path="url(#p1aef78f003)">
     <use style="fill:#ff0000;fill-opacity:0.6;stroke:#000000;stroke-opacity:0.6;" x="144.248" xlink:href="#mbf7125620d" y="203.238243"/>
    </g>
   </g>
   <g id="PathCollection_28">
    <g clip-path="url(#p1aef78f003)">
     <use style="fill:#ff0000;fill-opacity:0.6;stroke:#000000;stroke-opacity:0.6;" x="123.788" xlink:href="#mbf7125620d" y="236.502243"/>
    </g>
   </g>
   <g id="PathCollection_29">
    <g clip-path="url(#p1aef78f003)">
     <use style="fill:#ff0000;fill-opacity:0.6;stroke:#000000;stroke-opacity:0.6;" x="161.36" xlink:href="#mbf7125620d" y="175.417443"/>
    </g>
   </g>
   <g id="PathCollection_30">
    <g clip-path="url(#p1aef78f003)">
     <use style="fill:#ff0000;fill-opacity:0.6;stroke:#000000;stroke-opacity:0.6;" x="122.3" xlink:href="#mbf7125620d" y="238.921443"/>
    </g>
   </g>
   <g id="matplotlib.axis_1"/>
   <g id="matplotlib.axis_2"/>
   <g id="line2d_1">
    <path clip-path="url(#p1aef78f003)" d="M 47.9 359.881443 
L 419.9 359.881443 
L 233.9 57.481443 
L 47.9 359.881443 
" style="fill:none;opacity:0.7;stroke:#000000;stroke-linecap:square;"/>
   </g>
   <g id="line2d_2">
    <path clip-path="url(#p1aef78f003)" d="M 233.9 178.441443 
L 159.5 299.401443 
L 308.3 299.401443 
L 233.9 178.441443 
" style="fill:none;opacity:0.7;stroke:#000000;stroke-linecap:square;"/>
   </g>
   <g id="line2d_3">
    <path clip-path="url(#p1aef78f003)" d="M 140.9 208.681443 
L 196.7 238.921443 
" style="fill:none;opacity:0.7;stroke:#000000;stroke-linecap:square;"/>
   </g>
   <g id="line2d_4">
    <path clip-path="url(#p1aef78f003)" d="M 187.4 133.081443 
L 280.4 133.081443 
" style="fill:none;opacity:0.7;stroke:#000000;stroke-linecap:square;"/>
   </g>
   <g id="line2d_5">
    <path clip-path="url(#p1aef78f003)" d="M 326.9 208.681443 
L 271.1 238.921443 
" style="fill:none;opacity:0.7;stroke:#000000;stroke-linecap:square;"/>
   </g>
   <g id="line2d_6">
    <path clip-path="url(#p1aef78f003)" d="M 94.4 284.281443 
L 140.9 359.881443 
" style="fill:none;opacity:0.7;stroke:#000000;stroke-linecap:square;"/>
   </g>
   <g id="line2d_7">
    <path clip-path="url(#p1aef78f003)" d="M 233.9 359.881443 
L 233.9 299.401443 
" style="fill:none;opacity:0.7;stroke:#000000;stroke-linecap:square;"/>
   </g>
   <g id="line2d_8">
    <path clip-path="url(#p1aef78f003)" d="M 326.9 359.881443 
L 373.4 284.281443 
" style="fill:none;opacity:0.7;stroke:#000000;stroke-linecap:square;"/>
   </g>
   <g id="line2d_9">
    <path clip-path="url(#p1aef78f003)" d="M 233.9 178.441443 
L 233.9 133.081443 
" style="fill:none;opacity:0.7;stroke:#000000;stroke-linecap:square;"/>
   </g>
   <g id="line2d_10">
    <path clip-path="url(#p1aef78f003)" d="M 159.5 299.401443 
L 117.65 322.081443 
" style="fill:none;opacity:0.7;stroke:#000000;stroke-linecap:square;"/>
   </g>
   <g id="line2d_11">
    <path clip-path="url(#p1aef78f003)" d="M 308.3 299.401443 
L 350.15 322.081443 
" style="fill:none;opacity:0.7;stroke:#000000;stroke-linecap:square;"/>
   </g>
   <g id="line2d_12">
    <path clip-path="url(#p1aef78f003)" d="M 196.7 117.961443 
L 345.5 359.881443 
" style="fill:none;opacity:0.5;stroke:#808080;stroke-linecap:square;stroke-width:0.5;"/>
   </g>
   <g id="line2d_13">
    <path clip-path="url(#p1aef78f003)" d="M 159.5 178.441443 
L 271.1 359.881443 
" style="fill:none;opacity:0.5;stroke:#808080;stroke-linecap:square;stroke-width:0.5;"/>
   </g>
   <g id="line2d_14">
    <path clip-path="url(#p1aef78f003)" d="M 122.3 238.921443 
L 196.7 359.881443 
" style="fill:none;opacity:0.5;stroke:#808080;stroke-linecap:square;stroke-width:0.5;"/>
   </g>
   <g id="line2d_15">
    <path clip-path="url(#p1aef78f003)" d="M 85.1 299.401443 
L 122.3 359.881443 
" style="fill:none;opacity:0.5;stroke:#808080;stroke-linecap:square;stroke-width:0.5;"/>
   </g>
   <g id="line2d_16">
    <path clip-path="url(#p1aef78f003)" d="M 345.5 359.881443 
L 382.7 299.401443 
" style="fill:none;opacity:0.5;stroke:#808080;stroke-linecap:square;stroke-width:0.5;"/>
   </g>
   <g id="line2d_17">
    <path clip-path="url(#p1aef78f003)" d="M 271.1 359.881443 
L 345.5 238.921443 
" style="fill:none;opacity:0.5;stroke:#808080;stroke-linecap:square;stroke-width:0.5;"/>
   </g>
   <g id="line2d_18">
    <path clip-path="url(#p1aef78f003)" d="M 196.7 359.881443 
L 308.3 178.441443 
" style="fill:none;opacity:0.5;stroke:#808080;stroke-linecap:square;stroke-width:0.5;"/>
   </g>
   <g id="line2d_19">
    <path clip-path="url(#p1aef78f003)" d="M 122.3 359.881443 
L 271.1 117.961443 
" style="fill:none;opacity:0.5;stroke:#808080;stroke-linecap:square;stroke-width:0.5;"/>
   </g>
   <g id="line2d_20">
    <path clip-path="url(#p1aef78f003)" d="M 382.7 299.401443 
L 85.1 299.401443 
" style="fill:none;opacity:0.5;stroke:#808080;stroke-linecap:square;stroke-width:0.5;"/>
   </g>
   <g id="line2d_21">
    <path clip-path="url(#p1aef78f003)" d="M 345.5 238.921443 
L 122.3 238.921443 
" style="fill:none;opacity:0.5;stroke:#808080;stroke-linecap:square;stroke-width:0.5;"/>
   </g>
   <g id="line2d_22">
    <path clip-path="url(#p1aef78f003)" d="M 308.3 178.441443 
L 159.5 178.441443 
" style="fill:none;opacity:0.5;stroke:#808080;stroke-linecap:square;stroke-width:0.5;"/>
   </g>
   <g id="line2d_23">
    <path clip-path="url(#p1aef78f003)" d="M 271.1 117.961443 
L 196.7 117.961443 
" style="fill:none;opacity:0.5;stroke:#808080;stroke-linecap:square;stroke-width:0.5;"/>
   </g>
   <g id="patch_3">
    <path d="M 10.7 394.799587 
L 10.7 10.7 
" style="fill:none;"/>
   </g>
   <g id="patch_4">
    <path d="M 457.1 394.799587 
L 457.1 10.7 
" style="fill:none;"/>
   </g>
   <g id="patch_5">
    <path d="M 10.7 394.799587 
L 457.1 394.799587 
" style="fill:none;"/>
   </g>
   <g id="patch_6">
    <path d="M 10.7 10.7 
L 457.1 10.7 
" style="fill:none;"/>
   </g>
   <g id="text_1">
    <!-- Clay -->
    <defs>
     <path d="M 64.40625 67.28125 
L 64.40625 56.890625 
Q 59.421875 61.53125 53.78125 63.8125 
Q 48.140625 66.109375 41.796875 66.109375 
Q 29.296875 66.109375 22.65625 58.46875 
Q 16.015625 50.828125 16.015625 36.375 
Q 16.015625 21.96875 22.65625 14.328125 
Q 29.296875 6.6875 41.796875 6.6875 
Q 48.140625 6.6875 53.78125 8.984375 
Q 59.421875 11.28125 64.40625 15.921875 
L 64.40625 5.609375 
Q 59.234375 2.09375 53.4375 0.328125 
Q 47.65625 -1.421875 41.21875 -1.421875 
Q 24.65625 -1.421875 15.125 8.703125 
Q 5.609375 18.84375 5.609375 36.375 
Q 5.609375 53.953125 15.125 64.078125 
Q 24.65625 74.21875 41.21875 74.21875 
Q 47.75 74.21875 53.53125 72.484375 
Q 59.328125 70.75 64.40625 67.28125 
" id="DejaVuSans-43"/>
     <path d="M 9.421875 75.984375 
L 18.40625 75.984375 
L 18.40625 0 
L 9.421875 0 
z
" id="DejaVuSans-6c"/>
     <path d="M 34.28125 27.484375 
Q 23.390625 27.484375 19.1875 25 
Q 14.984375 22.515625 14.984375 16.5 
Q 14.984375 11.71875 18.140625 8.90625 
Q 21.296875 6.109375 26.703125 6.109375 
Q 34.1875 6.109375 38.703125 11.40625 
Q 43.21875 16.703125 43.21875 25.484375 
L 43.21875 27.484375 
z
M 52.203125 31.203125 
L 52.203125 0 
L 43.21875 0 
L 43.21875 8.296875 
Q 40.140625 3.328125 35.546875 0.953125 
Q 30.953125 -1.421875 24.3125 -1.421875 
Q 15.921875 -1.421875 10.953125 3.296875 
Q 6 8.015625 6 15.921875 
Q 6 25.140625 12.171875 29.828125 
Q 18.359375 34.515625 30.609375 34.515625 
L 43.21875 34.515625 
L 43.21875 35.40625 
Q 43.21875 41.609375 39.140625 45 
Q 35.0625 48.390625 27.6875 48.390625 
Q 23 48.390625 18.546875 47.265625 
Q 14.109375 46.140625 10.015625 43.890625 
L 10.015625 52.203125 
Q 14.9375 54.109375 19.578125 55.046875 
Q 24.21875 56 28.609375 56 
Q 40.484375 56 46.34375 49.84375 
Q 52.203125 43.703125 52.203125 31.203125 
" id="DejaVuSans-61"/>
     <path d="M 32.171875 -5.078125 
Q 28.375 -14.84375 24.75 -17.8125 
Q 21.140625 -20.796875 15.09375 -20.796875 
L 7.90625 -20.796875 
L 7.90625 -13.28125 
L 13.1875 -13.28125 
Q 16.890625 -13.28125 18.9375 -11.515625 
Q 21 -9.765625 23.484375 -3.21875 
L 25.09375 0.875 
L 2.984375 54.6875 
L 12.5 54.6875 
L 29.59375 11.921875 
L 46.6875 54.6875 
L 56.203125 54.6875 
z
" id="DejaVuSans-79"/>
    </defs>
    <g transform="translate(226.46 50.497814)scale(0.16 -0.16)">
     <use xlink:href="#DejaVuSans-43"/>
     <use x="69.824219" xlink:href="#DejaVuSans-6c"/>
     <use x="97.607422" xlink:href="#DejaVuSans-61"/>
     <use x="158.886719" xlink:href="#DejaVuSans-79"/>
    </g>
   </g>
   <g id="text_2">
    <!-- Sand -->
    <defs>
     <path d="M 53.515625 70.515625 
L 53.515625 60.890625 
Q 47.90625 63.578125 42.921875 64.890625 
Q 37.9375 66.21875 33.296875 66.21875 
Q 25.25 66.21875 20.875 63.09375 
Q 16.5 59.96875 16.5 54.203125 
Q 16.5 49.359375 19.40625 46.890625 
Q 22.3125 44.4375 30.421875 42.921875 
L 36.375 41.703125 
Q 47.40625 39.59375 52.65625 34.296875 
Q 57.90625 29 57.90625 20.125 
Q 57.90625 9.515625 50.796875 4.046875 
Q 43.703125 -1.421875 29.984375 -1.421875 
Q 24.8125 -1.421875 18.96875 -0.25 
Q 13.140625 0.921875 6.890625 3.21875 
L 6.890625 13.375 
Q 12.890625 10.015625 18.65625 8.296875 
Q 24.421875 6.59375 29.984375 6.59375 
Q 38.421875 6.59375 43.015625 9.90625 
Q 47.609375 13.234375 47.609375 19.390625 
Q 47.609375 24.75 44.3125 27.78125 
Q 41.015625 30.8125 33.5 32.328125 
L 27.484375 33.5 
Q 16.453125 35.6875 11.515625 40.375 
Q 6.59375 45.0625 6.59375 53.421875 
Q 6.59375 63.09375 13.40625 68.65625 
Q 20.21875 74.21875 32.171875 74.21875 
Q 37.3125 74.21875 42.625 73.28125 
Q 47.953125 72.359375 53.515625 70.515625 
" id="DejaVuSans-53"/>
     <path d="M 54.890625 33.015625 
L 54.890625 0 
L 45.90625 0 
L 45.90625 32.71875 
Q 45.90625 40.484375 42.875 44.328125 
Q 39.84375 48.1875 33.796875 48.1875 
Q 26.515625 48.1875 22.3125 43.546875 
Q 18.109375 38.921875 18.109375 30.90625 
L 18.109375 0 
L 9.078125 0 
L 9.078125 54.6875 
L 18.109375 54.6875 
L 18.109375 46.1875 
Q 21.34375 51.125 25.703125 53.5625 
Q 30.078125 56 35.796875 56 
Q 45.21875 56 50.046875 50.171875 
Q 54.890625 44.34375 54.890625 33.015625 
" id="DejaVuSans-6e"/>
     <path d="M 45.40625 46.390625 
L 45.40625 75.984375 
L 54.390625 75.984375 
L 54.390625 0 
L 45.40625 0 
L 45.40625 8.203125 
Q 42.578125 3.328125 38.25 0.953125 
Q 33.9375 -1.421875 27.875 -1.421875 
Q 17.96875 -1.421875 11.734375 6.484375 
Q 5.515625 14.40625 5.515625 27.296875 
Q 5.515625 40.1875 11.734375 48.09375 
Q 17.96875 56 27.875 56 
Q 33.9375 56 38.25 53.625 
Q 42.578125 51.265625 45.40625 46.390625 
M 14.796875 27.296875 
Q 14.796875 17.390625 18.875 11.75 
Q 22.953125 6.109375 30.078125 6.109375 
Q 37.203125 6.109375 41.296875 11.75 
Q 45.40625 17.390625 45.40625 27.296875 
Q 45.40625 37.203125 41.296875 42.84375 
Q 37.203125 48.484375 30.078125 48.484375 
Q 22.953125 48.484375 18.875 42.84375 
Q 14.796875 37.203125 14.796875 27.296875 
" id="DejaVuSans-64"/>
    </defs>
    <g transform="translate(25.58 363.373257)scale(0.16 -0.16)">
     <use xlink:href="#DejaVuSans-53"/>
     <use x="63.476562" xlink:href="#DejaVuSans-61"/>
     <use x="124.755859" xlink:href="#DejaVuSans-6e"/>
     <use x="188.134766" xlink:href="#DejaVuSans-64"/>
    </g>
   </g>
   <g id="text_3">
    <!-- Silt -->
    <defs>
     <path d="M 9.421875 54.6875 
L 18.40625 54.6875 
L 18.40625 0 
L 9.421875 0 
z
M 9.421875 75.984375 
L 18.40625 75.984375 
L 18.40625 64.59375 
L 9.421875 64.59375 
z
" id="DejaVuSans-69"/>
     <path d="M 18.3125 70.21875 
L 18.3125 54.6875 
L 36.8125 54.6875 
L 36.8125 47.703125 
L 18.3125 47.703125 
L 18.3125 18.015625 
Q 18.3125 11.328125 20.140625 9.421875 
Q 21.96875 7.515625 27.59375 7.515625 
L 36.8125 7.515625 
L 36.8125 0 
L 27.59375 0 
Q 17.1875 0 13.234375 3.875 
Q 9.28125 7.765625 9.28125 18.015625 
L 9.28125 47.703125 
L 2.6875 47.703125 
L 2.6875 54.6875 
L 9.28125 54.6875 
L 9.28125 70.21875 
z
" id="DejaVuSans-74"/>
    </defs>
    <g transform="translate(434.78 363.373257)scale(0.16 -0.16)">
     <use xlink:href="#DejaVuSans-53"/>
     <use x="63.476562" xlink:href="#DejaVuSans-69"/>
     <use x="91.259766" xlink:href="#DejaVuSans-6c"/>
     <use x="119.042969" xlink:href="#DejaVuSans-74"/>
    </g>
   </g>
   <g id="text_4">
    <!-- Y -->
    <defs>
     <path d="M -0.203125 72.90625 
L 10.40625 72.90625 
L 30.609375 42.921875 
L 50.6875 72.90625 
L 61.28125 72.90625 
L 35.5 34.71875 
L 35.5 0 
L 25.59375 0 
L 25.59375 34.71875 
z
" id="DejaVuSans-59"/>
    </defs>
    <g style="fill:#808080;opacity:0.8;" transform="translate(233.9 117.961443)scale(0.12 -0.12)">
     <use xlink:href="#DejaVuSans-59"/>
    </g>
   </g>
   <g id="text_5">
    <!-- SY -->
    <g style="fill:#808080;opacity:0.8;" transform="translate(188.1 198.681443)scale(0.12 -0.12)">
     <use xlink:href="#DejaVuSans-53"/>
     <use x="63.476562" xlink:href="#DejaVuSans-59"/>
    </g>
   </g>
   <g id="text_6">
    <!-- TY -->
    <defs>
     <path d="M -0.296875 72.90625 
L 61.375 72.90625 
L 61.375 64.59375 
L 35.5 64.59375 
L 35.5 0 
L 25.59375 0 
L 25.59375 64.59375 
L -0.296875 64.59375 
z
" id="DejaVuSans-54"/>
    </defs>
    <g style="fill:#808080;opacity:0.8;" transform="translate(289.7 208.681443)scale(0.12 -0.12)">
     <use xlink:href="#DejaVuSans-54"/>
     <use x="61.083984" xlink:href="#DejaVuSans-59"/>
    </g>
   </g>
   <g id="text_7">
    <!-- YS -->
    <g style="fill:#808080;opacity:0.8;" transform="translate(159.5 238.921443)scale(0.12 -0.12)">
     <use xlink:href="#DejaVuSans-59"/>
     <use x="61.083984" xlink:href="#DejaVuSans-53"/>
    </g>
   </g>
   <g id="text_8">
    <!-- STY -->
    <g style="fill:#808080;opacity:0.8;" transform="translate(233.9 259.081443)scale(0.12 -0.12)">
     <use xlink:href="#DejaVuSans-53"/>
     <use x="63.476562" xlink:href="#DejaVuSans-54"/>
     <use x="124.560547" xlink:href="#DejaVuSans-59"/>
    </g>
   </g>
   <g id="text_9">
    <!-- YT -->
    <g style="fill:#808080;opacity:0.8;" transform="translate(308.3 238.921443)scale(0.12 -0.12)">
     <use xlink:href="#DejaVuSans-59"/>
     <use x="61.083984" xlink:href="#DejaVuSans-54"/>
    </g>
   </g>
   <g id="text_10">
    <!-- S -->
    <g style="fill:#808080;opacity:0.8;" transform="translate(103.7 329.641443)scale(0.12 -0.12)">
     <use xlink:href="#DejaVuSans-53"/>
    </g>
   </g>
   <g id="text_11">
    <!-- TS -->
    <g style="fill:#808080;opacity:0.8;" transform="translate(178.1 329.641443)scale(0.12 -0.12)">
     <use xlink:href="#DejaVuSans-54"/>
     <use x="61.083984" xlink:href="#DejaVuSans-53"/>
    </g>
   </g>
   <g id="text_12">
    <!-- ST -->
    <g style="fill:#808080;opacity:0.8;" transform="translate(252.5 329.641443)scale(0.12 -0.12)">
     <use xlink:href="#DejaVuSans-53"/>
     <use x="63.476562" xlink:href="#DejaVuSans-54"/>
    </g>
   </g>
   <g id="text_13">
    <!-- T -->
    <g style="fill:#808080;opacity:0.8;" transform="translate(364.1 329.641443)scale(0.12 -0.12)">
     <use xlink:href="#DejaVuSans-54"/>
    </g>
   </g>
   <g id="text_14">
    <!-- 20 -->
    <defs>
     <path d="M 19.1875 8.296875 
L 53.609375 8.296875 
L 53.609375 0 
L 7.328125 0 
L 7.328125 8.296875 
Q 12.9375 14.109375 22.625 23.890625 
Q 32.328125 33.6875 34.8125 36.53125 
Q 39.546875 41.84375 41.421875 45.53125 
Q 43.3125 49.21875 43.3125 52.78125 
Q 43.3125 58.59375 39.234375 62.25 
Q 35.15625 65.921875 28.609375 65.921875 
Q 23.96875 65.921875 18.8125 64.3125 
Q 13.671875 62.703125 7.8125 59.421875 
L 7.8125 69.390625 
Q 13.765625 71.78125 18.9375 73 
Q 24.125 74.21875 28.421875 74.21875 
Q 39.75 74.21875 46.484375 68.546875 
Q 53.21875 62.890625 53.21875 53.421875 
Q 53.21875 48.921875 51.53125 44.890625 
Q 49.859375 40.875 45.40625 35.40625 
Q 44.1875 33.984375 37.640625 27.21875 
Q 31.109375 20.453125 19.1875 8.296875 
" id="DejaVuSans-32"/>
     <path d="M 31.78125 66.40625 
Q 24.171875 66.40625 20.328125 58.90625 
Q 16.5 51.421875 16.5 36.375 
Q 16.5 21.390625 20.328125 13.890625 
Q 24.171875 6.390625 31.78125 6.390625 
Q 39.453125 6.390625 43.28125 13.890625 
Q 47.125 21.390625 47.125 36.375 
Q 47.125 51.421875 43.28125 58.90625 
Q 39.453125 66.40625 31.78125 66.40625 
M 31.78125 74.21875 
Q 44.046875 74.21875 50.515625 64.515625 
Q 56.984375 54.828125 56.984375 36.375 
Q 56.984375 17.96875 50.515625 8.265625 
Q 44.046875 -1.421875 31.78125 -1.421875 
Q 19.53125 -1.421875 13.0625 8.265625 
Q 6.59375 17.96875 6.59375 36.375 
Q 6.59375 54.828125 13.0625 64.515625 
Q 19.53125 74.21875 31.78125 74.21875 
" id="DejaVuSans-30"/>
    </defs>
    <g style="fill:#808080;opacity:0.8;" transform="translate(178.7 117.961443)scale(0.12 -0.12)">
     <use xlink:href="#DejaVuSans-32"/>
     <use x="63.623047" xlink:href="#DejaVuSans-30"/>
    </g>
   </g>
   <g id="text_15">
    <!-- 40 -->
    <defs>
     <path d="M 37.796875 64.3125 
L 12.890625 25.390625 
L 37.796875 25.390625 
z
M 35.203125 72.90625 
L 47.609375 72.90625 
L 47.609375 25.390625 
L 58.015625 25.390625 
L 58.015625 17.1875 
L 47.609375 17.1875 
L 47.609375 0 
L 37.796875 0 
L 37.796875 17.1875 
L 4.890625 17.1875 
L 4.890625 26.703125 
z
" id="DejaVuSans-34"/>
    </defs>
    <g style="fill:#808080;opacity:0.8;" transform="translate(141.5 178.441443)scale(0.12 -0.12)">
     <use xlink:href="#DejaVuSans-34"/>
     <use x="63.623047" xlink:href="#DejaVuSans-30"/>
    </g>
   </g>
   <g id="text_16">
    <!-- 60 -->
    <defs>
     <path d="M 33.015625 40.375 
Q 26.375 40.375 22.484375 35.828125 
Q 18.609375 31.296875 18.609375 23.390625 
Q 18.609375 15.53125 22.484375 10.953125 
Q 26.375 6.390625 33.015625 6.390625 
Q 39.65625 6.390625 43.53125 10.953125 
Q 47.40625 15.53125 47.40625 23.390625 
Q 47.40625 31.296875 43.53125 35.828125 
Q 39.65625 40.375 33.015625 40.375 
M 52.59375 71.296875 
L 52.59375 62.3125 
Q 48.875 64.0625 45.09375 64.984375 
Q 41.3125 65.921875 37.59375 65.921875 
Q 27.828125 65.921875 22.671875 59.328125 
Q 17.53125 52.734375 16.796875 39.40625 
Q 19.671875 43.65625 24.015625 45.921875 
Q 28.375 48.1875 33.59375 48.1875 
Q 44.578125 48.1875 50.953125 41.515625 
Q 57.328125 34.859375 57.328125 23.390625 
Q 57.328125 12.15625 50.6875 5.359375 
Q 44.046875 -1.421875 33.015625 -1.421875 
Q 20.359375 -1.421875 13.671875 8.265625 
Q 6.984375 17.96875 6.984375 36.375 
Q 6.984375 53.65625 15.1875 63.9375 
Q 23.390625 74.21875 37.203125 74.21875 
Q 40.921875 74.21875 44.703125 73.484375 
Q 48.484375 72.75 52.59375 71.296875 
" id="DejaVuSans-36"/>
    </defs>
    <g style="fill:#808080;opacity:0.8;" transform="translate(104.3 238.921443)scale(0.12 -0.12)">
     <use xlink:href="#DejaVuSans-36"/>
     <use x="63.623047" xlink:href="#DejaVuSans-30"/>
    </g>
   </g>
   <g id="text_17">
    <!-- 80 -->
    <defs>
     <path d="M 31.78125 34.625 
Q 24.75 34.625 20.71875 30.859375 
Q 16.703125 27.09375 16.703125 20.515625 
Q 16.703125 13.921875 20.71875 10.15625 
Q 24.75 6.390625 31.78125 6.390625 
Q 38.8125 6.390625 42.859375 10.171875 
Q 46.921875 13.96875 46.921875 20.515625 
Q 46.921875 27.09375 42.890625 30.859375 
Q 38.875 34.625 31.78125 34.625 
M 21.921875 38.8125 
Q 15.578125 40.375 12.03125 44.71875 
Q 8.5 49.078125 8.5 55.328125 
Q 8.5 64.0625 14.71875 69.140625 
Q 20.953125 74.21875 31.78125 74.21875 
Q 42.671875 74.21875 48.875 69.140625 
Q 55.078125 64.0625 55.078125 55.328125 
Q 55.078125 49.078125 51.53125 44.71875 
Q 48 40.375 41.703125 38.8125 
Q 48.828125 37.15625 52.796875 32.3125 
Q 56.78125 27.484375 56.78125 20.515625 
Q 56.78125 9.90625 50.3125 4.234375 
Q 43.84375 -1.421875 31.78125 -1.421875 
Q 19.734375 -1.421875 13.25 4.234375 
Q 6.78125 9.90625 6.78125 20.515625 
Q 6.78125 27.484375 10.78125 32.3125 
Q 14.796875 37.15625 21.921875 38.8125 
M 18.3125 54.390625 
Q 18.3125 48.734375 21.84375 45.5625 
Q 25.390625 42.390625 31.78125 42.390625 
Q 38.140625 42.390625 41.71875 45.5625 
Q 45.3125 48.734375 45.3125 54.390625 
Q 45.3125 60.0625 41.71875 63.234375 
Q 38.140625 66.40625 31.78125 66.40625 
Q 25.390625 66.40625 21.84375 63.234375 
Q 18.3125 60.0625 18.3125 54.390625 
" id="DejaVuSans-38"/>
    </defs>
    <g style="fill:#808080;opacity:0.8;" transform="translate(67.1 299.401443)scale(0.12 -0.12)">
     <use xlink:href="#DejaVuSans-38"/>
     <use x="63.623047" xlink:href="#DejaVuSans-30"/>
    </g>
   </g>
   <g id="text_18">
    <!-- 80 -->
    <g style="fill:#808080;opacity:0.8;" transform="translate(345.5 377.881443)scale(0.12 -0.12)">
     <use xlink:href="#DejaVuSans-38"/>
     <use x="63.623047" xlink:href="#DejaVuSans-30"/>
    </g>
   </g>
   <g id="text_19">
    <!-- 60 -->
    <g style="fill:#808080;opacity:0.8;" transform="translate(271.1 377.881443)scale(0.12 -0.12)">
     <use xlink:href="#DejaVuSans-36"/>
     <use x="63.623047" xlink:href="#DejaVuSans-30"/>
    </g>
   </g>
   <g id="text_20">
    <!-- 40 -->
    <g style="fill:#808080;opacity:0.8;" transform="translate(196.7 377.881443)scale(0.12 -0.12)">
     <use xlink:href="#DejaVuSans-34"/>
     <use x="63.623047" xlink:href="#DejaVuSans-30"/>
    </g>
   </g>
   <g id="text_21">
    <!-- 20 -->
    <g style="fill:#808080;opacity:0.8;" transform="translate(122.3 377.881443)scale(0.12 -0.12)">
     <use xlink:href="#DejaVuSans-32"/>
     <use x="63.623047" xlink:href="#DejaVuSans-30"/>
    </g>
   </g>
   <g id="text_22">
    <!-- 80 -->
    <g style="fill:#808080;opacity:0.8;" transform="translate(271.1 117.961443)scale(0.12 -0.12)">
     <use xlink:href="#DejaVuSans-38"/>
     <use x="63.623047" xlink:href="#DejaVuSans-30"/>
    </g>
   </g>
   <g id="text_23">
    <!-- 60 -->
    <g style="fill:#808080;opacity:0.8;" transform="translate(308.3 178.441443)scale(0.12 -0.12)">
     <use xlink:href="#DejaVuSans-36"/>
     <use x="63.623047" xlink:href="#DejaVuSans-30"/>
    </g>
   </g>
   <g id="text_24">
    <!-- 40 -->
    <g style="fill:#808080;opacity:0.8;" transform="translate(345.5 238.921443)scale(0.12 -0.12)">
     <use xlink:href="#DejaVuSans-34"/>
     <use x="63.623047" xlink:href="#DejaVuSans-30"/>
    </g>
   </g>
   <g id="text_25">
    <!-- 20 -->
    <g style="fill:#808080;opacity:0.8;" transform="translate(382.7 299.401443)scale(0.12 -0.12)">
     <use xlink:href="#DejaVuSans-32"/>
     <use x="63.623047" xlink:href="#DejaVuSans-30"/>
    </g>
   </g>
   <g id="legend_1">
    <g id="patch_7">
     <path d="M 564.854687 240.945106 
L 673.3 240.945106 
Q 675.3 240.945106 675.3 238.945106 
L 675.3 166.554481 
Q 675.3 164.554481 673.3 164.554481 
L 564.854687 164.554481 
Q 562.854687 164.554481 562.854687 166.554481 
L 562.854687 238.945106 
Q 562.854687 240.945106 564.854687 240.945106 
z
" style="fill:#ffffff;opacity:0.8;stroke:#cccccc;stroke-linejoin:miter;"/>
    </g>
    <g id="PathCollection_31">
     <g>
      <use style="fill:#008000;fill-opacity:0.6;stroke:#000000;stroke-opacity:0.6;" x="576.854687" xlink:href="#md7619b14f6" y="173.527919"/>
     </g>
    </g>
    <g id="text_26">
     <!-- First Group -->
     <defs>
      <path d="M 9.8125 72.90625 
L 51.703125 72.90625 
L 51.703125 64.59375 
L 19.671875 64.59375 
L 19.671875 43.109375 
L 48.578125 43.109375 
L 48.578125 34.8125 
L 19.671875 34.8125 
L 19.671875 0 
L 9.8125 0 
z
" id="DejaVuSans-46"/>
      <path d="M 41.109375 46.296875 
Q 39.59375 47.171875 37.8125 47.578125 
Q 36.03125 48 33.890625 48 
Q 26.265625 48 22.1875 43.046875 
Q 18.109375 38.09375 18.109375 28.8125 
L 18.109375 0 
L 9.078125 0 
L 9.078125 54.6875 
L 18.109375 54.6875 
L 18.109375 46.1875 
Q 20.953125 51.171875 25.484375 53.578125 
Q 30.03125 56 36.53125 56 
Q 37.453125 56 38.578125 55.875 
Q 39.703125 55.765625 41.0625 55.515625 
z
" id="DejaVuSans-72"/>
      <path d="M 44.28125 53.078125 
L 44.28125 44.578125 
Q 40.484375 46.53125 36.375 47.5 
Q 32.28125 48.484375 27.875 48.484375 
Q 21.1875 48.484375 17.84375 46.4375 
Q 14.5 44.390625 14.5 40.28125 
Q 14.5 37.15625 16.890625 35.375 
Q 19.28125 33.59375 26.515625 31.984375 
L 29.59375 31.296875 
Q 39.15625 29.25 43.1875 25.515625 
Q 47.21875 21.78125 47.21875 15.09375 
Q 47.21875 7.46875 41.1875 3.015625 
Q 35.15625 -1.421875 24.609375 -1.421875 
Q 20.21875 -1.421875 15.453125 -0.5625 
Q 10.6875 0.296875 5.421875 2 
L 5.421875 11.28125 
Q 10.40625 8.6875 15.234375 7.390625 
Q 20.0625 6.109375 24.8125 6.109375 
Q 31.15625 6.109375 34.5625 8.28125 
Q 37.984375 10.453125 37.984375 14.40625 
Q 37.984375 18.0625 35.515625 20.015625 
Q 33.0625 21.96875 24.703125 23.78125 
L 21.578125 24.515625 
Q 13.234375 26.265625 9.515625 29.90625 
Q 5.8125 33.546875 5.8125 39.890625 
Q 5.8125 47.609375 11.28125 51.796875 
Q 16.75 56 26.8125 56 
Q 31.78125 56 36.171875 55.265625 
Q 40.578125 54.546875 44.28125 53.078125 
" id="DejaVuSans-73"/>
      <path id="DejaVuSans-20"/>
      <path d="M 59.515625 10.40625 
L 59.515625 29.984375 
L 43.40625 29.984375 
L 43.40625 38.09375 
L 69.28125 38.09375 
L 69.28125 6.78125 
Q 63.578125 2.734375 56.6875 0.65625 
Q 49.8125 -1.421875 42 -1.421875 
Q 24.90625 -1.421875 15.25 8.5625 
Q 5.609375 18.5625 5.609375 36.375 
Q 5.609375 54.25 15.25 64.234375 
Q 24.90625 74.21875 42 74.21875 
Q 49.125 74.21875 55.546875 72.453125 
Q 61.96875 70.703125 67.390625 67.28125 
L 67.390625 56.78125 
Q 61.921875 61.421875 55.765625 63.765625 
Q 49.609375 66.109375 42.828125 66.109375 
Q 29.4375 66.109375 22.71875 58.640625 
Q 16.015625 51.171875 16.015625 36.375 
Q 16.015625 21.625 22.71875 14.15625 
Q 29.4375 6.6875 42.828125 6.6875 
Q 48.046875 6.6875 52.140625 7.59375 
Q 56.25 8.5 59.515625 10.40625 
" id="DejaVuSans-47"/>
      <path d="M 30.609375 48.390625 
Q 23.390625 48.390625 19.1875 42.75 
Q 14.984375 37.109375 14.984375 27.296875 
Q 14.984375 17.484375 19.15625 11.84375 
Q 23.34375 6.203125 30.609375 6.203125 
Q 37.796875 6.203125 41.984375 11.859375 
Q 46.1875 17.53125 46.1875 27.296875 
Q 46.1875 37.015625 41.984375 42.703125 
Q 37.796875 48.390625 30.609375 48.390625 
M 30.609375 56 
Q 42.328125 56 49.015625 48.375 
Q 55.71875 40.765625 55.71875 27.296875 
Q 55.71875 13.875 49.015625 6.21875 
Q 42.328125 -1.421875 30.609375 -1.421875 
Q 18.84375 -1.421875 12.171875 6.21875 
Q 5.515625 13.875 5.515625 27.296875 
Q 5.515625 40.765625 12.171875 48.375 
Q 18.84375 56 30.609375 56 
" id="DejaVuSans-6f"/>
      <path d="M 8.5 21.578125 
L 8.5 54.6875 
L 17.484375 54.6875 
L 17.484375 21.921875 
Q 17.484375 14.15625 20.5 10.265625 
Q 23.53125 6.390625 29.59375 6.390625 
Q 36.859375 6.390625 41.078125 11.03125 
Q 45.3125 15.671875 45.3125 23.6875 
L 45.3125 54.6875 
L 54.296875 54.6875 
L 54.296875 0 
L 45.3125 0 
L 45.3125 8.40625 
Q 42.046875 3.421875 37.71875 1 
Q 33.40625 -1.421875 27.6875 -1.421875 
Q 18.265625 -1.421875 13.375 4.4375 
Q 8.5 10.296875 8.5 21.578125 
M 31.109375 56 
z
" id="DejaVuSans-75"/>
      <path d="M 18.109375 8.203125 
L 18.109375 -20.796875 
L 9.078125 -20.796875 
L 9.078125 54.6875 
L 18.109375 54.6875 
L 18.109375 46.390625 
Q 20.953125 51.265625 25.265625 53.625 
Q 29.59375 56 35.59375 56 
Q 45.5625 56 51.78125 48.09375 
Q 58.015625 40.1875 58.015625 27.296875 
Q 58.015625 14.40625 51.78125 6.484375 
Q 45.5625 -1.421875 35.59375 -1.421875 
Q 29.59375 -1.421875 25.265625 0.953125 
Q 20.953125 3.328125 18.109375 8.203125 
M 48.6875 27.296875 
Q 48.6875 37.203125 44.609375 42.84375 
Q 40.53125 48.484375 33.40625 48.484375 
Q 26.265625 48.484375 22.1875 42.84375 
Q 18.109375 37.203125 18.109375 27.296875 
Q 18.109375 17.390625 22.1875 11.75 
Q 26.265625 6.109375 33.40625 6.109375 
Q 40.53125 6.109375 44.609375 11.75 
Q 48.6875 17.390625 48.6875 27.296875 
" id="DejaVuSans-70"/>
     </defs>
     <g transform="translate(594.854687 176.152919)scale(0.1 -0.1)">
      <use xlink:href="#DejaVuSans-46"/>
      <use x="57.410156" xlink:href="#DejaVuSans-69"/>
      <use x="85.193359" xlink:href="#DejaVuSans-72"/>
      <use x="126.306641" xlink:href="#DejaVuSans-73"/>
      <use x="178.40625" xlink:href="#DejaVuSans-74"/>
      <use x="217.615234" xlink:href="#DejaVuSans-20"/>
      <use x="249.402344" xlink:href="#DejaVuSans-47"/>
      <use x="326.892578" xlink:href="#DejaVuSans-72"/>
      <use x="367.974609" xlink:href="#DejaVuSans-6f"/>
      <use x="429.15625" xlink:href="#DejaVuSans-75"/>
      <use x="492.535156" xlink:href="#DejaVuSans-70"/>
     </g>
    </g>
    <g id="PathCollection_32">
     <g>
      <use style="fill:#008000;fill-opacity:0.6;stroke:#000000;stroke-opacity:0.6;" x="576.854687" xlink:href="#md7619b14f6" y="188.206044"/>
     </g>
    </g>
    <g id="text_27">
     <!-- nan -->
     <g transform="translate(594.854687 190.831044)scale(0.1 -0.1)">
      <use xlink:href="#DejaVuSans-6e"/>
      <use x="63.378906" xlink:href="#DejaVuSans-61"/>
      <use x="124.658203" xlink:href="#DejaVuSans-6e"/>
     </g>
    </g>
    <g id="PathCollection_33">
     <g>
      <use style="fill:#0000ff;fill-opacity:0.6;stroke:#000000;stroke-opacity:0.6;" x="576.854687" xlink:href="#m547a815a38" y="202.884169"/>
     </g>
    </g>
    <g id="text_28">
     <!-- Second Group -->
     <defs>
      <path d="M 56.203125 29.59375 
L 56.203125 25.203125 
L 14.890625 25.203125 
Q 15.484375 15.921875 20.484375 11.0625 
Q 25.484375 6.203125 34.421875 6.203125 
Q 39.59375 6.203125 44.453125 7.46875 
Q 49.3125 8.734375 54.109375 11.28125 
L 54.109375 2.78125 
Q 49.265625 0.734375 44.1875 -0.34375 
Q 39.109375 -1.421875 33.890625 -1.421875 
Q 20.796875 -1.421875 13.15625 6.1875 
Q 5.515625 13.8125 5.515625 26.8125 
Q 5.515625 40.234375 12.765625 48.109375 
Q 20.015625 56 32.328125 56 
Q 43.359375 56 49.78125 48.890625 
Q 56.203125 41.796875 56.203125 29.59375 
M 47.21875 32.234375 
Q 47.125 39.59375 43.09375 43.984375 
Q 39.0625 48.390625 32.421875 48.390625 
Q 24.90625 48.390625 20.390625 44.140625 
Q 15.875 39.890625 15.1875 32.171875 
z
" id="DejaVuSans-65"/>
      <path d="M 48.78125 52.59375 
L 48.78125 44.1875 
Q 44.96875 46.296875 41.140625 47.34375 
Q 37.3125 48.390625 33.40625 48.390625 
Q 24.65625 48.390625 19.8125 42.84375 
Q 14.984375 37.3125 14.984375 27.296875 
Q 14.984375 17.28125 19.8125 11.734375 
Q 24.65625 6.203125 33.40625 6.203125 
Q 37.3125 6.203125 41.140625 7.25 
Q 44.96875 8.296875 48.78125 10.40625 
L 48.78125 2.09375 
Q 45.015625 0.34375 40.984375 -0.53125 
Q 36.96875 -1.421875 32.421875 -1.421875 
Q 20.0625 -1.421875 12.78125 6.34375 
Q 5.515625 14.109375 5.515625 27.296875 
Q 5.515625 40.671875 12.859375 48.328125 
Q 20.21875 56 33.015625 56 
Q 37.15625 56 41.109375 55.140625 
Q 45.0625 54.296875 48.78125 52.59375 
" id="DejaVuSans-63"/>
     </defs>
     <g transform="translate(594.854687 205.509169)scale(0.1 -0.1)">
      <use xlink:href="#DejaVuSans-53"/>
      <use x="63.476562" xlink:href="#DejaVuSans-65"/>
      <use x="125" xlink:href="#DejaVuSans-63"/>
      <use x="179.980469" xlink:href="#DejaVuSans-6f"/>
      <use x="241.162109" xlink:href="#DejaVuSans-6e"/>
      <use x="304.541016" xlink:href="#DejaVuSans-64"/>
      <use x="368.017578" xlink:href="#DejaVuSans-20"/>
      <use x="399.804688" xlink:href="#DejaVuSans-47"/>
      <use x="477.294922" xlink:href="#DejaVuSans-72"/>
      <use x="518.376953" xlink:href="#DejaVuSans-6f"/>
      <use x="579.558594" xlink:href="#DejaVuSans-75"/>
      <use x="642.9375" xlink:href="#DejaVuSans-70"/>
     </g>
    </g>
    <g id="PathCollection_34">
     <g>
      <use style="fill:#808080;fill-opacity:0.6;stroke:#000000;stroke-opacity:0.6;" x="576.854687" xlink:href="#m086c96fa86" y="217.562294"/>
     </g>
    </g>
    <g id="text_29">
     <!-- Third Group -->
     <defs>
      <path d="M 54.890625 33.015625 
L 54.890625 0 
L 45.90625 0 
L 45.90625 32.71875 
Q 45.90625 40.484375 42.875 44.328125 
Q 39.84375 48.1875 33.796875 48.1875 
Q 26.515625 48.1875 22.3125 43.546875 
Q 18.109375 38.921875 18.109375 30.90625 
L 18.109375 0 
L 9.078125 0 
L 9.078125 75.984375 
L 18.109375 75.984375 
L 18.109375 46.1875 
Q 21.34375 51.125 25.703125 53.5625 
Q 30.078125 56 35.796875 56 
Q 45.21875 56 50.046875 50.171875 
Q 54.890625 44.34375 54.890625 33.015625 
" id="DejaVuSans-68"/>
     </defs>
     <g transform="translate(594.854687 220.187294)scale(0.1 -0.1)">
      <use xlink:href="#DejaVuSans-54"/>
      <use x="61.083984" xlink:href="#DejaVuSans-68"/>
      <use x="124.462891" xlink:href="#DejaVuSans-69"/>
      <use x="152.246094" xlink:href="#DejaVuSans-72"/>
      <use x="193.34375" xlink:href="#DejaVuSans-64"/>
      <use x="256.820312" xlink:href="#DejaVuSans-20"/>
      <use x="288.607422" xlink:href="#DejaVuSans-47"/>
      <use x="366.097656" xlink:href="#DejaVuSans-72"/>
      <use x="407.179688" xlink:href="#DejaVuSans-6f"/>
      <use x="468.361328" xlink:href="#DejaVuSans-75"/>
      <use x="531.740234" xlink:href="#DejaVuSans-70"/>
     </g>
    </g>
    <g id="PathCollection_35">
     <g>
      <use style="fill:#ff0000;fill-opacity:0.6;stroke:#000000;stroke-opacity:0.6;" x="576.854687" xlink:href="#mbf7125620d" y="232.240419"/>
     </g>
    </g>
    <g id="text_30">
     <!-- The Last Group -->
     <defs>
      <path d="M 9.8125 72.90625 
L 19.671875 72.90625 
L 19.671875 8.296875 
L 55.171875 8.296875 
L 55.171875 0 
L 9.8125 0 
z
" id="DejaVuSans-4c"/>
     </defs>
     <g transform="translate(594.854687 234.865419)scale(0.1 -0.1)">
      <use xlink:href="#DejaVuSans-54"/>
      <use x="61.083984" xlink:href="#DejaVuSans-68"/>
      <use x="124.462891" xlink:href="#DejaVuSans-65"/>
      <use x="185.986328" xlink:href="#DejaVuSans-20"/>
      <use x="217.773438" xlink:href="#DejaVuSans-4c"/>
      <use x="273.486328" xlink:href="#DejaVuSans-61"/>
      <use x="334.765625" xlink:href="#DejaVuSans-73"/>
      <use x="386.865234" xlink:href="#DejaVuSans-74"/>
      <use x="426.074219" xlink:href="#DejaVuSans-20"/>
      <use x="457.861328" xlink:href="#DejaVuSans-47"/>
      <use x="535.351562" xlink:href="#DejaVuSans-72"/>
      <use x="576.433594" xlink:href="#DejaVuSans-6f"/>
      <use x="637.615234" xlink:href="#DejaVuSans-75"/>
      <use x="700.994141" xlink:href="#DejaVuSans-70"/>
     </g>
    </g>
   </g>
  </g>
 </g>
 <defs>
  <clipPath id="p1aef78f003">
   <rect height="384.099587" width="446.4" x="10.7" y="10.7"/>
  </clipPath>
 </defs>
</svg>
