<?xml version="1.0" encoding="UTF-8" standalone="no"?>
<!-- Created with Inkscape (http://www.inkscape.org/) -->

<svg
   xmlns:dc="http://purl.org/dc/elements/1.1/"
   xmlns:cc="http://creativecommons.org/ns#"
   xmlns:rdf="http://www.w3.org/1999/02/22-rdf-syntax-ns#"
   xmlns:svg="http://www.w3.org/2000/svg"
   xmlns="http://www.w3.org/2000/svg"
   xmlns:sodipodi="http://sodipodi.sourceforge.net/DTD/sodipodi-0.dtd"
   xmlns:inkscape="http://www.inkscape.org/namespaces/inkscape"
   width="210mm"
   height="297mm"
   viewBox="0 0 210 297"
   version="1.1"
   id="svg8"
   inkscape:version="0.92.4 (5da689c313, 2019-01-14)"
   sodipodi:docname="Clay-Sand-Silt.svg">
  <defs
     id="defs2">
    <clipPath
       id="clipPath3731"
       clipPathUnits="userSpaceOnUse">
      <path
         inkscape:connector-curvature="0"
         id="path3729"
         d="m 55.2375,27 h 331.425 V 243 H 55.2375 Z" />
    </clipPath>
    <clipPath
       id="clipPath3741"
       clipPathUnits="userSpaceOnUse">
      <path
         inkscape:connector-curvature="0"
         id="path3739"
         d="m 55.2375,27 h 331.425 V 243 H 55.2375 Z" />
    </clipPath>
    <clipPath
       id="clipPath3751"
       clipPathUnits="userSpaceOnUse">
      <path
         inkscape:connector-curvature="0"
         id="path3749"
         d="m 55.2375,27 h 331.425 V 243 H 55.2375 Z" />
    </clipPath>
    <clipPath
       id="clipPath3761"
       clipPathUnits="userSpaceOnUse">
      <path
         inkscape:connector-curvature="0"
         id="path3759"
         d="m 55.2375,27 h 331.425 V 243 H 55.2375 Z" />
    </clipPath>
    <clipPath
       id="clipPath3771"
       clipPathUnits="userSpaceOnUse">
      <path
         inkscape:connector-curvature="0"
         id="path3769"
         d="m 55.2375,27 h 331.425 V 243 H 55.2375 Z" />
    </clipPath>
    <clipPath
       id="clipPath3781"
       clipPathUnits="userSpaceOnUse">
      <path
         inkscape:connector-curvature="0"
         id="path3779"
         d="m 55.2375,27 h 331.425 V 243 H 55.2375 Z" />
    </clipPath>
    <clipPath
       id="clipPath3791"
       clipPathUnits="userSpaceOnUse">
      <path
         inkscape:connector-curvature="0"
         id="path3789"
         d="m 55.2375,27 h 331.425 V 243 H 55.2375 Z" />
    </clipPath>
    <clipPath
       id="clipPath3801"
       clipPathUnits="userSpaceOnUse">
      <path
         inkscape:connector-curvature="0"
         id="path3799"
         d="m 55.2375,27 h 331.425 V 243 H 55.2375 Z" />
    </clipPath>
    <clipPath
       id="clipPath3811"
       clipPathUnits="userSpaceOnUse">
      <path
         inkscape:connector-curvature="0"
         id="path3809"
         d="m 55.2375,27 h 331.425 V 243 H 55.2375 Z" />
    </clipPath>
    <clipPath
       id="clipPath3821"
       clipPathUnits="userSpaceOnUse">
      <path
         inkscape:connector-curvature="0"
         id="path3819"
         d="m 55.2375,27 h 331.425 V 243 H 55.2375 Z" />
    </clipPath>
    <clipPath
       id="clipPath3831"
       clipPathUnits="userSpaceOnUse">
      <path
         inkscape:connector-curvature="0"
         id="path3829"
         d="m 55.2375,27 h 331.425 V 243 H 55.2375 Z" />
    </clipPath>
    <clipPath
       id="clipPath3841"
       clipPathUnits="userSpaceOnUse">
      <path
         inkscape:connector-curvature="0"
         id="path3839"
         d="m 55.2375,27 h 331.425 V 243 H 55.2375 Z" />
    </clipPath>
    <clipPath
       id="clipPath3851"
       clipPathUnits="userSpaceOnUse">
      <path
         inkscape:connector-curvature="0"
         id="path3849"
         d="m 55.2375,27 h 331.425 V 243 H 55.2375 Z" />
    </clipPath>
    <clipPath
       id="clipPath3861"
       clipPathUnits="userSpaceOnUse">
      <path
         inkscape:connector-curvature="0"
         id="path3859"
         d="m 55.2375,27 h 331.425 V 243 H 55.2375 Z" />
    </clipPath>
    <clipPath
       id="clipPath3871"
       clipPathUnits="userSpaceOnUse">
      <path
         inkscape:connector-curvature="0"
         id="path3869"
         d="m 55.2375,27 h 331.425 V 243 H 55.2375 Z" />
    </clipPath>
    <clipPath
       id="clipPath3881"
       clipPathUnits="userSpaceOnUse">
      <path
         inkscape:connector-curvature="0"
         id="path3879"
         d="m 55.2375,27 h 331.425 V 243 H 55.2375 Z" />
    </clipPath>
    <clipPath
       id="clipPath3891"
       clipPathUnits="userSpaceOnUse">
      <path
         inkscape:connector-curvature="0"
         id="path3889"
         d="m 55.2375,27 h 331.425 V 243 H 55.2375 Z" />
    </clipPath>
    <clipPath
       id="clipPath3901"
       clipPathUnits="userSpaceOnUse">
      <path
         inkscape:connector-curvature="0"
         id="path3899"
         d="m 55.2375,27 h 331.425 V 243 H 55.2375 Z" />
    </clipPath>
    <clipPath
       id="clipPath3911"
       clipPathUnits="userSpaceOnUse">
      <path
         inkscape:connector-curvature="0"
         id="path3909"
         d="m 55.2375,27 h 331.425 V 243 H 55.2375 Z" />
    </clipPath>
    <clipPath
       id="clipPath3921"
       clipPathUnits="userSpaceOnUse">
      <path
         inkscape:connector-curvature="0"
         id="path3919"
         d="m 55.2375,27 h 331.425 V 243 H 55.2375 Z" />
    </clipPath>
    <clipPath
       id="clipPath3931"
       clipPathUnits="userSpaceOnUse">
      <path
         inkscape:connector-curvature="0"
         id="path3929"
         d="m 55.2375,27 h 331.425 V 243 H 55.2375 Z" />
    </clipPath>
    <clipPath
       id="clipPath3941"
       clipPathUnits="userSpaceOnUse">
      <path
         inkscape:connector-curvature="0"
         id="path3939"
         d="m 55.2375,27 h 331.425 V 243 H 55.2375 Z" />
    </clipPath>
    <clipPath
       id="clipPath3951"
       clipPathUnits="userSpaceOnUse">
      <path
         inkscape:connector-curvature="0"
         id="path3949"
         d="m 55.2375,27 h 331.425 V 243 H 55.2375 Z" />
    </clipPath>
    <clipPath
       id="clipPath3961"
       clipPathUnits="userSpaceOnUse">
      <path
         inkscape:connector-curvature="0"
         id="path3959"
         d="m 55.2375,27 h 331.425 V 243 H 55.2375 Z" />
    </clipPath>
    <clipPath
       id="clipPath3971"
       clipPathUnits="userSpaceOnUse">
      <path
         inkscape:connector-curvature="0"
         id="path3969"
         d="m 55.2375,27 h 331.425 V 243 H 55.2375 Z" />
    </clipPath>
    <clipPath
       id="clipPath3981"
       clipPathUnits="userSpaceOnUse">
      <path
         inkscape:connector-curvature="0"
         id="path3979"
         d="m 55.2375,27 h 331.425 V 243 H 55.2375 Z" />
    </clipPath>
    <clipPath
       id="clipPath3991"
       clipPathUnits="userSpaceOnUse">
      <path
         inkscape:connector-curvature="0"
         id="path3989"
         d="m 55.2375,27 h 331.425 V 243 H 55.2375 Z" />
    </clipPath>
    <clipPath
       id="clipPath4001"
       clipPathUnits="userSpaceOnUse">
      <path
         inkscape:connector-curvature="0"
         id="path3999"
         d="m 55.2375,27 h 331.425 V 243 H 55.2375 Z" />
    </clipPath>
    <clipPath
       id="clipPath4011"
       clipPathUnits="userSpaceOnUse">
      <path
         inkscape:connector-curvature="0"
         id="path4009"
         d="m 55.2375,27 h 331.425 V 243 H 55.2375 Z" />
    </clipPath>
    <clipPath
       id="clipPath4021"
       clipPathUnits="userSpaceOnUse">
      <path
         inkscape:connector-curvature="0"
         id="path4019"
         d="m 55.2375,27 h 331.425 V 243 H 55.2375 Z" />
    </clipPath>
    <clipPath
       id="clipPath4031"
       clipPathUnits="userSpaceOnUse">
      <path
         inkscape:connector-curvature="0"
         id="path4029"
         d="m 55.2375,27 h 331.425 V 243 H 55.2375 Z" />
    </clipPath>
    <clipPath
       id="clipPath4041"
       clipPathUnits="userSpaceOnUse">
      <path
         inkscape:connector-curvature="0"
         id="path4039"
         d="m 55.2375,27 h 331.425 V 243 H 55.2375 Z" />
    </clipPath>
    <clipPath
       id="clipPath4051"
       clipPathUnits="userSpaceOnUse">
      <path
         inkscape:connector-curvature="0"
         id="path4049"
         d="m 55.2375,27 h 331.425 V 243 H 55.2375 Z" />
    </clipPath>
    <clipPath
       id="clipPath4061"
       clipPathUnits="userSpaceOnUse">
      <path
         inkscape:connector-curvature="0"
         id="path4059"
         d="m 55.2375,27 h 331.425 V 243 H 55.2375 Z" />
    </clipPath>
    <clipPath
       id="clipPath4071"
       clipPathUnits="userSpaceOnUse">
      <path
         inkscape:connector-curvature="0"
         id="path4069"
         d="m 55.2375,27 h 331.425 V 243 H 55.2375 Z" />
    </clipPath>
    <clipPath
       id="clipPath4081"
       clipPathUnits="userSpaceOnUse">
      <path
         inkscape:connector-curvature="0"
         id="path4079"
         d="m 55.2375,27 h 331.425 V 243 H 55.2375 Z" />
    </clipPath>
    <clipPath
       id="clipPath4091"
       clipPathUnits="userSpaceOnUse">
      <path
         inkscape:connector-curvature="0"
         id="path4089"
         d="m 55.2375,27 h 331.425 V 243 H 55.2375 Z" />
    </clipPath>
    <clipPath
       id="clipPath4101"
       clipPathUnits="userSpaceOnUse">
      <path
         inkscape:connector-curvature="0"
         id="path4099"
         d="m 55.2375,27 h 331.425 V 243 H 55.2375 Z" />
    </clipPath>
    <clipPath
       id="clipPath4111"
       clipPathUnits="userSpaceOnUse">
      <path
         inkscape:connector-curvature="0"
         id="path4109"
         d="m 55.2375,27 h 331.425 V 243 H 55.2375 Z" />
    </clipPath>
    <clipPath
       id="clipPath4121"
       clipPathUnits="userSpaceOnUse">
      <path
         inkscape:connector-curvature="0"
         id="path4119"
         d="m 55.2375,27 h 331.425 V 243 H 55.2375 Z" />
    </clipPath>
    <clipPath
       id="clipPath4131"
       clipPathUnits="userSpaceOnUse">
      <path
         inkscape:connector-curvature="0"
         id="path4129"
         d="m 55.2375,27 h 331.425 V 243 H 55.2375 Z" />
    </clipPath>
    <clipPath
       id="clipPath4141"
       clipPathUnits="userSpaceOnUse">
      <path
         inkscape:connector-curvature="0"
         id="path4139"
         d="m 55.2375,27 h 331.425 V 243 H 55.2375 Z" />
    </clipPath>
    <clipPath
       id="clipPath4151"
       clipPathUnits="userSpaceOnUse">
      <path
         inkscape:connector-curvature="0"
         id="path4149"
         d="m 55.2375,27 h 331.425 V 243 H 55.2375 Z" />
    </clipPath>
    <clipPath
       id="clipPath4161"
       clipPathUnits="userSpaceOnUse">
      <path
         inkscape:connector-curvature="0"
         id="path4159"
         d="m 55.2375,27 h 331.425 V 243 H 55.2375 Z" />
    </clipPath>
  </defs>
  <sodipodi:namedview
     id="base"
     pagecolor="#ffffff"
     bordercolor="#666666"
     borderopacity="1.0"
     inkscape:pageopacity="0.0"
     inkscape:pageshadow="2"
     inkscape:zoom="0.49497475"
     inkscape:cx="969.71894"
     inkscape:cy="28.856906"
     inkscape:document-units="mm"
     inkscape:current-layer="g3721"
     showgrid="false"
     inkscape:window-width="1920"
     inkscape:window-height="1057"
     inkscape:window-x="-4"
     inkscape:window-y="-4"
     inkscape:window-maximized="1" />
  <metadata
     id="metadata5">
    <rdf:RDF>
      <cc:Work
         rdf:about="">
        <dc:format>image/svg+xml</dc:format>
        <dc:type
           rdf:resource="http://purl.org/dc/dcmitype/StillImage" />
        <dc:title></dc:title>
      </cc:Work>
    </rdf:RDF>
  </metadata>
  <g
     inkscape:label="Layer 1"
     inkscape:groupmode="layer"
     id="layer1">
    <g
       transform="matrix(0.35277777,0,0,-0.35277777,8.400523,196.45833)"
       inkscape:label="Clastic_Tags_Detail"
       id="g3721">
      <g
         id="g3725"
         transform="translate(71.215756,7.5761443)">
        <g
           clip-path="url(#clipPath3731)"
           id="g3727">
          <path
             inkscape:connector-curvature="0"
             id="path3733"
             style="fill:#808080;fill-opacity:0.4;fill-rule:nonzero;stroke:#000000;stroke-width:1;stroke-linecap:butt;stroke-linejoin:round;stroke-miterlimit:10;stroke-dasharray:none;stroke-opacity:0.4"
             d="m 140.76653,128.12878 c 0.93764,0 1.83699,0.37252 2.5,1.03553 0.66301,0.66301 1.03554,1.56237 1.03554,2.5 0,0.93764 -0.37253,1.83699 -1.03554,2.5 -0.66301,0.66301 -1.56236,1.03554 -2.5,1.03554 -0.93763,0 -1.83699,-0.37253 -2.5,-1.03554 -0.66301,-0.66301 -1.03553,-1.56236 -1.03553,-2.5 0,-0.93763 0.37252,-1.83699 1.03553,-2.5 0.66301,-0.66301 1.56237,-1.03553 2.5,-1.03553 z" />
        </g>
      </g>
      <g
         id="g3735"
         transform="translate(71.215756,7.5761443)">
        <g
           clip-path="url(#clipPath3741)"
           id="g3737">
          <path
             inkscape:connector-curvature="0"
             id="path3743"
             style="fill:#808080;fill-opacity:0.4;fill-rule:nonzero;stroke:#000000;stroke-width:1;stroke-linecap:butt;stroke-linejoin:round;stroke-miterlimit:10;stroke-dasharray:none;stroke-opacity:0.4"
             d="m 172.83992,111.12319 c 0.93763,0 1.83699,0.37253 2.5,1.03553 0.66301,0.66301 1.03553,1.56237 1.03553,2.5 0,0.93764 -0.37252,1.837 -1.03553,2.5 -0.66301,0.66301 -1.56237,1.03554 -2.5,1.03554 -0.93764,0 -1.83699,-0.37253 -2.5,-1.03554 -0.66301,-0.663 -1.03554,-1.56236 -1.03554,-2.5 0,-0.93763 0.37253,-1.83699 1.03554,-2.5 0.66301,-0.663 1.56236,-1.03553 2.5,-1.03553 z" />
        </g>
      </g>
      <g
         id="g3745"
         transform="translate(71.215756,7.5761443)">
        <g
           clip-path="url(#clipPath3751)"
           id="g3747">
          <path
             inkscape:connector-curvature="0"
             id="path3753"
             style="fill:#808080;fill-opacity:0.4;fill-rule:nonzero;stroke:#000000;stroke-width:1;stroke-linecap:butt;stroke-linejoin:round;stroke-miterlimit:10;stroke-dasharray:none;stroke-opacity:0.4"
             d="m 247.67782,128.12878 c 0.93764,0 1.83699,0.37252 2.5,1.03553 0.66301,0.66301 1.03554,1.56237 1.03554,2.5 0,0.93764 -0.37253,1.83699 -1.03554,2.5 -0.66301,0.66301 -1.56236,1.03554 -2.5,1.03554 -0.93763,0 -1.83699,-0.37253 -2.5,-1.03554 -0.66301,-0.66301 -1.03553,-1.56236 -1.03553,-2.5 0,-0.93763 0.37252,-1.83699 1.03553,-2.5 0.66301,-0.66301 1.56237,-1.03553 2.5,-1.03553 z" />
        </g>
      </g>
      <g
         id="g3755"
         transform="translate(71.215756,7.5761443)">
        <g
           clip-path="url(#clipPath3761)"
           id="g3757">
          <path
             inkscape:connector-curvature="0"
             id="path3763"
             style="fill:#808080;fill-opacity:0.4;fill-rule:nonzero;stroke:#000000;stroke-width:1;stroke-linecap:butt;stroke-linejoin:round;stroke-miterlimit:10;stroke-dasharray:none;stroke-opacity:0.4"
             d="m 215.60443,111.12319 c 0.93764,0 1.837,0.37253 2.5,1.03553 0.66301,0.66301 1.03554,1.56237 1.03554,2.5 0,0.93764 -0.37253,1.837 -1.03554,2.5 -0.663,0.66301 -1.56236,1.03554 -2.5,1.03554 -0.93763,0 -1.83699,-0.37253 -2.5,-1.03554 -0.663,-0.663 -1.03553,-1.56236 -1.03553,-2.5 0,-0.93763 0.37253,-1.83699 1.03553,-2.5 0.66301,-0.663 1.56237,-1.03553 2.5,-1.03553 z" />
        </g>
      </g>
      <g
         id="g3765"
         transform="translate(71.215756,7.5761443)">
        <g
           clip-path="url(#clipPath3771)"
           id="g3767">
          <path
             inkscape:connector-curvature="0"
             id="path3773"
             style="fill:#808080;fill-opacity:0.4;fill-rule:nonzero;stroke:#000000;stroke-width:1;stroke-linecap:butt;stroke-linejoin:round;stroke-miterlimit:10;stroke-dasharray:none;stroke-opacity:0.4"
             d="m 194.22218,43.10083 c 0.93763,0 1.83699,0.372526 2.5,1.035534 0.663,0.663007 1.03553,1.562365 1.03553,2.5 0,0.937634 -0.37253,1.836992 -1.03553,2.5 -0.66301,0.663007 -1.56237,1.035534 -2.5,1.035534 -0.93764,0 -1.837,-0.372527 -2.5,-1.035534 -0.66301,-0.663008 -1.03554,-1.562366 -1.03554,-2.5 0,-0.937635 0.37253,-1.836993 1.03554,-2.5 0.663,-0.663008 1.56236,-1.035534 2.5,-1.035534 z" />
        </g>
      </g>
      <g
         id="g3775"
         transform="translate(71.215756,7.5761443)">
        <g
           clip-path="url(#clipPath3781)"
           id="g3777">
          <path
             inkscape:connector-curvature="0"
             id="path3783"
             style="fill:#808080;fill-opacity:0.4;fill-rule:nonzero;stroke:#000000;stroke-width:1;stroke-linecap:butt;stroke-linejoin:round;stroke-miterlimit:10;stroke-dasharray:none;stroke-opacity:0.4"
             d="m 194.22218,77.112009 c 0.93763,0 1.83699,0.372526 2.5,1.035534 0.663,0.663008 1.03553,1.562366 1.03553,2.5 0,0.937635 -0.37253,1.836992 -1.03553,2.5 -0.66301,0.663008 -1.56237,1.035534 -2.5,1.035534 -0.93764,0 -1.837,-0.372526 -2.5,-1.035534 -0.66301,-0.663008 -1.03554,-1.562365 -1.03554,-2.5 0,-0.937634 0.37253,-1.836992 1.03554,-2.5 0.663,-0.663008 1.56236,-1.035534 2.5,-1.035534 z" />
        </g>
      </g>
      <g
         id="g3785"
         transform="translate(71.215756,7.5761443)">
        <g
           clip-path="url(#clipPath3791)"
           id="g3787">
          <path
             inkscape:connector-curvature="0"
             id="path3793"
             style="fill:#808080;fill-opacity:0.4;fill-rule:nonzero;stroke:#000000;stroke-width:1;stroke-linecap:butt;stroke-linejoin:round;stroke-miterlimit:10;stroke-dasharray:none;stroke-opacity:0.4"
             d="m 167.49435,170.64275 c 0.93764,0 1.837,0.37253 2.5,1.03554 0.66301,0.663 1.03554,1.56236 1.03554,2.5 0,0.93763 -0.37253,1.83699 -1.03554,2.5 -0.663,0.663 -1.56236,1.03553 -2.5,1.03553 -0.93763,0 -1.83699,-0.37253 -2.5,-1.03553 -0.663,-0.66301 -1.03553,-1.56237 -1.03553,-2.5 0,-0.93764 0.37253,-1.837 1.03553,-2.5 0.66301,-0.66301 1.56237,-1.03554 2.5,-1.03554 z" />
        </g>
      </g>
      <g
         id="g3795"
         transform="translate(71.215756,7.5761443)">
        <g
           clip-path="url(#clipPath3801)"
           id="g3797">
          <path
             inkscape:connector-curvature="0"
             id="path3803"
             style="fill:#808080;fill-opacity:0.4;fill-rule:nonzero;stroke:#000000;stroke-width:1;stroke-linecap:butt;stroke-linejoin:round;stroke-miterlimit:10;stroke-dasharray:none;stroke-opacity:0.4"
             d="m 220.95,170.64275 c 0.93764,0 1.83699,0.37253 2.5,1.03554 0.66301,0.663 1.03553,1.56236 1.03553,2.5 0,0.93763 -0.37252,1.83699 -1.03553,2.5 -0.66301,0.663 -1.56236,1.03553 -2.5,1.03553 -0.93764,0 -1.83699,-0.37253 -2.5,-1.03553 -0.66301,-0.66301 -1.03553,-1.56237 -1.03553,-2.5 0,-0.93764 0.37252,-1.837 1.03553,-2.5 0.66301,-0.66301 1.56236,-1.03554 2.5,-1.03554 z" />
        </g>
      </g>
      <g
         id="g3805"
         transform="translate(71.215756,7.5761443)">
        <g
           clip-path="url(#clipPath3811)"
           id="g3807">
          <path
             inkscape:connector-curvature="0"
             id="path3813"
             style="fill:#808080;fill-opacity:0.4;fill-rule:nonzero;stroke:#000000;stroke-width:1;stroke-linecap:butt;stroke-linejoin:round;stroke-miterlimit:10;stroke-dasharray:none;stroke-opacity:0.4"
             d="m 114.03871,85.614804 c 0.93763,0 1.83699,0.372526 2.5,1.035534 0.66301,0.663008 1.03553,1.562365 1.03553,2.5 0,0.937635 -0.37252,1.836992 -1.03553,2.5 -0.66301,0.663008 -1.56237,1.035534 -2.5,1.035534 -0.93764,0 -1.83699,-0.372526 -2.5,-1.035534 -0.66301,-0.663008 -1.03553,-1.562365 -1.03553,-2.5 0,-0.937635 0.37252,-1.836992 1.03553,-2.5 0.66301,-0.663008 1.56236,-1.035534 2.5,-1.035534 z" />
        </g>
      </g>
      <g
         id="g3815"
         transform="translate(71.215756,7.5761443)">
        <g
           clip-path="url(#clipPath3821)"
           id="g3817">
          <path
             inkscape:connector-curvature="0"
             id="path3823"
             style="fill:#808080;fill-opacity:0.4;fill-rule:nonzero;stroke:#000000;stroke-width:1;stroke-linecap:butt;stroke-linejoin:round;stroke-miterlimit:10;stroke-dasharray:none;stroke-opacity:0.4"
             d="m 140.76653,43.10083 c 0.93764,0 1.83699,0.372526 2.5,1.035534 0.66301,0.663007 1.03554,1.562365 1.03554,2.5 0,0.937634 -0.37253,1.836992 -1.03554,2.5 -0.66301,0.663007 -1.56236,1.035534 -2.5,1.035534 -0.93763,0 -1.83699,-0.372527 -2.5,-1.035534 -0.66301,-0.663008 -1.03553,-1.562366 -1.03553,-2.5 0,-0.937635 0.37252,-1.836993 1.03553,-2.5 0.66301,-0.663008 1.56237,-1.035534 2.5,-1.035534 z" />
        </g>
      </g>
      <g
         id="g3825"
         transform="translate(71.215756,7.5761443)">
        <g
           clip-path="url(#clipPath3831)"
           id="g3827">
          <path
             inkscape:connector-curvature="0"
             id="path3833"
             style="fill:#808080;fill-opacity:0.4;fill-rule:nonzero;stroke:#000000;stroke-width:1;stroke-linecap:butt;stroke-linejoin:round;stroke-miterlimit:10;stroke-dasharray:none;stroke-opacity:0.4"
             d="m 247.67782,43.10083 c 0.93764,0 1.83699,0.372526 2.5,1.035534 0.66301,0.663007 1.03554,1.562365 1.03554,2.5 0,0.937634 -0.37253,1.836992 -1.03554,2.5 -0.66301,0.663007 -1.56236,1.035534 -2.5,1.035534 -0.93763,0 -1.83699,-0.372527 -2.5,-1.035534 -0.66301,-0.663008 -1.03553,-1.562366 -1.03553,-2.5 0,-0.937635 0.37252,-1.836993 1.03553,-2.5 0.66301,-0.663008 1.56237,-1.035534 2.5,-1.035534 z" />
        </g>
      </g>
      <g
         id="g3835"
         transform="translate(71.215756,7.5761443)">
        <g
           clip-path="url(#clipPath3841)"
           id="g3837">
          <path
             inkscape:connector-curvature="0"
             id="path3843"
             style="fill:#808080;fill-opacity:0.4;fill-rule:nonzero;stroke:#000000;stroke-width:1;stroke-linecap:butt;stroke-linejoin:round;stroke-miterlimit:10;stroke-dasharray:none;stroke-opacity:0.4"
             d="m 274.40564,85.614804 c 0.93764,0 1.837,0.372526 2.5,1.035534 0.66301,0.663008 1.03554,1.562365 1.03554,2.5 0,0.937635 -0.37253,1.836992 -1.03554,2.5 -0.663,0.663008 -1.56236,1.035534 -2.5,1.035534 -0.93763,0 -1.83699,-0.372526 -2.5,-1.035534 -0.663,-0.663008 -1.03553,-1.562365 -1.03553,-2.5 0,-0.937635 0.37253,-1.836992 1.03553,-2.5 0.66301,-0.663008 1.56237,-1.035534 2.5,-1.035534 z" />
        </g>
      </g>
      <g
         id="g3845"
         transform="translate(71.215756,7.5761443)">
        <g
           clip-path="url(#clipPath3851)"
           id="g3847">
          <path
             inkscape:connector-curvature="0"
             id="path3853"
             style="fill:#808080;fill-opacity:0.4;fill-rule:nonzero;stroke:#000000;stroke-width:1;stroke-linecap:butt;stroke-linejoin:round;stroke-miterlimit:10;stroke-dasharray:none;stroke-opacity:0.4"
             d="m 194.22218,145.13437 c 0.93763,0 1.83699,0.37252 2.5,1.03553 0.663,0.66301 1.03553,1.56237 1.03553,2.5 0,0.93764 -0.37253,1.83699 -1.03553,2.5 -0.66301,0.66301 -1.56237,1.03554 -2.5,1.03554 -0.93764,0 -1.837,-0.37253 -2.5,-1.03554 -0.66301,-0.66301 -1.03554,-1.56236 -1.03554,-2.5 0,-0.93763 0.37253,-1.83699 1.03554,-2.5 0.663,-0.66301 1.56236,-1.03553 2.5,-1.03553 z" />
        </g>
      </g>
      <g
         id="g3855"
         transform="translate(71.215756,7.5761443)">
        <g
           clip-path="url(#clipPath3861)"
           id="g3857">
          <path
             inkscape:connector-curvature="0"
             id="path3863"
             style="fill:#808080;fill-opacity:0.4;fill-rule:nonzero;stroke:#000000;stroke-width:1;stroke-linecap:butt;stroke-linejoin:round;stroke-miterlimit:10;stroke-dasharray:none;stroke-opacity:0.4"
             d="m 151.45766,77.112009 c 0.93764,0 1.83699,0.372526 2.5,1.035534 0.66301,0.663008 1.03553,1.562366 1.03553,2.5 0,0.937635 -0.37252,1.836992 -1.03553,2.5 -0.66301,0.663008 -1.56236,1.035534 -2.5,1.035534 -0.93763,0 -1.83699,-0.372526 -2.5,-1.035534 -0.66301,-0.663008 -1.03553,-1.562365 -1.03553,-2.5 0,-0.937634 0.37252,-1.836992 1.03553,-2.5 0.66301,-0.663008 1.56237,-1.035534 2.5,-1.035534 z" />
        </g>
      </g>
      <g
         id="g3865"
         transform="translate(71.215756,7.5761443)">
        <g
           clip-path="url(#clipPath3871)"
           id="g3867">
          <path
             inkscape:connector-curvature="0"
             id="path3873"
             style="fill:#808080;fill-opacity:0.4;fill-rule:nonzero;stroke:#000000;stroke-width:1;stroke-linecap:butt;stroke-linejoin:round;stroke-miterlimit:10;stroke-dasharray:none;stroke-opacity:0.4"
             d="m 236.98669,77.112009 c 0.93764,0 1.837,0.372526 2.5,1.035534 0.66301,0.663008 1.03554,1.562366 1.03554,2.5 0,0.937635 -0.37253,1.836992 -1.03554,2.5 -0.663,0.663008 -1.56236,1.035534 -2.5,1.035534 -0.93763,0 -1.83699,-0.372526 -2.5,-1.035534 -0.663,-0.663008 -1.03553,-1.562365 -1.03553,-2.5 0,-0.937634 0.37253,-1.836992 1.03553,-2.5 0.66301,-0.663008 1.56237,-1.035534 2.5,-1.035534 z" />
        </g>
      </g>
      <g
         id="g3875"
         transform="translate(71.215756,7.5761443)">
        <g
           clip-path="url(#clipPath3881)"
           id="g3877">
          <path
             inkscape:connector-curvature="0"
             id="path3883"
             style="fill:#808080;fill-opacity:0.4;fill-rule:nonzero;stroke:#000000;stroke-width:1;stroke-linecap:butt;stroke-linejoin:round;stroke-miterlimit:10;stroke-dasharray:none;stroke-opacity:0.4"
             d="m 194.22218,170.64275 c 0.93763,0 1.83699,0.37253 2.5,1.03554 0.663,0.663 1.03553,1.56236 1.03553,2.5 0,0.93763 -0.37253,1.83699 -1.03553,2.5 -0.66301,0.663 -1.56237,1.03553 -2.5,1.03553 -0.93764,0 -1.837,-0.37253 -2.5,-1.03553 -0.66301,-0.66301 -1.03554,-1.56237 -1.03554,-2.5 0,-0.93764 0.37253,-1.837 1.03554,-2.5 0.663,-0.66301 1.56236,-1.03554 2.5,-1.03554 z" />
        </g>
      </g>
      <g
         id="g3885"
         transform="translate(71.215756,7.5761443)">
        <g
           clip-path="url(#clipPath3891)"
           id="g3887">
          <path
             inkscape:connector-curvature="0"
             id="path3893"
             style="fill:#808080;fill-opacity:0.4;fill-rule:nonzero;stroke:#000000;stroke-width:1;stroke-linecap:butt;stroke-linejoin:round;stroke-miterlimit:10;stroke-dasharray:none;stroke-opacity:0.4"
             d="m 127.40262,64.357817 c 0.93764,0 1.83699,0.372526 2.5,1.035534 0.66301,0.663008 1.03553,1.562365 1.03553,2.5 0,0.937634 -0.37252,1.836992 -1.03553,2.5 -0.66301,0.663008 -1.56236,1.035534 -2.5,1.035534 -0.93763,0 -1.83699,-0.372526 -2.5,-1.035534 -0.66301,-0.663008 -1.03553,-1.562366 -1.03553,-2.5 0,-0.937635 0.37252,-1.836992 1.03553,-2.5 0.66301,-0.663008 1.56237,-1.035534 2.5,-1.035534 z" />
        </g>
      </g>
      <g
         id="g3895"
         transform="translate(71.215756,7.5761443)">
        <g
           clip-path="url(#clipPath3901)"
           id="g3897">
          <path
             inkscape:connector-curvature="0"
             id="path3903"
             style="fill:#808080;fill-opacity:0.4;fill-rule:nonzero;stroke:#000000;stroke-width:1;stroke-linecap:butt;stroke-linejoin:round;stroke-miterlimit:10;stroke-dasharray:none;stroke-opacity:0.4"
             d="m 261.04173,64.357817 c 0.93764,0 1.837,0.372526 2.5,1.035534 0.66301,0.663008 1.03554,1.562365 1.03554,2.5 0,0.937634 -0.37253,1.836992 -1.03554,2.5 -0.663,0.663008 -1.56236,1.035534 -2.5,1.035534 -0.93763,0 -1.83699,-0.372526 -2.5,-1.035534 -0.663,-0.663008 -1.03553,-1.562366 -1.03553,-2.5 0,-0.937635 0.37253,-1.836992 1.03553,-2.5 0.66301,-0.663008 1.56237,-1.035534 2.5,-1.035534 z" />
        </g>
      </g>
      <g
         id="g3905"
         transform="translate(71.215756,7.5761443)">
        <g
           clip-path="url(#clipPath3911)"
           id="g3907">
          <path
             inkscape:connector-curvature="0"
             id="path3913"
             style="fill:#808080;fill-opacity:0.4;fill-rule:nonzero;stroke:#000000;stroke-width:1;stroke-linecap:butt;stroke-linejoin:round;stroke-miterlimit:10;stroke-dasharray:none;stroke-opacity:0.4"
             d="m 194.22218,213.15673 c 0.93763,0 1.83699,0.37252 2.5,1.03553 0.663,0.66301 1.03553,1.56237 1.03553,2.5 0,0.93764 -0.37253,1.83699 -1.03553,2.5 -0.66301,0.66301 -1.56237,1.03553 -2.5,1.03553 -0.93764,0 -1.837,-0.37252 -2.5,-1.03553 -0.66301,-0.66301 -1.03554,-1.56236 -1.03554,-2.5 0,-0.93763 0.37253,-1.83699 1.03554,-2.5 0.663,-0.66301 1.56236,-1.03553 2.5,-1.03553 z" />
        </g>
      </g>
      <g
         id="g3915"
         transform="translate(71.215756,7.5761443)">
        <g
           clip-path="url(#clipPath3921)"
           id="g3917">
          <path
             inkscape:connector-curvature="0"
             id="path3923"
             style="fill:#808080;fill-opacity:0.4;fill-rule:nonzero;stroke:#000000;stroke-width:1;stroke-linecap:butt;stroke-linejoin:round;stroke-miterlimit:10;stroke-dasharray:none;stroke-opacity:0.4"
             d="m 301.13347,43.10083 c 0.93763,0 1.83699,0.372526 2.5,1.035534 0.663,0.663007 1.03553,1.562365 1.03553,2.5 0,0.937634 -0.37253,1.836992 -1.03553,2.5 -0.66301,0.663007 -1.56237,1.035534 -2.5,1.035534 -0.93764,0 -1.837,-0.372527 -2.5,-1.035534 -0.66301,-0.663008 -1.03554,-1.562366 -1.03554,-2.5 0,-0.937635 0.37253,-1.836993 1.03554,-2.5 0.663,-0.663008 1.56236,-1.035534 2.5,-1.035534 z" />
        </g>
      </g>
      <g
         id="g3925"
         transform="translate(71.215756,7.5761443)">
        <g
           clip-path="url(#clipPath3931)"
           id="g3927">
          <path
             inkscape:connector-curvature="0"
             id="path3933"
             style="fill:#808080;fill-opacity:0.4;fill-rule:nonzero;stroke:#000000;stroke-width:1;stroke-linecap:butt;stroke-linejoin:round;stroke-miterlimit:10;stroke-dasharray:none;stroke-opacity:0.4"
             d="m 87.310887,43.10083 c 0.937635,0 1.836992,0.372526 2.5,1.035534 0.663008,0.663007 1.035534,1.562365 1.035534,2.5 0,0.937634 -0.372526,1.836992 -1.035534,2.5 -0.663008,0.663007 -1.562365,1.035534 -2.5,1.035534 -0.937634,0 -1.836992,-0.372527 -2.5,-1.035534 -0.663008,-0.663008 -1.035534,-1.562366 -1.035534,-2.5 0,-0.937635 0.372526,-1.836993 1.035534,-2.5 0.663008,-0.663008 1.562366,-1.035534 2.5,-1.035534 z" />
        </g>
      </g>
      <g
         id="g3935"
         transform="translate(71.215756,7.5761443)">
        <g
           clip-path="url(#clipPath3941)"
           id="g3937">
          <path
             inkscape:connector-curvature="0"
             id="path3943"
             style="fill:none;stroke:#000000;stroke-width:1;stroke-linecap:square;stroke-linejoin:round;stroke-miterlimit:10;stroke-dasharray:none;stroke-opacity:0.7"
             d="M 87.310887,46.636364 H 301.13347 L 194.22218,216.69226 87.310887,46.636364" />
        </g>
      </g>
      <g
         id="g3945"
         transform="translate(71.215756,7.5761443)">
        <g
           clip-path="url(#clipPath3951)"
           id="g3947">
          <path
             inkscape:connector-curvature="0"
             id="path3953"
             style="fill:none;stroke:#000000;stroke-width:1;stroke-linecap:square;stroke-linejoin:round;stroke-miterlimit:10;stroke-dasharray:none;stroke-opacity:0.7"
             d="M 194.22218,148.6699 151.45766,80.647543 h 85.52903 L 194.22218,148.6699" />
        </g>
      </g>
      <g
         id="g3955"
         transform="translate(71.215756,7.5761443)">
        <g
           clip-path="url(#clipPath3961)"
           id="g3957">
          <path
             inkscape:connector-curvature="0"
             id="path3963"
             style="fill:none;stroke:#000000;stroke-width:1;stroke-linecap:square;stroke-linejoin:round;stroke-miterlimit:10;stroke-dasharray:none;stroke-opacity:0.7"
             d="m 140.76653,131.66431 32.07339,-17.00559" />
        </g>
      </g>
      <g
         id="g3965"
         transform="translate(71.215756,7.5761443)">
        <g
           clip-path="url(#clipPath3971)"
           id="g3967">
          <path
             inkscape:connector-curvature="0"
             id="path3973"
             style="fill:none;stroke:#000000;stroke-width:1;stroke-linecap:square;stroke-linejoin:round;stroke-miterlimit:10;stroke-dasharray:none;stroke-opacity:0.7"
             d="M 167.49435,174.17829 H 220.95" />
        </g>
      </g>
      <g
         id="g3975"
         transform="translate(71.215756,7.5761443)">
        <g
           clip-path="url(#clipPath3981)"
           id="g3977">
          <path
             inkscape:connector-curvature="0"
             id="path3983"
             style="fill:none;stroke:#000000;stroke-width:1;stroke-linecap:square;stroke-linejoin:round;stroke-miterlimit:10;stroke-dasharray:none;stroke-opacity:0.7"
             d="M 247.67782,131.66431 215.60443,114.65872" />
        </g>
      </g>
      <g
         id="g3985"
         transform="translate(71.215756,7.5761443)">
        <g
           clip-path="url(#clipPath3991)"
           id="g3987">
          <path
             inkscape:connector-curvature="0"
             id="path3993"
             style="fill:none;stroke:#000000;stroke-width:1;stroke-linecap:square;stroke-linejoin:round;stroke-miterlimit:10;stroke-dasharray:none;stroke-opacity:0.7"
             d="M 114.03871,89.150338 140.76653,46.636364" />
        </g>
      </g>
      <g
         id="g3995"
         transform="translate(71.215756,7.5761443)">
        <g
           clip-path="url(#clipPath4001)"
           id="g3997">
          <path
             inkscape:connector-curvature="0"
             id="path4003"
             style="fill:none;stroke:#000000;stroke-width:1;stroke-linecap:square;stroke-linejoin:round;stroke-miterlimit:10;stroke-dasharray:none;stroke-opacity:0.7"
             d="M 194.22218,46.636364 V 80.647543" />
        </g>
      </g>
      <g
         id="g4005"
         transform="translate(71.215756,7.5761443)">
        <g
           clip-path="url(#clipPath4011)"
           id="g4007">
          <path
             inkscape:connector-curvature="0"
             id="path4013"
             style="fill:none;stroke:#000000;stroke-width:1;stroke-linecap:square;stroke-linejoin:round;stroke-miterlimit:10;stroke-dasharray:none;stroke-opacity:0.7"
             d="m 247.67782,46.636364 26.72782,42.513974" />
        </g>
      </g>
      <g
         id="g4015"
         transform="translate(71.215756,7.5761443)">
        <g
           clip-path="url(#clipPath4021)"
           id="g4017">
          <path
             inkscape:connector-curvature="0"
             id="path4023"
             style="fill:none;stroke:#000000;stroke-width:1;stroke-linecap:square;stroke-linejoin:round;stroke-miterlimit:10;stroke-dasharray:none;stroke-opacity:0.7"
             d="m 194.22218,148.6699 v 25.50839" />
        </g>
      </g>
      <g
         id="g4025"
         transform="translate(71.215756,7.5761443)">
        <g
           clip-path="url(#clipPath4031)"
           id="g4027">
          <path
             inkscape:connector-curvature="0"
             id="path4033"
             style="fill:none;stroke:#000000;stroke-width:1;stroke-linecap:square;stroke-linejoin:round;stroke-miterlimit:10;stroke-dasharray:none;stroke-opacity:0.7"
             d="M 151.45766,80.647543 127.40262,67.893351" />
        </g>
      </g>
      <g
         id="g4035"
         transform="translate(71.215756,7.5761443)">
        <g
           clip-path="url(#clipPath4041)"
           id="g4037">
          <path
             inkscape:connector-curvature="0"
             id="path4043"
             style="fill:none;stroke:#000000;stroke-width:1;stroke-linecap:square;stroke-linejoin:round;stroke-miterlimit:10;stroke-dasharray:none;stroke-opacity:0.7"
             d="M 236.98669,80.647543 261.04173,67.893351" />
        </g>
      </g>
      <text
         transform="scale(1,-1)"
         style="font-variant:normal;font-weight:normal;font-size:9px;font-family:'DejaVu Sans';-inkscape-font-specification:DejaVuSans;writing-mode:lr-tb;fill:#000000;fill-opacity:1;fill-rule:nonzero;stroke:none"
         id="text4169"
         x="256.08609"
         y="-232.74925">
        <tspan
           x="256.08609 262.36807 264.87009 270.38708"
           y="-232.74925"
           sodipodi:role="line"
           id="tspan4167">Clay</tspan>
      </text>
      <text
         transform="scale(1,-1)"
         style="font-variant:normal;font-weight:normal;font-size:9px;font-family:'DejaVu Sans';-inkscape-font-specification:DejaVuSans;writing-mode:lr-tb;fill:#000000;fill-opacity:1;fill-rule:nonzero;stroke:none"
         id="text4173"
         x="126.45325"
         y="-44.394329">
        <tspan
           x="126.45325 132.16826 137.68526 143.39125"
           y="-44.394329"
           sodipodi:role="line"
           id="tspan4171">Sand</tspan>
      </text>
      <text
         transform="scale(1,-1)"
         style="font-variant:normal;font-weight:normal;font-size:9px;font-family:'DejaVu Sans';-inkscape-font-specification:DejaVuSans;writing-mode:lr-tb;fill:#000000;fill-opacity:1;fill-rule:nonzero;stroke:none"
         id="text4177"
         x="380.90213"
         y="-44.394329">
        <tspan
           x="380.90213 386.61713 389.11914 391.62112"
           y="-44.394329"
           sodipodi:role="line"
           id="tspan4175">Silt</tspan>
      </text>
      <text
         transform="scale(1,-1)"
         style="font-variant:normal;font-weight:normal;font-size:8px;font-family:'DejaVu Sans';-inkscape-font-specification:DejaVuSans;writing-mode:lr-tb;fill:#808080;fill-opacity:0.8;fill-rule:nonzero;stroke:none"
         id="text4181"
         x="265.43793"
         y="-190.25722">
        <tspan
           x="265.43793"
           y="-190.25722"
           id="tspan4179">Y</tspan>
      </text>
      <text
         transform="scale(1,-1)"
         style="font-variant:normal;font-weight:normal;font-size:8px;font-family:'DejaVu Sans';-inkscape-font-specification:DejaVuSans;writing-mode:lr-tb;fill:#808080;fill-opacity:0.8;fill-rule:nonzero;stroke:none"
         id="text4185"
         x="233.36455"
         y="-139.24045">
        <tspan
           x="233.36455 238.44455"
           y="-139.24045"
           sodipodi:role="line"
           id="tspan4183">SY</tspan>
      </text>
      <text
         transform="scale(1,-1)"
         style="font-variant:normal;font-weight:normal;font-size:8px;font-family:'DejaVu Sans';-inkscape-font-specification:DejaVuSans;writing-mode:lr-tb;fill:#808080;fill-opacity:0.8;fill-rule:nonzero;stroke:none"
         id="text4189"
         x="297.51132"
         y="-139.24045">
        <tspan
           x="297.51132 302.39932"
           y="-139.24045"
           sodipodi:role="line"
           id="tspan4187">TY</tspan>
      </text>
      <text
         transform="scale(1,-1)"
         style="font-variant:normal;font-weight:normal;font-size:8px;font-family:'DejaVu Sans';-inkscape-font-specification:DejaVuSans;writing-mode:lr-tb;fill:#808080;fill-opacity:0.8;fill-rule:nonzero;stroke:none"
         id="text4193"
         x="222.67342"
         y="-122.23486">
        <tspan
           x="222.67342 227.56142"
           y="-122.23486"
           sodipodi:role="line"
           id="tspan4191">YS</tspan>
      </text>
      <text
         transform="scale(1,-1)"
         style="font-variant:normal;font-weight:normal;font-size:8px;font-family:'DejaVu Sans';-inkscape-font-specification:DejaVuSans;writing-mode:lr-tb;fill:#808080;fill-opacity:0.8;fill-rule:nonzero;stroke:none"
         id="text4197"
         x="265.43793"
         y="-110.8978">
        <tspan
           x="265.43793 270.51794 275.40594"
           y="-110.8978"
           sodipodi:role="line"
           id="tspan4195">STY</tspan>
      </text>
      <text
         transform="scale(1,-1)"
         style="font-variant:normal;font-weight:normal;font-size:8px;font-family:'DejaVu Sans';-inkscape-font-specification:DejaVuSans;writing-mode:lr-tb;fill:#808080;fill-opacity:0.8;fill-rule:nonzero;stroke:none"
         id="text4201"
         x="308.20245"
         y="-122.23486">
        <tspan
           x="308.20245 313.09045"
           y="-122.23486"
           sodipodi:role="line"
           id="tspan4199">YT</tspan>
      </text>
      <text
         transform="scale(1,-1)"
         style="font-variant:normal;font-weight:normal;font-size:8px;font-family:'DejaVu Sans';-inkscape-font-specification:DejaVuSans;writing-mode:lr-tb;fill:#808080;fill-opacity:0.8;fill-rule:nonzero;stroke:none"
         id="text4205"
         x="190.60002"
         y="-71.218094">
        <tspan
           x="190.60002"
           y="-71.218094"
           id="tspan4203">S</tspan>
      </text>
      <text
         transform="scale(1,-1)"
         style="font-variant:normal;font-weight:normal;font-size:8px;font-family:'DejaVu Sans';-inkscape-font-specification:DejaVuSans;writing-mode:lr-tb;fill:#808080;fill-opacity:0.8;fill-rule:nonzero;stroke:none"
         id="text4209"
         x="233.36455"
         y="-71.218094">
        <tspan
           x="233.36455 238.25255"
           y="-71.218094"
           sodipodi:role="line"
           id="tspan4207">TS</tspan>
      </text>
      <text
         transform="scale(1,-1)"
         style="font-variant:normal;font-weight:normal;font-size:8px;font-family:'DejaVu Sans';-inkscape-font-specification:DejaVuSans;writing-mode:lr-tb;fill:#808080;fill-opacity:0.8;fill-rule:nonzero;stroke:none"
         id="text4213"
         x="276.12906"
         y="-71.218094">
        <tspan
           x="276.12906 281.20908"
           y="-71.218094"
           sodipodi:role="line"
           id="tspan4211">ST</tspan>
      </text>
      <text
         transform="scale(1,-1)"
         style="font-variant:normal;font-weight:normal;font-size:8px;font-family:'DejaVu Sans';-inkscape-font-specification:DejaVuSans;writing-mode:lr-tb;fill:#808080;fill-opacity:0.8;fill-rule:nonzero;stroke:none"
         id="text4217"
         x="340.27585"
         y="-71.218094">
        <tspan
           x="340.27585"
           y="-71.218094"
           id="tspan4215">T</tspan>
      </text>
      <text
         transform="scale(1,-1)"
         style="font-variant:normal;font-weight:normal;font-size:8px;font-family:'DejaVu Sans';-inkscape-font-specification:DejaVuSans;writing-mode:lr-tb;fill:#808080;fill-opacity:0.8;fill-rule:nonzero;stroke:none"
         id="text4225"
         x="218.33414"
         y="-183.29962">
        <tspan
           sodipodi:role="line"
           id="tspan4223"
           x="218.33414"
           y="-183.29962">25</tspan>
      </text>
      <text
         transform="scale(1,-1)"
         style="font-variant:normal;font-weight:normal;font-size:8px;font-family:'DejaVu Sans';-inkscape-font-specification:DejaVuSans;writing-mode:lr-tb;fill:#808080;fill-opacity:0.8;fill-rule:nonzero;stroke:none"
         id="text4229"
         x="189.98758"
         y="-141.78844">
        <tspan
           sodipodi:role="line"
           id="tspan4227"
           x="189.98758"
           y="-141.78844">50</tspan>
      </text>
      <text
         transform="scale(1,-1)"
         style="font-variant:normal;font-weight:normal;font-size:8px;font-family:'DejaVu Sans';-inkscape-font-specification:DejaVuSans;writing-mode:lr-tb;fill:#808080;fill-opacity:0.8;fill-rule:nonzero;stroke:none"
         id="text4233"
         x="166.19461"
         y="-101.61655">
        <tspan
           sodipodi:role="line"
           id="tspan4231"
           x="166.19461"
           y="-101.61655">75</tspan>
      </text>
      <text
         transform="scale(1,-1)"
         style="font-variant:normal;font-weight:normal;font-size:8px;font-family:'DejaVu Sans';-inkscape-font-specification:DejaVuSans;writing-mode:lr-tb;fill:#808080;fill-opacity:0.8;fill-rule:nonzero;stroke:none"
         id="text4241"
         x="314.14163"
         y="-38.891079">
        <tspan
           x="314.14163"
           sodipodi:role="line"
           id="tspan4239"
           y="-38.891079">75</tspan>
      </text>
      <text
         transform="scale(1,-1)"
         style="font-variant:normal;font-weight:normal;font-size:8px;font-family:'DejaVu Sans';-inkscape-font-specification:DejaVuSans;writing-mode:lr-tb;fill:#808080;fill-opacity:0.8;fill-rule:nonzero;stroke:none"
         id="text4245"
         x="260.93066"
         y="-37.819653">
        <tspan
           x="260.93066"
           sodipodi:role="line"
           id="tspan4243"
           y="-37.819653">50</tspan>
      </text>
      <text
         transform="scale(1,-1)"
         style="font-variant:normal;font-weight:normal;font-size:8px;font-family:'DejaVu Sans';-inkscape-font-specification:DejaVuSans;writing-mode:lr-tb;fill:#808080;fill-opacity:0.8;fill-rule:nonzero;stroke:none"
         id="text4249"
         x="206.91615"
         y="-37.551792">
        <tspan
           sodipodi:role="line"
           id="tspan4247"
           x="206.91615"
           y="-37.551792">25</tspan>
      </text>
      <text
         transform="scale(1,-1)"
         style="font-variant:normal;font-weight:normal;font-size:8px;font-family:'DejaVu Sans';-inkscape-font-specification:DejaVuSans;writing-mode:lr-tb;fill:#808080;fill-opacity:0.8;fill-rule:nonzero;stroke:none"
         id="text4253"
         x="304.49878"
         y="-183.56079">
        <tspan
           sodipodi:role="line"
           id="tspan4251"
           x="304.49878"
           y="-183.56079">75</tspan>
      </text>
      <text
         transform="scale(1,-1)"
         style="font-variant:normal;font-weight:normal;font-size:8px;font-family:'DejaVu Sans';-inkscape-font-specification:DejaVuSans;writing-mode:lr-tb;fill:#808080;fill-opacity:0.8;fill-rule:nonzero;stroke:none"
         id="text4257"
         x="331.7739"
         y="-141.78177">
        <tspan
           sodipodi:role="line"
           id="tspan4255"
           x="331.7739"
           y="-141.78177">50</tspan>
      </text>
      <text
         transform="scale(1,-1)"
         style="font-variant:normal;font-weight:normal;font-size:8px;font-family:'DejaVu Sans';-inkscape-font-specification:DejaVuSans;writing-mode:lr-tb;fill:#808080;fill-opacity:0.8;fill-rule:nonzero;stroke:none"
         id="text4261"
         x="355.83472"
         y="-102.94916">
        <tspan
           sodipodi:role="line"
           id="tspan4259"
           x="355.83472"
           y="-102.94916">25</tspan>
      </text>
    </g>
  </g>
</svg>
