<?xml version="1.0" encoding="utf-8"?>
<!-- Generator: Adobe Illustrator 16.0.4, SVG Export Plug-In . SVG Version: 6.00 Build 0)  -->
<!DOCTYPE svg PUBLIC "-//W3C//DTD SVG 1.1//EN" "http://www.w3.org/Graphics/SVG/1.1/DTD/svg11.dtd">
<svg version="1.1" id="图层_1" xmlns="http://www.w3.org/2000/svg" xmlns:xlink="http://www.w3.org/1999/xlink" x="0px" y="0px"
	 width="305.818px" height="266.497px" viewBox="0 0 305.818 266.497" enable-background="new 0 0 305.818 266.497"
	 xml:space="preserve">
<polygon fill-rule="evenodd" clip-rule="evenodd" fill="none" stroke="#000000" stroke-width="0.4989" stroke-miterlimit="2.4142" points="
	0.432,266.014 305.389,266.014 153.923,0.501 0.432,266.014 "/>
<line fill="none" stroke="#000000" stroke-width="0.3968" stroke-miterlimit="2.4142" x1="31.602" y1="260.432" x2="31.602" y2="266.368"/>
<line fill="none" stroke="#000000" stroke-width="0.3968" stroke-miterlimit="2.4142" x1="61.912" y1="260.559" x2="61.912" y2="266.497"/>
<line fill="none" stroke="#000000" stroke-width="0.3968" stroke-miterlimit="2.4142" x1="91.585" y1="260.303" x2="91.585" y2="266.241"/>
<line fill="none" stroke="#000000" stroke-width="0.3968" stroke-miterlimit="2.4142" x1="122.151" y1="260.303" x2="122.151" y2="266.241"/>
<line fill="none" stroke="#000000" stroke-width="0.3968" stroke-miterlimit="2.4142" x1="152.717" y1="260.303" x2="152.717" y2="266.241"/>
<line fill="none" stroke="#000000" stroke-width="0.3968" stroke-miterlimit="2.4142" x1="183.283" y1="260.303" x2="183.283" y2="266.241"/>
<line fill="none" stroke="#000000" stroke-width="0.3968" stroke-miterlimit="2.4142" x1="213.85" y1="260.303" x2="213.85" y2="266.241"/>
<line fill="none" stroke="#000000" stroke-width="0.3968" stroke-miterlimit="2.4142" x1="244.416" y1="260.303" x2="244.416" y2="266.241"/>
<line fill="none" stroke="#000000" stroke-width="0.3968" stroke-miterlimit="2.4142" x1="274.982" y1="260.303" x2="274.982" y2="266.241"/>
<line fill="none" stroke="#000000" stroke-width="0.3968" stroke-miterlimit="2.4142" x1="286.361" y1="243.37" x2="289.48" y2="238.518"/>
<line fill="none" stroke="#000000" stroke-width="0.3968" stroke-miterlimit="2.4142" x1="271.661" y1="217.192" x2="274.78" y2="212.34"/>
<line fill="none" stroke="#000000" stroke-width="0.3968" stroke-miterlimit="2.4142" x1="256.738" y1="191.122" x2="259.857" y2="186.268"/>
<line fill="none" stroke="#000000" stroke-width="0.3968" stroke-miterlimit="2.4142" x1="241.559" y1="164.027" x2="244.678" y2="159.175"/>
<line fill="none" stroke="#000000" stroke-width="0.3968" stroke-miterlimit="2.4142" x1="226.173" y1="136.934" x2="229.292" y2="132.081"/>
<line fill="none" stroke="#000000" stroke-width="0.3968" stroke-miterlimit="2.4142" x1="210.994" y1="110.649" x2="214.113" y2="105.796"/>
<line fill="none" stroke="#000000" stroke-width="0.3968" stroke-miterlimit="2.4142" x1="203.301" y1="97.304" x2="206.42" y2="92.452"/>
<line fill="none" stroke="#000000" stroke-width="0.3968" stroke-miterlimit="2.4142" x1="195.607" y1="83.96" x2="198.727" y2="79.106"/>
<line fill="none" stroke="#000000" stroke-width="0.3968" stroke-miterlimit="2.4142" x1="180.637" y1="57.876" x2="183.756" y2="53.024"/>
<line fill="none" stroke="#000000" stroke-width="0.3968" stroke-miterlimit="2.4142" x1="165.283" y1="30.75" x2="168.402" y2="25.897"/>
<line fill="none" stroke="#000000" stroke-width="0.3968" stroke-miterlimit="2.4142" x1="138.844" y1="26.334" x2="141.547" y2="30.984"/>
<line fill="none" stroke="#000000" stroke-width="0.3968" stroke-miterlimit="2.4142" x1="107.863" y1="80.117" x2="110.566" y2="84.769"/>
<line fill="none" stroke="#000000" stroke-width="0.3968" stroke-miterlimit="2.4142" x1="123.458" y1="54.035" x2="126.161" y2="58.686"/>
<line fill="none" stroke="#000000" stroke-width="0.3968" stroke-miterlimit="2.4142" x1="93.101" y1="106.808" x2="95.804" y2="111.458"/>
<line fill="none" stroke="#000000" stroke-width="0.3968" stroke-miterlimit="2.4142" x1="77.298" y1="132.89" x2="80.001" y2="137.54"/>
<line fill="none" stroke="#000000" stroke-width="0.3968" stroke-miterlimit="2.4142" x1="62.327" y1="160.591" x2="65.031" y2="165.241"/>
<line fill="none" stroke="#000000" stroke-width="0.3968" stroke-miterlimit="2.4142" x1="46.525" y1="186.875" x2="49.228" y2="191.526"/>
<line fill="none" stroke="#000000" stroke-width="0.3968" stroke-miterlimit="2.4142" x1="31.521" y1="212.85" x2="34.225" y2="217.5"/>
<line fill="none" stroke="#000000" stroke-width="0.3968" stroke-miterlimit="2.4142" x1="16.646" y1="239.413" x2="19.349" y2="244.063"/>
<text transform="matrix(1.0284 0 0 1 12.1934 255.0444)"><tspan x="0" y="0" stroke="#000000" stroke-width="0.0567" stroke-miterlimit="2.4142" font-family="'TimesNewRomanPSMT'" font-size="7.7306">H</tspan><tspan x="5.958" y="0" stroke="#000000" stroke-width="0.0567" stroke-miterlimit="2.4142" font-family="'TimesNewRomanPSMT'" font-size="7.7306">f</tspan></text>
<text transform="matrix(1.0284 0 0 1 266.7676 255.0444)"><tspan x="0" y="0" stroke="#000000" stroke-width="0.0567" stroke-miterlimit="2.4142" font-family="'TimesNewRomanPSMT'" font-size="7.7306">T</tspan><tspan x="5.098" y="0" stroke="#000000" stroke-width="0.0567" stroke-miterlimit="2.4142" font-family="'TimesNewRomanPSMT'" font-size="7.7306">a  x  3</tspan></text>
<text transform="matrix(1.0284 0 0 1 117.8359 10.0127)"><tspan x="0" y="0" stroke="#000000" stroke-width="0.0567" stroke-miterlimit="2.4142" font-family="'TimesNewRomanPSMT'" font-size="7.7306">Rb/3</tspan><tspan x="16.538" y="0" stroke="#000000" stroke-width="0.0567" stroke-miterlimit="2.4142" font-family="'TimesNewRomanPSMT'" font-size="7.7306">0</tspan></text>
<line fill="none" stroke="#000000" stroke-width="0.3968" stroke-miterlimit="2.4142" x1="154.542" y1="12.438" x2="157.662" y2="7.587"/>
<line fill="none" stroke="#000000" stroke-width="0.3968" stroke-miterlimit="2.4142" x1="157.606" y1="17.425" x2="160.725" y2="12.572"/>
<line fill="none" stroke="#000000" stroke-width="0.3968" stroke-miterlimit="2.4142" x1="184.977" y1="65.419" x2="188.096" y2="60.566"/>
<line fill="none" stroke="#000000" stroke-width="0.3968" stroke-miterlimit="2.4142" x1="233.574" y1="150.356" x2="236.693" y2="145.505"/>
<line fill="none" stroke="#000000" stroke-width="0.3968" stroke-miterlimit="2.4142" x1="127.511" y1="260.303" x2="127.511" y2="266.241"/>
<line fill="none" stroke="#000000" stroke-width="0.3968" stroke-miterlimit="2.4142" x1="135.041" y1="260.303" x2="135.041" y2="266.241"/>
<line fill="none" stroke="#000000" stroke-width="0.3968" stroke-miterlimit="2.4142" x1="64.848" y1="260.176" x2="64.848" y2="266.112"/>
<line fill="none" stroke="#000000" stroke-width="0.3968" stroke-miterlimit="2.4142" x1="38.03" y1="201.729" x2="40.733" y2="206.379"/>
<line fill="none" stroke="#000000" stroke-width="0.3968" stroke-miterlimit="2.4142" x1="100.437" y1="93.577" x2="103.14" y2="98.228"/>
<text transform="matrix(1.0284 0 0 1 158.3408 6.6641)"><tspan x="0" y="0" stroke="#000000" stroke-width="0.0567" stroke-miterlimit="2.4142" font-family="'TimesNewRomanPSMT'" font-size="6.9999">97.</tspan><tspan x="9.771" y="0" stroke="#000000" stroke-width="0.0567" stroke-miterlimit="2.4142" font-family="'TimesNewRomanPSMT'" font-size="6.9999">5</tspan></text>
<text transform="matrix(1.0284 0 0 1 162.4551 13.6904)"><tspan x="0" y="0" stroke="#000000" stroke-width="0.0567" stroke-miterlimit="2.4142" font-family="'TimesNewRomanPSMT'" font-size="6.9999">9</tspan><tspan x="3.84" y="0" stroke="#000000" stroke-width="0.0567" stroke-miterlimit="2.4142" font-family="'TimesNewRomanPSMT'" font-size="6.9999">5</tspan></text>
<text transform="matrix(1.0284 0 0 1 190.1768 60.4409)"><tspan x="0" y="0" stroke="#000000" stroke-width="0.0567" stroke-miterlimit="2.4142" font-family="'TimesNewRomanPSMT'" font-size="6.9999">7</tspan><tspan x="3.84" y="0" stroke="#000000" stroke-width="0.0567" stroke-miterlimit="2.4142" font-family="'TimesNewRomanPSMT'" font-size="6.9999">7</tspan></text>
<text transform="matrix(1.0284 0 0 1 206.7441 90.5947)"><tspan x="0" y="0" stroke="#000000" stroke-width="0.0567" stroke-miterlimit="2.4142" font-family="'TimesNewRomanPSMT'" font-size="6.9999">6</tspan><tspan x="3.84" y="0" stroke="#000000" stroke-width="0.0567" stroke-miterlimit="2.4142" font-family="'TimesNewRomanPSMT'" font-size="6.9999">5</tspan></text>
<text transform="matrix(1.0284 0 0 1 237.4971 143.249)"><tspan x="0" y="0" stroke="#000000" stroke-width="0.0567" stroke-miterlimit="2.4142" font-family="'TimesNewRomanPSMT'" font-size="6.9999">4</tspan><tspan x="3.84" y="0" stroke="#000000" stroke-width="0.0567" stroke-miterlimit="2.4142" font-family="'TimesNewRomanPSMT'" font-size="6.9999">5</tspan></text>
<text transform="matrix(1.0284 0 0 1 260.1289 182.6362)"><tspan x="0" y="0" stroke="#000000" stroke-width="0.0567" stroke-miterlimit="2.4142" font-family="'TimesNewRomanPSMT'" font-size="6.9999">3</tspan><tspan x="3.84" y="0" stroke="#000000" stroke-width="0.0567" stroke-miterlimit="2.4142" font-family="'TimesNewRomanPSMT'" font-size="6.9999">0</tspan></text>
<text transform="matrix(1.0284 0 0 1 276.5879 211.272)"><tspan x="0" y="0" stroke="#000000" stroke-width="0.0567" stroke-miterlimit="2.4142" font-family="'TimesNewRomanPSMT'" font-size="6.9999">2</tspan><tspan x="3.84" y="0" stroke="#000000" stroke-width="0.0567" stroke-miterlimit="2.4142" font-family="'TimesNewRomanPSMT'" font-size="6.9999">0</tspan></text>
<text transform="matrix(1.0284 0 0 1 63.1616 255.8638)"><tspan x="0" y="0" stroke="#000000" stroke-width="0.0567" stroke-miterlimit="2.4142" font-family="'TimesNewRomanPSMT'" font-size="6.9999">2</tspan><tspan x="3.84" y="0" stroke="#000000" stroke-width="0.0567" stroke-miterlimit="2.4142" font-family="'TimesNewRomanPSMT'" font-size="6.9999">1</tspan></text>
<text transform="matrix(1.0284 0 0 1 117.8359 256.0337)"><tspan x="0" y="0" stroke="#000000" stroke-width="0.0567" stroke-miterlimit="2.4142" font-family="'TimesNewRomanPSMT'" font-size="6.9999">41.</tspan><tspan x="9.771" y="0" stroke="#000000" stroke-width="0.0567" stroke-miterlimit="2.4142" font-family="'TimesNewRomanPSMT'" font-size="6.9999">5</tspan></text>
<text transform="matrix(1.0284 0 0 1 133.7969 255.6938)"><tspan x="0" y="0" stroke="#000000" stroke-width="0.0567" stroke-miterlimit="2.4142" font-family="'TimesNewRomanPSMT'" font-size="6.9999">4</tspan><tspan x="3.84" y="0" stroke="#000000" stroke-width="0.0567" stroke-miterlimit="2.4142" font-family="'TimesNewRomanPSMT'" font-size="6.9999">4</tspan></text>
<text transform="matrix(1.0284 0 0 1 29.269 200.7466)"><tspan x="0" y="0" stroke="#000000" stroke-width="0.0567" stroke-miterlimit="2.4142" font-family="'TimesNewRomanPSMT'" font-size="6.9999">2</tspan><tspan x="3.84" y="0" stroke="#000000" stroke-width="0.0567" stroke-miterlimit="2.4142" font-family="'TimesNewRomanPSMT'" font-size="6.9999">7</tspan></text>
<text transform="matrix(1.0284 0 0 1 83.5488 104.6733)"><tspan x="0" y="0" stroke="#000000" stroke-width="0.0567" stroke-miterlimit="2.4142" font-family="'TimesNewRomanPSMT'" font-size="6.9999">6</tspan><tspan x="3.84" y="0" stroke="#000000" stroke-width="0.0567" stroke-miterlimit="2.4142" font-family="'TimesNewRomanPSMT'" font-size="6.9999">0</tspan></text>
<text transform="matrix(1.0284 0 0 1 91.7031 91.4219)"><tspan x="0" y="0" stroke="#000000" stroke-width="0.0567" stroke-miterlimit="2.4142" font-family="'TimesNewRomanPSMT'" font-size="6.9999">6</tspan><tspan x="3.84" y="0" stroke="#000000" stroke-width="0.0567" stroke-miterlimit="2.4142" font-family="'TimesNewRomanPSMT'" font-size="6.9999">5</tspan></text>
<polyline fill-rule="evenodd" clip-rule="evenodd" fill="none" stroke="#000000" stroke-width="0.4989" stroke-miterlimit="2.4142" points="
	187.803,60.566 153.577,72.414 139.096,206.249 274.686,211.514 "/>
<path fill-rule="evenodd" clip-rule="evenodd" fill="none" stroke="#000000" stroke-width="0.4989" stroke-miterlimit="2.4142" d="
	M140.413,194.401c-17.991,8.338-23.256,10.971-36.421,23.258c-13.164,12.285-21.062,22.816-25.012,28.082"/>
<text transform="matrix(1.0284 0 0 1 169.5186 233.2065)"><tspan x="0" y="0" stroke="#000000" stroke-width="0.0567" stroke-miterlimit="2.4142" font-family="'TimesNewRomanPSMT'" font-size="7.7306">Within-plat</tspan><tspan x="39.771" y="0" stroke="#000000" stroke-width="0.0567" stroke-miterlimit="2.4142" font-family="'TimesNewRomanPSMT'" font-size="7.7306">e</tspan></text>
<text transform="matrix(1.0284 0 0 1 160.5127 178.6724)"><tspan x="0" y="0" stroke="#000000" stroke-width="0.0567" stroke-miterlimit="2.4142" font-family="'TimesNewRomanPSMT'" font-size="7.7306">Lat</tspan><tspan x="11.429" y="0" stroke="#000000" stroke-width="0.0567" stroke-miterlimit="2.4142" font-family="'TimesNewRomanPSMT'" font-size="7.7306">e </tspan><tspan x="16.792" y="0" stroke="#000000" stroke-width="0.0567" stroke-miterlimit="2.4142" font-family="'TimesNewRomanPSMT'" font-size="7.7306">an</tspan><tspan x="24.841" y="0" stroke="#000000" stroke-width="0.0567" stroke-miterlimit="2.4142" font-family="'TimesNewRomanPSMT'" font-size="7.7306">d </tspan><tspan x="30.639" y="0" stroke="#000000" stroke-width="0.0567" stroke-miterlimit="2.4142" font-family="'TimesNewRomanPSMT'" font-size="7.7306">post</tspan><tspan x="45.03" y="0" stroke="#000000" stroke-width="0.0567" stroke-miterlimit="2.4142" font-family="'TimesNewRomanPSMT'" font-size="7.7306">-</tspan><tspan x="0" y="7.73" stroke="#000000" stroke-width="0.0567" stroke-miterlimit="2.4142" font-family="'TimesNewRomanPSMT'" font-size="7.7306">collisiona</tspan><tspan x="33.817" y="7.73" stroke="#000000" stroke-width="0.0567" stroke-miterlimit="2.4142" font-family="'TimesNewRomanPSMT'" font-size="7.7306">l</tspan></text>
<text transform="matrix(1.0284 0 0 1 163.5146 113.6313)"><tspan x="0" y="0" stroke="#000000" stroke-width="0.0567" stroke-miterlimit="2.4142" font-family="'TimesNewRomanPSMT'" font-size="7.7306">Syn</tspan><tspan x="13.157" y="0" stroke="#000000" stroke-width="0.0567" stroke-miterlimit="2.4142" font-family="'TimesNewRomanPSMT'" font-size="7.7306">-</tspan><tspan x="0" y="7.73" stroke="#000000" stroke-width="0.0567" stroke-miterlimit="2.4142" font-family="'TimesNewRomanPSMT'" font-size="7.7306">collisiona</tspan><tspan x="33.817" y="7.73" stroke="#000000" stroke-width="0.0567" stroke-miterlimit="2.4142" font-family="'TimesNewRomanPSMT'" font-size="7.7306">l</tspan></text>
<text transform="matrix(1.0284 0 0 1 99.9746 179.1724)"><tspan x="0" y="0" stroke="#000000" stroke-width="0.0567" stroke-miterlimit="2.4142" font-family="'TimesNewRomanPSMT'" font-size="7.7306">Volcanic</tspan><tspan x="30.91" y="0" stroke="#000000" stroke-width="0.0567" stroke-miterlimit="2.4142" font-family="'TimesNewRomanPSMT'" font-size="7.7306">-</tspan><tspan x="0" y="7.73" stroke="#000000" stroke-width="0.0567" stroke-miterlimit="2.4142" font-family="'TimesNewRomanPSMT'" font-size="7.7306">ar</tspan><tspan x="6.757" y="7.73" stroke="#000000" stroke-width="0.0567" stroke-miterlimit="2.4142" font-family="'TimesNewRomanPSMT'" font-size="7.7306">c</tspan></text>
</svg>
