<?xml version="1.0" encoding="utf-8" standalone="no"?>
<!DOCTYPE svg PUBLIC "-//W3C//DTD SVG 1.1//EN"
  "http://www.w3.org/Graphics/SVG/1.1/DTD/svg11.dtd">
<!-- Created with matplotlib (http://matplotlib.org/) -->
<svg height="300pt" version="1.1" viewBox="0 0 593 300" width="593pt" xmlns="http://www.w3.org/2000/svg" xmlns:xlink="http://www.w3.org/1999/xlink">
 <defs>
  <style type="text/css">
*{stroke-linecap:butt;stroke-linejoin:round;}
  </style>
 </defs>
 <g id="figure_1">
  <g id="patch_1">
   <path d="M 0 300.690125 
L 593.433125 300.690125 
L 593.433125 0 
L 0 0 
z
" style="fill:#ffffff;"/>
  </g>
  <g id="axes_1">
   <g id="patch_2">
    <path d="M 55.553125 276.812 
L 412.673125 276.812 
L 412.673125 10.7 
L 55.553125 10.7 
z
" style="fill:#ffffff;"/>
   </g>
   <g id="patch_3">
    <path clip-path="url(#p028b9c46d2)" d="M 55.553125 272.06 
L 56.913582 272.06 
L 56.913582 262.556 
L 55.553125 262.556 
z
" style="fill:#1f77b4;"/>
   </g>
   <g id="patch_4">
    <path clip-path="url(#p028b9c46d2)" d="M 55.553125 253.052 
L 56.573468 253.052 
L 56.573468 243.548 
L 55.553125 243.548 
z
" style="fill:#1f77b4;"/>
   </g>
   <g id="patch_5">
    <path clip-path="url(#p028b9c46d2)" d="M 55.553125 234.044 
L 56.573468 234.044 
L 56.573468 224.54 
L 55.553125 224.54 
z
" style="fill:#1f77b4;"/>
   </g>
   <g id="patch_6">
    <path clip-path="url(#p028b9c46d2)" d="M 55.553125 215.036 
L 56.913582 215.036 
L 56.913582 205.532 
L 55.553125 205.532 
z
" style="fill:#1f77b4;"/>
   </g>
   <g id="patch_7">
    <path clip-path="url(#p028b9c46d2)" d="M 55.553125 196.028 
L 56.573468 196.028 
L 56.573468 186.524 
L 55.553125 186.524 
z
" style="fill:#1f77b4;"/>
   </g>
   <g id="patch_8">
    <path clip-path="url(#p028b9c46d2)" d="M 55.553125 177.02 
L 57.933925 177.02 
L 57.933925 167.516 
L 55.553125 167.516 
z
" style="fill:#1f77b4;"/>
   </g>
   <g id="patch_9">
    <path clip-path="url(#p028b9c46d2)" d="M 55.553125 158.012 
L 56.233354 158.012 
L 56.233354 148.508 
L 55.553125 148.508 
z
" style="fill:#1f77b4;"/>
   </g>
   <g id="patch_10">
    <path clip-path="url(#p028b9c46d2)" d="M 55.553125 139.004 
L 56.233354 139.004 
L 56.233354 129.5 
L 55.553125 129.5 
z
" style="fill:#1f77b4;"/>
   </g>
   <g id="patch_11">
    <path clip-path="url(#p028b9c46d2)" d="M 55.553125 119.996 
L 56.233354 119.996 
L 56.233354 110.492 
L 55.553125 110.492 
z
" style="fill:#1f77b4;"/>
   </g>
   <g id="patch_12">
    <path clip-path="url(#p028b9c46d2)" d="M 55.553125 100.988 
L 55.553125 100.988 
L 55.553125 91.484 
L 55.553125 91.484 
z
" style="fill:#1f77b4;"/>
   </g>
   <g id="patch_13">
    <path clip-path="url(#p028b9c46d2)" d="M 55.553125 81.98 
L 57.253696 81.98 
L 57.253696 72.476 
L 55.553125 72.476 
z
" style="fill:#1f77b4;"/>
   </g>
   <g id="patch_14">
    <path clip-path="url(#p028b9c46d2)" d="M 55.553125 62.972 
L 58.954268 62.972 
L 58.954268 53.468 
L 55.553125 53.468 
z
" style="fill:#1f77b4;"/>
   </g>
   <g id="patch_15">
    <path clip-path="url(#p028b9c46d2)" d="M 55.553125 43.964 
L 55.553125 43.964 
L 55.553125 34.46 
L 55.553125 34.46 
z
" style="fill:#1f77b4;"/>
   </g>
   <g id="patch_16">
    <path clip-path="url(#p028b9c46d2)" d="M 55.553125 24.956 
L 56.233354 24.956 
L 56.233354 15.452 
L 55.553125 15.452 
z
" style="fill:#1f77b4;"/>
   </g>
   <g id="patch_17">
    <path clip-path="url(#p028b9c46d2)" d="M 56.913582 272.06 
L 76.640211 272.06 
L 76.640211 262.556 
L 56.913582 262.556 
z
" style="fill:#ff7f0e;"/>
   </g>
   <g id="patch_18">
    <path clip-path="url(#p028b9c46d2)" d="M 56.573468 253.052 
L 67.797239 253.052 
L 67.797239 243.548 
L 56.573468 243.548 
z
" style="fill:#ff7f0e;"/>
   </g>
   <g id="patch_19">
    <path clip-path="url(#p028b9c46d2)" d="M 56.573468 234.044 
L 60.654839 234.044 
L 60.654839 224.54 
L 56.573468 224.54 
z
" style="fill:#ff7f0e;"/>
   </g>
   <g id="patch_20">
    <path clip-path="url(#p028b9c46d2)" d="M 56.913582 215.036 
L 63.035639 215.036 
L 63.035639 205.532 
L 56.913582 205.532 
z
" style="fill:#ff7f0e;"/>
   </g>
   <g id="patch_21">
    <path clip-path="url(#p028b9c46d2)" d="M 56.573468 196.028 
L 70.858268 196.028 
L 70.858268 186.524 
L 56.573468 186.524 
z
" style="fill:#ff7f0e;"/>
   </g>
   <g id="patch_22">
    <path clip-path="url(#p028b9c46d2)" d="M 57.933925 177.02 
L 75.279754 177.02 
L 75.279754 167.516 
L 57.933925 167.516 
z
" style="fill:#ff7f0e;"/>
   </g>
   <g id="patch_23">
    <path clip-path="url(#p028b9c46d2)" d="M 56.233354 158.012 
L 73.919296 158.012 
L 73.919296 148.508 
L 56.233354 148.508 
z
" style="fill:#ff7f0e;"/>
   </g>
   <g id="patch_24">
    <path clip-path="url(#p028b9c46d2)" d="M 56.233354 139.004 
L 65.416439 139.004 
L 65.416439 129.5 
L 56.233354 129.5 
z
" style="fill:#ff7f0e;"/>
   </g>
   <g id="patch_25">
    <path clip-path="url(#p028b9c46d2)" d="M 56.233354 119.996 
L 73.919296 119.996 
L 73.919296 110.492 
L 56.233354 110.492 
z
" style="fill:#ff7f0e;"/>
   </g>
   <g id="patch_26">
    <path clip-path="url(#p028b9c46d2)" d="M 55.553125 100.988 
L 99.427868 100.988 
L 99.427868 91.484 
L 55.553125 91.484 
z
" style="fill:#ff7f0e;"/>
   </g>
   <g id="patch_27">
    <path clip-path="url(#p028b9c46d2)" d="M 57.253696 81.98 
L 82.082039 81.98 
L 82.082039 72.476 
L 57.253696 72.476 
z
" style="fill:#ff7f0e;"/>
   </g>
   <g id="patch_28">
    <path clip-path="url(#p028b9c46d2)" d="M 58.954268 62.972 
L 88.544211 62.972 
L 88.544211 53.468 
L 58.954268 53.468 
z
" style="fill:#ff7f0e;"/>
   </g>
   <g id="patch_29">
    <path clip-path="url(#p028b9c46d2)" d="M 55.553125 43.964 
L 108.610954 43.964 
L 108.610954 34.46 
L 55.553125 34.46 
z
" style="fill:#ff7f0e;"/>
   </g>
   <g id="patch_30">
    <path clip-path="url(#p028b9c46d2)" d="M 56.233354 24.956 
L 82.762268 24.956 
L 82.762268 15.452 
L 56.233354 15.452 
z
" style="fill:#ff7f0e;"/>
   </g>
   <g id="patch_31">
    <path clip-path="url(#p028b9c46d2)" d="M 76.640211 272.06 
L 106.230154 272.06 
L 106.230154 262.556 
L 76.640211 262.556 
z
" style="fill:#2ca02c;"/>
   </g>
   <g id="patch_32">
    <path clip-path="url(#p028b9c46d2)" d="M 67.797239 253.052 
L 87.863982 253.052 
L 87.863982 243.548 
L 67.797239 243.548 
z
" style="fill:#2ca02c;"/>
   </g>
   <g id="patch_33">
    <path clip-path="url(#p028b9c46d2)" d="M 60.654839 234.044 
L 83.442496 234.044 
L 83.442496 224.54 
L 60.654839 224.54 
z
" style="fill:#2ca02c;"/>
   </g>
   <g id="patch_34">
    <path clip-path="url(#p028b9c46d2)" d="M 63.035639 215.036 
L 109.631296 215.036 
L 109.631296 205.532 
L 63.035639 205.532 
z
" style="fill:#2ca02c;"/>
   </g>
   <g id="patch_35">
    <path clip-path="url(#p028b9c46d2)" d="M 70.858268 196.028 
L 124.936439 196.028 
L 124.936439 186.524 
L 70.858268 186.524 
z
" style="fill:#2ca02c;"/>
   </g>
   <g id="patch_36">
    <path clip-path="url(#p028b9c46d2)" d="M 75.279754 177.02 
L 152.485696 177.02 
L 152.485696 167.516 
L 75.279754 167.516 
z
" style="fill:#2ca02c;"/>
   </g>
   <g id="patch_37">
    <path clip-path="url(#p028b9c46d2)" d="M 73.919296 158.012 
L 80.721582 158.012 
L 80.721582 148.508 
L 73.919296 148.508 
z
" style="fill:#2ca02c;"/>
   </g>
   <g id="patch_38">
    <path clip-path="url(#p028b9c46d2)" d="M 65.416439 139.004 
L 73.919296 139.004 
L 73.919296 129.5 
L 65.416439 129.5 
z
" style="fill:#2ca02c;"/>
   </g>
   <g id="patch_39">
    <path clip-path="url(#p028b9c46d2)" d="M 73.919296 119.996 
L 83.102382 119.996 
L 83.102382 110.492 
L 73.919296 110.492 
z
" style="fill:#2ca02c;"/>
   </g>
   <g id="patch_40">
    <path clip-path="url(#p028b9c46d2)" d="M 99.427868 100.988 
L 100.448211 100.988 
L 100.448211 91.484 
L 99.427868 91.484 
z
" style="fill:#2ca02c;"/>
   </g>
   <g id="patch_41">
    <path clip-path="url(#p028b9c46d2)" d="M 82.082039 81.98 
L 148.744439 81.98 
L 148.744439 72.476 
L 82.082039 72.476 
z
" style="fill:#2ca02c;"/>
   </g>
   <g id="patch_42">
    <path clip-path="url(#p028b9c46d2)" d="M 88.544211 62.972 
L 145.683411 62.972 
L 145.683411 53.468 
L 88.544211 53.468 
z
" style="fill:#2ca02c;"/>
   </g>
   <g id="patch_43">
    <path clip-path="url(#p028b9c46d2)" d="M 108.610954 43.964 
L 177.654154 43.964 
L 177.654154 34.46 
L 108.610954 34.46 
z
" style="fill:#2ca02c;"/>
   </g>
   <g id="patch_44">
    <path clip-path="url(#p028b9c46d2)" d="M 82.762268 24.956 
L 139.221239 24.956 
L 139.221239 15.452 
L 82.762268 15.452 
z
" style="fill:#2ca02c;"/>
   </g>
   <g id="patch_45">
    <path clip-path="url(#p028b9c46d2)" d="M 106.230154 272.06 
L 130.038154 272.06 
L 130.038154 262.556 
L 106.230154 262.556 
z
" style="fill:#d62728;"/>
   </g>
   <g id="patch_46">
    <path clip-path="url(#p028b9c46d2)" d="M 87.863982 253.052 
L 100.788325 253.052 
L 100.788325 243.548 
L 87.863982 243.548 
z
" style="fill:#d62728;"/>
   </g>
   <g id="patch_47">
    <path clip-path="url(#p028b9c46d2)" d="M 83.442496 234.044 
L 110.651639 234.044 
L 110.651639 224.54 
L 83.442496 224.54 
z
" style="fill:#d62728;"/>
   </g>
   <g id="patch_48">
    <path clip-path="url(#p028b9c46d2)" d="M 109.631296 215.036 
L 140.921811 215.036 
L 140.921811 205.532 
L 109.631296 205.532 
z
" style="fill:#d62728;"/>
   </g>
   <g id="patch_49">
    <path clip-path="url(#p028b9c46d2)" d="M 124.936439 196.028 
L 192.619182 196.028 
L 192.619182 186.524 
L 124.936439 186.524 
z
" style="fill:#d62728;"/>
   </g>
   <g id="patch_50">
    <path clip-path="url(#p028b9c46d2)" d="M 152.485696 177.02 
L 188.197696 177.02 
L 188.197696 167.516 
L 152.485696 167.516 
z
" style="fill:#d62728;"/>
   </g>
   <g id="patch_51">
    <path clip-path="url(#p028b9c46d2)" d="M 80.721582 158.012 
L 119.154496 158.012 
L 119.154496 148.508 
L 80.721582 148.508 
z
" style="fill:#d62728;"/>
   </g>
   <g id="patch_52">
    <path clip-path="url(#p028b9c46d2)" d="M 73.919296 139.004 
L 110.651639 139.004 
L 110.651639 129.5 
L 73.919296 129.5 
z
" style="fill:#d62728;"/>
   </g>
   <g id="patch_53">
    <path clip-path="url(#p028b9c46d2)" d="M 83.102382 119.996 
L 95.346496 119.996 
L 95.346496 110.492 
L 83.102382 110.492 
z
" style="fill:#d62728;"/>
   </g>
   <g id="patch_54">
    <path clip-path="url(#p028b9c46d2)" d="M 100.448211 100.988 
L 107.590611 100.988 
L 107.590611 91.484 
L 100.448211 91.484 
z
" style="fill:#d62728;"/>
   </g>
   <g id="patch_55">
    <path clip-path="url(#p028b9c46d2)" d="M 148.744439 81.98 
L 196.020325 81.98 
L 196.020325 72.476 
L 148.744439 72.476 
z
" style="fill:#d62728;"/>
   </g>
   <g id="patch_56">
    <path clip-path="url(#p028b9c46d2)" d="M 145.683411 62.972 
L 178.674496 62.972 
L 178.674496 53.468 
L 145.683411 53.468 
z
" style="fill:#d62728;"/>
   </g>
   <g id="patch_57">
    <path clip-path="url(#p028b9c46d2)" d="M 177.654154 43.964 
L 234.793354 43.964 
L 234.793354 34.46 
L 177.654154 34.46 
z
" style="fill:#d62728;"/>
   </g>
   <g id="patch_58">
    <path clip-path="url(#p028b9c46d2)" d="M 139.221239 24.956 
L 215.066725 24.956 
L 215.066725 15.452 
L 139.221239 15.452 
z
" style="fill:#d62728;"/>
   </g>
   <g id="patch_59">
    <path clip-path="url(#p028b9c46d2)" d="M 130.038154 272.06 
L 259.621696 272.06 
L 259.621696 262.556 
L 130.038154 262.556 
z
" style="fill:#9467bd;"/>
   </g>
   <g id="patch_60">
    <path clip-path="url(#p028b9c46d2)" d="M 100.788325 253.052 
L 288.531411 253.052 
L 288.531411 243.548 
L 100.788325 243.548 
z
" style="fill:#9467bd;"/>
   </g>
   <g id="patch_61">
    <path clip-path="url(#p028b9c46d2)" d="M 110.651639 234.044 
L 116.433582 234.044 
L 116.433582 224.54 
L 110.651639 224.54 
z
" style="fill:#9467bd;"/>
   </g>
   <g id="patch_62">
    <path clip-path="url(#p028b9c46d2)" d="M 140.921811 215.036 
L 152.145582 215.036 
L 152.145582 205.532 
L 140.921811 205.532 
z
" style="fill:#9467bd;"/>
   </g>
   <g id="patch_63">
    <path clip-path="url(#p028b9c46d2)" d="M 192.619182 196.028 
L 208.604554 196.028 
L 208.604554 186.524 
L 192.619182 186.524 
z
" style="fill:#9467bd;"/>
   </g>
   <g id="patch_64">
    <path clip-path="url(#p028b9c46d2)" d="M 188.197696 177.02 
L 216.427182 177.02 
L 216.427182 167.516 
L 188.197696 167.516 
z
" style="fill:#9467bd;"/>
   </g>
   <g id="patch_65">
    <path clip-path="url(#p028b9c46d2)" d="M 119.154496 158.012 
L 122.555639 158.012 
L 122.555639 148.508 
L 119.154496 148.508 
z
" style="fill:#9467bd;"/>
   </g>
   <g id="patch_66">
    <path clip-path="url(#p028b9c46d2)" d="M 110.651639 139.004 
L 118.134154 139.004 
L 118.134154 129.5 
L 110.651639 129.5 
z
" style="fill:#9467bd;"/>
   </g>
   <g id="patch_67">
    <path clip-path="url(#p028b9c46d2)" d="M 95.346496 119.996 
L 96.706954 119.996 
L 96.706954 110.492 
L 95.346496 110.492 
z
" style="fill:#9467bd;"/>
   </g>
   <g id="patch_68">
    <path clip-path="url(#p028b9c46d2)" d="M 107.590611 100.988 
L 108.270839 100.988 
L 108.270839 91.484 
L 107.590611 91.484 
z
" style="fill:#9467bd;"/>
   </g>
   <g id="patch_69">
    <path clip-path="url(#p028b9c46d2)" d="M 196.020325 81.98 
L 215.406839 81.98 
L 215.406839 72.476 
L 196.020325 72.476 
z
" style="fill:#9467bd;"/>
   </g>
   <g id="patch_70">
    <path clip-path="url(#p028b9c46d2)" d="M 178.674496 62.972 
L 241.255525 62.972 
L 241.255525 53.468 
L 178.674496 53.468 
z
" style="fill:#9467bd;"/>
   </g>
   <g id="patch_71">
    <path clip-path="url(#p028b9c46d2)" d="M 234.793354 43.964 
L 263.362954 43.964 
L 263.362954 34.46 
L 234.793354 34.46 
z
" style="fill:#9467bd;"/>
   </g>
   <g id="patch_72">
    <path clip-path="url(#p028b9c46d2)" d="M 215.066725 24.956 
L 223.229468 24.956 
L 223.229468 15.452 
L 215.066725 15.452 
z
" style="fill:#9467bd;"/>
   </g>
   <g id="patch_73">
    <path clip-path="url(#p028b9c46d2)" d="M 259.621696 272.06 
L 282.749468 272.06 
L 282.749468 262.556 
L 259.621696 262.556 
z
" style="fill:#8c564b;"/>
   </g>
   <g id="patch_74">
    <path clip-path="url(#p028b9c46d2)" d="M 288.531411 253.052 
L 303.156325 253.052 
L 303.156325 243.548 
L 288.531411 243.548 
z
" style="fill:#8c564b;"/>
   </g>
   <g id="patch_75">
    <path clip-path="url(#p028b9c46d2)" d="M 116.433582 234.044 
L 164.049582 234.044 
L 164.049582 224.54 
L 116.433582 224.54 
z
" style="fill:#8c564b;"/>
   </g>
   <g id="patch_76">
    <path clip-path="url(#p028b9c46d2)" d="M 152.145582 215.036 
L 191.938954 215.036 
L 191.938954 205.532 
L 152.145582 205.532 
z
" style="fill:#8c564b;"/>
   </g>
   <g id="patch_77">
    <path clip-path="url(#p028b9c46d2)" d="M 208.604554 196.028 
L 244.996782 196.028 
L 244.996782 186.524 
L 208.604554 186.524 
z
" style="fill:#8c564b;"/>
   </g>
   <g id="patch_78">
    <path clip-path="url(#p028b9c46d2)" d="M 216.427182 177.02 
L 233.773011 177.02 
L 233.773011 167.516 
L 216.427182 167.516 
z
" style="fill:#8c564b;"/>
   </g>
   <g id="patch_79">
    <path clip-path="url(#p028b9c46d2)" d="M 122.555639 158.012 
L 140.921811 158.012 
L 140.921811 148.508 
L 122.555639 148.508 
z
" style="fill:#8c564b;"/>
   </g>
   <g id="patch_80">
    <path clip-path="url(#p028b9c46d2)" d="M 118.134154 139.004 
L 130.718382 139.004 
L 130.718382 129.5 
L 118.134154 129.5 
z
" style="fill:#8c564b;"/>
   </g>
   <g id="patch_81">
    <path clip-path="url(#p028b9c46d2)" d="M 96.706954 119.996 
L 103.169125 119.996 
L 103.169125 110.492 
L 96.706954 110.492 
z
" style="fill:#8c564b;"/>
   </g>
   <g id="patch_82">
    <path clip-path="url(#p028b9c46d2)" d="M 55.553125 100.988 
L 55.553125 100.988 
L 55.553125 91.484 
L 55.553125 91.484 
z
" style="fill:#8c564b;"/>
   </g>
   <g id="patch_83">
    <path clip-path="url(#p028b9c46d2)" d="M 215.406839 81.98 
L 235.473582 81.98 
L 235.473582 72.476 
L 215.406839 72.476 
z
" style="fill:#8c564b;"/>
   </g>
   <g id="patch_84">
    <path clip-path="url(#p028b9c46d2)" d="M 241.255525 62.972 
L 249.758382 62.972 
L 249.758382 53.468 
L 241.255525 53.468 
z
" style="fill:#8c564b;"/>
   </g>
   <g id="patch_85">
    <path clip-path="url(#p028b9c46d2)" d="M 263.362954 43.964 
L 281.729125 43.964 
L 281.729125 34.46 
L 263.362954 34.46 
z
" style="fill:#8c564b;"/>
   </g>
   <g id="patch_86">
    <path clip-path="url(#p028b9c46d2)" d="M 223.229468 24.956 
L 241.935754 24.956 
L 241.935754 15.452 
L 223.229468 15.452 
z
" style="fill:#8c564b;"/>
   </g>
   <g id="patch_87">
    <path clip-path="url(#p028b9c46d2)" d="M 282.749468 272.06 
L 297.034268 272.06 
L 297.034268 262.556 
L 282.749468 262.556 
z
" style="fill:#e377c2;"/>
   </g>
   <g id="patch_88">
    <path clip-path="url(#p028b9c46d2)" d="M 303.156325 253.052 
L 336.827639 253.052 
L 336.827639 243.548 
L 303.156325 243.548 
z
" style="fill:#e377c2;"/>
   </g>
   <g id="patch_89">
    <path clip-path="url(#p028b9c46d2)" d="M 164.049582 234.044 
L 170.171639 234.044 
L 170.171639 224.54 
L 164.049582 224.54 
z
" style="fill:#e377c2;"/>
   </g>
   <g id="patch_90">
    <path clip-path="url(#p028b9c46d2)" d="M 191.938954 215.036 
L 200.781925 215.036 
L 200.781925 205.532 
L 191.938954 205.532 
z
" style="fill:#e377c2;"/>
   </g>
   <g id="patch_91">
    <path clip-path="url(#p028b9c46d2)" d="M 244.996782 196.028 
L 251.799068 196.028 
L 251.799068 186.524 
L 244.996782 186.524 
z
" style="fill:#e377c2;"/>
   </g>
   <g id="patch_92">
    <path clip-path="url(#p028b9c46d2)" d="M 233.773011 177.02 
L 241.255525 177.02 
L 241.255525 167.516 
L 233.773011 167.516 
z
" style="fill:#e377c2;"/>
   </g>
   <g id="patch_93">
    <path clip-path="url(#p028b9c46d2)" d="M 140.921811 158.012 
L 383.763411 158.012 
L 383.763411 148.508 
L 140.921811 148.508 
z
" style="fill:#e377c2;"/>
   </g>
   <g id="patch_94">
    <path clip-path="url(#p028b9c46d2)" d="M 130.718382 139.004 
L 366.757696 139.004 
L 366.757696 129.5 
L 130.718382 129.5 
z
" style="fill:#e377c2;"/>
   </g>
   <g id="patch_95">
    <path clip-path="url(#p028b9c46d2)" d="M 103.169125 119.996 
L 370.158839 119.996 
L 370.158839 110.492 
L 103.169125 110.492 
z
" style="fill:#e377c2;"/>
   </g>
   <g id="patch_96">
    <path clip-path="url(#p028b9c46d2)" d="M 108.270839 100.988 
L 389.205239 100.988 
L 389.205239 91.484 
L 108.270839 91.484 
z
" style="fill:#e377c2;"/>
   </g>
   <g id="patch_97">
    <path clip-path="url(#p028b9c46d2)" d="M 235.473582 81.98 
L 279.688439 81.98 
L 279.688439 72.476 
L 235.473582 72.476 
z
" style="fill:#e377c2;"/>
   </g>
   <g id="patch_98">
    <path clip-path="url(#p028b9c46d2)" d="M 249.758382 62.972 
L 294.993582 62.972 
L 294.993582 53.468 
L 249.758382 53.468 
z
" style="fill:#e377c2;"/>
   </g>
   <g id="patch_99">
    <path clip-path="url(#p028b9c46d2)" d="M 281.729125 43.964 
L 291.932554 43.964 
L 291.932554 34.46 
L 281.729125 34.46 
z
" style="fill:#e377c2;"/>
   </g>
   <g id="patch_100">
    <path clip-path="url(#p028b9c46d2)" d="M 241.935754 24.956 
L 267.784439 24.956 
L 267.784439 15.452 
L 241.935754 15.452 
z
" style="fill:#e377c2;"/>
   </g>
   <g id="patch_101">
    <path clip-path="url(#p028b9c46d2)" d="M 297.034268 272.06 
L 298.734839 272.06 
L 298.734839 262.556 
L 297.034268 262.556 
z
" style="fill:#7f7f7f;"/>
   </g>
   <g id="patch_102">
    <path clip-path="url(#p028b9c46d2)" d="M 336.827639 253.052 
L 339.208439 253.052 
L 339.208439 243.548 
L 336.827639 243.548 
z
" style="fill:#7f7f7f;"/>
   </g>
   <g id="patch_103">
    <path clip-path="url(#p028b9c46d2)" d="M 170.171639 234.044 
L 173.572782 234.044 
L 173.572782 224.54 
L 170.171639 224.54 
z
" style="fill:#7f7f7f;"/>
   </g>
   <g id="patch_104">
    <path clip-path="url(#p028b9c46d2)" d="M 200.781925 215.036 
L 206.903982 215.036 
L 206.903982 205.532 
L 200.781925 205.532 
z
" style="fill:#7f7f7f;"/>
   </g>
   <g id="patch_105">
    <path clip-path="url(#p028b9c46d2)" d="M 251.799068 196.028 
L 267.784439 196.028 
L 267.784439 186.524 
L 251.799068 186.524 
z
" style="fill:#7f7f7f;"/>
   </g>
   <g id="patch_106">
    <path clip-path="url(#p028b9c46d2)" d="M 241.255525 177.02 
L 251.799068 177.02 
L 251.799068 167.516 
L 241.255525 167.516 
z
" style="fill:#7f7f7f;"/>
   </g>
   <g id="patch_107">
    <path clip-path="url(#p028b9c46d2)" d="M 383.763411 158.012 
L 385.463982 158.012 
L 385.463982 148.508 
L 383.763411 148.508 
z
" style="fill:#7f7f7f;"/>
   </g>
   <g id="patch_108">
    <path clip-path="url(#p028b9c46d2)" d="M 366.757696 139.004 
L 370.839068 139.004 
L 370.839068 129.5 
L 366.757696 129.5 
z
" style="fill:#7f7f7f;"/>
   </g>
   <g id="patch_109">
    <path clip-path="url(#p028b9c46d2)" d="M 370.158839 119.996 
L 374.580325 119.996 
L 374.580325 110.492 
L 370.158839 110.492 
z
" style="fill:#7f7f7f;"/>
   </g>
   <g id="patch_110">
    <path clip-path="url(#p028b9c46d2)" d="M 389.205239 100.988 
L 391.586039 100.988 
L 391.586039 91.484 
L 389.205239 91.484 
z
" style="fill:#7f7f7f;"/>
   </g>
   <g id="patch_111">
    <path clip-path="url(#p028b9c46d2)" d="M 279.688439 81.98 
L 282.749468 81.98 
L 282.749468 72.476 
L 279.688439 72.476 
z
" style="fill:#7f7f7f;"/>
   </g>
   <g id="patch_112">
    <path clip-path="url(#p028b9c46d2)" d="M 294.993582 62.972 
L 298.394725 62.972 
L 298.394725 53.468 
L 294.993582 53.468 
z
" style="fill:#7f7f7f;"/>
   </g>
   <g id="patch_113">
    <path clip-path="url(#p028b9c46d2)" d="M 291.932554 43.964 
L 300.095296 43.964 
L 300.095296 34.46 
L 291.932554 34.46 
z
" style="fill:#7f7f7f;"/>
   </g>
   <g id="patch_114">
    <path clip-path="url(#p028b9c46d2)" d="M 267.784439 24.956 
L 279.008211 24.956 
L 279.008211 15.452 
L 267.784439 15.452 
z
" style="fill:#7f7f7f;"/>
   </g>
   <g id="patch_115">
    <path clip-path="url(#p028b9c46d2)" d="M 298.734839 272.06 
L 394.987182 272.06 
L 394.987182 262.556 
L 298.734839 262.556 
z
" style="fill:#bcbd22;"/>
   </g>
   <g id="patch_116">
    <path clip-path="url(#p028b9c46d2)" d="M 339.208439 253.052 
L 395.667411 253.052 
L 395.667411 243.548 
L 339.208439 243.548 
z
" style="fill:#bcbd22;"/>
   </g>
   <g id="patch_117">
    <path clip-path="url(#p028b9c46d2)" d="M 173.572782 234.044 
L 395.667411 234.044 
L 395.667411 224.54 
L 173.572782 224.54 
z
" style="fill:#bcbd22;"/>
   </g>
   <g id="patch_118">
    <path clip-path="url(#p028b9c46d2)" d="M 206.903982 215.036 
L 395.667411 215.036 
L 395.667411 205.532 
L 206.903982 205.532 
z
" style="fill:#bcbd22;"/>
   </g>
   <g id="patch_119">
    <path clip-path="url(#p028b9c46d2)" d="M 267.784439 196.028 
L 395.667411 196.028 
L 395.667411 186.524 
L 267.784439 186.524 
z
" style="fill:#bcbd22;"/>
   </g>
   <g id="patch_120">
    <path clip-path="url(#p028b9c46d2)" d="M 251.799068 177.02 
L 395.667411 177.02 
L 395.667411 167.516 
L 251.799068 167.516 
z
" style="fill:#bcbd22;"/>
   </g>
   <g id="patch_121">
    <path clip-path="url(#p028b9c46d2)" d="M 385.463982 158.012 
L 395.667411 158.012 
L 395.667411 148.508 
L 385.463982 148.508 
z
" style="fill:#bcbd22;"/>
   </g>
   <g id="patch_122">
    <path clip-path="url(#p028b9c46d2)" d="M 370.839068 139.004 
L 395.667411 139.004 
L 395.667411 129.5 
L 370.839068 129.5 
z
" style="fill:#bcbd22;"/>
   </g>
   <g id="patch_123">
    <path clip-path="url(#p028b9c46d2)" d="M 374.580325 119.996 
L 395.667411 119.996 
L 395.667411 110.492 
L 374.580325 110.492 
z
" style="fill:#bcbd22;"/>
   </g>
   <g id="patch_124">
    <path clip-path="url(#p028b9c46d2)" d="M 391.586039 100.988 
L 395.667411 100.988 
L 395.667411 91.484 
L 391.586039 91.484 
z
" style="fill:#bcbd22;"/>
   </g>
   <g id="patch_125">
    <path clip-path="url(#p028b9c46d2)" d="M 282.749468 81.98 
L 395.667411 81.98 
L 395.667411 72.476 
L 282.749468 72.476 
z
" style="fill:#bcbd22;"/>
   </g>
   <g id="patch_126">
    <path clip-path="url(#p028b9c46d2)" d="M 298.394725 62.972 
L 395.667411 62.972 
L 395.667411 53.468 
L 298.394725 53.468 
z
" style="fill:#bcbd22;"/>
   </g>
   <g id="patch_127">
    <path clip-path="url(#p028b9c46d2)" d="M 300.095296 43.964 
L 395.667411 43.964 
L 395.667411 34.46 
L 300.095296 34.46 
z
" style="fill:#bcbd22;"/>
   </g>
   <g id="patch_128">
    <path clip-path="url(#p028b9c46d2)" d="M 279.008211 24.956 
L 395.667411 24.956 
L 395.667411 15.452 
L 279.008211 15.452 
z
" style="fill:#bcbd22;"/>
   </g>
   <g id="matplotlib.axis_1">
    <g id="xtick_1">
     <g id="line2d_1">
      <defs>
       <path d="M 0 0 
L 0 3.5 
" id="m895d4afc70" style="stroke:#000000;stroke-width:0.8;"/>
      </defs>
      <g>
       <use style="stroke:#000000;stroke-width:0.8;" x="55.553125" xlink:href="#m895d4afc70" y="276.812"/>
      </g>
     </g>
     <g id="text_1">
      <!-- 0 -->
      <defs>
       <path d="M 31.78125 66.40625 
Q 24.171875 66.40625 20.328125 58.90625 
Q 16.5 51.421875 16.5 36.375 
Q 16.5 21.390625 20.328125 13.890625 
Q 24.171875 6.390625 31.78125 6.390625 
Q 39.453125 6.390625 43.28125 13.890625 
Q 47.125 21.390625 47.125 36.375 
Q 47.125 51.421875 43.28125 58.90625 
Q 39.453125 66.40625 31.78125 66.40625 
M 31.78125 74.21875 
Q 44.046875 74.21875 50.515625 64.515625 
Q 56.984375 54.828125 56.984375 36.375 
Q 56.984375 17.96875 50.515625 8.265625 
Q 44.046875 -1.421875 31.78125 -1.421875 
Q 19.53125 -1.421875 13.0625 8.265625 
Q 6.59375 17.96875 6.59375 36.375 
Q 6.59375 54.828125 13.0625 64.515625 
Q 19.53125 74.21875 31.78125 74.21875 
" id="DejaVuSans-30"/>
      </defs>
      <g transform="translate(52.371875 291.410437)scale(0.1 -0.1)">
       <use xlink:href="#DejaVuSans-30"/>
      </g>
     </g>
    </g>
    <g id="xtick_2">
     <g id="line2d_2">
      <g>
       <use style="stroke:#000000;stroke-width:0.8;" x="123.575982" xlink:href="#m895d4afc70" y="276.812"/>
      </g>
     </g>
     <g id="text_2">
      <!-- 20 -->
      <defs>
       <path d="M 19.1875 8.296875 
L 53.609375 8.296875 
L 53.609375 0 
L 7.328125 0 
L 7.328125 8.296875 
Q 12.9375 14.109375 22.625 23.890625 
Q 32.328125 33.6875 34.8125 36.53125 
Q 39.546875 41.84375 41.421875 45.53125 
Q 43.3125 49.21875 43.3125 52.78125 
Q 43.3125 58.59375 39.234375 62.25 
Q 35.15625 65.921875 28.609375 65.921875 
Q 23.96875 65.921875 18.8125 64.3125 
Q 13.671875 62.703125 7.8125 59.421875 
L 7.8125 69.390625 
Q 13.765625 71.78125 18.9375 73 
Q 24.125 74.21875 28.421875 74.21875 
Q 39.75 74.21875 46.484375 68.546875 
Q 53.21875 62.890625 53.21875 53.421875 
Q 53.21875 48.921875 51.53125 44.890625 
Q 49.859375 40.875 45.40625 35.40625 
Q 44.1875 33.984375 37.640625 27.21875 
Q 31.109375 20.453125 19.1875 8.296875 
" id="DejaVuSans-32"/>
      </defs>
      <g transform="translate(117.213482 291.410437)scale(0.1 -0.1)">
       <use xlink:href="#DejaVuSans-32"/>
       <use x="63.623047" xlink:href="#DejaVuSans-30"/>
      </g>
     </g>
    </g>
    <g id="xtick_3">
     <g id="line2d_3">
      <g>
       <use style="stroke:#000000;stroke-width:0.8;" x="191.598839" xlink:href="#m895d4afc70" y="276.812"/>
      </g>
     </g>
     <g id="text_3">
      <!-- 40 -->
      <defs>
       <path d="M 37.796875 64.3125 
L 12.890625 25.390625 
L 37.796875 25.390625 
z
M 35.203125 72.90625 
L 47.609375 72.90625 
L 47.609375 25.390625 
L 58.015625 25.390625 
L 58.015625 17.1875 
L 47.609375 17.1875 
L 47.609375 0 
L 37.796875 0 
L 37.796875 17.1875 
L 4.890625 17.1875 
L 4.890625 26.703125 
z
" id="DejaVuSans-34"/>
      </defs>
      <g transform="translate(185.236339 291.410437)scale(0.1 -0.1)">
       <use xlink:href="#DejaVuSans-34"/>
       <use x="63.623047" xlink:href="#DejaVuSans-30"/>
      </g>
     </g>
    </g>
    <g id="xtick_4">
     <g id="line2d_4">
      <g>
       <use style="stroke:#000000;stroke-width:0.8;" x="259.621696" xlink:href="#m895d4afc70" y="276.812"/>
      </g>
     </g>
     <g id="text_4">
      <!-- 60 -->
      <defs>
       <path d="M 33.015625 40.375 
Q 26.375 40.375 22.484375 35.828125 
Q 18.609375 31.296875 18.609375 23.390625 
Q 18.609375 15.53125 22.484375 10.953125 
Q 26.375 6.390625 33.015625 6.390625 
Q 39.65625 6.390625 43.53125 10.953125 
Q 47.40625 15.53125 47.40625 23.390625 
Q 47.40625 31.296875 43.53125 35.828125 
Q 39.65625 40.375 33.015625 40.375 
M 52.59375 71.296875 
L 52.59375 62.3125 
Q 48.875 64.0625 45.09375 64.984375 
Q 41.3125 65.921875 37.59375 65.921875 
Q 27.828125 65.921875 22.671875 59.328125 
Q 17.53125 52.734375 16.796875 39.40625 
Q 19.671875 43.65625 24.015625 45.921875 
Q 28.375 48.1875 33.59375 48.1875 
Q 44.578125 48.1875 50.953125 41.515625 
Q 57.328125 34.859375 57.328125 23.390625 
Q 57.328125 12.15625 50.6875 5.359375 
Q 44.046875 -1.421875 33.015625 -1.421875 
Q 20.359375 -1.421875 13.671875 8.265625 
Q 6.984375 17.96875 6.984375 36.375 
Q 6.984375 53.65625 15.1875 63.9375 
Q 23.390625 74.21875 37.203125 74.21875 
Q 40.921875 74.21875 44.703125 73.484375 
Q 48.484375 72.75 52.59375 71.296875 
" id="DejaVuSans-36"/>
      </defs>
      <g transform="translate(253.259196 291.410437)scale(0.1 -0.1)">
       <use xlink:href="#DejaVuSans-36"/>
       <use x="63.623047" xlink:href="#DejaVuSans-30"/>
      </g>
     </g>
    </g>
    <g id="xtick_5">
     <g id="line2d_5">
      <g>
       <use style="stroke:#000000;stroke-width:0.8;" x="327.644554" xlink:href="#m895d4afc70" y="276.812"/>
      </g>
     </g>
     <g id="text_5">
      <!-- 80 -->
      <defs>
       <path d="M 31.78125 34.625 
Q 24.75 34.625 20.71875 30.859375 
Q 16.703125 27.09375 16.703125 20.515625 
Q 16.703125 13.921875 20.71875 10.15625 
Q 24.75 6.390625 31.78125 6.390625 
Q 38.8125 6.390625 42.859375 10.171875 
Q 46.921875 13.96875 46.921875 20.515625 
Q 46.921875 27.09375 42.890625 30.859375 
Q 38.875 34.625 31.78125 34.625 
M 21.921875 38.8125 
Q 15.578125 40.375 12.03125 44.71875 
Q 8.5 49.078125 8.5 55.328125 
Q 8.5 64.0625 14.71875 69.140625 
Q 20.953125 74.21875 31.78125 74.21875 
Q 42.671875 74.21875 48.875 69.140625 
Q 55.078125 64.0625 55.078125 55.328125 
Q 55.078125 49.078125 51.53125 44.71875 
Q 48 40.375 41.703125 38.8125 
Q 48.828125 37.15625 52.796875 32.3125 
Q 56.78125 27.484375 56.78125 20.515625 
Q 56.78125 9.90625 50.3125 4.234375 
Q 43.84375 -1.421875 31.78125 -1.421875 
Q 19.734375 -1.421875 13.25 4.234375 
Q 6.78125 9.90625 6.78125 20.515625 
Q 6.78125 27.484375 10.78125 32.3125 
Q 14.796875 37.15625 21.921875 38.8125 
M 18.3125 54.390625 
Q 18.3125 48.734375 21.84375 45.5625 
Q 25.390625 42.390625 31.78125 42.390625 
Q 38.140625 42.390625 41.71875 45.5625 
Q 45.3125 48.734375 45.3125 54.390625 
Q 45.3125 60.0625 41.71875 63.234375 
Q 38.140625 66.40625 31.78125 66.40625 
Q 25.390625 66.40625 21.84375 63.234375 
Q 18.3125 60.0625 18.3125 54.390625 
" id="DejaVuSans-38"/>
      </defs>
      <g transform="translate(321.282054 291.410437)scale(0.1 -0.1)">
       <use xlink:href="#DejaVuSans-38"/>
       <use x="63.623047" xlink:href="#DejaVuSans-30"/>
      </g>
     </g>
    </g>
    <g id="xtick_6">
     <g id="line2d_6">
      <g>
       <use style="stroke:#000000;stroke-width:0.8;" x="395.667411" xlink:href="#m895d4afc70" y="276.812"/>
      </g>
     </g>
     <g id="text_6">
      <!-- 100 -->
      <defs>
       <path d="M 12.40625 8.296875 
L 28.515625 8.296875 
L 28.515625 63.921875 
L 10.984375 60.40625 
L 10.984375 69.390625 
L 28.421875 72.90625 
L 38.28125 72.90625 
L 38.28125 8.296875 
L 54.390625 8.296875 
L 54.390625 0 
L 12.40625 0 
z
" id="DejaVuSans-31"/>
      </defs>
      <g transform="translate(386.123661 291.410437)scale(0.1 -0.1)">
       <use xlink:href="#DejaVuSans-31"/>
       <use x="63.623047" xlink:href="#DejaVuSans-30"/>
       <use x="127.246094" xlink:href="#DejaVuSans-30"/>
      </g>
     </g>
    </g>
   </g>
   <g id="matplotlib.axis_2">
    <g id="ytick_1">
     <g id="line2d_7">
      <defs>
       <path d="M 0 0 
L -3.5 0 
" id="m79d547b970" style="stroke:#000000;stroke-width:0.8;"/>
      </defs>
      <g>
       <use style="stroke:#000000;stroke-width:0.8;" x="55.553125" xlink:href="#m79d547b970" y="267.308"/>
      </g>
     </g>
     <g id="text_7">
      <!-- 3478.42 -->
      <defs>
       <path d="M 40.578125 39.3125 
Q 47.65625 37.796875 51.625 33 
Q 55.609375 28.21875 55.609375 21.1875 
Q 55.609375 10.40625 48.1875 4.484375 
Q 40.765625 -1.421875 27.09375 -1.421875 
Q 22.515625 -1.421875 17.65625 -0.515625 
Q 12.796875 0.390625 7.625 2.203125 
L 7.625 11.71875 
Q 11.71875 9.328125 16.59375 8.109375 
Q 21.484375 6.890625 26.8125 6.890625 
Q 36.078125 6.890625 40.9375 10.546875 
Q 45.796875 14.203125 45.796875 21.1875 
Q 45.796875 27.640625 41.28125 31.265625 
Q 36.765625 34.90625 28.71875 34.90625 
L 20.21875 34.90625 
L 20.21875 43.015625 
L 29.109375 43.015625 
Q 36.375 43.015625 40.234375 45.921875 
Q 44.09375 48.828125 44.09375 54.296875 
Q 44.09375 59.90625 40.109375 62.90625 
Q 36.140625 65.921875 28.71875 65.921875 
Q 24.65625 65.921875 20.015625 65.03125 
Q 15.375 64.15625 9.8125 62.3125 
L 9.8125 71.09375 
Q 15.4375 72.65625 20.34375 73.4375 
Q 25.25 74.21875 29.59375 74.21875 
Q 40.828125 74.21875 47.359375 69.109375 
Q 53.90625 64.015625 53.90625 55.328125 
Q 53.90625 49.265625 50.4375 45.09375 
Q 46.96875 40.921875 40.578125 39.3125 
" id="DejaVuSans-33"/>
       <path d="M 8.203125 72.90625 
L 55.078125 72.90625 
L 55.078125 68.703125 
L 28.609375 0 
L 18.3125 0 
L 43.21875 64.59375 
L 8.203125 64.59375 
z
" id="DejaVuSans-37"/>
       <path d="M 10.6875 12.40625 
L 21 12.40625 
L 21 0 
L 10.6875 0 
z
" id="DejaVuSans-2e"/>
      </defs>
      <g transform="translate(7.2 271.107219)scale(0.1 -0.1)">
       <use xlink:href="#DejaVuSans-33"/>
       <use x="63.623047" xlink:href="#DejaVuSans-34"/>
       <use x="127.246094" xlink:href="#DejaVuSans-37"/>
       <use x="190.869141" xlink:href="#DejaVuSans-38"/>
       <use x="254.492188" xlink:href="#DejaVuSans-2e"/>
       <use x="286.279297" xlink:href="#DejaVuSans-34"/>
       <use x="349.902344" xlink:href="#DejaVuSans-32"/>
      </g>
     </g>
    </g>
    <g id="ytick_2">
     <g id="line2d_8">
      <g>
       <use style="stroke:#000000;stroke-width:0.8;" x="55.553125" xlink:href="#m79d547b970" y="248.3"/>
      </g>
     </g>
     <g id="text_8">
      <!-- 3478.03 -->
      <g transform="translate(7.2 252.099219)scale(0.1 -0.1)">
       <use xlink:href="#DejaVuSans-33"/>
       <use x="63.623047" xlink:href="#DejaVuSans-34"/>
       <use x="127.246094" xlink:href="#DejaVuSans-37"/>
       <use x="190.869141" xlink:href="#DejaVuSans-38"/>
       <use x="254.492188" xlink:href="#DejaVuSans-2e"/>
       <use x="286.279297" xlink:href="#DejaVuSans-30"/>
       <use x="349.902344" xlink:href="#DejaVuSans-33"/>
      </g>
     </g>
    </g>
    <g id="ytick_3">
     <g id="line2d_9">
      <g>
       <use style="stroke:#000000;stroke-width:0.8;" x="55.553125" xlink:href="#m79d547b970" y="229.292"/>
      </g>
     </g>
     <g id="text_9">
      <!-- 3344.05 -->
      <defs>
       <path d="M 10.796875 72.90625 
L 49.515625 72.90625 
L 49.515625 64.59375 
L 19.828125 64.59375 
L 19.828125 46.734375 
Q 21.96875 47.46875 24.109375 47.828125 
Q 26.265625 48.1875 28.421875 48.1875 
Q 40.625 48.1875 47.75 41.5 
Q 54.890625 34.8125 54.890625 23.390625 
Q 54.890625 11.625 47.5625 5.09375 
Q 40.234375 -1.421875 26.90625 -1.421875 
Q 22.3125 -1.421875 17.546875 -0.640625 
Q 12.796875 0.140625 7.71875 1.703125 
L 7.71875 11.625 
Q 12.109375 9.234375 16.796875 8.0625 
Q 21.484375 6.890625 26.703125 6.890625 
Q 35.15625 6.890625 40.078125 11.328125 
Q 45.015625 15.765625 45.015625 23.390625 
Q 45.015625 31 40.078125 35.4375 
Q 35.15625 39.890625 26.703125 39.890625 
Q 22.75 39.890625 18.8125 39.015625 
Q 14.890625 38.140625 10.796875 36.28125 
z
" id="DejaVuSans-35"/>
      </defs>
      <g transform="translate(7.2 233.091219)scale(0.1 -0.1)">
       <use xlink:href="#DejaVuSans-33"/>
       <use x="63.623047" xlink:href="#DejaVuSans-33"/>
       <use x="127.246094" xlink:href="#DejaVuSans-34"/>
       <use x="190.869141" xlink:href="#DejaVuSans-34"/>
       <use x="254.492188" xlink:href="#DejaVuSans-2e"/>
       <use x="286.279297" xlink:href="#DejaVuSans-30"/>
       <use x="349.902344" xlink:href="#DejaVuSans-35"/>
      </g>
     </g>
    </g>
    <g id="ytick_4">
     <g id="line2d_10">
      <g>
       <use style="stroke:#000000;stroke-width:0.8;" x="55.553125" xlink:href="#m79d547b970" y="210.284"/>
      </g>
     </g>
     <g id="text_10">
      <!-- 3340.75 -->
      <g transform="translate(7.2 214.083219)scale(0.1 -0.1)">
       <use xlink:href="#DejaVuSans-33"/>
       <use x="63.623047" xlink:href="#DejaVuSans-33"/>
       <use x="127.246094" xlink:href="#DejaVuSans-34"/>
       <use x="190.869141" xlink:href="#DejaVuSans-30"/>
       <use x="254.492188" xlink:href="#DejaVuSans-2e"/>
       <use x="286.279297" xlink:href="#DejaVuSans-37"/>
       <use x="349.902344" xlink:href="#DejaVuSans-35"/>
      </g>
     </g>
    </g>
    <g id="ytick_5">
     <g id="line2d_11">
      <g>
       <use style="stroke:#000000;stroke-width:0.8;" x="55.553125" xlink:href="#m79d547b970" y="191.276"/>
      </g>
     </g>
     <g id="text_11">
      <!-- 3338.55 -->
      <g transform="translate(7.2 195.075219)scale(0.1 -0.1)">
       <use xlink:href="#DejaVuSans-33"/>
       <use x="63.623047" xlink:href="#DejaVuSans-33"/>
       <use x="127.246094" xlink:href="#DejaVuSans-33"/>
       <use x="190.869141" xlink:href="#DejaVuSans-38"/>
       <use x="254.492188" xlink:href="#DejaVuSans-2e"/>
       <use x="286.279297" xlink:href="#DejaVuSans-35"/>
       <use x="349.902344" xlink:href="#DejaVuSans-35"/>
      </g>
     </g>
    </g>
    <g id="ytick_6">
     <g id="line2d_12">
      <g>
       <use style="stroke:#000000;stroke-width:0.8;" x="55.553125" xlink:href="#m79d547b970" y="172.268"/>
      </g>
     </g>
     <g id="text_12">
      <!-- 3337.25 -->
      <g transform="translate(7.2 176.067219)scale(0.1 -0.1)">
       <use xlink:href="#DejaVuSans-33"/>
       <use x="63.623047" xlink:href="#DejaVuSans-33"/>
       <use x="127.246094" xlink:href="#DejaVuSans-33"/>
       <use x="190.869141" xlink:href="#DejaVuSans-37"/>
       <use x="254.492188" xlink:href="#DejaVuSans-2e"/>
       <use x="286.279297" xlink:href="#DejaVuSans-32"/>
       <use x="349.902344" xlink:href="#DejaVuSans-35"/>
      </g>
     </g>
    </g>
    <g id="ytick_7">
     <g id="line2d_13">
      <g>
       <use style="stroke:#000000;stroke-width:0.8;" x="55.553125" xlink:href="#m79d547b970" y="153.26"/>
      </g>
     </g>
     <g id="text_13">
      <!-- 3327.83 -->
      <g transform="translate(7.2 157.059219)scale(0.1 -0.1)">
       <use xlink:href="#DejaVuSans-33"/>
       <use x="63.623047" xlink:href="#DejaVuSans-33"/>
       <use x="127.246094" xlink:href="#DejaVuSans-32"/>
       <use x="190.869141" xlink:href="#DejaVuSans-37"/>
       <use x="254.492188" xlink:href="#DejaVuSans-2e"/>
       <use x="286.279297" xlink:href="#DejaVuSans-38"/>
       <use x="349.902344" xlink:href="#DejaVuSans-33"/>
      </g>
     </g>
    </g>
    <g id="ytick_8">
     <g id="line2d_14">
      <g>
       <use style="stroke:#000000;stroke-width:0.8;" x="55.553125" xlink:href="#m79d547b970" y="134.252"/>
      </g>
     </g>
     <g id="text_14">
      <!-- 3326.66 -->
      <g transform="translate(7.2 138.051219)scale(0.1 -0.1)">
       <use xlink:href="#DejaVuSans-33"/>
       <use x="63.623047" xlink:href="#DejaVuSans-33"/>
       <use x="127.246094" xlink:href="#DejaVuSans-32"/>
       <use x="190.869141" xlink:href="#DejaVuSans-36"/>
       <use x="254.492188" xlink:href="#DejaVuSans-2e"/>
       <use x="286.279297" xlink:href="#DejaVuSans-36"/>
       <use x="349.902344" xlink:href="#DejaVuSans-36"/>
      </g>
     </g>
    </g>
    <g id="ytick_9">
     <g id="line2d_15">
      <g>
       <use style="stroke:#000000;stroke-width:0.8;" x="55.553125" xlink:href="#m79d547b970" y="115.244"/>
      </g>
     </g>
     <g id="text_15">
      <!-- 3322.93 -->
      <defs>
       <path d="M 10.984375 1.515625 
L 10.984375 10.5 
Q 14.703125 8.734375 18.5 7.8125 
Q 22.3125 6.890625 25.984375 6.890625 
Q 35.75 6.890625 40.890625 13.453125 
Q 46.046875 20.015625 46.78125 33.40625 
Q 43.953125 29.203125 39.59375 26.953125 
Q 35.25 24.703125 29.984375 24.703125 
Q 19.046875 24.703125 12.671875 31.3125 
Q 6.296875 37.9375 6.296875 49.421875 
Q 6.296875 60.640625 12.9375 67.421875 
Q 19.578125 74.21875 30.609375 74.21875 
Q 43.265625 74.21875 49.921875 64.515625 
Q 56.59375 54.828125 56.59375 36.375 
Q 56.59375 19.140625 48.40625 8.859375 
Q 40.234375 -1.421875 26.421875 -1.421875 
Q 22.703125 -1.421875 18.890625 -0.6875 
Q 15.09375 0.046875 10.984375 1.515625 
M 30.609375 32.421875 
Q 37.25 32.421875 41.125 36.953125 
Q 45.015625 41.5 45.015625 49.421875 
Q 45.015625 57.28125 41.125 61.84375 
Q 37.25 66.40625 30.609375 66.40625 
Q 23.96875 66.40625 20.09375 61.84375 
Q 16.21875 57.28125 16.21875 49.421875 
Q 16.21875 41.5 20.09375 36.953125 
Q 23.96875 32.421875 30.609375 32.421875 
" id="DejaVuSans-39"/>
      </defs>
      <g transform="translate(7.2 119.043219)scale(0.1 -0.1)">
       <use xlink:href="#DejaVuSans-33"/>
       <use x="63.623047" xlink:href="#DejaVuSans-33"/>
       <use x="127.246094" xlink:href="#DejaVuSans-32"/>
       <use x="190.869141" xlink:href="#DejaVuSans-32"/>
       <use x="254.492188" xlink:href="#DejaVuSans-2e"/>
       <use x="286.279297" xlink:href="#DejaVuSans-39"/>
       <use x="349.902344" xlink:href="#DejaVuSans-33"/>
      </g>
     </g>
    </g>
    <g id="ytick_10">
     <g id="line2d_16">
      <g>
       <use style="stroke:#000000;stroke-width:0.8;" x="55.553125" xlink:href="#m79d547b970" y="96.236"/>
      </g>
     </g>
     <g id="text_16">
      <!-- 3321.27 -->
      <g transform="translate(7.2 100.035219)scale(0.1 -0.1)">
       <use xlink:href="#DejaVuSans-33"/>
       <use x="63.623047" xlink:href="#DejaVuSans-33"/>
       <use x="127.246094" xlink:href="#DejaVuSans-32"/>
       <use x="190.869141" xlink:href="#DejaVuSans-31"/>
       <use x="254.492188" xlink:href="#DejaVuSans-2e"/>
       <use x="286.279297" xlink:href="#DejaVuSans-32"/>
       <use x="349.902344" xlink:href="#DejaVuSans-37"/>
      </g>
     </g>
    </g>
    <g id="ytick_11">
     <g id="line2d_17">
      <g>
       <use style="stroke:#000000;stroke-width:0.8;" x="55.553125" xlink:href="#m79d547b970" y="77.228"/>
      </g>
     </g>
     <g id="text_17">
      <!-- 3002.1 -->
      <g transform="translate(13.5625 81.027219)scale(0.1 -0.1)">
       <use xlink:href="#DejaVuSans-33"/>
       <use x="63.623047" xlink:href="#DejaVuSans-30"/>
       <use x="127.246094" xlink:href="#DejaVuSans-30"/>
       <use x="190.869141" xlink:href="#DejaVuSans-32"/>
       <use x="254.492188" xlink:href="#DejaVuSans-2e"/>
       <use x="286.279297" xlink:href="#DejaVuSans-31"/>
      </g>
     </g>
    </g>
    <g id="ytick_12">
     <g id="line2d_18">
      <g>
       <use style="stroke:#000000;stroke-width:0.8;" x="55.553125" xlink:href="#m79d547b970" y="58.22"/>
      </g>
     </g>
     <g id="text_18">
      <!-- 2996.65 -->
      <g transform="translate(7.2 62.019219)scale(0.1 -0.1)">
       <use xlink:href="#DejaVuSans-32"/>
       <use x="63.623047" xlink:href="#DejaVuSans-39"/>
       <use x="127.246094" xlink:href="#DejaVuSans-39"/>
       <use x="190.869141" xlink:href="#DejaVuSans-36"/>
       <use x="254.492188" xlink:href="#DejaVuSans-2e"/>
       <use x="286.279297" xlink:href="#DejaVuSans-36"/>
       <use x="349.902344" xlink:href="#DejaVuSans-35"/>
      </g>
     </g>
    </g>
    <g id="ytick_13">
     <g id="line2d_19">
      <g>
       <use style="stroke:#000000;stroke-width:0.8;" x="55.553125" xlink:href="#m79d547b970" y="39.212"/>
      </g>
     </g>
     <g id="text_19">
      <!-- 2994.5 -->
      <g transform="translate(13.5625 43.011219)scale(0.1 -0.1)">
       <use xlink:href="#DejaVuSans-32"/>
       <use x="63.623047" xlink:href="#DejaVuSans-39"/>
       <use x="127.246094" xlink:href="#DejaVuSans-39"/>
       <use x="190.869141" xlink:href="#DejaVuSans-34"/>
       <use x="254.492188" xlink:href="#DejaVuSans-2e"/>
       <use x="286.279297" xlink:href="#DejaVuSans-35"/>
      </g>
     </g>
    </g>
    <g id="ytick_14">
     <g id="line2d_20">
      <g>
       <use style="stroke:#000000;stroke-width:0.8;" x="55.553125" xlink:href="#m79d547b970" y="20.204"/>
      </g>
     </g>
     <g id="text_20">
      <!-- 2999.5 -->
      <g transform="translate(13.5625 24.003219)scale(0.1 -0.1)">
       <use xlink:href="#DejaVuSans-32"/>
       <use x="63.623047" xlink:href="#DejaVuSans-39"/>
       <use x="127.246094" xlink:href="#DejaVuSans-39"/>
       <use x="190.869141" xlink:href="#DejaVuSans-39"/>
       <use x="254.492188" xlink:href="#DejaVuSans-2e"/>
       <use x="286.279297" xlink:href="#DejaVuSans-35"/>
      </g>
     </g>
    </g>
   </g>
   <g id="patch_129">
    <path d="M 55.553125 276.812 
L 55.553125 10.7 
" style="fill:none;stroke:#000000;stroke-linecap:square;stroke-linejoin:miter;stroke-width:0.8;"/>
   </g>
   <g id="patch_130">
    <path d="M 412.673125 276.812 
L 412.673125 10.7 
" style="fill:none;stroke:#000000;stroke-linecap:square;stroke-linejoin:miter;stroke-width:0.8;"/>
   </g>
   <g id="patch_131">
    <path d="M 55.553125 276.812 
L 412.673125 276.812 
" style="fill:none;stroke:#000000;stroke-linecap:square;stroke-linejoin:miter;stroke-width:0.8;"/>
   </g>
   <g id="patch_132">
    <path d="M 55.553125 10.7 
L 412.673125 10.7 
" style="fill:none;stroke:#000000;stroke-linecap:square;stroke-linejoin:miter;stroke-width:0.8;"/>
   </g>
   <g id="legend_1">
    <g id="patch_133">
     <path d="M 482.109688 211.307562 
L 584.233125 211.307562 
Q 586.233125 211.307562 586.233125 209.307562 
L 586.233125 78.204437 
Q 586.233125 76.204437 584.233125 76.204437 
L 482.109688 76.204437 
Q 480.109688 76.204437 480.109688 78.204437 
L 480.109688 209.307562 
Q 480.109688 211.307562 482.109688 211.307562 
z
" style="fill:#ffffff;opacity:0.8;stroke:#cccccc;stroke-linejoin:miter;"/>
    </g>
    <g id="patch_134">
     <path d="M 484.109688 87.802875 
L 504.109688 87.802875 
L 504.109688 80.802875 
L 484.109688 80.802875 
z
" style="fill:#1f77b4;"/>
    </g>
    <g id="text_21">
     <!-- chlorite -->
     <defs>
      <path d="M 48.78125 52.59375 
L 48.78125 44.1875 
Q 44.96875 46.296875 41.140625 47.34375 
Q 37.3125 48.390625 33.40625 48.390625 
Q 24.65625 48.390625 19.8125 42.84375 
Q 14.984375 37.3125 14.984375 27.296875 
Q 14.984375 17.28125 19.8125 11.734375 
Q 24.65625 6.203125 33.40625 6.203125 
Q 37.3125 6.203125 41.140625 7.25 
Q 44.96875 8.296875 48.78125 10.40625 
L 48.78125 2.09375 
Q 45.015625 0.34375 40.984375 -0.53125 
Q 36.96875 -1.421875 32.421875 -1.421875 
Q 20.0625 -1.421875 12.78125 6.34375 
Q 5.515625 14.109375 5.515625 27.296875 
Q 5.515625 40.671875 12.859375 48.328125 
Q 20.21875 56 33.015625 56 
Q 37.15625 56 41.109375 55.140625 
Q 45.0625 54.296875 48.78125 52.59375 
" id="DejaVuSans-63"/>
      <path d="M 54.890625 33.015625 
L 54.890625 0 
L 45.90625 0 
L 45.90625 32.71875 
Q 45.90625 40.484375 42.875 44.328125 
Q 39.84375 48.1875 33.796875 48.1875 
Q 26.515625 48.1875 22.3125 43.546875 
Q 18.109375 38.921875 18.109375 30.90625 
L 18.109375 0 
L 9.078125 0 
L 9.078125 75.984375 
L 18.109375 75.984375 
L 18.109375 46.1875 
Q 21.34375 51.125 25.703125 53.5625 
Q 30.078125 56 35.796875 56 
Q 45.21875 56 50.046875 50.171875 
Q 54.890625 44.34375 54.890625 33.015625 
" id="DejaVuSans-68"/>
      <path d="M 9.421875 75.984375 
L 18.40625 75.984375 
L 18.40625 0 
L 9.421875 0 
z
" id="DejaVuSans-6c"/>
      <path d="M 30.609375 48.390625 
Q 23.390625 48.390625 19.1875 42.75 
Q 14.984375 37.109375 14.984375 27.296875 
Q 14.984375 17.484375 19.15625 11.84375 
Q 23.34375 6.203125 30.609375 6.203125 
Q 37.796875 6.203125 41.984375 11.859375 
Q 46.1875 17.53125 46.1875 27.296875 
Q 46.1875 37.015625 41.984375 42.703125 
Q 37.796875 48.390625 30.609375 48.390625 
M 30.609375 56 
Q 42.328125 56 49.015625 48.375 
Q 55.71875 40.765625 55.71875 27.296875 
Q 55.71875 13.875 49.015625 6.21875 
Q 42.328125 -1.421875 30.609375 -1.421875 
Q 18.84375 -1.421875 12.171875 6.21875 
Q 5.515625 13.875 5.515625 27.296875 
Q 5.515625 40.765625 12.171875 48.375 
Q 18.84375 56 30.609375 56 
" id="DejaVuSans-6f"/>
      <path d="M 41.109375 46.296875 
Q 39.59375 47.171875 37.8125 47.578125 
Q 36.03125 48 33.890625 48 
Q 26.265625 48 22.1875 43.046875 
Q 18.109375 38.09375 18.109375 28.8125 
L 18.109375 0 
L 9.078125 0 
L 9.078125 54.6875 
L 18.109375 54.6875 
L 18.109375 46.1875 
Q 20.953125 51.171875 25.484375 53.578125 
Q 30.03125 56 36.53125 56 
Q 37.453125 56 38.578125 55.875 
Q 39.703125 55.765625 41.0625 55.515625 
z
" id="DejaVuSans-72"/>
      <path d="M 9.421875 54.6875 
L 18.40625 54.6875 
L 18.40625 0 
L 9.421875 0 
z
M 9.421875 75.984375 
L 18.40625 75.984375 
L 18.40625 64.59375 
L 9.421875 64.59375 
z
" id="DejaVuSans-69"/>
      <path d="M 18.3125 70.21875 
L 18.3125 54.6875 
L 36.8125 54.6875 
L 36.8125 47.703125 
L 18.3125 47.703125 
L 18.3125 18.015625 
Q 18.3125 11.328125 20.140625 9.421875 
Q 21.96875 7.515625 27.59375 7.515625 
L 36.8125 7.515625 
L 36.8125 0 
L 27.59375 0 
Q 17.1875 0 13.234375 3.875 
Q 9.28125 7.765625 9.28125 18.015625 
L 9.28125 47.703125 
L 2.6875 47.703125 
L 2.6875 54.6875 
L 9.28125 54.6875 
L 9.28125 70.21875 
z
" id="DejaVuSans-74"/>
      <path d="M 56.203125 29.59375 
L 56.203125 25.203125 
L 14.890625 25.203125 
Q 15.484375 15.921875 20.484375 11.0625 
Q 25.484375 6.203125 34.421875 6.203125 
Q 39.59375 6.203125 44.453125 7.46875 
Q 49.3125 8.734375 54.109375 11.28125 
L 54.109375 2.78125 
Q 49.265625 0.734375 44.1875 -0.34375 
Q 39.109375 -1.421875 33.890625 -1.421875 
Q 20.796875 -1.421875 13.15625 6.1875 
Q 5.515625 13.8125 5.515625 26.8125 
Q 5.515625 40.234375 12.765625 48.109375 
Q 20.015625 56 32.328125 56 
Q 43.359375 56 49.78125 48.890625 
Q 56.203125 41.796875 56.203125 29.59375 
M 47.21875 32.234375 
Q 47.125 39.59375 43.09375 43.984375 
Q 39.0625 48.390625 32.421875 48.390625 
Q 24.90625 48.390625 20.390625 44.140625 
Q 15.875 39.890625 15.1875 32.171875 
z
" id="DejaVuSans-65"/>
     </defs>
     <g transform="translate(512.109688 87.802875)scale(0.1 -0.1)">
      <use xlink:href="#DejaVuSans-63"/>
      <use x="54.980469" xlink:href="#DejaVuSans-68"/>
      <use x="118.359375" xlink:href="#DejaVuSans-6c"/>
      <use x="146.142578" xlink:href="#DejaVuSans-6f"/>
      <use x="207.324219" xlink:href="#DejaVuSans-72"/>
      <use x="248.4375" xlink:href="#DejaVuSans-69"/>
      <use x="276.220703" xlink:href="#DejaVuSans-74"/>
      <use x="315.429688" xlink:href="#DejaVuSans-65"/>
     </g>
    </g>
    <g id="patch_135">
     <path d="M 484.109688 102.481 
L 504.109688 102.481 
L 504.109688 95.481 
L 484.109688 95.481 
z
" style="fill:#ff7f0e;"/>
    </g>
    <g id="text_22">
     <!-- epidote -->
     <defs>
      <path d="M 18.109375 8.203125 
L 18.109375 -20.796875 
L 9.078125 -20.796875 
L 9.078125 54.6875 
L 18.109375 54.6875 
L 18.109375 46.390625 
Q 20.953125 51.265625 25.265625 53.625 
Q 29.59375 56 35.59375 56 
Q 45.5625 56 51.78125 48.09375 
Q 58.015625 40.1875 58.015625 27.296875 
Q 58.015625 14.40625 51.78125 6.484375 
Q 45.5625 -1.421875 35.59375 -1.421875 
Q 29.59375 -1.421875 25.265625 0.953125 
Q 20.953125 3.328125 18.109375 8.203125 
M 48.6875 27.296875 
Q 48.6875 37.203125 44.609375 42.84375 
Q 40.53125 48.484375 33.40625 48.484375 
Q 26.265625 48.484375 22.1875 42.84375 
Q 18.109375 37.203125 18.109375 27.296875 
Q 18.109375 17.390625 22.1875 11.75 
Q 26.265625 6.109375 33.40625 6.109375 
Q 40.53125 6.109375 44.609375 11.75 
Q 48.6875 17.390625 48.6875 27.296875 
" id="DejaVuSans-70"/>
      <path d="M 45.40625 46.390625 
L 45.40625 75.984375 
L 54.390625 75.984375 
L 54.390625 0 
L 45.40625 0 
L 45.40625 8.203125 
Q 42.578125 3.328125 38.25 0.953125 
Q 33.9375 -1.421875 27.875 -1.421875 
Q 17.96875 -1.421875 11.734375 6.484375 
Q 5.515625 14.40625 5.515625 27.296875 
Q 5.515625 40.1875 11.734375 48.09375 
Q 17.96875 56 27.875 56 
Q 33.9375 56 38.25 53.625 
Q 42.578125 51.265625 45.40625 46.390625 
M 14.796875 27.296875 
Q 14.796875 17.390625 18.875 11.75 
Q 22.953125 6.109375 30.078125 6.109375 
Q 37.203125 6.109375 41.296875 11.75 
Q 45.40625 17.390625 45.40625 27.296875 
Q 45.40625 37.203125 41.296875 42.84375 
Q 37.203125 48.484375 30.078125 48.484375 
Q 22.953125 48.484375 18.875 42.84375 
Q 14.796875 37.203125 14.796875 27.296875 
" id="DejaVuSans-64"/>
     </defs>
     <g transform="translate(512.109688 102.481)scale(0.1 -0.1)">
      <use xlink:href="#DejaVuSans-65"/>
      <use x="61.523438" xlink:href="#DejaVuSans-70"/>
      <use x="125" xlink:href="#DejaVuSans-69"/>
      <use x="152.783203" xlink:href="#DejaVuSans-64"/>
      <use x="216.259766" xlink:href="#DejaVuSans-6f"/>
      <use x="277.441406" xlink:href="#DejaVuSans-74"/>
      <use x="316.650391" xlink:href="#DejaVuSans-65"/>
     </g>
    </g>
    <g id="patch_136">
     <path d="M 484.109688 117.159125 
L 504.109688 117.159125 
L 504.109688 110.159125 
L 484.109688 110.159125 
z
" style="fill:#2ca02c;"/>
    </g>
    <g id="text_23">
     <!-- garnet -->
     <defs>
      <path d="M 45.40625 27.984375 
Q 45.40625 37.75 41.375 43.109375 
Q 37.359375 48.484375 30.078125 48.484375 
Q 22.859375 48.484375 18.828125 43.109375 
Q 14.796875 37.75 14.796875 27.984375 
Q 14.796875 18.265625 18.828125 12.890625 
Q 22.859375 7.515625 30.078125 7.515625 
Q 37.359375 7.515625 41.375 12.890625 
Q 45.40625 18.265625 45.40625 27.984375 
M 54.390625 6.78125 
Q 54.390625 -7.171875 48.1875 -13.984375 
Q 42 -20.796875 29.203125 -20.796875 
Q 24.46875 -20.796875 20.265625 -20.09375 
Q 16.0625 -19.390625 12.109375 -17.921875 
L 12.109375 -9.1875 
Q 16.0625 -11.328125 19.921875 -12.34375 
Q 23.78125 -13.375 27.78125 -13.375 
Q 36.625 -13.375 41.015625 -8.765625 
Q 45.40625 -4.15625 45.40625 5.171875 
L 45.40625 9.625 
Q 42.625 4.78125 38.28125 2.390625 
Q 33.9375 0 27.875 0 
Q 17.828125 0 11.671875 7.65625 
Q 5.515625 15.328125 5.515625 27.984375 
Q 5.515625 40.671875 11.671875 48.328125 
Q 17.828125 56 27.875 56 
Q 33.9375 56 38.28125 53.609375 
Q 42.625 51.21875 45.40625 46.390625 
L 45.40625 54.6875 
L 54.390625 54.6875 
z
" id="DejaVuSans-67"/>
      <path d="M 34.28125 27.484375 
Q 23.390625 27.484375 19.1875 25 
Q 14.984375 22.515625 14.984375 16.5 
Q 14.984375 11.71875 18.140625 8.90625 
Q 21.296875 6.109375 26.703125 6.109375 
Q 34.1875 6.109375 38.703125 11.40625 
Q 43.21875 16.703125 43.21875 25.484375 
L 43.21875 27.484375 
z
M 52.203125 31.203125 
L 52.203125 0 
L 43.21875 0 
L 43.21875 8.296875 
Q 40.140625 3.328125 35.546875 0.953125 
Q 30.953125 -1.421875 24.3125 -1.421875 
Q 15.921875 -1.421875 10.953125 3.296875 
Q 6 8.015625 6 15.921875 
Q 6 25.140625 12.171875 29.828125 
Q 18.359375 34.515625 30.609375 34.515625 
L 43.21875 34.515625 
L 43.21875 35.40625 
Q 43.21875 41.609375 39.140625 45 
Q 35.0625 48.390625 27.6875 48.390625 
Q 23 48.390625 18.546875 47.265625 
Q 14.109375 46.140625 10.015625 43.890625 
L 10.015625 52.203125 
Q 14.9375 54.109375 19.578125 55.046875 
Q 24.21875 56 28.609375 56 
Q 40.484375 56 46.34375 49.84375 
Q 52.203125 43.703125 52.203125 31.203125 
" id="DejaVuSans-61"/>
      <path d="M 54.890625 33.015625 
L 54.890625 0 
L 45.90625 0 
L 45.90625 32.71875 
Q 45.90625 40.484375 42.875 44.328125 
Q 39.84375 48.1875 33.796875 48.1875 
Q 26.515625 48.1875 22.3125 43.546875 
Q 18.109375 38.921875 18.109375 30.90625 
L 18.109375 0 
L 9.078125 0 
L 9.078125 54.6875 
L 18.109375 54.6875 
L 18.109375 46.1875 
Q 21.34375 51.125 25.703125 53.5625 
Q 30.078125 56 35.796875 56 
Q 45.21875 56 50.046875 50.171875 
Q 54.890625 44.34375 54.890625 33.015625 
" id="DejaVuSans-6e"/>
     </defs>
     <g transform="translate(512.109688 117.159125)scale(0.1 -0.1)">
      <use xlink:href="#DejaVuSans-67"/>
      <use x="63.476562" xlink:href="#DejaVuSans-61"/>
      <use x="124.755859" xlink:href="#DejaVuSans-72"/>
      <use x="165.853516" xlink:href="#DejaVuSans-6e"/>
      <use x="229.232422" xlink:href="#DejaVuSans-65"/>
      <use x="290.755859" xlink:href="#DejaVuSans-74"/>
     </g>
    </g>
    <g id="patch_137">
     <path d="M 484.109688 131.83725 
L 504.109688 131.83725 
L 504.109688 124.83725 
L 484.109688 124.83725 
z
" style="fill:#d62728;"/>
    </g>
    <g id="text_24">
     <!-- leucosphenite -->
     <defs>
      <path d="M 8.5 21.578125 
L 8.5 54.6875 
L 17.484375 54.6875 
L 17.484375 21.921875 
Q 17.484375 14.15625 20.5 10.265625 
Q 23.53125 6.390625 29.59375 6.390625 
Q 36.859375 6.390625 41.078125 11.03125 
Q 45.3125 15.671875 45.3125 23.6875 
L 45.3125 54.6875 
L 54.296875 54.6875 
L 54.296875 0 
L 45.3125 0 
L 45.3125 8.40625 
Q 42.046875 3.421875 37.71875 1 
Q 33.40625 -1.421875 27.6875 -1.421875 
Q 18.265625 -1.421875 13.375 4.4375 
Q 8.5 10.296875 8.5 21.578125 
M 31.109375 56 
z
" id="DejaVuSans-75"/>
      <path d="M 44.28125 53.078125 
L 44.28125 44.578125 
Q 40.484375 46.53125 36.375 47.5 
Q 32.28125 48.484375 27.875 48.484375 
Q 21.1875 48.484375 17.84375 46.4375 
Q 14.5 44.390625 14.5 40.28125 
Q 14.5 37.15625 16.890625 35.375 
Q 19.28125 33.59375 26.515625 31.984375 
L 29.59375 31.296875 
Q 39.15625 29.25 43.1875 25.515625 
Q 47.21875 21.78125 47.21875 15.09375 
Q 47.21875 7.46875 41.1875 3.015625 
Q 35.15625 -1.421875 24.609375 -1.421875 
Q 20.21875 -1.421875 15.453125 -0.5625 
Q 10.6875 0.296875 5.421875 2 
L 5.421875 11.28125 
Q 10.40625 8.6875 15.234375 7.390625 
Q 20.0625 6.109375 24.8125 6.109375 
Q 31.15625 6.109375 34.5625 8.28125 
Q 37.984375 10.453125 37.984375 14.40625 
Q 37.984375 18.0625 35.515625 20.015625 
Q 33.0625 21.96875 24.703125 23.78125 
L 21.578125 24.515625 
Q 13.234375 26.265625 9.515625 29.90625 
Q 5.8125 33.546875 5.8125 39.890625 
Q 5.8125 47.609375 11.28125 51.796875 
Q 16.75 56 26.8125 56 
Q 31.78125 56 36.171875 55.265625 
Q 40.578125 54.546875 44.28125 53.078125 
" id="DejaVuSans-73"/>
     </defs>
     <g transform="translate(512.109688 131.83725)scale(0.1 -0.1)">
      <use xlink:href="#DejaVuSans-6c"/>
      <use x="27.783203" xlink:href="#DejaVuSans-65"/>
      <use x="89.306641" xlink:href="#DejaVuSans-75"/>
      <use x="152.685547" xlink:href="#DejaVuSans-63"/>
      <use x="207.666016" xlink:href="#DejaVuSans-6f"/>
      <use x="268.847656" xlink:href="#DejaVuSans-73"/>
      <use x="320.947266" xlink:href="#DejaVuSans-70"/>
      <use x="384.423828" xlink:href="#DejaVuSans-68"/>
      <use x="447.802734" xlink:href="#DejaVuSans-65"/>
      <use x="509.326172" xlink:href="#DejaVuSans-6e"/>
      <use x="572.705078" xlink:href="#DejaVuSans-69"/>
      <use x="600.488281" xlink:href="#DejaVuSans-74"/>
      <use x="639.697266" xlink:href="#DejaVuSans-65"/>
     </g>
    </g>
    <g id="patch_138">
     <path d="M 484.109688 146.515375 
L 504.109688 146.515375 
L 504.109688 139.515375 
L 484.109688 139.515375 
z
" style="fill:#9467bd;"/>
    </g>
    <g id="text_25">
     <!-- limonite -->
     <defs>
      <path d="M 52 44.1875 
Q 55.375 50.25 60.0625 53.125 
Q 64.75 56 71.09375 56 
Q 79.640625 56 84.28125 50.015625 
Q 88.921875 44.046875 88.921875 33.015625 
L 88.921875 0 
L 79.890625 0 
L 79.890625 32.71875 
Q 79.890625 40.578125 77.09375 44.375 
Q 74.3125 48.1875 68.609375 48.1875 
Q 61.625 48.1875 57.5625 43.546875 
Q 53.515625 38.921875 53.515625 30.90625 
L 53.515625 0 
L 44.484375 0 
L 44.484375 32.71875 
Q 44.484375 40.625 41.703125 44.40625 
Q 38.921875 48.1875 33.109375 48.1875 
Q 26.21875 48.1875 22.15625 43.53125 
Q 18.109375 38.875 18.109375 30.90625 
L 18.109375 0 
L 9.078125 0 
L 9.078125 54.6875 
L 18.109375 54.6875 
L 18.109375 46.1875 
Q 21.1875 51.21875 25.484375 53.609375 
Q 29.78125 56 35.6875 56 
Q 41.65625 56 45.828125 52.96875 
Q 50 49.953125 52 44.1875 
" id="DejaVuSans-6d"/>
     </defs>
     <g transform="translate(512.109688 146.515375)scale(0.1 -0.1)">
      <use xlink:href="#DejaVuSans-6c"/>
      <use x="27.783203" xlink:href="#DejaVuSans-69"/>
      <use x="55.566406" xlink:href="#DejaVuSans-6d"/>
      <use x="152.978516" xlink:href="#DejaVuSans-6f"/>
      <use x="214.160156" xlink:href="#DejaVuSans-6e"/>
      <use x="277.539062" xlink:href="#DejaVuSans-69"/>
      <use x="305.322266" xlink:href="#DejaVuSans-74"/>
      <use x="344.53125" xlink:href="#DejaVuSans-65"/>
     </g>
    </g>
    <g id="patch_139">
     <path d="M 484.109688 161.1935 
L 504.109688 161.1935 
L 504.109688 154.1935 
L 484.109688 154.1935 
z
" style="fill:#8c564b;"/>
    </g>
    <g id="text_26">
     <!-- magnetite -->
     <g transform="translate(512.109688 161.1935)scale(0.1 -0.1)">
      <use xlink:href="#DejaVuSans-6d"/>
      <use x="97.412109" xlink:href="#DejaVuSans-61"/>
      <use x="158.691406" xlink:href="#DejaVuSans-67"/>
      <use x="222.167969" xlink:href="#DejaVuSans-6e"/>
      <use x="285.546875" xlink:href="#DejaVuSans-65"/>
      <use x="347.070312" xlink:href="#DejaVuSans-74"/>
      <use x="386.279297" xlink:href="#DejaVuSans-69"/>
      <use x="414.0625" xlink:href="#DejaVuSans-74"/>
      <use x="453.271484" xlink:href="#DejaVuSans-65"/>
     </g>
    </g>
    <g id="patch_140">
     <path d="M 484.109688 175.871625 
L 504.109688 175.871625 
L 504.109688 168.871625 
L 484.109688 168.871625 
z
" style="fill:#e377c2;"/>
    </g>
    <g id="text_27">
     <!-- pyrite -->
     <defs>
      <path d="M 32.171875 -5.078125 
Q 28.375 -14.84375 24.75 -17.8125 
Q 21.140625 -20.796875 15.09375 -20.796875 
L 7.90625 -20.796875 
L 7.90625 -13.28125 
L 13.1875 -13.28125 
Q 16.890625 -13.28125 18.9375 -11.515625 
Q 21 -9.765625 23.484375 -3.21875 
L 25.09375 0.875 
L 2.984375 54.6875 
L 12.5 54.6875 
L 29.59375 11.921875 
L 46.6875 54.6875 
L 56.203125 54.6875 
z
" id="DejaVuSans-79"/>
     </defs>
     <g transform="translate(512.109688 175.871625)scale(0.1 -0.1)">
      <use xlink:href="#DejaVuSans-70"/>
      <use x="63.476562" xlink:href="#DejaVuSans-79"/>
      <use x="122.65625" xlink:href="#DejaVuSans-72"/>
      <use x="163.769531" xlink:href="#DejaVuSans-69"/>
      <use x="191.552734" xlink:href="#DejaVuSans-74"/>
      <use x="230.761719" xlink:href="#DejaVuSans-65"/>
     </g>
    </g>
    <g id="patch_141">
     <path d="M 484.109688 190.54975 
L 504.109688 190.54975 
L 504.109688 183.54975 
L 484.109688 183.54975 
z
" style="fill:#7f7f7f;"/>
    </g>
    <g id="text_28">
     <!-- tourmaline -->
     <g transform="translate(512.109688 190.54975)scale(0.1 -0.1)">
      <use xlink:href="#DejaVuSans-74"/>
      <use x="39.208984" xlink:href="#DejaVuSans-6f"/>
      <use x="100.390625" xlink:href="#DejaVuSans-75"/>
      <use x="163.769531" xlink:href="#DejaVuSans-72"/>
      <use x="204.867188" xlink:href="#DejaVuSans-6d"/>
      <use x="302.279297" xlink:href="#DejaVuSans-61"/>
      <use x="363.558594" xlink:href="#DejaVuSans-6c"/>
      <use x="391.341797" xlink:href="#DejaVuSans-69"/>
      <use x="419.125" xlink:href="#DejaVuSans-6e"/>
      <use x="482.503906" xlink:href="#DejaVuSans-65"/>
     </g>
    </g>
    <g id="patch_142">
     <path d="M 484.109688 205.227875 
L 504.109688 205.227875 
L 504.109688 198.227875 
L 484.109688 198.227875 
z
" style="fill:#bcbd22;"/>
    </g>
    <g id="text_29">
     <!-- zircon -->
     <defs>
      <path d="M 5.515625 54.6875 
L 48.1875 54.6875 
L 48.1875 46.484375 
L 14.40625 7.171875 
L 48.1875 7.171875 
L 48.1875 0 
L 4.296875 0 
L 4.296875 8.203125 
L 38.09375 47.515625 
L 5.515625 47.515625 
z
" id="DejaVuSans-7a"/>
     </defs>
     <g transform="translate(512.109688 205.227875)scale(0.1 -0.1)">
      <use xlink:href="#DejaVuSans-7a"/>
      <use x="52.490234" xlink:href="#DejaVuSans-69"/>
      <use x="80.273438" xlink:href="#DejaVuSans-72"/>
      <use x="121.355469" xlink:href="#DejaVuSans-63"/>
      <use x="176.335938" xlink:href="#DejaVuSans-6f"/>
      <use x="237.517578" xlink:href="#DejaVuSans-6e"/>
     </g>
    </g>
   </g>
  </g>
 </g>
 <defs>
  <clipPath id="p028b9c46d2">
   <rect height="266.112" width="357.12" x="55.553125" y="10.7"/>
  </clipPath>
 </defs>
</svg>
