<?xml version="1.0" encoding="utf-8"?>
<!-- Generator: Adobe Illustrator 16.0.4, SVG Export Plug-In . SVG Version: 6.00 Build 0)  -->
<!DOCTYPE svg PUBLIC "-//W3C//DTD SVG 1.1//EN" "http://www.w3.org/Graphics/SVG/1.1/DTD/svg11.dtd">
<svg version="1.1" id="图层_1" xmlns="http://www.w3.org/2000/svg" xmlns:xlink="http://www.w3.org/1999/xlink" x="0px" y="0px"
	 width="307.67px" height="275.473px" viewBox="0 0 307.67 275.473" enable-background="new 0 0 307.67 275.473"
	 xml:space="preserve">
<polygon fill-rule="evenodd" clip-rule="evenodd" fill="none" stroke="#000000" stroke-width="0.4989" stroke-miterlimit="2.4142" points="
	0.426,275.223 307.247,275.223 154.856,0.512 0.426,275.223 "/>
<line fill="none" stroke="#000000" stroke-width="0.4989" stroke-miterlimit="2.4142" x1="306.737" y1="274.204" x2="38.906" y2="206.418"/>
<polyline fill-rule="evenodd" clip-rule="evenodd" fill="none" stroke="#000000" stroke-width="0.7087" stroke-miterlimit="2.4142" points="
	46.816,192.84 102.269,225.594 131.454,232.727 168.747,165.926 "/>
<line fill="none" stroke="#000000" stroke-width="0.7087" stroke-miterlimit="2.4142" x1="138.589" y1="138.037" x2="92.864" y2="219.108"/>
<line fill="none" stroke="#000000" stroke-width="0.3968" stroke-miterlimit="2.4142" x1="118.136" y1="229.061" x2="91.567" y2="274.561"/>
<line fill="none" stroke="#000000" stroke-width="0.7087" stroke-miterlimit="2.4142" x1="102.593" y1="226.243" x2="91.243" y2="274.237"/>
<line fill="none" stroke="#000000" stroke-width="0.3968" stroke-miterlimit="2.4142" x1="30.631" y1="269.315" x2="30.631" y2="275.458"/>
<line fill="none" stroke="#000000" stroke-width="0.3968" stroke-miterlimit="2.4142" x1="61.626" y1="269.315" x2="61.626" y2="275.458"/>
<line fill="none" stroke="#000000" stroke-width="0.3968" stroke-miterlimit="2.4142" x1="107.473" y1="269.315" x2="107.473" y2="275.458"/>
<line fill="none" stroke="#000000" stroke-width="0.3968" stroke-miterlimit="2.4142" x1="122.971" y1="269.315" x2="122.971" y2="275.458"/>
<line fill="none" stroke="#000000" stroke-width="0.3968" stroke-miterlimit="2.4142" x1="153.643" y1="269.315" x2="153.643" y2="275.458"/>
<line fill="none" stroke="#000000" stroke-width="0.3968" stroke-miterlimit="2.4142" x1="183.992" y1="269.315" x2="183.992" y2="275.458"/>
<line fill="none" stroke="#000000" stroke-width="0.3968" stroke-miterlimit="2.4142" x1="213.696" y1="269.315" x2="213.696" y2="275.458"/>
<line fill="none" stroke="#000000" stroke-width="0.3968" stroke-miterlimit="2.4142" x1="245.014" y1="269.315" x2="245.014" y2="275.458"/>
<line fill="none" stroke="#000000" stroke-width="0.3968" stroke-miterlimit="2.4142" x1="276.655" y1="269.315" x2="276.655" y2="275.458"/>
<line fill="none" stroke="#000000" stroke-width="0.3968" stroke-miterlimit="2.4142" x1="178.103" y1="271.09" x2="183.724" y2="274.838"/>
<line fill="none" stroke="#000000" stroke-width="0.3968" stroke-miterlimit="2.4142" x1="289.261" y1="253.381" x2="292.398" y2="248.362"/>
<line fill="none" stroke="#000000" stroke-width="0.3968" stroke-miterlimit="2.4142" x1="273.57" y1="225.768" x2="276.708" y2="220.747"/>
<line fill="none" stroke="#000000" stroke-width="0.3968" stroke-miterlimit="2.4142" x1="258.299" y1="197.735" x2="261.437" y2="192.715"/>
<line fill="none" stroke="#000000" stroke-width="0.3968" stroke-miterlimit="2.4142" x1="243.028" y1="169.704" x2="246.166" y2="164.682"/>
<line fill="none" stroke="#000000" stroke-width="0.3968" stroke-miterlimit="2.4142" x1="227.547" y1="141.671" x2="230.685" y2="136.65"/>
<line fill="none" stroke="#000000" stroke-width="0.3968" stroke-miterlimit="2.4142" x1="212.276" y1="114.476" x2="215.414" y2="109.455"/>
<line fill="none" stroke="#000000" stroke-width="0.3968" stroke-miterlimit="2.4142" x1="204.536" y1="100.668" x2="207.674" y2="95.647"/>
<line fill="none" stroke="#000000" stroke-width="0.3968" stroke-miterlimit="2.4142" x1="196.795" y1="86.861" x2="199.933" y2="81.841"/>
<line fill="none" stroke="#000000" stroke-width="0.3968" stroke-miterlimit="2.4142" x1="181.733" y1="59.875" x2="184.871" y2="54.854"/>
<line fill="none" stroke="#000000" stroke-width="0.3968" stroke-miterlimit="2.4142" x1="166.671" y1="32.47" x2="169.81" y2="27.449"/>
<line fill="none" stroke="#000000" stroke-width="0.3968" stroke-miterlimit="2.4142" x1="139.685" y1="27.24" x2="142.404" y2="32.052"/>
<line fill="none" stroke="#000000" stroke-width="0.3968" stroke-miterlimit="2.4142" x1="108.515" y1="82.887" x2="111.233" y2="87.698"/>
<line fill="none" stroke="#000000" stroke-width="0.3968" stroke-miterlimit="2.4142" x1="124.204" y1="55.9" x2="126.923" y2="60.712"/>
<line fill="none" stroke="#000000" stroke-width="0.3968" stroke-miterlimit="2.4142" x1="93.661" y1="110.5" x2="96.381" y2="115.312"/>
<line fill="none" stroke="#000000" stroke-width="0.3968" stroke-miterlimit="2.4142" x1="77.762" y1="137.486" x2="80.482" y2="142.298"/>
<line fill="none" stroke="#000000" stroke-width="0.3968" stroke-miterlimit="2.4142" x1="62.7" y1="166.147" x2="65.419" y2="170.958"/>
<line fill="none" stroke="#000000" stroke-width="0.3968" stroke-miterlimit="2.4142" x1="46.801" y1="193.342" x2="49.521" y2="198.155"/>
<line fill="none" stroke="#000000" stroke-width="0.3968" stroke-miterlimit="2.4142" x1="31.32" y1="220.747" x2="34.04" y2="225.559"/>
<line fill="none" stroke="#000000" stroke-width="0.3968" stroke-miterlimit="2.4142" x1="15.84" y1="248.362" x2="18.56" y2="253.172"/>
<text transform="matrix(1 0 0 1 36.3418 247.7339)"><tspan x="0" y="0" stroke="#000000" stroke-width="0.0567" stroke-miterlimit="2.4142" font-family="'TimesNewRomanPSMT'" font-size="7.9999">Trondhjemit</tspan><tspan x="44.392" y="0" stroke="#000000" stroke-width="0.0567" stroke-miterlimit="2.4142" font-family="'TimesNewRomanPSMT'" font-size="7.9999">e</tspan></text>
<text transform="matrix(0.9051 -0.4252 0.4252 0.9051 79.5859 179.6655)"><tspan x="0" y="0" stroke="#000000" stroke-width="0.0567" stroke-miterlimit="2.4142" font-family="'TimesNewRomanPSMT'" font-size="7.9999">Tonalit</tspan><tspan x="25.905" y="0" stroke="#000000" stroke-width="0.0567" stroke-miterlimit="2.4142" font-family="'TimesNewRomanPSMT'" font-size="7.9999">e</tspan></text>
<text transform="matrix(0.8895 -0.457 0.457 0.8895 114.375 202.5054)"><tspan x="0" y="0" stroke="#000000" stroke-width="0.0567" stroke-miterlimit="2.4142" font-family="'TimesNewRomanPSMT'" font-size="7.9999">Granodiorit</tspan><tspan x="41.723" y="0" stroke="#000000" stroke-width="0.0567" stroke-miterlimit="2.4142" font-family="'TimesNewRomanPSMT'" font-size="7.9999">e</tspan></text>
<text transform="matrix(0.9692 0.2461 -0.2461 0.9692 136.3604 240.4087)"><tspan x="0" y="0" stroke="#000000" stroke-width="0.0567" stroke-miterlimit="2.4142" font-family="'TimesNewRomanPSMT'" font-size="7.9999">Granit</tspan><tspan x="22.837" y="0" stroke="#000000" stroke-width="0.0567" stroke-miterlimit="2.4142" font-family="'TimesNewRomanPSMT'" font-size="7.9999">e</tspan></text>
<text transform="matrix(1 0 0 1 58.0928 265.8257)"><tspan x="0" y="0" stroke="#000000" stroke-width="0.0567" stroke-miterlimit="2.4142" font-family="'TimesNewRomanPSMT'" font-size="6.0001">2</tspan><tspan x="3.3" y="0" stroke="#000000" stroke-width="0.0567" stroke-miterlimit="2.4142" font-family="'TimesNewRomanPSMT'" font-size="6.0001">0</tspan></text>
<text transform="matrix(1 0 0 1 88.9937 266.1812)"><tspan x="0" y="0" stroke="#000000" stroke-width="0.0567" stroke-miterlimit="2.4142" font-family="'TimesNewRomanPSMT'" font-size="6.0001">3</tspan><tspan x="3.3" y="0" stroke="#000000" stroke-width="0.0567" stroke-miterlimit="2.4142" font-family="'TimesNewRomanPSMT'" font-size="6.0001">0</tspan></text>
<text transform="matrix(1 0 0 1 103.5562 265.8257)"><tspan x="0" y="0" stroke="#000000" stroke-width="0.0567" stroke-miterlimit="2.4142" font-family="'TimesNewRomanPSMT'" font-size="6.0001">3</tspan><tspan x="3.3" y="0" stroke="#000000" stroke-width="0.0567" stroke-miterlimit="2.4142" font-family="'TimesNewRomanPSMT'" font-size="6.0001">5</tspan></text>
<text transform="matrix(1 0 0 1 150.085 266.5356)"><tspan x="0" y="0" stroke="#000000" stroke-width="0.0567" stroke-miterlimit="2.4142" font-family="'TimesNewRomanPSMT'" font-size="6.0001">5</tspan><tspan x="3.301" y="0" stroke="#000000" stroke-width="0.0567" stroke-miterlimit="2.4142" font-family="'TimesNewRomanPSMT'" font-size="6.0001">0</tspan></text>
<text transform="matrix(1 0 0 1 180.2754 266.1812)"><tspan x="0" y="0" stroke="#000000" stroke-width="0.0567" stroke-miterlimit="2.4142" font-family="'TimesNewRomanPSMT'" font-size="6.0001">6</tspan><tspan x="3.3" y="0" stroke="#000000" stroke-width="0.0567" stroke-miterlimit="2.4142" font-family="'TimesNewRomanPSMT'" font-size="6.0001">0</tspan></text>
<text transform="matrix(1 0 0 1 29.3711 205.7808)"><tspan x="0" y="0" stroke="#000000" stroke-width="0.0567" stroke-miterlimit="2.4142" font-family="'TimesNewRomanPSMT'" font-size="6.0001">7</tspan><tspan x="3.3" y="0" stroke="#000000" stroke-width="0.0567" stroke-miterlimit="2.4142" font-family="'TimesNewRomanPSMT'" font-size="6.0001">5</tspan></text>
<text transform="matrix(1 0 0 1 37.8506 192.104)"><tspan x="0" y="0" stroke="#000000" stroke-width="0.0567" stroke-miterlimit="2.4142" font-family="'TimesNewRomanPSMT'" font-size="6.0001">7</tspan><tspan x="3.3" y="0" stroke="#000000" stroke-width="0.0567" stroke-miterlimit="2.4142" font-family="'TimesNewRomanPSMT'" font-size="6.0001">0</tspan></text>
<text transform="matrix(1 0 0 1 186.2197 52.3242)"><tspan x="0" y="0" stroke="#000000" stroke-width="0.0567" stroke-miterlimit="2.4142" font-family="'TimesNewRomanPSMT'" font-size="6.0001">8</tspan><tspan x="3.301" y="0" stroke="#000000" stroke-width="0.0567" stroke-miterlimit="2.4142" font-family="'TimesNewRomanPSMT'" font-size="6.0001">0</tspan></text>
<text transform="matrix(1 0 0 1 202.7295 80.021)"><tspan x="0" y="0" stroke="#000000" stroke-width="0.0567" stroke-miterlimit="2.4142" font-family="'TimesNewRomanPSMT'" font-size="6.0001">7</tspan><tspan x="3.301" y="0" stroke="#000000" stroke-width="0.0567" stroke-miterlimit="2.4142" font-family="'TimesNewRomanPSMT'" font-size="6.0001">0</tspan></text>
<text transform="matrix(1 0 0 1 209.6943 93.5674)"><tspan x="0" y="0" stroke="#000000" stroke-width="0.0567" stroke-miterlimit="2.4142" font-family="'TimesNewRomanPSMT'" font-size="6.0001">6</tspan><tspan x="3.301" y="0" stroke="#000000" stroke-width="0.0567" stroke-miterlimit="2.4142" font-family="'TimesNewRomanPSMT'" font-size="6.0001">5</tspan></text>
<text transform="matrix(1 0 0 1 232.5557 135.105)"><tspan x="0" y="0" stroke="#000000" stroke-width="0.0567" stroke-miterlimit="2.4142" font-family="'TimesNewRomanPSMT'" font-size="6.0001">5</tspan><tspan x="3.301" y="0" stroke="#000000" stroke-width="0.0567" stroke-miterlimit="2.4142" font-family="'TimesNewRomanPSMT'" font-size="6.0001">0</tspan></text>
<text transform="matrix(1 0 0 1 10.0229 269.3159)"><tspan x="0" y="0" stroke="#000000" stroke-width="0.0567" stroke-miterlimit="2.4142" font-family="'TimesNewRomanPSMT'" font-size="7.9999">A</tspan><tspan x="6.177" y="0" stroke="#000000" stroke-width="0.0567" stroke-miterlimit="2.4142" font-family="'TimesNewRomanPSMT'" font-size="7.9999">b</tspan></text>
<text transform="matrix(1 0 0 1 282.4639 263.2661)"><tspan x="0" y="0" stroke="#000000" stroke-width="0.0567" stroke-miterlimit="2.4142" font-family="'TimesNewRomanPSMT'" font-size="7.9999">O</tspan><tspan x="6.178" y="0" stroke="#000000" stroke-width="0.0567" stroke-miterlimit="2.4142" font-family="'TimesNewRomanPSMT'" font-size="7.9999">r</tspan></text>
<text transform="matrix(1 0 0 1 150.085 17.4189)"><tspan x="0" y="0" stroke="#000000" stroke-width="0.0567" stroke-miterlimit="2.4142" font-family="'TimesNewRomanPSMT'" font-size="7.9999">A</tspan><tspan x="6.177" y="0" stroke="#000000" stroke-width="0.0567" stroke-miterlimit="2.4142" font-family="'TimesNewRomanPSMT'" font-size="7.9999">n</tspan></text>
</svg>
