<?xml version="1.0" encoding="utf-8"?>
<!-- Generator: Adobe Illustrator 16.0.4, SVG Export Plug-In . SVG Version: 6.00 Build 0)  -->
<!DOCTYPE svg PUBLIC "-//W3C//DTD SVG 1.1//EN" "http://www.w3.org/Graphics/SVG/1.1/DTD/svg11.dtd">
<svg version="1.1" id="图层_1" xmlns="http://www.w3.org/2000/svg" xmlns:xlink="http://www.w3.org/1999/xlink" x="0px" y="0px"
	 width="304.254px" height="268.448px" viewBox="0 0 304.254 268.448" enable-background="new 0 0 304.254 268.448"
	 xml:space="preserve">
<path fill-rule="evenodd" clip-rule="evenodd" fill="none" stroke="#000000" stroke-width="0.5" stroke-miterlimit="2.4142" d="
	M176.471,139.209c-29.723,17.16-29.723,17.16-29.723,17.16s-0.307-0.919-27.272,12.563c-26.965,13.482-41.061,20.225-57.301,29.723
	c-16.241,9.5-21.144,12.871-21.144,12.871"/>
<polygon fill-rule="evenodd" clip-rule="evenodd" fill="none" stroke="#000000" stroke-width="0.4989" stroke-miterlimit="2.4142" points="
	0.43,267.981 303.827,267.981 153.137,0.506 0.43,267.981 "/>
<line fill="none" stroke="#000000" stroke-width="0.3968" stroke-miterlimit="2.4142" x1="30.297" y1="262.229" x2="30.297" y2="268.209"/>
<line fill="none" stroke="#000000" stroke-width="0.3968" stroke-miterlimit="2.4142" x1="59.52" y1="262.229" x2="59.52" y2="268.209"/>
<line fill="none" stroke="#000000" stroke-width="0.3968" stroke-miterlimit="2.4142" x1="90.11" y1="262.467" x2="90.11" y2="268.448"/>
<line fill="none" stroke="#000000" stroke-width="0.3968" stroke-miterlimit="2.4142" x1="121.131" y1="262.229" x2="121.131" y2="268.209"/>
<line fill="none" stroke="#000000" stroke-width="0.3968" stroke-miterlimit="2.4142" x1="150.51" y1="262.229" x2="150.51" y2="268.209"/>
<line fill="none" stroke="#000000" stroke-width="0.3968" stroke-miterlimit="2.4142" x1="181.947" y1="262.229" x2="181.947" y2="268.209"/>
<line fill="none" stroke="#000000" stroke-width="0.3968" stroke-miterlimit="2.4142" x1="211.32" y1="262.229" x2="211.32" y2="268.209"/>
<line fill="none" stroke="#000000" stroke-width="0.3968" stroke-miterlimit="2.4142" x1="242.289" y1="262.229" x2="242.289" y2="268.209"/>
<line fill="none" stroke="#000000" stroke-width="0.3968" stroke-miterlimit="2.4142" x1="273.576" y1="262.229" x2="273.576" y2="268.209"/>
<line fill="none" stroke="#000000" stroke-width="0.3968" stroke-miterlimit="2.4142" x1="286.041" y1="246.715" x2="289.145" y2="241.827"/>
<line fill="none" stroke="#000000" stroke-width="0.3968" stroke-miterlimit="2.4142" x1="270.526" y1="219.829" x2="273.629" y2="214.94"/>
<line fill="none" stroke="#000000" stroke-width="0.3968" stroke-miterlimit="2.4142" x1="255.426" y1="192.534" x2="258.528" y2="187.647"/>
<line fill="none" stroke="#000000" stroke-width="0.3968" stroke-miterlimit="2.4142" x1="240.324" y1="165.241" x2="243.428" y2="160.353"/>
<line fill="none" stroke="#000000" stroke-width="0.3968" stroke-miterlimit="2.4142" x1="225.017" y1="137.946" x2="228.119" y2="133.058"/>
<line fill="none" stroke="#000000" stroke-width="0.3968" stroke-miterlimit="2.4142" x1="209.916" y1="111.467" x2="213.019" y2="106.579"/>
<line fill="none" stroke="#000000" stroke-width="0.3968" stroke-miterlimit="2.4142" x1="202.262" y1="98.023" x2="205.365" y2="93.136"/>
<line fill="none" stroke="#000000" stroke-width="0.3968" stroke-miterlimit="2.4142" x1="194.607" y1="84.58" x2="197.711" y2="79.692"/>
<line fill="none" stroke="#000000" stroke-width="0.3968" stroke-miterlimit="2.4142" x1="179.713" y1="58.305" x2="182.816" y2="53.416"/>
<line fill="none" stroke="#000000" stroke-width="0.3968" stroke-miterlimit="2.4142" x1="164.819" y1="31.622" x2="167.922" y2="26.733"/>
<line fill="none" stroke="#000000" stroke-width="0.3968" stroke-miterlimit="2.4142" x1="138.134" y1="26.529" x2="140.823" y2="31.215"/>
<line fill="none" stroke="#000000" stroke-width="0.3968" stroke-miterlimit="2.4142" x1="107.312" y1="80.71" x2="110.001" y2="85.396"/>
<line fill="none" stroke="#000000" stroke-width="0.3968" stroke-miterlimit="2.4142" x1="122.826" y1="54.435" x2="125.516" y2="59.119"/>
<line fill="none" stroke="#000000" stroke-width="0.3968" stroke-miterlimit="2.4142" x1="92.624" y1="107.597" x2="95.313" y2="112.282"/>
<line fill="none" stroke="#000000" stroke-width="0.3968" stroke-miterlimit="2.4142" x1="76.902" y1="133.872" x2="79.592" y2="138.558"/>
<line fill="none" stroke="#000000" stroke-width="0.3968" stroke-miterlimit="2.4142" x1="62.008" y1="161.778" x2="64.698" y2="166.463"/>
<line fill="none" stroke="#000000" stroke-width="0.3968" stroke-miterlimit="2.4142" x1="46.287" y1="188.256" x2="48.976" y2="192.942"/>
<line fill="none" stroke="#000000" stroke-width="0.3968" stroke-miterlimit="2.4142" x1="30.979" y1="214.94" x2="33.668" y2="219.625"/>
<line fill="none" stroke="#000000" stroke-width="0.3968" stroke-miterlimit="2.4142" x1="15.671" y1="241.827" x2="18.36" y2="246.512"/>
<text transform="matrix(1 0 0 1 265.2441 253.686)" stroke="#000000" stroke-width="0.0567" stroke-miterlimit="2.4142" font-family="'TimesNewRomanPSMT'" font-size="7.9999">M</text>
<text transform="matrix(1 0 0 1 16.7588 253.686)" stroke="#000000" stroke-width="0.0567" stroke-miterlimit="2.4142" font-family="'TimesNewRomanPSMT'" font-size="7.9999">A</text>
<text transform="matrix(1 0 0 1 114.4575 23.9619)" stroke="#000000" stroke-width="0.0567" stroke-miterlimit="2.4142" font-family="'TimesNewRomanPSMT'" font-size="7.9999">F</text>
<text transform="matrix(1 0 0 1 101.2925 13.8115)" stroke="#000000" stroke-width="0.0567" stroke-miterlimit="2.4142" font-family="'TimesNewRomanPSMT'" font-size="7.9999">(FeO</text>
<text transform="matrix(0.583 0 0 0.583 119.3335 16.4756)" stroke="#000000" stroke-width="0.0567" stroke-miterlimit="2.4142" font-family="'TimesNewRomanPSMT'" font-size="7.9999">total</text>
<text transform="matrix(1 0 0 1 129.623 13.8115)" stroke="#000000" stroke-width="0.0567" stroke-miterlimit="2.4142" font-family="'TimesNewRomanPSMT'" font-size="7.9999">)</text>
<text transform="matrix(1 0 0 1 258.5283 261.7847)"><tspan x="0" y="0" stroke="#000000" stroke-width="0.0567" stroke-miterlimit="2.4142" font-family="'TimesNewRomanPSMT'" font-size="7.9999">(MgO</tspan><tspan x="21.154" y="0" stroke="#000000" stroke-width="0.0567" stroke-miterlimit="2.4142" font-family="'TimesNewRomanPSMT'" font-size="7.9999">)</tspan></text>
<text transform="matrix(1 0 0 1 7.3799 261.4321)" stroke="#000000" stroke-width="0.0567" stroke-miterlimit="2.4142" font-family="'TimesNewRomanPSMT'" font-size="7.9999">(Na</text>
<text transform="matrix(0.583 0 0 0.583 20.5718 264.0962)" stroke="#000000" stroke-width="0.0567" stroke-miterlimit="2.4142" font-family="'TimesNewRomanPSMT'" font-size="7.9999">2</text>
<text transform="matrix(1 0 0 1 23.3037 261.4321)" stroke="#000000" stroke-width="0.0567" stroke-miterlimit="2.4142" font-family="'TimesNewRomanPSMT'" font-size="7.9999">O + </text>
<text transform="matrix(1 0 0 1 37.5928 261.4321)" stroke="#000000" stroke-width="0.0567" stroke-miterlimit="2.4142" font-family="'TimesNewRomanPSMT'" font-size="7.9999">K</text>
<text transform="matrix(0.583 0 0 0.583 43.77 264.0962)" stroke="#000000" stroke-width="0.0567" stroke-miterlimit="2.4142" font-family="'TimesNewRomanPSMT'" font-size="7.9999">2</text>
<text transform="matrix(1 0 0 1 46.502 261.4321)" stroke="#000000" stroke-width="0.0567" stroke-miterlimit="2.4142" font-family="'TimesNewRomanPSMT'" font-size="7.9999">O</text>
<text transform="matrix(1 0 0 1 52.6797 261.4321)" stroke="#000000" stroke-width="0.0567" stroke-miterlimit="2.4142" font-family="'TimesNewRomanPSMT'" font-size="7.9999">)</text>
<text transform="matrix(1 0 0 1 123.6978 77.7612)"><tspan x="0" y="0" stroke="#000000" stroke-width="0.0567" stroke-miterlimit="2.4142" font-family="'TimesNewRomanPSMT'" font-size="6.0001">THOLEIITI</tspan><tspan x="32.021" y="0" stroke="#000000" stroke-width="0.0567" stroke-miterlimit="2.4142" font-family="'TimesNewRomanPSMT'" font-size="6.0001">C </tspan><tspan x="37.523" y="0" stroke="#000000" stroke-width="0.0567" stroke-miterlimit="2.4142" font-family="'TimesNewRomanPSMT'" font-size="6.0001">SERIE</tspan><tspan x="55.69" y="0" stroke="#000000" stroke-width="0.0567" stroke-miterlimit="2.4142" font-family="'TimesNewRomanPSMT'" font-size="6.0001">S</tspan></text>
<text transform="matrix(0.8015 -0.598 0.598 0.8015 94.7686 134.6748)"><tspan x="0" y="0" stroke="#000000" stroke-width="0.0567" stroke-miterlimit="2.4142" font-family="'TimesNewRomanPSMT'" font-size="7.9999">Thingmul</tspan><tspan x="34.754" y="0" stroke="#000000" stroke-width="0.0567" stroke-miterlimit="2.4142" font-family="'TimesNewRomanPSMT'" font-size="7.9999">i </tspan><tspan x="38.977" y="-0.001" stroke="#000000" stroke-width="0.0567" stroke-miterlimit="2.4142" font-family="'TimesNewRomanPSMT'" font-size="7.9999">volcan</tspan><tspan x="62.701" y="0" stroke="#000000" stroke-width="0.0567" stroke-miterlimit="2.4142" font-family="'TimesNewRomanPSMT'" font-size="7.9999">o</tspan></text>
<text transform="matrix(1 0 0 1 203.6855 143.1792)"><tspan x="0" y="0" stroke="#000000" stroke-width="0.0567" stroke-miterlimit="2.4142" font-family="'TimesNewRomanPSMT'" font-size="7.9999">Kun</tspan><tspan x="14.978" y="0" stroke="#000000" stroke-width="0.0567" stroke-miterlimit="2.4142" font-family="'TimesNewRomanPSMT'" font-size="7.9999">o</tspan><tspan x="0" y="8" stroke="#000000" stroke-width="0.0567" stroke-miterlimit="2.4142" font-family="'TimesNewRomanPSMT'" font-size="7.9999">(1968</tspan><tspan x="20.664" y="8" stroke="#000000" stroke-width="0.0567" stroke-miterlimit="2.4142" font-family="'TimesNewRomanPSMT'" font-size="7.9999">)</tspan></text>
<text transform="matrix(0.8763 -0.4817 0.4817 0.8763 75.1309 201.7183)"><tspan x="0" y="0" stroke="#000000" stroke-width="0.0567" stroke-miterlimit="2.4142" font-family="'TimesNewRomanPSMT'" font-size="7.9999">Cascade</tspan><tspan x="29.452" y="0" stroke="#000000" stroke-width="0.0567" stroke-miterlimit="2.4142" font-family="'TimesNewRomanPSMT'" font-size="7.9999">s </tspan><tspan x="34.566" y="0" stroke="#000000" stroke-width="0.0567" stroke-miterlimit="2.4142" font-family="'TimesNewRomanPSMT'" font-size="7.9999">lava</tspan><tspan x="49.489" y="0.001" stroke="#000000" stroke-width="0.0567" stroke-miterlimit="2.4142" font-family="'TimesNewRomanPSMT'" font-size="7.9999">s</tspan></text>
<text transform="matrix(1 0 0 1 161.4619 182.1323)"><tspan x="0" y="0" stroke="#000000" stroke-width="0.0567" stroke-miterlimit="2.4142" font-family="'TimesNewRomanPSMT'" font-size="7.9999">Irvin</tspan><tspan x="17.551" y="0" stroke="#000000" stroke-width="0.0567" stroke-miterlimit="2.4142" font-family="'TimesNewRomanPSMT'" font-size="7.9999">e </tspan><tspan x="23.102" y="0" stroke="#000000" stroke-width="0.0567" stroke-miterlimit="2.4142" font-family="'TimesNewRomanPSMT'" font-size="7.9999">an</tspan><tspan x="31.452" y="0" stroke="#000000" stroke-width="0.0567" stroke-miterlimit="2.4142" font-family="'TimesNewRomanPSMT'" font-size="7.9999">d </tspan><tspan x="37.452" y="0" stroke="#000000" stroke-width="0.0567" stroke-miterlimit="2.4142" font-family="'TimesNewRomanPSMT'" font-size="7.9999">Baraga</tspan><tspan x="62.504" y="0" stroke="#000000" stroke-width="0.0567" stroke-miterlimit="2.4142" font-family="'TimesNewRomanPSMT'" font-size="7.9999">r</tspan><tspan x="0" y="8" stroke="#000000" stroke-width="0.0567" stroke-miterlimit="2.4142" font-family="'TimesNewRomanPSMT'" font-size="7.9999">           </tspan><tspan x="22" y="8" stroke="#000000" stroke-width="0.0567" stroke-miterlimit="2.4142" font-family="'TimesNewRomanPSMT'" font-size="7.9999">(1971</tspan><tspan x="42.663" y="8" stroke="#000000" stroke-width="0.0567" stroke-miterlimit="2.4142" font-family="'TimesNewRomanPSMT'" font-size="7.9999">)</tspan></text>
<text transform="matrix(1 0 0 1 116.8584 214.8413)"><tspan x="0" y="0" stroke="#000000" stroke-width="0.0567" stroke-miterlimit="2.4142" font-family="'TimesNewRomanPSMT'" font-size="6.0001">CALC-ALKALIN</tspan><tspan x="48.261" y="0" stroke="#000000" stroke-width="0.0567" stroke-miterlimit="2.4142" font-family="'TimesNewRomanPSMT'" font-size="6.0001">E </tspan><tspan x="53.426" y="0" stroke="#000000" stroke-width="0.0567" stroke-miterlimit="2.4142" font-family="'TimesNewRomanPSMT'" font-size="6.0001">SERIE</tspan><tspan x="71.593" y="0" stroke="#000000" stroke-width="0.0567" stroke-miterlimit="2.4142" font-family="'TimesNewRomanPSMT'" font-size="6.0001">S</tspan></text>
<circle fill-rule="evenodd" clip-rule="evenodd" fill="#FFFFFF" stroke="#000000" stroke-width="0.4989" stroke-miterlimit="2.4142" cx="174.097" cy="140.177" r="1.582"/>
<path fill-rule="evenodd" clip-rule="evenodd" fill="none" stroke="#000000" stroke-width="0.5" stroke-miterlimit="2.4142" d="
	M23.565,230.217c40.142-52.398,67.414-91.315,101.733-113.377c34.319-22.062,34.319-24.207,37.69-19.611
	c3.371,4.597,34.626,45.352,35.545,47.803"/>
<path fill-rule="evenodd" clip-rule="evenodd" fill="none" stroke="#000000" stroke-width="1.7008" stroke-miterlimit="2.4142" d="
	M71.674,171.077c33.4-23.288,75.074-61.285,89.783-47.801c14.708,13.482,43.818,50.559,43.818,50.559"/>
<path fill-rule="evenodd" clip-rule="evenodd" fill="none" stroke="#000000" stroke-width="1.7008" stroke-miterlimit="2.4142" d="
	M46.24,204.172c50.867-49.029,89.783-82.736,102.04-88.251s23.595-11.031,55.463,19.611"/>
<circle fill-rule="evenodd" clip-rule="evenodd" stroke="#000000" stroke-width="0.216" stroke-miterlimit="2.4142" cx="105.441" cy="115.984" r="1.582"/>
<circle fill-rule="evenodd" clip-rule="evenodd" stroke="#000000" stroke-width="0.216" stroke-miterlimit="2.4142" cx="110.957" cy="131.306" r="1.582"/>
<circle fill-rule="evenodd" clip-rule="evenodd" stroke="#000000" stroke-width="0.216" stroke-miterlimit="2.4142" cx="90.12" cy="134.983" r="1.582"/>
<circle fill-rule="evenodd" clip-rule="evenodd" stroke="#000000" stroke-width="0.216" stroke-miterlimit="2.4142" cx="83.379" cy="143.562" r="1.582"/>
<circle fill-rule="evenodd" clip-rule="evenodd" stroke="#000000" stroke-width="0.216" stroke-miterlimit="2.4142" cx="136.697" cy="110.469" r="1.582"/>
<circle fill-rule="evenodd" clip-rule="evenodd" stroke="#000000" stroke-width="0.216" stroke-miterlimit="2.4142" cx="144.97" cy="104.34" r="1.582"/>
<circle fill-rule="evenodd" clip-rule="evenodd" stroke="#000000" stroke-width="0.216" stroke-miterlimit="2.4142" cx="154.163" cy="98.825" r="1.582"/>
<circle fill-rule="evenodd" clip-rule="evenodd" stroke="#000000" stroke-width="0.216" stroke-miterlimit="2.4142" cx="160.598" cy="93.002" r="1.582"/>
<circle fill-rule="evenodd" clip-rule="evenodd" stroke="#000000" stroke-width="0.216" stroke-miterlimit="2.4142" cx="170.097" cy="105.259" r="1.582"/>
<circle fill-rule="evenodd" clip-rule="evenodd" stroke="#000000" stroke-width="0.216" stroke-miterlimit="2.4142" cx="165.501" cy="98.518" r="1.582"/>
<circle fill-rule="evenodd" clip-rule="evenodd" stroke="#000000" stroke-width="0.216" stroke-miterlimit="2.4142" cx="184.499" cy="126.709" r="1.582"/>
<circle fill-rule="evenodd" clip-rule="evenodd" stroke="#000000" stroke-width="0.216" stroke-miterlimit="2.4142" cx="193.386" cy="134.983" r="1.582"/>
<circle fill-rule="evenodd" clip-rule="evenodd" stroke="#000000" stroke-width="0.216" stroke-miterlimit="2.4142" cx="46.914" cy="195.655" r="1.582"/>
<circle fill-rule="evenodd" clip-rule="evenodd" stroke="#000000" stroke-width="0.216" stroke-miterlimit="2.4142" cx="44.156" cy="201.17" r="1.582"/>
<circle fill-rule="evenodd" clip-rule="evenodd" stroke="#000000" stroke-width="0.216" stroke-miterlimit="2.4142" cx="31.899" cy="213.427" r="1.581"/>
<circle fill-rule="evenodd" clip-rule="evenodd" stroke="#000000" stroke-width="0.216" stroke-miterlimit="2.4142" cx="31.516" cy="218.403" r="1.582"/>
<circle fill-rule="evenodd" clip-rule="evenodd" stroke="#000000" stroke-width="0.216" stroke-miterlimit="2.4142" cx="28.838" cy="220.698" r="1.582"/>
<circle fill-rule="evenodd" clip-rule="evenodd" fill="#FFFFFF" stroke="#000000" stroke-width="0.4989" stroke-miterlimit="2.4142" cx="147.62" cy="155.739" r="1.582"/>
<circle fill-rule="evenodd" clip-rule="evenodd" fill="#FFFFFF" stroke="#000000" stroke-width="0.4989" stroke-miterlimit="2.4142" cx="119.931" cy="168.674" r="1.582"/>
<circle fill-rule="evenodd" clip-rule="evenodd" fill="#FFFFFF" stroke="#000000" stroke-width="0.4989" stroke-miterlimit="2.4142" cx="62.329" cy="199.193" r="1.581"/>
<circle fill-rule="evenodd" clip-rule="evenodd" fill="#FFFFFF" stroke="#000000" stroke-width="0.4989" stroke-miterlimit="2.4142" cx="41.714" cy="210.915" r="1.582"/>
</svg>
