<?xml version="1.0" encoding="utf-8"?>
<!-- Generator: Adobe Illustrator 16.0.4, SVG Export Plug-In . SVG Version: 6.00 Build 0)  -->
<!DOCTYPE svg PUBLIC "-//W3C//DTD SVG 1.1//EN" "http://www.w3.org/Graphics/SVG/1.1/DTD/svg11.dtd">
<svg version="1.1" id="图层_1" xmlns="http://www.w3.org/2000/svg" xmlns:xlink="http://www.w3.org/1999/xlink" x="0px" y="0px"
	 width="327.795px" height="246.164px" viewBox="0 0 327.795 246.164" enable-background="new 0 0 327.795 246.164"
	 xml:space="preserve">
<rect x="0.5" y="0.5" fill="none" stroke="#000000" stroke-width="1.0001" stroke-miterlimit="2.4142" width="326.795" height="245.164"/>
<line fill="none" stroke="#000000" stroke-width="0.5" stroke-miterlimit="2.4142" x1="110.048" y1="0.699" x2="110.048" y2="245.494"/>
<line fill="none" stroke="#000000" stroke-width="0.5" stroke-miterlimit="2.4142" x1="0.525" y1="188.11" x2="327.217" y2="188.11"/>
<line fill="none" stroke="#000000" stroke-width="0.5" stroke-miterlimit="2.4142" x1="0.483" y1="239.127" x2="327.252" y2="89.205"/>
<text transform="matrix(1 0 0 1 163.5156 86.0356)"><tspan x="0" y="0" font-family="'TimesNewRomanPSMT'" font-size="14.8366">Peraluminou</tspan><tspan x="83.98" y="0" font-family="'TimesNewRomanPSMT'" font-size="14.8366">s</tspan></text>
<text transform="matrix(1 0 0 1 7.8452 204.6719)"><tspan x="0" y="0" font-family="'TimesNewRomanPSMT'" font-size="14.8366">Peralklin</tspan><tspan x="60.242" y="0" font-family="'TimesNewRomanPSMT'" font-size="14.8366">e</tspan></text>
<text transform="matrix(1 0 0 1 10.9839 177.0508)"><tspan x="0" y="0" font-family="'TimesNewRomanPSMT'" font-size="14.8366">Metaluminou</tspan><tspan x="88.103" y="0" font-family="'TimesNewRomanPSMT'" font-size="14.8366">s</tspan></text>
<g>
	
		<line fill="none" stroke="#000000" stroke-width="0.5" stroke-miterlimit="2.4142" x1="132.521" y1="245.555" x2="132.521" y2="239.287"/>
	
		<line fill="none" stroke="#000000" stroke-width="0.5" stroke-miterlimit="2.4142" x1="154.937" y1="245.555" x2="154.937" y2="239.287"/>
	
		<line fill="none" stroke="#000000" stroke-width="0.5" stroke-miterlimit="2.4142" x1="175.316" y1="245.555" x2="175.316" y2="239.287"/>
	
		<line fill="none" stroke="#000000" stroke-width="0.5" stroke-miterlimit="2.4142" x1="197.42" y1="245.555" x2="197.42" y2="239.287"/>
	
		<line fill="none" stroke="#000000" stroke-width="0.5" stroke-miterlimit="2.4142" x1="219.837" y1="245.555" x2="219.837" y2="239.287"/>
	<line fill="none" stroke="#000000" stroke-width="0.5" stroke-miterlimit="2.4142" x1="241" y1="245.555" x2="241" y2="239.287"/>
	
		<line fill="none" stroke="#000000" stroke-width="0.5" stroke-miterlimit="2.4142" x1="262.789" y1="245.555" x2="262.789" y2="239.287"/>
	
		<line fill="none" stroke="#000000" stroke-width="0.5" stroke-miterlimit="2.4142" x1="283.796" y1="245.555" x2="283.796" y2="239.287"/>
	
		<line fill="none" stroke="#000000" stroke-width="0.5" stroke-miterlimit="2.4142" x1="305.115" y1="245.555" x2="305.115" y2="239.287"/>
</g>
<text transform="matrix(1 0 0 1 98.0869 239.2871)" font-family="'TimesNewRomanPSMT'" font-size="14.8366">1</text>
<text transform="matrix(1 0 0 1 312.2363 229.1094)" font-family="'TimesNewRomanPSMT'" font-size="14.8366">2</text>
<g>
	
		<line fill="none" stroke="#000000" stroke-width="0.5" stroke-miterlimit="2.4142" x1="0.507" y1="229.109" x2="6.491" y2="229.109"/>
	
		<line fill="none" stroke="#000000" stroke-width="0.5" stroke-miterlimit="2.4142" x1="0.507" y1="208.547" x2="6.491" y2="208.547"/>
	
		<line fill="none" stroke="#000000" stroke-width="0.5" stroke-miterlimit="2.4142" x1="0.507" y1="171.559" x2="6.491" y2="171.559"/>
	
		<line fill="none" stroke="#000000" stroke-width="0.5" stroke-miterlimit="2.4142" x1="0.507" y1="152.85" x2="6.491" y2="152.85"/>
	
		<line fill="none" stroke="#000000" stroke-width="0.5" stroke-miterlimit="2.4142" x1="0.507" y1="134.426" x2="6.491" y2="134.426"/>
	
		<line fill="none" stroke="#000000" stroke-width="0.5" stroke-miterlimit="2.4142" x1="0.507" y1="114.721" x2="6.491" y2="114.721"/>
	
		<line fill="none" stroke="#000000" stroke-width="0.5" stroke-miterlimit="2.4142" x1="0.507" y1="76.922" x2="6.491" y2="76.922"/>
	
		<line fill="none" stroke="#000000" stroke-width="0.5" stroke-miterlimit="2.4142" x1="0.507" y1="97.392" x2="6.491" y2="97.392"/>
	
		<line fill="none" stroke="#000000" stroke-width="0.5" stroke-miterlimit="2.4142" x1="0.507" y1="58.213" x2="6.491" y2="58.213"/>
	
		<line fill="none" stroke="#000000" stroke-width="0.5" stroke-miterlimit="2.4142" x1="0.507" y1="39.647" x2="6.491" y2="39.647"/>
	
		<line fill="none" stroke="#000000" stroke-width="0.5" stroke-miterlimit="2.4142" x1="0.507" y1="21.082" x2="6.491" y2="21.082"/>
</g>
<g>
	<text transform="matrix(1 0 0 1 2.1226 200.0488)" font-family="'TimesNewRomanPSMT'" font-size="14.8366">1</text>
	<text transform="matrix(1 0 0 1 0.9277 110.5776)" font-family="'TimesNewRomanPSMT'" font-size="14.8366">2</text>
	<text transform="matrix(1 0 0 1 1.5439 13.6997)" font-family="'TimesNewRomanPSMT'" font-size="14.8366">3</text>
</g>
<text transform="matrix(2.400000e-04 -0.849 1 2.037522e-04 26.3188 155.1455)" font-family="'TimesNewRomanPSMT'" font-size="14.8366">Al</text>
<text transform="matrix(1.399200e-04 -0.4949 0.583 1.187875e-04 31.2632 141.0674)" font-family="'TimesNewRomanPSMT'" font-size="14.8366">2</text>
<text transform="matrix(2.400000e-04 -0.849 1 2.037522e-04 26.3242 136.6528)" font-family="'TimesNewRomanPSMT'" font-size="14.8366">O</text>
<text transform="matrix(1.399200e-04 -0.4949 0.583 1.187875e-04 31.2676 126.8159)" font-family="'TimesNewRomanPSMT'" font-size="14.8366">3</text>
<text transform="matrix(2.400000e-04 -0.849 1 2.037522e-04 26.3281 122.4014)" font-family="'TimesNewRomanPSMT'" font-size="14.8366">/(Na</text>
<text transform="matrix(1.399200e-04 -0.4949 0.583 1.187875e-04 31.2759 97.0542)" font-family="'TimesNewRomanPSMT'" font-size="14.8366">2</text>
<text transform="matrix(2.400000e-04 -0.849 1 2.037522e-04 26.3364 92.6396)" font-family="'TimesNewRomanPSMT'" font-size="14.8366">O+k</text>
<text transform="matrix(1.399200e-04 -0.4949 0.583 1.187875e-04 31.2842 67.9175)" font-family="'TimesNewRomanPSMT'" font-size="14.8366">2</text>
<text transform="matrix(2.400000e-04 -0.849 1 2.037522e-04 26.3447 63.5029)" font-family="'TimesNewRomanPSMT'" font-size="14.8366">O</text>
<text transform="matrix(2.400000e-04 -0.849 1 2.037522e-04 26.3477 53.665)" font-family="'TimesNewRomanPSMT'" font-size="14.8366">) </text>
<text transform="matrix(2.400000e-04 -0.849 1 2.037522e-04 26.3496 46.3213)" font-family="'TimesNewRomanPSMT'" font-size="14.8366">(molar</text>
<text transform="matrix(2.400000e-04 -0.849 1 2.037522e-04 26.3604 8.2959)" font-family="'TimesNewRomanPSMT'" font-size="14.8366">)</text>
<text transform="matrix(0.9404 0 0 1 80.7729 223.5146)" font-family="'TimesNewRomanPSMT'" font-size="14.8366">Al</text>
<text transform="matrix(0.5483 0 0 0.583 96.2095 228.4551)" font-family="'TimesNewRomanPSMT'" font-size="14.8366">2</text>
<text transform="matrix(0.9404 0 0 1 101.0186 223.5146)" font-family="'TimesNewRomanPSMT'" font-size="14.8366">O</text>
<text transform="matrix(0.5483 0 0 0.583 111.8364 228.4551)" font-family="'TimesNewRomanPSMT'" font-size="14.8366">3</text>
<text transform="matrix(0.9404 0 0 1 116.6455 223.5146)" font-family="'TimesNewRomanPSMT'" font-size="14.8366">/(CaO+Na</text>
<text transform="matrix(0.5483 0 0 0.583 180.8164 228.4551)" font-family="'TimesNewRomanPSMT'" font-size="14.8366">2</text>
<text transform="matrix(0.9404 0 0 1 185.626 223.5146)" font-family="'TimesNewRomanPSMT'" font-size="14.8366">O+K</text>
<text transform="matrix(0.5483 0 0 0.583 215.873 228.4551)" font-family="'TimesNewRomanPSMT'" font-size="14.8366">2</text>
<text transform="matrix(0.9404 0 0 1 220.6816 223.5146)" font-family="'TimesNewRomanPSMT'" font-size="14.8366">O</text>
<text transform="matrix(0.9404 0 0 1 231.5 223.5146)" font-family="'TimesNewRomanPSMT'" font-size="14.8366">) </text>
<text transform="matrix(0.9404 0 0 1 239.6348 223.5146)" font-family="'TimesNewRomanPSMT'" font-size="14.8366">(molar</text>
<text transform="matrix(0.9404 0 0 1 281.2764 223.5146)" font-family="'TimesNewRomanPSMT'" font-size="14.8366">)</text>
</svg>
