<?xml version="1.0" encoding="utf-8"?>
<!-- Generator: Adobe Illustrator 16.0.4, SVG Export Plug-In . SVG Version: 6.00 Build 0)  -->
<!DOCTYPE svg PUBLIC "-//W3C//DTD SVG 1.1//EN" "http://www.w3.org/Graphics/SVG/1.1/DTD/svg11.dtd">
<svg version="1.1" id="图层_1" xmlns="http://www.w3.org/2000/svg" xmlns:xlink="http://www.w3.org/1999/xlink" x="0px" y="0px"
	 width="303.083px" height="264.772px" viewBox="0 0 303.083 264.772" enable-background="new 0 0 303.083 264.772"
	 xml:space="preserve">
<polygon fill-rule="evenodd" clip-rule="evenodd" fill="none" stroke="#000000" stroke-width="0.4989" stroke-miterlimit="2.4142" points="
	0.432,264.35 302.655,264.35 152.547,0.502 0.432,264.35 "/>
<line fill="none" stroke="#000000" stroke-width="0.3968" stroke-miterlimit="2.4142" x1="30.184" y1="258.674" x2="30.184" y2="264.575"/>
<line fill="none" stroke="#000000" stroke-width="0.3968" stroke-miterlimit="2.4142" x1="60.476" y1="258.674" x2="60.476" y2="264.575"/>
<line fill="none" stroke="#000000" stroke-width="0.3968" stroke-miterlimit="2.4142" x1="90.768" y1="258.674" x2="90.768" y2="264.575"/>
<line fill="none" stroke="#000000" stroke-width="0.3968" stroke-miterlimit="2.4142" x1="121.06" y1="258.674" x2="121.06" y2="264.575"/>
<line fill="none" stroke="#000000" stroke-width="0.3968" stroke-miterlimit="2.4142" x1="151.353" y1="258.674" x2="151.353" y2="264.575"/>
<line fill="none" stroke="#000000" stroke-width="0.3968" stroke-miterlimit="2.4142" x1="181.644" y1="258.674" x2="181.644" y2="264.575"/>
<line fill="none" stroke="#000000" stroke-width="0.3968" stroke-miterlimit="2.4142" x1="211.937" y1="258.674" x2="211.937" y2="264.575"/>
<line fill="none" stroke="#000000" stroke-width="0.3968" stroke-miterlimit="2.4142" x1="242.229" y1="258.674" x2="242.229" y2="264.575"/>
<line fill="none" stroke="#000000" stroke-width="0.3968" stroke-miterlimit="2.4142" x1="272.521" y1="258.674" x2="272.521" y2="264.575"/>
<line fill="none" stroke="#000000" stroke-width="0.3968" stroke-miterlimit="2.4142" x1="285.064" y1="244.133" x2="288.156" y2="239.311"/>
<line fill="none" stroke="#000000" stroke-width="0.3968" stroke-miterlimit="2.4142" x1="270.373" y1="218.629" x2="273.464" y2="213.807"/>
<line fill="none" stroke="#000000" stroke-width="0.3968" stroke-miterlimit="2.4142" x1="255.331" y1="191.706" x2="258.421" y2="186.883"/>
<line fill="none" stroke="#000000" stroke-width="0.3968" stroke-miterlimit="2.4142" x1="240.289" y1="164.782" x2="243.378" y2="159.959"/>
<line fill="none" stroke="#000000" stroke-width="0.3968" stroke-miterlimit="2.4142" x1="225.04" y1="137.858" x2="228.13" y2="133.036"/>
<line fill="none" stroke="#000000" stroke-width="0.3968" stroke-miterlimit="2.4142" x1="209.997" y1="111.738" x2="213.087" y2="106.916"/>
<line fill="none" stroke="#000000" stroke-width="0.3968" stroke-miterlimit="2.4142" x1="194.748" y1="85.216" x2="197.839" y2="80.395"/>
<line fill="none" stroke="#000000" stroke-width="0.3968" stroke-miterlimit="2.4142" x1="179.912" y1="59.297" x2="183.003" y2="54.475"/>
<line fill="none" stroke="#000000" stroke-width="0.3968" stroke-miterlimit="2.4142" x1="165.075" y1="32.976" x2="168.167" y2="28.154"/>
<line fill="none" stroke="#000000" stroke-width="0.3968" stroke-miterlimit="2.4142" x1="137.603" y1="26.173" x2="140.282" y2="30.794"/>
<line fill="none" stroke="#000000" stroke-width="0.3968" stroke-miterlimit="2.4142" x1="106.9" y1="79.618" x2="109.579" y2="84.239"/>
<line fill="none" stroke="#000000" stroke-width="0.3968" stroke-miterlimit="2.4142" x1="122.354" y1="53.699" x2="125.034" y2="58.32"/>
<line fill="none" stroke="#000000" stroke-width="0.3968" stroke-miterlimit="2.4142" x1="92.27" y1="106.141" x2="94.948" y2="110.762"/>
<line fill="none" stroke="#000000" stroke-width="0.3968" stroke-miterlimit="2.4142" x1="76.609" y1="132.06" x2="79.288" y2="136.681"/>
<line fill="none" stroke="#000000" stroke-width="0.3968" stroke-miterlimit="2.4142" x1="61.772" y1="159.586" x2="64.451" y2="164.208"/>
<line fill="none" stroke="#000000" stroke-width="0.3968" stroke-miterlimit="2.4142" x1="46.111" y1="185.706" x2="48.791" y2="190.329"/>
<line fill="none" stroke="#000000" stroke-width="0.3968" stroke-miterlimit="2.4142" x1="30.863" y1="212.028" x2="33.542" y2="216.649"/>
<line fill="none" stroke="#000000" stroke-width="0.3968" stroke-miterlimit="2.4142" x1="15.614" y1="238.549" x2="18.293" y2="243.17"/>
<text transform="matrix(1.0256 0 0 1 16.9541 255.6196)"><tspan x="0" y="0" stroke="#000000" stroke-width="0.0567" stroke-miterlimit="2.4142" font-family="'TimesNewRomanPSMT'" font-size="8.9779">Mg</tspan><tspan x="13.347" y="0" stroke="#000000" stroke-width="0.0567" stroke-miterlimit="2.4142" font-family="'TimesNewRomanPSMT'" font-size="8.9779">O</tspan></text>
<text transform="matrix(1.0256 0 0 1 262.4644 248.4771)" stroke="#000000" stroke-width="0.0567" stroke-miterlimit="2.4142" font-family="'TimesNewRomanPSMT'" font-size="8.9779">Al</text>
<text transform="matrix(0.5979 0 0 0.583 272.5698 251.4673)" stroke="#000000" stroke-width="0.0567" stroke-miterlimit="2.4142" font-family="'TimesNewRomanPSMT'" font-size="8.9779">2</text>
<text transform="matrix(1.0256 0 0 1 275.7026 248.4771)" stroke="#000000" stroke-width="0.0567" stroke-miterlimit="2.4142" font-family="'TimesNewRomanPSMT'" font-size="8.9779">O</text>
<text transform="matrix(0.5979 0 0 0.583 282.8013 251.4673)" stroke="#000000" stroke-width="0.0567" stroke-miterlimit="2.4142" font-family="'TimesNewRomanPSMT'" font-size="8.9779">3</text>
<text transform="matrix(1.0256 0 0 1 285.4858 248.4771)" stroke="#000000" stroke-width="0.0567" stroke-miterlimit="2.4142" font-family="'TimesNewRomanPSMT'" font-size="8.9779"> </text>
<text transform="matrix(1.0256 0 0 1 122.3545 11.2031)"><tspan x="0" y="0" stroke="#000000" stroke-width="0.0567" stroke-miterlimit="2.4142" font-family="'TimesNewRomanPSMT'" font-size="8.9779">Fe</tspan><tspan x="9.854" y="0" stroke="#000000" stroke-width="0.0567" stroke-miterlimit="2.4142" font-family="'TimesNewRomanPSMT'" font-size="8.9779">O</tspan></text>
<text transform="matrix(0.4126 0.9389 -0.9155 0.4023 185.4497 126.3828)"><tspan x="0" y="0" stroke="#000000" stroke-width="0.0567" stroke-miterlimit="2.4142" font-family="'TimesNewRomanPSMT'" font-size="7.6816">Continenta</tspan><tspan x="37.454" y="0" stroke="#000000" stroke-width="0.0567" stroke-miterlimit="2.4142" font-family="'TimesNewRomanPSMT'" font-size="7.6816">l</tspan></text>
<text transform="matrix(0.6351 0.8052 -0.7851 0.6193 214.5503 153.5913)"><tspan x="0" y="0" stroke="#000000" stroke-width="0.0567" stroke-miterlimit="2.4142" font-family="'TimesNewRomanPSMT'" font-size="7.6816">Spreadin</tspan><tspan x="30.302" y="0" stroke="#000000" stroke-width="0.0567" stroke-miterlimit="2.4142" font-family="'TimesNewRomanPSMT'" font-size="7.6816">g </tspan><tspan x="36.063" y="0" stroke="#000000" stroke-width="0.0567" stroke-miterlimit="2.4142" font-family="'TimesNewRomanPSMT'" font-size="7.6816">centr</tspan><tspan x="53.288" y="0" stroke="#000000" stroke-width="0.0567" stroke-miterlimit="2.4142" font-family="'TimesNewRomanPSMT'" font-size="7.6816">e </tspan><tspan x="58.617" y="0" stroke="#000000" stroke-width="0.0567" stroke-miterlimit="2.4142" font-family="'TimesNewRomanPSMT'" font-size="7.6816">ialan</tspan><tspan x="75.418" y="-0.001" stroke="#000000" stroke-width="0.0567" stroke-miterlimit="2.4142" font-family="'TimesNewRomanPSMT'" font-size="7.6816">d</tspan></text>
<text transform="matrix(1.0256 0 0 1 205.811 216.4771)"><tspan x="0" y="0" stroke="#000000" stroke-width="0.0567" stroke-miterlimit="2.4142" font-family="'TimesNewRomanPSMT'" font-size="7.6816">Island</tspan><tspan x="21.02" y="0" stroke="#000000" stroke-width="0.0567" stroke-miterlimit="2.4142" font-family="'TimesNewRomanPSMT'" font-size="7.6816">-</tspan><tspan x="0" y="7.682" stroke="#000000" stroke-width="0.0567" stroke-miterlimit="2.4142" font-family="'TimesNewRomanPSMT'" font-size="7.6816">ar</tspan><tspan x="6.716" y="7.682" stroke="#000000" stroke-width="0.0567" stroke-miterlimit="2.4142" font-family="'TimesNewRomanPSMT'" font-size="7.6816">c </tspan><tspan x="12.046" y="7.682" stroke="#000000" stroke-width="0.0567" stroke-miterlimit="2.4142" font-family="'TimesNewRomanPSMT'" font-size="7.6816">an</tspan><tspan x="20.045" y="7.682" stroke="#000000" stroke-width="0.0567" stroke-miterlimit="2.4142" font-family="'TimesNewRomanPSMT'" font-size="7.6816">d </tspan><tspan x="0" y="15.363" stroke="#000000" stroke-width="0.0567" stroke-miterlimit="2.4142" font-family="'TimesNewRomanPSMT'" font-size="7.6816">activ</tspan><tspan x="16.801" y="15.363" stroke="#000000" stroke-width="0.0567" stroke-miterlimit="2.4142" font-family="'TimesNewRomanPSMT'" font-size="7.6816">e</tspan><tspan x="0" y="23.045" stroke="#000000" stroke-width="0.0567" stroke-miterlimit="2.4142" font-family="'TimesNewRomanPSMT'" font-size="7.6816">comtinenta</tspan><tspan x="37.873" y="23.045" stroke="#000000" stroke-width="0.0567" stroke-miterlimit="2.4142" font-family="'TimesNewRomanPSMT'" font-size="7.6816">l</tspan><tspan x="0" y="30.727" stroke="#000000" stroke-width="0.0567" stroke-miterlimit="2.4142" font-family="'TimesNewRomanPSMT'" font-size="7.6816">margi</tspan><tspan x="19.79" y="30.727" stroke="#000000" stroke-width="0.0567" stroke-miterlimit="2.4142" font-family="'TimesNewRomanPSMT'" font-size="7.6816">n</tspan></text>
<text transform="matrix(1.0256 0 0 1 130.8223 215.731)"><tspan x="0" y="0" stroke="#000000" stroke-width="0.0567" stroke-miterlimit="2.4142" font-family="'TimesNewRomanPSMT'" font-size="7.6816">MOR</tspan><tspan x="18.625" y="0" stroke="#000000" stroke-width="0.0567" stroke-miterlimit="2.4142" font-family="'TimesNewRomanPSMT'" font-size="7.6816">B</tspan></text>
<text transform="matrix(1.0256 0 0 1 136.3037 150.4282)"><tspan x="0" y="0" stroke="#000000" stroke-width="0.0567" stroke-miterlimit="2.4142" font-family="'TimesNewRomanPSMT'" font-size="7.6816">Ocea</tspan><tspan x="17.274" y="0" stroke="#000000" stroke-width="0.0567" stroke-miterlimit="2.4142" font-family="'TimesNewRomanPSMT'" font-size="7.6816">n</tspan><tspan x="0" y="7.682" stroke="#000000" stroke-width="0.0567" stroke-miterlimit="2.4142" font-family="'TimesNewRomanPSMT'" font-size="7.6816">islan</tspan><tspan x="16.38" y="7.682" stroke="#000000" stroke-width="0.0567" stroke-miterlimit="2.4142" font-family="'TimesNewRomanPSMT'" font-size="7.6816">d</tspan></text>
<line fill="none" stroke="#000000" stroke-width="0.3968" stroke-miterlimit="2.4142" x1="171.226" y1="43.291" x2="174.317" y2="38.469"/>
<text transform="matrix(1.0256 0 0 1 174.605 36.4888)"><tspan x="0" y="0" stroke="#000000" stroke-width="0.0567" stroke-miterlimit="2.4142" font-family="'TimesNewRomanPSMT'" font-size="6.9999">8</tspan><tspan x="3.841" y="0" stroke="#000000" stroke-width="0.0567" stroke-miterlimit="2.4142" font-family="'TimesNewRomanPSMT'" font-size="6.9999">7</tspan></text>
<text transform="matrix(1.0256 0 0 1 40.0615 181.7173)"><tspan x="0" y="0" stroke="#000000" stroke-width="0.0567" stroke-miterlimit="2.4142" font-family="'TimesNewRomanPSMT'" font-size="6.9999">3</tspan><tspan x="3.841" y="0" stroke="#000000" stroke-width="0.0567" stroke-miterlimit="2.4142" font-family="'TimesNewRomanPSMT'" font-size="6.9999">2</tspan></text>
<text transform="matrix(1.0256 0 0 1 190.8296 260.3364)"><tspan x="0" y="0" stroke="#000000" stroke-width="0.0567" stroke-miterlimit="2.4142" font-family="'TimesNewRomanPSMT'" font-size="6.9999">6</tspan><tspan x="3.841" y="0" stroke="#000000" stroke-width="0.0567" stroke-miterlimit="2.4142" font-family="'TimesNewRomanPSMT'" font-size="6.9999">4</tspan></text>
<text transform="matrix(1.0256 0 0 1 250.5835 260.3364)"><tspan x="0" y="0" stroke="#000000" stroke-width="0.0567" stroke-miterlimit="2.4142" font-family="'TimesNewRomanPSMT'" font-size="6.9999">8</tspan><tspan x="3.841" y="0" stroke="#000000" stroke-width="0.0567" stroke-miterlimit="2.4142" font-family="'TimesNewRomanPSMT'" font-size="6.9999">4</tspan></text>
<text transform="matrix(1.0256 0 0 1 282.2397 260.7319)"><tspan x="0" y="0" stroke="#000000" stroke-width="0.0567" stroke-miterlimit="2.4142" font-family="'TimesNewRomanPSMT'" font-size="6.9999">9</tspan><tspan x="3.841" y="0" stroke="#000000" stroke-width="0.0567" stroke-miterlimit="2.4142" font-family="'TimesNewRomanPSMT'" font-size="6.9999">4</tspan></text>
<line fill="none" stroke="#000000" stroke-width="0.3968" stroke-miterlimit="2.4142" x1="285.976" y1="258.477" x2="285.976" y2="264.377"/>
<line fill="none" stroke="#000000" stroke-width="0.3968" stroke-miterlimit="2.4142" x1="254.714" y1="258.874" x2="254.714" y2="264.772"/>
<path fill-rule="evenodd" clip-rule="evenodd" fill="none" stroke="#000000" stroke-width="0.4989" stroke-miterlimit="2.4142" d="
	M194.011,105.839c7.42,21.369,12.17,28.492,12.762,39.176c0.594,10.685,1.781,27.601,1.781,29.085"/>
<polyline fill-rule="evenodd" clip-rule="evenodd" fill="none" stroke="#000000" stroke-width="0.4989" stroke-miterlimit="2.4142" points="
	182.734,110.291 189.857,180.333 198.463,192.5 "/>
<line fill="none" stroke="#000000" stroke-width="0.4989" stroke-miterlimit="2.4142" x1="114.176" y1="180.036" x2="189.857" y2="180.333"/>
<path fill-rule="evenodd" clip-rule="evenodd" fill="none" stroke="#000000" stroke-width="0.4989" stroke-miterlimit="2.4142" d="
	M285.422,264.026c0,0-75.087-90.223-76.571-89.926s-7.717,0.594-8.903,9.201c-1.188,8.605-2.077,45.705-3.562,57.873
	s-1.484,23.148-1.484,23.148"/>
</svg>
