<?xml version="1.0" encoding="utf-8"?>
<!-- Generator: Adobe Illustrator 16.0.4, SVG Export Plug-In . SVG Version: 6.00 Build 0)  -->
<!DOCTYPE svg PUBLIC "-//W3C//DTD SVG 1.1//EN" "http://www.w3.org/Graphics/SVG/1.1/DTD/svg11.dtd">
<svg version="1.1" id="图层_1" xmlns="http://www.w3.org/2000/svg" xmlns:xlink="http://www.w3.org/1999/xlink" x="0px" y="0px"
	 width="305.613px" height="265.268px" viewBox="0 0 305.613 265.268" enable-background="new 0 0 305.613 265.268"
	 xml:space="preserve">
<polygon fill-rule="evenodd" clip-rule="evenodd" fill="none" stroke="#000000" stroke-width="0.4989" stroke-miterlimit="2.4142" points="
	0.433,264.992 305.182,264.992 153.82,0.5 0.433,264.992 "/>
<line fill="none" stroke="#000000" stroke-width="0.3968" stroke-miterlimit="2.4142" x1="30.434" y1="259.303" x2="30.434" y2="265.217"/>
<line fill="none" stroke="#000000" stroke-width="0.3968" stroke-miterlimit="2.4142" x1="60.979" y1="259.303" x2="60.979" y2="265.217"/>
<line fill="none" stroke="#000000" stroke-width="0.3968" stroke-miterlimit="2.4142" x1="91.524" y1="259.303" x2="91.524" y2="265.217"/>
<line fill="none" stroke="#000000" stroke-width="0.3968" stroke-miterlimit="2.4142" x1="122.07" y1="259.303" x2="122.07" y2="265.217"/>
<line fill="none" stroke="#000000" stroke-width="0.3968" stroke-miterlimit="2.4142" x1="152.615" y1="259.303" x2="152.615" y2="265.217"/>
<line fill="none" stroke="#000000" stroke-width="0.3968" stroke-miterlimit="2.4142" x1="183.16" y1="259.303" x2="183.16" y2="265.217"/>
<line fill="none" stroke="#000000" stroke-width="0.3968" stroke-miterlimit="2.4142" x1="213.706" y1="259.303" x2="213.706" y2="265.217"/>
<line fill="none" stroke="#000000" stroke-width="0.3968" stroke-miterlimit="2.4142" x1="244.251" y1="259.303" x2="244.251" y2="265.217"/>
<line fill="none" stroke="#000000" stroke-width="0.3968" stroke-miterlimit="2.4142" x1="274.796" y1="259.303" x2="274.796" y2="265.217"/>
<line fill="none" stroke="#000000" stroke-width="0.3968" stroke-miterlimit="2.4142" x1="287.317" y1="243.963" x2="290.434" y2="239.129"/>
<line fill="none" stroke="#000000" stroke-width="0.3968" stroke-miterlimit="2.4142" x1="271.733" y1="217.377" x2="274.85" y2="212.543"/>
<line fill="none" stroke="#000000" stroke-width="0.3968" stroke-miterlimit="2.4142" x1="256.565" y1="190.387" x2="259.681" y2="185.553"/>
<line fill="none" stroke="#000000" stroke-width="0.3968" stroke-miterlimit="2.4142" x1="241.396" y1="163.396" x2="244.513" y2="158.562"/>
<line fill="none" stroke="#000000" stroke-width="0.3968" stroke-miterlimit="2.4142" x1="226.021" y1="136.408" x2="229.137" y2="131.574"/>
<line fill="none" stroke="#000000" stroke-width="0.3968" stroke-miterlimit="2.4142" x1="210.852" y1="110.223" x2="213.969" y2="105.39"/>
<line fill="none" stroke="#000000" stroke-width="0.3968" stroke-miterlimit="2.4142" x1="195.476" y1="83.636" x2="198.593" y2="78.803"/>
<line fill="none" stroke="#000000" stroke-width="0.3968" stroke-miterlimit="2.4142" x1="180.515" y1="57.654" x2="183.632" y2="52.821"/>
<line fill="none" stroke="#000000" stroke-width="0.3968" stroke-miterlimit="2.4142" x1="165.555" y1="31.269" x2="168.672" y2="26.435"/>
<line fill="none" stroke="#000000" stroke-width="0.3968" stroke-miterlimit="2.4142" x1="138.751" y1="26.233" x2="141.453" y2="30.866"/>
<line fill="none" stroke="#000000" stroke-width="0.3968" stroke-miterlimit="2.4142" x1="107.791" y1="79.81" x2="110.493" y2="84.442"/>
<line fill="none" stroke="#000000" stroke-width="0.3968" stroke-miterlimit="2.4142" x1="123.375" y1="53.828" x2="126.076" y2="58.459"/>
<line fill="none" stroke="#000000" stroke-width="0.3968" stroke-miterlimit="2.4142" x1="93.039" y1="106.397" x2="95.74" y2="111.029"/>
<line fill="none" stroke="#000000" stroke-width="0.3968" stroke-miterlimit="2.4142" x1="77.247" y1="132.379" x2="79.948" y2="137.011"/>
<line fill="none" stroke="#000000" stroke-width="0.3968" stroke-miterlimit="2.4142" x1="62.286" y1="159.973" x2="64.988" y2="164.605"/>
<line fill="none" stroke="#000000" stroke-width="0.3968" stroke-miterlimit="2.4142" x1="46.495" y1="186.156" x2="49.196" y2="190.789"/>
<line fill="none" stroke="#000000" stroke-width="0.3968" stroke-miterlimit="2.4142" x1="31.119" y1="212.543" x2="33.82" y2="217.176"/>
<line fill="none" stroke="#000000" stroke-width="0.3968" stroke-miterlimit="2.4142" x1="15.743" y1="239.129" x2="18.444" y2="243.762"/>
<text transform="matrix(1.0316 0 0 1 18.4438 255.0371)"><tspan x="0" y="0" stroke="#000000" stroke-width="0.0567" stroke-miterlimit="2.4142" font-family="'TimesNewRomanPSMT'" font-size="9">Mn</tspan><tspan x="13.375" y="0" stroke="#000000" stroke-width="0.0567" stroke-miterlimit="2.4142" font-family="'TimesNewRomanPSMT'" font-size="9">O x  </tspan><tspan x="31.124" y="0" stroke="#000000" stroke-width="0.0567" stroke-miterlimit="2.4142" font-family="'TimesNewRomanPSMT'" font-size="9">1</tspan><tspan x="36.06" y="0" stroke="#000000" stroke-width="0.0567" stroke-miterlimit="2.4142" font-family="'TimesNewRomanPSMT'" font-size="9">0</tspan></text>
<text transform="matrix(1.0316 0 0 1 251.7153 255.0371)" stroke="#000000" stroke-width="0.0567" stroke-miterlimit="2.4142" font-family="'TimesNewRomanPSMT'" font-size="9">P</text>
<text transform="matrix(0.6014 0 0 0.583 257.3296 258.0332)" stroke="#000000" stroke-width="0.0567" stroke-miterlimit="2.4142" font-family="'TimesNewRomanPSMT'" font-size="9">2</text>
<text transform="matrix(1.0316 0 0 1 260.4858 255.0371)" stroke="#000000" stroke-width="0.0567" stroke-miterlimit="2.4142" font-family="'TimesNewRomanPSMT'" font-size="9">O</text>
<text transform="matrix(0.6014 0 0 0.583 267.6401 258.0332)" stroke="#000000" stroke-width="0.0567" stroke-miterlimit="2.4142" font-family="'TimesNewRomanPSMT'" font-size="9">5</text>
<text transform="matrix(1.0316 0 0 1 270.3472 255.0371)" stroke="#000000" stroke-width="0.0567" stroke-miterlimit="2.4142" font-family="'TimesNewRomanPSMT'" font-size="9"> x </text>
<text transform="matrix(1.0316 0 0 1 279.6313 255.0371)" stroke="#000000" stroke-width="0.0567" stroke-miterlimit="2.4142" font-family="'TimesNewRomanPSMT'" font-size="9">1</text>
<text transform="matrix(1.0316 0 0 1 284.7241 255.0371)" stroke="#000000" stroke-width="0.0567" stroke-miterlimit="2.4142" font-family="'TimesNewRomanPSMT'" font-size="9">0</text>
<text transform="matrix(1.0316 0 0 1 144.9385 28.8521)" stroke="#000000" stroke-width="0.0567" stroke-miterlimit="2.4142" font-family="'TimesNewRomanPSMT'" font-size="9">TiO</text>
<text transform="matrix(0.6014 0 0 0.583 161.2446 31.8491)" stroke="#000000" stroke-width="0.0567" stroke-miterlimit="2.4142" font-family="'TimesNewRomanPSMT'" font-size="9">2</text>
<text transform="matrix(1.0316 0 0 1 220.3716 192.5205)"><tspan x="0" y="0" stroke="#000000" stroke-width="0.0567" stroke-miterlimit="2.4142" font-family="'TimesNewRomanPSMT'" font-size="7.7006">OI</tspan><tspan x="8.872" y="0" stroke="#000000" stroke-width="0.0567" stroke-miterlimit="2.4142" font-family="'TimesNewRomanPSMT'" font-size="7.7006">A</tspan></text>
<text transform="matrix(1.0316 0 0 1 140.4072 242.4043)"><tspan x="0" y="0" stroke="#000000" stroke-width="0.0567" stroke-miterlimit="2.4142" font-family="'TimesNewRomanPSMT'" font-size="7.7006">CA</tspan><tspan x="11.443" y="0" stroke="#000000" stroke-width="0.0567" stroke-miterlimit="2.4142" font-family="'TimesNewRomanPSMT'" font-size="7.7006">B</tspan></text>
<text transform="matrix(1.0316 0 0 1 49.9116 228.375)"><tspan x="0" y="0" stroke="#000000" stroke-width="0.0567" stroke-miterlimit="2.4142" font-family="'TimesNewRomanPSMT'" font-size="7.7006">Bo</tspan><tspan x="9.733" y="0" stroke="#000000" stroke-width="0.0567" stroke-miterlimit="2.4142" font-family="'TimesNewRomanPSMT'" font-size="7.7006">n</tspan></text>
<text transform="matrix(1.0316 0 0 1 169.3374 122.5713)"><tspan x="0" y="0" stroke="#000000" stroke-width="0.0567" stroke-miterlimit="2.4142" font-family="'TimesNewRomanPSMT'" font-size="7.7006">OI</tspan><tspan x="8.872" y="0" stroke="#000000" stroke-width="0.0567" stroke-miterlimit="2.4142" font-family="'TimesNewRomanPSMT'" font-size="7.7006">T</tspan></text>
<text transform="matrix(1.0316 0 0 1 113.3071 132.207)"><tspan x="0" y="0" stroke="#000000" stroke-width="0.0567" stroke-miterlimit="2.4142" font-family="'TimesNewRomanPSMT'" font-size="7.7006">MOR</tspan><tspan x="18.664" y="0" stroke="#000000" stroke-width="0.0567" stroke-miterlimit="2.4142" font-family="'TimesNewRomanPSMT'" font-size="7.7006">B</tspan></text>
<text transform="matrix(1.0316 0 0 1 90.1099 172.5352)"><tspan x="0" y="0" stroke="#000000" stroke-width="0.0567" stroke-miterlimit="2.4142" font-family="'TimesNewRomanPSMT'" font-size="7.7006">IA</tspan><tspan x="8.872" y="0" stroke="#000000" stroke-width="0.0567" stroke-miterlimit="2.4142" font-family="'TimesNewRomanPSMT'" font-size="7.7006">T</tspan></text>
<polyline fill-rule="evenodd" clip-rule="evenodd" fill="none" stroke="#000000" stroke-width="0.4989" stroke-miterlimit="2.4142" points="
	117.843,61.608 170.045,187.428 281.142,265.062 "/>
<polyline fill-rule="evenodd" clip-rule="evenodd" fill="none" stroke="#000000" stroke-width="0.4989" stroke-miterlimit="2.4142" points="
	90.626,108.902 139.259,194.121 178.077,193.676 "/>
<polyline fill-rule="evenodd" clip-rule="evenodd" fill="none" stroke="#000000" stroke-width="0.4989" stroke-miterlimit="2.4142" points="
	61.179,163.336 91.965,217.768 211.093,217.768 "/>
<line fill="none" stroke="#000000" stroke-width="0.4989" stroke-miterlimit="2.4142" x1="170.492" y1="187.428" x2="236.972" y2="144.596"/>
</svg>
