<?xml version="1.0" encoding="utf-8"?>
<!-- Generator: Adobe Illustrator 16.0.4, SVG Export Plug-In . SVG Version: 6.00 Build 0)  -->
<!DOCTYPE svg PUBLIC "-//W3C//DTD SVG 1.1//EN" "http://www.w3.org/Graphics/SVG/1.1/DTD/svg11.dtd">
<svg version="1.1" id="图层_1" xmlns="http://www.w3.org/2000/svg" xmlns:xlink="http://www.w3.org/1999/xlink" x="0px" y="0px"
	 width="360.91px" height="261.75px" viewBox="0 0 360.91 261.75" enable-background="new 0 0 360.91 261.75" xml:space="preserve">
<polyline fill-rule="evenodd" clip-rule="evenodd" fill="none" stroke="#000000" stroke-width="0.4989" stroke-miterlimit="2.4142" points="
	360.91,261.5 0.572,261.5 0.572,16.347 "/>
<line fill="none" stroke="#000000" stroke-width="0.3968" stroke-miterlimit="2.4142" x1="239.765" y1="255.576" x2="239.765" y2="261.46"/>
<line fill="none" stroke="#000000" stroke-width="0.3968" stroke-miterlimit="2.4142" x1="120.852" y1="255.576" x2="120.852" y2="261.46"/>
<line fill="none" stroke="#000000" stroke-width="0.3968" stroke-miterlimit="2.4142" x1="0.829" y1="138.754" x2="6.714" y2="138.754"/>
<line fill="none" stroke="#000000" stroke-width="0.3968" stroke-miterlimit="2.4142" x1="0.453" y1="16.421" x2="6.338" y2="16.421"/>
<text transform="matrix(1 0 0 1 6.3384 26.6841)"><tspan x="0" y="0" font-family="'TimesNewRomanPSMT'" font-size="6.9999">200</tspan><tspan x="11.55" y="0" font-family="'TimesNewRomanPSMT'" font-size="6.9999">0</tspan></text>
<text transform="matrix(1 0 0 1 6.3384 149.2188)"><tspan x="0" y="0" font-family="'TimesNewRomanPSMT'" font-size="6.9999">100</tspan><tspan x="11.55" y="0" font-family="'TimesNewRomanPSMT'" font-size="6.9999">0</tspan></text>
<text transform="matrix(1 0 0 1 102.8872 258.519)"><tspan x="0" y="0" font-family="'TimesNewRomanPSMT'" font-size="6.9999">100</tspan><tspan x="11.55" y="0" font-family="'TimesNewRomanPSMT'" font-size="6.9999">0</tspan></text>
<text transform="matrix(1 0 0 1 221.2876 258.519)"><tspan x="0" y="0" font-family="'TimesNewRomanPSMT'" font-size="6.9999">200</tspan><tspan x="11.55" y="0" font-family="'TimesNewRomanPSMT'" font-size="6.9999">0</tspan></text>
<text transform="matrix(1 0 0 1 342.6948 258.519)"><tspan x="0" y="0" font-family="'TimesNewRomanPSMT'" font-size="6.9999">300</tspan><tspan x="11.55" y="0" font-family="'TimesNewRomanPSMT'" font-size="6.9999">0</tspan></text>
<text transform="matrix(1 0 0 1 37.1831 109.5005)"><tspan x="0" y="0" stroke="#000000" stroke-width="0.0567" stroke-miterlimit="2.4142" font-family="'TimesNewRomanPSMT'" font-size="6.9999">Essexit</tspan><tspan x="22.67" y="0" stroke="#000000" stroke-width="0.0567" stroke-miterlimit="2.4142" font-family="'TimesNewRomanPSMT'" font-size="6.9999">e</tspan></text>
<text transform="matrix(1 0 0 1 20.4507 163.6587)"><tspan x="0" y="0" stroke="#000000" stroke-width="0.0567" stroke-miterlimit="2.4142" font-family="'TimesNewRomanPSMT'" font-size="6.9999">Nephelin</tspan><tspan x="28.458" y="0" stroke="#000000" stroke-width="0.0567" stroke-miterlimit="2.4142" font-family="'TimesNewRomanPSMT'" font-size="6.9999">e</tspan><tspan x="0" y="7" stroke="#000000" stroke-width="0.0567" stroke-miterlimit="2.4142" font-family="'TimesNewRomanPSMT'" font-size="6.9999">syenit</tspan><tspan x="18.82" y="7" stroke="#000000" stroke-width="0.0567" stroke-miterlimit="2.4142" font-family="'TimesNewRomanPSMT'" font-size="6.9999">e</tspan></text>
<text transform="matrix(1 0 0 1 75.0513 126.0537)"><tspan x="0" y="0" stroke="#000000" stroke-width="0.0567" stroke-miterlimit="2.4142" font-family="'TimesNewRomanPSMT'" font-size="6.9999">Syenodiorit</tspan><tspan x="36.515" y="0" stroke="#000000" stroke-width="0.0567" stroke-miterlimit="2.4142" font-family="'TimesNewRomanPSMT'" font-size="6.9999">e</tspan></text>
<text transform="matrix(1 0 0 1 85.3315 196.0913)"><tspan x="0" y="0" stroke="#000000" stroke-width="0.0567" stroke-miterlimit="2.4142" font-family="'TimesNewRomanPSMT'" font-size="6.9999">Syenit</tspan><tspan x="19.989" y="0" stroke="#000000" stroke-width="0.0567" stroke-miterlimit="2.4142" font-family="'TimesNewRomanPSMT'" font-size="6.9999">e</tspan></text>
<text transform="matrix(1 0 0 1 97.2856 92.8989)"><tspan x="0" y="0" stroke="#000000" stroke-width="0.0567" stroke-miterlimit="2.4142" font-family="'TimesNewRomanPSMT'" font-size="6.9999">Syenogabbr</tspan><tspan x="36.937" y="0" stroke="#000000" stroke-width="0.0567" stroke-miterlimit="2.4142" font-family="'TimesNewRomanPSMT'" font-size="6.9999">o</tspan></text>
<text transform="matrix(1 0 0 1 191.9224 97.1851)"><tspan x="0" y="0" stroke="#000000" stroke-width="0.0567" stroke-miterlimit="2.4142" font-family="'TimesNewRomanPSMT'" font-size="6.9999">Gabbr</tspan><tspan x="19.243" y="0" stroke="#000000" stroke-width="0.0567" stroke-miterlimit="2.4142" font-family="'TimesNewRomanPSMT'" font-size="6.9999">o</tspan></text>
<text transform="matrix(1 0 0 1 128.7983 215.1069)"><tspan x="0" y="0" stroke="#000000" stroke-width="0.0567" stroke-miterlimit="2.4142" font-family="'TimesNewRomanPSMT'" font-size="6.9999">Quart</tspan><tspan x="17.688" y="0" stroke="#000000" stroke-width="0.0567" stroke-miterlimit="2.4142" font-family="'TimesNewRomanPSMT'" font-size="6.9999">z </tspan><tspan x="22.544" y="0" stroke="#000000" stroke-width="0.0567" stroke-miterlimit="2.4142" font-family="'TimesNewRomanPSMT'" font-size="6.9999">syenit</tspan><tspan x="41.365" y="0" stroke="#000000" stroke-width="0.0567" stroke-miterlimit="2.4142" font-family="'TimesNewRomanPSMT'" font-size="6.9999">e</tspan></text>
<text transform="matrix(1 0 0 1 163.9409 174.1519)"><tspan x="0" y="0" stroke="#000000" stroke-width="0.0567" stroke-miterlimit="2.4142" font-family="'TimesNewRomanPSMT'" font-size="6.9999">Quart</tspan><tspan x="17.688" y="0" stroke="#000000" stroke-width="0.0567" stroke-miterlimit="2.4142" font-family="'TimesNewRomanPSMT'" font-size="6.9999">z</tspan><tspan x="0" y="7" stroke="#000000" stroke-width="0.0567" stroke-miterlimit="2.4142" font-family="'TimesNewRomanPSMT'" font-size="6.9999">monzonit</tspan><tspan x="29.24" y="7" stroke="#000000" stroke-width="0.0567" stroke-miterlimit="2.4142" font-family="'TimesNewRomanPSMT'" font-size="6.9999">e</tspan></text>
<text transform="matrix(0.9359 0.3522 -0.3522 0.9359 140.8535 136.0469)"><tspan x="0" y="0" stroke="#000000" stroke-width="0.0567" stroke-miterlimit="2.4142" font-family="'TimesNewRomanPSMT'" font-size="6.9999">Monzonit</tspan><tspan x="30.02" y="0" stroke="#000000" stroke-width="0.0567" stroke-miterlimit="2.4142" font-family="'TimesNewRomanPSMT'" font-size="6.9999">e</tspan></text>
<text transform="matrix(0.9312 0.3644 -0.3644 0.9312 174.7202 128.3643)"><tspan x="0" y="0" stroke="#000000" stroke-width="0.0567" stroke-miterlimit="2.4142" font-family="'TimesNewRomanPSMT'" font-size="6.9999">Monzodiorit</tspan><tspan x="38.845" y="0.001" stroke="#000000" stroke-width="0.0567" stroke-miterlimit="2.4142" font-family="'TimesNewRomanPSMT'" font-size="6.9999">e</tspan></text>
<text transform="matrix(0.6734 -0.7393 0.7393 0.6734 146.3198 108.6484)"><tspan x="0" y="0" stroke="#000000" stroke-width="0.0567" stroke-miterlimit="2.4142" font-family="'TimesNewRomanPSMT'" font-size="6.9999">Monzogabbr</tspan><tspan x="39.268" y="0" stroke="#000000" stroke-width="0.0567" stroke-miterlimit="2.4142" font-family="'TimesNewRomanPSMT'" font-size="6.9999">o</tspan></text>
<text transform="matrix(1 0 0 1 195.7651 228.6382)"><tspan x="0" y="0" stroke="#000000" stroke-width="0.0567" stroke-miterlimit="2.4142" font-family="'TimesNewRomanPSMT'" font-size="6.9999">Alkal</tspan><tspan x="17.301" y="0" stroke="#000000" stroke-width="0.0567" stroke-miterlimit="2.4142" font-family="'TimesNewRomanPSMT'" font-size="6.9999">i </tspan><tspan x="20.996" y="0" stroke="#000000" stroke-width="0.0567" stroke-miterlimit="2.4142" font-family="'TimesNewRomanPSMT'" font-size="6.9999">granit</tspan><tspan x="39.424" y="0" stroke="#000000" stroke-width="0.0567" stroke-miterlimit="2.4142" font-family="'TimesNewRomanPSMT'" font-size="6.9999">e</tspan></text>
<text transform="matrix(1 0 0 1 272.271 178.5854)"><tspan x="0" y="0" stroke="#000000" stroke-width="0.0567" stroke-miterlimit="2.4142" font-family="'TimesNewRomanPSMT'" font-size="6.9999">Granodiorit</tspan><tspan x="36.508" y="0" stroke="#000000" stroke-width="0.0567" stroke-miterlimit="2.4142" font-family="'TimesNewRomanPSMT'" font-size="6.9999">e</tspan></text>
<text transform="matrix(0.9918 0.1277 -0.1277 0.9918 258.3481 200.8481)"><tspan x="0" y="0" stroke="#000000" stroke-width="0.0567" stroke-miterlimit="2.4142" font-family="'TimesNewRomanPSMT'" font-size="6.9999">Monzogranit</tspan><tspan x="40.008" y="0" stroke="#000000" stroke-width="0.0567" stroke-miterlimit="2.4142" font-family="'TimesNewRomanPSMT'" font-size="6.9999">e</tspan></text>
<text transform="matrix(0.9955 0.0945 -0.0945 0.9955 244.4897 211.7583)"><tspan x="0" y="0" stroke="#000000" stroke-width="0.0567" stroke-miterlimit="2.4142" font-family="'TimesNewRomanPSMT'" font-size="6.9999">Syenogranit</tspan><tspan x="37.677" y="0" stroke="#000000" stroke-width="0.0567" stroke-miterlimit="2.4142" font-family="'TimesNewRomanPSMT'" font-size="6.9999">e</tspan></text>
<text transform="matrix(1 0 0 1 237.7046 154.8242)"><tspan x="0" y="0" stroke="#000000" stroke-width="0.0567" stroke-miterlimit="2.4142" font-family="'TimesNewRomanPSMT'" font-size="6.9999">Tonalit</tspan><tspan x="22.667" y="0" stroke="#000000" stroke-width="0.0567" stroke-miterlimit="2.4142" font-family="'TimesNewRomanPSMT'" font-size="6.9999">e</tspan></text>
<text transform="matrix(1 0 0 1 228.0825 124.1162)"><tspan x="0" y="0" stroke="#000000" stroke-width="0.0567" stroke-miterlimit="2.4142" font-family="'TimesNewRomanPSMT'" font-size="6.9999">Diorit</tspan><tspan x="18.82" y="0" stroke="#000000" stroke-width="0.0567" stroke-miterlimit="2.4142" font-family="'TimesNewRomanPSMT'" font-size="6.9999">e</tspan></text>
<text transform="matrix(1 0 0 1 192.6577 33.0151)"><tspan x="0" y="0" stroke="#000000" stroke-width="0.0567" stroke-miterlimit="2.4142" font-family="'TimesNewRomanPSMT'" font-size="6.9999">Olivin</tspan><tspan x="19.989" y="0" stroke="#000000" stroke-width="0.0567" stroke-miterlimit="2.4142" font-family="'TimesNewRomanPSMT'" font-size="6.9999">e</tspan><tspan x="0" y="7" stroke="#000000" stroke-width="0.0567" stroke-miterlimit="2.4142" font-family="'TimesNewRomanPSMT'" font-size="6.9999">gabbr</tspan><tspan x="17.688" y="7" stroke="#000000" stroke-width="0.0567" stroke-miterlimit="2.4142" font-family="'TimesNewRomanPSMT'" font-size="6.9999">o</tspan></text>
<text transform="matrix(1 0 0 1 240.1538 44.5713)"><tspan x="0" y="0" stroke="#000000" stroke-width="0.0567" stroke-miterlimit="2.4142" font-family="'TimesNewRomanPSMT'" font-size="6.9999">Gabbronotit</tspan><tspan x="37.677" y="0" stroke="#000000" stroke-width="0.0567" stroke-miterlimit="2.4142" font-family="'TimesNewRomanPSMT'" font-size="6.9999">e</tspan></text>
<text transform="matrix(1 0 0 1 148.3081 38.9609)"><tspan x="0" y="0" stroke="#000000" stroke-width="0.0567" stroke-miterlimit="2.4142" font-family="'TimesNewRomanPSMT'" font-size="6.9999">Alkal</tspan><tspan x="17.301" y="0" stroke="#000000" stroke-width="0.0567" stroke-miterlimit="2.4142" font-family="'TimesNewRomanPSMT'" font-size="6.9999">i</tspan><tspan x="0" y="7" stroke="#000000" stroke-width="0.0567" stroke-miterlimit="2.4142" font-family="'TimesNewRomanPSMT'" font-size="6.9999">gabbr</tspan><tspan x="17.688" y="7" stroke="#000000" stroke-width="0.0567" stroke-miterlimit="2.4142" font-family="'TimesNewRomanPSMT'" font-size="6.9999">o</tspan></text>
<text transform="matrix(1 0 0 1 51.0659 216.8999)"><tspan x="0" y="0" stroke="#000000" stroke-width="0.0567" stroke-miterlimit="2.4142" font-family="'TimesNewRomanPSMT'" font-size="6.9999">A</tspan><tspan x="5.405" y="0" stroke="#000000" stroke-width="0.0567" stroke-miterlimit="2.4142" font-family="'TimesNewRomanPSMT'" font-size="6.9999">b</tspan></text>
<text transform="matrix(1 0 0 1 44.3394 225.3081)"><tspan x="0" y="0" stroke="#000000" stroke-width="0.0567" stroke-miterlimit="2.4142" font-family="'TimesNewRomanPSMT'" font-size="6.9999">O</tspan><tspan x="5.405" y="0" stroke="#000000" stroke-width="0.0567" stroke-miterlimit="2.4142" font-family="'TimesNewRomanPSMT'" font-size="6.9999">r</tspan></text>
<text transform="matrix(1 0 0 1 196.6685 70.0264)" stroke="#000000" stroke-width="0.0567" stroke-miterlimit="2.4142" font-family="'TimesNewRomanPSMT'" font-size="6.9999">An</text>
<text transform="matrix(0.583 0 0 0.583 205.9233 72.3574)" stroke="#000000" stroke-width="0.0567" stroke-miterlimit="2.4142" font-family="'TimesNewRomanPSMT'" font-size="6.9999">5</text>
<text transform="matrix(0.583 0 0 0.583 208.314 72.3574)" stroke="#000000" stroke-width="0.0567" stroke-miterlimit="2.4142" font-family="'TimesNewRomanPSMT'" font-size="6.9999">0</text>
<ellipse fill-rule="evenodd" clip-rule="evenodd" stroke="#000000" stroke-width="0.4989" stroke-miterlimit="2.4142" cx="42.915" cy="218.207" rx="1.84" ry="1.578"/>
<ellipse fill-rule="evenodd" clip-rule="evenodd" stroke="#000000" stroke-width="0.4989" stroke-miterlimit="2.4142" cx="48.762" cy="212.359" rx="1.84" ry="1.578"/>
<ellipse fill-rule="evenodd" clip-rule="evenodd" stroke="#000000" stroke-width="0.4989" stroke-miterlimit="2.4142" cx="197.983" cy="61.604" rx="1.841" ry="1.578"/>
<path fill-rule="evenodd" clip-rule="evenodd" fill="none" stroke="#000000" stroke-width="0.4989" stroke-miterlimit="2.4142" stroke-dasharray="4.989,2.4945,0,0,0,0" d="
	M172.937,7.589c0,0-23.663,21.43-25.895,25.895s-22.323,22.323-33.038,33.484c-10.715,11.162-43.753,41.074-54.915,50.449
	c-11.161,9.377-25.001,23.217-25.001,23.217l-33.931,27.68"/>
<path fill-rule="evenodd" clip-rule="evenodd" fill="none" stroke="#000000" stroke-width="0.4989" stroke-miterlimit="2.4142" stroke-dasharray="4.989,2.4945,0,0,0,0" d="
	M208.535,9.335c-26.801,26.205-53.005,55.982-60.748,76.232c-7.742,20.248-14.293,55.982-7.742,72.062
	c6.551,16.081,25.014,44.071,60.152,50.622c35.138,6.553,88.738,11.912,101.244,13.104c12.508,1.191,56.578,3.572,56.578,3.572"/>
<path fill-rule="evenodd" clip-rule="evenodd" fill="none" stroke="#000000" stroke-width="0.4989" stroke-miterlimit="2.4142" stroke-dasharray="4.989,2.4945,0,0,0,0" d="
	M175.779,84.376c0,0-9.27,23.217-4.051,43.816c5.219,20.602,17.03,35.159,33.785,44.223c16.756,9.064,31.588,15.107,54.111,18.678
	c22.523,3.572,73.889,8.791,80.756,10.164c6.866,1.373,19.227,1.373,19.227,1.373"/>
<path fill-rule="evenodd" clip-rule="evenodd" fill="none" stroke="#000000" stroke-width="0.4989" stroke-miterlimit="2.4142" stroke-dasharray="4.989,2.4945,0,0,0,0" d="
	M251.958,17.411c0,0-12.203,12.203-17.561,18.752c-5.357,6.548-19.049,26.489-21.727,37.205"/>
<path fill-rule="evenodd" clip-rule="evenodd" fill="none" stroke="#000000" stroke-width="0.4989" stroke-miterlimit="2.4142" stroke-dasharray="4.989,2.4945,0,0,0,0" d="
	M238.268,32.591c-2.083,8.93-5.06,19.941,2.083,25.597c7.144,5.655,10.715,6.251,10.715,6.251"/>
<path fill-rule="evenodd" clip-rule="evenodd" fill="none" stroke="#000000" stroke-width="0.4989" stroke-miterlimit="2.4142" stroke-dasharray="4.989,2.4945,0,0,0,0" d="
	M207.611,111.763c1.786,11.607,6.251,24.406,8.632,26.787c2.382,2.381,6.548,8.334,6.548,8.334"/>
<path fill-rule="evenodd" clip-rule="evenodd" fill="none" stroke="#000000" stroke-width="0.4989" stroke-miterlimit="2.4142" stroke-dasharray="4.989,2.4945,0,0,0,0" d="
	M81.084,147.97c-9.888,9.064-28.566,31.04-32.137,37.631s-29.391,43.674-31.588,50.266"/>
<path fill-rule="evenodd" clip-rule="evenodd" fill="none" stroke="#000000" stroke-width="0.4989" stroke-miterlimit="2.4142" stroke-dasharray="4.989,2.4945,0,0,0,0" d="
	M139.591,158.133c-3.846,10.988-10.438,29.39-12.91,36.806c-2.472,7.418-10.987,33.785-12.635,37.082s-2.472,8.24-2.472,8.24"/>
<path fill-rule="evenodd" clip-rule="evenodd" fill="none" stroke="#000000" stroke-width="0.4989" stroke-miterlimit="2.4142" stroke-dasharray="4.989,2.4945,0,0,0,0" d="
	M323.349,150.717c-31.038,4.396-33.51,3.846-47.244,7.417c-13.734,3.57-38.455,12.084-43.398,15.381
	c-4.945,3.297-28.842,15.107-37.906,27.193s-21.15,28.018-21.699,40.377"/>
<path fill-rule="evenodd" clip-rule="evenodd" fill="none" stroke="#000000" stroke-width="0.4989" stroke-miterlimit="2.4142" stroke-dasharray="4.989,2.4945,0,0,0,0" d="
	M164.861,0.193c7.416,6.043,23.072,16.206,37.355,17.305s39.555,2.747,48.619,0"/>
<path fill-rule="evenodd" clip-rule="evenodd" fill="none" stroke="#000000" stroke-width="0.4989" stroke-miterlimit="2.4142" stroke-dasharray="4.989,2.4945,0,0,0,0" d="
	M91.522,40.846c4.395,4.12,20.601,16.48,36.257,23.897c15.657,7.416,34.334,12.909,37.082,12.909"/>
<path fill-rule="evenodd" clip-rule="evenodd" fill="none" stroke="#000000" stroke-width="0.4989" stroke-miterlimit="2.4142" stroke-dasharray="4.989,2.4945,0,0,0,0" d="
	M178.595,78.751c10.986,0,34.812-1.906,46.062-4.924c11.25-3.019,55.702-21.402,62.287-25.793c6.586-4.391,6.586-4.391,6.586-4.391"
	/>
<path fill-rule="evenodd" clip-rule="evenodd" fill="none" stroke="#000000" stroke-width="0.4989" stroke-miterlimit="2.4142" stroke-dasharray="4.989,2.4945,0,0,0,0" d="
	M58.924,77.942c0,0,27.988,17.013,40.61,21.678c12.622,4.664,44.452,15.365,66.403,15.914c21.951,0.549,49.391-4.938,69.421-12.621
	c20.031-7.684,55.154-23.873,55.154-23.873"/>
<path fill-rule="evenodd" clip-rule="evenodd" fill="none" stroke="#000000" stroke-width="0.4989" stroke-miterlimit="2.4142" stroke-dasharray="4.989,2.4945,0,0,0,0" d="
	M19.412,129.255c12.348,4.391,39.238,13.171,51.312,16.189c12.073,3.018,40.885,8.78,52.409,10.427s44.178,3.292,72.439-2.195
	c28.264-5.487,72.715-22.226,79.574-26.067c6.86-3.842,28.537-14.269,28.537-14.269"/>
<path fill-rule="evenodd" clip-rule="evenodd" fill="none" stroke="#000000" stroke-width="0.4989" stroke-miterlimit="2.4142" stroke-dasharray="4.989,2.4945,0,0,0,0" d="
	M205.451,192.091c0,0,9.604,7.135,31.281,10.152c21.677,3.018,43.902,4.939,71.616,7.684s50.763,3.566,50.763,3.566"/>
<path fill-rule="evenodd" clip-rule="evenodd" fill="none" stroke="#000000" stroke-width="0.4989" stroke-miterlimit="2.4142" stroke-dasharray="4.989,2.4945,0,0,0,0" d="
	M21.881,239.835c0,0,54.604-0.273,72.166,0.549c17.561,0.824,97.135,1.922,106.464,2.195c9.33,0.275,76.83,2.469,83.69,3.293
	c6.86,0.822,53.232,1.92,57.622,1.92c4.391,0,15.916,0,15.916,0"/>
<text transform="matrix(1 0 0 1 173.1011 255.5757)"><tspan x="0" y="0" stroke="#000000" stroke-width="0.0567" stroke-miterlimit="2.4142" font-family="'TimesNewRomanPSMT'" font-size="7.9999">R</tspan><tspan x="5.736" y="0" stroke="#000000" stroke-width="0.0567" stroke-miterlimit="2.4142" font-family="'TimesNewRomanPSMT'" font-size="7.9999">1</tspan></text>
<text transform="matrix(1 0 0 1 26.4399 87.9512)"><tspan x="0" y="0" stroke="#000000" stroke-width="0.0567" stroke-miterlimit="2.4142" font-family="'TimesNewRomanPSMT'" font-size="7.9999">R</tspan><tspan x="5.736" y="0" stroke="#000000" stroke-width="0.0567" stroke-miterlimit="2.4142" font-family="'TimesNewRomanPSMT'" font-size="7.9999">1</tspan></text>
<line fill="none" stroke="#000000" stroke-width="0.3968" stroke-miterlimit="2.4142" x1="360.368" y1="255.576" x2="360.368" y2="261.46"/>
<line fill="none" stroke="#000000" stroke-width="0.4989" stroke-miterlimit="2.4142" x1="244.056" y1="15.598" x2="1.526" y2="260.904"/>
</svg>
