<?xml version="1.0" encoding="utf-8"?>
<!-- Generator: Adobe Illustrator 16.0.4, SVG Export Plug-In . SVG Version: 6.00 Build 0)  -->
<!DOCTYPE svg PUBLIC "-//W3C//DTD SVG 1.1//EN" "http://www.w3.org/Graphics/SVG/1.1/DTD/svg11.dtd">
<svg version="1.1" id="图层_1" xmlns="http://www.w3.org/2000/svg" xmlns:xlink="http://www.w3.org/1999/xlink" x="0px" y="0px"
	 width="305.625px" height="266.996px" viewBox="0 0 305.625 266.996" enable-background="new 0 0 305.625 266.996"
	 xml:space="preserve">
<polygon fill-rule="evenodd" clip-rule="evenodd" fill="none" stroke="#000000" stroke-width="0.4989" stroke-miterlimit="2.4142" points="
	0.432,266.747 305.196,266.747 153.827,0.502 0.432,266.747 "/>
<line fill="none" stroke="#000000" stroke-width="0.3968" stroke-miterlimit="2.4142" x1="29.183" y1="261.02" x2="29.183" y2="266.973"/>
<line fill="none" stroke="#000000" stroke-width="0.3968" stroke-miterlimit="2.4142" x1="59.869" y1="261.02" x2="59.869" y2="266.973"/>
<line fill="none" stroke="#000000" stroke-width="0.3968" stroke-miterlimit="2.4142" x1="90.555" y1="261.02" x2="90.555" y2="266.973"/>
<line fill="none" stroke="#000000" stroke-width="0.3968" stroke-miterlimit="2.4142" x1="121.241" y1="261.02" x2="121.241" y2="266.973"/>
<line fill="none" stroke="#000000" stroke-width="0.3968" stroke-miterlimit="2.4142" x1="151.927" y1="261.02" x2="151.927" y2="266.973"/>
<line fill="none" stroke="#000000" stroke-width="0.3968" stroke-miterlimit="2.4142" x1="182.613" y1="261.02" x2="182.613" y2="266.973"/>
<line fill="none" stroke="#000000" stroke-width="0.3968" stroke-miterlimit="2.4142" x1="213.299" y1="261.02" x2="213.299" y2="266.973"/>
<line fill="none" stroke="#000000" stroke-width="0.3968" stroke-miterlimit="2.4142" x1="243.985" y1="261.02" x2="243.985" y2="266.973"/>
<line fill="none" stroke="#000000" stroke-width="0.3968" stroke-miterlimit="2.4142" x1="274.67" y1="261.02" x2="274.67" y2="266.973"/>
<line fill="none" stroke="#000000" stroke-width="0.3968" stroke-miterlimit="2.4142" x1="287.249" y1="245.577" x2="290.38" y2="240.711"/>
<line fill="none" stroke="#000000" stroke-width="0.3968" stroke-miterlimit="2.4142" x1="271.593" y1="218.815" x2="274.725" y2="213.948"/>
<line fill="none" stroke="#000000" stroke-width="0.3968" stroke-miterlimit="2.4142" x1="256.356" y1="191.647" x2="259.487" y2="186.78"/>
<line fill="none" stroke="#000000" stroke-width="0.3968" stroke-miterlimit="2.4142" x1="241.118" y1="164.477" x2="244.249" y2="159.612"/>
<line fill="none" stroke="#000000" stroke-width="0.3968" stroke-miterlimit="2.4142" x1="225.67" y1="137.31" x2="228.801" y2="132.443"/>
<line fill="none" stroke="#000000" stroke-width="0.3968" stroke-miterlimit="2.4142" x1="210.432" y1="110.952" x2="213.563" y2="106.086"/>
<line fill="none" stroke="#000000" stroke-width="0.3968" stroke-miterlimit="2.4142" x1="194.985" y1="84.189" x2="198.117" y2="79.323"/>
<line fill="none" stroke="#000000" stroke-width="0.3968" stroke-miterlimit="2.4142" x1="179.956" y1="58.035" x2="183.087" y2="53.169"/>
<line fill="none" stroke="#000000" stroke-width="0.3968" stroke-miterlimit="2.4142" x1="164.926" y1="31.475" x2="168.058" y2="26.609"/>
<line fill="none" stroke="#000000" stroke-width="0.3968" stroke-miterlimit="2.4142" x1="137.999" y1="26.406" x2="140.713" y2="31.069"/>
<line fill="none" stroke="#000000" stroke-width="0.3968" stroke-miterlimit="2.4142" x1="106.897" y1="80.337" x2="109.611" y2="85"/>
<line fill="none" stroke="#000000" stroke-width="0.3968" stroke-miterlimit="2.4142" x1="122.552" y1="54.183" x2="125.266" y2="58.846"/>
<line fill="none" stroke="#000000" stroke-width="0.3968" stroke-miterlimit="2.4142" x1="92.076" y1="107.1" x2="94.79" y2="111.763"/>
<line fill="none" stroke="#000000" stroke-width="0.3968" stroke-miterlimit="2.4142" x1="76.212" y1="133.255" x2="78.926" y2="137.918"/>
<line fill="none" stroke="#000000" stroke-width="0.3968" stroke-miterlimit="2.4142" x1="61.183" y1="161.032" x2="63.896" y2="165.694"/>
<line fill="none" stroke="#000000" stroke-width="0.3968" stroke-miterlimit="2.4142" x1="45.318" y1="187.389" x2="48.032" y2="192.051"/>
<line fill="none" stroke="#000000" stroke-width="0.3968" stroke-miterlimit="2.4142" x1="29.872" y1="213.948" x2="32.585" y2="218.612"/>
<line fill="none" stroke="#000000" stroke-width="0.3968" stroke-miterlimit="2.4142" x1="14.425" y1="240.711" x2="17.139" y2="245.375"/>
<text transform="matrix(1.0295 0 0 1 14.4248 261.02)"><tspan x="0" y="0" stroke="#000000" stroke-width="0.0567" stroke-miterlimit="2.4142" font-family="'TimesNewRomanPSMT'" font-size="7.7519">Z</tspan><tspan x="5.112" y="0" stroke="#000000" stroke-width="0.0567" stroke-miterlimit="2.4142" font-family="'TimesNewRomanPSMT'" font-size="7.7519">r</tspan></text>
<text transform="matrix(1.0295 0 0 1 280.0786 257.5278)"><tspan x="0" y="0" stroke="#000000" stroke-width="0.0567" stroke-miterlimit="2.4142" font-family="'TimesNewRomanPSMT'" font-size="7.7519">Sr/</tspan><tspan x="10.176" y="0" stroke="#000000" stroke-width="0.0567" stroke-miterlimit="2.4142" font-family="'TimesNewRomanPSMT'" font-size="7.7519">2</tspan></text>
<text transform="matrix(1.0295 0 0 1 166.4927 13.4263)"><tspan x="0" y="0" stroke="#000000" stroke-width="0.0567" stroke-miterlimit="2.4142" font-family="'TimesNewRomanPSMT'" font-size="7.7519">Ti/10</tspan><tspan x="18.677" y="0" stroke="#000000" stroke-width="0.0567" stroke-miterlimit="2.4142" font-family="'TimesNewRomanPSMT'" font-size="7.7519">0</tspan></text>
<text transform="matrix(1.0295 0 0 1 198.4399 199.7563)" stroke="#000000" stroke-width="0.0567" stroke-miterlimit="2.4142" font-family="'TimesNewRomanPSMT'" font-size="7.7519">A</text>
<text transform="matrix(1.0295 0 0 1 164.9868 225.6821)" stroke="#000000" stroke-width="0.0567" stroke-miterlimit="2.4142" font-family="'TimesNewRomanPSMT'" font-size="7.7519">B</text>
<text transform="matrix(1.0295 0 0 1 131.5342 180.6353)" stroke="#000000" stroke-width="0.0567" stroke-miterlimit="2.4142" font-family="'TimesNewRomanPSMT'" font-size="7.7519">C</text>
<polygon fill-rule="evenodd" clip-rule="evenodd" fill="none" stroke="#000000" stroke-width="0.4989" stroke-miterlimit="2.4142" points="
	90.316,184.672 106.215,158.616 136.688,147.574 207.792,176.723 241.797,212.053 250.63,254.008 128.297,240.76 106.657,201.895 
	90.316,184.672 "/>
<polyline fill-rule="evenodd" clip-rule="evenodd" fill="none" stroke="#000000" stroke-width="0.4989" stroke-miterlimit="2.4142" points="
	107.098,201.897 162.745,200.571 218.833,223.979 250.63,254.008 "/>
<polyline fill-rule="evenodd" clip-rule="evenodd" fill="none" stroke="#000000" stroke-width="0.4989" stroke-miterlimit="2.4142" points="
	160.978,157.733 173.786,183.348 163.186,201.012 "/>
</svg>
