<?xml version="1.0" encoding="utf-8"?>
<!-- Generator: Adobe Illustrator 16.0.4, SVG Export Plug-In . SVG Version: 6.00 Build 0)  -->
<!DOCTYPE svg PUBLIC "-//W3C//DTD SVG 1.1//EN" "http://www.w3.org/Graphics/SVG/1.1/DTD/svg11.dtd">
<svg version="1.1" id="图层_1" xmlns="http://www.w3.org/2000/svg" xmlns:xlink="http://www.w3.org/1999/xlink" x="0px" y="0px"
	 width="268.589px" height="199.636px" viewBox="0 0 268.589 199.636" enable-background="new 0 0 268.589 199.636"
	 xml:space="preserve">
<line fill="none" stroke="#000000" stroke-width="0.4989" stroke-miterlimit="2.4142" x1="0.152" y1="199.188" x2="264.016" y2="199.388"/>
<line fill="none" stroke="#000000" stroke-width="0.4989" stroke-miterlimit="2.4142" x1="1.679" y1="0.288" x2="0.25" y2="199.515"/>
<line fill="none" stroke="#000000" stroke-width="0.3968" stroke-miterlimit="2.4142" x1="0.798" y1="162.853" x2="6.377" y2="162.784"/>
<line fill="none" stroke="#000000" stroke-width="0.3968" stroke-miterlimit="2.4142" x1="87.678" y1="199.138" x2="87.609" y2="193.56"/>
<text transform="matrix(0.9999 -0.0122 0.0122 0.9999 83.0073 184.5752)"><tspan x="0" y="0" stroke="#000000" stroke-width="0.0567" stroke-miterlimit="2.4142" font-family="'TimesNewRomanPSMT'" font-size="7.9999">Z</tspan><tspan x="5.286" y="0" stroke="#000000" stroke-width="0.0567" stroke-miterlimit="2.4142" font-family="'TimesNewRomanPSMT'" font-size="7.9999">r</tspan><tspan x="7.95" y="0" stroke="#000000" stroke-width="0.0567" stroke-miterlimit="2.4142" font-family="'KozGoPr6N-Regular-83pv-RKSJ-H'" font-size="7.9999"> </tspan><tspan x="9.814" y="0.001" stroke="#000000" stroke-width="0.0567" stroke-miterlimit="2.4142" font-family="'TimesNewRomanPSMT'" font-size="7.9999">pp</tspan><tspan x="18.615" y="0.001" stroke="#000000" stroke-width="0.0567" stroke-miterlimit="2.4142" font-family="'TimesNewRomanPSMT'" font-size="7.9999">m</tspan></text>
<text transform="matrix(0.9999 -0.0122 0.0122 0.9999 5.2539 75.1201)"><tspan x="0" y="0" stroke="#000000" stroke-width="0.0567" stroke-miterlimit="2.4142" font-family="'MyriadPro-Regular'" font-size="6.0001">860</tspan><tspan x="9.997" y="0" stroke="#000000" stroke-width="0.0567" stroke-miterlimit="2.4142" font-family="'MyriadPro-Regular'" font-size="6.0001">0</tspan></text>
<text transform="matrix(0.9999 -0.0122 0.0122 0.9999 5.5146 196.1084)"><tspan x="0" y="0" stroke="#000000" stroke-width="0.0567" stroke-miterlimit="2.4142" font-family="'MyriadPro-Regular'" font-size="6.0001">100</tspan><tspan x="9.997" y="-0.001" stroke="#000000" stroke-width="0.0567" stroke-miterlimit="2.4142" font-family="'MyriadPro-Regular'" font-size="6.0001">0</tspan></text>
<line fill="none" stroke="#000000" stroke-width="0.3968" stroke-miterlimit="2.4142" x1="24.43" y1="199.138" x2="24.362" y2="193.56"/>
<text transform="matrix(-0.0122 -0.9999 0.9999 -0.0122 24.5464 117.7803)"><tspan x="0" y="0" stroke="#000000" stroke-width="0.0567" stroke-miterlimit="2.4142" font-family="'TimesNewRomanPSMT'" font-size="7.9999">T</tspan><tspan x="5.287" y="0" stroke="#000000" stroke-width="0.0567" stroke-miterlimit="2.4142" font-family="'TimesNewRomanPSMT'" font-size="7.9999">i</tspan><tspan x="7.509" y="0" stroke="#000000" stroke-width="0.0567" stroke-miterlimit="2.4142" font-family="'KozGoPr6N-Regular-83pv-RKSJ-H'" font-size="7.9999"> </tspan><tspan x="9.373" y="0" stroke="#000000" stroke-width="0.0567" stroke-miterlimit="2.4142" font-family="'TimesNewRomanPSMT'" font-size="7.9999">pp</tspan><tspan x="18.174" y="0" stroke="#000000" stroke-width="0.0567" stroke-miterlimit="2.4142" font-family="'TimesNewRomanPSMT'" font-size="7.9999">m</tspan></text>
<text transform="matrix(0.9999 -0.0122 0.0122 0.9999 258.8003 188.5146)"><tspan x="0" y="0" stroke="#000000" stroke-width="0.0567" stroke-miterlimit="2.4142" font-family="'MyriadPro-Regular'" font-size="6.0001">80</tspan><tspan x="6.665" y="0" stroke="#000000" stroke-width="0.0567" stroke-miterlimit="2.4142" font-family="'MyriadPro-Regular'" font-size="6.0001">0</tspan></text>
<text transform="matrix(0.9999 -0.0122 0.0122 0.9999 0.168 188.6875)"><tspan x="0" y="0" stroke="#000000" stroke-width="0.0567" stroke-miterlimit="2.4142" font-family="'MyriadPro-Regular'" font-size="6.0001">1</tspan><tspan x="3.332" y="0" stroke="#000000" stroke-width="0.0567" stroke-miterlimit="2.4142" font-family="'MyriadPro-Regular'" font-size="6.0001">0</tspan></text>
<line fill="none" stroke="#000000" stroke-width="0.3968" stroke-miterlimit="2.4142" x1="135.08" y1="199.138" x2="135.011" y2="193.56"/>
<line fill="none" stroke="#000000" stroke-width="0.3968" stroke-miterlimit="2.4142" x1="164.264" y1="199.138" x2="164.197" y2="193.56"/>
<line fill="none" stroke="#000000" stroke-width="0.3968" stroke-miterlimit="2.4142" x1="196.583" y1="199.138" x2="196.515" y2="193.56"/>
<line fill="none" stroke="#000000" stroke-width="0.3968" stroke-miterlimit="2.4142" x1="264.552" y1="199.138" x2="264.484" y2="193.56"/>
<line fill="none" stroke="#000000" stroke-width="0.3968" stroke-miterlimit="2.4142" x1="238.109" y1="199.138" x2="238.041" y2="193.56"/>
<text transform="matrix(0.9999 -0.0122 0.0122 0.9999 83.0078 188.6875)"><tspan x="0" y="0" stroke="#000000" stroke-width="0.0567" stroke-miterlimit="2.4142" font-family="'MyriadPro-Regular'" font-size="6.0001">4</tspan><tspan x="3.332" y="0" stroke="#000000" stroke-width="0.0567" stroke-miterlimit="2.4142" font-family="'MyriadPro-Regular'" font-size="6.0001">3</tspan></text>
<text transform="matrix(0.9999 -0.0122 0.0122 0.9999 19.9219 189.0059)"><tspan x="0" y="0" stroke="#000000" stroke-width="0.0567" stroke-miterlimit="2.4142" font-family="'MyriadPro-Regular'" font-size="6.0001">1</tspan><tspan x="3.332" y="0" stroke="#000000" stroke-width="0.0567" stroke-miterlimit="2.4142" font-family="'MyriadPro-Regular'" font-size="6.0001">5</tspan></text>
<text transform="matrix(0.9999 -0.0122 0.0122 0.9999 190.6987 188.0498)"><tspan x="0" y="0" stroke="#000000" stroke-width="0.0567" stroke-miterlimit="2.4142" font-family="'MyriadPro-Regular'" font-size="6.0001">21</tspan><tspan x="6.665" y="0" stroke="#000000" stroke-width="0.0567" stroke-miterlimit="2.4142" font-family="'MyriadPro-Regular'" font-size="6.0001">5</tspan></text>
<text transform="matrix(0.9999 -0.0122 0.0122 0.9999 130.8003 188.3682)"><tspan x="0" y="0" stroke="#000000" stroke-width="0.0567" stroke-miterlimit="2.4142" font-family="'MyriadPro-Regular'" font-size="6.0001">9</tspan><tspan x="3.332" y="0" stroke="#000000" stroke-width="0.0567" stroke-miterlimit="2.4142" font-family="'MyriadPro-Regular'" font-size="6.0001">5</tspan></text>
<text transform="matrix(0.9999 -0.0122 0.0122 0.9999 231.1636 188.3682)"><tspan x="0" y="0" stroke="#000000" stroke-width="0.0567" stroke-miterlimit="2.4142" font-family="'MyriadPro-Regular'" font-size="6.0001">54</tspan><tspan x="6.665" y="0" stroke="#000000" stroke-width="0.0567" stroke-miterlimit="2.4142" font-family="'MyriadPro-Regular'" font-size="6.0001">2</tspan></text>
<text transform="matrix(0.9999 -0.0122 0.0122 0.9999 5.5146 162.0166)"><tspan x="0" y="0" stroke="#000000" stroke-width="0.0567" stroke-miterlimit="2.4142" font-family="'MyriadPro-Regular'" font-size="6.0001">186</tspan><tspan x="9.997" y="-0.001" stroke="#000000" stroke-width="0.0567" stroke-miterlimit="2.4142" font-family="'MyriadPro-Regular'" font-size="6.0001">0</tspan></text>
<text transform="matrix(0.9999 -0.0122 0.0122 0.9999 5.833 123.4639)"><tspan x="0" y="0" stroke="#000000" stroke-width="0.0567" stroke-miterlimit="2.4142" font-family="'MyriadPro-Regular'" font-size="6.0001">267</tspan><tspan x="9.997" y="0" stroke="#000000" stroke-width="0.0567" stroke-miterlimit="2.4142" font-family="'MyriadPro-Regular'" font-size="6.0001">0</tspan></text>
<text transform="matrix(0.9999 -0.0122 0.0122 0.9999 0.1562 37.5239)"><tspan x="0" y="0" stroke="#000000" stroke-width="0.0567" stroke-miterlimit="2.4142" font-family="'MyriadPro-Regular'" font-size="6.0001">1660</tspan><tspan x="13.33" y="0" stroke="#000000" stroke-width="0.0567" stroke-miterlimit="2.4142" font-family="'MyriadPro-Regular'" font-size="6.0001">0</tspan></text>
<text transform="matrix(0.9999 -0.0122 0.0122 0.9999 5.2539 7.3345)"><tspan x="0" y="0" stroke="#000000" stroke-width="0.0567" stroke-miterlimit="2.4142" font-family="'MyriadPro-Regular'" font-size="6.0001">3270</tspan><tspan x="13.33" y="0" stroke="#000000" stroke-width="0.0567" stroke-miterlimit="2.4142" font-family="'MyriadPro-Regular'" font-size="6.0001">0</tspan></text>
<line fill="none" stroke="#000000" stroke-width="0.3968" stroke-miterlimit="2.4142" x1="0.798" y1="123.577" x2="6.377" y2="123.511"/>
<line fill="none" stroke="#000000" stroke-width="0.3968" stroke-miterlimit="2.4142" x1="1.073" y1="76.071" x2="6.652" y2="76.002"/>
<line fill="none" stroke="#000000" stroke-width="0.3968" stroke-miterlimit="2.4142" x1="0.798" y1="37.895" x2="6.377" y2="37.826"/>
<line fill="none" stroke="#000000" stroke-width="0.3968" stroke-miterlimit="2.4142" x1="1.818" y1="0.267" x2="7.397" y2="0.198"/>
<text transform="matrix(0.9999 -0.0122 0.0122 0.9999 120.0249 132.4033)"><tspan x="0" y="0" stroke="#000000" stroke-width="0.0567" stroke-miterlimit="2.4142" font-family="'TimesNewRomanPSMT'" font-size="7.9999">Volcanic-ar</tspan><tspan x="42.153" y="-0.001" stroke="#000000" stroke-width="0.0567" stroke-miterlimit="2.4142" font-family="'TimesNewRomanPSMT'" font-size="7.9999">c</tspan></text>
<text transform="matrix(0.9999 -0.0122 0.0122 0.9999 104.3633 93.1523)"><tspan x="0" y="0" stroke="#000000" stroke-width="0.0567" stroke-miterlimit="2.4142" font-family="'TimesNewRomanPSMT'" font-size="7.9999">MOR</tspan><tspan x="19.427" y="0" stroke="#000000" stroke-width="0.0567" stroke-miterlimit="2.4142" font-family="'TimesNewRomanPSMT'" font-size="7.9999">B</tspan></text>
<text transform="matrix(0.9999 -0.0122 0.0122 0.9999 185.2534 56.8838)"><tspan x="0" y="0" stroke="#000000" stroke-width="0.0567" stroke-miterlimit="2.4142" font-family="'TimesNewRomanPSMT'" font-size="7.9999">Within-plat</tspan><tspan x="41.278" y="0" stroke="#000000" stroke-width="0.0567" stroke-miterlimit="2.4142" font-family="'TimesNewRomanPSMT'" font-size="7.9999">e</tspan></text>
<path fill-rule="evenodd" clip-rule="evenodd" fill="none" stroke="#000000" stroke-width="0.4989" stroke-miterlimit="2.4142" d="
	M92.016,91.708c2.47-2.586,33.241-33.131,44.173-39.824c10.931-6.692,20.523-14.277,24.762-14.277s10.709,3.346,11.378,6.023
	c0.669,2.677,5.577,6.246-6.47,19.631c-12.047,13.386-37.256,37.703-51.087,47.295c-13.831,9.594-22.309,14.947-26.324,14.055
	s-13.162-5.354-10.931-12.27C79.748,105.424,89.546,94.295,92.016,91.708L92.016,91.708z"/>
<path fill-rule="evenodd" clip-rule="evenodd" fill="none" stroke="#000000" stroke-width="0.4989" stroke-miterlimit="2.4142" d="
	M258.679,71.991c-1.785-2.141-11.421-15.702-13.562-21.769c-2.141-6.067-4.996-16.773-7.852-21.413
	c-2.854-4.64-5.523-16.777-27.123-22.84c-3.584-1.007-7.07-2.34-10.075-3.008c-6.612-1.468-11.88-1.672-17.7-1.919
	c-7.472-0.317-15.436-0.094-26.826,3.499c-24.302,7.664-41.806,17.24-49.913,29.562c-8.107,12.323-1.297,26.592,1.622,29.834
	c2.918,3.243,16.863,12.647,31.455,13.944c14.594,1.299,36.645,7.783,42.481,11.352c5.837,3.566,20.105,8.754,23.349,22.051
	c3.242,13.295,8.756,40.535,17.512,51.236c8.755,10.701,15.24,19.457,15.24,19.457"/>
<path fill-rule="evenodd" clip-rule="evenodd" fill="none" stroke="#000000" stroke-width="0.4989" stroke-miterlimit="2.4142" d="
	M134.832,199.126c-2.676-14.271-4.758-24.977-15.76-33.898c-11.002-8.92-32.709-17.246-46.387-17.246s-19.328,1.785-28.546,8.326
	c-9.218,6.541-21.41,11.895-24.383,0c-2.426-9.705-0.405-20.131,3.25-30.062c3.891-10.572,9.753-20.586,18.127-28.583
	c8.507-8.123,19.12-14.162,29.174-16.588c17.647-4.256,30.627-4.756,44.603-3.568c13.976,1.189,29.438,2.975,38.656,5.354
	s22.896,5.352,30.925,13.678c8.028,8.328,11.597,15.167,11.895,30.926c0.297,15.76,0.594,71.662,0.594,71.662"/>
</svg>
