<?xml version="1.0" encoding="utf-8"?>
<!-- Generator: Adobe Illustrator 16.0.4, SVG Export Plug-In . SVG Version: 6.00 Build 0)  -->
<!DOCTYPE svg PUBLIC "-//W3C//DTD SVG 1.1//EN" "http://www.w3.org/Graphics/SVG/1.1/DTD/svg11.dtd">
<svg version="1.1" id="图层_1" xmlns="http://www.w3.org/2000/svg" xmlns:xlink="http://www.w3.org/1999/xlink" x="0px" y="0px"
	 width="250.742px" height="161.309px" viewBox="0 0 250.742 161.309" enable-background="new 0 0 250.742 161.309"
	 xml:space="preserve">
<g>
	
		<line fill="none" stroke="#000000" stroke-width="0.4989" stroke-miterlimit="2.4142" x1="0.363" y1="160.862" x2="250.638" y2="161.061"/>
	
		<line fill="none" stroke="#000000" stroke-width="0.4989" stroke-miterlimit="2.4142" x1="1.679" y1="0.082" x2="0.25" y2="160.819"/>
	
		<line fill="none" stroke="#000000" stroke-width="0.3968" stroke-miterlimit="2.4142" x1="1.674" y1="35.459" x2="7.253" y2="35.391"/>
	
		<line fill="none" stroke="#000000" stroke-width="0.3968" stroke-miterlimit="2.4142" x1="250.544" y1="160.399" x2="250.476" y2="154.819"/>
	
		<line fill="none" stroke="#000000" stroke-width="0.3968" stroke-miterlimit="2.4142" x1="124.723" y1="160.399" x2="124.655" y2="154.819"/>
	
		<text transform="matrix(1.0295 0 0 1 25.1562 129.7827)" stroke="#000000" stroke-width="0.0567" stroke-miterlimit="2.4142" font-family="'TimesNewRomanPSMT'" font-size="7.7519">A</text>
	
		<text transform="matrix(1.0295 0 0 1 71.0684 82.186)" stroke="#000000" stroke-width="0.0567" stroke-miterlimit="2.4142" font-family="'TimesNewRomanPSMT'" font-size="7.7519">B</text>
	
		<text transform="matrix(1.0295 0 0 1 150.7529 103.4722)" stroke="#000000" stroke-width="0.0567" stroke-miterlimit="2.4142" font-family="'TimesNewRomanPSMT'" font-size="7.7519">C</text>
	
		<text transform="matrix(1.0295 0 0 1 152.6729 43.3413)" stroke="#000000" stroke-width="0.0567" stroke-miterlimit="2.4142" font-family="'TimesNewRomanPSMT'" font-size="7.7519">D</text>
	
		<polyline fill-rule="evenodd" clip-rule="evenodd" fill="none" stroke="#000000" stroke-width="0.4989" stroke-miterlimit="2.4142" points="
		168.265,77.316 208.73,30.759 165.219,0.3 105.758,38.013 54.699,86.454 38.6,111.256 49.478,124.309 112.569,72.53 
		164.489,76.872 239.624,86.019 236.144,120.828 138.677,132.141 82.546,133.012 15.103,139.538 22.5,104.729 63.687,58.164 
		96.905,85.583 	"/>
	
		<line fill="none" stroke="#000000" stroke-width="0.4989" stroke-miterlimit="2.4142" x1="82.613" y1="97.327" x2="81.735" y2="132.723"/>
</g>
</svg>
