<?xml version="1.0" encoding="utf-8"?>
<!-- Generator: Adobe Illustrator 16.0.4, SVG Export Plug-In . SVG Version: 6.00 Build 0)  -->
<!DOCTYPE svg PUBLIC "-//W3C//DTD SVG 1.1//EN" "http://www.w3.org/Graphics/SVG/1.1/DTD/svg11.dtd">
<svg version="1.1" id="图层_1" xmlns="http://www.w3.org/2000/svg" xmlns:xlink="http://www.w3.org/1999/xlink" x="0px" y="0px"
	 width="305.798px" height="264.92px" viewBox="0 0 305.798 264.92" enable-background="new 0 0 305.798 264.92"
	 xml:space="preserve">
<polygon fill-rule="evenodd" clip-rule="evenodd" fill="none" stroke="#000000" stroke-width="0.4989" stroke-miterlimit="2.4142" points="
	0.434,264.671 305.368,264.671 153.913,0.499 0.434,264.671 "/>
<line fill="none" stroke="#000000" stroke-width="0.3968" stroke-miterlimit="2.4142" x1="30.453" y1="258.99" x2="30.453" y2="264.896"/>
<line fill="none" stroke="#000000" stroke-width="0.3968" stroke-miterlimit="2.4142" x1="61.016" y1="258.99" x2="61.016" y2="264.896"/>
<line fill="none" stroke="#000000" stroke-width="0.3968" stroke-miterlimit="2.4142" x1="91.581" y1="258.99" x2="91.581" y2="264.896"/>
<line fill="none" stroke="#000000" stroke-width="0.3968" stroke-miterlimit="2.4142" x1="122.143" y1="258.99" x2="122.143" y2="264.896"/>
<line fill="none" stroke="#000000" stroke-width="0.3968" stroke-miterlimit="2.4142" x1="152.708" y1="258.99" x2="152.708" y2="264.896"/>
<line fill="none" stroke="#000000" stroke-width="0.3968" stroke-miterlimit="2.4142" x1="183.272" y1="258.99" x2="183.272" y2="264.896"/>
<line fill="none" stroke="#000000" stroke-width="0.3968" stroke-miterlimit="2.4142" x1="213.834" y1="258.99" x2="213.834" y2="264.896"/>
<line fill="none" stroke="#000000" stroke-width="0.3968" stroke-miterlimit="2.4142" x1="244.399" y1="258.99" x2="244.399" y2="264.896"/>
<line fill="none" stroke="#000000" stroke-width="0.3968" stroke-miterlimit="2.4142" x1="274.963" y1="258.99" x2="274.963" y2="264.896"/>
<line fill="none" stroke="#000000" stroke-width="0.3968" stroke-miterlimit="2.4142" x1="287.491" y1="243.667" x2="290.61" y2="238.839"/>
<line fill="none" stroke="#000000" stroke-width="0.3968" stroke-miterlimit="2.4142" x1="271.897" y1="217.113" x2="275.016" y2="212.285"/>
<line fill="none" stroke="#000000" stroke-width="0.3968" stroke-miterlimit="2.4142" x1="256.719" y1="190.156" x2="259.838" y2="185.328"/>
<line fill="none" stroke="#000000" stroke-width="0.3968" stroke-miterlimit="2.4142" x1="241.543" y1="163.199" x2="244.661" y2="158.371"/>
<line fill="none" stroke="#000000" stroke-width="0.3968" stroke-miterlimit="2.4142" x1="226.157" y1="136.242" x2="229.276" y2="131.414"/>
<line fill="none" stroke="#000000" stroke-width="0.3968" stroke-miterlimit="2.4142" x1="210.981" y1="110.089" x2="214.098" y2="105.261"/>
<line fill="none" stroke="#000000" stroke-width="0.3968" stroke-miterlimit="2.4142" x1="195.594" y1="83.535" x2="198.713" y2="78.707"/>
<line fill="none" stroke="#000000" stroke-width="0.3968" stroke-miterlimit="2.4142" x1="180.625" y1="57.584" x2="183.745" y2="52.757"/>
<line fill="none" stroke="#000000" stroke-width="0.3968" stroke-miterlimit="2.4142" x1="165.655" y1="31.231" x2="168.774" y2="26.403"/>
<line fill="none" stroke="#000000" stroke-width="0.3968" stroke-miterlimit="2.4142" x1="138.834" y1="26.202" x2="141.538" y2="30.829"/>
<line fill="none" stroke="#000000" stroke-width="0.3968" stroke-miterlimit="2.4142" x1="107.856" y1="79.713" x2="110.559" y2="84.34"/>
<line fill="none" stroke="#000000" stroke-width="0.3968" stroke-miterlimit="2.4142" x1="123.45" y1="53.762" x2="126.153" y2="58.389"/>
<line fill="none" stroke="#000000" stroke-width="0.3968" stroke-miterlimit="2.4142" x1="93.096" y1="106.267" x2="95.797" y2="110.894"/>
<line fill="none" stroke="#000000" stroke-width="0.3968" stroke-miterlimit="2.4142" x1="77.293" y1="132.218" x2="79.997" y2="136.845"/>
<line fill="none" stroke="#000000" stroke-width="0.3968" stroke-miterlimit="2.4142" x1="62.325" y1="159.779" x2="65.028" y2="164.406"/>
<line fill="none" stroke="#000000" stroke-width="0.3968" stroke-miterlimit="2.4142" x1="46.524" y1="185.931" x2="49.226" y2="190.558"/>
<line fill="none" stroke="#000000" stroke-width="0.3968" stroke-miterlimit="2.4142" x1="31.137" y1="212.285" x2="33.84" y2="216.912"/>
<line fill="none" stroke="#000000" stroke-width="0.3968" stroke-miterlimit="2.4142" x1="15.752" y1="238.839" x2="18.456" y2="243.466"/>
<text transform="matrix(1.0295 0 0 1 15.7524 258.9897)"><tspan x="0" y="0" stroke="#000000" stroke-width="0.0567" stroke-miterlimit="2.4142" font-family="'TimesNewRomanPSMT'" font-size="7.7519">Zr/</tspan><tspan x="10.6" y="0" stroke="#000000" stroke-width="0.0567" stroke-miterlimit="2.4142" font-family="'TimesNewRomanPSMT'" font-size="7.7519">4</tspan></text>
<text transform="matrix(1.0295 0 0 1 287.4907 258.9897)" stroke="#000000" stroke-width="0.0567" stroke-miterlimit="2.4142" font-family="'TimesNewRomanPSMT'" font-size="7.7519">Y</text>
<text transform="matrix(1.0295 0 0 1 148.3892 20.4614)"><tspan x="0" y="0" stroke="#000000" stroke-width="0.0567" stroke-miterlimit="2.4142" font-family="'TimesNewRomanPSMT'" font-size="7.7519">2N</tspan><tspan x="10.227" y="0" stroke="#000000" stroke-width="0.0567" stroke-miterlimit="2.4142" font-family="'TimesNewRomanPSMT'" font-size="7.7519">b</tspan></text>
<text transform="matrix(1.0295 0 0 1 119.2363 160.6196)" stroke="#000000" stroke-width="0.0567" stroke-miterlimit="2.4142" font-family="'TimesNewRomanPSMT'" font-size="7.7519">A</text>
<text transform="matrix(1.0295 0 0 1 171.3677 176.4136)" stroke="#000000" stroke-width="0.0567" stroke-miterlimit="2.4142" font-family="'TimesNewRomanPSMT'" font-size="7.7519">B</text>
<text transform="matrix(1.0295 0 0 1 128.6528 220.0728)" stroke="#000000" stroke-width="0.0567" stroke-miterlimit="2.4142" font-family="'TimesNewRomanPSMT'" font-size="7.7519">C</text>
<text transform="matrix(1.0295 0 0 1 182.2583 233.605)" stroke="#000000" stroke-width="0.0567" stroke-miterlimit="2.4142" font-family="'TimesNewRomanPSMT'" font-size="7.7519">D</text>
<g>
	
		<text transform="matrix(1 0 0 1 138.6147 100.1519)" fill="#040000" font-family="'KozGoPr6N-Regular-83pv-RKSJ-H'" font-size="9.5147">｢</text>
	<text transform="matrix(1 0 0 1 148.1294 100.1519)" fill="#040000" font-family="'TimesNewRomanPSMT'" font-size="9.5147"> </text>
</g>
<g>
	
		<text transform="matrix(1 0 0 1 144.5508 142.7954)" fill="#040000" font-family="'KozGoPr6N-Regular-83pv-RKSJ-H'" font-size="8.6783">｢</text>
	<text transform="matrix(1 0 0 1 153.229 142.7954)" fill="#040000" font-family="'TimesNewRomanPSMT'" font-size="8.6783"> </text>
</g>
<polyline fill-rule="evenodd" clip-rule="evenodd" fill="none" stroke="#000000" stroke-width="0.4989" stroke-miterlimit="2.4142" points="
	236.002,264.246 143.639,56.062 94.282,175.304 104.18,232.265 103.944,232.578 153.413,264.246 "/>
<polyline fill-rule="evenodd" clip-rule="evenodd" fill="none" stroke="#000000" stroke-width="0.4989" stroke-miterlimit="2.4142" points="
	169.946,116.654 128.913,131.818 123.856,152.634 "/>
<polyline fill-rule="evenodd" clip-rule="evenodd" fill="none" stroke="#000000" stroke-width="0.4989" stroke-miterlimit="2.4142" points="
	121.477,165.123 104.528,232.623 137.833,171.962 176.786,132.414 "/>
<polyline fill-rule="evenodd" clip-rule="evenodd" fill="none" stroke="#000000" stroke-width="0.4989" stroke-miterlimit="2.4142" points="
	137.536,171.962 149.727,182.369 159.243,207.05 139.319,255.517 "/>
<polyline fill-rule="evenodd" clip-rule="evenodd" fill="none" stroke="#000000" stroke-width="0.4989" stroke-miterlimit="2.4142" points="
	159.243,207.347 167.27,201.103 209.792,207.05 "/>
</svg>
