<?xml version="1.0" encoding="utf-8"?>
<!-- Generator: Adobe Illustrator 16.0.4, SVG Export Plug-In . SVG Version: 6.00 Build 0)  -->
<!DOCTYPE svg PUBLIC "-//W3C//DTD SVG 1.1//EN" "http://www.w3.org/Graphics/SVG/1.1/DTD/svg11.dtd">
<svg version="1.1" id="图层_1" xmlns="http://www.w3.org/2000/svg" xmlns:xlink="http://www.w3.org/1999/xlink" x="0px" y="0px"
	 width="307.014px" height="266.995px" viewBox="0 0 307.014 266.995" enable-background="new 0 0 307.014 266.995"
	 xml:space="preserve">
<polygon fill-rule="evenodd" clip-rule="evenodd" fill="none" stroke="#000000" stroke-width="0.4989" stroke-miterlimit="2.4142" points="
	0.433,266.745 306.584,266.745 154.526,0.5 0.433,266.745 "/>
<line fill="none" stroke="#000000" stroke-width="0.3968" stroke-miterlimit="2.4142" x1="30.571" y1="261.018" x2="30.571" y2="266.971"/>
<line fill="none" stroke="#000000" stroke-width="0.3968" stroke-miterlimit="2.4142" x1="61.257" y1="261.018" x2="61.257" y2="266.971"/>
<line fill="none" stroke="#000000" stroke-width="0.3968" stroke-miterlimit="2.4142" x1="91.943" y1="261.018" x2="91.943" y2="266.971"/>
<line fill="none" stroke="#000000" stroke-width="0.3968" stroke-miterlimit="2.4142" x1="122.628" y1="261.018" x2="122.628" y2="266.971"/>
<line fill="none" stroke="#000000" stroke-width="0.3968" stroke-miterlimit="2.4142" x1="153.315" y1="261.018" x2="153.315" y2="266.971"/>
<line fill="none" stroke="#000000" stroke-width="0.3968" stroke-miterlimit="2.4142" x1="184" y1="261.018" x2="184" y2="266.971"/>
<line fill="none" stroke="#000000" stroke-width="0.3968" stroke-miterlimit="2.4142" x1="214.687" y1="261.018" x2="214.687" y2="266.971"/>
<line fill="none" stroke="#000000" stroke-width="0.3968" stroke-miterlimit="2.4142" x1="245.374" y1="261.018" x2="245.374" y2="266.971"/>
<line fill="none" stroke="#000000" stroke-width="0.3968" stroke-miterlimit="2.4142" x1="276.059" y1="261.018" x2="276.059" y2="266.971"/>
<line fill="none" stroke="#000000" stroke-width="0.3968" stroke-miterlimit="2.4142" x1="288.637" y1="245.577" x2="291.768" y2="240.71"/>
<line fill="none" stroke="#000000" stroke-width="0.3968" stroke-miterlimit="2.4142" x1="272.981" y1="218.813" x2="276.113" y2="213.948"/>
<line fill="none" stroke="#000000" stroke-width="0.3968" stroke-miterlimit="2.4142" x1="257.743" y1="191.645" x2="260.875" y2="186.78"/>
<line fill="none" stroke="#000000" stroke-width="0.3968" stroke-miterlimit="2.4142" x1="242.504" y1="164.477" x2="245.636" y2="159.611"/>
<line fill="none" stroke="#000000" stroke-width="0.3968" stroke-miterlimit="2.4142" x1="227.058" y1="137.308" x2="230.19" y2="132.442"/>
<line fill="none" stroke="#000000" stroke-width="0.3968" stroke-miterlimit="2.4142" x1="211.821" y1="110.951" x2="214.952" y2="106.085"/>
<line fill="none" stroke="#000000" stroke-width="0.3968" stroke-miterlimit="2.4142" x1="196.374" y1="84.188" x2="199.504" y2="79.322"/>
<line fill="none" stroke="#000000" stroke-width="0.3968" stroke-miterlimit="2.4142" x1="181.344" y1="58.033" x2="184.475" y2="53.167"/>
<line fill="none" stroke="#000000" stroke-width="0.3968" stroke-miterlimit="2.4142" x1="166.315" y1="31.473" x2="169.446" y2="26.607"/>
<line fill="none" stroke="#000000" stroke-width="0.3968" stroke-miterlimit="2.4142" x1="139.387" y1="26.404" x2="142.101" y2="31.068"/>
<line fill="none" stroke="#000000" stroke-width="0.3968" stroke-miterlimit="2.4142" x1="108.285" y1="80.335" x2="110.999" y2="84.999"/>
<line fill="none" stroke="#000000" stroke-width="0.3968" stroke-miterlimit="2.4142" x1="123.941" y1="54.181" x2="126.654" y2="58.844"/>
<line fill="none" stroke="#000000" stroke-width="0.3968" stroke-miterlimit="2.4142" x1="93.464" y1="107.099" x2="96.178" y2="111.762"/>
<line fill="none" stroke="#000000" stroke-width="0.3968" stroke-miterlimit="2.4142" x1="77.6" y1="133.253" x2="80.313" y2="137.917"/>
<line fill="none" stroke="#000000" stroke-width="0.3968" stroke-miterlimit="2.4142" x1="62.571" y1="161.03" x2="65.284" y2="165.693"/>
<line fill="none" stroke="#000000" stroke-width="0.3968" stroke-miterlimit="2.4142" x1="46.706" y1="187.387" x2="49.42" y2="192.05"/>
<line fill="none" stroke="#000000" stroke-width="0.3968" stroke-miterlimit="2.4142" x1="31.259" y1="213.948" x2="33.973" y2="218.61"/>
<line fill="none" stroke="#000000" stroke-width="0.3968" stroke-miterlimit="2.4142" x1="15.812" y1="240.709" x2="18.526" y2="245.374"/>
<text transform="matrix(1.0295 0 0 1 10.5903 261.0181)"><tspan x="0" y="0" stroke="#000000" stroke-width="0.0567" stroke-miterlimit="2.4142" font-family="'TimesNewRomanPSMT'" font-size="7.7519">Z</tspan><tspan x="5.112" y="0" stroke="#000000" stroke-width="0.0567" stroke-miterlimit="2.4142" font-family="'TimesNewRomanPSMT'" font-size="7.7519">r</tspan></text>
<text transform="matrix(1.0295 0 0 1 280.3569 261.0181)" stroke="#000000" stroke-width="0.0567" stroke-miterlimit="2.4142" font-family="'TimesNewRomanPSMT'" font-size="7.7519">Y x 3</text>
<text transform="matrix(1.0295 0 0 1 116.4658 12.3047)"><tspan x="0" y="0" stroke="#000000" stroke-width="0.0567" stroke-miterlimit="2.4142" font-family="'TimesNewRomanPSMT'" font-size="7.7519">Ti/10</tspan><tspan x="18.677" y="0" stroke="#000000" stroke-width="0.0567" stroke-miterlimit="2.4142" font-family="'TimesNewRomanPSMT'" font-size="7.7519">0</tspan></text>
<text transform="matrix(1.0295 0 0 1 164.7368 162.5376)" stroke="#000000" stroke-width="0.0567" stroke-miterlimit="2.4142" font-family="'TimesNewRomanPSMT'" font-size="7.7519">A</text>
<text transform="matrix(1.0295 0 0 1 149.2969 187.606)" stroke="#000000" stroke-width="0.0567" stroke-miterlimit="2.4142" font-family="'TimesNewRomanPSMT'" font-size="7.7519">B</text>
<text transform="matrix(1.0295 0 0 1 115.4155 218.8989)" stroke="#000000" stroke-width="0.0567" stroke-miterlimit="2.4142" font-family="'TimesNewRomanPSMT'" font-size="7.7519">C</text>
<text transform="matrix(1.0295 0 0 1 116.4658 164.8599)" stroke="#000000" stroke-width="0.0567" stroke-miterlimit="2.4142" font-family="'TimesNewRomanPSMT'" font-size="7.7519">D</text>
<polygon fill-rule="evenodd" clip-rule="evenodd" fill="none" stroke="#000000" stroke-width="0.4989" stroke-miterlimit="2.4142" points="
	82.398,192.456 112.42,132.84 159.168,138.416 184.043,162.433 181.042,186.879 154.451,216.473 121.855,239.632 98.267,240.061 
	90.118,224.192 98.696,202.749 82.398,192.456 "/>
<polyline fill-rule="evenodd" clip-rule="evenodd" fill="none" stroke="#000000" stroke-width="0.4989" stroke-miterlimit="2.4142" points="
	98.696,203.176 123.142,188.167 159.597,138.844 "/>
<line fill="none" stroke="#000000" stroke-width="0.4989" stroke-miterlimit="2.4142" x1="150.59" y1="153.855" x2="180.613" y2="187.308"/>
<line fill="none" stroke="#000000" stroke-width="0.4989" stroke-miterlimit="2.4142" x1="123.142" y1="187.737" x2="154.451" y2="216.472"/>
</svg>
