<?xml version="1.0" encoding="utf-8" standalone="no"?>
<!DOCTYPE svg PUBLIC "-//W3C//DTD SVG 1.1//EN"
  "http://www.w3.org/Graphics/SVG/1.1/DTD/svg11.dtd">
<!-- Created with matplotlib (http://matplotlib.org/) -->
<svg height="997pt" version="1.1" viewBox="0 0 576 997" width="576pt" xmlns="http://www.w3.org/2000/svg" xmlns:xlink="http://www.w3.org/1999/xlink">
 <defs>
  <style type="text/css">
*{stroke-linecap:butt;stroke-linejoin:round;stroke-miterlimit:100000;}
  </style>
 </defs>
 <g id="figure_1">
  <g id="patch_1">
   <path d="M 0 997.661265 
L 576 997.661265 
L 576 0 
L 0 0 
z
" style="fill:#ffffff;"/>
  </g>
  <g id="axes_1">
   <g id="patch_2">
    <path d="M 295.2 722.030633 
C 354.393332 722.030633 411.170227 698.512873 453.026234 656.656866 
C 494.88224 614.80086 518.4 558.023964 518.4 498.830633 
C 518.4 439.637301 494.88224 382.860405 453.026234 341.004399 
C 411.170227 299.148393 354.393332 275.630633 295.2 275.630633 
C 236.006668 275.630633 179.229773 299.148393 137.373766 341.004399 
C 95.51776 382.860405 72 439.637301 72 498.830633 
C 72 558.023964 95.51776 614.80086 137.373766 656.656866 
C 179.229773 698.512873 236.006668 722.030633 295.2 722.030633 
z
" style="fill:#ffffff;"/>
   </g>
   <g id="line2d_1">
    <path clip-path="url(#p527e567ac7)" d="M 518.4 498.830633 
" style="fill:none;stroke:#0000ff;stroke-linecap:square;"/>
   </g>
   <g id="line2d_2">
    <path clip-path="url(#p527e567ac7)" d="M 406.8 305.533762 
L 408.909679 309.585947 
L 410.926739 313.629136 
L 414.689985 321.679445 
L 418.104095 329.667658 
L 421.183942 337.578541 
L 423.944741 345.398625 
L 426.401892 353.116169 
L 428.570833 360.721092 
L 430.466902 368.204903 
L 432.105225 375.560614 
L 433.500605 382.782646 
L 434.667436 389.86673 
L 435.619625 396.809804 
L 436.370535 403.609905 
L 436.932935 410.266066 
L 437.318963 416.778211 
L 437.540107 423.147055 
L 437.58614 432.434885 
L 437.319029 441.410818 
L 436.76906 450.084496 
L 435.96323 458.467426 
L 434.92538 466.572487 
L 433.676367 474.413513 
L 432.234251 482.004942 
L 430.614488 489.361529 
L 428.830127 496.49811 
L 426.891998 503.429418 
L 424.808886 510.169941 
L 422.587698 516.733806 
L 420.233605 523.134703 
L 417.750175 529.385823 
L 415.139483 535.499812 
L 411.461577 543.459271 
L 407.556473 551.223316 
L 403.418241 558.816983 
L 399.037213 566.263307 
L 394.400077 573.583252 
L 389.489918 580.795608 
L 384.286208 587.916841 
L 380.176364 593.206446 
L 375.876271 598.45753 
L 371.37313 603.673951 
L 366.652913 608.85847 
L 361.700348 614.012613 
L 356.498912 619.13652 
L 351.03084 624.228751 
L 345.277152 629.286074 
L 339.217712 634.303219 
L 332.831312 639.272603 
L 326.095817 644.184024 
L 318.988346 649.024335 
L 311.485529 653.777089 
L 303.563839 658.42218 
L 298.038485 661.447353 
L 292.309874 664.405827 
L 286.371498 667.28848 
L 280.217163 670.085246 
L 273.841079 672.785082 
L 267.23797 675.375942 
L 260.403178 677.844762 
L 253.332787 680.177455 
L 246.023746 682.358911 
L 238.473997 684.373028 
L 230.682611 686.202736 
L 222.649918 687.830057 
L 214.377643 689.236173 
L 205.869033 690.401509 
L 197.12898 691.305848 
L 188.164134 691.928446 
L 183.6 692.127503 
L 183.6 692.127503 
" style="fill:none;opacity:0.6;stroke:#008000;stroke-linecap:square;stroke-width:0.4;"/>
   </g>
   <g id="line2d_3">
    <path clip-path="url(#p527e567ac7)" d="M 382.411188 293.373949 
L 384.960533 297.225175 
L 387.414761 301.07544 
L 392.044279 308.763033 
L 396.313098 316.417774 
L 400.235282 324.022569 
L 403.825416 331.562161 
L 407.098436 339.023104 
L 410.069463 346.393707 
L 412.753651 353.663963 
L 415.166056 360.825472 
L 417.321514 367.871342 
L 419.234539 374.796093 
L 420.919233 381.595551 
L 422.389215 388.266735 
L 423.657561 394.807751 
L 424.736759 401.217684 
L 425.638677 407.496487 
L 426.683536 416.670601 
L 427.389746 425.55666 
L 427.789113 434.162601 
L 427.910184 442.498502 
L 427.778358 450.576057 
L 427.416042 458.408132 
L 426.842825 466.00839 
L 426.075664 473.390981 
L 425.129073 480.570292 
L 424.015309 487.560753 
L 422.744547 494.376679 
L 421.325038 501.032153 
L 419.763258 507.540944 
L 417.467696 516.014237 
L 414.934858 524.281062 
L 412.167514 532.370527 
L 409.164248 540.310227 
L 405.919668 548.126205 
L 402.424518 555.84292 
L 398.665726 563.483194 
L 394.626373 571.068121 
L 390.285613 578.616935 
L 385.618533 586.146795 
L 381.886703 591.790741 
L 377.941088 597.437621 
L 373.766314 603.091653 
L 369.345522 608.75589 
L 364.66033 614.432035 
L 359.690818 620.12022 
L 354.415532 625.818751 
L 348.811523 631.523808 
L 342.854418 637.229111 
L 336.518552 642.925548 
L 329.777159 648.600762 
L 322.602638 654.238715 
L 317.56514 657.96687 
L 312.314319 661.662498 
L 306.841898 665.317535 
L 301.139753 668.922895 
L 295.2 672.46841 
L 289.015107 675.942794 
L 282.578003 679.333593 
L 275.882206 682.627163 
L 268.921953 685.808653 
L 261.692343 688.861999 
L 254.189485 691.769936 
L 246.410648 694.514034 
L 238.354416 697.074743 
L 230.020839 699.431463 
L 221.411584 701.56264 
L 212.530076 703.445875 
L 207.988812 704.287316 
L 207.988812 704.287316 
" style="fill:none;opacity:0.6;stroke:#008000;stroke-linecap:square;stroke-width:0.4;"/>
   </g>
   <g id="line2d_4">
    <path clip-path="url(#p527e567ac7)" d="M 385.983619 294.927286 
L 388.505309 298.736751 
L 390.933948 302.546951 
L 395.518065 310.159793 
L 399.748468 317.747374 
L 403.638355 325.292989 
L 407.201452 332.781652 
L 410.451846 340.200076 
L 413.403835 347.536623 
L 416.071789 354.781243 
L 418.470019 361.925407 
L 420.612662 368.962019 
L 422.513589 375.885329 
L 424.186311 382.690837 
L 425.643911 389.375195 
L 426.898989 395.936106 
L 427.963607 402.372226 
L 428.849265 408.683065 
L 429.865889 417.915203 
L 430.538481 426.869886 
L 430.898171 435.553536 
L 430.97301 443.974776 
L 430.788055 452.143921 
L 430.365495 460.072551 
L 429.724799 467.773136 
L 428.882882 475.258734 
L 427.854272 482.542736 
L 426.651279 489.638664 
L 425.284156 496.560005 
L 423.761246 503.32009 
L 422.089125 509.931993 
L 420.27272 516.408457 
L 418.315415 522.761845 
L 415.489647 531.062146 
L 412.417499 539.191854 
L 409.095691 547.176485 
L 405.517016 555.03996 
L 401.670425 562.804518 
L 397.541061 570.490615 
L 393.110229 578.116773 
L 389.575813 583.806997 
L 385.848164 589.478797 
L 381.914956 595.137348 
L 377.762527 600.786862 
L 373.375847 606.430455 
L 368.738499 612.069991 
L 363.832665 617.705895 
L 358.639131 623.336938 
L 353.137319 628.959982 
L 347.305347 634.569703 
L 341.120133 640.158271 
L 334.557547 645.714999 
L 327.59263 651.225975 
L 320.19988 656.673661 
L 315.021012 660.259819 
L 309.633027 663.80089 
L 304.028502 667.28848 
L 298.200222 670.713228 
L 292.141277 674.064756 
L 285.845159 677.331636 
L 279.305871 680.501363 
L 272.518045 683.560333 
L 265.477068 686.493843 
L 258.179209 689.286089 
L 250.621762 691.920195 
L 242.803175 694.378247 
L 234.723195 696.641348 
L 226.383007 698.689693 
L 217.785361 700.502661 
L 208.934706 702.05893 
L 204.416381 702.733979 
L 204.416381 702.733979 
" style="fill:none;opacity:0.6;stroke:#008000;stroke-linecap:square;stroke-width:0.4;"/>
   </g>
   <g id="line2d_5">
    <path clip-path="url(#p527e567ac7)" d="M 382.411188 293.373949 
L 384.960533 297.225175 
L 387.414761 301.07544 
L 392.044279 308.763033 
L 396.313098 316.417774 
L 400.235282 324.022569 
L 403.825416 331.562161 
L 407.098436 339.023104 
L 410.069463 346.393707 
L 412.753651 353.663963 
L 415.166056 360.825472 
L 417.321514 367.871342 
L 419.234539 374.796093 
L 420.919233 381.595551 
L 422.389215 388.266735 
L 423.657561 394.807751 
L 424.736759 401.217684 
L 425.638677 407.496487 
L 426.683536 416.670601 
L 427.389746 425.55666 
L 427.789113 434.162601 
L 427.910184 442.498502 
L 427.778358 450.576057 
L 427.416042 458.408132 
L 426.842825 466.00839 
L 426.075664 473.390981 
L 425.129073 480.570292 
L 424.015309 487.560753 
L 422.744547 494.376679 
L 421.325038 501.032153 
L 419.763258 507.540944 
L 417.467696 516.014237 
L 414.934858 524.281062 
L 412.167514 532.370527 
L 409.164248 540.310227 
L 405.919668 548.126205 
L 402.424518 555.84292 
L 398.665726 563.483194 
L 394.626373 571.068121 
L 390.285613 578.616935 
L 385.618533 586.146795 
L 381.886703 591.790741 
L 377.941088 597.437621 
L 373.766314 603.091653 
L 369.345522 608.75589 
L 364.66033 614.432035 
L 359.690818 620.12022 
L 354.415532 625.818751 
L 348.811523 631.523808 
L 342.854418 637.229111 
L 336.518552 642.925548 
L 329.777159 648.600762 
L 322.602638 654.238715 
L 317.56514 657.96687 
L 312.314319 661.662498 
L 306.841898 665.317535 
L 301.139753 668.922895 
L 295.2 672.46841 
L 289.015107 675.942794 
L 282.578003 679.333593 
L 275.882206 682.627163 
L 268.921953 685.808653 
L 261.692343 688.861999 
L 254.189485 691.769936 
L 246.410648 694.514034 
L 238.354416 697.074743 
L 230.020839 699.431463 
L 221.411584 701.56264 
L 212.530076 703.445875 
L 207.988812 704.287316 
L 207.988812 704.287316 
" style="fill:none;opacity:0.6;stroke:#008000;stroke-linecap:square;stroke-width:0.4;"/>
   </g>
   <g id="line2d_6">
    <path clip-path="url(#p527e567ac7)" d="M 378.812192 291.883196 
L 381.465294 295.602335 
L 384.025428 299.325455 
L 388.872437 306.773676 
L 393.365065 314.208997 
L 397.515921 321.614259 
L 401.338198 328.97401 
L 404.845511 336.274478 
L 408.051744 343.503533 
L 410.970906 350.65063 
L 413.617002 357.706744 
L 416.003915 364.664293 
L 418.145304 371.517044 
L 420.054515 378.260029 
L 421.744509 384.889445 
L 423.227794 391.402558 
L 424.516382 397.797602 
L 425.621745 404.073689 
L 426.959946 413.264723 
L 427.944643 422.190477 
L 428.607169 430.856285 
L 428.975859 439.269783 
L 429.076116 447.440407 
L 428.930518 455.378953 
L 428.558959 463.097207 
L 427.978799 470.607628 
L 427.205024 477.923091 
L 426.250408 485.05668 
L 425.125668 492.021517 
L 423.83961 498.830633 
L 422.39926 505.496863 
L 420.809986 512.032774 
L 419.075603 518.450601 
L 416.541234 526.844464 
L 413.754679 535.076435 
L 410.713555 543.172132 
L 407.411491 551.15571 
L 403.838222 559.049783 
L 399.979615 566.87531 
L 395.817631 574.651456 
L 392.483954 580.461563 
L 388.956519 586.260001 
L 385.223188 592.052373 
L 381.270453 597.843363 
L 377.083404 603.636611 
L 372.645698 609.434552 
L 367.939543 615.238234 
L 362.945693 621.047098 
L 357.643474 626.858728 
L 352.010832 632.668564 
L 346.024423 638.469588 
L 339.659762 644.251963 
L 332.891418 650.002654 
L 325.693293 655.705024 
L 320.642735 659.469738 
L 315.381614 663.196689 
L 309.902218 666.87775 
L 304.19701 670.503816 
L 298.258723 674.064756 
L 292.080453 677.549377 
L 285.65577 680.945391 
L 278.978836 684.23939 
L 272.044525 687.416839 
L 264.848561 690.462076 
L 257.387646 693.358329 
L 249.659607 696.087748 
L 241.66353 698.631457 
L 233.399909 700.969622 
L 224.870772 703.08154 
L 216.079821 704.945745 
L 211.587808 705.778069 
L 211.587808 705.778069 
" style="fill:none;opacity:0.6;stroke:#008000;stroke-linecap:square;stroke-width:0.4;"/>
   </g>
   <g id="line2d_7">
    <path clip-path="url(#p527e567ac7)" d="M 410.156498 307.510891 
L 412.244165 311.520814 
L 414.241004 315.523561 
L 417.96875 323.498687 
L 421.353228 331.419645 
L 424.408447 339.271489 
L 427.148772 347.040933 
L 429.58878 354.71631 
L 431.743112 362.28752 
L 433.626359 369.745965 
L 435.252939 377.08447 
L 436.637002 384.297206 
L 437.792344 391.379594 
L 438.732329 398.328214 
L 439.469834 405.140707 
L 440.017198 411.815682 
L 440.386183 418.352617 
L 440.587951 424.751771 
L 440.633045 431.01409 
L 440.428437 440.154535 
L 439.924277 448.998068 
L 439.148226 457.554143 
L 438.124896 465.83382 
L 436.875981 473.849335 
L 435.420411 481.613731 
L 433.774527 489.140558 
L 431.952252 496.443613 
L 429.965268 503.536739 
L 427.823183 510.433658 
L 425.533685 517.147837 
L 423.102688 523.692397 
L 420.534459 530.080023 
L 417.831735 536.322917 
L 414.995817 542.432744 
L 412.026657 548.420606 
L 408.922924 554.297009 
L 405.682061 560.071839 
L 402.300325 565.754343 
L 398.77282 571.353102 
L 395.093515 576.876 
L 391.255252 582.330189 
L 387.249755 587.722048 
L 383.067623 593.057122 
L 378.698321 598.340057 
L 374.130176 603.574514 
L 369.350365 608.76307 
L 364.344914 613.907094 
L 359.098699 619.006607 
L 353.595466 624.060114 
L 347.817863 629.064413 
L 341.747498 634.014383 
L 335.365029 638.902736 
L 328.650289 643.719755 
L 321.582461 648.453002 
L 314.140302 653.087018 
L 306.302446 657.603 
L 300.846916 660.537152 
L 295.2 663.401324 
L 289.355784 666.187076 
L 283.308632 668.885112 
L 277.053268 671.485254 
L 270.584866 673.976412 
L 263.899149 676.346578 
L 256.992496 678.582808 
L 249.862046 680.671233 
L 242.505822 682.597069 
L 234.922843 684.344646 
L 227.113247 685.897449 
L 219.078413 687.238173 
L 210.821076 688.348799 
L 202.345447 689.210679 
L 193.657316 689.804646 
L 184.764153 690.11113 
L 180.243502 690.150374 
L 180.243502 690.150374 
" style="fill:none;opacity:0.6;stroke:#008000;stroke-linecap:square;stroke-width:0.4;"/>
   </g>
   <g id="line2d_8">
    <path clip-path="url(#p527e567ac7)" d="M 410.156498 307.510891 
L 412.041418 311.845277 
L 413.829091 316.157851 
L 417.121763 324.70831 
L 420.052951 333.145171 
L 422.641441 341.453559 
L 424.906159 349.620765 
L 426.865981 357.636154 
L 428.539559 365.491074 
L 429.945173 373.178726 
L 431.100599 380.694044 
L 432.023 388.033552 
L 432.728836 395.195221 
L 433.233799 402.178326 
L 433.552759 408.9833 
L 433.69973 415.611599 
L 433.687854 422.065562 
L 433.398786 431.426581 
L 432.817409 440.415508 
L 431.977151 449.047821 
L 430.90735 457.340732 
L 429.633512 465.312594 
L 428.177589 472.982408 
L 426.55828 480.36943 
L 424.791313 487.492862 
L 422.889732 494.371609 
L 420.864158 501.024109 
L 418.723025 507.468204 
L 415.699331 515.765709 
L 412.491948 523.761806 
L 409.106361 531.492756 
L 405.543613 538.992423 
L 401.800703 546.292323 
L 397.870873 553.421704 
L 393.743796 560.407631 
L 389.405663 567.275053 
L 384.839183 574.046838 
L 380.023524 580.743758 
L 374.934173 587.384403 
L 369.542756 593.985021 
L 363.816811 600.559239 
L 357.71955 607.117669 
L 352.878226 612.030524 
L 347.785668 616.939978 
L 342.421132 621.845886 
L 336.762314 626.746281 
L 330.785378 631.637071 
L 324.465013 636.511695 
L 317.77455 641.360735 
L 310.686148 646.171486 
L 303.171058 650.927485 
L 295.2 655.608017 
L 289.618144 658.674076 
L 283.812005 661.686551 
L 277.773205 664.635511 
L 271.49368 667.509863 
L 264.965799 670.297306 
L 258.182499 672.984282 
L 251.137429 675.555952 
L 243.825106 677.99618 
L 236.241079 680.287534 
L 228.382099 682.411306 
L 220.246298 684.347555 
L 211.833358 686.075176 
L 203.144691 687.571986 
L 194.183603 688.814843 
L 184.955454 689.779788 
L 180.243502 690.150374 
L 180.243502 690.150374 
" style="fill:none;opacity:0.6;stroke:#008000;stroke-linecap:square;stroke-width:0.4;"/>
   </g>
   <g id="line2d_9">
    <path clip-path="url(#p527e567ac7)" d="M 413.47798 309.546298 
L 415.340835 313.82997 
L 417.10836 318.094056 
L 420.365971 326.554453 
L 423.268228 334.910775 
L 425.832913 343.14839 
L 428.077973 351.254693 
L 430.02135 359.219038 
L 431.680813 367.032643 
L 433.07382 374.688488 
L 434.217388 382.181194 
L 435.127994 389.506902 
L 435.821485 396.663144 
L 436.313006 403.648708 
L 436.616955 410.463512 
L 436.746941 417.108468 
L 436.715765 423.585365 
L 436.392806 432.991346 
L 435.770985 442.036268 
L 434.883242 450.733835 
L 433.758623 459.099587 
L 432.4225 467.150322 
L 430.896816 474.903623 
L 429.200346 482.377459 
L 427.348963 489.589877 
L 425.355895 496.558753 
L 423.23197 503.301607 
L 420.985838 509.835467 
L 418.624178 516.17677 
L 415.303794 524.359482 
L 411.793646 532.263323 
L 408.096231 539.9215 
L 404.209853 547.364946 
L 400.12894 554.62234 
L 395.844266 561.72015 
L 391.343074 568.682665 
L 386.609126 575.531997 
L 381.622678 582.288042 
L 376.360393 588.968381 
L 370.795216 595.588096 
L 364.896203 602.159503 
L 360.231962 607.061993 
L 355.344007 611.945058 
L 350.214637 616.809903 
L 344.824756 621.656214 
L 339.153871 626.481942 
L 333.180115 631.283034 
L 326.88031 636.053132 
L 320.230075 640.783242 
L 313.203988 645.461347 
L 305.775827 650.072008 
L 297.918893 654.595929 
L 289.60643 659.009514 
L 283.7987 661.87682 
L 277.769271 664.672946 
L 271.510923 667.387171 
L 265.016871 670.007665 
L 258.280877 672.52145 
L 251.297391 674.914382 
L 244.061684 677.171135 
L 236.570003 679.27521 
L 228.81972 681.208954 
L 220.809493 682.953598 
L 212.539427 684.48932 
L 204.011224 685.795329 
L 195.228346 686.849968 
L 186.196149 687.630841 
L 176.92202 688.114968 
L 176.92202 688.114968 
" style="fill:none;opacity:0.6;stroke:#008000;stroke-linecap:square;stroke-width:0.4;"/>
   </g>
   <g id="line2d_10">
    <path clip-path="url(#p527e567ac7)" d="M 244.990925 281.351234 
L 249.936347 285.88189 
L 259.230543 294.837705 
L 267.763361 303.608799 
L 275.579168 312.150886 
L 282.724963 320.429297 
L 289.249076 328.418463 
L 295.2 336.101154 
L 300.625399 343.467527 
L 305.571304 350.514076 
L 310.081505 357.242568 
L 316.119045 366.752978 
L 321.394513 375.595136 
L 326.018993 383.812586 
L 330.088654 391.454397 
L 334.792338 400.836157 
L 338.816343 409.403877 
L 342.289786 417.268731 
L 346.011769 426.263906 
L 349.188096 434.490125 
L 352.442527 443.552167 
L 355.229031 451.930813 
L 358.032533 461.077038 
L 360.471469 469.769902 
L 362.924515 479.41094 
L 365.107657 489.005752 
L 366.844329 497.580076 
L 368.444267 506.528915 
L 369.915337 516.080027 
L 371.065523 524.953227 
L 372.089493 534.684792 
L 372.81399 543.64109 
L 373.374457 553.568977 
L 373.658752 562.365278 
L 373.741527 572.071792 
L 373.628358 580.045574 
L 373.32052 588.698011 
L 372.766359 598.111045 
L 371.900946 608.370936 
L 370.643531 619.56552 
L 369.539365 627.59019 
L 368.183019 636.091729 
L 366.535908 645.090919 
L 364.555123 654.604789 
L 362.19351 664.645387 
L 359.399928 675.218484 
L 356.119731 686.322286 
L 352.29548 697.946234 
L 347.867883 710.069974 
L 345.409075 716.310031 
L 345.409075 716.310031 
" style="fill:none;opacity:0.6;stroke:#0000ff;stroke-linecap:square;stroke-width:0.5;"/>
   </g>
   <g id="line2d_11">
    <path clip-path="url(#p527e567ac7)" d="M 252.611432 279.731445 
L 257.395725 284.431934 
L 266.371705 293.706656 
L 274.593218 302.770198 
L 282.10615 311.579849 
L 288.95868 320.102601 
L 295.2 328.314589 
L 300.879177 336.200285 
L 306.044188 343.751514 
L 310.741159 350.96638 
L 315.013792 357.848177 
L 320.715746 367.5635 
L 325.679413 376.584383 
L 330.014291 384.958219 
L 333.814777 392.737404 
L 338.188177 402.277606 
L 341.910722 410.980541 
L 345.10757 418.961826 
L 348.513358 428.081417 
L 351.40066 436.413477 
L 354.336847 445.583576 
L 356.829244 454.054366 
L 359.311839 463.29286 
L 361.445912 472.065547 
L 363.560996 481.786322 
L 365.407955 491.451479 
L 366.844329 500.081189 
L 368.130983 509.080414 
L 369.267827 518.677047 
L 370.107642 527.584982 
L 370.791362 537.346355 
L 371.202847 546.322482 
L 371.416495 556.263881 
L 371.39363 565.064745 
L 371.137602 574.768235 
L 370.746221 582.733211 
L 370.136605 591.369633 
L 369.254271 600.757592 
L 368.031321 610.981032 
L 366.383986 622.124912 
L 365.000436 630.106159 
L 363.348217 638.555183 
L 361.388042 647.491408 
L 359.076434 656.930355 
L 356.365847 666.882417 
L 353.204971 677.351578 
L 349.539256 688.334139 
L 345.311665 699.817542 
L 340.463653 711.779375 
L 337.788568 717.92982 
L 337.788568 717.92982 
" style="fill:none;opacity:0.6;stroke:#0000ff;stroke-linecap:square;stroke-width:0.5;"/>
   </g>
   <g id="line2d_12">
    <path clip-path="url(#p527e567ac7)" d="M 241.203033 282.260626 
L 246.226773 286.704283 
L 255.675854 295.496527 
L 264.360448 304.117367 
L 272.324146 312.521749 
L 279.613331 320.674187 
L 286.27588 328.548276 
L 292.359979 336.125939 
L 297.913113 343.396503 
L 302.981244 350.355662 
L 307.608186 357.004414 
L 313.810786 366.408006 
L 319.239768 375.156748 
L 324.006957 383.292238 
L 328.209366 390.86186 
L 333.076068 400.160101 
L 337.248988 408.656287 
L 340.859163 416.459323 
L 344.737566 425.38817 
L 348.056977 433.557702 
L 351.469066 442.561566 
L 354.401374 450.890305 
L 357.364072 459.986209 
L 359.954348 468.635184 
L 362.57528 478.231942 
L 364.925542 487.787192 
L 366.811592 496.329901 
L 368.567466 505.249454 
L 370.205001 514.773438 
L 371.50987 523.625212 
L 372.703524 533.337425 
L 373.584219 542.279715 
L 374.317867 552.196308 
L 374.755635 560.986307 
L 375.007799 570.689898 
L 375.033809 578.664441 
L 374.877024 587.320933 
L 374.487227 596.742204 
L 373.801006 607.015637 
L 372.739154 618.23046 
L 371.775207 626.273178 
L 370.56744 634.797094 
L 369.077637 643.823659 
L 367.263194 653.37065 
L 365.077173 663.450935 
L 362.468542 674.071176 
L 359.382633 685.230534 
L 355.76183 696.919454 
L 351.546496 709.11862 
L 349.196967 715.400639 
L 349.196967 715.400639 
" style="fill:none;opacity:0.6;stroke:#0000ff;stroke-linecap:square;stroke-width:0.5;"/>
   </g>
   <g id="line2d_13">
    <path clip-path="url(#p527e567ac7)" d="M 244.990925 281.351234 
L 249.856433 285.50592 
L 254.538195 289.643781 
L 263.366734 297.843299 
L 271.511504 305.903311 
L 279.01063 313.78529 
L 285.904319 321.458472 
L 292.23384 328.899436 
L 298.040622 336.091514 
L 303.365476 343.02407 
L 308.247965 349.691715 
L 312.725916 356.093501 
L 318.761907 365.204418 
L 324.078381 373.744624 
L 328.773833 381.744763 
L 332.934578 389.24146 
L 337.778283 398.522484 
L 341.952213 407.074247 
L 345.577223 414.988854 
L 349.483328 424.116042 
L 352.832773 432.531711 
L 356.276871 441.875529 
L 359.232062 450.579013 
L 361.807676 458.808703 
L 364.439551 468.003198 
L 366.757625 476.953271 
L 368.82767 485.848088 
L 370.694173 494.874151 
L 372.383459 504.227826 
L 373.697149 512.671798 
L 374.879898 521.678476 
L 375.909489 531.439383 
L 376.619844 540.316115 
L 377.152468 550.040218 
L 377.408953 558.558933 
L 377.46541 567.859508 
L 377.25862 578.073721 
L 376.880326 586.422058 
L 376.259966 595.434139 
L 375.340105 605.180144 
L 374.050387 615.731139 
L 372.943697 623.246555 
L 371.605857 631.169459 
L 370.004197 639.516866 
L 368.102546 648.303003 
L 365.861254 657.538409 
L 363.237341 667.228961 
L 360.184796 677.374892 
L 356.655048 687.969821 
L 352.597605 698.99987 
L 347.96087 710.442926 
L 345.409075 716.310031 
L 345.409075 716.310031 
" style="fill:none;opacity:0.6;stroke:#0000ff;stroke-linecap:square;stroke-width:0.5;"/>
   </g>
   <g id="line2d_14">
    <path clip-path="url(#p527e567ac7)" d="M 237.431589 283.235988 
L 242.582092 287.791732 
L 252.25532 296.791798 
L 261.127609 305.596498 
L 269.246108 314.159095 
L 276.660954 322.443393 
L 283.423801 330.423143 
L 289.586504 338.08115 
L 295.2 345.408179 
L 300.313409 352.401759 
L 304.973367 359.064967 
L 311.207796 368.457596 
L 316.653341 377.16269 
L 321.427085 385.228648 
L 325.629938 392.708827 
L 330.492459 401.865397 
L 334.659677 410.202747 
L 339.091862 419.647617 
L 342.846282 428.192114 
L 346.667 437.49465 
L 349.919679 445.988453 
L 353.179201 455.140171 
L 356.010354 463.721758 
L 358.863381 473.108957 
L 361.420457 482.320018 
L 363.764477 491.624216 
L 365.952341 501.301359 
L 367.766202 510.32399 
L 369.494496 520.134236 
L 370.898505 529.414814 
L 371.994733 537.959503 
L 372.992627 547.440861 
L 373.687026 555.854795 
L 374.246784 565.15876 
L 374.614002 575.519843 
L 374.714314 584.099295 
L 374.61311 593.471491 
L 374.249677 603.733097 
L 373.546817 614.984565 
L 372.842779 623.085052 
L 371.911227 631.698375 
L 370.713312 640.850516 
L 369.205258 650.563896 
L 367.338335 660.855986 
L 365.059039 671.737821 
L 362.309511 683.212497 
L 359.028234 695.273736 
L 355.151006 707.904635 
L 352.968411 714.425277 
L 352.968411 714.425277 
" style="fill:none;opacity:0.6;stroke:#0000ff;stroke-linecap:square;stroke-width:0.5;"/>
   </g>
   <g id="line2d_15">
    <path clip-path="url(#p527e567ac7)" d="M 233.677742 284.277022 
L 238.80259 288.352633 
L 243.73452 292.413866 
L 253.036213 300.46561 
L 261.61885 308.382465 
L 269.522153 316.123257 
L 276.788323 323.65523 
L 283.460893 330.953583 
L 289.583699 338.000801 
L 295.2 344.785853 
L 300.351768 351.303307 
L 305.079134 357.552436 
L 311.456673 366.430652 
L 317.081358 374.735283 
L 322.057303 382.498874 
L 326.475548 389.759836 
L 331.633501 398.730411 
L 336.095161 406.978596 
L 339.987148 414.598259 
L 344.204544 423.370253 
L 347.846602 431.446055 
L 351.624492 440.401361 
L 354.901284 448.735307 
L 358.242969 457.89005 
L 361.192549 466.643916 
L 363.847073 475.19355 
L 366.277342 483.722677 
L 368.534581 492.414688 
L 370.65391 501.465541 
L 372.654939 511.09829 
L 374.277615 520.019416 
L 375.801148 529.770514 
L 376.97136 538.71319 
L 378.013919 548.590255 
L 378.718006 557.31057 
L 379.259445 566.900629 
L 379.521885 574.754399 
L 379.622724 583.253357 
L 379.516961 592.474104 
L 379.147741 602.497459 
L 378.444019 613.406195 
L 377.746519 621.210879 
L 376.831296 629.468015 
L 375.663932 638.198251 
L 374.205955 647.419224 
L 372.414833 657.144501 
L 370.244109 667.382461 
L 367.643722 678.135137 
L 364.560527 689.397116 
L 360.939019 701.154528 
L 358.90863 707.212173 
L 356.722258 713.384243 
L 356.722258 713.384243 
" style="fill:none;opacity:0.6;stroke:#0000ff;stroke-linecap:square;stroke-width:0.5;"/>
   </g>
   <g id="line2d_16">
    <path clip-path="url(#p527e567ac7)" d="M 187.945782 303.089036 
L 195.368228 308.840295 
L 202.401146 314.480989 
L 209.056269 319.996959 
L 215.346531 325.376253 
L 226.888978 335.687861 
L 237.147975 345.36244 
L 246.248748 354.376446 
L 254.316312 362.730828 
L 261.470785 370.445112 
L 267.824127 377.55171 
L 276.071954 387.161671 
L 283.04209 395.646126 
L 290.764426 405.467132 
L 297.098142 413.879499 
L 303.563918 422.827982 
L 309.787338 431.814677 
L 316.318976 441.677317 
L 322.113493 450.832101 
L 327.848282 460.305846 
L 333.569435 470.210097 
L 338.786274 479.679447 
L 343.991842 489.593677 
L 348.740759 499.092284 
L 353.653011 509.432269 
L 358.255467 519.659819 
L 362.279121 529.089833 
L 366.129169 538.601676 
L 369.60951 547.671372 
L 373.505272 558.44008 
L 376.727164 567.921784 
L 380.215551 578.889224 
L 383.95761 591.645281 
L 386.571794 601.31204 
L 389.252235 612.03667 
L 391.95877 623.931576 
L 394.63442 637.10639 
L 397.202575 651.661444 
L 398.416524 659.483511 
L 399.565036 667.680165 
L 400.632381 676.257889 
L 401.601524 685.221155 
L 402.454218 694.572229 
L 402.454218 694.572229 
" style="fill:none;opacity:0.6;stroke:#ff0000;stroke-linecap:square;stroke-width:0.5;"/>
   </g>
   <g id="line2d_17">
    <path clip-path="url(#p527e567ac7)" d="M 186.547843 303.861536 
L 194.204845 309.921642 
L 201.443211 315.850118 
L 208.27619 321.631963 
L 214.718405 327.254747 
L 226.494398 337.986025 
L 236.905961 347.9933 
L 246.093636 357.25969 
L 254.196728 365.795309 
L 261.347936 373.629987 
L 267.66977 380.806491 
L 275.835468 390.4475 
L 282.69968 398.898696 
L 290.26653 408.611537 
L 297.814592 418.749396 
L 304.893692 428.702259 
L 311.315123 438.137677 
L 317.71166 447.958288 
L 323.817153 457.763098 
L 329.690525 467.633233 
L 335.25228 477.417749 
L 340.660691 487.386388 
L 345.615058 496.955563 
L 350.306691 506.447911 
L 355.293574 517.054092 
L 359.939775 527.478807 
L 364.680058 538.735044 
L 368.342363 547.92469 
L 372.489851 558.934172 
L 375.958454 568.71182 
L 379.753002 580.112577 
L 382.462331 588.78408 
L 385.304206 598.44603 
L 388.257276 609.222335 
L 391.285776 621.241312 
L 394.335615 634.630078 
L 397.330664 649.506992 
L 398.777101 657.53588 
L 400.169937 665.972577 
L 401.492478 674.825272 
L 402.726461 684.099865 
L 403.852157 693.799729 
L 403.852157 693.799729 
" style="fill:none;opacity:0.6;stroke:#ff0000;stroke-linecap:square;stroke-width:0.5;"/>
   </g>
   <g id="line2d_18">
    <path clip-path="url(#p527e567ac7)" d="M 185.596345 304.394836 
L 192.906548 309.721746 
L 199.851578 314.963431 
L 206.4416 320.106324 
L 212.687872 325.138739 
L 224.198644 334.834714 
L 234.489149 343.994352 
L 243.670774 352.586938 
L 251.855884 360.603939 
L 259.153628 368.054262 
L 265.666895 374.959537 
L 274.170573 384.362818 
L 281.400902 392.728454 
L 287.592153 400.182919 
L 294.556555 408.913438 
L 301.670122 418.238624 
L 308.511811 427.630875 
L 314.874077 436.772507 
L 320.717559 445.547515 
L 326.657397 454.8752 
L 332.139793 463.886192 
L 337.454441 473.028288 
L 342.52104 482.15698 
L 347.723862 491.999652 
L 352.459084 501.420738 
L 357.299047 511.566442 
L 361.643308 521.178367 
L 365.929035 531.197982 
L 370.010047 541.311385 
L 373.676244 550.950384 
L 377.746711 562.37721 
L 381.080378 572.413023 
L 384.649548 583.982521 
L 387.145795 592.689812 
L 389.715114 602.301617 
L 392.32882 612.916262 
L 394.945414 624.632914 
L 397.507995 637.547126 
L 399.942034 651.745256 
L 401.082365 659.3487 
L 402.15395 667.298092 
L 403.142085 675.598773 
L 404.030943 684.254329 
L 404.803655 693.266429 
L 404.803655 693.266429 
" style="fill:none;opacity:0.6;stroke:#ff0000;stroke-linecap:square;stroke-width:0.5;"/>
   </g>
   <g id="line2d_19">
    <path clip-path="url(#p527e567ac7)" d="M 184.174014 305.20349 
L 191.904481 311.169598 
L 199.214735 317.009201 
L 206.11784 322.707135 
L 212.628269 328.250796 
L 224.534487 338.837405 
L 235.067532 348.716735 
L 244.367728 357.870188 
L 252.574496 366.306174 
L 259.820886 374.052901 
L 266.229924 381.151636 
L 274.512797 390.692165 
L 281.479744 399.05887 
L 289.164691 408.678542 
L 296.836045 418.72343 
L 304.036211 428.589065 
L 310.572434 437.945328 
L 317.088473 447.687059 
L 323.313295 457.416547 
L 329.306812 467.21419 
L 334.987689 476.930028 
L 340.517483 486.831849 
L 345.588388 496.339782 
L 350.395639 505.774104 
L 355.511725 516.318569 
L 360.284938 526.685743 
L 365.162385 537.883228 
L 368.936686 547.027446 
L 373.218367 557.985436 
L 376.806165 567.719978 
L 380.739714 579.073527 
L 383.55478 587.711283 
L 386.514483 597.337792 
L 389.598986 608.077215 
L 392.774096 620.058297 
L 395.987278 633.408803 
L 399.163855 648.248016 
L 400.708273 656.258634 
L 402.204077 664.677686 
L 403.634672 673.513563 
L 404.98187 682.772387 
L 406.225986 692.457775 
L 406.225986 692.457775 
" style="fill:none;opacity:0.6;stroke:#ff0000;stroke-linecap:square;stroke-width:0.5;"/>
   </g>
   <g id="line2d_20">
    <path clip-path="url(#p527e567ac7)" d="M 179.443114 307.994097 
L 186.919698 313.084845 
L 194.028575 318.102073 
L 200.779469 323.031897 
L 207.183262 327.862276 
L 218.997795 337.18572 
L 229.575556 346.012068 
L 239.026895 354.307065 
L 247.463846 362.058593 
L 254.995788 369.272069 
L 261.726246 375.965827 
L 270.525872 385.092755 
L 278.019663 393.22323 
L 284.445807 400.476181 
L 291.685459 408.979846 
L 299.093189 418.07311 
L 306.231322 427.242088 
L 312.882272 436.175884 
L 319.002996 444.75981 
L 325.237676 453.893055 
L 331.005034 462.724376 
L 336.608915 471.692091 
L 341.964447 480.654329 
L 347.478932 490.325834 
L 352.512593 499.5909 
L 357.674082 509.576869 
L 362.323075 519.045162 
L 366.926583 528.922806 
L 371.328476 538.900728 
L 375.300616 548.417734 
L 379.733913 559.708745 
L 383.386364 569.632982 
L 387.323175 581.082602 
L 390.096209 589.705735 
L 392.971162 599.23059 
L 395.922504 609.756355 
L 398.911923 621.383472 
L 401.885601 634.209264 
L 404.771803 648.322424 
L 406.154362 655.885575 
L 407.479257 663.796692 
L 408.731963 672.061585 
L 409.896775 680.684341 
L 410.956886 689.667168 
L 410.956886 689.667168 
" style="fill:none;opacity:0.6;stroke:#ff0000;stroke-linecap:square;stroke-width:0.5;"/>
   </g>
   <g id="line2d_21">
    <path clip-path="url(#p527e567ac7)" d="M 175.70215 310.314045 
L 182.922038 314.673045 
L 189.818965 318.997338 
L 196.400169 323.274314 
L 208.649033 331.642691 
L 219.743457 339.704546 
L 229.767409 347.407359 
L 238.809855 354.717873 
L 246.961041 361.619416 
L 254.309424 368.108824 
L 260.939369 374.193334 
L 269.707656 382.594644 
L 277.272822 390.188329 
L 283.837993 397.055024 
L 291.325744 405.222239 
L 297.658711 412.42834 
L 304.32443 420.330501 
L 310.951703 428.534475 
L 317.330243 436.784513 
L 323.391675 444.973634 
L 329.769037 453.990411 
L 335.859441 463.022333 
L 341.457593 471.724011 
L 346.932326 480.643245 
L 352.083089 489.444296 
L 357.094085 498.430932 
L 362.053341 507.786403 
L 366.965315 517.564228 
L 371.751175 527.650082 
L 376.252445 537.716652 
L 380.250592 547.205014 
L 384.642022 558.323298 
L 388.205005 567.977831 
L 391.99186 578.989224 
L 394.627503 587.199641 
L 397.333906 596.193461 
L 400.08646 606.049405 
L 402.850372 616.84687 
L 405.578757 628.662904 
L 408.210952 641.568436 
L 410.671323 655.623939 
L 411.809228 663.09784 
L 412.868868 670.874853 
L 413.836572 678.957592 
L 414.69785 687.34722 
L 414.69785 687.34722 
" style="fill:none;opacity:0.6;stroke:#ff0000;stroke-linecap:square;stroke-width:0.5;"/>
   </g>
   <g id="line2d_22">
    <path clip-path="url(#p527e567ac7)" d="M 85.460607 422.491737 
L 88.216151 419.376977 
L 91.006399 416.331063 
L 96.683487 410.445386 
L 102.477196 404.83344 
L 108.373453 399.493195 
L 114.358824 394.421931 
L 120.420537 389.616303 
L 126.546507 385.072415 
L 132.725342 380.785884 
L 138.946356 376.751906 
L 145.199567 372.965325 
L 151.475695 369.420687 
L 157.76615 366.112307 
L 164.063022 363.034316 
L 170.359061 360.180723 
L 176.647658 357.545453 
L 182.922822 355.122399 
L 189.179156 352.90546 
L 195.411826 350.888581 
L 201.616535 349.065781 
L 207.789492 347.431192 
L 213.927385 345.979074 
L 220.027345 344.70385 
L 226.086922 343.600117 
L 232.104048 342.662671 
L 238.077013 341.886515 
L 246.950711 341.014318 
L 255.718556 340.479211 
L 264.37841 340.267298 
L 272.929241 340.365947 
L 281.370945 340.763814 
L 289.704177 341.45085 
L 297.930188 342.418292 
L 306.050682 343.658656 
L 314.067679 345.16572 
L 321.983388 346.934492 
L 329.800087 348.961192 
L 337.52001 351.243219 
L 345.145242 353.779117 
L 352.677614 356.568545 
L 360.118601 359.612243 
L 367.469223 362.911991 
L 374.729947 366.470574 
L 381.900581 370.291735 
L 388.980175 374.380136 
L 395.966915 378.7413 
L 402.858007 383.381555 
L 409.649571 388.307967 
L 416.336519 393.528263 
L 422.912435 399.050743 
L 429.369449 404.884173 
L 435.698113 411.037668 
L 439.840482 415.322412 
L 443.917134 419.75633 
L 447.923941 424.342189 
L 451.856381 429.082718 
L 455.709523 433.980576 
L 459.478019 439.038324 
L 463.156084 444.258393 
L 466.737494 449.643048 
L 470.215571 455.19435 
L 473.58318 460.914117 
L 476.832726 466.803882 
L 479.956152 472.864849 
L 482.944943 479.097844 
L 485.790132 485.503272 
L 488.482315 492.081065 
L 491.011659 498.830633 
L 493.367929 505.750809 
L 495.540511 512.839806 
L 497.518444 520.095158 
L 499.290454 527.513675 
L 500.844998 535.091394 
L 502.170312 542.82353 
L 503.254464 550.704437 
L 504.085413 558.727561 
L 504.651075 566.885412 
L 504.939393 575.169529 
L 504.939393 575.169529 
" style="fill:none;opacity:0.6;stroke:#ffff00;stroke-linecap:square;stroke-width:0.5;"/>
   </g>
   <g id="line2d_23">
    <path clip-path="url(#p527e567ac7)" d="M 86.824849 418.842906 
L 89.706653 415.805931 
L 92.619897 412.84048 
L 98.532948 407.12328 
L 104.54891 401.68905 
L 110.653377 396.534769 
L 116.832669 391.656728 
L 123.073851 387.050604 
L 129.364747 382.711539 
L 135.693957 378.634208 
L 142.050852 374.812898 
L 148.425573 371.24157 
L 154.809023 367.913928 
L 161.19285 364.823482 
L 167.56943 361.963603 
L 173.931846 359.327579 
L 180.273856 356.908664 
L 186.589872 354.700125 
L 192.874926 352.695282 
L 199.124635 350.887545 
L 205.335175 349.270448 
L 211.503239 347.837678 
L 217.626007 346.583099 
L 223.701113 345.500775 
L 229.726608 344.584987 
L 235.700929 343.830252 
L 244.563897 342.988733 
L 253.306313 342.481264 
L 261.926815 342.292602 
L 270.42523 342.408889 
L 278.802376 342.817663 
L 287.059878 343.50786 
L 295.2 344.469806 
L 303.225488 345.695193 
L 311.139433 347.177057 
L 318.945136 348.909746 
L 326.645988 350.888891 
L 334.24536 353.111365 
L 341.746494 355.575254 
L 349.152403 358.279818 
L 356.465772 361.225456 
L 363.688864 364.413668 
L 370.823424 367.84702 
L 377.870579 371.529105 
L 384.830742 375.4645 
L 391.70351 379.658723 
L 398.487553 384.118183 
L 405.18051 388.850123 
L 411.778862 393.862554 
L 418.277818 399.164181 
L 424.671183 404.764312 
L 430.951225 410.672756 
L 437.108542 416.899697 
L 443.131926 423.455552 
L 447.066695 428.01403 
L 450.931729 432.726436 
L 454.722196 437.595799 
L 458.432823 442.625064 
L 462.057877 447.81706 
L 465.591158 453.174459 
L 469.025986 458.699742 
L 472.355189 464.395152 
L 475.571102 470.262656 
L 478.665564 476.303894 
L 481.629916 482.520128 
L 484.455006 488.912198 
L 487.131202 495.480461 
L 489.648403 502.224742 
L 491.996059 509.144277 
L 494.163197 516.237657 
L 496.13845 523.502772 
L 497.910095 530.936758 
L 499.466098 538.53594 
L 500.794161 546.295785 
L 501.881777 554.210848 
L 502.716298 562.274732 
L 503.284998 570.480043 
L 503.575151 578.818359 
L 503.575151 578.818359 
" style="fill:none;opacity:0.6;stroke:#ffff00;stroke-linecap:square;stroke-width:0.5;"/>
   </g>
   <g id="line2d_24">
    <path clip-path="url(#p527e567ac7)" d="M 88.252564 415.218441 
L 91.259724 412.263121 
L 94.294897 409.381918 
L 100.441306 403.840471 
L 106.676316 398.590812 
L 112.985234 393.628888 
L 119.354177 388.949967 
L 125.770093 384.548717 
L 132.220773 380.419293 
L 138.694855 376.555412 
L 145.181823 372.950436 
L 151.671995 369.597437 
L 158.156512 366.489274 
L 164.627311 363.618655 
L 171.077109 360.978197 
L 177.499367 358.560481 
L 183.888263 356.358106 
L 190.238653 354.363733 
L 196.546042 352.570125 
L 202.806538 350.970185 
L 209.016822 349.55699 
L 215.174105 348.323813 
L 221.276088 347.264152 
L 227.320931 346.371747 
L 233.307208 345.640598 
L 242.174629 344.833773 
L 250.905918 344.358812 
L 259.500489 344.199061 
L 267.959022 344.339371 
L 276.283256 344.766114 
L 284.475782 345.467171 
L 292.539871 346.431917 
L 300.479302 347.651189 
L 308.298223 349.117256 
L 316.001007 350.823778 
L 323.592133 352.765769 
L 331.076076 354.939552 
L 338.457195 357.342723 
L 345.739642 359.974108 
L 352.927261 362.833727 
L 360.023503 365.922755 
L 367.03133 369.243483 
L 373.953125 372.799288 
L 380.7906 376.594587 
L 387.544699 380.634808 
L 394.215494 384.926337 
L 400.802078 389.47648 
L 407.302453 394.293404 
L 413.713407 399.386077 
L 420.030387 404.764189 
L 426.247365 410.438069 
L 432.356692 416.418578 
L 438.348958 422.716981 
L 444.212841 429.344804 
L 448.044252 433.952097 
L 451.808196 438.714378 
L 455.499713 443.635015 
L 459.113373 448.717285 
L 462.643254 453.964348 
L 466.082936 459.379198 
L 469.425481 464.96463 
L 472.663426 470.723187 
L 475.788777 476.657119 
L 478.793004 482.768326 
L 481.667043 489.058309 
L 484.401299 495.528112 
L 486.985658 502.178264 
L 489.409501 509.008721 
L 491.661725 516.018806 
L 493.730771 523.207146 
L 495.604657 530.571612 
L 497.271019 538.10926 
L 498.717162 545.816272 
L 499.93011 553.6879 
L 500.896671 561.718416 
L 501.603505 569.901059 
L 502.037204 578.227996 
L 502.147436 582.442824 
L 502.147436 582.442824 
" style="fill:none;opacity:0.6;stroke:#ffff00;stroke-linecap:square;stroke-width:0.5;"/>
   </g>
   <g id="line2d_25">
    <path clip-path="url(#p527e567ac7)" d="M 89.743317 411.619445 
L 92.658098 408.653168 
L 95.603933 405.757458 
L 101.581273 400.176964 
L 107.660749 394.875928 
L 113.828412 389.851588 
L 120.070989 385.100523 
L 126.375903 380.618727 
L 132.731285 376.401675 
L 139.125992 372.444393 
L 145.549603 368.741527 
L 151.992419 365.287403 
L 158.445457 362.07609 
L 164.900439 359.10146 
L 171.349771 356.357241 
L 177.786526 353.837068 
L 184.204424 351.534529 
L 190.597802 349.443212 
L 196.961588 347.556743 
L 203.291271 345.868821 
L 209.582874 344.373249 
L 215.83292 343.063967 
L 222.038398 341.935072 
L 228.196739 340.980842 
L 234.305776 340.195756 
L 240.363718 339.574507 
L 246.369118 339.112015 
L 255.276302 338.705427 
L 264.060137 338.629927 
L 272.719214 338.871526 
L 281.253163 339.417556 
L 289.662476 340.256683 
L 297.94833 341.378904 
L 306.112435 342.775536 
L 314.156885 344.439195 
L 322.084022 346.36377 
L 329.896312 348.544395 
L 337.596229 350.977412 
L 345.18614 353.66034 
L 352.668204 356.591837 
L 360.044265 359.771657 
L 367.31576 363.200614 
L 374.483613 366.880542 
L 381.548144 370.814244 
L 388.508967 375.005451 
L 395.364889 379.458767 
L 402.113807 384.179611 
L 408.752603 389.174159 
L 415.277031 394.449262 
L 421.681606 400.012372 
L 427.959486 405.87144 
L 434.102352 412.03481 
L 440.100294 418.511088 
L 444.012739 423.006755 
L 447.851752 427.647952 
L 451.613062 432.437227 
L 455.292013 437.377067 
L 458.88354 442.46987 
L 462.382169 447.717914 
L 465.781997 453.123324 
L 469.076687 458.688036 
L 472.259465 464.413759 
L 475.323109 470.301935 
L 478.259955 476.353696 
L 481.061894 482.569824 
L 483.720379 488.950698 
L 486.226435 495.496254 
L 488.570673 502.20593 
L 490.743305 509.078623 
L 492.734172 516.112633 
L 494.532768 523.305619 
L 496.128275 530.654545 
L 497.509601 538.155635 
L 498.665427 545.804328 
L 499.584256 553.595229 
L 500.254467 561.522075 
L 500.664379 569.577692 
L 500.802318 577.753968 
L 500.656683 586.04182 
L 500.656683 586.04182 
" style="fill:none;opacity:0.6;stroke:#ffff00;stroke-linecap:square;stroke-width:0.5;"/>
   </g>
   <g id="patch_3">
    <path d="M 295.2 722.030633 
C 354.393332 722.030633 411.170227 698.512873 453.026234 656.656866 
C 494.88224 614.80086 518.4 558.023964 518.4 498.830633 
C 518.4 439.637301 494.88224 382.860405 453.026234 341.004399 
C 411.170227 299.148393 354.393332 275.630633 295.2 275.630633 
C 236.006668 275.630633 179.229773 299.148393 137.373766 341.004399 
C 95.51776 382.860405 72 439.637301 72 498.830633 
C 72 558.023964 95.51776 614.80086 137.373766 656.656866 
C 179.229773 698.512873 236.006668 722.030633 295.2 722.030633 
z
" style="fill:none;stroke:#000000;stroke-linecap:square;stroke-linejoin:miter;"/>
   </g>
   <g id="matplotlib.axis_1">
    <g id="xtick_1">
     <g id="line2d_26">
      <path clip-path="url(#p527e567ac7)" d="M 295.2 498.830633 
L 295.2 275.630633 
" style="fill:none;stroke:#000000;stroke-dasharray:1.000000,3.000000;stroke-dashoffset:0.0;stroke-width:0.5;"/>
     </g>
     <g id="text_1">
      <!-- 0 -->
      <defs>
       <path d="M 31.78125 66.40625 
Q 24.171875 66.40625 20.328125 58.90625 
Q 16.5 51.421875 16.5 36.375 
Q 16.5 21.390625 20.328125 13.890625 
Q 24.171875 6.390625 31.78125 6.390625 
Q 39.453125 6.390625 43.28125 13.890625 
Q 47.125 21.390625 47.125 36.375 
Q 47.125 51.421875 43.28125 58.90625 
Q 39.453125 66.40625 31.78125 66.40625 
M 31.78125 74.21875 
Q 44.046875 74.21875 50.515625 64.515625 
Q 56.984375 54.828125 56.984375 36.375 
Q 56.984375 17.96875 50.515625 8.265625 
Q 44.046875 -1.421875 31.78125 -1.421875 
Q 19.53125 -1.421875 13.0625 8.265625 
Q 6.59375 17.96875 6.59375 36.375 
Q 6.59375 54.828125 13.0625 64.515625 
Q 19.53125 74.21875 31.78125 74.21875 
" id="BitstreamVeraSans-Roman-30"/>
      </defs>
      <g transform="translate(291.3825 256.62188258)scale(0.12 -0.12)">
       <use xlink:href="#BitstreamVeraSans-Roman-30"/>
      </g>
     </g>
    </g>
    <g id="xtick_2">
     <g id="line2d_27">
      <path clip-path="url(#p527e567ac7)" d="M 295.2 498.830633 
L 406.8 305.533762 
" style="fill:none;stroke:#000000;stroke-dasharray:1.000000,3.000000;stroke-dashoffset:0.0;stroke-width:0.5;"/>
     </g>
     <g id="text_2">
      <!-- 30 -->
      <defs>
       <path d="M 40.578125 39.3125 
Q 47.65625 37.796875 51.625 33 
Q 55.609375 28.21875 55.609375 21.1875 
Q 55.609375 10.40625 48.1875 4.484375 
Q 40.765625 -1.421875 27.09375 -1.421875 
Q 22.515625 -1.421875 17.65625 -0.515625 
Q 12.796875 0.390625 7.625 2.203125 
L 7.625 11.71875 
Q 11.71875 9.328125 16.59375 8.109375 
Q 21.484375 6.890625 26.8125 6.890625 
Q 36.078125 6.890625 40.9375 10.546875 
Q 45.796875 14.203125 45.796875 21.1875 
Q 45.796875 27.640625 41.28125 31.265625 
Q 36.765625 34.90625 28.71875 34.90625 
L 20.21875 34.90625 
L 20.21875 43.015625 
L 29.109375 43.015625 
Q 36.375 43.015625 40.234375 45.921875 
Q 44.09375 48.828125 44.09375 54.296875 
Q 44.09375 59.90625 40.109375 62.90625 
Q 36.140625 65.921875 28.71875 65.921875 
Q 24.65625 65.921875 20.015625 65.03125 
Q 15.375 64.15625 9.8125 62.3125 
L 9.8125 71.09375 
Q 15.4375 72.65625 20.34375 73.4375 
Q 25.25 74.21875 29.59375 74.21875 
Q 40.828125 74.21875 47.359375 69.109375 
Q 53.90625 64.015625 53.90625 55.328125 
Q 53.90625 49.265625 50.4375 45.09375 
Q 46.96875 40.921875 40.578125 39.3125 
" id="BitstreamVeraSans-Roman-33"/>
      </defs>
      <g transform="translate(410.325 289.515325443)scale(0.12 -0.12)">
       <use xlink:href="#BitstreamVeraSans-Roman-33"/>
       <use x="63.623046875" xlink:href="#BitstreamVeraSans-Roman-30"/>
      </g>
     </g>
    </g>
    <g id="xtick_3">
     <g id="line2d_28">
      <path clip-path="url(#p527e567ac7)" d="M 295.2 498.830633 
L 488.49687 387.230633 
" style="fill:none;stroke:#000000;stroke-dasharray:1.000000,3.000000;stroke-dashoffset:0.0;stroke-width:0.5;"/>
     </g>
     <g id="text_3">
      <!-- 60 -->
      <defs>
       <path d="M 33.015625 40.375 
Q 26.375 40.375 22.484375 35.828125 
Q 18.609375 31.296875 18.609375 23.390625 
Q 18.609375 15.53125 22.484375 10.953125 
Q 26.375 6.390625 33.015625 6.390625 
Q 39.65625 6.390625 43.53125 10.953125 
Q 47.40625 15.53125 47.40625 23.390625 
Q 47.40625 31.296875 43.53125 35.828125 
Q 39.65625 40.375 33.015625 40.375 
M 52.59375 71.296875 
L 52.59375 62.3125 
Q 48.875 64.0625 45.09375 64.984375 
Q 41.3125 65.921875 37.59375 65.921875 
Q 27.828125 65.921875 22.671875 59.328125 
Q 17.53125 52.734375 16.796875 39.40625 
Q 19.671875 43.65625 24.015625 45.921875 
Q 28.375 48.1875 33.59375 48.1875 
Q 44.578125 48.1875 50.953125 41.515625 
Q 57.328125 34.859375 57.328125 23.390625 
Q 57.328125 12.15625 50.6875 5.359375 
Q 44.046875 -1.421875 33.015625 -1.421875 
Q 20.359375 -1.421875 13.671875 8.265625 
Q 6.984375 17.96875 6.984375 36.375 
Q 6.984375 53.65625 15.1875 63.9375 
Q 23.390625 74.21875 37.203125 74.21875 
Q 40.921875 74.21875 44.703125 73.484375 
Q 48.484375 72.75 52.59375 71.296875 
" id="BitstreamVeraSans-Roman-36"/>
      </defs>
      <g transform="translate(500.191557137 379.38188258)scale(0.12 -0.12)">
       <use xlink:href="#BitstreamVeraSans-Roman-36"/>
       <use x="63.623046875" xlink:href="#BitstreamVeraSans-Roman-30"/>
      </g>
     </g>
    </g>
    <g id="xtick_4">
     <g id="line2d_29">
      <path clip-path="url(#p527e567ac7)" d="M 295.2 498.830633 
L 518.4 498.830633 
" style="fill:none;stroke:#000000;stroke-dasharray:1.000000,3.000000;stroke-dashoffset:0.0;stroke-width:0.5;"/>
     </g>
     <g id="text_4">
      <!-- 90 -->
      <defs>
       <path d="M 10.984375 1.515625 
L 10.984375 10.5 
Q 14.703125 8.734375 18.5 7.8125 
Q 22.3125 6.890625 25.984375 6.890625 
Q 35.75 6.890625 40.890625 13.453125 
Q 46.046875 20.015625 46.78125 33.40625 
Q 43.953125 29.203125 39.59375 26.953125 
Q 35.25 24.703125 29.984375 24.703125 
Q 19.046875 24.703125 12.671875 31.3125 
Q 6.296875 37.9375 6.296875 49.421875 
Q 6.296875 60.640625 12.9375 67.421875 
Q 19.578125 74.21875 30.609375 74.21875 
Q 43.265625 74.21875 49.921875 64.515625 
Q 56.59375 54.828125 56.59375 36.375 
Q 56.59375 19.140625 48.40625 8.859375 
Q 40.234375 -1.421875 26.421875 -1.421875 
Q 22.703125 -1.421875 18.890625 -0.6875 
Q 15.09375 0.046875 10.984375 1.515625 
M 30.609375 32.421875 
Q 37.25 32.421875 41.125 36.953125 
Q 45.015625 41.5 45.015625 49.421875 
Q 45.015625 57.28125 41.125 61.84375 
Q 37.25 66.40625 30.609375 66.40625 
Q 23.96875 66.40625 20.09375 61.84375 
Q 16.21875 57.28125 16.21875 49.421875 
Q 16.21875 41.5 20.09375 36.953125 
Q 23.96875 32.421875 30.609375 32.421875 
" id="BitstreamVeraSans-Roman-39"/>
      </defs>
      <g transform="translate(533.085 502.14188258)scale(0.12 -0.12)">
       <use xlink:href="#BitstreamVeraSans-Roman-39"/>
       <use x="63.623046875" xlink:href="#BitstreamVeraSans-Roman-30"/>
      </g>
     </g>
    </g>
    <g id="xtick_5">
     <g id="line2d_30">
      <path clip-path="url(#p527e567ac7)" d="M 295.2 498.830633 
L 488.49687 610.430633 
" style="fill:none;stroke:#000000;stroke-dasharray:1.000000,3.000000;stroke-dashoffset:0.0;stroke-width:0.5;"/>
     </g>
     <g id="text_5">
      <!-- 120 -->
      <defs>
       <path d="M 12.40625 8.296875 
L 28.515625 8.296875 
L 28.515625 63.921875 
L 10.984375 60.40625 
L 10.984375 69.390625 
L 28.421875 72.90625 
L 38.28125 72.90625 
L 38.28125 8.296875 
L 54.390625 8.296875 
L 54.390625 0 
L 12.40625 0 
z
" id="BitstreamVeraSans-Roman-31"/>
       <path d="M 19.1875 8.296875 
L 53.609375 8.296875 
L 53.609375 0 
L 7.328125 0 
L 7.328125 8.296875 
Q 12.9375 14.109375 22.625 23.890625 
Q 32.328125 33.6875 34.8125 36.53125 
Q 39.546875 41.84375 41.421875 45.53125 
Q 43.3125 49.21875 43.3125 52.78125 
Q 43.3125 58.59375 39.234375 62.25 
Q 35.15625 65.921875 28.609375 65.921875 
Q 23.96875 65.921875 18.8125 64.3125 
Q 13.671875 62.703125 7.8125 59.421875 
L 7.8125 69.390625 
Q 13.765625 71.78125 18.9375 73 
Q 24.125 74.21875 28.421875 74.21875 
Q 39.75 74.21875 46.484375 68.546875 
Q 53.21875 62.890625 53.21875 53.421875 
Q 53.21875 48.921875 51.53125 44.890625 
Q 49.859375 40.875 45.40625 35.40625 
Q 44.1875 33.984375 37.640625 27.21875 
Q 31.109375 20.453125 19.1875 8.296875 
" id="BitstreamVeraSans-Roman-32"/>
      </defs>
      <g transform="translate(496.374057137 624.90188258)scale(0.12 -0.12)">
       <use xlink:href="#BitstreamVeraSans-Roman-31"/>
       <use x="63.623046875" xlink:href="#BitstreamVeraSans-Roman-32"/>
       <use x="127.24609375" xlink:href="#BitstreamVeraSans-Roman-30"/>
      </g>
     </g>
    </g>
    <g id="xtick_6">
     <g id="line2d_31">
      <path clip-path="url(#p527e567ac7)" d="M 295.2 498.830633 
L 406.8 692.127503 
" style="fill:none;stroke:#000000;stroke-dasharray:1.000000,3.000000;stroke-dashoffset:0.0;stroke-width:0.5;"/>
     </g>
     <g id="text_6">
      <!-- 150 -->
      <defs>
       <path d="M 10.796875 72.90625 
L 49.515625 72.90625 
L 49.515625 64.59375 
L 19.828125 64.59375 
L 19.828125 46.734375 
Q 21.96875 47.46875 24.109375 47.828125 
Q 26.265625 48.1875 28.421875 48.1875 
Q 40.625 48.1875 47.75 41.5 
Q 54.890625 34.8125 54.890625 23.390625 
Q 54.890625 11.625 47.5625 5.09375 
Q 40.234375 -1.421875 26.90625 -1.421875 
Q 22.3125 -1.421875 17.546875 -0.640625 
Q 12.796875 0.140625 7.71875 1.703125 
L 7.71875 11.625 
Q 12.109375 9.234375 16.796875 8.0625 
Q 21.484375 6.890625 26.703125 6.890625 
Q 35.15625 6.890625 40.078125 11.328125 
Q 45.015625 15.765625 45.015625 23.390625 
Q 45.015625 31 40.078125 35.4375 
Q 35.15625 39.890625 26.703125 39.890625 
Q 22.75 39.890625 18.8125 39.015625 
Q 14.890625 38.140625 10.796875 36.28125 
z
" id="BitstreamVeraSans-Roman-35"/>
      </defs>
      <g transform="translate(406.5075 714.768439717)scale(0.12 -0.12)">
       <use xlink:href="#BitstreamVeraSans-Roman-31"/>
       <use x="63.623046875" xlink:href="#BitstreamVeraSans-Roman-35"/>
       <use x="127.24609375" xlink:href="#BitstreamVeraSans-Roman-30"/>
      </g>
     </g>
    </g>
    <g id="xtick_7">
     <g id="line2d_32">
      <path clip-path="url(#p527e567ac7)" d="M 295.2 498.830633 
L 295.2 722.030633 
" style="fill:none;stroke:#000000;stroke-dasharray:1.000000,3.000000;stroke-dashoffset:0.0;stroke-width:0.5;"/>
     </g>
     <g id="text_7">
      <!-- 180 -->
      <defs>
       <path d="M 31.78125 34.625 
Q 24.75 34.625 20.71875 30.859375 
Q 16.703125 27.09375 16.703125 20.515625 
Q 16.703125 13.921875 20.71875 10.15625 
Q 24.75 6.390625 31.78125 6.390625 
Q 38.8125 6.390625 42.859375 10.171875 
Q 46.921875 13.96875 46.921875 20.515625 
Q 46.921875 27.09375 42.890625 30.859375 
Q 38.875 34.625 31.78125 34.625 
M 21.921875 38.8125 
Q 15.578125 40.375 12.03125 44.71875 
Q 8.5 49.078125 8.5 55.328125 
Q 8.5 64.0625 14.71875 69.140625 
Q 20.953125 74.21875 31.78125 74.21875 
Q 42.671875 74.21875 48.875 69.140625 
Q 55.078125 64.0625 55.078125 55.328125 
Q 55.078125 49.078125 51.53125 44.71875 
Q 48 40.375 41.703125 38.8125 
Q 48.828125 37.15625 52.796875 32.3125 
Q 56.78125 27.484375 56.78125 20.515625 
Q 56.78125 9.90625 50.3125 4.234375 
Q 43.84375 -1.421875 31.78125 -1.421875 
Q 19.734375 -1.421875 13.25 4.234375 
Q 6.78125 9.90625 6.78125 20.515625 
Q 6.78125 27.484375 10.78125 32.3125 
Q 14.796875 37.15625 21.921875 38.8125 
M 18.3125 54.390625 
Q 18.3125 48.734375 21.84375 45.5625 
Q 25.390625 42.390625 31.78125 42.390625 
Q 38.140625 42.390625 41.71875 45.5625 
Q 45.3125 48.734375 45.3125 54.390625 
Q 45.3125 60.0625 41.71875 63.234375 
Q 38.140625 66.40625 31.78125 66.40625 
Q 25.390625 66.40625 21.84375 63.234375 
Q 18.3125 60.0625 18.3125 54.390625 
" id="BitstreamVeraSans-Roman-38"/>
      </defs>
      <g transform="translate(283.7475 747.66188258)scale(0.12 -0.12)">
       <use xlink:href="#BitstreamVeraSans-Roman-31"/>
       <use x="63.623046875" xlink:href="#BitstreamVeraSans-Roman-38"/>
       <use x="127.24609375" xlink:href="#BitstreamVeraSans-Roman-30"/>
      </g>
     </g>
    </g>
    <g id="xtick_8">
     <g id="line2d_33">
      <path clip-path="url(#p527e567ac7)" d="M 295.2 498.830633 
L 183.6 692.127503 
" style="fill:none;stroke:#000000;stroke-dasharray:1.000000,3.000000;stroke-dashoffset:0.0;stroke-width:0.5;"/>
     </g>
     <g id="text_8">
      <!-- 210 -->
      <g transform="translate(160.9875 714.768439717)scale(0.12 -0.12)">
       <use xlink:href="#BitstreamVeraSans-Roman-32"/>
       <use x="63.623046875" xlink:href="#BitstreamVeraSans-Roman-31"/>
       <use x="127.24609375" xlink:href="#BitstreamVeraSans-Roman-30"/>
      </g>
     </g>
    </g>
    <g id="xtick_9">
     <g id="line2d_34">
      <path clip-path="url(#p527e567ac7)" d="M 295.2 498.830633 
L 101.90313 610.430633 
" style="fill:none;stroke:#000000;stroke-dasharray:1.000000,3.000000;stroke-dashoffset:0.0;stroke-width:0.5;"/>
     </g>
     <g id="text_9">
      <!-- 240 -->
      <defs>
       <path d="M 37.796875 64.3125 
L 12.890625 25.390625 
L 37.796875 25.390625 
z
M 35.203125 72.90625 
L 47.609375 72.90625 
L 47.609375 25.390625 
L 58.015625 25.390625 
L 58.015625 17.1875 
L 47.609375 17.1875 
L 47.609375 0 
L 37.796875 0 
L 37.796875 17.1875 
L 4.890625 17.1875 
L 4.890625 26.703125 
z
" id="BitstreamVeraSans-Roman-34"/>
      </defs>
      <g transform="translate(71.1209428628 624.90188258)scale(0.12 -0.12)">
       <use xlink:href="#BitstreamVeraSans-Roman-32"/>
       <use x="63.623046875" xlink:href="#BitstreamVeraSans-Roman-34"/>
       <use x="127.24609375" xlink:href="#BitstreamVeraSans-Roman-30"/>
      </g>
     </g>
    </g>
    <g id="xtick_10">
     <g id="line2d_35">
      <path clip-path="url(#p527e567ac7)" d="M 295.2 498.830633 
L 72 498.830633 
" style="fill:none;stroke:#000000;stroke-dasharray:1.000000,3.000000;stroke-dashoffset:0.0;stroke-width:0.5;"/>
     </g>
     <g id="text_10">
      <!-- 270 -->
      <defs>
       <path d="M 8.203125 72.90625 
L 55.078125 72.90625 
L 55.078125 68.703125 
L 28.609375 0 
L 18.3125 0 
L 43.21875 64.59375 
L 8.203125 64.59375 
z
" id="BitstreamVeraSans-Roman-37"/>
      </defs>
      <g transform="translate(38.2275 502.14188258)scale(0.12 -0.12)">
       <use xlink:href="#BitstreamVeraSans-Roman-32"/>
       <use x="63.623046875" xlink:href="#BitstreamVeraSans-Roman-37"/>
       <use x="127.24609375" xlink:href="#BitstreamVeraSans-Roman-30"/>
      </g>
     </g>
    </g>
    <g id="xtick_11">
     <g id="line2d_36">
      <path clip-path="url(#p527e567ac7)" d="M 295.2 498.830633 
L 101.90313 387.230633 
" style="fill:none;stroke:#000000;stroke-dasharray:1.000000,3.000000;stroke-dashoffset:0.0;stroke-width:0.5;"/>
     </g>
     <g id="text_11">
      <!-- 300 -->
      <g transform="translate(71.1209428628 379.38188258)scale(0.12 -0.12)">
       <use xlink:href="#BitstreamVeraSans-Roman-33"/>
       <use x="63.623046875" xlink:href="#BitstreamVeraSans-Roman-30"/>
       <use x="127.24609375" xlink:href="#BitstreamVeraSans-Roman-30"/>
      </g>
     </g>
    </g>
    <g id="xtick_12">
     <g id="line2d_37">
      <path clip-path="url(#p527e567ac7)" d="M 295.2 498.830633 
L 183.6 305.533762 
" style="fill:none;stroke:#000000;stroke-dasharray:1.000000,3.000000;stroke-dashoffset:0.0;stroke-width:0.5;"/>
     </g>
     <g id="text_12">
      <!-- 330 -->
      <g transform="translate(160.9875 289.515325443)scale(0.12 -0.12)">
       <use xlink:href="#BitstreamVeraSans-Roman-33"/>
       <use x="63.623046875" xlink:href="#BitstreamVeraSans-Roman-33"/>
       <use x="127.24609375" xlink:href="#BitstreamVeraSans-Roman-30"/>
      </g>
     </g>
    </g>
   </g>
   <g id="matplotlib.axis_2">
    <g id="ytick_1">
     <g id="line2d_38">
      <path clip-path="url(#p527e567ac7)" d="M 518.4 498.830633 
L 518.264033 491.041065 
L 517.856296 483.260988 
L 517.177287 475.49988 
L 516.227833 467.767196 
L 515.00909 460.072359 
L 513.522544 452.424743 
L 511.770006 444.833665 
L 509.753611 437.308375 
L 507.475814 429.858039 
L 504.939393 422.491737 
L 502.147436 415.218441 
L 499.103346 408.047014 
L 495.810831 400.986193 
L 492.273903 394.04458 
L 488.49687 387.230633 
L 484.484335 380.552653 
L 480.241186 374.018777 
L 475.772593 367.636964 
L 471.084 361.414991 
L 466.18112 355.360438 
L 461.069925 349.480681 
L 455.756643 343.782884 
L 450.247748 338.273989 
L 444.549951 332.960708 
L 438.670194 327.849513 
L 432.615641 322.946632 
L 426.393668 318.258039 
L 420.011856 313.789446 
L 413.47798 309.546298 
L 406.8 305.533762 
L 399.986053 301.75673 
L 393.04444 298.219801 
L 385.983619 294.927286 
L 378.812192 291.883196 
L 371.538896 289.09124 
L 364.172593 286.554818 
L 356.722258 284.277022 
L 349.196967 282.260626 
L 341.605889 280.508088 
L 333.958273 279.021542 
L 326.263436 277.8028 
L 318.530753 276.853346 
L 310.769645 276.174337 
L 302.989568 275.7666 
L 295.2 275.630633 
L 287.410432 275.7666 
L 279.630355 276.174337 
L 271.869247 276.853346 
L 264.136564 277.8028 
L 256.441727 279.021542 
L 248.794111 280.508088 
L 241.203033 282.260626 
L 233.677742 284.277022 
L 226.227407 286.554818 
L 218.861104 289.09124 
L 211.587808 291.883196 
L 204.416381 294.927286 
L 197.35556 298.219801 
L 190.413947 301.75673 
L 183.6 305.533762 
L 176.92202 309.546298 
L 170.388144 313.789446 
L 164.006332 318.258039 
L 157.784359 322.946632 
L 151.729806 327.849513 
L 145.850049 332.960708 
L 140.152252 338.273989 
L 134.643357 343.782884 
L 129.330075 349.480681 
L 124.21888 355.360438 
L 119.316 361.414991 
L 114.627407 367.636964 
L 110.158814 374.018777 
L 105.915665 380.552653 
L 101.90313 387.230633 
L 98.126097 394.04458 
L 94.589169 400.986193 
L 91.296654 408.047014 
L 88.252564 415.218441 
L 85.460607 422.491737 
L 82.924186 429.858039 
L 80.646389 437.308375 
L 78.629994 444.833665 
L 76.877456 452.424743 
L 75.39091 460.072359 
L 74.172167 467.767196 
L 73.222713 475.49988 
L 72.543704 483.260988 
L 72.135967 491.041065 
L 72 498.830633 
L 72.135967 506.6202 
L 72.543704 514.400278 
L 73.222713 522.161386 
L 74.172167 529.894069 
L 75.39091 537.588906 
L 76.877456 545.236522 
L 78.629994 552.8276 
L 80.646389 560.35289 
L 82.924186 567.803226 
L 85.460607 575.169529 
L 88.252564 582.442824 
L 91.296654 589.614251 
L 94.589169 596.675073 
L 98.126097 603.616685 
L 101.90313 610.430633 
L 105.915665 617.108612 
L 110.158814 623.642489 
L 114.627407 630.024301 
L 119.316 636.246274 
L 124.21888 642.300827 
L 129.330075 648.180584 
L 134.643357 653.878381 
L 140.152252 659.387276 
L 145.850049 664.700558 
L 151.729806 669.811752 
L 157.784359 674.714633 
L 164.006332 679.403226 
L 170.388144 683.871819 
L 176.92202 688.114968 
L 183.6 692.127503 
L 190.413947 695.904535 
L 197.35556 699.441464 
L 204.416381 702.733979 
L 211.587808 705.778069 
L 218.861104 708.570026 
L 226.227407 711.106447 
L 233.677742 713.384243 
L 241.203033 715.400639 
L 248.794111 717.153177 
L 256.441727 718.639723 
L 264.136564 719.858466 
L 271.869247 720.80792 
L 279.630355 721.486929 
L 287.410432 721.894665 
L 295.2 722.030633 
L 302.989568 721.894665 
L 310.769645 721.486929 
L 318.530753 720.80792 
L 326.263436 719.858466 
L 333.958273 718.639723 
L 341.605889 717.153177 
L 349.196967 715.400639 
L 356.722258 713.384243 
L 364.172593 711.106447 
L 371.538896 708.570026 
L 378.812192 705.778069 
L 385.983619 702.733979 
L 393.04444 699.441464 
L 399.986053 695.904535 
L 406.8 692.127503 
L 413.47798 688.114968 
L 420.011856 683.871819 
L 426.393668 679.403226 
L 432.615641 674.714633 
L 438.670194 669.811752 
L 444.549951 664.700558 
L 450.247748 659.387276 
L 455.756643 653.878381 
L 461.069925 648.180584 
L 466.18112 642.300827 
L 471.084 636.246274 
L 475.772593 630.024301 
L 480.241186 623.642489 
L 484.484335 617.108612 
L 488.49687 610.430633 
L 492.273903 603.616685 
L 495.810831 596.675073 
L 499.103346 589.614251 
L 502.147436 582.442824 
L 504.939393 575.169529 
L 507.475814 567.803226 
L 509.753611 560.35289 
L 511.770006 552.8276 
L 513.522544 545.236522 
L 515.00909 537.588906 
L 516.227833 529.894069 
L 517.177287 522.161386 
L 517.856296 514.400278 
L 518.264033 506.6202 
L 518.4 498.830633 
L 518.4 498.830633 
" style="fill:none;stroke:#000000;stroke-dasharray:1.000000,3.000000;stroke-dashoffset:0.0;stroke-width:0.5;"/>
     </g>
     <g id="text_13">
      <!-- 0 -->
      <g transform="translate(501.409911657 410.920065476)scale(0.12 -0.12)">
       <use xlink:href="#BitstreamVeraSans-Roman-30"/>
      </g>
     </g>
    </g>
    <g id="ytick_2">
     <g id="line2d_39">
      <path clip-path="url(#p527e567ac7)" d="M 466.467384 498.830633 
L 466.363052 492.853487 
L 466.050185 486.883624 
L 465.529163 480.928316 
L 464.800621 474.99482 
L 463.865447 469.090364 
L 462.72478 463.222141 
L 461.38001 457.397302 
L 459.832776 451.622944 
L 458.084961 445.9061 
L 456.138697 440.253737 
L 453.996353 434.672741 
L 451.66054 429.169912 
L 449.134105 423.751953 
L 446.420124 418.425466 
L 443.521905 413.196941 
L 440.442979 408.072747 
L 437.187096 403.059127 
L 433.758224 398.16219 
L 430.16054 393.387902 
L 426.398428 388.74208 
L 422.47647 384.230384 
L 418.399446 379.858311 
L 414.172322 375.631187 
L 409.800248 371.554163 
L 405.288552 367.632205 
L 400.64273 363.870092 
L 395.868442 360.272409 
L 390.971506 356.843537 
L 385.957886 353.587654 
L 380.833692 350.508727 
L 375.605166 347.610508 
L 370.278679 344.896528 
L 364.860721 342.370092 
L 359.357891 340.03428 
L 353.776895 337.891936 
L 348.124532 335.945671 
L 342.407689 334.197857 
L 336.63333 332.650622 
L 330.808491 331.305852 
L 324.940269 330.165185 
L 319.035813 329.230011 
L 313.102316 328.50147 
L 307.147009 327.980448 
L 301.177145 327.66758 
L 295.2 327.563249 
L 289.222855 327.66758 
L 283.252991 327.980448 
L 277.297684 328.50147 
L 271.364187 329.230011 
L 265.459731 330.165185 
L 259.591509 331.305852 
L 253.76667 332.650622 
L 247.992311 334.197857 
L 242.275468 335.945671 
L 236.623105 337.891936 
L 231.042109 340.03428 
L 225.539279 342.370092 
L 220.121321 344.896528 
L 214.794834 347.610508 
L 209.566308 350.508727 
L 204.442114 353.587654 
L 199.428494 356.843537 
L 194.531558 360.272409 
L 189.75727 363.870092 
L 185.111448 367.632205 
L 180.599752 371.554163 
L 176.227678 375.631187 
L 172.000554 379.858311 
L 167.92353 384.230384 
L 164.001572 388.74208 
L 160.23946 393.387902 
L 156.641776 398.16219 
L 153.212904 403.059127 
L 149.957021 408.072747 
L 146.878095 413.196941 
L 143.979876 418.425466 
L 141.265895 423.751953 
L 138.73946 429.169912 
L 136.403647 434.672741 
L 134.261303 440.253737 
L 132.315039 445.9061 
L 130.567224 451.622944 
L 129.01999 457.397302 
L 127.67522 463.222141 
L 126.534553 469.090364 
L 125.599379 474.99482 
L 124.870837 480.928316 
L 124.349815 486.883624 
L 124.036948 492.853487 
L 123.932616 498.830633 
L 124.036948 504.807778 
L 124.349815 510.777641 
L 124.870837 516.732949 
L 125.599379 522.666445 
L 126.534553 528.570902 
L 127.67522 534.439124 
L 129.01999 540.263963 
L 130.567224 546.038321 
L 132.315039 551.755165 
L 134.261303 557.407528 
L 136.403647 562.988524 
L 138.73946 568.491353 
L 141.265895 573.909312 
L 143.979876 579.235799 
L 146.878095 584.464324 
L 149.957021 589.588519 
L 153.212904 594.602138 
L 156.641776 599.499075 
L 160.23946 604.273363 
L 164.001572 608.919185 
L 167.92353 613.430881 
L 172.000554 617.802954 
L 176.227678 622.030078 
L 180.599752 626.107103 
L 185.111448 630.02906 
L 189.75727 633.791173 
L 194.531558 637.388857 
L 199.428494 640.817729 
L 204.442114 644.073611 
L 209.566308 647.152538 
L 214.794834 650.050757 
L 220.121321 652.764737 
L 225.539279 655.291173 
L 231.042109 657.626986 
L 236.623105 659.769329 
L 242.275468 661.715594 
L 247.992311 663.463408 
L 253.76667 665.010643 
L 259.591509 666.355413 
L 265.459731 667.49608 
L 271.364187 668.431254 
L 277.297684 669.159796 
L 283.252991 669.680818 
L 289.222855 669.993685 
L 295.2 670.098016 
L 301.177145 669.993685 
L 307.147009 669.680818 
L 313.102316 669.159796 
L 319.035813 668.431254 
L 324.940269 667.49608 
L 330.808491 666.355413 
L 336.63333 665.010643 
L 342.407689 663.463408 
L 348.124532 661.715594 
L 353.776895 659.769329 
L 359.357891 657.626986 
L 364.860721 655.291173 
L 370.278679 652.764737 
L 375.605166 650.050757 
L 380.833692 647.152538 
L 385.957886 644.073611 
L 390.971506 640.817729 
L 395.868442 637.388857 
L 400.64273 633.791173 
L 405.288552 630.02906 
L 409.800248 626.107103 
L 414.172322 622.030078 
L 418.399446 617.802954 
L 422.47647 613.430881 
L 426.398428 608.919185 
L 430.16054 604.273363 
L 433.758224 599.499075 
L 437.187096 594.602138 
L 440.442979 589.588519 
L 443.521905 584.464324 
L 446.420124 579.235799 
L 449.134105 573.909312 
L 451.66054 568.491353 
L 453.996353 562.988524 
L 456.138697 557.407528 
L 458.084961 551.755165 
L 459.832776 546.038321 
L 461.38001 540.263963 
L 462.72478 534.439124 
L 463.865447 528.570902 
L 464.800621 522.666445 
L 465.529163 516.732949 
L 466.050185 510.777641 
L 466.363052 504.807778 
L 466.467384 498.830633 
L 466.467384 498.830633 
" style="fill:none;stroke:#000000;stroke-dasharray:1.000000,3.000000;stroke-dashoffset:0.0;stroke-width:0.5;"/>
     </g>
     <g id="text_14">
      <!-- 15 -->
      <g transform="translate(453.430430403 430.793817327)scale(0.12 -0.12)">
       <use xlink:href="#BitstreamVeraSans-Roman-31"/>
       <use x="63.623046875" xlink:href="#BitstreamVeraSans-Roman-35"/>
      </g>
     </g>
    </g>
    <g id="ytick_3">
     <g id="line2d_40">
      <path clip-path="url(#p527e567ac7)" d="M 424.06458 498.830633 
L 423.986079 494.333324 
L 423.750672 489.841494 
L 423.358646 485.360616 
L 422.810479 480.896149 
L 422.106838 476.453533 
L 421.24858 472.03818 
L 420.236751 467.655469 
L 419.072585 463.31074 
L 417.757499 459.009287 
L 416.293095 454.75635 
L 414.681158 450.557111 
L 412.923652 446.416686 
L 411.022717 442.340119 
L 408.980671 438.332377 
L 406.8 434.398343 
L 404.483362 430.542809 
L 402.033579 426.770474 
L 399.453635 423.085933 
L 396.746675 419.493675 
L 393.915995 415.998077 
L 390.965046 412.603398 
L 387.897421 409.313773 
L 384.716859 406.133211 
L 381.427235 403.065587 
L 378.032555 400.114637 
L 374.536957 397.283958 
L 370.9447 394.576997 
L 367.260159 391.997054 
L 363.487823 389.547271 
L 359.63229 387.230633 
L 355.698256 385.049962 
L 351.690514 383.007915 
L 347.613947 381.106981 
L 343.473521 379.349475 
L 339.274282 377.737538 
L 335.021345 376.273134 
L 330.719892 374.958048 
L 326.375163 373.793881 
L 321.992453 372.782053 
L 317.577099 371.923795 
L 313.134483 371.220154 
L 308.670017 370.671986 
L 304.189139 370.27996 
L 299.697309 370.044553 
L 295.2 369.966052 
L 290.702691 370.044553 
L 286.210861 370.27996 
L 281.729983 370.671986 
L 277.265517 371.220154 
L 272.822901 371.923795 
L 268.407547 372.782053 
L 264.024837 373.793881 
L 259.680108 374.958048 
L 255.378655 376.273134 
L 251.125718 377.737538 
L 246.926479 379.349475 
L 242.786053 381.106981 
L 238.709486 383.007915 
L 234.701744 385.049962 
L 230.76771 387.230633 
L 226.912177 389.547271 
L 223.139841 391.997054 
L 219.4553 394.576997 
L 215.863043 397.283958 
L 212.367445 400.114637 
L 208.972765 403.065587 
L 205.683141 406.133211 
L 202.502579 409.313773 
L 199.434954 412.603398 
L 196.484005 415.998077 
L 193.653325 419.493675 
L 190.946365 423.085933 
L 188.366421 426.770474 
L 185.916638 430.542809 
L 183.6 434.398343 
L 181.419329 438.332377 
L 179.377283 442.340119 
L 177.476348 446.416686 
L 175.718842 450.557111 
L 174.106905 454.75635 
L 172.642501 459.009287 
L 171.327415 463.31074 
L 170.163249 467.655469 
L 169.15142 472.03818 
L 168.293162 476.453533 
L 167.589521 480.896149 
L 167.041354 485.360616 
L 166.649328 489.841494 
L 166.413921 494.333324 
L 166.33542 498.830633 
L 166.413921 503.327942 
L 166.649328 507.819771 
L 167.041354 512.300649 
L 167.589521 516.765116 
L 168.293162 521.207732 
L 169.15142 525.623085 
L 170.163249 530.005796 
L 171.327415 534.350525 
L 172.642501 538.651978 
L 174.106905 542.904915 
L 175.718842 547.104154 
L 177.476348 551.244579 
L 179.377283 555.321146 
L 181.419329 559.328888 
L 183.6 563.262923 
L 185.916638 567.118456 
L 188.366421 570.890791 
L 190.946365 574.575332 
L 193.653325 578.16759 
L 196.484005 581.663188 
L 199.434954 585.057867 
L 202.502579 588.347492 
L 205.683141 591.528054 
L 208.972765 594.595678 
L 212.367445 597.546628 
L 215.863043 600.377307 
L 219.4553 603.084268 
L 223.139841 605.664211 
L 226.912177 608.113994 
L 230.76771 610.430633 
L 234.701744 612.611303 
L 238.709486 614.65335 
L 242.786053 616.554284 
L 246.926479 618.311791 
L 251.125718 619.923728 
L 255.378655 621.388131 
L 259.680108 622.703217 
L 264.024837 623.867384 
L 268.407547 624.879212 
L 272.822901 625.73747 
L 277.265517 626.441111 
L 281.729983 626.989279 
L 286.210861 627.381305 
L 290.702691 627.616712 
L 295.2 627.695213 
L 299.697309 627.616712 
L 304.189139 627.381305 
L 308.670017 626.989279 
L 313.134483 626.441111 
L 317.577099 625.73747 
L 321.992453 624.879212 
L 326.375163 623.867384 
L 330.719892 622.703217 
L 335.021345 621.388131 
L 339.274282 619.923728 
L 343.473521 618.311791 
L 347.613947 616.554284 
L 351.690514 614.65335 
L 355.698256 612.611303 
L 359.63229 610.430633 
L 363.487823 608.113994 
L 367.260159 605.664211 
L 370.9447 603.084268 
L 374.536957 600.377307 
L 378.032555 597.546628 
L 381.427235 594.595678 
L 384.716859 591.528054 
L 387.897421 588.347492 
L 390.965046 585.057867 
L 393.915995 581.663188 
L 396.746675 578.16759 
L 399.453635 574.575332 
L 402.033579 570.890791 
L 404.483362 567.118456 
L 406.8 563.262923 
L 408.980671 559.328888 
L 411.022717 555.321146 
L 412.923652 551.244579 
L 414.681158 547.104154 
L 416.293095 542.904915 
L 417.757499 538.651978 
L 419.072585 534.350525 
L 420.236751 530.005796 
L 421.24858 525.623085 
L 422.106838 521.207732 
L 422.810479 516.765116 
L 423.358646 512.300649 
L 423.750672 507.819771 
L 423.986079 503.327942 
L 424.06458 498.830633 
L 424.06458 498.830633 
" style="fill:none;stroke:#000000;stroke-dasharray:1.000000,3.000000;stroke-dashoffset:0.0;stroke-width:0.5;"/>
     </g>
     <g id="text_15">
      <!-- 30 -->
      <g transform="translate(414.255348004 447.020667763)scale(0.12 -0.12)">
       <use xlink:href="#BitstreamVeraSans-Roman-33"/>
       <use x="63.623046875" xlink:href="#BitstreamVeraSans-Roman-30"/>
      </g>
     </g>
    </g>
    <g id="ytick_4">
     <g id="line2d_41">
      <path clip-path="url(#p527e567ac7)" d="M 387.652467 498.830633 
L 387.596148 495.604088 
L 387.427258 492.381474 
L 387.146003 489.166718 
L 386.752726 485.963736 
L 386.247906 482.77643 
L 385.632159 479.608684 
L 384.906234 476.464356 
L 384.071015 473.347279 
L 383.127521 470.261249 
L 382.076901 467.210027 
L 380.920435 464.197329 
L 379.659531 461.226826 
L 378.295727 458.302139 
L 376.830683 455.426828 
L 375.266185 452.604399 
L 373.604139 449.838289 
L 371.846569 447.131869 
L 369.995617 444.488436 
L 368.053538 441.91121 
L 366.022699 439.403332 
L 363.905573 436.967857 
L 361.704739 434.607752 
L 359.42288 432.325893 
L 357.062775 430.12506 
L 354.6273 428.007934 
L 352.119422 425.977094 
L 349.542197 424.035016 
L 346.898764 422.184064 
L 344.192343 420.426494 
L 341.426234 418.764447 
L 338.603804 417.199949 
L 335.728494 415.734906 
L 332.803806 414.371101 
L 329.833304 413.110198 
L 326.820606 411.953731 
L 323.769384 410.903111 
L 320.683354 409.959617 
L 317.566276 409.124399 
L 314.421949 408.398474 
L 311.254202 407.782726 
L 308.066897 407.277907 
L 304.863914 406.88463 
L 301.649158 406.603375 
L 298.426545 406.434485 
L 295.2 406.378165 
L 291.973455 406.434485 
L 288.750842 406.603375 
L 285.536086 406.88463 
L 282.333103 407.277907 
L 279.145798 407.782726 
L 275.978051 408.398474 
L 272.833724 409.124399 
L 269.716646 409.959617 
L 266.630616 410.903111 
L 263.579394 411.953731 
L 260.566696 413.110198 
L 257.596194 414.371101 
L 254.671506 415.734906 
L 251.796196 417.199949 
L 248.973766 418.764447 
L 246.207657 420.426494 
L 243.501236 422.184064 
L 240.857803 424.035016 
L 238.280578 425.977094 
L 235.7727 428.007934 
L 233.337225 430.12506 
L 230.97712 432.325893 
L 228.695261 434.607752 
L 226.494427 436.967857 
L 224.377301 439.403332 
L 222.346462 441.91121 
L 220.404383 444.488436 
L 218.553431 447.131869 
L 216.795861 449.838289 
L 215.133815 452.604399 
L 213.569317 455.426828 
L 212.104273 458.302139 
L 210.740469 461.226826 
L 209.479565 464.197329 
L 208.323099 467.210027 
L 207.272479 470.261249 
L 206.328985 473.347279 
L 205.493766 476.464356 
L 204.767841 479.608684 
L 204.152094 482.77643 
L 203.647274 485.963736 
L 203.253997 489.166718 
L 202.972742 492.381474 
L 202.803852 495.604088 
L 202.747533 498.830633 
L 202.803852 502.057177 
L 202.972742 505.279791 
L 203.253997 508.494547 
L 203.647274 511.697529 
L 204.152094 514.884835 
L 204.767841 518.052581 
L 205.493766 521.196909 
L 206.328985 524.313986 
L 207.272479 527.400016 
L 208.323099 530.451239 
L 209.479565 533.463936 
L 210.740469 536.434439 
L 212.104273 539.359127 
L 213.569317 542.234437 
L 215.133815 545.056866 
L 216.795861 547.822976 
L 218.553431 550.529396 
L 220.404383 553.172829 
L 222.346462 555.750055 
L 224.377301 558.257933 
L 226.494427 560.693408 
L 228.695261 563.053513 
L 230.97712 565.335372 
L 233.337225 567.536205 
L 235.7727 569.653331 
L 238.280578 571.684171 
L 240.857803 573.62625 
L 243.501236 575.477201 
L 246.207657 577.234771 
L 248.973766 578.896818 
L 251.796196 580.461316 
L 254.671506 581.92636 
L 257.596194 583.290164 
L 260.566696 584.551067 
L 263.579394 585.707534 
L 266.630616 586.758154 
L 269.716646 587.701648 
L 272.833724 588.536866 
L 275.978051 589.262791 
L 279.145798 589.878539 
L 282.333103 590.383359 
L 285.536086 590.776635 
L 288.750842 591.05789 
L 291.973455 591.22678 
L 295.2 591.2831 
L 298.426545 591.22678 
L 301.649158 591.05789 
L 304.863914 590.776635 
L 308.066897 590.383359 
L 311.254202 589.878539 
L 314.421949 589.262791 
L 317.566276 588.536866 
L 320.683354 587.701648 
L 323.769384 586.758154 
L 326.820606 585.707534 
L 329.833304 584.551067 
L 332.803806 583.290164 
L 335.728494 581.92636 
L 338.603804 580.461316 
L 341.426234 578.896818 
L 344.192343 577.234771 
L 346.898764 575.477201 
L 349.542197 573.62625 
L 352.119422 571.684171 
L 354.6273 569.653331 
L 357.062775 567.536205 
L 359.42288 565.335372 
L 361.704739 563.053513 
L 363.905573 560.693408 
L 366.022699 558.257933 
L 368.053538 555.750055 
L 369.995617 553.172829 
L 371.846569 550.529396 
L 373.604139 547.822976 
L 375.266185 545.056866 
L 376.830683 542.234437 
L 378.295727 539.359127 
L 379.659531 536.434439 
L 380.920435 533.463936 
L 382.076901 530.451239 
L 383.127521 527.400016 
L 384.071015 524.313986 
L 384.906234 521.196909 
L 385.632159 518.052581 
L 386.247906 514.884835 
L 386.752726 511.697529 
L 387.146003 508.494547 
L 387.427258 505.279791 
L 387.596148 502.057177 
L 387.652467 498.830633 
L 387.652467 498.830633 
" style="fill:none;stroke:#000000;stroke-dasharray:1.000000,3.000000;stroke-dashoffset:0.0;stroke-width:0.5;"/>
     </g>
     <g id="text_16">
      <!-- 45 -->
      <g transform="translate(380.614942104 460.954980131)scale(0.12 -0.12)">
       <use xlink:href="#BitstreamVeraSans-Roman-34"/>
       <use x="63.623046875" xlink:href="#BitstreamVeraSans-Roman-35"/>
      </g>
     </g>
    </g>
    <g id="ytick_5">
     <g id="line2d_42">
      <path clip-path="url(#p527e567ac7)" d="M 355.00626 498.830633 
L 354.969827 496.743424 
L 354.860575 494.658759 
L 354.424229 490.50721 
L 353.699349 486.396212 
L 352.689467 482.345793 
L 351.399501 478.375687 
L 349.835737 474.505235 
L 348.005793 470.753294 
L 345.918585 467.138143 
L 343.584281 463.677395 
L 341.014253 460.38791 
L 338.221023 457.285714 
L 335.218199 454.38592 
L 332.02041 451.702657 
L 328.643236 449.248996 
L 325.10313 447.036892 
L 321.417339 445.077122 
L 317.603819 443.379234 
L 313.681151 441.9515 
L 309.668444 440.800874 
L 305.585248 439.932964 
L 301.451456 439.351998 
L 297.287208 439.060805 
L 293.112792 439.060805 
L 288.948544 439.351998 
L 284.814752 439.932964 
L 280.731556 440.800874 
L 276.718849 441.9515 
L 272.796181 443.379234 
L 268.982661 445.077122 
L 265.29687 447.036892 
L 261.756764 449.248996 
L 258.37959 451.702657 
L 255.181801 454.38592 
L 252.178977 457.285714 
L 249.385747 460.38791 
L 246.815719 463.677395 
L 244.481415 467.138143 
L 242.394207 470.753294 
L 240.564263 474.505235 
L 239.000499 478.375687 
L 237.710533 482.345793 
L 236.700651 486.396212 
L 235.975771 490.50721 
L 235.539425 494.658759 
L 235.39374 498.830633 
L 235.539425 503.002506 
L 235.975771 507.154055 
L 236.700651 511.265053 
L 237.710533 515.315472 
L 239.000499 519.285578 
L 240.564263 523.15603 
L 242.394207 526.907971 
L 244.481415 530.523122 
L 246.815719 533.98387 
L 249.385747 537.273355 
L 252.178977 540.375552 
L 255.181801 543.275345 
L 258.37959 545.958608 
L 261.756764 548.412269 
L 265.29687 550.624373 
L 268.982661 552.584143 
L 272.796181 554.282031 
L 276.718849 555.709766 
L 280.731556 556.860391 
L 284.814752 557.728301 
L 288.948544 558.309267 
L 293.112792 558.60046 
L 297.287208 558.60046 
L 301.451456 558.309267 
L 305.585248 557.728301 
L 309.668444 556.860391 
L 313.681151 555.709766 
L 317.603819 554.282031 
L 321.417339 552.584143 
L 325.10313 550.624373 
L 328.643236 548.412269 
L 332.02041 545.958608 
L 335.218199 543.275345 
L 338.221023 540.375552 
L 341.014253 537.273355 
L 343.584281 533.98387 
L 345.918585 530.523122 
L 348.005793 526.907971 
L 349.835737 523.15603 
L 351.399501 519.285578 
L 352.689467 515.315472 
L 353.699349 511.265053 
L 354.424229 507.154055 
L 354.860575 503.002506 
L 355.00626 498.830633 
L 355.00626 498.830633 
" style="fill:none;stroke:#000000;stroke-dasharray:1.000000,3.000000;stroke-dashoffset:0.0;stroke-width:0.5;"/>
     </g>
     <g id="text_17">
      <!-- 60 -->
      <g transform="translate(350.4537793 473.448142822)scale(0.12 -0.12)">
       <use xlink:href="#BitstreamVeraSans-Roman-36"/>
       <use x="63.623046875" xlink:href="#BitstreamVeraSans-Roman-30"/>
      </g>
     </g>
    </g>
    <g id="ytick_6">
     <g id="line2d_43">
      <path clip-path="url(#p527e567ac7)" d="M 324.584837 498.830633 
L 324.423864 495.759081 
L 323.942708 492.721181 
L 323.146641 489.750218 
L 322.044385 486.878742 
L 320.648016 484.138214 
L 318.972833 481.558658 
L 317.03719 479.168338 
L 314.862294 476.993443 
L 312.471974 475.0578 
L 309.892419 473.382617 
L 307.15189 471.986248 
L 304.280414 470.883991 
L 301.309451 470.087924 
L 298.271552 469.606768 
L 295.2 469.445795 
L 292.128448 469.606768 
L 289.090549 470.087924 
L 286.119586 470.883991 
L 283.24811 471.986248 
L 280.507581 473.382617 
L 277.928026 475.0578 
L 275.537706 476.993443 
L 273.36281 479.168338 
L 271.427167 481.558658 
L 269.751984 484.138214 
L 268.355615 486.878742 
L 267.253359 489.750218 
L 266.457292 492.721181 
L 265.976136 495.759081 
L 265.815163 498.830633 
L 265.976136 501.902184 
L 266.457292 504.940084 
L 267.253359 507.911047 
L 268.355615 510.782523 
L 269.751984 513.523051 
L 271.427167 516.102607 
L 273.36281 518.492927 
L 275.537706 520.667822 
L 277.928026 522.603465 
L 280.507581 524.278648 
L 283.24811 525.675017 
L 286.119586 526.777274 
L 289.090549 527.573341 
L 292.128448 528.054497 
L 295.2 528.21547 
L 298.271552 528.054497 
L 301.309451 527.573341 
L 304.280414 526.777274 
L 307.15189 525.675017 
L 309.892419 524.278648 
L 312.471974 522.603465 
L 314.862294 520.667822 
L 317.03719 518.492927 
L 318.972833 516.102607 
L 320.648016 513.523051 
L 322.044385 510.782523 
L 323.146641 507.911047 
L 323.942708 504.940084 
L 324.423864 501.902184 
L 324.584837 498.830633 
L 324.584837 498.830633 
" style="fill:none;stroke:#000000;stroke-dasharray:1.000000,3.000000;stroke-dashoffset:0.0;stroke-width:0.5;"/>
     </g>
     <g id="text_18">
      <!-- 75 -->
      <g transform="translate(322.348049897 485.089917121)scale(0.12 -0.12)">
       <use xlink:href="#BitstreamVeraSans-Roman-37"/>
       <use x="63.623046875" xlink:href="#BitstreamVeraSans-Roman-35"/>
      </g>
     </g>
    </g>
   </g>
   <g id="legend_1">
    <g id="patch_4">
     <path d="M 629.24625 543.263633 
L 734.4 543.263633 
L 734.4 454.397633 
L 629.24625 454.397633 
z
" style="fill:#ffffff;stroke:#000000;stroke-linejoin:miter;"/>
    </g>
    <g id="line2d_44">
     <path style="fill:none;opacity:0.6;stroke:#008000;stroke-linecap:square;stroke-width:0.4;"/>
    </g>
    <g id="line2d_45"/>
    <g id="text_19">
     <!-- Group1 -->
     <defs>
      <path d="M 18.109375 8.203125 
L 18.109375 -20.796875 
L 9.078125 -20.796875 
L 9.078125 54.6875 
L 18.109375 54.6875 
L 18.109375 46.390625 
Q 20.953125 51.265625 25.265625 53.625 
Q 29.59375 56 35.59375 56 
Q 45.5625 56 51.78125 48.09375 
Q 58.015625 40.1875 58.015625 27.296875 
Q 58.015625 14.40625 51.78125 6.484375 
Q 45.5625 -1.421875 35.59375 -1.421875 
Q 29.59375 -1.421875 25.265625 0.953125 
Q 20.953125 3.328125 18.109375 8.203125 
M 48.6875 27.296875 
Q 48.6875 37.203125 44.609375 42.84375 
Q 40.53125 48.484375 33.40625 48.484375 
Q 26.265625 48.484375 22.1875 42.84375 
Q 18.109375 37.203125 18.109375 27.296875 
Q 18.109375 17.390625 22.1875 11.75 
Q 26.265625 6.109375 33.40625 6.109375 
Q 40.53125 6.109375 44.609375 11.75 
Q 48.6875 17.390625 48.6875 27.296875 
" id="BitstreamVeraSans-Roman-70"/>
      <path d="M 59.515625 10.40625 
L 59.515625 29.984375 
L 43.40625 29.984375 
L 43.40625 38.09375 
L 69.28125 38.09375 
L 69.28125 6.78125 
Q 63.578125 2.734375 56.6875 0.65625 
Q 49.8125 -1.421875 42 -1.421875 
Q 24.90625 -1.421875 15.25 8.5625 
Q 5.609375 18.5625 5.609375 36.375 
Q 5.609375 54.25 15.25 64.234375 
Q 24.90625 74.21875 42 74.21875 
Q 49.125 74.21875 55.546875 72.453125 
Q 61.96875 70.703125 67.390625 67.28125 
L 67.390625 56.78125 
Q 61.921875 61.421875 55.765625 63.765625 
Q 49.609375 66.109375 42.828125 66.109375 
Q 29.4375 66.109375 22.71875 58.640625 
Q 16.015625 51.171875 16.015625 36.375 
Q 16.015625 21.625 22.71875 14.15625 
Q 29.4375 6.6875 42.828125 6.6875 
Q 48.046875 6.6875 52.140625 7.59375 
Q 56.25 8.5 59.515625 10.40625 
" id="BitstreamVeraSans-Roman-47"/>
      <path d="M 30.609375 48.390625 
Q 23.390625 48.390625 19.1875 42.75 
Q 14.984375 37.109375 14.984375 27.296875 
Q 14.984375 17.484375 19.15625 11.84375 
Q 23.34375 6.203125 30.609375 6.203125 
Q 37.796875 6.203125 41.984375 11.859375 
Q 46.1875 17.53125 46.1875 27.296875 
Q 46.1875 37.015625 41.984375 42.703125 
Q 37.796875 48.390625 30.609375 48.390625 
M 30.609375 56 
Q 42.328125 56 49.015625 48.375 
Q 55.71875 40.765625 55.71875 27.296875 
Q 55.71875 13.875 49.015625 6.21875 
Q 42.328125 -1.421875 30.609375 -1.421875 
Q 18.84375 -1.421875 12.171875 6.21875 
Q 5.515625 13.875 5.515625 27.296875 
Q 5.515625 40.765625 12.171875 48.375 
Q 18.84375 56 30.609375 56 
" id="BitstreamVeraSans-Roman-6f"/>
      <path d="M 41.109375 46.296875 
Q 39.59375 47.171875 37.8125 47.578125 
Q 36.03125 48 33.890625 48 
Q 26.265625 48 22.1875 43.046875 
Q 18.109375 38.09375 18.109375 28.8125 
L 18.109375 0 
L 9.078125 0 
L 9.078125 54.6875 
L 18.109375 54.6875 
L 18.109375 46.1875 
Q 20.953125 51.171875 25.484375 53.578125 
Q 30.03125 56 36.53125 56 
Q 37.453125 56 38.578125 55.875 
Q 39.703125 55.765625 41.0625 55.515625 
z
" id="BitstreamVeraSans-Roman-72"/>
      <path d="M 8.5 21.578125 
L 8.5 54.6875 
L 17.484375 54.6875 
L 17.484375 21.921875 
Q 17.484375 14.15625 20.5 10.265625 
Q 23.53125 6.390625 29.59375 6.390625 
Q 36.859375 6.390625 41.078125 11.03125 
Q 45.3125 15.671875 45.3125 23.6875 
L 45.3125 54.6875 
L 54.296875 54.6875 
L 54.296875 0 
L 45.3125 0 
L 45.3125 8.40625 
Q 42.046875 3.421875 37.71875 1 
Q 33.40625 -1.421875 27.6875 -1.421875 
Q 18.265625 -1.421875 13.375 4.4375 
Q 8.5 10.296875 8.5 21.578125 
" id="BitstreamVeraSans-Roman-75"/>
     </defs>
     <g transform="translate(675.32625 471.09938258)scale(0.144 -0.144)">
      <use xlink:href="#BitstreamVeraSans-Roman-47"/>
      <use x="77.490234375" xlink:href="#BitstreamVeraSans-Roman-72"/>
      <use x="118.572265625" xlink:href="#BitstreamVeraSans-Roman-6f"/>
      <use x="179.75390625" xlink:href="#BitstreamVeraSans-Roman-75"/>
      <use x="243.1328125" xlink:href="#BitstreamVeraSans-Roman-70"/>
      <use x="306.609375" xlink:href="#BitstreamVeraSans-Roman-31"/>
     </g>
    </g>
    <g id="line2d_46">
     <path style="fill:none;opacity:0.6;stroke:#0000ff;stroke-linecap:square;stroke-width:0.5;"/>
    </g>
    <g id="line2d_47"/>
    <g id="text_20">
     <!-- Group2 -->
     <g transform="translate(675.32625 492.23588258)scale(0.144 -0.144)">
      <use xlink:href="#BitstreamVeraSans-Roman-47"/>
      <use x="77.490234375" xlink:href="#BitstreamVeraSans-Roman-72"/>
      <use x="118.572265625" xlink:href="#BitstreamVeraSans-Roman-6f"/>
      <use x="179.75390625" xlink:href="#BitstreamVeraSans-Roman-75"/>
      <use x="243.1328125" xlink:href="#BitstreamVeraSans-Roman-70"/>
      <use x="306.609375" xlink:href="#BitstreamVeraSans-Roman-32"/>
     </g>
    </g>
    <g id="line2d_48">
     <path style="fill:none;opacity:0.6;stroke:#ff0000;stroke-linecap:square;stroke-width:0.5;"/>
    </g>
    <g id="line2d_49"/>
    <g id="text_21">
     <!-- Group3 -->
     <g transform="translate(675.32625 513.37238258)scale(0.144 -0.144)">
      <use xlink:href="#BitstreamVeraSans-Roman-47"/>
      <use x="77.490234375" xlink:href="#BitstreamVeraSans-Roman-72"/>
      <use x="118.572265625" xlink:href="#BitstreamVeraSans-Roman-6f"/>
      <use x="179.75390625" xlink:href="#BitstreamVeraSans-Roman-75"/>
      <use x="243.1328125" xlink:href="#BitstreamVeraSans-Roman-70"/>
      <use x="306.609375" xlink:href="#BitstreamVeraSans-Roman-33"/>
     </g>
    </g>
    <g id="line2d_50">
     <path style="fill:none;opacity:0.6;stroke:#ffff00;stroke-linecap:square;stroke-width:0.5;"/>
    </g>
    <g id="line2d_51"/>
    <g id="text_22">
     <!-- Group4 -->
     <g transform="translate(675.32625 534.50888258)scale(0.144 -0.144)">
      <use xlink:href="#BitstreamVeraSans-Roman-47"/>
      <use x="77.490234375" xlink:href="#BitstreamVeraSans-Roman-72"/>
      <use x="118.572265625" xlink:href="#BitstreamVeraSans-Roman-6f"/>
      <use x="179.75390625" xlink:href="#BitstreamVeraSans-Roman-75"/>
      <use x="243.1328125" xlink:href="#BitstreamVeraSans-Roman-70"/>
      <use x="306.609375" xlink:href="#BitstreamVeraSans-Roman-34"/>
     </g>
    </g>
   </g>
  </g>
 </g>
 <defs>
  <clipPath id="p527e567ac7">
   <path d="M 295.2 722.030633 
C 354.393332 722.030633 411.170227 698.512873 453.026234 656.656866 
C 494.88224 614.80086 518.4 558.023964 518.4 498.830633 
C 518.4 439.637301 494.88224 382.860405 453.026234 341.004399 
C 411.170227 299.148393 354.393332 275.630633 295.2 275.630633 
C 236.006668 275.630633 179.229773 299.148393 137.373766 341.004399 
C 95.51776 382.860405 72 439.637301 72 498.830633 
C 72 558.023964 95.51776 614.80086 137.373766 656.656866 
C 179.229773 698.512873 236.006668 722.030633 295.2 722.030633 
z
"/>
  </clipPath>
 </defs>
</svg>
